<!-- Generated by IcoMoon.io -->
<svg version="1.1" xmlns="http://www.w3.org/2000/svg" width="20" height="20" viewBox="0 0 20 20">
<title>accounts-down</title>
<path d="M10.316 0.732c0.534-0.229 1.060-0.301 1.559-0.301 0.588 0 1.097 0.146 1.521 0.267l0.064 0.018 0.036 0.016c0.491 0.21 0.906 0.487 1.271 0.73l0.069 0.046 0.073 0.073c0.284 0.283 0.632 0.632 0.861 1.001 0.242 0.332 0.418 0.762 0.418 1.224v2.385c0 0.188 0 0.551-0.075 0.925l-0.002 0.009c-0.062 0.31-0.131 0.654-0.268 1.066-0.109 0.328-0.463 0.504-0.791 0.395s-0.504-0.463-0.395-0.791c0.111-0.334 0.168-0.612 0.23-0.925 0.049-0.244 0.050-0.5 0.050-0.69v-2.375c0-0.151-0.064-0.335-0.188-0.5l-0.019-0.026-0.017-0.028c-0.133-0.222-0.367-0.465-0.675-0.773-0.348-0.232-0.655-0.431-1.001-0.584-0.428-0.122-0.776-0.215-1.164-0.215-0.376 0-0.725 0.053-1.066 0.199-0.464 0.199-0.78 0.343-0.992 0.555l-0.020 0.020-0.022 0.018c-0.322 0.268-0.519 0.465-0.709 0.737-0.004 0.010-0.009 0.021-0.015 0.031-0.041 0.082-0.112 0.183-0.231 0.262-0.122 0.082-0.258 0.115-0.383 0.115-0.345 0-0.625-0.28-0.625-0.625 0-0.182 0.078-0.346 0.202-0.46 0.279-0.407 0.563-0.688 0.94-1.003 0.396-0.386 0.919-0.609 1.318-0.78l0.044-0.019z"></path>
<path d="M6.629 4.544c0.534-0.229 1.060-0.301 1.559-0.301s1.025 0.072 1.559 0.301c0.491 0.21 0.906 0.487 1.271 0.73l0.069 0.046 0.073 0.073c0.284 0.283 0.632 0.632 0.861 1.001 0.242 0.332 0.418 0.762 0.418 1.224v0.875c0 0.345-0.28 0.625-0.625 0.625s-0.625-0.28-0.625-0.625v-0.875c0-0.151-0.064-0.335-0.188-0.5l-0.019-0.026-0.017-0.028c-0.133-0.222-0.367-0.465-0.675-0.773-0.36-0.239-0.676-0.445-1.035-0.599-0.341-0.146-0.69-0.199-1.066-0.199s-0.725 0.053-1.066 0.199c-0.464 0.199-0.78 0.343-0.992 0.555l-0.024 0.024-0.027 0.022c-0.281 0.225-0.515 0.47-0.644 0.729l-0.011 0.022-0.012 0.021c-0.162 0.271-0.223 0.467-0.223 0.616v2.313c0 0.249 0.001 0.444 0.050 0.69 0.010 0.050 0.020 0.099 0.029 0.146 0.056 0.286 0.105 0.535 0.189 0.744l0.007 0.017 0.006 0.017c0.1 0.3 0.252 0.557 0.443 0.876 0.137 0.229 0.323 0.421 0.569 0.668 0.309 0.258 0.391 0.636 0.36 0.93-0.031 0.297-0.194 0.662-0.561 0.845l-0.007 0.004-3.984 1.868-0.413 0.236v0.021c0 0.484 0.362 0.875 0.875 0.875h7.187c0.345 0 0.625 0.28 0.625 0.625s-0.28 0.625-0.625 0.625h-7.188c-1.237 0-2.125-0.984-2.125-2.125v-0.375c0-0.202 0.090-0.35 0.139-0.419 0.060-0.084 0.134-0.153 0.209-0.207 0.107-0.076 0.239-0.138 0.39-0.167l0.349-0.2 3.77-1.767c-0.213-0.216-0.452-0.476-0.643-0.794l-0.011-0.019c-0.179-0.298-0.393-0.656-0.54-1.088-0.127-0.325-0.2-0.699-0.252-0.971-0.008-0.043-0.016-0.084-0.024-0.122-0.075-0.373-0.075-0.675-0.075-0.924v-2.324c0-0.467 0.182-0.889 0.39-1.239 0.24-0.469 0.612-0.834 0.944-1.103 0.396-0.383 0.916-0.606 1.313-0.776l0.044-0.019z"></path>
<path d="M12.058 13.739c0.244-0.244 0.64-0.244 0.884 0l0.808 0.808v-2.241c0-0.345 0.28-0.625 0.625-0.625s0.625 0.28 0.625 0.625v2.241l0.808-0.808c0.244-0.244 0.64-0.244 0.884 0s0.244 0.64 0 0.884l-2.317 2.317-2.317-2.317c-0.244-0.244-0.244-0.64 0-0.884z"></path>
<path d="M14.375 9.181c-2.761 0-5 2.239-5 5s2.239 5 5 5c2.761 0 5-2.239 5-5s-2.239-5-5-5zM10.625 14.181c0-2.071 1.679-3.75 3.75-3.75s3.75 1.679 3.75 3.75c0 2.071-1.679 3.75-3.75 3.75s-3.75-1.679-3.75-3.75z"></path>
</svg>
