<!-- Generated by IcoMoon.io -->
<svg version="1.1" xmlns="http://www.w3.org/2000/svg" width="32" height="32" viewBox="0 0 32 32">
<title>accounts</title>
<path d="M10.506 7.271c0.855-0.366 1.696-0.481 2.494-0.481s1.639 0.115 2.494 0.481c0.785 0.336 1.45 0.78 2.033 1.169l0.11 0.073 0.070 0.070c0.015 0.015 0.031 0.031 0.047 0.047 0.454 0.453 1.012 1.011 1.377 1.602 0.387 0.531 0.669 1.22 0.669 1.958v3.717c0 0.3 0 0.882-0.119 1.48l-0.003 0.014c-0.099 0.496-0.209 1.047-0.429 1.706l-0.009 0.028-0.011 0.027c-0.221 0.553-0.546 1.201-0.871 1.743-0.267 0.446-0.556 0.854-0.971 1.25l6.074 2.847 0.71 0.406c0.088 0.043 0.279 0.14 0.445 0.277 0.215 0.179 0.485 0.511 0.485 1.006v0.6c0 1.852-1.548 3.4-3.4 3.4h-17.3c-1.852 0-3.4-1.548-3.4-3.4v-0.6c0-0.317 0.138-0.548 0.202-0.644 0.083-0.124 0.182-0.228 0.282-0.312 0.127-0.106 0.322-0.233 0.57-0.299l0.584-0.334 6.032-2.828c-0.341-0.346-0.723-0.762-1.028-1.27l-0.018-0.030c-0.287-0.477-0.629-1.049-0.864-1.741-0.204-0.52-0.319-1.118-0.403-1.553-0.013-0.069-0.026-0.134-0.038-0.194-0.119-0.597-0.119-1.080-0.119-1.478v-3.718c0-0.748 0.291-1.422 0.623-1.983 0.384-0.75 0.98-1.335 1.511-1.765 0.633-0.613 1.466-0.969 2.102-1.241 0.024-0.010 0.047-0.020 0.070-0.030zM13 8.79c-0.602 0-1.161 0.085-1.706 0.319-0.742 0.318-1.248 0.549-1.587 0.888l-0.039 0.039-0.043 0.035c-0.45 0.36-0.823 0.753-1.030 1.166l-0.017 0.034-0.020 0.033c-0.26 0.433-0.357 0.748-0.357 0.986v3.7c0 0.398 0.002 0.71 0.081 1.104 0.016 0.080 0.031 0.158 0.046 0.234 0.090 0.457 0.168 0.855 0.302 1.191l0.011 0.027 0.009 0.028c0.16 0.481 0.403 0.891 0.709 1.402 0.219 0.366 0.517 0.674 0.911 1.069 0.495 0.414 0.626 1.018 0.576 1.488-0.050 0.476-0.311 1.059-0.897 1.352l-0.011 0.006-6.375 2.988-0.561 0.321v0.091c0 0.748 0.652 1.4 1.4 1.4h17.3c0.748 0 1.4-0.652 1.4-1.4v-0.191l-0.561-0.321-6.342-2.973c-0.552-0.233-0.927-0.712-1.021-1.276-0.094-0.566 0.105-1.135 0.517-1.547l0.039-0.039 0.043-0.035c0.379-0.303 0.606-0.599 0.867-1.034 0.269-0.449 0.539-0.988 0.718-1.43 0.172-0.522 0.261-0.96 0.359-1.452 0.078-0.391 0.081-0.799 0.081-1.104v-3.7c0-0.242-0.102-0.536-0.3-0.8l-0.031-0.041-0.026-0.044c-0.213-0.356-0.587-0.744-1.080-1.237-0.575-0.383-1.081-0.711-1.657-0.958-0.545-0.234-1.104-0.319-1.706-0.319z"></path>
<path d="M16.506 1.171c0.855-0.366 1.696-0.481 2.494-0.481 0.965 0 1.788 0.242 2.416 0.451l0.040 0.013 0.038 0.016c0.785 0.336 1.45 0.78 2.033 1.169l0.11 0.073 0.070 0.070c0.015 0.015 0.031 0.031 0.047 0.047 0.454 0.453 1.012 1.011 1.377 1.602 0.387 0.531 0.669 1.22 0.669 1.958v3.817c0 0.3 0 0.882-0.119 1.479l-0.003 0.014c-0.099 0.496-0.209 1.047-0.429 1.706l-0.009 0.028-0.011 0.027c-0.221 0.553-0.546 1.201-0.871 1.743-0.267 0.446-0.556 0.854-0.971 1.25l6.074 2.847 0.71 0.405c0.088 0.044 0.279 0.14 0.445 0.277 0.215 0.179 0.485 0.511 0.485 1.006v0.6c0 1.852-1.548 3.4-3.4 3.4h-2.7c-0.552 0-1-0.448-1-1s0.448-1 1-1h2.7c0.748 0 1.4-0.652 1.4-1.4v-0.191l-0.561-0.321-6.343-2.973c-0.602-0.255-0.939-0.796-1.022-1.322-0.083-0.524 0.070-1.167 0.609-1.582 0.373-0.3 0.599-0.595 0.858-1.027 0.269-0.449 0.539-0.988 0.718-1.43 0.172-0.522 0.261-0.96 0.359-1.452 0.078-0.391 0.081-0.799 0.081-1.104v-3.8c0-0.242-0.102-0.536-0.3-0.8l-0.031-0.041-0.026-0.044c-0.213-0.356-0.587-0.744-1.080-1.237-0.563-0.375-1.059-0.697-1.619-0.942-0.559-0.185-1.123-0.335-1.743-0.335-0.602 0-1.161 0.085-1.706 0.319-0.742 0.318-1.248 0.549-1.587 0.888l-0.032 0.032-0.035 0.029c-0.515 0.429-0.83 0.744-1.135 1.179-0.007 0.016-0.015 0.033-0.023 0.050-0.066 0.131-0.18 0.293-0.369 0.419-0.196 0.131-0.412 0.184-0.613 0.184-0.552 0-1-0.448-1-1 0-0.291 0.124-0.553 0.323-0.736 0.446-0.651 0.902-1.101 1.505-1.605 0.634-0.617 1.47-0.975 2.109-1.248 0.024-0.010 0.047-0.020 0.070-0.030z"></path>
</svg>
