<!-- Generated by IcoMoon.io -->
<svg version="1.1" xmlns="http://www.w3.org/2000/svg" width="20" height="20" viewBox="0 0 20 20">
<title>account-circle</title>
<path d="M10 1.056c-4.832 0-8.75 3.918-8.75 8.75s3.918 8.75 8.75 8.75c4.832 0 8.75-3.918 8.75-8.75s-3.918-8.75-8.75-8.75zM2.5 9.806c0-4.142 3.358-7.5 7.5-7.5s7.5 3.358 7.5 7.5c0 2.115-0.876 4.026-2.284 5.39l-2.352-1.101c0.301-0.273 0.542-0.586 0.727-0.892 0.273-0.411 0.484-0.832 0.627-1.262l0.007-0.021c0.12-0.361 0.258-0.775 0.329-1.199 0.071-0.426 0.071-0.781 0.071-1.032v-2.508c0-0.472-0.189-0.9-0.378-1.28l-0.017-0.035-0.022-0.032c-0.296-0.443-0.657-0.8-1.057-1.133-0.434-0.361-0.934-0.645-1.493-0.855l-0.024-0.009-0.024-0.007c-0.443-0.127-1.016-0.274-1.609-0.274s-1.166 0.147-1.609 0.274l-0.024 0.007-0.024 0.009c-0.56 0.21-1.059 0.494-1.493 0.855-0.401 0.334-0.762 0.69-1.057 1.133l-0.008 0.012-0.008 0.013c-0.228 0.38-0.402 0.865-0.402 1.322v2.508c0 0.251-0 0.606 0.071 1.032 0.071 0.424 0.209 0.838 0.329 1.199l0.007 0.021c0.141 0.424 0.348 0.839 0.615 1.244 0.207 0.394 0.528 0.697 0.736 0.893l0.013 0.012-2.362 1.106c-1.409-1.363-2.284-3.274-2.284-5.39zM5.87 16.068l2.049-0.959 0.027-0.017c0.328-0.197 0.526-0.523 0.545-0.886 0.018-0.348-0.128-0.671-0.362-0.904-0.073-0.073-0.14-0.138-0.201-0.196-0.199-0.191-0.334-0.321-0.432-0.517l-0.017-0.035-0.022-0.032c-0.223-0.335-0.384-0.66-0.49-0.976-0.128-0.384-0.236-0.712-0.289-1.030-0.053-0.319-0.054-0.587-0.054-0.835v-2.5c0-0.166 0.074-0.424 0.216-0.666 0.203-0.301 0.464-0.567 0.809-0.854 0.311-0.259 0.678-0.472 1.109-0.636 0.423-0.12 0.843-0.219 1.241-0.219s0.818 0.099 1.241 0.219c0.431 0.164 0.798 0.377 1.109 0.636 0.337 0.281 0.595 0.541 0.796 0.835 0.171 0.347 0.229 0.536 0.229 0.685v2.5c0 0.248-0.001 0.515-0.054 0.835-0.053 0.318-0.161 0.646-0.289 1.030-0.105 0.316-0.266 0.641-0.49 0.976l-0.008 0.012-0.008 0.013c-0.158 0.263-0.362 0.514-0.604 0.708-0.619 0.496-0.608 1.533 0.201 1.873l2.007 0.939c-1.184 0.783-2.604 1.238-4.13 1.238s-2.946-0.456-4.13-1.238z"></path>
</svg>
