<!-- Generated by IcoMoon.io -->
<svg version="1.1" xmlns="http://www.w3.org/2000/svg" width="20" height="20" viewBox="0 0 20 20">
<title>account-female</title>
<path d="M8.177 0.776c0.599-0.2 1.232-0.345 1.885-0.345 0.658 0 1.307 0.147 1.941 0.429 0.572 0.254 1.142 0.534 1.653 0.972 0.447 0.383 0.883 0.809 1.188 1.333 0.291 0.44 0.468 0.868 0.468 1.454 0 2.283 0.464 3.81 0.888 4.811 0.166 0.392 0.323 0.699 0.458 0.963 0.041 0.081 0.081 0.158 0.118 0.232 0.073 0.146 0.151 0.31 0.197 0.465 0.040 0.135 0.109 0.427-0.056 0.715l-0.011 0.019-0.012 0.018c-0.091 0.136-0.209 0.216-0.284 0.26-0.082 0.048-0.168 0.083-0.243 0.11-0.151 0.053-0.328 0.095-0.503 0.128-0.354 0.068-0.794 0.124-1.212 0.174-0.054 0.007-0.108 0.013-0.162 0.019-0.37 0.044-0.718 0.086-1.004 0.132-0.083 0.013-0.156 0.027-0.22 0.039l4.893 2.296 0.571 0.317c0.090 0.046 0.212 0.118 0.322 0.215 0.081 0.071 0.323 0.295 0.323 0.65v0.5c0 1.408-1.092 2.5-2.5 2.5h-13.75c-1.345 0-2.5-1.155-2.5-2.5v-0.5c0-0.36 0.25-0.586 0.327-0.655 0.104-0.092 0.229-0.176 0.313-0.231 0.005-0.003 0.009-0.006 0.014-0.009l0.021-0.014 0.603-0.335 4.913-2.305c-0.080-0.020-0.175-0.042-0.285-0.065-0.292-0.060-0.646-0.12-1.021-0.183-0.063-0.011-0.128-0.022-0.192-0.032-0.435-0.074-0.888-0.153-1.251-0.24-0.18-0.043-0.358-0.092-0.509-0.151-0.075-0.029-0.159-0.066-0.238-0.114-0.071-0.043-0.187-0.123-0.276-0.257l-0.012-0.018-0.011-0.019c-0.148-0.26-0.114-0.519-0.069-0.68 0.042-0.153 0.118-0.305 0.182-0.428 0.037-0.070 0.076-0.142 0.117-0.219 0.12-0.222 0.259-0.478 0.414-0.825 0.405-0.905 0.902-2.39 1.086-4.87 0.005-0.574 0.182-0.996 0.468-1.43 0.304-0.524 0.74-0.95 1.187-1.333 0.508-0.435 1.142-0.717 1.677-0.955 0.013-0.006 0.025-0.011 0.038-0.017l0.028-0.012 0.029-0.010zM8.601 1.952c-0.569 0.253-1.032 0.466-1.382 0.766-0.422 0.362-0.731 0.681-0.927 1.023l-0.011 0.019-0.012 0.018c-0.203 0.304-0.27 0.497-0.27 0.778v0.023l-0.002 0.023c-0.193 2.632-0.725 4.266-1.194 5.311-0.176 0.394-0.347 0.71-0.469 0.935-0.007 0.013-0.014 0.026-0.021 0.039 0.013 0.003 0.027 0.007 0.041 0.010 0.317 0.076 0.73 0.148 1.17 0.223 0.062 0.011 0.124 0.021 0.187 0.032 0.373 0.063 0.753 0.127 1.069 0.192 0.185 0.038 0.362 0.079 0.513 0.125 0.118 0.036 0.32 0.102 0.474 0.228 0.693 0.559 0.508 1.608-0.24 1.982l-0.007 0.003-5.050 2.369-0.522 0.29c-0.028 0.019-0.053 0.035-0.076 0.051v0.29c0 0.655 0.595 1.25 1.25 1.25h13.75c0.717 0 1.25-0.533 1.25-1.25v-0.271l-0.535-0.297-5.057-2.373c-0.748-0.374-0.933-1.423-0.24-1.982 0.162-0.132 0.37-0.193 0.487-0.225 0.15-0.041 0.326-0.074 0.506-0.103 0.314-0.051 0.691-0.096 1.057-0.14 0.053-0.006 0.107-0.013 0.159-0.019 0.423-0.051 0.817-0.101 1.119-0.159-0.020-0.040-0.042-0.083-0.066-0.129-0.137-0.267-0.322-0.628-0.507-1.066-0.482-1.139-0.987-2.831-0.987-5.298 0-0.281-0.068-0.474-0.27-0.778l-0.012-0.018-0.011-0.019c-0.196-0.342-0.504-0.661-0.927-1.023-0.365-0.312-0.794-0.533-1.347-0.778-0.49-0.218-0.967-0.321-1.434-0.321-0.463 0-0.946 0.101-1.462 0.271zM15.779 11.46c0 0-0.001-0.004-0.003-0.011 0.002 0.008 0.003 0.011 0.003 0.011z"></path>
</svg>
