<!-- Generated by IcoMoon.io -->
<svg version="1.1" xmlns="http://www.w3.org/2000/svg" width="20" height="20" viewBox="0 0 20 20">
<title>account-female-remove</title>
<path d="M14.375 10.431c-2.071 0-3.75 1.679-3.75 3.75s1.679 3.75 3.75 3.75c2.071 0 3.75-1.679 3.75-3.75s-1.679-3.75-3.75-3.75zM9.375 14.181c0-2.761 2.239-5 5-5s5 2.239 5 5c0 2.761-2.239 5-5 5s-5-2.239-5-5z"></path>
<path d="M11.875 14.181c0-0.345 0.28-0.625 0.625-0.625h3.75c0.345 0 0.625 0.28 0.625 0.625s-0.28 0.625-0.625 0.625h-3.75c-0.345 0-0.625-0.28-0.625-0.625z"></path>
<path d="M8.177 0.776c0.599-0.2 1.232-0.345 1.885-0.345s1.284 0.145 1.93 0.339l0.038 0.011 0.036 0.016c0.572 0.254 1.142 0.534 1.653 0.972 0.447 0.383 0.883 0.809 1.188 1.333 0.291 0.44 0.468 0.868 0.468 1.454 0 1.343 0.123 2.405 0.351 3.203 0.095 0.332-0.097 0.678-0.429 0.773s-0.678-0.097-0.773-0.429c-0.272-0.952-0.399-2.14-0.399-3.547 0-0.281-0.067-0.474-0.27-0.778l-0.012-0.018-0.011-0.019c-0.196-0.342-0.504-0.661-0.927-1.023-0.357-0.306-0.775-0.523-1.311-0.762-0.588-0.174-1.071-0.275-1.533-0.275-0.463 0-0.946 0.101-1.462 0.271-0.569 0.253-1.032 0.466-1.382 0.766-0.422 0.362-0.731 0.681-0.927 1.023l-0.011 0.019-0.012 0.018c-0.203 0.304-0.27 0.497-0.27 0.778v0.023l-0.002 0.023c-0.193 2.632-0.725 4.266-1.194 5.311-0.176 0.394-0.347 0.71-0.469 0.935-0.007 0.013-0.014 0.026-0.021 0.039 0.013 0.003 0.027 0.007 0.041 0.010 0.317 0.076 0.73 0.148 1.17 0.223 0.062 0.011 0.124 0.021 0.187 0.032 0.373 0.063 0.753 0.127 1.069 0.192 0.185 0.038 0.362 0.079 0.513 0.125 0.118 0.036 0.32 0.102 0.474 0.228 0.693 0.559 0.508 1.608-0.24 1.982l-0.007 0.003-5.050 2.369-0.522 0.29c-0.028 0.019-0.053 0.035-0.076 0.051v0.29c0 0.717 0.533 1.25 1.25 1.25h6.75c0.345 0 0.625 0.28 0.625 0.625s-0.28 0.625-0.625 0.625h-6.75c-1.408 0-2.5-1.092-2.5-2.5v-0.5c0-0.36 0.25-0.586 0.327-0.655 0.104-0.092 0.229-0.176 0.313-0.231 0.005-0.003 0.009-0.006 0.014-0.009l0.021-0.014 0.603-0.335 4.913-2.305c-0.080-0.020-0.175-0.042-0.285-0.065-0.292-0.060-0.646-0.12-1.021-0.183-0.063-0.011-0.128-0.022-0.192-0.032-0.435-0.074-0.888-0.153-1.251-0.24-0.18-0.043-0.358-0.092-0.509-0.151-0.075-0.029-0.159-0.066-0.238-0.114-0.071-0.043-0.187-0.123-0.276-0.257l-0.012-0.018-0.011-0.019c-0.148-0.26-0.114-0.519-0.069-0.68 0.042-0.153 0.118-0.305 0.182-0.428 0.037-0.070 0.076-0.142 0.117-0.219 0.12-0.222 0.259-0.478 0.414-0.825 0.405-0.905 0.902-2.39 1.086-4.87 0.005-0.574 0.182-0.996 0.468-1.43 0.304-0.524 0.74-0.95 1.187-1.333 0.508-0.435 1.142-0.717 1.677-0.955 0.013-0.006 0.025-0.011 0.038-0.017l0.028-0.012 0.029-0.010z"></path>
</svg>
