<!-- Generated by IcoMoon.io -->
<svg version="1.1" xmlns="http://www.w3.org/2000/svg" width="20" height="20" viewBox="0 0 20 20">
<title>account-male</title>
<path d="M8.177 0.776c0.599-0.2 1.232-0.345 1.885-0.345s1.284 0.145 1.93 0.339l0.038 0.011 0.036 0.016c0.572 0.254 1.142 0.534 1.653 0.972 0.447 0.383 0.884 0.809 1.188 1.333 0.297 0.452 0.468 0.939 0.468 1.454v2.938c0 0.258-0.052 0.61-0.102 0.951-0.010 0.067-0.020 0.134-0.029 0.2l-0.006 0.042-0.012 0.041c-0.038 0.133-0.067 0.256-0.1 0.392-0.018 0.076-0.037 0.156-0.059 0.244-0.055 0.22-0.123 0.463-0.228 0.715-0.149 0.497-0.423 0.976-0.654 1.381-0.006 0.011-0.012 0.021-0.018 0.032-0.282 0.494-0.628 0.847-1.001 1.166l4.993 2.342 0.571 0.317c0.090 0.046 0.212 0.118 0.322 0.215 0.081 0.071 0.323 0.295 0.323 0.65v0.5c0 1.408-1.092 2.5-2.5 2.5h-13.75c-1.345 0-2.5-1.155-2.5-2.5v-0.5c0-0.378 0.266-0.603 0.392-0.692 0.131-0.092 0.283-0.158 0.432-0.203l0.516-0.287 4.994-2.343c-0.395-0.344-0.72-0.741-0.979-1.129l-0.012-0.018-0.011-0.019c-0.268-0.469-0.467-0.934-0.651-1.364l-0.005-0.013c-0.207-0.484-0.348-0.974-0.419-1.47-0.012-0.084-0.025-0.167-0.038-0.251-0.047-0.305-0.094-0.608-0.094-0.9v-2.938c0-0.515 0.171-1.002 0.468-1.454 0.304-0.524 0.74-0.95 1.188-1.333 0.508-0.435 1.142-0.717 1.677-0.955 0.013-0.006 0.025-0.011 0.038-0.017l0.028-0.012 0.029-0.010zM8.601 1.952c-0.569 0.253-1.032 0.466-1.382 0.766-0.422 0.362-0.731 0.681-0.927 1.023l-0.011 0.019-0.012 0.018c-0.196 0.293-0.27 0.55-0.27 0.778v2.937c0 0.188 0.027 0.366 0.069 0.643 0.015 0.097 0.031 0.206 0.049 0.331 0.054 0.379 0.163 0.764 0.331 1.155 0.186 0.435 0.358 0.834 0.582 1.23 0.222 0.329 0.49 0.648 0.802 0.908 0.691 0.559 0.505 1.606-0.242 1.98l-0.007 0.003-5.050 2.369-0.616 0.342-0.044 0.011v0.215c0 0.655 0.595 1.25 1.25 1.25h13.75c0.717 0 1.25-0.533 1.25-1.25v-0.271l-0.535-0.297-5.057-2.373c-0.747-0.374-0.933-1.421-0.242-1.98 0.345-0.288 0.594-0.544 0.791-0.889 0.259-0.454 0.466-0.823 0.567-1.174l0.011-0.038 0.016-0.036c0.074-0.173 0.127-0.355 0.179-0.562 0.015-0.059 0.030-0.124 0.047-0.193 0.033-0.14 0.070-0.294 0.111-0.441 0.010-0.070 0.020-0.136 0.029-0.199 0.050-0.343 0.084-0.577 0.084-0.734v-2.938c0-0.229-0.074-0.485-0.27-0.778l-0.012-0.018-0.011-0.019c-0.196-0.342-0.504-0.661-0.927-1.023-0.357-0.306-0.775-0.523-1.311-0.762-0.588-0.174-1.071-0.275-1.533-0.275-0.463 0-0.946 0.101-1.462 0.271z"></path>
</svg>
