<!-- Generated by IcoMoon.io -->
<svg version="1.1" xmlns="http://www.w3.org/2000/svg" width="20" height="20" viewBox="0 0 20 20">
<title>account-female-ok</title>
<path d="M10.063 0.431c-0.653 0-1.286 0.145-1.885 0.345l-0.029 0.010-0.066 0.029c-0.536 0.238-1.17 0.52-1.677 0.955-0.447 0.383-0.883 0.809-1.187 1.333-0.286 0.434-0.463 0.856-0.468 1.43-0.184 2.48-0.681 3.965-1.086 4.87-0.155 0.346-0.294 0.603-0.414 0.825-0.041 0.076-0.080 0.148-0.117 0.219-0.064 0.123-0.14 0.275-0.182 0.428-0.045 0.161-0.080 0.42 0.069 0.68l0.011 0.019 0.012 0.018c0.089 0.134 0.205 0.214 0.276 0.257 0.079 0.048 0.163 0.085 0.238 0.114 0.151 0.058 0.329 0.108 0.509 0.151 0.363 0.087 0.817 0.166 1.251 0.24l0.192 0.032c0.375 0.063 0.729 0.123 1.021 0.183 0.11 0.023 0.205 0.044 0.285 0.065l-4.913 2.305-0.603 0.335-0.035 0.023c-0.083 0.056-0.209 0.139-0.313 0.231-0.077 0.068-0.327 0.295-0.327 0.655v0.5c0 1.408 1.092 2.5 2.5 2.5h6.75c0.345 0 0.625-0.28 0.625-0.625s-0.28-0.625-0.625-0.625h-6.75c-0.717 0-1.25-0.533-1.25-1.25v-0.29c0.023-0.016 0.048-0.032 0.076-0.051l0.522-0.29 5.057-2.373c0.748-0.374 0.933-1.423 0.24-1.982-0.154-0.126-0.356-0.192-0.474-0.228-0.15-0.046-0.328-0.087-0.513-0.125-0.316-0.065-0.696-0.129-1.069-0.192l-0.187-0.032c-0.44-0.075-0.854-0.148-1.17-0.223l-0.041-0.010 0.021-0.039c0.122-0.225 0.292-0.541 0.469-0.935 0.468-1.046 1.001-2.679 1.194-5.311l0.002-0.023v-0.023c0-0.281 0.067-0.474 0.27-0.778l0.012-0.018 0.011-0.019c0.196-0.342 0.504-0.661 0.927-1.023 0.35-0.3 0.813-0.513 1.382-0.766 0.516-0.17 0.999-0.271 1.462-0.271 0.462 0 0.945 0.1 1.533 0.275 0.536 0.239 0.954 0.457 1.311 0.762 0.422 0.362 0.731 0.681 0.927 1.023l0.011 0.019 0.012 0.018c0.203 0.304 0.27 0.497 0.27 0.778 0 1.407 0.127 2.595 0.399 3.547 0.095 0.332 0.441 0.524 0.773 0.429s0.524-0.441 0.429-0.773c-0.228-0.798-0.351-1.86-0.351-3.203 0-0.586-0.178-1.014-0.468-1.454-0.304-0.524-0.74-0.95-1.188-1.333-0.51-0.438-1.081-0.717-1.653-0.972l-0.036-0.016-0.038-0.011c-0.645-0.194-1.276-0.339-1.93-0.339z"></path>
<path d="M16.692 12.489c0.244 0.244 0.244 0.64 0 0.884l-2.942 2.942-1.692-1.692c-0.244-0.244-0.244-0.64 0-0.884s0.64-0.244 0.884 0l0.808 0.808 2.058-2.058c0.244-0.244 0.64-0.244 0.884 0z"></path>
<path d="M9.375 14.181c0-2.761 2.239-5 5-5s5 2.239 5 5c0 2.761-2.239 5-5 5s-5-2.239-5-5zM14.375 10.431c-2.071 0-3.75 1.679-3.75 3.75s1.679 3.75 3.75 3.75c2.071 0 3.75-1.679 3.75-3.75s-1.679-3.75-3.75-3.75z"></path>
</svg>
