<!-- Generated by IcoMoon.io -->
<svg version="1.1" xmlns="http://www.w3.org/2000/svg" width="20" height="20" viewBox="0 0 20 20">
<title>accounts-up</title>
<path d="M10.316 0.732c0.534-0.229 1.060-0.301 1.559-0.301 0.588 0 1.097 0.146 1.521 0.267l0.064 0.018 0.036 0.016c0.491 0.21 0.906 0.487 1.271 0.73l0.069 0.046 0.073 0.073c0.284 0.283 0.632 0.632 0.861 1.001 0.242 0.332 0.418 0.762 0.418 1.224v2.385c0 0.188 0 0.551-0.075 0.925l-0.002 0.009c-0.062 0.31-0.131 0.654-0.268 1.066-0.109 0.328-0.463 0.504-0.791 0.395s-0.504-0.463-0.395-0.791c0.111-0.334 0.168-0.612 0.23-0.925 0.049-0.244 0.050-0.5 0.050-0.69v-2.375c0-0.151-0.064-0.335-0.188-0.5l-0.019-0.026-0.017-0.028c-0.133-0.222-0.367-0.465-0.675-0.773-0.348-0.232-0.655-0.431-1.001-0.584-0.428-0.122-0.776-0.215-1.164-0.215-0.376 0-0.725 0.053-1.066 0.199-0.464 0.199-0.78 0.343-0.992 0.555l-0.020 0.020-0.022 0.018c-0.322 0.268-0.519 0.465-0.709 0.737-0.004 0.010-0.009 0.021-0.015 0.031-0.041 0.082-0.112 0.183-0.231 0.262-0.122 0.082-0.258 0.115-0.383 0.115-0.345 0-0.625-0.28-0.625-0.625 0-0.182 0.078-0.346 0.202-0.46 0.279-0.407 0.563-0.688 0.94-1.003 0.396-0.386 0.919-0.609 1.318-0.78l0.044-0.019z"></path>
<path d="M14.375 11.422l2.317 2.317c0.244 0.244 0.244 0.64 0 0.884s-0.64 0.244-0.884 0l-0.808-0.808v2.241c0 0.345-0.28 0.625-0.625 0.625s-0.625-0.28-0.625-0.625v-2.241l-0.808 0.808c-0.244 0.244-0.64 0.244-0.884 0s-0.244-0.64 0-0.884l2.317-2.317z"></path>
<path d="M9.375 14.181c0-2.761 2.239-5 5-5s5 2.239 5 5c0 2.761-2.239 5-5 5s-5-2.239-5-5zM14.375 10.431c-2.071 0-3.75 1.679-3.75 3.75s1.679 3.75 3.75 3.75c2.071 0 3.75-1.679 3.75-3.75s-1.679-3.75-3.75-3.75z"></path>
<path d="M8.188 4.244c-0.499 0-1.025 0.072-1.559 0.301l-0.044 0.019c-0.398 0.17-0.918 0.393-1.313 0.776-0.332 0.269-0.704 0.635-0.944 1.103-0.208 0.351-0.39 0.772-0.39 1.239v2.324c-0 0.249-0 0.55 0.075 0.924 0.007 0.037 0.015 0.078 0.024 0.122 0.052 0.272 0.125 0.646 0.252 0.971 0.147 0.433 0.361 0.79 0.54 1.088l0.011 0.019c0.191 0.318 0.43 0.577 0.643 0.794l-3.77 1.767-0.349 0.2c-0.15 0.030-0.283 0.091-0.39 0.167-0.075 0.054-0.149 0.122-0.209 0.207-0.049 0.069-0.139 0.217-0.139 0.419v0.375c0 1.141 0.888 2.125 2.125 2.125h7.188c0.345 0 0.625-0.28 0.625-0.625s-0.28-0.625-0.625-0.625h-7.188c-0.513 0-0.875-0.391-0.875-0.875v-0.021l0.413-0.236 3.991-1.871c0.366-0.183 0.529-0.548 0.561-0.845 0.031-0.294-0.051-0.672-0.36-0.93-0.246-0.247-0.432-0.439-0.569-0.668-0.191-0.319-0.343-0.576-0.443-0.876l-0.006-0.017-0.007-0.017c-0.084-0.209-0.133-0.458-0.189-0.744-0.009-0.048-0.019-0.097-0.029-0.146-0.049-0.246-0.050-0.441-0.050-0.69v-2.313c0-0.149 0.061-0.345 0.223-0.616l0.012-0.021 0.011-0.022c0.129-0.259 0.363-0.504 0.644-0.729l0.027-0.022 0.024-0.024c0.212-0.212 0.528-0.356 0.992-0.555 0.341-0.146 0.69-0.199 1.066-0.199s0.725 0.053 1.066 0.199c0.36 0.154 0.676 0.359 1.035 0.599 0.308 0.309 0.541 0.551 0.675 0.773l0.017 0.028 0.019 0.026c0.124 0.165 0.188 0.349 0.188 0.5v0.875c0 0.345 0.28 0.625 0.625 0.625s0.625-0.28 0.625-0.625v-0.875c0-0.462-0.177-0.892-0.418-1.224-0.228-0.369-0.577-0.718-0.861-1.001l-0.073-0.073-0.069-0.046c-0.365-0.243-0.78-0.52-1.271-0.73-0.534-0.229-1.060-0.301-1.559-0.301z"></path>
</svg>
