<!-- Generated by IcoMoon.io -->
<svg version="1.1" xmlns="http://www.w3.org/2000/svg" width="20" height="20" viewBox="0 0 20 20">
<title>account-male-pending</title>
<path d="M8.177 0.776c0.599-0.2 1.232-0.345 1.885-0.345s1.286 0.145 1.885 0.345l0.029 0.010 0.028 0.012c0.572 0.254 1.142 0.534 1.653 0.972 0.447 0.383 0.884 0.809 1.188 1.333 0.297 0.452 0.468 0.939 0.468 1.454v3.375c0 0.345-0.28 0.625-0.625 0.625s-0.625-0.28-0.625-0.625v-3.375c0-0.229-0.074-0.485-0.27-0.778l-0.012-0.018-0.011-0.019c-0.196-0.342-0.504-0.661-0.927-1.023-0.358-0.307-0.779-0.525-1.319-0.766-0.515-0.17-0.998-0.271-1.462-0.271s-0.946 0.101-1.462 0.271c-0.569 0.253-1.032 0.466-1.382 0.766-0.422 0.362-0.731 0.681-0.927 1.023l-0.011 0.019-0.012 0.018c-0.196 0.293-0.27 0.55-0.27 0.778v2.938c0 0.188 0.027 0.366 0.069 0.643 0.015 0.097 0.031 0.206 0.049 0.331 0.054 0.379 0.163 0.764 0.331 1.155 0.186 0.435 0.358 0.834 0.582 1.23 0.222 0.329 0.49 0.648 0.802 0.908 0.691 0.559 0.505 1.606-0.242 1.98l-0.007 0.003-5.050 2.369-0.616 0.342-0.044 0.011v0.215c0 0.717 0.533 1.25 1.25 1.25h6.75c0.345 0 0.625 0.28 0.625 0.625s-0.28 0.625-0.625 0.625h-6.75c-1.408 0-2.5-1.092-2.5-2.5v-0.5c0-0.378 0.266-0.603 0.392-0.692 0.131-0.092 0.283-0.158 0.432-0.203l0.516-0.287 4.994-2.343c-0.395-0.344-0.72-0.741-0.979-1.129l-0.012-0.018-0.011-0.019c-0.268-0.469-0.467-0.934-0.651-1.364l-0.005-0.013c-0.207-0.484-0.348-0.974-0.419-1.47-0.012-0.084-0.025-0.167-0.038-0.251-0.047-0.305-0.094-0.608-0.094-0.9v-2.938c0-0.515 0.171-1.002 0.468-1.454 0.304-0.524 0.74-0.95 1.188-1.333 0.508-0.435 1.142-0.717 1.677-0.955 0.013-0.006 0.025-0.011 0.038-0.017l0.028-0.012 0.029-0.010z"></path>
<path d="M14.375 10.431c-2.071 0-3.75 1.679-3.75 3.75s1.679 3.75 3.75 3.75c2.071 0 3.75-1.679 3.75-3.75s-1.679-3.75-3.75-3.75zM9.375 14.181c0-2.761 2.239-5 5-5s5 2.239 5 5c0 2.761-2.239 5-5 5s-5-2.239-5-5z"></path>
<path d="M14.375 14.806c0.345 0 0.625-0.28 0.625-0.625s-0.28-0.625-0.625-0.625c-0.345 0-0.625 0.28-0.625 0.625s0.28 0.625 0.625 0.625z"></path>
<path d="M12.5 14.806c0.345 0 0.625-0.28 0.625-0.625s-0.28-0.625-0.625-0.625c-0.345 0-0.625 0.28-0.625 0.625s0.28 0.625 0.625 0.625z"></path>
<path d="M16.25 14.806c0.345 0 0.625-0.28 0.625-0.625s-0.28-0.625-0.625-0.625c-0.345 0-0.625 0.28-0.625 0.625s0.28 0.625 0.625 0.625z"></path>
</svg>
