<!-- Generated by IcoMoon.io -->
<svg version="1.1" xmlns="http://www.w3.org/2000/svg" width="32" height="32" viewBox="0 0 32 32">
<title>account-male-pending</title>
<path d="M13.084 1.241c0.958-0.319 1.971-0.551 3.016-0.551s2.058 0.232 3.016 0.551l0.046 0.015 0.044 0.020c0.915 0.407 1.828 0.855 2.645 1.555 0.716 0.613 1.414 1.295 1.9 2.133 0.475 0.723 0.749 1.503 0.749 2.326v5.4c0 0.552-0.448 1-1 1s-1-0.448-1-1v-5.4c0-0.366-0.119-0.776-0.432-1.245l-0.019-0.029-0.017-0.030c-0.313-0.548-0.807-1.058-1.483-1.637-0.573-0.492-1.247-0.84-2.111-1.226-0.825-0.272-1.598-0.434-2.338-0.434s-1.514 0.162-2.339 0.434c-0.91 0.405-1.651 0.746-2.21 1.225-0.676 0.579-1.17 1.089-1.483 1.637l-0.017 0.030-0.019 0.029c-0.313 0.469-0.432 0.88-0.432 1.245v4.7c0 0.301 0.043 0.585 0.111 1.028 0.024 0.155 0.050 0.329 0.079 0.53 0.087 0.607 0.261 1.222 0.529 1.848 0.298 0.695 0.573 1.335 0.932 1.968 0.354 0.527 0.784 1.036 1.283 1.453 1.105 0.895 0.809 2.57-0.387 3.168l-0.011 0.006-8.080 3.791-0.985 0.547-0.070 0.018v0.344c0 1.148 0.852 2 2 2h10.8c0.552 0 1 0.448 1 1s-0.448 1-1 1h-10.8c-2.252 0-4-1.748-4-4v-0.8c0-0.605 0.425-0.965 0.627-1.107 0.21-0.147 0.452-0.253 0.691-0.325l0.826-0.459 7.99-3.748c-0.633-0.551-1.153-1.186-1.566-1.806l-0.019-0.029-0.017-0.030c-0.428-0.75-0.747-1.494-1.042-2.182l-0.009-0.020c-0.332-0.774-0.557-1.559-0.671-2.352-0.019-0.134-0.040-0.268-0.060-0.401-0.075-0.488-0.15-0.973-0.15-1.44v-4.7c0-0.823 0.274-1.603 0.749-2.326 0.486-0.839 1.185-1.52 1.9-2.133 0.812-0.696 1.826-1.147 2.684-1.528 0.020-0.009 0.041-0.018 0.061-0.027l0.044-0.020 0.046-0.015z"></path>
<path d="M23 16.69c-3.314 0-6 2.686-6 6s2.686 6 6 6c3.314 0 6-2.686 6-6s-2.686-6-6-6zM15 22.69c0-4.418 3.582-8 8-8s8 3.582 8 8c0 4.418-3.582 8-8 8s-8-3.582-8-8z"></path>
<path d="M23 23.69c0.552 0 1-0.448 1-1s-0.448-1-1-1c-0.552 0-1 0.448-1 1s0.448 1 1 1z"></path>
<path d="M20 23.69c0.552 0 1-0.448 1-1s-0.448-1-1-1c-0.552 0-1 0.448-1 1s0.448 1 1 1z"></path>
<path d="M26 23.69c0.552 0 1-0.448 1-1s-0.448-1-1-1c-0.552 0-1 0.448-1 1s0.448 1 1 1z"></path>
</svg>
