<!-- Generated by IcoMoon.io -->
<svg version="1.1" xmlns="http://www.w3.org/2000/svg" width="32" height="32" viewBox="0 0 32 32">
<title>account-male-down</title>
<path d="M16.1 0.69c-1.046 0-2.058 0.232-3.016 0.551l-0.046 0.015-0.105 0.047c-0.857 0.381-1.872 0.831-2.684 1.528-0.716 0.613-1.414 1.295-1.9 2.133-0.475 0.723-0.749 1.503-0.749 2.326v4.7c0 0.467 0.075 0.952 0.15 1.44 0.021 0.134 0.041 0.268 0.060 0.401 0.113 0.793 0.339 1.578 0.671 2.352l0.009 0.020c0.295 0.688 0.614 1.432 1.042 2.182l0.017 0.030 0.019 0.029c0.413 0.62 0.933 1.255 1.566 1.806l-7.99 3.748-0.826 0.459c-0.239 0.072-0.481 0.178-0.692 0.325-0.202 0.141-0.627 0.502-0.627 1.107v0.8c0 2.252 1.748 4 4 4h10.8c0.552 0 1-0.448 1-1s-0.448-1-1-1h-10.8c-1.148 0-2-0.852-2-2v-0.344l0.070-0.018 0.985-0.547 8.091-3.796c1.195-0.598 1.492-2.273 0.387-3.168-0.499-0.417-0.928-0.926-1.283-1.453-0.359-0.633-0.634-1.272-0.932-1.968-0.268-0.626-0.442-1.241-0.529-1.848-0.029-0.201-0.055-0.375-0.079-0.53-0.068-0.444-0.111-0.728-0.111-1.029v-4.7c0-0.366 0.119-0.776 0.432-1.245l0.019-0.029 0.017-0.030c0.313-0.548 0.807-1.058 1.483-1.637 0.559-0.48 1.301-0.821 2.21-1.226 0.825-0.272 1.598-0.434 2.339-0.434s1.514 0.162 2.338 0.434c0.864 0.385 1.537 0.734 2.111 1.226 0.676 0.579 1.17 1.089 1.483 1.637l0.017 0.030 0.019 0.029c0.313 0.469 0.432 0.88 0.432 1.245v5.4c0 0.552 0.448 1 1 1s1-0.448 1-1v-5.4c0-0.823-0.274-1.603-0.749-2.326-0.486-0.839-1.185-1.52-1.9-2.133-0.817-0.7-1.73-1.148-2.645-1.555l-0.044-0.020-0.046-0.015c-0.958-0.319-1.971-0.551-3.016-0.551z"></path>
<path d="M19.293 21.983c0.39-0.39 1.024-0.39 1.414 0l1.293 1.293v-3.586c0-0.552 0.448-1 1-1s1 0.448 1 1v3.586l1.293-1.293c0.39-0.39 1.024-0.39 1.414 0s0.39 1.024 0 1.414l-3.707 3.707-3.707-3.707c-0.39-0.39-0.39-1.024 0-1.414z"></path>
<path d="M23 14.69c-4.418 0-8 3.582-8 8s3.582 8 8 8c4.418 0 8-3.582 8-8s-3.582-8-8-8zM17 22.69c0-3.314 2.686-6 6-6s6 2.686 6 6c0 3.314-2.686 6-6 6s-6-2.686-6-6z"></path>
</svg>
