<!-- Generated by IcoMoon.io -->
<svg version="1.1" xmlns="http://www.w3.org/2000/svg" width="32" height="32" viewBox="0 0 32 32">
<title>account-circle</title>
<path d="M16 1.69c-7.732 0-14 6.268-14 14s6.268 14 14 14c7.732 0 14-6.268 14-14s-6.268-14-14-14zM4 15.69c0-6.627 5.373-12 12-12s12 5.373 12 12c0 3.385-1.401 6.442-3.655 8.623l-3.763-1.762c0.482-0.437 0.867-0.938 1.163-1.427 0.436-0.658 0.774-1.331 1.004-2.019l0.011-0.033c0.192-0.578 0.414-1.241 0.527-1.919 0.114-0.682 0.114-1.25 0.114-1.652v-4.012c0-0.755-0.302-1.439-0.606-2.047l-0.028-0.056-0.035-0.052c-0.473-0.709-1.051-1.279-1.692-1.814-0.694-0.578-1.494-1.032-2.389-1.368l-0.038-0.014-0.039-0.011c-0.709-0.203-1.625-0.438-2.575-0.438s-1.865 0.236-2.575 0.438l-0.039 0.011-0.038 0.014c-0.895 0.336-1.695 0.79-2.389 1.368-0.641 0.534-1.219 1.104-1.692 1.814l-0.013 0.020-0.012 0.020c-0.364 0.607-0.643 1.385-0.643 2.114v4.013c0 0.402-0 0.97 0.114 1.652 0.113 0.678 0.334 1.341 0.527 1.919l0.011 0.033c0.226 0.678 0.557 1.342 0.985 1.99 0.331 0.63 0.845 1.115 1.178 1.429l0.021 0.019-3.779 1.769c-2.254-2.182-3.655-5.239-3.655-8.623zM9.392 25.708l3.278-1.535 0.044-0.026c0.525-0.315 0.841-0.836 0.872-1.417 0.029-0.557-0.206-1.074-0.579-1.447-0.117-0.117-0.224-0.22-0.322-0.314-0.318-0.305-0.534-0.513-0.691-0.827l-0.028-0.056-0.034-0.052c-0.357-0.536-0.615-1.057-0.783-1.561-0.205-0.615-0.377-1.139-0.462-1.648-0.085-0.511-0.086-0.938-0.086-1.336v-4c0-0.265 0.118-0.679 0.346-1.066 0.325-0.482 0.743-0.907 1.294-1.366 0.497-0.414 1.085-0.755 1.774-1.018 0.677-0.192 1.348-0.35 1.986-0.35s1.309 0.158 1.986 0.35c0.689 0.262 1.277 0.604 1.774 1.018 0.54 0.45 0.952 0.866 1.274 1.336 0.274 0.555 0.366 0.858 0.366 1.095v4c0 0.397-0.001 0.824-0.086 1.336-0.085 0.509-0.257 1.033-0.462 1.648-0.168 0.505-0.426 1.025-0.783 1.561l-0.013 0.020-0.012 0.020c-0.252 0.421-0.578 0.823-0.967 1.134-0.991 0.793-0.974 2.452 0.322 2.997l3.21 1.503c-1.895 1.252-4.166 1.982-6.608 1.982s-4.713-0.729-6.608-1.982z"></path>
</svg>
