<!-- Generated by IcoMoon.io -->
<svg version="1.1" xmlns="http://www.w3.org/2000/svg" width="20" height="20" viewBox="0 0 20 20">
<title>accounts</title>
<path d="M6.566 4.544c0.534-0.229 1.060-0.301 1.559-0.301s1.025 0.072 1.559 0.301c0.491 0.21 0.906 0.487 1.271 0.73l0.069 0.046 0.044 0.044c0.010 0.010 0.019 0.019 0.029 0.029 0.284 0.283 0.632 0.632 0.861 1.001 0.242 0.332 0.418 0.762 0.418 1.224v2.323c0 0.188 0 0.551-0.075 0.925l-0.002 0.009c-0.062 0.31-0.131 0.654-0.268 1.067l-0.006 0.017-0.007 0.017c-0.138 0.346-0.341 0.751-0.544 1.089-0.167 0.279-0.347 0.534-0.607 0.781l3.796 1.779 0.444 0.253c0.055 0.027 0.175 0.087 0.278 0.173 0.134 0.112 0.303 0.319 0.303 0.629v0.375c0 1.158-0.967 2.125-2.125 2.125h-10.813c-1.158 0-2.125-0.967-2.125-2.125v-0.375c0-0.198 0.087-0.342 0.126-0.402 0.052-0.078 0.114-0.143 0.177-0.195 0.080-0.066 0.201-0.145 0.356-0.187l0.365-0.209 3.77-1.767c-0.213-0.216-0.452-0.476-0.643-0.794l-0.011-0.019c-0.179-0.298-0.393-0.656-0.54-1.088-0.127-0.325-0.2-0.699-0.252-0.971-0.008-0.043-0.016-0.084-0.024-0.122-0.075-0.373-0.075-0.675-0.075-0.924v-2.324c0-0.467 0.182-0.889 0.39-1.239 0.24-0.469 0.612-0.834 0.944-1.103 0.396-0.383 0.916-0.606 1.313-0.776 0.015-0.006 0.029-0.013 0.044-0.019zM8.125 5.494c-0.376 0-0.725 0.053-1.066 0.199-0.464 0.199-0.78 0.343-0.992 0.555l-0.024 0.024-0.027 0.022c-0.281 0.225-0.515 0.47-0.644 0.729l-0.011 0.022-0.012 0.021c-0.162 0.271-0.223 0.467-0.223 0.616v2.313c0 0.249 0.001 0.444 0.050 0.69 0.010 0.050 0.020 0.099 0.029 0.146 0.056 0.286 0.105 0.535 0.189 0.744l0.007 0.017 0.006 0.017c0.1 0.3 0.252 0.557 0.443 0.876 0.137 0.229 0.323 0.421 0.569 0.668 0.309 0.258 0.391 0.636 0.36 0.93-0.031 0.297-0.194 0.662-0.561 0.845l-0.007 0.004-3.984 1.868-0.351 0.2v0.057c0 0.467 0.408 0.875 0.875 0.875h10.813c0.467 0 0.875-0.408 0.875-0.875v-0.119l-0.351-0.2-3.964-1.858c-0.345-0.146-0.579-0.445-0.638-0.797-0.059-0.354 0.066-0.709 0.323-0.967l0.024-0.024 0.027-0.022c0.237-0.189 0.379-0.374 0.542-0.646 0.168-0.281 0.337-0.618 0.449-0.894 0.108-0.326 0.163-0.6 0.224-0.907 0.049-0.244 0.050-0.5 0.050-0.69v-2.313c0-0.151-0.064-0.335-0.188-0.5l-0.019-0.026-0.017-0.028c-0.133-0.222-0.367-0.465-0.675-0.773-0.36-0.239-0.676-0.445-1.035-0.599-0.341-0.146-0.69-0.199-1.066-0.199z"></path>
<path d="M10.316 0.732c0.534-0.229 1.060-0.301 1.559-0.301 0.603 0 1.118 0.151 1.51 0.282l0.025 0.008 0.024 0.010c0.491 0.21 0.906 0.487 1.271 0.73l0.069 0.046 0.044 0.044c0.010 0.010 0.019 0.019 0.029 0.029 0.284 0.283 0.632 0.632 0.861 1.001 0.242 0.332 0.418 0.762 0.418 1.224v2.385c0 0.188 0 0.551-0.075 0.925l-0.002 0.009c-0.062 0.31-0.131 0.654-0.268 1.066l-0.006 0.017-0.007 0.017c-0.138 0.346-0.341 0.751-0.544 1.089-0.167 0.279-0.347 0.534-0.607 0.781l3.796 1.779 0.444 0.253c0.055 0.027 0.175 0.087 0.278 0.173 0.134 0.112 0.303 0.319 0.303 0.629v0.375c0 1.158-0.967 2.125-2.125 2.125h-1.688c-0.345 0-0.625-0.28-0.625-0.625s0.28-0.625 0.625-0.625h1.688c0.467 0 0.875-0.408 0.875-0.875v-0.119l-0.351-0.2-3.964-1.858c-0.376-0.159-0.587-0.498-0.638-0.826-0.052-0.327 0.044-0.729 0.381-0.988 0.233-0.188 0.375-0.372 0.537-0.642 0.168-0.281 0.337-0.618 0.449-0.894 0.108-0.326 0.163-0.6 0.224-0.907 0.049-0.244 0.050-0.5 0.050-0.69v-2.375c0-0.151-0.064-0.335-0.188-0.5l-0.019-0.026-0.017-0.028c-0.133-0.222-0.367-0.465-0.675-0.773-0.352-0.234-0.662-0.436-1.012-0.589-0.349-0.115-0.702-0.21-1.090-0.21-0.376 0-0.725 0.053-1.066 0.199-0.464 0.199-0.78 0.343-0.992 0.555l-0.020 0.020-0.022 0.018c-0.322 0.268-0.519 0.465-0.709 0.737-0.004 0.010-0.009 0.021-0.015 0.031-0.041 0.082-0.112 0.183-0.231 0.262-0.122 0.082-0.258 0.115-0.383 0.115-0.345 0-0.625-0.28-0.625-0.625 0-0.182 0.078-0.346 0.202-0.46 0.279-0.407 0.563-0.688 0.94-1.003 0.396-0.386 0.919-0.609 1.318-0.78 0.015-0.006 0.029-0.013 0.044-0.019z"></path>
</svg>
