<!-- Generated by IcoMoon.io -->
<svg version="1.1" xmlns="http://www.w3.org/2000/svg" width="20" height="20" viewBox="0 0 20 20">
<title>account-square</title>
<path d="M3.75 1.056c-1.408 0-2.5 1.092-2.5 2.5v12.5c0 1.408 1.092 2.5 2.5 2.5h12.5c1.408 0 2.5-1.092 2.5-2.5v-12.5c0-1.408-1.092-2.5-2.5-2.5h-12.5zM2.5 3.556c0-0.717 0.533-1.25 1.25-1.25h12.5c0.717 0 1.25 0.533 1.25 1.25v12.5c0 0.097-0.010 0.19-0.028 0.279-0.107-0.088-0.213-0.173-0.316-0.255l-0.034-0.028-0.020-0.014c-0.926-0.628-2.065-1.163-2.953-1.536-0.448-0.188-0.84-0.338-1.12-0.441-0.051-0.019-0.098-0.036-0.141-0.051 0.29-0.268 0.524-0.573 0.704-0.87 0.273-0.411 0.484-0.832 0.627-1.262l0.007-0.021c0.12-0.361 0.258-0.775 0.329-1.199 0.071-0.426 0.071-0.781 0.071-1.032v-2.508c0-0.472-0.189-0.9-0.378-1.28l-0.017-0.035-0.022-0.032c-0.296-0.443-0.657-0.8-1.057-1.133-0.434-0.361-0.934-0.645-1.493-0.855l-0.064-0.024-0.067-0.010c-0.089-0.013-0.197-0.032-0.317-0.053-0.346-0.061-0.795-0.141-1.209-0.141-0.594 0-1.166 0.147-1.609 0.274l-0.024 0.007-0.024 0.009c-0.56 0.21-1.059 0.494-1.493 0.855-0.401 0.334-0.762 0.69-1.057 1.133l-0.008 0.012-0.008 0.013c-0.228 0.38-0.402 0.865-0.402 1.322v2.508c0 0.251-0 0.606 0.071 1.032 0.071 0.424 0.209 0.838 0.329 1.199l0.007 0.021c0.141 0.424 0.348 0.839 0.615 1.244 0.207 0.394 0.528 0.697 0.736 0.893l0.015 0.014c-0.094 0.046-0.217 0.105-0.363 0.177-0.352 0.174-0.84 0.418-1.381 0.703-0.891 0.468-1.953 1.057-2.794 1.619-0.071-0.16-0.11-0.341-0.11-0.535v-12.5zM3.81 17.306c0.682-0.423 1.468-0.856 2.176-1.228 0.529-0.278 1.007-0.518 1.352-0.688 0.172-0.085 0.312-0.153 0.407-0.199 0.048-0.023 0.085-0.041 0.11-0.053l0.065-0.031 0.027-0.016c0.328-0.197 0.526-0.523 0.545-0.886 0.018-0.348-0.128-0.671-0.362-0.904-0.073-0.073-0.14-0.138-0.201-0.196-0.199-0.191-0.334-0.321-0.432-0.517l-0.017-0.035-0.022-0.032c-0.223-0.335-0.384-0.66-0.49-0.976-0.128-0.384-0.236-0.712-0.289-1.030-0.053-0.319-0.054-0.587-0.054-0.835v-2.5c0-0.166 0.074-0.424 0.216-0.666 0.203-0.301 0.464-0.567 0.809-0.854 0.311-0.259 0.678-0.472 1.109-0.636 0.423-0.12 0.842-0.219 1.241-0.219 0.298 0 0.567 0.048 0.872 0.102 0.128 0.023 0.262 0.047 0.407 0.069 0.414 0.162 0.77 0.37 1.072 0.622 0.338 0.281 0.595 0.541 0.796 0.835 0.171 0.347 0.229 0.536 0.229 0.685v2.5c0 0.248-0.001 0.515-0.054 0.835-0.053 0.318-0.161 0.646-0.289 1.030-0.105 0.316-0.266 0.641-0.49 0.976l-0.008 0.012-0.008 0.013c-0.158 0.263-0.362 0.514-0.604 0.708-0.624 0.499-0.608 1.549 0.221 1.881l0.017 0.007 0.023 0.008 0.020 0.007c0.018 0.006 0.046 0.016 0.082 0.028 0.072 0.025 0.178 0.063 0.312 0.112 0.267 0.098 0.64 0.241 1.068 0.42 0.855 0.359 1.894 0.85 2.715 1.404 0.084 0.067 0.165 0.132 0.243 0.195-0.116 0.033-0.241 0.051-0.372 0.051h-12.44z"></path>
</svg>
