<!-- Generated by IcoMoon.io -->
<svg version="1.1" xmlns="http://www.w3.org/2000/svg" width="32" height="32" viewBox="0 0 32 32">
<title>account-female-delete</title>
<path d="M16.1 0.69c-1.046 0-2.058 0.232-3.016 0.551l-0.046 0.015-0.105 0.047c-0.857 0.381-1.872 0.831-2.684 1.528-0.716 0.613-1.414 1.294-1.9 2.133-0.458 0.694-0.741 1.37-0.749 2.287-0.294 3.968-1.089 6.345-1.738 7.793-0.248 0.554-0.47 0.965-0.662 1.32-0.066 0.122-0.128 0.238-0.187 0.35-0.103 0.197-0.224 0.44-0.292 0.685-0.072 0.258-0.127 0.672 0.11 1.088l0.017 0.030 0.019 0.029c0.142 0.214 0.328 0.342 0.442 0.411 0.127 0.077 0.261 0.136 0.381 0.183 0.241 0.093 0.526 0.172 0.815 0.241 0.581 0.139 1.307 0.266 2.002 0.384l0.307 0.052c0.6 0.101 1.166 0.197 1.633 0.293 0.176 0.036 0.329 0.071 0.456 0.103l-7.86 3.687-0.965 0.536-0.055 0.037c-0.133 0.089-0.335 0.223-0.5 0.37-0.123 0.109-0.523 0.472-0.523 1.047v0.8c0 2.252 1.748 4 4 4h10.8c0.552 0 1-0.448 1-1s-0.448-1-1-1h-10.8c-1.148 0-2-0.852-2-2v-0.464c0.037-0.025 0.076-0.052 0.121-0.082l0.835-0.464 8.091-3.796c1.197-0.598 1.493-2.276 0.383-3.171-0.247-0.202-0.569-0.307-0.758-0.364-0.241-0.073-0.525-0.139-0.821-0.2-0.506-0.104-1.114-0.207-1.71-0.307l-0.299-0.051c-0.705-0.12-1.366-0.236-1.873-0.357l-0.066-0.016 0.033-0.062c0.195-0.36 0.468-0.865 0.75-1.495 0.749-1.673 1.602-4.287 1.91-8.498l0.003-0.036v-0.037c0-0.45 0.108-0.759 0.432-1.245l0.019-0.029 0.017-0.030c0.313-0.548 0.807-1.058 1.483-1.637 0.559-0.48 1.301-0.821 2.21-1.226 0.825-0.272 1.598-0.434 2.339-0.434 0.739 0 1.512 0.161 2.452 0.44 0.857 0.383 1.527 0.731 2.097 1.22 0.676 0.579 1.17 1.089 1.483 1.637l0.017 0.030 0.019 0.029c0.324 0.486 0.432 0.796 0.432 1.245 0 2.251 0.203 4.152 0.639 5.675 0.152 0.531 0.705 0.839 1.236 0.687s0.838-0.705 0.687-1.236c-0.365-1.277-0.561-2.976-0.561-5.125 0-0.938-0.284-1.623-0.749-2.326-0.486-0.838-1.184-1.519-1.9-2.133-0.817-0.7-1.73-1.148-2.645-1.555l-0.058-0.026-0.061-0.018c-1.032-0.31-2.042-0.542-3.087-0.542z"></path>
<path d="M25.707 21.397c0.39-0.39 0.39-1.024 0-1.414s-1.024-0.39-1.414 0l-1.293 1.293-1.293-1.293c-0.39-0.39-1.024-0.39-1.414 0s-0.39 1.024 0 1.414l1.293 1.293-1.293 1.293c-0.39 0.39-0.39 1.024 0 1.414s1.024 0.39 1.414 0l1.293-1.293 1.293 1.293c0.39 0.39 1.024 0.39 1.414 0s0.39-1.024 0-1.414l-1.293-1.293 1.293-1.293z"></path>
<path d="M23 14.69c-4.418 0-8 3.582-8 8s3.582 8 8 8c4.418 0 8-3.582 8-8s-3.582-8-8-8zM17 22.69c0-3.314 2.686-6 6-6s6 2.686 6 6c0 3.314-2.686 6-6 6s-6-2.686-6-6z"></path>
</svg>
