<!-- Generated by IcoMoon.io -->
<svg version="1.1" xmlns="http://www.w3.org/2000/svg" width="20" height="20" viewBox="0 0 20 20">
<title>account-male-delete</title>
<path d="M10.063 0.431c-0.653 0-1.286 0.145-1.885 0.345l-0.029 0.010-0.066 0.029c-0.536 0.238-1.17 0.52-1.677 0.955-0.447 0.383-0.884 0.809-1.188 1.333-0.297 0.452-0.468 0.939-0.468 1.454v2.938c0 0.292 0.047 0.595 0.094 0.9 0.013 0.083 0.026 0.167 0.038 0.251 0.071 0.496 0.212 0.986 0.419 1.47l0.005 0.013c0.184 0.43 0.384 0.895 0.651 1.364l0.011 0.019 0.012 0.018c0.258 0.388 0.583 0.785 0.979 1.129l-4.994 2.343-0.516 0.287c-0.15 0.045-0.301 0.111-0.432 0.203-0.126 0.088-0.392 0.314-0.392 0.692v0.5c0 1.408 1.092 2.5 2.5 2.5h6.75c0.345 0 0.625-0.28 0.625-0.625s-0.28-0.625-0.625-0.625h-6.75c-0.717 0-1.25-0.533-1.25-1.25v-0.215l0.044-0.011 0.616-0.342 5.057-2.373c0.747-0.374 0.932-1.421 0.242-1.98-0.312-0.26-0.58-0.579-0.802-0.908-0.224-0.396-0.396-0.795-0.583-1.23-0.168-0.391-0.277-0.776-0.331-1.155-0.018-0.126-0.035-0.234-0.049-0.331-0.042-0.277-0.069-0.455-0.069-0.643v-2.938c0-0.229 0.074-0.485 0.27-0.778l0.012-0.018 0.011-0.019c0.196-0.342 0.504-0.661 0.927-1.023 0.35-0.3 0.813-0.513 1.382-0.766 0.516-0.17 0.999-0.271 1.462-0.271s0.946 0.101 1.462 0.271c0.54 0.241 0.961 0.459 1.319 0.766 0.422 0.362 0.731 0.681 0.927 1.023l0.011 0.019 0.012 0.018c0.196 0.293 0.27 0.55 0.27 0.778v3.375c0 0.345 0.28 0.625 0.625 0.625s0.625-0.28 0.625-0.625v-3.375c0-0.515-0.171-1.002-0.468-1.454-0.304-0.524-0.74-0.95-1.188-1.333-0.51-0.438-1.081-0.717-1.653-0.972l-0.028-0.012-0.029-0.010c-0.599-0.2-1.232-0.345-1.885-0.345z"></path>
<path d="M16.067 12.489c0.244 0.244 0.244 0.64 0 0.884l-0.808 0.808 0.808 0.808c0.244 0.244 0.244 0.64 0 0.884s-0.64 0.244-0.884 0l-0.808-0.808-0.808 0.808c-0.244 0.244-0.64 0.244-0.884 0s-0.244-0.64 0-0.884l0.808-0.808-0.808-0.808c-0.244-0.244-0.244-0.64 0-0.884s0.64-0.244 0.884 0l0.808 0.808 0.808-0.808c0.244-0.244 0.64-0.244 0.884 0z"></path>
<path d="M14.375 9.181c-2.761 0-5 2.239-5 5s2.239 5 5 5c2.761 0 5-2.239 5-5s-2.239-5-5-5zM10.625 14.181c0-2.071 1.679-3.75 3.75-3.75s3.75 1.679 3.75 3.75c0 2.071-1.679 3.75-3.75 3.75s-3.75-1.679-3.75-3.75z"></path>
</svg>
