<!-- Generated by IcoMoon.io -->
<svg version="1.1" xmlns="http://www.w3.org/2000/svg" width="32" height="32" viewBox="0 0 32 32">
<title>add-circle</title>
<path d="M7.5 15.69c0-0.552 0.448-1 1-1h6.5v-6.5c0-0.552 0.448-1 1-1s1 0.448 1 1v6.5h6.5c0.552 0 1 0.448 1 1s-0.448 1-1 1h-6.5v6.5c0 0.552-0.448 1-1 1s-1-0.448-1-1v-6.5h-6.5c-0.552 0-1-0.448-1-1z"></path>
<path d="M2 15.69c0-7.732 6.268-14 14-14s14 6.268 14 14c0 7.732-6.268 14-14 14s-14-6.268-14-14zM16 3.69c-6.627 0-12 5.373-12 12s5.373 12 12 12c6.627 0 12-5.373 12-12s-5.373-12-12-12z"></path>
</svg>
