<!-- Generated by IcoMoon.io -->
<svg version="1.1" xmlns="http://www.w3.org/2000/svg" width="20" height="20" viewBox="0 0 20 20">
<title>add-square</title>
<path d="M10 4.181c0.345 0 0.625 0.28 0.625 0.625v4.375h4.375c0.345 0 0.625 0.28 0.625 0.625s-0.28 0.625-0.625 0.625h-4.375v4.375c0 0.345-0.28 0.625-0.625 0.625s-0.625-0.28-0.625-0.625v-4.375h-4.375c-0.345 0-0.625-0.28-0.625-0.625s0.28-0.625 0.625-0.625h4.375v-4.375c0-0.345 0.28-0.625 0.625-0.625z"></path>
<path d="M3.75 1.056c-1.408 0-2.5 1.092-2.5 2.5v12.5c0 1.408 1.092 2.5 2.5 2.5h12.5c1.408 0 2.5-1.092 2.5-2.5v-12.5c0-1.408-1.092-2.5-2.5-2.5h-12.5zM2.5 3.556c0-0.717 0.533-1.25 1.25-1.25h12.5c0.717 0 1.25 0.533 1.25 1.25v12.5c0 0.717-0.533 1.25-1.25 1.25h-12.5c-0.717 0-1.25-0.533-1.25-1.25v-12.5z"></path>
</svg>
