<!-- Generated by IcoMoon.io -->
<svg version="1.1" xmlns="http://www.w3.org/2000/svg" width="32" height="32" viewBox="0 0 32 32">
<title>add-square</title>
<path d="M16 6.69c0.552 0 1 0.448 1 1v7h7c0.552 0 1 0.448 1 1s-0.448 1-1 1h-7v7c0 0.552-0.448 1-1 1s-1-0.448-1-1v-7h-7c-0.552 0-1-0.448-1-1s0.448-1 1-1h7v-7c0-0.552 0.448-1 1-1z"></path>
<path d="M6 1.69c-2.252 0-4 1.748-4 4v20c0 2.252 1.748 4 4 4h20c2.252 0 4-1.748 4-4v-20c0-2.252-1.748-4-4-4h-20zM4 5.69c0-1.148 0.852-2 2-2h20c1.148 0 2 0.852 2 2v20c0 1.148-0.852 2-2 2h-20c-1.148 0-2-0.852-2-2v-20z"></path>
</svg>
