<!-- Generated by IcoMoon.io -->
<svg version="1.1" xmlns="http://www.w3.org/2000/svg" width="20" height="20" viewBox="0 0 20 20">
<title>add-circle</title>
<path d="M4.688 9.806c0-0.345 0.28-0.625 0.625-0.625h4.063v-4.063c0-0.345 0.28-0.625 0.625-0.625s0.625 0.28 0.625 0.625v4.063h4.063c0.345 0 0.625 0.28 0.625 0.625s-0.28 0.625-0.625 0.625h-4.063v4.063c0 0.345-0.28 0.625-0.625 0.625s-0.625-0.28-0.625-0.625v-4.063h-4.063c-0.345 0-0.625-0.28-0.625-0.625z"></path>
<path d="M1.25 9.806c0-4.832 3.918-8.75 8.75-8.75s8.75 3.918 8.75 8.75c0 4.832-3.918 8.75-8.75 8.75s-8.75-3.918-8.75-8.75zM10 2.306c-4.142 0-7.5 3.358-7.5 7.5s3.358 7.5 7.5 7.5c4.142 0 7.5-3.358 7.5-7.5s-3.358-7.5-7.5-7.5z"></path>
</svg>
