<!-- Generated by IcoMoon.io -->
<svg version="1.1" xmlns="http://www.w3.org/2000/svg" width="32" height="32" viewBox="0 0 32 32">
<title>agenda</title>
<path d="M5 16.69h-1c-0.552 0-1-0.448-1-1s0.448-1 1-1h1v-2h-1c-0.552 0-1-0.448-1-1s0.448-1 1-1h1v-2h-1c-0.552 0-1-0.448-1-1s0.448-1 1-1h1v-1c0-2.252 1.748-4 4-4h16c2.252 0 4 1.748 4 4v20c0 2.252-1.748 4-4 4h-16c-2.252 0-4-1.748-4-4v-1h-1c-0.552 0-1-0.448-1-1s0.448-1 1-1h1v-2h-1c-0.552 0-1-0.448-1-1s0.448-1 1-1h1v-2zM9 3.69c-1.148 0-2 0.852-2 2v1h1c0.552 0 1 0.448 1 1s-0.448 1-1 1h-1v2h1c0.552 0 1 0.448 1 1s-0.448 1-1 1h-1v2h1c0.552 0 1 0.448 1 1s-0.448 1-1 1h-1v2h1c0.552 0 1 0.448 1 1s-0.448 1-1 1h-1v2h1c0.552 0 1 0.448 1 1s-0.448 1-1 1h-1v1c0 1.148 0.852 2 2 2h2v-24h-2zM25 3.69h-12v24h12c1.148 0 2-0.852 2-2v-20c0-1.148-0.852-2-2-2z"></path>
</svg>
