<!-- Generated by IcoMoon.io -->
<svg version="1.1" xmlns="http://www.w3.org/2000/svg" width="20" height="20" viewBox="0 0 20 20">
<title>agenda</title>
<path d="M3.125 10.431h-0.625c-0.345 0-0.625-0.28-0.625-0.625s0.28-0.625 0.625-0.625h0.625v-1.25h-0.625c-0.345 0-0.625-0.28-0.625-0.625s0.28-0.625 0.625-0.625h0.625v-1.25h-0.625c-0.345 0-0.625-0.28-0.625-0.625s0.28-0.625 0.625-0.625h0.625v-0.625c0-1.408 1.092-2.5 2.5-2.5h10c1.408 0 2.5 1.092 2.5 2.5v12.5c0 1.408-1.092 2.5-2.5 2.5h-10c-1.408 0-2.5-1.092-2.5-2.5v-0.625h-0.625c-0.345 0-0.625-0.28-0.625-0.625s0.28-0.625 0.625-0.625h0.625v-1.25h-0.625c-0.345 0-0.625-0.28-0.625-0.625s0.28-0.625 0.625-0.625h0.625v-1.25zM5.625 2.306c-0.717 0-1.25 0.533-1.25 1.25v0.625h0.625c0.345 0 0.625 0.28 0.625 0.625s-0.28 0.625-0.625 0.625h-0.625v1.25h0.625c0.345 0 0.625 0.28 0.625 0.625s-0.28 0.625-0.625 0.625h-0.625v1.25h0.625c0.345 0 0.625 0.28 0.625 0.625s-0.28 0.625-0.625 0.625h-0.625v1.25h0.625c0.345 0 0.625 0.28 0.625 0.625s-0.28 0.625-0.625 0.625h-0.625v1.25h0.625c0.345 0 0.625 0.28 0.625 0.625s-0.28 0.625-0.625 0.625h-0.625v0.625c0 0.717 0.533 1.25 1.25 1.25h1.25v-15h-1.25zM15.625 2.306h-7.5v15h7.5c0.717 0 1.25-0.533 1.25-1.25v-12.5c0-0.717-0.533-1.25-1.25-1.25z"></path>
</svg>
