<!-- Generated by IcoMoon.io -->
<svg version="1.1" xmlns="http://www.w3.org/2000/svg" width="32" height="32" viewBox="0 0 32 32">
<title>aid-kit</title>
<path d="M11 17.19c0-0.552 0.448-1 1-1h3v-3c0-0.552 0.448-1 1-1s1 0.448 1 1v3h3c0.552 0 1 0.448 1 1s-0.448 1-1 1h-3v3c0 0.552-0.448 1-1 1s-1-0.448-1-1v-3h-3c-0.552 0-1-0.448-1-1z"></path>
<path d="M11.101 7.69c0.466-2.277 2.489-4 4.899-4s4.433 1.723 4.899 4h5.101c2.252 0 4 1.748 4 4v12c0 2.252-1.748 4-4 4h-20c-2.252 0-4-1.748-4-4v-12c0-2.252 1.748-4 4-4h5.101zM13.173 7.69h5.654c-0.415-1.161-1.529-2-2.827-2s-2.412 0.839-2.827 2zM6 9.69c-1.148 0-2 0.852-2 2v12c0 1.148 0.852 2 2 2h20c1.148 0 2-0.852 2-2v-12c0-1.148-0.852-2-2-2h-20z"></path>
</svg>
