<!-- Generated by IcoMoon.io -->
<svg version="1.1" xmlns="http://www.w3.org/2000/svg" width="20" height="20" viewBox="0 0 20 20">
<title>aid-kit</title>
<path d="M6.875 10.744c0-0.345 0.28-0.625 0.625-0.625h1.875v-1.875c0-0.345 0.28-0.625 0.625-0.625s0.625 0.28 0.625 0.625v1.875h1.875c0.345 0 0.625 0.28 0.625 0.625s-0.28 0.625-0.625 0.625h-1.875v1.875c0 0.345-0.28 0.625-0.625 0.625s-0.625-0.28-0.625-0.625v-1.875h-1.875c-0.345 0-0.625-0.28-0.625-0.625z"></path>
<path d="M6.938 4.806c0.291-1.423 1.556-2.5 3.062-2.5s2.771 1.077 3.062 2.5h3.188c1.408 0 2.5 1.092 2.5 2.5v7.5c0 1.408-1.092 2.5-2.5 2.5h-12.5c-1.408 0-2.5-1.092-2.5-2.5v-7.5c0-1.408 1.092-2.5 2.5-2.5h3.188zM8.233 4.806h3.534c-0.259-0.726-0.956-1.25-1.767-1.25s-1.508 0.524-1.767 1.25zM3.75 6.056c-0.717 0-1.25 0.533-1.25 1.25v7.5c0 0.717 0.533 1.25 1.25 1.25h12.5c0.717 0 1.25-0.533 1.25-1.25v-7.5c0-0.717-0.533-1.25-1.25-1.25h-12.5z"></path>
</svg>
