<!-- Generated by IcoMoon.io -->
<svg version="1.1" xmlns="http://www.w3.org/2000/svg" width="20" height="20" viewBox="0 0 20 20">
<title>algolia</title>
<path d="M10.194 3.419c-1.559 0-3.083 0.462-4.379 1.329s-2.306 2.098-2.903 3.538c-0.596 1.44-0.752 3.025-0.447 4.554s1.056 2.933 2.159 4.035c1.103 1.102 2.508 1.852 4.037 2.155s3.114 0.146 4.554-0.451c1.44-0.598 2.67-1.609 3.536-2.906s1.326-2.821 1.325-4.38c0-1.035-0.204-2.059-0.6-3.015s-0.977-1.824-1.709-2.556-1.601-1.311-2.557-1.707c-0.956-0.395-1.981-0.598-3.016-0.598zM10.194 16.856c-1.098 0-2.171-0.326-3.083-0.935s-1.624-1.477-2.044-2.491-0.53-2.13-0.316-3.207c0.214-1.077 0.743-2.066 1.519-2.842s1.765-1.305 2.842-1.519c1.077-0.214 2.192-0.104 3.207 0.316s1.881 1.131 2.491 2.044c0.61 0.913 0.935 1.986 0.935 3.083-0.002 1.471-0.587 2.882-1.627 3.923s-2.451 1.626-3.923 1.627zM10.194 6.887v4.169c0 0.028 0.007 0.055 0.021 0.080s0.033 0.045 0.057 0.059c0.024 0.014 0.051 0.023 0.079 0.023s0.056-0.005 0.080-0.018l3.675-1.875c0.019-0.010 0.036-0.025 0.050-0.042s0.024-0.037 0.029-0.058c0.006-0.021 0.007-0.043 0.005-0.065s-0.010-0.042-0.021-0.061c-0.384-0.678-0.936-1.247-1.602-1.651s-1.425-0.632-2.204-0.661c-0.035-0.003-0.070 0.005-0.1 0.023s-0.054 0.045-0.068 0.077zM5.050 3.85l-0.481-0.481c-0.112-0.113-0.246-0.203-0.392-0.264s-0.305-0.093-0.464-0.093c-0.159 0-0.317 0.032-0.464 0.093s-0.28 0.151-0.392 0.264l-0.575 0.575c-0.225 0.227-0.351 0.534-0.351 0.853s0.126 0.626 0.351 0.853l0.475 0.475c0.016 0.018 0.035 0.033 0.058 0.043s0.046 0.015 0.071 0.015c0.024 0 0.048-0.005 0.071-0.015s0.042-0.025 0.058-0.043c0.276-0.391 0.583-0.759 0.919-1.1 0.333-0.336 0.69-0.648 1.069-0.931 0.022-0.010 0.041-0.026 0.056-0.045s0.025-0.041 0.030-0.065c0.005-0.024 0.004-0.048-0.002-0.071s-0.018-0.045-0.033-0.063zM12.775 2.6v-0.956c0-0.322-0.128-0.63-0.355-0.857s-0.536-0.355-0.857-0.355h-2.813c-0.322 0-0.63 0.128-0.857 0.355s-0.355 0.536-0.355 0.857v0.981c0.001 0.025 0.008 0.050 0.020 0.072s0.029 0.042 0.049 0.057c0.020 0.015 0.044 0.025 0.069 0.030s0.051 0.004 0.075-0.003c1.578-0.441 3.247-0.441 4.825 0 0.026 0.006 0.053 0.006 0.079-0s0.050-0.019 0.069-0.037c0.020-0.018 0.035-0.040 0.044-0.066s0.012-0.052 0.008-0.078z"></path>
</svg>
