<!-- Generated by IcoMoon.io -->
<svg version="1.1" xmlns="http://www.w3.org/2000/svg" width="32" height="32" viewBox="0 0 32 32">
<title>algolia</title>
<path d="M16.31 5.47c-2.494 0-4.933 0.74-7.007 2.126s-3.69 3.356-4.644 5.661c-0.954 2.305-1.203 4.841-0.716 7.287s1.689 4.693 3.454 6.456c1.765 1.763 4.012 2.963 6.459 3.449s4.983 0.234 7.287-0.722c2.304-0.956 4.273-2.574 5.657-4.649s2.122-4.514 2.12-7.008c0-1.655-0.326-3.295-0.96-4.824s-1.563-2.919-2.734-4.089-2.561-2.098-4.091-2.731c-1.53-0.633-3.169-0.958-4.825-0.956zM16.31 26.97c-1.756 0-3.473-0.521-4.934-1.497s-2.598-2.363-3.271-3.985-0.848-3.408-0.505-5.131c0.343-1.723 1.188-3.305 2.43-4.547s2.824-2.088 4.547-2.43c1.723-0.343 3.508-0.167 5.131 0.505s3.009 1.81 3.985 3.271c0.976 1.46 1.497 3.177 1.497 4.934-0.003 2.354-0.939 4.611-2.604 6.276s-3.922 2.601-6.276 2.604zM16.31 11.020v6.67c0 0.045 0.012 0.088 0.034 0.127s0.053 0.071 0.092 0.095c0.038 0.023 0.082 0.036 0.126 0.037s0.089-0.009 0.128-0.029l5.88-3c0.031-0.017 0.058-0.039 0.079-0.067s0.038-0.059 0.047-0.092c0.009-0.034 0.012-0.069 0.007-0.103s-0.016-0.068-0.034-0.098c-0.615-1.085-1.498-1.995-2.564-2.642s-2.28-1.012-3.526-1.058c-0.056-0.005-0.112 0.008-0.161 0.037s-0.087 0.072-0.109 0.123zM8.080 6.16l-0.77-0.77c-0.179-0.181-0.393-0.324-0.628-0.422s-0.487-0.148-0.742-0.148c-0.255 0-0.507 0.050-0.742 0.148s-0.449 0.241-0.628 0.422l-0.92 0.92c-0.36 0.363-0.561 0.854-0.561 1.365s0.202 1.002 0.561 1.365l0.76 0.76c0.025 0.030 0.057 0.053 0.092 0.070s0.074 0.025 0.113 0.025c0.039 0 0.077-0.008 0.113-0.025s0.067-0.040 0.092-0.070c0.442-0.625 0.933-1.214 1.47-1.76 0.532-0.538 1.104-1.036 1.71-1.49 0.035-0.017 0.065-0.041 0.089-0.072s0.040-0.066 0.048-0.104c0.008-0.038 0.007-0.077-0.003-0.114s-0.028-0.072-0.054-0.101zM20.44 4.16v-1.53c0-0.515-0.204-1.008-0.568-1.372s-0.857-0.568-1.372-0.568h-4.5c-0.514 0-1.008 0.204-1.372 0.568s-0.568 0.857-0.568 1.372v1.57c0.002 0.040 0.012 0.080 0.031 0.116s0.046 0.067 0.079 0.091c0.033 0.024 0.070 0.040 0.11 0.048s0.081 0.006 0.12-0.005c2.525-0.706 5.195-0.706 7.72 0 0.041 0.010 0.085 0.010 0.126-0s0.080-0.031 0.111-0.059c0.032-0.029 0.056-0.065 0.070-0.105s0.019-0.083 0.012-0.125z"></path>
</svg>
