<!-- Generated by IcoMoon.io -->
<svg version="1.1" xmlns="http://www.w3.org/2000/svg" width="20" height="20" viewBox="0 0 20 20">
<title>alpine</title>
<path d="M5.694 18.137c-0.13 0.011-0.261-0.020-0.373-0.087s-0.2-0.168-0.252-0.288l-4.331-7.625c-0.043-0.099-0.065-0.205-0.065-0.313s0.022-0.214 0.065-0.313l4.375-7.719c0.057-0.087 0.132-0.161 0.221-0.216s0.188-0.090 0.292-0.102h8.8c0.094 0.008 0.185 0.036 0.266 0.084s0.151 0.113 0.203 0.191l4.375 7.713c0.049 0.11 0.075 0.229 0.075 0.35s-0.026 0.24-0.075 0.35l-4.306 7.625c-0.056 0.115-0.146 0.211-0.257 0.273s-0.24 0.089-0.368 0.077h-8.644zM8.369 5.856l-5.244 5.537c0.149 0.174 0.336 0.312 0.546 0.404s0.438 0.135 0.667 0.126c0.229-0.009 0.453-0.070 0.655-0.178s0.377-0.26 0.512-0.446c0.925-0.969 2.744-2.963 2.744-2.963s2.025 2.031 2.962 2.987c0.15 0.184 0.339 0.332 0.554 0.433s0.45 0.151 0.688 0.148 0.471-0.060 0.684-0.166c0.212-0.106 0.398-0.259 0.543-0.447l-2.156-2.263c0.119 0.056 0.356 0.238 0.412 0.194 0.269-0.219 0.362 0 0.494 0.15 0.713 0.719 1.4 1.475 2.156 2.144 0.292 0.244 0.664 0.371 1.044 0.356 0.41-0.090 0.806-0.238 1.175-0.438l-4.819-5-1.4 1.569-2.219-2.15zM7.425 9.838l-1.513 1.563 1.513 0.625v-2.188z"></path>
</svg>
