<!-- Generated by IcoMoon.io -->
<svg version="1.1" xmlns="http://www.w3.org/2000/svg" width="32" height="32" viewBox="0 0 32 32">
<title>alpine</title>
<path d="M9.11 29.020c-0.209 0.017-0.417-0.032-0.597-0.139s-0.321-0.269-0.403-0.461l-6.93-12.2c-0.068-0.158-0.103-0.328-0.103-0.5s0.035-0.342 0.103-0.5l7-12.35c0.091-0.14 0.212-0.258 0.353-0.346s0.301-0.144 0.467-0.164h14.080c0.15 0.012 0.296 0.058 0.425 0.134s0.241 0.181 0.325 0.306l7 12.34c0.079 0.176 0.12 0.367 0.12 0.56s-0.041 0.384-0.12 0.56l-6.89 12.2c-0.089 0.185-0.233 0.337-0.412 0.438s-0.384 0.143-0.588 0.122h-13.83zM13.39 9.37l-8.39 8.86c0.239 0.279 0.537 0.5 0.873 0.646s0.701 0.216 1.068 0.201c0.367-0.014 0.725-0.112 1.049-0.284s0.604-0.417 0.82-0.713c1.48-1.55 4.39-4.74 4.39-4.74s3.24 3.25 4.74 4.78c0.24 0.295 0.543 0.532 0.887 0.693s0.72 0.242 1.1 0.237 0.754-0.095 1.094-0.265c0.34-0.17 0.637-0.414 0.869-0.715l-3.45-3.62c0.19 0.090 0.57 0.38 0.66 0.31 0.43-0.35 0.58 0 0.79 0.24 1.14 1.15 2.24 2.36 3.45 3.43 0.467 0.39 1.062 0.593 1.67 0.57 0.656-0.145 1.289-0.38 1.88-0.7l-7.71-8-2.24 2.51-3.55-3.44zM11.88 15.74l-2.42 2.5 2.42 1v-3.5z"></path>
</svg>
