<!-- Generated by IcoMoon.io -->
<svg version="1.1" xmlns="http://www.w3.org/2000/svg" width="20" height="20" viewBox="0 0 20 20">
<title>anchor</title>
<path d="M12.813 3.869c0 1.338-0.935 2.459-2.188 2.743v0.070h1.875c0.345 0 0.625 0.28 0.625 0.625s-0.28 0.625-0.625 0.625h-1.875v8.72c2.965-0.291 5.304-2.629 5.595-5.595h-0.907c-0.345 0-0.625-0.28-0.625-0.625s0.28-0.625 0.625-0.625h2.188v0.625c0 3.947-3.012 7.159-6.875 7.475v0.025c0 0.345-0.28 0.625-0.625 0.625s-0.625-0.28-0.625-0.625v-0.025c-3.863-0.315-6.875-3.527-6.875-7.475v-0.625h2.188c0.345 0 0.625 0.28 0.625 0.625s-0.28 0.625-0.625 0.625h-0.907c0.291 2.965 2.629 5.304 5.595 5.595v-8.72h-1.875c-0.345 0-0.625-0.28-0.625-0.625s0.28-0.625 0.625-0.625h1.875v-0.070c-1.252-0.284-2.188-1.404-2.188-2.743 0-1.553 1.259-2.813 2.813-2.813s2.813 1.259 2.813 2.813zM10 2.306c-0.863 0-1.563 0.7-1.563 1.562s0.7 1.563 1.563 1.563c0.863 0 1.563-0.7 1.563-1.563s-0.7-1.563-1.563-1.563z"></path>
</svg>
