<!-- Generated by IcoMoon.io -->
<svg version="1.1" xmlns="http://www.w3.org/2000/svg" width="32" height="32" viewBox="0 0 32 32">
<title>anchor</title>
<path d="M20.5 6.19c0 2.142-1.496 3.934-3.5 4.388v0.111h3c0.552 0 1 0.448 1 1s-0.448 1-1 1h-3v13.951c4.744-0.465 8.486-4.207 8.951-8.951h-1.451c-0.552 0-1-0.448-1-1s0.448-1 1-1h3.5v1c0 6.315-4.82 11.455-11 11.959v0.041c0 0.552-0.448 1-1 1s-1-0.448-1-1v-0.041c-6.18-0.504-11-5.644-11-11.959v-1h3.5c0.552 0 1 0.448 1 1s-0.448 1-1 1h-1.451c0.465 4.744 4.207 8.486 8.951 8.951v-13.951h-3c-0.552 0-1-0.448-1-1s0.448-1 1-1h3v-0.111c-2.004-0.455-3.5-2.247-3.5-4.388 0-2.485 2.015-4.5 4.5-4.5s4.5 2.015 4.5 4.5zM16 3.69c-1.381 0-2.5 1.119-2.5 2.5s1.119 2.5 2.5 2.5c1.381 0 2.5-1.119 2.5-2.5s-1.119-2.5-2.5-2.5z"></path>
</svg>
