<!-- Generated by IcoMoon.io -->
<svg version="1.1" xmlns="http://www.w3.org/2000/svg" width="20" height="20" viewBox="0 0 20 20">
<title>android</title>
<path d="M5.625 6.887v6.875c-0.001 0.15 0.028 0.298 0.085 0.436s0.141 0.264 0.246 0.37 0.232 0.19 0.37 0.246c0.138 0.057 0.287 0.086 0.436 0.085h0.319v2.594c0.010 0.286 0.131 0.557 0.337 0.756s0.482 0.308 0.769 0.307c0.284 0.002 0.557-0.109 0.76-0.308s0.318-0.47 0.321-0.754v-2.581h1.463v2.581c0.008 0.286 0.128 0.557 0.333 0.755s0.481 0.309 0.767 0.307c0.285 0.002 0.558-0.109 0.762-0.308s0.321-0.47 0.325-0.755v-2.581h0.319c0.302 0 0.591-0.12 0.804-0.333s0.333-0.503 0.333-0.804v-6.875l-8.75-0.012zM17.294 7.963c0-0.29-0.115-0.568-0.32-0.773s-0.483-0.32-0.773-0.32-0.568 0.115-0.773 0.32c-0.205 0.205-0.32 0.483-0.32 0.773v4.45c0 0.29 0.115 0.568 0.32 0.773s0.483 0.32 0.773 0.32 0.568-0.115 0.773-0.32c0.205-0.205 0.32-0.483 0.32-0.773v-4.45zM4.894 7.963c0-0.29-0.115-0.568-0.32-0.773s-0.483-0.32-0.773-0.32c-0.29 0-0.568 0.115-0.773 0.32s-0.32 0.483-0.32 0.773v4.45c0.008 0.282 0.128 0.55 0.333 0.744s0.479 0.3 0.761 0.293c0.14 0.004 0.28-0.019 0.41-0.069s0.251-0.125 0.352-0.222 0.183-0.212 0.24-0.34c0.057-0.128 0.088-0.266 0.091-0.406v-4.45zM12.15 2.631l0.688-1.356c0.011-0.022 0.017-0.046 0.017-0.071s-0.006-0.049-0.018-0.070c-0.012-0.022-0.029-0.040-0.049-0.054s-0.044-0.022-0.068-0.024c-0.025-0-0.049 0.007-0.070 0.020s-0.038 0.032-0.048 0.055l-0.694 1.369c-0.597-0.278-1.248-0.422-1.906-0.422s-1.309 0.144-1.906 0.422l-0.694-1.369c-0.011-0.022-0.027-0.041-0.048-0.055s-0.045-0.020-0.070-0.020c-0.024 0.002-0.048 0.011-0.068 0.024s-0.037 0.032-0.049 0.054c-0.012 0.022-0.018 0.046-0.018 0.070s0.006 0.049 0.017 0.071l0.688 1.356c-0.668 0.317-1.232 0.817-1.626 1.442s-0.602 1.35-0.599 2.089h8.75c0.003-0.739-0.205-1.464-0.599-2.089s-0.958-1.126-1.626-1.442zM8.175 4.7c-0.071-0.001-0.141-0.024-0.2-0.064s-0.104-0.098-0.131-0.164c-0.026-0.066-0.033-0.139-0.018-0.209s0.050-0.134 0.101-0.184c0.051-0.050 0.116-0.084 0.186-0.097s0.143-0.006 0.209 0.022 0.122 0.074 0.162 0.134c0.040 0.059 0.061 0.129 0.061 0.201 0 0.048-0.010 0.096-0.028 0.14s-0.046 0.085-0.080 0.118c-0.034 0.034-0.075 0.060-0.12 0.078s-0.092 0.027-0.141 0.026zM11.825 4.7c-0.072 0-0.142-0.021-0.201-0.061s-0.106-0.096-0.133-0.163c-0.027-0.066-0.035-0.139-0.021-0.209s0.049-0.135 0.099-0.186 0.115-0.085 0.186-0.099c0.070-0.014 0.143-0.007 0.209 0.021s0.123 0.074 0.163 0.134c0.040 0.060 0.061 0.13 0.061 0.201 0 0.096-0.038 0.188-0.106 0.256s-0.16 0.106-0.256 0.106z"></path>
</svg>
