<!-- Generated by IcoMoon.io -->
<svg version="1.1" xmlns="http://www.w3.org/2000/svg" width="32" height="32" viewBox="0 0 32 32">
<title>android</title>
<path d="M9 11.020v11c-0.001 0.239 0.045 0.477 0.136 0.698s0.225 0.422 0.394 0.592 0.37 0.303 0.592 0.394c0.221 0.091 0.459 0.137 0.698 0.136h0.51v4.15c0.016 0.458 0.209 0.892 0.54 1.209s0.772 0.494 1.23 0.491c0.454 0.003 0.892-0.175 1.216-0.493s0.509-0.752 0.514-1.207v-4.13h2.34v4.13c0.013 0.457 0.205 0.891 0.534 1.209s0.769 0.494 1.227 0.491c0.455 0.003 0.893-0.174 1.219-0.492s0.513-0.752 0.521-1.207v-4.13h0.51c0.483 0 0.946-0.192 1.287-0.533s0.533-0.804 0.533-1.287v-11l-14-0.020zM27.67 12.74c0-0.464-0.184-0.909-0.513-1.237s-0.773-0.513-1.237-0.513-0.909 0.184-1.237 0.513c-0.328 0.328-0.513 0.773-0.513 1.237v7.12c0 0.464 0.184 0.909 0.513 1.237s0.773 0.513 1.237 0.513 0.909-0.184 1.237-0.513c0.328-0.328 0.513-0.773 0.513-1.237v-7.12zM7.83 12.74c0-0.464-0.184-0.909-0.513-1.237s-0.773-0.513-1.237-0.513c-0.464 0-0.909 0.184-1.237 0.513s-0.513 0.773-0.513 1.237v7.12c0.013 0.452 0.205 0.88 0.532 1.191s0.766 0.48 1.218 0.469c0.224 0.007 0.447-0.031 0.657-0.111s0.401-0.201 0.564-0.355 0.293-0.339 0.384-0.544c0.091-0.205 0.14-0.426 0.146-0.65v-7.12zM19.44 4.21l1.1-2.17c0.018-0.035 0.028-0.074 0.027-0.113s-0.010-0.078-0.029-0.113c-0.019-0.035-0.046-0.064-0.079-0.086s-0.070-0.035-0.11-0.039c-0.040-0-0.079 0.011-0.112 0.032s-0.061 0.052-0.078 0.088l-1.11 2.19c-0.955-0.445-1.996-0.675-3.050-0.675s-2.095 0.23-3.050 0.675l-1.11-2.19c-0.017-0.036-0.044-0.066-0.078-0.088s-0.073-0.032-0.112-0.032c-0.039 0.004-0.077 0.017-0.11 0.039s-0.060 0.051-0.079 0.086c-0.019 0.035-0.029 0.073-0.029 0.113s0.009 0.078 0.027 0.113l1.1 2.17c-1.068 0.507-1.971 1.307-2.601 2.308s-0.963 2.16-0.959 3.342h14c0.004-1.183-0.329-2.342-0.959-3.342s-1.533-1.801-2.601-2.308zM13.080 7.52c-0.114-0.002-0.225-0.038-0.319-0.103s-0.167-0.156-0.209-0.262c-0.042-0.106-0.052-0.222-0.029-0.334s0.079-0.214 0.161-0.294c0.082-0.080 0.185-0.134 0.297-0.156s0.228-0.010 0.334 0.035 0.195 0.119 0.259 0.214c0.063 0.095 0.097 0.207 0.097 0.321 0 0.077-0.015 0.153-0.045 0.224s-0.073 0.135-0.128 0.189c-0.055 0.054-0.12 0.096-0.192 0.125s-0.148 0.043-0.225 0.041zM18.92 7.52c-0.115 0-0.227-0.034-0.322-0.098s-0.17-0.154-0.214-0.26c-0.044-0.106-0.055-0.223-0.033-0.335s0.078-0.216 0.159-0.297 0.184-0.136 0.297-0.159c0.113-0.022 0.229-0.011 0.335 0.033s0.197 0.118 0.26 0.214c0.064 0.095 0.098 0.208 0.098 0.322 0 0.154-0.061 0.301-0.17 0.41s-0.256 0.17-0.41 0.17z"></path>
</svg>
