<!-- Generated by IcoMoon.io -->
<svg version="1.1" xmlns="http://www.w3.org/2000/svg" width="20" height="20" viewBox="0 0 20 20">
<title>angler</title>
<path d="M18.567 2.317l-0.444 0.444c0.001 0.017 0.002 0.034 0.002 0.052v14.063c0 1.036-0.839 1.875-1.875 1.875s-1.875-0.839-1.875-1.875c0-0.345 0.28-0.625 0.625-0.625s0.625 0.28 0.625 0.625c0 0.345 0.28 0.625 0.625 0.625s0.625-0.28 0.625-0.625v-12.866l-9.128 9.128c1.054 0.103 1.917 0.862 2.174 1.863h1.329c0.345 0 0.625 0.28 0.625 0.625v1.563c0 0.345-0.28 0.625-0.625 0.625s-0.625-0.28-0.625-0.625v-0.938h-0.704c-0.278 1.078-1.256 1.875-2.421 1.875-1.297 0-2.364-0.988-2.488-2.253l-2.695 2.695c-0.244 0.244-0.64 0.244-0.884 0-0.122-0.122-0.183-0.282-0.183-0.442v-1.25c0-0.166 0.066-0.325 0.183-0.442l4.375-4.375c0.117-0.117 0.276-0.183 0.442-0.183h0.991l10.442-10.442c0.244-0.244 0.64-0.244 0.884 0s0.244 0.64 0 0.884zM7.5 15h1.083c-0.216-0.374-0.62-0.625-1.083-0.625-0.69 0-1.25 0.56-1.25 1.25s0.56 1.25 1.25 1.25c0.463 0 0.867-0.251 1.083-0.625h-1.083c-0.345 0-0.625-0.28-0.625-0.625s0.28-0.625 0.625-0.625z"></path>
</svg>
