<!-- Generated by IcoMoon.io -->
<svg version="1.1" xmlns="http://www.w3.org/2000/svg" width="32" height="32" viewBox="0 0 32 32">
<title>angler</title>
<path d="M29.707 3.707l-0.71 0.71c0.002 0.027 0.003 0.055 0.003 0.082v22.5c0 1.657-1.343 3-3 3s-3-1.343-3-3c0-0.552 0.448-1 1-1s1 0.448 1 1c0 0.552 0.448 1 1 1s1-0.448 1-1v-20.586l-14.605 14.605c1.687 0.165 3.067 1.379 3.479 2.981h2.126c0.552 0 1 0.448 1 1v2.5c0 0.552-0.448 1-1 1s-1-0.448-1-1v-1.5h-1.126c-0.444 1.725-2.010 3-3.874 3-2.076 0-3.782-1.581-3.981-3.605l-4.312 4.312c-0.391 0.39-1.024 0.39-1.414 0-0.195-0.195-0.293-0.451-0.293-0.707v-2c0-0.265 0.105-0.52 0.293-0.707l7-7c0.188-0.188 0.442-0.293 0.707-0.293h1.586l16.707-16.707c0.39-0.391 1.024-0.391 1.414 0s0.39 1.024 0 1.414zM12 24h1.732c-0.346-0.598-0.992-1-1.732-1-1.105 0-2 0.895-2 2s0.895 2 2 2c0.74 0 1.387-0.402 1.732-1h-1.732c-0.552 0-1-0.448-1-1s0.448-1 1-1z"></path>
</svg>
