<!-- Generated by IcoMoon.io -->
<svg version="1.1" xmlns="http://www.w3.org/2000/svg" width="32" height="32" viewBox="0 0 32 32">
<title>ansible</title>
<path d="M14.31 14.83l5.69 4.52-3.79-9.37-1.9 4.85zM21.2 22.63l-7.56-6.12-2.54 6.39h-2.19l6.41-15.46c0.077-0.182 0.207-0.338 0.372-0.446s0.36-0.166 0.558-0.164c0.195-0.004 0.386 0.052 0.547 0.162s0.285 0.266 0.353 0.448l5.85 14.050c0.050 0.139 0.083 0.283 0.1 0.43 0.010 0.137-0.009 0.275-0.055 0.404s-0.118 0.248-0.212 0.349c-0.094 0.1-0.207 0.18-0.334 0.235s-0.262 0.083-0.4 0.082c-0.166 0.002-0.331-0.028-0.486-0.090s-0.295-0.154-0.414-0.27zM17.5 1.1c-2.95-0.303-5.923 0.295-8.526 1.715s-4.715 3.596-6.057 6.241-1.85 5.634-1.459 8.574c0.392 2.94 1.665 5.692 3.652 7.893s4.595 3.749 7.479 4.438c2.884 0.689 5.91 0.488 8.678-0.576s5.148-2.944 6.826-5.388c1.679-2.445 2.577-5.341 2.576-8.307-0.021-3.625-1.375-7.115-3.803-9.806s-5.763-4.394-9.367-4.784z"></path>
</svg>
