<!-- Generated by IcoMoon.io -->
<svg version="1.1" xmlns="http://www.w3.org/2000/svg" width="20" height="20" viewBox="0 0 20 20">
<title>ansible</title>
<path d="M8.944 9.269l3.556 2.825-2.369-5.856-1.188 3.031zM13.25 14.144l-4.725-3.825-1.587 3.994h-1.369l4.006-9.662c0.048-0.114 0.129-0.211 0.233-0.279s0.225-0.103 0.348-0.102c0.122-0.003 0.241 0.033 0.342 0.101s0.178 0.166 0.221 0.28l3.656 8.781c0.031 0.087 0.052 0.177 0.063 0.269 0.006 0.086-0.006 0.172-0.034 0.253s-0.074 0.155-0.132 0.218c-0.059 0.063-0.13 0.113-0.208 0.147s-0.164 0.052-0.25 0.051c-0.104 0.002-0.207-0.018-0.304-0.056s-0.184-0.096-0.259-0.169zM10.938 0.688c-1.844-0.19-3.702 0.184-5.329 1.072s-2.947 2.248-3.785 3.901-1.156 3.521-0.912 5.359c0.245 1.837 1.041 3.557 2.282 4.933s2.872 2.343 4.674 2.774c1.803 0.431 3.694 0.305 5.424-0.36s3.217-1.84 4.267-3.368c1.049-1.528 1.611-3.338 1.61-5.192-0.013-2.265-0.859-4.447-2.377-6.129s-3.602-2.746-5.854-2.99z"></path>
</svg>
