<!-- Generated by IcoMoon.io -->
<svg version="1.1" xmlns="http://www.w3.org/2000/svg" width="20" height="20" viewBox="0 0 20 20">
<title>apple</title>
<path d="M17.063 14.694c-0.258 0.594-0.574 1.162-0.944 1.694-0.347 0.532-0.754 1.023-1.213 1.462-0.411 0.423-0.967 0.675-1.556 0.706-0.497-0.021-0.985-0.138-1.438-0.344-0.489-0.215-1.016-0.332-1.55-0.344-0.548 0.011-1.090 0.127-1.594 0.344-0.435 0.197-0.9 0.319-1.375 0.363-0.299-0.005-0.595-0.070-0.869-0.191s-0.52-0.297-0.725-0.515c-0.471-0.459-0.891-0.968-1.25-1.519-0.571-0.819-1.022-1.716-1.338-2.662-0.362-1.018-0.552-2.089-0.563-3.169-0.032-1.062 0.232-2.111 0.762-3.031 0.376-0.674 0.924-1.237 1.588-1.631 0.647-0.398 1.39-0.614 2.15-0.625 0.574 0.034 1.138 0.165 1.669 0.387 0.415 0.202 0.854 0.349 1.306 0.438 0.503-0.106 0.995-0.261 1.469-0.463 0.632-0.257 1.312-0.376 1.994-0.35 0.642 0.018 1.271 0.181 1.841 0.478s1.064 0.719 1.447 1.235c-0.606 0.321-1.11 0.805-1.455 1.396s-0.519 1.268-0.501 1.954c-0.006 0.523 0.1 1.041 0.309 1.52s0.517 0.909 0.904 1.261c0.353 0.336 0.764 0.605 1.213 0.794-0.094 0.281-0.2 0.556-0.306 0.813h0.025zM13.688 1.406c-0.014 0.906-0.356 1.776-0.963 2.45-0.311 0.428-0.722 0.773-1.197 1.006s-0.999 0.347-1.528 0.331c-0.006-0.11-0.006-0.221 0-0.331 0.022-0.929 0.382-1.818 1.013-2.5 0.35-0.391 0.775-0.707 1.25-0.931 0.44-0.216 0.917-0.343 1.406-0.375 0.006 0.117 0.006 0.233 0 0.35h0.019z"></path>
</svg>
