<!-- Generated by IcoMoon.io -->
<svg version="1.1" xmlns="http://www.w3.org/2000/svg" width="32" height="32" viewBox="0 0 32 32">
<title>apple</title>
<path d="M27.3 23.51c-0.413 0.951-0.919 1.858-1.51 2.71-0.556 0.851-1.206 1.636-1.94 2.34-0.658 0.677-1.547 1.080-2.49 1.13-0.795-0.033-1.576-0.22-2.3-0.55-0.783-0.344-1.625-0.53-2.48-0.55-0.878 0.017-1.744 0.204-2.55 0.55-0.696 0.315-1.439 0.511-2.2 0.58-0.479-0.008-0.952-0.111-1.39-0.306s-0.833-0.474-1.16-0.824c-0.754-0.734-1.425-1.549-2-2.43-0.914-1.31-1.635-2.745-2.14-4.26-0.58-1.628-0.884-3.342-0.9-5.070-0.051-1.698 0.372-3.378 1.22-4.85 0.602-1.079 1.478-1.979 2.54-2.61 1.036-0.637 2.224-0.983 3.44-1 0.919 0.054 1.822 0.264 2.67 0.62 0.663 0.323 1.366 0.558 2.090 0.7 0.806-0.169 1.593-0.417 2.35-0.74 1.012-0.411 2.099-0.602 3.19-0.56 1.027 0.028 2.034 0.29 2.945 0.764s1.703 1.15 2.314 1.976c-0.969 0.514-1.775 1.287-2.328 2.234s-0.831 2.030-0.802 3.126c-0.009 0.837 0.159 1.666 0.494 2.433s0.827 1.454 1.446 2.017c0.564 0.537 1.222 0.968 1.94 1.27-0.15 0.45-0.32 0.89-0.49 1.3h0.040zM21.9 2.25c-0.023 1.45-0.57 2.842-1.54 3.92-0.498 0.685-1.155 1.237-1.915 1.61s-1.599 0.555-2.445 0.53c-0.010-0.177-0.010-0.353 0-0.53 0.035-1.486 0.611-2.909 1.62-4 0.561-0.625 1.241-1.132 2-1.49 0.704-0.345 1.468-0.549 2.25-0.6 0.010 0.187 0.010 0.373 0 0.56h0.030z"></path>
</svg>
