<!-- Generated by IcoMoon.io -->
<svg version="1.1" xmlns="http://www.w3.org/2000/svg" width="20" height="20" viewBox="0 0 20 20">
<title>area</title>
<path d="M5.442 1.864c0.244 0.244 0.244 0.64 0 0.884l-2.5 2.5c-0.244 0.244-0.64 0.244-0.884 0s-0.244-0.64 0-0.884l2.5-2.5c0.244-0.244 0.64-0.244 0.884 0z"></path>
<path d="M17.942 14.364c0.244 0.244 0.244 0.64 0 0.884l-2.5 2.5c-0.244 0.244-0.64 0.244-0.884 0s-0.244-0.64 0-0.884l2.5-2.5c0.244-0.244 0.64-0.244 0.884 0z"></path>
<path d="M10.442 1.864c0.244 0.244 0.244 0.64 0 0.884l-7.5 7.5c-0.244 0.244-0.64 0.244-0.884 0s-0.244-0.64 0-0.884l7.5-7.5c0.244-0.244 0.64-0.244 0.884 0z"></path>
<path d="M17.942 9.364c0.244 0.244 0.244 0.64 0 0.884l-7.5 7.5c-0.244 0.244-0.64 0.244-0.884 0s-0.244-0.64 0-0.884l7.5-7.5c0.244-0.244 0.64-0.244 0.884 0z"></path>
<path d="M15.442 1.864c0.244 0.244 0.244 0.64 0 0.884l-12.5 12.5c-0.244 0.244-0.64 0.244-0.884 0s-0.244-0.64 0-0.884l12.5-12.5c0.244-0.244 0.64-0.244 0.884 0z"></path>
<path d="M17.942 4.364c0.244 0.244 0.244 0.64 0 0.884l-12.5 12.5c-0.244 0.244-0.64 0.244-0.884 0s-0.244-0.64 0-0.884l12.5-12.5c0.244-0.244 0.64-0.244 0.884 0z"></path>
</svg>
