<!-- Generated by IcoMoon.io -->
<svg version="1.1" xmlns="http://www.w3.org/2000/svg" width="32" height="32" viewBox="0 0 32 32">
<title>area-rectangle</title>
<path d="M26 1.69c2.252 0 4 1.748 4 4v0.999c0 0.001 0 0.001 0 0.002v18.999c0 2.252-1.748 4-4 4h-18.999c-0.001 0-0.001 0-0.002 0h-0.999c-2.252 0-4-1.748-4-4v-20c0-2.252 1.748-4 4-4h20zM28 6.276v-0.586c0-1.148-0.852-2-2-2h-0.586l-21.414 21.414v0.586c0 1.148 0.852 2 2 2h0.586l21.414-21.414zM9.414 27.69h5.172l13.414-13.414v-5.172l-18.586 18.586zM4 22.276l18.586-18.586h-5.172l-13.414 13.414v5.172zM17.414 27.69h5.172l5.414-5.414v-5.172l-10.586 10.586zM4 14.276l10.586-10.586h-5.172l-5.414 5.414v5.172zM26 27.69c1.148 0 2-0.852 2-2v-0.586l-2.586 2.586h0.586zM4 6.276l2.586-2.586h-0.586c-1.148 0-2 0.852-2 2v0.586z"></path>
</svg>
