<!-- Generated by IcoMoon.io -->
<svg version="1.1" xmlns="http://www.w3.org/2000/svg" width="20" height="20" viewBox="0 0 20 20">
<title>area-rectangle</title>
<path d="M16.25 1.056c1.408 0 2.5 1.092 2.5 2.5v0.624c0 0 0 0.001 0 0.001v11.874c0 1.408-1.092 2.5-2.5 2.5h-11.874c-0 0-0.001 0-0.001 0h-0.624c-1.408 0-2.5-1.092-2.5-2.5v-12.5c0-1.408 1.092-2.5 2.5-2.5h12.5zM17.5 3.922v-0.366c0-0.717-0.533-1.25-1.25-1.25h-0.366l-13.384 13.384v0.366c0 0.717 0.533 1.25 1.25 1.25h0.366l13.384-13.384zM5.884 17.306h3.232l8.384-8.384v-3.232l-11.616 11.616zM2.5 13.922l11.616-11.616h-3.232l-8.384 8.384v3.232zM10.884 17.306h3.232l3.384-3.384v-3.232l-6.616 6.616zM2.5 8.922l6.616-6.616h-3.232l-3.384 3.384v3.232zM16.25 17.306c0.717 0 1.25-0.533 1.25-1.25v-0.366l-1.616 1.616h0.366zM2.5 3.922l1.616-1.616h-0.366c-0.717 0-1.25 0.533-1.25 1.25v0.366z"></path>
</svg>
