<!-- Generated by IcoMoon.io -->
<svg version="1.1" xmlns="http://www.w3.org/2000/svg" width="20" height="20" viewBox="0 0 20 20">
<title>array-alt</title>
<path d="M15.625 9.806c0-0.345 0.28-0.625 0.625-0.625h1.875c0.345 0 0.625 0.28 0.625 0.625s-0.28 0.625-0.625 0.625h-1.875c-0.345 0-0.625-0.28-0.625-0.625z"></path>
<path d="M1.25 9.806c0-0.345 0.28-0.625 0.625-0.625h1.875c0.345 0 0.625 0.28 0.625 0.625s-0.28 0.625-0.625 0.625h-1.875c-0.345 0-0.625-0.28-0.625-0.625z"></path>
<path d="M10 1.056c0.345 0 0.625 0.28 0.625 0.625v1.875c0 0.345-0.28 0.625-0.625 0.625s-0.625-0.28-0.625-0.625v-1.875c0-0.345 0.28-0.625 0.625-0.625z"></path>
<path d="M10 15.431c0.345 0 0.625 0.28 0.625 0.625v1.875c0 0.345-0.28 0.625-0.625 0.625s-0.625-0.28-0.625-0.625v-1.875c0-0.345 0.28-0.625 0.625-0.625z"></path>
<path d="M13.996 13.802c0.244-0.244 0.64-0.244 0.884 0l1.313 1.313c0.244 0.244 0.244 0.64 0 0.884s-0.64 0.244-0.884 0l-1.313-1.313c-0.244-0.244-0.244-0.64 0-0.884z"></path>
<path d="M3.808 3.614c0.244-0.244 0.64-0.244 0.884 0l1.313 1.312c0.244 0.244 0.244 0.64 0 0.884s-0.64 0.244-0.884 0l-1.313-1.313c-0.244-0.244-0.244-0.64 0-0.884z"></path>
<path d="M6.004 13.802c0.244 0.244 0.244 0.64 0 0.884l-1.313 1.313c-0.244 0.244-0.64 0.244-0.884 0s-0.244-0.64 0-0.884l1.313-1.313c0.244-0.244 0.64-0.244 0.884 0z"></path>
<path d="M16.192 3.614c0.244 0.244 0.244 0.64 0 0.884l-1.313 1.313c-0.244 0.244-0.64 0.244-0.884 0s-0.244-0.64 0-0.884l1.313-1.312c0.244-0.244 0.64-0.244 0.884 0z"></path>
</svg>
