<!-- Generated by IcoMoon.io -->
<svg version="1.1" xmlns="http://www.w3.org/2000/svg" width="20" height="20" viewBox="0 0 20 20">
<title>arrow-alt-sw</title>
<path d="M16.692 7.123c0.244-0.244 0.244-0.64 0-0.884s-0.64-0.244-0.884 0l-3.933 3.933-3.125-3.125-4.375 4.375v-2.241c0-0.345-0.28-0.625-0.625-0.625s-0.625 0.28-0.625 0.625v3.75c0 0 0-0 0 0v0.625h0.625c0 0 0.001 0 0.001 0h3.75c0.345 0 0.625-0.28 0.625-0.625s-0.28-0.625-0.625-0.625h-2.241l3.491-3.491 3.125 3.125 4.817-4.817z"></path>
</svg>
