<!-- Generated by IcoMoon.io -->
<svg version="1.1" xmlns="http://www.w3.org/2000/svg" width="20" height="20" viewBox="0 0 20 20">
<title>arrows-in</title>
<path d="M3.567 2.489c-0.244-0.244-0.64-0.244-0.884 0s-0.244 0.64 0 0.884l3.308 3.308h-2.866c-0.345 0-0.625 0.28-0.625 0.625s0.28 0.625 0.625 0.625h5v-5c0-0.345-0.28-0.625-0.625-0.625s-0.625 0.28-0.625 0.625v2.866l-3.308-3.308z"></path>
<path d="M14.009 6.681l3.308-3.308c0.244-0.244 0.244-0.64 0-0.884s-0.64-0.244-0.884 0l-3.308 3.308v-2.866c0-0.345-0.28-0.625-0.625-0.625s-0.625 0.28-0.625 0.625v5h5c0.345 0 0.625-0.28 0.625-0.625s-0.28-0.625-0.625-0.625h-2.866z"></path>
<path d="M16.875 11.681c0.345 0 0.625 0.28 0.625 0.625s-0.28 0.625-0.625 0.625h-2.866l3.308 3.308c0.244 0.244 0.244 0.64 0 0.884s-0.64 0.244-0.884 0l-3.308-3.308v2.866c0 0.345-0.28 0.625-0.625 0.625s-0.625-0.28-0.625-0.625v-5h5z"></path>
<path d="M8.125 11.681v5c0 0.345-0.28 0.625-0.625 0.625s-0.625-0.28-0.625-0.625v-2.866l-3.308 3.308c-0.244 0.244-0.64 0.244-0.884 0s-0.244-0.64 0-0.884l3.308-3.308h-2.866c-0.345 0-0.625-0.28-0.625-0.625s0.28-0.625 0.625-0.625h5z"></path>
</svg>
