<!-- Generated by IcoMoon.io -->
<svg version="1.1" xmlns="http://www.w3.org/2000/svg" width="20" height="20" viewBox="0 0 20 20">
<title>arrows-away</title>
<path d="M2.5 2.306h5c0.345 0 0.625 0.28 0.625 0.625s-0.28 0.625-0.625 0.625h-2.866l3.308 3.308c0.244 0.244 0.244 0.64 0 0.884s-0.64 0.244-0.884 0l-3.308-3.308v2.866c0 0.345-0.28 0.625-0.625 0.625s-0.625-0.28-0.625-0.625v-5z"></path>
<path d="M17.5 2.306v5c0 0.345-0.28 0.625-0.625 0.625s-0.625-0.28-0.625-0.625v-2.866l-3.308 3.308c-0.244 0.244-0.64 0.244-0.884 0s-0.244-0.64 0-0.884l3.308-3.308h-2.866c-0.345 0-0.625-0.28-0.625-0.625s0.28-0.625 0.625-0.625h5z"></path>
<path d="M16.25 12.306c0-0.345 0.28-0.625 0.625-0.625s0.625 0.28 0.625 0.625v5h-5c-0.345 0-0.625-0.28-0.625-0.625s0.28-0.625 0.625-0.625h2.866l-3.308-3.308c-0.244-0.244-0.244-0.64 0-0.884s0.64-0.244 0.884 0l3.308 3.308v-2.866z"></path>
<path d="M3.125 11.681c0.345 0 0.625 0.28 0.625 0.625v2.866l3.308-3.308c0.244-0.244 0.64-0.244 0.884 0s0.244 0.64 0 0.884l-3.308 3.308h2.866c0.345 0 0.625 0.28 0.625 0.625s-0.28 0.625-0.625 0.625h-4.374c-0 0-0.001 0-0.001 0h-0.624v-0.625c0 0 0-0 0 0v-4.375c0-0.345 0.28-0.625 0.625-0.625z"></path>
</svg>
