<!-- Generated by IcoMoon.io -->
<svg version="1.1" xmlns="http://www.w3.org/2000/svg" width="32" height="32" viewBox="0 0 32 32">
<title>arrows-in</title>
<path d="M5.707 3.983c-0.391-0.391-1.024-0.391-1.414 0s-0.391 1.024 0 1.414l5.293 5.293h-4.586c-0.552 0-1 0.448-1 1s0.448 1 1 1h8v-8c0-0.552-0.448-1-1-1s-1 0.448-1 1v4.586l-5.293-5.293z"></path>
<path d="M22.414 10.69l5.293-5.293c0.39-0.391 0.39-1.024 0-1.414s-1.024-0.391-1.414 0l-5.293 5.293v-4.586c0-0.552-0.448-1-1-1s-1 0.448-1 1v8h8c0.552 0 1-0.448 1-1s-0.448-1-1-1h-4.586z"></path>
<path d="M27 18.69c0.552 0 1 0.448 1 1s-0.448 1-1 1h-4.586l5.293 5.293c0.39 0.39 0.39 1.024 0 1.414s-1.024 0.39-1.414 0l-5.293-5.293v4.586c0 0.552-0.448 1-1 1s-1-0.448-1-1v-8h8z"></path>
<path d="M13 18.69v8c0 0.552-0.448 1-1 1s-1-0.448-1-1v-4.586l-5.293 5.293c-0.391 0.39-1.024 0.39-1.414 0s-0.391-1.024 0-1.414l5.293-5.293h-4.586c-0.552 0-1-0.448-1-1s0.448-1 1-1h8z"></path>
</svg>
