<!-- Generated by IcoMoon.io -->
<svg version="1.1" xmlns="http://www.w3.org/2000/svg" width="20" height="20" viewBox="0 0 20 20">
<title>at</title>
<path d="M2.5 10c0 4.155 3.345 7.5 7.5 7.5 2.070 0 3.919-0.861 5.318-2.201 0.249-0.239 0.645-0.23 0.884 0.019s0.23 0.645-0.019 0.884c-1.602 1.535-3.752 2.549-6.182 2.549-4.845 0-8.75-3.905-8.75-8.75s3.905-8.75 8.75-8.75c4.845 0 8.75 3.905 8.75 8.75 0 1.533-1.28 2.813-2.813 2.813-0.785 0-1.503-0.335-2.017-0.868-0.716 1.441-2.203 2.431-3.92 2.431-2.416 0-4.375-1.959-4.375-4.375s1.959-4.375 4.375-4.375c1.224 0 2.331 0.503 3.125 1.313v-0.688c0-0.345 0.28-0.625 0.625-0.625s0.625 0.28 0.625 0.625v3.75c0 0.842 0.72 1.563 1.563 1.563s1.563-0.72 1.563-1.563c0-4.155-3.345-7.5-7.5-7.5s-7.5 3.345-7.5 7.5zM13.125 10c0-1.726-1.399-3.125-3.125-3.125s-3.125 1.399-3.125 3.125c0 1.726 1.399 3.125 3.125 3.125s3.125-1.399 3.125-3.125z"></path>
</svg>
