<!-- Generated by IcoMoon.io -->
<svg version="1.1" xmlns="http://www.w3.org/2000/svg" width="20" height="20" viewBox="0 0 20 20">
<title>attachment</title>
<path d="M16.433 4.489c-1.818-1.818-4.798-1.818-6.616 0l-6.875 6.875c-1.131 1.131-1.131 2.985 0 4.116s2.985 1.131 4.116 0l6.875-6.875c0.443-0.443 0.443-1.173 0-1.616s-1.173-0.443-1.616 0l-6.25 6.25c-0.244 0.244-0.64 0.244-0.884 0s-0.244-0.64 0-0.884l6.25-6.25c0.932-0.932 2.452-0.932 3.384 0s0.932 2.452 0 3.384l-6.875 6.875c-1.619 1.619-4.265 1.619-5.884 0s-1.619-4.265 0-5.884l6.875-6.875c2.307-2.307 6.077-2.307 8.384 0s2.307 6.077 0 8.384l-6.25 6.25c-0.244 0.244-0.64 0.244-0.884 0s-0.244-0.64 0-0.884l6.25-6.25c1.818-1.818 1.818-4.798 0-6.616z"></path>
</svg>
