<!-- Generated by IcoMoon.io -->
<svg version="1.1" xmlns="http://www.w3.org/2000/svg" width="20" height="20" viewBox="0 0 20 20">
<title>autover</title>
<path d="M8.919 12.763l1.638-2.619c0.092-0.148 0.122-0.326 0.082-0.495s-0.144-0.316-0.292-0.408-0.326-0.122-0.495-0.082c-0.169 0.039-0.316 0.144-0.408 0.292l-1.081 1.731-1.081-1.731c-0.092-0.148-0.239-0.252-0.408-0.292s-0.347-0.010-0.495 0.082c-0.148 0.092-0.252 0.239-0.292 0.408s-0.010 0.347 0.082 0.495l1.638 2.619c0.052 0.102 0.132 0.188 0.23 0.248s0.211 0.092 0.326 0.092 0.228-0.032 0.326-0.092c0.098-0.060 0.178-0.146 0.23-0.248zM13.881 16.344h1.356c0.085 0.004 0.169-0.009 0.249-0.038s0.152-0.075 0.213-0.133c0.061-0.058 0.11-0.129 0.144-0.207s0.051-0.162 0.050-0.247v-9.194c0.004-0.087-0.009-0.175-0.041-0.256s-0.080-0.156-0.141-0.218c-0.062-0.062-0.136-0.11-0.218-0.141s-0.169-0.045-0.256-0.041h-1.362c-0.174 0-0.341 0.069-0.464 0.192s-0.192 0.29-0.192 0.464 0.069 0.341 0.192 0.464c0.123 0.123 0.29 0.192 0.464 0.192h0.706v7.856h-0.7c-0.173 0-0.339 0.069-0.462 0.191s-0.191 0.289-0.191 0.462c0 0.173 0.069 0.339 0.191 0.462s0.289 0.191 0.462 0.191zM11.306 15.037h-5.888v-7.856h5.888v7.856zM11.963 5.869h-7.2c-0.085-0-0.169 0.017-0.247 0.050s-0.148 0.082-0.207 0.144c-0.058 0.061-0.104 0.134-0.133 0.213s-0.043 0.164-0.038 0.249v9.169c0 0.166 0.066 0.325 0.183 0.442s0.276 0.183 0.442 0.183h7.2c0.085 0.004 0.169-0.009 0.249-0.038s0.152-0.075 0.213-0.133c0.061-0.058 0.11-0.129 0.144-0.207s0.051-0.162 0.050-0.247v-9.169c0.004-0.087-0.009-0.175-0.041-0.256s-0.080-0.156-0.141-0.218c-0.062-0.062-0.136-0.11-0.218-0.141s-0.169-0.045-0.256-0.041zM19.169 2.594v14.406c0 0.258-0.051 0.514-0.15 0.752s-0.244 0.455-0.427 0.637c-0.183 0.182-0.4 0.327-0.639 0.425s-0.495 0.148-0.753 0.148h-14.375c-0.258 0.001-0.514-0.049-0.753-0.148s-0.456-0.243-0.639-0.425c-0.183-0.182-0.328-0.399-0.427-0.637s-0.15-0.494-0.15-0.752v-11.781c-0-0.518 0.204-1.015 0.568-1.383s0.858-0.579 1.376-0.585h5.888c0.174 0 0.341 0.069 0.464 0.192s0.192 0.29 0.192 0.464c0 0.174-0.069 0.341-0.192 0.464s-0.29 0.192-0.464 0.192h-5.888c-0.085-0.004-0.169 0.009-0.249 0.038s-0.152 0.075-0.213 0.133c-0.061 0.058-0.11 0.129-0.144 0.207s-0.050 0.162-0.050 0.247v11.813c-0 0.085 0.017 0.169 0.050 0.247s0.082 0.148 0.144 0.207c0.061 0.058 0.134 0.104 0.213 0.133s0.164 0.043 0.249 0.038h14.375c0.085 0.004 0.169-0.009 0.249-0.038s0.152-0.075 0.213-0.133c0.061-0.058 0.11-0.129 0.144-0.207s0.051-0.162 0.050-0.247v-14.375c0-0.085-0.017-0.169-0.050-0.247s-0.082-0.148-0.144-0.207c-0.061-0.058-0.134-0.104-0.213-0.133s-0.164-0.043-0.249-0.038h-15.688c-0.174 0-0.341-0.069-0.464-0.192s-0.192-0.29-0.192-0.464c0-0.174 0.069-0.341 0.192-0.464s0.29-0.192 0.464-0.192h15.712c0.522 0 1.023 0.207 1.392 0.577s0.577 0.87 0.577 1.392v-0.062z"></path>
</svg>
