<!-- Generated by IcoMoon.io -->
<svg version="1.1" xmlns="http://www.w3.org/2000/svg" width="20" height="20" viewBox="0 0 20 20">
<title>award-alt</title>
<path d="M9.58 1.219l-1.127 1.025-1.426-0.356c-0.319-0.080-0.646 0.102-0.747 0.415l-0.464 1.444-1.444 0.464c-0.313 0.101-0.495 0.427-0.415 0.747l0.356 1.425-1.025 1.128c-0.217 0.238-0.217 0.602 0 0.841l1.025 1.127-0.356 1.426c-0.053 0.213 0.010 0.428 0.15 0.579l-2.086 3.637c-0.118 0.205-0.109 0.459 0.021 0.657s0.362 0.303 0.597 0.275l2.599-0.318 1.064 2.447c0.094 0.216 0.302 0.361 0.537 0.375s0.458-0.107 0.577-0.311l2.114-3.646 0.050 0.045c0.238 0.217 0.602 0.217 0.841 0l0.050-0.045 2.114 3.646c0.118 0.204 0.341 0.324 0.577 0.311s0.443-0.158 0.537-0.375l1.064-2.447 2.599 0.318c0.235 0.029 0.466-0.078 0.597-0.275s0.139-0.451 0.021-0.657l-2.086-3.637c0.14-0.15 0.203-0.366 0.15-0.579l-0.356-1.426 1.025-1.127c0.217-0.238 0.217-0.602 0-0.841l-1.025-1.128 0.356-1.425c0.080-0.319-0.102-0.646-0.415-0.747l-1.444-0.464-0.464-1.444c-0.101-0.313-0.427-0.495-0.747-0.415l-1.426 0.356-1.127-1.025c-0.238-0.217-0.602-0.217-0.841 0zM5.316 10.642c-0.002-0.001-0.003-0.002-0.005-0.003l0.295-1.181c0.051-0.203-0.003-0.417-0.144-0.572l-0.868-0.955 0.868-0.955c0.141-0.155 0.195-0.369 0.144-0.572l-0.296-1.182 1.193-0.383c0.192-0.062 0.342-0.212 0.404-0.404l0.383-1.193 1.182 0.296c0.203 0.051 0.417-0.003 0.572-0.144l0.955-0.868 0.955 0.868c0.155 0.141 0.369 0.195 0.572 0.144l1.182-0.296 0.383 1.193c0.062 0.192 0.212 0.342 0.404 0.404l1.193 0.383-0.296 1.182c-0.051 0.203 0.003 0.417 0.144 0.572l0.868 0.955-0.868 0.955c-0.141 0.155-0.195 0.369-0.144 0.572l0.295 1.181-0.005 0.003-1.188 0.382c-0.192 0.062-0.342 0.212-0.404 0.404l-0.383 1.193-1.182-0.296c-0.203-0.051-0.417 0.003-0.572 0.144l-0.955 0.868-0.955-0.868c-0.155-0.141-0.369-0.195-0.572-0.144l-1.182 0.296-0.383-1.193c-0.062-0.192-0.212-0.342-0.404-0.404l-1.188-0.382zM5.283 11.944l0.533 0.171 0.464 1.444c0.101 0.313 0.427 0.495 0.747 0.415l1.426-0.356 0.131 0.119-1.629 2.809-0.757-1.74c-0.11-0.254-0.374-0.405-0.649-0.371l-1.823 0.223 1.557-2.715zM16.274 14.659l-1.823-0.223c-0.275-0.034-0.539 0.117-0.649 0.371l-0.757 1.74-1.629-2.809 0.131-0.119 1.426 0.356c0.319 0.080 0.646-0.102 0.747-0.415l0.464-1.444 0.533-0.171 1.557 2.715z"></path>
</svg>
