<!-- Generated by IcoMoon.io -->
<svg version="1.1" xmlns="http://www.w3.org/2000/svg" width="20" height="20" viewBox="0 0 20 20">
<title>award</title>
<path d="M10 4.375c-1.726 0-3.125 1.399-3.125 3.125s1.399 3.125 3.125 3.125c1.726 0 3.125-1.399 3.125-3.125s-1.399-3.125-3.125-3.125zM8.125 7.5c0-1.036 0.839-1.875 1.875-1.875s1.875 0.839 1.875 1.875c0 1.036-0.839 1.875-1.875 1.875s-1.875-0.839-1.875-1.875z"></path>
<path d="M3.75 7.5c0-3.452 2.798-6.25 6.25-6.25s6.25 2.798 6.25 6.25c0 1.736-0.708 3.306-1.85 4.439l1.433 7.166-5.833-2.188-5.833 2.188 1.433-7.166c-1.142-1.133-1.85-2.703-1.85-4.439zM10 2.5c-2.761 0-5 2.239-5 5s2.239 5 5 5c2.761 0 5-2.239 5-5s-2.239-5-5-5zM6.701 12.809l-0.867 4.336 3.542-1.328v-2.098c-0.975-0.097-1.884-0.417-2.674-0.91zM14.167 17.145l-0.867-4.336c-0.791 0.492-1.7 0.813-2.674 0.91v2.098l3.542 1.328z"></path>
</svg>
