<!-- Generated by IcoMoon.io -->
<svg version="1.1" xmlns="http://www.w3.org/2000/svg" width="32" height="32" viewBox="0 0 32 32">
<title>bag</title>
<path d="M10 9h-1c-2.252 0-4 1.748-4 4v13c0 2.252 1.748 4 4 4h14c2.252 0 4-1.748 4-4v-13c0-2.252-1.748-4-4-4h-1v-1c0-3.352-2.648-6-6-6s-6 2.648-6 6v1zM12 8c0-2.248 1.752-4 4-4s4 1.752 4 4v1h-8v-1zM10 11v2c0 0.552 0.448 1 1 1s1-0.448 1-1v-2h8v2c0 0.552 0.448 1 1 1s1-0.448 1-1v-2h1c1.148 0 2 0.852 2 2v13c0 1.148-0.852 2-2 2h-14c-1.148 0-2-0.852-2-2v-13c0-1.148 0.852-2 2-2h1z"></path>
</svg>
