<!-- Generated by IcoMoon.io -->
<svg version="1.1" xmlns="http://www.w3.org/2000/svg" width="20" height="20" viewBox="0 0 20 20">
<title>bag</title>
<path d="M6.25 5.625h-0.625c-1.408 0-2.5 1.092-2.5 2.5v8.125c0 1.408 1.092 2.5 2.5 2.5h8.75c1.408 0 2.5-1.092 2.5-2.5v-8.125c0-1.408-1.092-2.5-2.5-2.5h-0.625v-0.625c0-2.095-1.655-3.75-3.75-3.75s-3.75 1.655-3.75 3.75v0.625zM7.5 5c0-1.405 1.095-2.5 2.5-2.5s2.5 1.095 2.5 2.5v0.625h-5v-0.625zM6.25 6.875v1.25c0 0.345 0.28 0.625 0.625 0.625s0.625-0.28 0.625-0.625v-1.25h5v1.25c0 0.345 0.28 0.625 0.625 0.625s0.625-0.28 0.625-0.625v-1.25h0.625c0.717 0 1.25 0.533 1.25 1.25v8.125c0 0.717-0.533 1.25-1.25 1.25h-8.75c-0.717 0-1.25-0.533-1.25-1.25v-8.125c0-0.717 0.533-1.25 1.25-1.25h0.625z"></path>
</svg>
