<!-- Generated by IcoMoon.io -->
<svg version="1.1" xmlns="http://www.w3.org/2000/svg" width="20" height="20" viewBox="0 0 20 20">
<title>balance</title>
<path d="M8.906 3.73c0.114 0.205 0.283 0.375 0.488 0.489-0.013 0.050-0.020 0.102-0.020 0.156v13.125h-2.5c-0.345 0-0.625 0.28-0.625 0.625s0.28 0.625 0.625 0.625h6.25c0.345 0 0.625-0.28 0.625-0.625s-0.28-0.625-0.625-0.625h-2.5v-13.125c0-0.054-0.007-0.106-0.020-0.156 0.205-0.114 0.375-0.283 0.488-0.489 0.050 0.013 0.102 0.020 0.156 0.020h2.622l-2.522 4.036c-0.063 0.098-0.1 0.214-0.1 0.339 0 2.095 1.655 3.75 3.75 3.75s3.749-1.654 3.75-3.748v-0.005c-0-0.114-0.032-0.228-0.095-0.329l-3.119-4.991c-0.018-0.030-0.039-0.058-0.061-0.085-0.021-0.024-0.043-0.046-0.066-0.066-0.109-0.095-0.252-0.152-0.408-0.152h-3.75c-0.054 0-0.106 0.007-0.156 0.020-0.213-0.384-0.623-0.645-1.094-0.645s-0.881 0.26-1.094 0.645c-0.050-0.013-0.102-0.020-0.156-0.020h-3.75c-0.157 0-0.3 0.058-0.41 0.153-0.022 0.019-0.043 0.041-0.063 0.063-0.023 0.027-0.044 0.056-0.063 0.086l-3.114 4.983c-0.063 0.098-0.1 0.214-0.1 0.339 0 2.095 1.655 3.75 3.75 3.75s3.749-1.654 3.75-3.748v-0.005c-0-0.114-0.032-0.228-0.095-0.329l-2.527-4.044h2.622c0.054 0 0.106-0.007 0.156-0.020zM2.575 8.75h4.849c-0.27 1.092-1.237 1.875-2.425 1.875s-2.155-0.783-2.425-1.875zM6.997 7.5h-3.995l1.997-3.196 1.997 3.196zM15 10.625c-1.188 0-2.155-0.783-2.425-1.875h4.849c-0.27 1.092-1.237 1.875-2.425 1.875zM13.003 7.5l1.997-3.196 1.997 3.196h-3.995z"></path>
</svg>
