<!-- Generated by IcoMoon.io -->
<svg version="1.1" xmlns="http://www.w3.org/2000/svg" width="20" height="20" viewBox="0 0 20 20">
<title>bank</title>
<path d="M10.375 1.375l7.5 5.625c0.215 0.161 0.303 0.442 0.218 0.698s-0.324 0.427-0.593 0.427h-1.875v6.25h1.25c0.345 0 0.625 0.28 0.625 0.625s-0.28 0.625-0.625 0.625h-13.75c-0.345 0-0.625-0.28-0.625-0.625s0.28-0.625 0.625-0.625h1.25v-6.25h-2.5c-0.273 0-0.515-0.178-0.597-0.439s0.016-0.545 0.241-0.7l8.125-5.625c0.221-0.153 0.516-0.148 0.731 0.014zM15.625 6.875l-5.64-4.23-6.11 4.23h11.749zM14.375 8.125h-1.25v6.25h1.25v-6.25zM11.875 8.125h-1.25v6.25h1.25v-6.25zM8.125 14.375h1.25v-6.25h-1.25v6.25zM6.875 8.125h-1.25v6.25h1.25v-6.25z"></path>
<path d="M1.25 17.5c0-0.345 0.28-0.625 0.625-0.625h16.25c0.345 0 0.625 0.28 0.625 0.625s-0.28 0.625-0.625 0.625h-16.25c-0.345 0-0.625-0.28-0.625-0.625z"></path>
</svg>
