<!-- Generated by IcoMoon.io -->
<svg version="1.1" xmlns="http://www.w3.org/2000/svg" width="20" height="20" viewBox="0 0 20 20">
<title>barrier-up</title>
<path d="M4.375 14.514c0-0.345 0.28-0.625 0.625-0.625h2.5c0.345 0 0.625 0.28 0.625 0.625s-0.28 0.625-0.625 0.625h-2.5c-0.345 0-0.625-0.28-0.625-0.625z"></path>
<path d="M9.369 5.474c-0.363-0.216-0.789-0.335-1.244-0.335h-3.75c-1.408 0-2.5 1.092-2.5 2.5v9.375c-0.345 0-0.625 0.28-0.625 0.625s0.28 0.625 0.625 0.625h8.75c0.345 0 0.625-0.28 0.625-0.625s-0.28-0.625-0.625-0.625v-7.79l5.259-3.966c0.812-0.631 1.027-1.77 0.36-2.627-0.631-0.811-1.766-1.026-2.623-0.363l-0.459 0.346c-0.026 0.017-0.050 0.035-0.074 0.055l-2.86 2.157c-0.073 0.036-0.139 0.085-0.194 0.146l-0.665 0.501zM14.384 3.257c0.268-0.208 0.629-0.173 0.873 0.14 0.207 0.267 0.173 0.627-0.137 0.87l-1.288 0.972 0.251-1.755 0.302-0.228zM12.667 4.552l-0.251 1.755-1.587 1.197 0.251-1.755 1.587-1.197zM8.155 6.389l-1.671 1.261c-0.077-0.007-0.155-0.011-0.234-0.011-1.381 0-2.5 1.119-2.5 2.5s1.119 2.5 2.5 2.5c1.194 0 2.192-0.837 2.441-1.956l0.684-0.516v6.847h-6.25v-9.375c0-0.717 0.533-1.25 1.25-1.25h3.75c0.010 0 0.020 0 0.030 0zM9.659 6.821c0.002-0.001 0.004-0.002 0.005-0.003l-0.251 1.753-0.843 0.636c-0.159-0.396-0.416-0.741-0.741-1.007l1.83-1.38zM6.363 8.894c0.087 0.040 0.183 0.060 0.278 0.057 0.499 0.164 0.859 0.634 0.859 1.188 0 0.69-0.56 1.25-1.25 1.25s-1.25-0.56-1.25-1.25c0-0.69 0.56-1.25 1.25-1.25 0.038 0 0.076 0.002 0.113 0.005z"></path>
</svg>
