<!-- Generated by IcoMoon.io -->
<svg version="1.1" xmlns="http://www.w3.org/2000/svg" width="20" height="20" viewBox="0 0 20 20">
<title>barrier-down</title>
<path d="M5 12.5c-0.345 0-0.625 0.28-0.625 0.625s0.28 0.625 0.625 0.625h2.5c0.345 0 0.625-0.28 0.625-0.625s-0.28-0.625-0.625-0.625h-2.5z"></path>
<path d="M10.625 10.625v5c0.345 0 0.625 0.28 0.625 0.625s-0.28 0.625-0.625 0.625h-8.75c-0.345 0-0.625-0.28-0.625-0.625s0.28-0.625 0.625-0.625v-9.375c0-1.408 1.092-2.5 2.5-2.5h3.75c1.408 0 2.5 1.092 2.5 2.5v0.625h6.25c1.033 0 1.875 0.842 1.875 1.875s-0.842 1.875-1.875 1.875h-6.25zM4.375 5c-0.717 0-1.25 0.533-1.25 1.25v9.375h6.25v-5h-1.471c-0.441 0.389-1.020 0.625-1.654 0.625-1.381 0-2.5-1.119-2.5-2.5s1.119-2.5 2.5-2.5c0.634 0 1.213 0.236 1.654 0.625h1.471v-0.625c0-0.717-0.533-1.25-1.25-1.25h-3.75zM11.509 9.375h1.982l1.25-1.25h-1.982l-1.25 1.25zM10.991 8.125h-2.32c0.051 0.2 0.079 0.409 0.079 0.625s-0.027 0.425-0.079 0.625h1.070l1.25-1.25zM6.25 7.5c-0.69 0-1.25 0.56-1.25 1.25s0.56 1.25 1.25 1.25c0.324 0 0.619-0.123 0.841-0.326 0.042-0.068 0.096-0.127 0.159-0.175 0.157-0.209 0.25-0.468 0.25-0.75s-0.093-0.541-0.25-0.75c-0.063-0.048-0.117-0.107-0.159-0.175-0.222-0.202-0.517-0.326-0.841-0.326zM15.259 9.375h1.616c0.342 0 0.625-0.283 0.625-0.625s-0.283-0.625-0.625-0.625h-0.366l-1.25 1.25z"></path>
</svg>
