<!-- Generated by IcoMoon.io -->
<svg version="1.1" xmlns="http://www.w3.org/2000/svg" width="32" height="32" viewBox="0 0 32 32">
<title>barrier-down</title>
<path d="M8 20c-0.552 0-1 0.448-1 1s0.448 1 1 1h4c0.552 0 1-0.448 1-1s-0.448-1-1-1h-4z"></path>
<path d="M17 17v8c0.552 0 1 0.448 1 1s-0.448 1-1 1h-14c-0.552 0-1-0.448-1-1s0.448-1 1-1v-15c0-2.252 1.748-4 4-4h6c2.252 0 4 1.748 4 4v1h10c1.652 0 3 1.348 3 3s-1.348 3-3 3h-10zM7 8c-1.148 0-2 0.852-2 2v15h10v-8h-2.354c-0.705 0.622-1.631 1-2.646 1-2.209 0-4-1.791-4-4s1.791-4 4-4c1.014 0 1.941 0.378 2.646 1h2.354v-1c0-1.148-0.852-2-2-2h-6zM18.414 15h3.172l2-2h-3.172l-2 2zM17.586 13h-3.712c0.082 0.32 0.126 0.655 0.126 1s-0.044 0.68-0.126 1h1.712l2-2zM10 12c-1.105 0-2 0.895-2 2s0.895 2 2 2c0.518 0 0.991-0.197 1.346-0.521 0.066-0.108 0.153-0.203 0.254-0.28 0.251-0.334 0.4-0.749 0.4-1.2s-0.149-0.865-0.4-1.2c-0.101-0.076-0.188-0.171-0.254-0.28-0.355-0.324-0.828-0.521-1.346-0.521zM24.414 15h2.586c0.548 0 1-0.452 1-1s-0.452-1-1-1h-0.586l-2 2z"></path>
</svg>
