<!-- Generated by IcoMoon.io -->
<svg version="1.1" xmlns="http://www.w3.org/2000/svg" width="20" height="20" viewBox="0 0 20 20">
<title>bathroom</title>
<path d="M5.625 2.5c-0.717 0-1.25 0.533-1.25 1.25v5.625h14.568l-1.721 6.309c-0.306 0.995-1.14 1.733-2.222 1.81v0.632c0 0.345-0.28 0.625-0.625 0.625s-0.625-0.28-0.625-0.625v-0.625h-7.5v0.625c0 0.345-0.28 0.625-0.625 0.625s-0.625-0.28-0.625-0.625v-0.632c-1.082-0.077-1.916-0.815-2.222-1.81l-0.003-0.010-1.718-6.299h2.068v-5.625c0-1.408 1.092-2.5 2.5-2.5h1.875c1.408 0 2.5 1.092 2.5 2.5h1.25c0.345 0 0.625 0.28 0.625 0.625s-0.28 0.625-0.625 0.625h-3.75c-0.345 0-0.625-0.28-0.625-0.625s0.28-0.625 0.625-0.625h1.25c0-0.717-0.533-1.25-1.25-1.25h-1.875zM14.813 16.25c0.574 0 1.034-0.357 1.212-0.925l1.282-4.7h-14.613l1.282 4.7c0.178 0.568 0.638 0.925 1.212 0.925h9.625z"></path>
<path d="M8.125 6.875c0.345 0 0.625-0.28 0.625-0.625s-0.28-0.625-0.625-0.625c-0.345 0-0.625 0.28-0.625 0.625s0.28 0.625 0.625 0.625z"></path>
<path d="M11.25 6.25c0 0.345-0.28 0.625-0.625 0.625s-0.625-0.28-0.625-0.625c0-0.345 0.28-0.625 0.625-0.625s0.625 0.28 0.625 0.625z"></path>
<path d="M8.125 8.75c0.345 0 0.625-0.28 0.625-0.625s-0.28-0.625-0.625-0.625c-0.345 0-0.625 0.28-0.625 0.625s0.28 0.625 0.625 0.625z"></path>
<path d="M11.25 8.125c0 0.345-0.28 0.625-0.625 0.625s-0.625-0.28-0.625-0.625c0-0.345 0.28-0.625 0.625-0.625s0.625 0.28 0.625 0.625z"></path>
</svg>
