<!-- Generated by IcoMoon.io -->
<svg version="1.1" xmlns="http://www.w3.org/2000/svg" width="20" height="20" viewBox="0 0 20 20">
<title>battery-empty</title>
<path d="M3.75 5.625c-1.408 0-2.5 1.092-2.5 2.5v3.75c0 1.408 1.092 2.5 2.5 2.5h8.75c1.408 0 2.5-1.092 2.5-2.5v-3.75c0-1.408-1.092-2.5-2.5-2.5h-8.75zM2.5 8.125c0-0.717 0.533-1.25 1.25-1.25h8.75c0.717 0 1.25 0.533 1.25 1.25v3.75c0 0.717-0.533 1.25-1.25 1.25h-8.75c-0.717 0-1.25-0.533-1.25-1.25v-3.75z"></path>
<path d="M16.875 8.125h-0.625v3.75h0.625c1.033 0 1.875-0.842 1.875-1.875s-0.842-1.875-1.875-1.875z"></path>
</svg>
