<!-- Generated by IcoMoon.io -->
<svg version="1.1" xmlns="http://www.w3.org/2000/svg" width="20" height="20" viewBox="0 0 20 20">
<title>battery-charging</title>
<path d="M8.668 5.935c0.171-0.3 0.067-0.681-0.233-0.853s-0.681-0.067-0.853 0.233l-3.034 5.31h5l-1.966 3.44c-0.171 0.3-0.067 0.682 0.233 0.853s0.681 0.067 0.853-0.233l3.034-5.31h-5l1.966-3.44z"></path>
<path d="M16.875 8.125h-0.625v3.75h0.625c1.033 0 1.875-0.842 1.875-1.875s-0.842-1.875-1.875-1.875z"></path>
<path d="M10 6.25c0-0.345 0.28-0.625 0.625-0.625h1.875c1.408 0 2.5 1.092 2.5 2.5v3.75c0 1.408-1.092 2.5-2.5 2.5h-1.25c-0.345 0-0.625-0.28-0.625-0.625s0.28-0.625 0.625-0.625h1.25c0.717 0 1.25-0.533 1.25-1.25v-3.75c0-0.717-0.533-1.25-1.25-1.25h-1.875c-0.345 0-0.625-0.28-0.625-0.625z"></path>
<path d="M2.5 8.125c0-0.717 0.533-1.25 1.25-1.25h1.25c0.345 0 0.625-0.28 0.625-0.625s-0.28-0.625-0.625-0.625h-1.25c-1.408 0-2.5 1.092-2.5 2.5v3.75c0 1.408 1.092 2.5 2.5 2.5h1.875c0.345 0 0.625-0.28 0.625-0.625s-0.28-0.625-0.625-0.625h-1.875c-0.717 0-1.25-0.533-1.25-1.25v-3.75z"></path>
</svg>
