<!-- Generated by IcoMoon.io -->
<svg version="1.1" xmlns="http://www.w3.org/2000/svg" width="32" height="32" viewBox="0 0 32 32">
<title>bed-double</title>
<path d="M27 5v8.12c1.749 0.43 3 1.975 3 3.88v8h-2v1c0 0.552-0.448 1-1 1s-1-0.448-1-1v-1h-20v1c0 0.552-0.448 1-1 1s-1-0.448-1-1v-1h-2v-8c0-1.905 1.251-3.45 3-3.88v-8.12h22zM17 23h11v-3h-11v3zM15 20h-11v3h11v-3zM28 18v-1c0-1.148-0.852-2-2-2h-20c-1.148 0-2 0.852-2 2v1h24zM17 13v-4h6v4h2v-6h-18v6h2v-4h6v4h2zM19 13h2v-2h-2v2zM11 11v2h2v-2h-2z"></path>
</svg>
