<!-- Generated by IcoMoon.io -->
<svg version="1.1" xmlns="http://www.w3.org/2000/svg" width="32" height="32" viewBox="0 0 32 32">
<title>bed-single</title>
<path d="M27 5h-22v8.12c-1.749 0.43-3 1.975-3 3.88v8h2v1c0 0.552 0.448 1 1 1s1-0.448 1-1v-1h20v1c0 0.552 0.448 1 1 1s1-0.448 1-1v-1h2v-8c0-1.905-1.251-3.45-3-3.88v-8.12zM28 18h-24v-1c0-1.148 0.852-2 2-2h20c1.148 0 2 0.852 2 2v1zM4 20h24v3h-24v-3zM25 13h-3c0-2.252-1.748-4-4-4h-4c-2.252 0-4 1.748-4 4h-3v-6h18v6zM14 11h4c1.148 0 2 0.852 2 2h-8c0-1.148 0.852-2 2-2z"></path>
</svg>
