<!-- Generated by IcoMoon.io -->
<svg version="1.1" xmlns="http://www.w3.org/2000/svg" width="20" height="20" viewBox="0 0 20 20">
<title>bed-single</title>
<path d="M16.875 3.125h-13.75v5.075c-1.093 0.269-1.875 1.234-1.875 2.425v5h1.25v0.625c0 0.345 0.28 0.625 0.625 0.625s0.625-0.28 0.625-0.625v-0.625h12.5v0.625c0 0.345 0.28 0.625 0.625 0.625s0.625-0.28 0.625-0.625v-0.625h1.25v-5c0-1.191-0.782-2.156-1.875-2.425v-5.075zM17.5 11.25h-15v-0.625c0-0.717 0.533-1.25 1.25-1.25h12.5c0.717 0 1.25 0.533 1.25 1.25v0.625zM2.5 12.5h15v1.875h-15v-1.875zM15.625 8.125h-1.875c0-1.408-1.092-2.5-2.5-2.5h-2.5c-1.408 0-2.5 1.092-2.5 2.5h-1.875v-3.75h11.25v3.75zM8.75 6.875h2.5c0.717 0 1.25 0.533 1.25 1.25h-5c0-0.717 0.533-1.25 1.25-1.25z"></path>
</svg>
