<!-- Generated by IcoMoon.io -->
<svg version="1.1" xmlns="http://www.w3.org/2000/svg" width="20" height="20" viewBox="0 0 20 20">
<title>bed-double</title>
<path d="M16.875 3.125v5.075c1.093 0.269 1.875 1.234 1.875 2.425v5h-1.25v0.625c0 0.345-0.28 0.625-0.625 0.625s-0.625-0.28-0.625-0.625v-0.625h-12.5v0.625c0 0.345-0.28 0.625-0.625 0.625s-0.625-0.28-0.625-0.625v-0.625h-1.25v-5c0-1.191 0.782-2.156 1.875-2.425v-5.075h13.75zM10.625 14.375h6.875v-1.875h-6.875v1.875zM9.375 12.5h-6.875v1.875h6.875v-1.875zM17.5 11.25v-0.625c0-0.717-0.533-1.25-1.25-1.25h-12.5c-0.717 0-1.25 0.533-1.25 1.25v0.625h15zM10.625 8.125v-2.5h3.75v2.5h1.25v-3.75h-11.25v3.75h1.25v-2.5h3.75v2.5h1.25zM11.875 8.125h1.25v-1.25h-1.25v1.25zM6.875 6.875v1.25h1.25v-1.25h-1.25z"></path>
</svg>
