<!-- Generated by IcoMoon.io -->
<svg version="1.1" xmlns="http://www.w3.org/2000/svg" width="32" height="32" viewBox="0 0 32 32">
<title>beer</title>
<path d="M14 16c0-0.552-0.448-1-1-1s-1 0.448-1 1v8c0 0.552 0.448 1 1 1s1-0.448 1-1v-8z"></path>
<path d="M9 15c0.552 0 1 0.448 1 1v8c0 0.552-0.448 1-1 1s-1-0.448-1-1v-8c0-0.552 0.448-1 1-1z"></path>
<path d="M18 16c0-0.552-0.448-1-1-1s-1 0.448-1 1v8c0 0.552 0.448 1 1 1s1-0.448 1-1v-8z"></path>
<path d="M2 7c0-2.752 2.248-5 5-5 1.098 0 2.156 0.342 3 0.997 0.844-0.655 1.902-0.997 3-0.997s2.156 0.342 3 0.997c0.844-0.655 1.902-0.997 3-0.997 2.752 0 5 2.248 5 5 0 1.060-0.333 2.044-0.9 2.855v0.145h2.9c2.252 0 4 1.748 4 4v3.2c0 2.252-1.748 4-4 4h-2.9v4c0 2.686-2.282 4.8-4.9 4.8h-10.3c-2.735 0-4.9-2.131-4.9-4.8v-15.207c-0.627-0.836-1-1.872-1-2.993zM4.869 9.105c0.545 0.552 1.301 0.895 2.131 0.895 0.923 0 1.719-0.382 2.211-1.014l0.744-0.957 0.798 0.912c0.538 0.615 1.375 1.059 2.247 1.059 0.923 0 1.719-0.382 2.211-1.014l0.744-0.957 0.798 0.912c0.538 0.615 1.375 1.059 2.247 1.059 1.648 0 3-1.352 3-3s-1.352-3-3-3c-0.923 0-1.719 0.381-2.211 1.014l-0.789 1.015-0.789-1.015c-0.492-0.632-1.287-1.014-2.211-1.014s-1.719 0.381-2.211 1.014l-0.789 1.015-0.789-1.015c-0.492-0.632-1.288-1.014-2.211-1.014-1.648 0-3 1.352-3 3 0 0.678 0.229 1.305 0.613 1.81 0.103 0.080 0.191 0.181 0.256 0.295zM5 11.581v13.619c0 1.531 1.235 2.8 2.9 2.8h10.3c1.582 0 2.9-1.286 2.9-2.8v-4.564c-0.064-0.132-0.1-0.28-0.1-0.436s0.036-0.305 0.1-0.436v-8.228c-0.639 0.298-1.351 0.464-2.1 0.464-1.125 0-2.16-0.41-2.972-1.019-0.848 0.67-1.918 1.019-3.028 1.019-1.125 0-2.16-0.41-2.972-1.019-0.848 0.67-1.918 1.019-3.028 1.019-0.71 0-1.387-0.15-2-0.419zM23.1 12v7.2h2.9c1.148 0 2-0.852 2-2v-3.2c0-1.148-0.852-2-2-2h-2.9z"></path>
</svg>
