<!-- Generated by IcoMoon.io -->
<svg version="1.1" xmlns="http://www.w3.org/2000/svg" width="20" height="20" viewBox="0 0 20 20">
<title>beer</title>
<path d="M8.75 10c0-0.345-0.28-0.625-0.625-0.625s-0.625 0.28-0.625 0.625v5c0 0.345 0.28 0.625 0.625 0.625s0.625-0.28 0.625-0.625v-5z"></path>
<path d="M5.625 9.375c0.345 0 0.625 0.28 0.625 0.625v5c0 0.345-0.28 0.625-0.625 0.625s-0.625-0.28-0.625-0.625v-5c0-0.345 0.28-0.625 0.625-0.625z"></path>
<path d="M11.25 10c0-0.345-0.28-0.625-0.625-0.625s-0.625 0.28-0.625 0.625v5c0 0.345 0.28 0.625 0.625 0.625s0.625-0.28 0.625-0.625v-5z"></path>
<path d="M1.25 4.375c0-1.72 1.405-3.125 3.125-3.125 0.686 0 1.348 0.214 1.875 0.623 0.527-0.41 1.189-0.623 1.875-0.623s1.348 0.214 1.875 0.623c0.527-0.41 1.189-0.623 1.875-0.623 1.72 0 3.125 1.405 3.125 3.125 0 0.662-0.208 1.278-0.563 1.784v0.091h1.813c1.408 0 2.5 1.092 2.5 2.5v2c0 1.408-1.092 2.5-2.5 2.5h-1.813v2.5c0 1.679-1.426 3-3.062 3h-6.438c-1.71 0-3.063-1.332-3.063-3v-9.504c-0.392-0.522-0.625-1.17-0.625-1.871zM3.043 5.69c0.341 0.345 0.813 0.56 1.332 0.56 0.577 0 1.074-0.238 1.382-0.634l0.465-0.598 0.499 0.57c0.336 0.384 0.86 0.662 1.405 0.662 0.577 0 1.074-0.238 1.382-0.634l0.465-0.598 0.499 0.57c0.336 0.384 0.86 0.662 1.405 0.662 1.030 0 1.875-0.845 1.875-1.875s-0.845-1.875-1.875-1.875c-0.577 0-1.074 0.238-1.382 0.634l-0.493 0.634-0.493-0.634c-0.307-0.395-0.805-0.634-1.382-0.634s-1.074 0.238-1.382 0.634l-0.493 0.634-0.493-0.634c-0.307-0.395-0.805-0.634-1.382-0.634-1.030 0-1.875 0.845-1.875 1.875 0 0.424 0.143 0.816 0.383 1.131 0.065 0.050 0.119 0.113 0.16 0.184zM3.125 7.238v8.512c0 0.957 0.772 1.75 1.813 1.75h6.438c0.989 0 1.812-0.804 1.812-1.75v-2.852c-0.040-0.082-0.063-0.175-0.063-0.273s0.022-0.19 0.063-0.273v-5.143c-0.399 0.186-0.844 0.29-1.313 0.29-0.703 0-1.35-0.256-1.858-0.637-0.53 0.419-1.199 0.637-1.893 0.637-0.703 0-1.35-0.256-1.857-0.637-0.53 0.419-1.199 0.637-1.893 0.637-0.444 0-0.867-0.094-1.25-0.262zM14.438 7.5v4.5h1.813c0.717 0 1.25-0.533 1.25-1.25v-2c0-0.717-0.533-1.25-1.25-1.25h-1.813z"></path>
</svg>
