<!-- Generated by IcoMoon.io -->
<svg version="1.1" xmlns="http://www.w3.org/2000/svg" width="32" height="32" viewBox="0 0 32 32">
<title>bell</title>
<path d="M16.565 3.019c-5.184-0.338-9.565 3.827-9.565 8.998v4c0 1.648-1.352 3-3 3h-1v5h26v-5h-1c-1.648 0-3-1.352-3-3v-3.7c0-4.784-3.566-8.958-8.43-9.298l-0.005-0zM9 12.017c0-4.028 3.417-7.263 7.433-7.002 3.735 0.262 6.567 3.487 6.567 7.302v3.7c0 2.41 1.724 4.433 4 4.899v1.101h-22v-1.101c2.277-0.466 4-2.489 4-4.899v-4z"></path>
<path d="M13 25.017v1c0 1.652 1.348 3 3 3s3-1.348 3-3v-1h-6z"></path>
</svg>
