<!-- Generated by IcoMoon.io -->
<svg version="1.1" xmlns="http://www.w3.org/2000/svg" width="20" height="20" viewBox="0 0 20 20">
<title>bell</title>
<path d="M10.353 1.887c-3.24-0.211-5.978 2.392-5.978 5.624v2.5c0 1.030-0.845 1.875-1.875 1.875h-0.625v3.125h16.25v-3.125h-0.625c-1.030 0-1.875-0.845-1.875-1.875v-2.313c0-2.99-2.229-5.599-5.269-5.811l-0.003-0zM5.625 7.511c0-2.518 2.136-4.539 4.645-4.376 2.334 0.164 4.105 2.179 4.105 4.564v2.313c0 1.506 1.077 2.771 2.5 3.062v0.688h-13.75v-0.688c1.423-0.291 2.5-1.556 2.5-3.062v-2.5z"></path>
<path d="M8.125 15.636v0.625c0 1.033 0.842 1.875 1.875 1.875s1.875-0.842 1.875-1.875v-0.625h-3.75z"></path>
</svg>
