<!-- Generated by IcoMoon.io -->
<svg version="1.1" xmlns="http://www.w3.org/2000/svg" width="20" height="20" viewBox="0 0 20 20">
<title>bell-alt</title>
<path d="M10.625 1.875c0-0.345-0.28-0.625-0.625-0.625s-0.625 0.28-0.625 0.625v0.66c-2.804 0.313-5 2.706-5 5.59v5.366l-1.692 1.692c-0.179 0.179-0.232 0.448-0.135 0.681s0.325 0.386 0.577 0.386h3.813c0.291 1.423 1.556 2.5 3.062 2.5s2.771-1.077 3.062-2.5h3.813c0.253 0 0.481-0.152 0.577-0.386s0.043-0.502-0.136-0.681l-1.692-1.692v-5.366c0-2.884-2.196-5.277-5-5.59v-0.66zM10 17.5c-0.811 0-1.508-0.524-1.767-1.25h3.534c-0.259 0.726-0.956 1.25-1.767 1.25zM15.366 15h-10.732l0.808-0.808c0.117-0.117 0.183-0.276 0.183-0.442v-5.625c0-2.405 1.97-4.375 4.375-4.375s4.375 1.97 4.375 4.375v5.625c0 0.166 0.066 0.325 0.183 0.442l0.808 0.808z"></path>
</svg>
