<!-- Generated by IcoMoon.io -->
<svg version="1.1" xmlns="http://www.w3.org/2000/svg" width="32" height="32" viewBox="0 0 32 32">
<title>bicycle</title>
<path d="M26 5c0-0.552-0.448-1-1-1s-1 0.448-1 1c0 1.148-0.852 2-2 2h-2c-0.34 0-0.657 0.173-0.841 0.459s-0.21 0.646-0.070 0.955l0.776 1.706-7.249 0.806-0.398-0.925h0.781c0.552 0 1-0.448 1-1s-0.448-1-1-1h-2.278c-0.015-0-0.030-0-0.045 0h-1.677c-0.552 0-1 0.448-1 1s0.448 1 1 1h1.041l0.811 1.886-1.227 1.717c-0.793-0.387-1.684-0.604-2.626-0.604-3.314 0-6 2.686-6 6s2.686 6 6 6c2.973 0 5.441-2.162 5.917-5h2.061c0.134 0.003 0.27-0.021 0.402-0.075 0.009-0.004 0.019-0.008 0.028-0.012 0.166-0.074 0.303-0.189 0.403-0.327l5.204-6.938 0.627 1.38c-1.594 1.079-2.641 2.903-2.641 4.973 0 3.314 2.686 6 6 6s6-2.686 6-6c0-3.314-2.686-6-6-6-0.532 0-1.047 0.069-1.538 0.199l-1.909-4.199h0.447c2.252 0 4-1.748 4-4zM15.236 17.018l-1.794-4.172 5.371-0.597-3.577 4.769zM11.776 14.034l1.705 3.966h-0.565c-0.21-1.252-0.807-2.372-1.665-3.233l0.524-0.733zM10.065 16.43c0.378 0.45 0.658 0.984 0.809 1.57h-1.931l1.122-1.57zM8.438 15.266l-2.252 3.153c-0.218 0.305-0.247 0.706-0.075 1.039s0.515 0.542 0.889 0.542h3.874c-0.444 1.725-2.010 3-3.874 3-2.209 0-4-1.791-4-4s1.791-4 4-4c0.507 0 0.992 0.094 1.438 0.266zM21 19c0-1.257 0.58-2.379 1.487-3.112l1.603 3.526c0.229 0.503 0.821 0.725 1.324 0.497s0.725-0.821 0.497-1.324l-1.603-3.527c0.225-0.039 0.456-0.060 0.693-0.060 2.209 0 4 1.791 4 4s-1.791 4-4 4c-2.209 0-4-1.791-4-4z"></path>
</svg>
