<!-- Generated by IcoMoon.io -->
<svg version="1.1" xmlns="http://www.w3.org/2000/svg" width="20" height="20" viewBox="0 0 20 20">
<title>bicycle</title>
<path d="M16.25 3.125c0-0.345-0.28-0.625-0.625-0.625s-0.625 0.28-0.625 0.625c0 0.717-0.533 1.25-1.25 1.25h-1.25c-0.213 0-0.41 0.108-0.526 0.287s-0.131 0.404-0.043 0.597l0.485 1.066-4.531 0.503-0.249-0.578h0.488c0.345 0 0.625-0.28 0.625-0.625s-0.28-0.625-0.625-0.625h-1.424c-0.009-0-0.019-0-0.028 0h-1.048c-0.345 0-0.625 0.28-0.625 0.625s0.28 0.625 0.625 0.625h0.651l0.507 1.179-0.767 1.073c-0.496-0.242-1.053-0.377-1.641-0.377-2.071 0-3.75 1.679-3.75 3.75s1.679 3.75 3.75 3.75c1.858 0 3.401-1.351 3.698-3.125h1.288c0.084 0.002 0.169-0.013 0.251-0.047 0.006-0.002 0.012-0.005 0.018-0.008 0.104-0.046 0.189-0.118 0.252-0.204l3.252-4.336 0.392 0.862c-0.996 0.674-1.651 1.815-1.651 3.108 0 2.071 1.679 3.75 3.75 3.75s3.75-1.679 3.75-3.75c0-2.071-1.679-3.75-3.75-3.75-0.332 0-0.655 0.043-0.961 0.124l-1.193-2.624h0.279c1.408 0 2.5-1.092 2.5-2.5zM9.523 10.636l-1.121-2.608 3.357-0.373-2.236 2.981zM7.36 8.771l1.066 2.479h-0.353c-0.131-0.782-0.505-1.482-1.040-2.021l0.327-0.458zM6.291 10.268c0.236 0.281 0.411 0.615 0.506 0.982h-1.207l0.701-0.982zM5.274 9.541l-1.407 1.97c-0.136 0.191-0.154 0.441-0.047 0.649s0.322 0.339 0.556 0.339h2.421c-0.278 1.078-1.256 1.875-2.421 1.875-1.381 0-2.5-1.119-2.5-2.5s1.119-2.5 2.5-2.5c0.317 0 0.62 0.059 0.899 0.166zM13.125 11.875c0-0.786 0.362-1.487 0.929-1.945l1.002 2.204c0.143 0.314 0.513 0.453 0.828 0.31s0.453-0.513 0.31-0.828l-1.002-2.204c0.141-0.024 0.285-0.037 0.433-0.037 1.381 0 2.5 1.119 2.5 2.5s-1.119 2.5-2.5 2.5c-1.381 0-2.5-1.119-2.5-2.5z"></path>
</svg>
