<!-- Generated by IcoMoon.io -->
<svg version="1.1" xmlns="http://www.w3.org/2000/svg" width="20" height="20" viewBox="0 0 20 20">
<title>bills</title>
<path d="M12.058 1.433c0.244-0.244 0.64-0.244 0.884 0l5.763 5.763-2.084 2.004c-0.249 0.239-0.644 0.232-0.884-0.017s-0.232-0.644 0.017-0.884l1.166-1.121-4.42-4.42-3.311 3.311c0.052 0.009 0.104 0.018 0.156 0.029 0.932 0.192 1.894 0.728 2.713 1.512l0.005 0.005 0.034 0.034c0.227 0.227 0.479 0.478 0.65 0.82 0.154 0.309 0.029 0.684-0.279 0.838s-0.684 0.029-0.838-0.279c-0.071-0.142-0.178-0.258-0.441-0.52-0.68-0.65-1.435-1.050-2.095-1.186-0.661-0.136-1.156-0.001-1.462 0.306l-0.154 0.154c-0.177 0.217-0.268 0.52-0.229 0.905 0.034 0.343-0.216 0.65-0.56 0.684-0.223 0.022-0.431-0.076-0.558-0.242l-0.062 0.062c-0.244 0.244-0.64 0.244-0.884 0s-0.244-0.64 0-0.884l1.37-1.37c0.064-0.073 0.133-0.142 0.208-0.208l5.297-5.297z"></path>
<path d="M4.375 13.125c0.345 0 0.625 0.28 0.625 0.625v0.625c0 0.345-0.28 0.625-0.625 0.625s-0.625-0.28-0.625-0.625v-0.625c0-0.345 0.28-0.625 0.625-0.625z"></path>
<path d="M15 13.75c0-0.345-0.28-0.625-0.625-0.625s-0.625 0.28-0.625 0.625v0.625c0 0.345 0.28 0.625 0.625 0.625s0.625-0.28 0.625-0.625v-0.625z"></path>
<path d="M1.25 10v8.75h16.25v-8.75h-16.25zM7.175 11.25c-0.030 0.042-0.059 0.084-0.088 0.127-0.53 0.795-0.837 1.857-0.837 2.998s0.307 2.204 0.837 2.998c0.029 0.043 0.058 0.085 0.088 0.127h-4.675v-6.25h4.675zM9.375 17.5c-0.416 0-0.87-0.253-1.248-0.82-0.375-0.563-0.627-1.376-0.627-2.305s0.252-1.742 0.627-2.305c0.378-0.567 0.831-0.82 1.248-0.82s0.87 0.253 1.248 0.82c0.375 0.562 0.627 1.376 0.627 2.305s-0.252 1.742-0.627 2.305c-0.378 0.567-0.831 0.82-1.248 0.82zM11.575 17.5c0.030-0.042 0.059-0.084 0.088-0.127 0.53-0.795 0.837-1.857 0.837-2.998s-0.307-2.204-0.837-2.998c-0.029-0.043-0.058-0.085-0.088-0.127h4.675v6.25h-4.675z"></path>
<path d="M13.379 5.433c-0.244-0.244-0.64-0.244-0.884 0s-0.244 0.64 0 0.884l0.437 0.438c0.244 0.244 0.64 0.244 0.884 0s0.244-0.64 0-0.884l-0.438-0.438z"></path>
</svg>
