<!-- Generated by IcoMoon.io -->
<svg version="1.1" xmlns="http://www.w3.org/2000/svg" width="20" height="20" viewBox="0 0 20 20">
<title>bill</title>
<path d="M3.75 8.75c0.345 0 0.625 0.28 0.625 0.625v0.625c0 0.345-0.28 0.625-0.625 0.625s-0.625-0.28-0.625-0.625v-0.625c0-0.345 0.28-0.625 0.625-0.625z"></path>
<path d="M16.875 9.375c0-0.345-0.28-0.625-0.625-0.625s-0.625 0.28-0.625 0.625v0.625c0 0.345 0.28 0.625 0.625 0.625s0.625-0.28 0.625-0.625v-0.625z"></path>
<path d="M0.625 5v10h18.75v-10h-18.75zM7.102 6.25c-0.917 0.932-1.477 2.291-1.477 3.75s0.56 2.818 1.477 3.75h-5.227v-7.5h5.227zM10 13.75c-1.639 0-3.125-1.585-3.125-3.75s1.486-3.75 3.125-3.75c1.639 0 3.125 1.585 3.125 3.75s-1.486 3.75-3.125 3.75zM12.898 13.75c0.917-0.932 1.477-2.291 1.477-3.75s-0.56-2.818-1.477-3.75h5.227v7.5h-5.227z"></path>
</svg>
