<!-- Generated by IcoMoon.io -->
<svg version="1.1" xmlns="http://www.w3.org/2000/svg" width="20" height="20" viewBox="0 0 20 20">
<title>bin</title>
<path d="M8.125 1.25h3.75c1.408 0 2.5 1.092 2.5 2.5v0.625h3.125c0.345 0 0.625 0.28 0.625 0.625s-0.28 0.625-0.625 0.625h-1.25v10.625c0 1.408-1.092 2.5-2.5 2.5h-7.5c-1.408 0-2.5-1.092-2.5-2.5v-10.625h-1.25c-0.345 0-0.625-0.28-0.625-0.625s0.28-0.625 0.625-0.625h3.125v-0.625c0-1.408 1.092-2.5 2.5-2.5zM13.125 4.375v-0.625c0-0.717-0.533-1.25-1.25-1.25h-3.75c-0.717 0-1.25 0.533-1.25 1.25v0.625h6.25zM5 5.625v10.625c0 0.717 0.533 1.25 1.25 1.25h7.5c0.717 0 1.25-0.533 1.25-1.25v-10.625h-10z"></path>
</svg>
