<!-- Generated by IcoMoon.io -->
<svg version="1.1" xmlns="http://www.w3.org/2000/svg" width="20" height="20" viewBox="0 0 20 20">
<title>bitbucket</title>
<path d="M9.637 0.638h0.856l0.85 0.038c0.364 0.011 0.727 0.040 1.087 0.087 0.356 0.038 0.625 0.069 0.956 0.125 0.419 0.063 0.837 0.144 1.25 0.244 0.593 0.134 1.173 0.322 1.731 0.563h-0.063c0.349 0.146 0.679 0.335 0.981 0.562 0.211 0.147 0.39 0.337 0.525 0.556 0.104 0.153 0.158 0.334 0.156 0.519 0.003 0.042 0.003 0.083 0 0.125l-0.1 0.625c-0.069 0.488-0.144 0.975-0.225 1.45-0.094 0.581-0.194 1.156-0.281 1.731s-0.225 1.294-0.344 1.919c-0.119 0.625-0.231 1.344-0.344 2.012-0.037 0.232-0.139 0.448-0.294 0.625-0.064 0.079-0.133 0.154-0.206 0.225-0.293 0.252-0.619 0.462-0.969 0.625-0.508 0.264-1.042 0.473-1.594 0.625h-0.056c-0.64 0.176-1.295 0.293-1.956 0.35h-0.044c-0.35 0.031-0.706 0.056-1.050 0.069h-0.575c-0.627-0.001-1.253-0.043-1.875-0.125h0.069c-0.412-0.056-0.825-0.125-1.25-0.212-0.584-0.126-1.153-0.31-1.7-0.55h0.056c-0.586-0.224-1.118-0.569-1.563-1.012-0.135-0.142-0.232-0.316-0.281-0.506l-0.263-1.037c-0.069-0.375-0.15-0.881-0.219-1.325s-0.15-0.838-0.219-1.288c-0.069-0.45-0.106-0.731-0.187-1.1s-0.1-0.737-0.163-1.125l-0.163-1c-0.056-0.337-0.1-0.625-0.144-1.012v-0.3c0.022-0.149 0.075-0.292 0.156-0.419 0.133-0.197 0.3-0.368 0.494-0.506 0.328-0.24 0.688-0.433 1.069-0.575 0.487-0.203 0.988-0.368 1.5-0.494h0.075c0.431-0.106 0.863-0.188 1.288-0.256l0.625-0.081 0.625-0.063 0.406-0.031 0.625-0.044h0.794l-0.050-0.013zM9.969 1.888c-0.478-0.008-0.955 0.008-1.431 0.050-0.475 0.056-0.763 0.056-1.15 0.106s-0.625 0.087-1.013 0.163c-0.324 0.064-0.642 0.156-0.95 0.275h0.038c-0.127 0.048-0.247 0.113-0.356 0.194-0.066 0.043-0.123 0.098-0.169 0.162-0.024 0.027-0.041 0.059-0.050 0.094 0 0.054 0.018 0.107 0.050 0.15 0.006 0.048 0.028 0.092 0.063 0.125 0.065 0.051 0.134 0.097 0.206 0.137 0.197 0.11 0.407 0.196 0.625 0.256 0.515 0.148 1.042 0.251 1.575 0.306h0.094c0.306 0 0.625 0.063 0.931 0.081s0.625 0.038 0.981 0.044c0.75 0 1.506 0 2.244-0.050l0.744-0.062 0.887-0.131c0.343-0.050 0.682-0.128 1.013-0.231h-0.050c0.21-0.054 0.409-0.145 0.588-0.269 0.062-0.041 0.116-0.092 0.162-0.15 0.050-0.057 0.076-0.131 0.075-0.206-0.008-0.059-0.034-0.114-0.075-0.156-0.051-0.053-0.105-0.103-0.162-0.15-0.127-0.091-0.266-0.165-0.413-0.219-0.405-0.148-0.824-0.255-1.25-0.319h-0.050c-0.313-0.050-0.625-0.088-0.956-0.119s-0.8-0.069-1.2-0.088c-0.4-0.019-0.625 0-0.963 0l-0.037 0.006zM7.5 9.5c0.006 0.18 0.025 0.36 0.056 0.537 0.106 0.574 0.414 1.090 0.869 1.456 0.335 0.275 0.739 0.452 1.169 0.513 0.134 0.020 0.27 0.031 0.406 0.031 0.459-0.001 0.909-0.129 1.301-0.37s0.709-0.584 0.918-0.993c0.179-0.331 0.275-0.699 0.281-1.075v-0.075c0.002-0.181-0.019-0.362-0.063-0.538-0.065-0.361-0.211-0.702-0.428-0.997s-0.498-0.538-0.822-0.709c-0.368-0.186-0.776-0.276-1.188-0.263h-0.319c-0.377 0.030-0.742 0.15-1.063 0.35-0.36 0.223-0.657 0.534-0.863 0.904s-0.316 0.785-0.318 1.209l0.063 0.019zM10.688 18.925c0.396-0.011 0.791-0.052 1.181-0.125 0.459-0.073 0.912-0.18 1.356-0.319h-0.069c0.404-0.118 0.794-0.279 1.162-0.481 0.244-0.139 0.467-0.311 0.662-0.512 0.163-0.157 0.287-0.349 0.362-0.563 0.011-0.082 0.028-0.164 0.050-0.244 0.094-0.531 0.188-1.063 0.294-1.6s0.181-0.931 0.263-1.4c0.003-0.012 0.003-0.025 0-0.037 0-0.042-0.015-0.082-0.043-0.113s-0.066-0.051-0.107-0.056h-0.050c-0.076 0-0.151 0.024-0.213 0.069l-0.4 0.294c-0.589 0.348-1.219 0.623-1.875 0.819h-0.063c-0.647 0.202-1.313 0.336-1.988 0.4h-0.044c-0.288 0-0.625 0.050-0.95 0.056h-0.625c-0.237 0.009-0.474-0.010-0.706-0.056-0.336-0.028-0.67-0.078-1-0.15h0.063c-0.734-0.141-1.449-0.365-2.131-0.669h0.062c-0.441-0.197-0.86-0.44-1.25-0.725-0.084-0.023-0.172-0.025-0.256-0.006h-0.063c-0.064-0.001-0.125 0.022-0.174 0.063s-0.080 0.099-0.089 0.162c-0.003 0.033-0.003 0.067 0 0.1-0.006 0.035-0.006 0.071 0 0.106l0.325 1.544c0.062 0.369 0.131 0.731 0.2 1.087-0.008 0.111 0.009 0.222 0.050 0.325 0.066 0.239 0.196 0.455 0.375 0.625 0.203 0.202 0.435 0.372 0.687 0.506 0.396 0.217 0.815 0.387 1.25 0.506h0.044c0.613 0.172 1.241 0.289 1.875 0.35h0.044c0.363 0.038 0.725 0.050 1.081 0.056h0.7l0.006-0.012zM11.25 9.35c-0.009-0.332-0.15-0.646-0.39-0.874s-0.562-0.351-0.894-0.342-0.646 0.15-0.874 0.39c-0.228 0.241-0.351 0.562-0.342 0.894-0.003 0.025-0.003 0.050 0 0.075 0.009 0.332 0.15 0.646 0.39 0.874s0.562 0.351 0.894 0.342 0.646-0.15 0.874-0.39c0.228-0.241 0.351-0.562 0.342-0.894 0 0 0-0.044 0-0.069v-0.006z"></path>
</svg>
