<!-- Generated by IcoMoon.io -->
<svg version="1.1" xmlns="http://www.w3.org/2000/svg" width="32" height="32" viewBox="0 0 32 32">
<title>bitpoke</title>
<path d="M28.12 15.74l-12.12-12.12-5.31 5.28 6.060 6c0.193 0.198 0.301 0.463 0.301 0.74s-0.108 0.542-0.301 0.74l-6.060 6.14 5.31 5.33 12.12-12.11zM10.31 20.020l4.23-4.28-4.23-4.29v8.57zM30.31 16.5l-13.56 13.56c-0.198 0.193-0.463 0.301-0.74 0.301s-0.542-0.108-0.74-0.301l-6.84-6.84c-0.152-0.184-0.239-0.412-0.25-0.65v-13.67c0.002-0.276 0.109-0.541 0.3-0.74l6.84-6.84c0.199-0.191 0.464-0.298 0.74-0.3 0.276 0.004 0.54 0.111 0.74 0.3l13.54 13.67c0.187 0.203 0.291 0.469 0.291 0.745s-0.104 0.542-0.291 0.745l-0.030 0.020zM6.56 13.080l-2.66 2.66 2.66 2.65c0.172 0.135 0.296 0.322 0.351 0.534s0.040 0.436-0.044 0.638c-0.084 0.202-0.232 0.371-0.421 0.481s-0.409 0.155-0.626 0.128c-0.276-0.001-0.541-0.108-0.74-0.3l-3.41-3.42c-0.098-0.096-0.175-0.211-0.227-0.339s-0.076-0.264-0.073-0.401c-0.001-0.277 0.106-0.542 0.3-0.74l3.41-3.42c0.1-0.103 0.22-0.185 0.352-0.242s0.274-0.087 0.418-0.088c0.135-0.007 0.271 0.014 0.398 0.061s0.243 0.12 0.342 0.213c0.098 0.094 0.176 0.206 0.23 0.331s0.081 0.259 0.081 0.395c0.003 0.145-0.026 0.29-0.085 0.422s-0.146 0.252-0.255 0.348v0.090z"></path>
</svg>
