<!-- Generated by IcoMoon.io -->
<svg version="1.1" xmlns="http://www.w3.org/2000/svg" width="20" height="20" viewBox="0 0 20 20">
<title>bitpoke</title>
<path d="M17.575 9.838l-7.575-7.575-3.319 3.3 3.787 3.75c0.121 0.124 0.188 0.29 0.188 0.463s-0.068 0.339-0.188 0.462l-3.787 3.838 3.319 3.331 7.575-7.569zM6.444 12.512l2.644-2.675-2.644-2.681v5.356zM18.944 10.313l-8.475 8.475c-0.124 0.121-0.29 0.188-0.462 0.188s-0.339-0.068-0.463-0.188l-4.275-4.275c-0.095-0.115-0.15-0.257-0.156-0.406v-8.544c0.001-0.172 0.068-0.338 0.188-0.463l4.275-4.275c0.125-0.119 0.29-0.186 0.463-0.188 0.172 0.002 0.337 0.069 0.462 0.188l8.462 8.544c0.117 0.127 0.182 0.293 0.182 0.466s-0.065 0.339-0.182 0.466l-0.019 0.012zM4.1 8.175l-1.663 1.662 1.663 1.656c0.108 0.084 0.185 0.202 0.22 0.334s0.025 0.272-0.027 0.398c-0.053 0.126-0.145 0.232-0.263 0.301s-0.256 0.097-0.391 0.080c-0.173-0-0.338-0.068-0.463-0.188l-2.131-2.138c-0.061-0.060-0.11-0.132-0.142-0.212s-0.048-0.165-0.046-0.251c-0.001-0.173 0.067-0.339 0.188-0.463l2.131-2.137c0.063-0.064 0.137-0.116 0.22-0.151s0.171-0.054 0.261-0.055c0.085-0.004 0.169 0.009 0.249 0.038s0.152 0.075 0.213 0.133c0.061 0.058 0.11 0.129 0.144 0.207s0.050 0.162 0.050 0.247c0.002 0.091-0.016 0.181-0.053 0.264s-0.091 0.157-0.159 0.217v0.056z"></path>
</svg>
