<!-- Generated by IcoMoon.io -->
<svg version="1.1" xmlns="http://www.w3.org/2000/svg" width="20" height="20" viewBox="0 0 20 20">
<title>book-open</title>
<path d="M8.125 3.125c0.756 0 1.421 0.315 1.875 0.825 0.454-0.51 1.119-0.825 1.875-0.825h6.875v13.75h-6.875c-0.717 0-1.25 0.533-1.25 1.25 0 0.345-0.28 0.625-0.625 0.625s-0.625-0.28-0.625-0.625c0-0.717-0.533-1.25-1.25-1.25h-6.875v-13.75h6.875zM9.375 5.625c0-0.717-0.533-1.25-1.25-1.25h-5.625v11.25h5.625c0.459 0 0.885 0.116 1.25 0.322v-10.322zM10.625 5.625v10.322c0.365-0.206 0.791-0.322 1.25-0.322h5.625v-11.25h-5.625c-0.717 0-1.25 0.533-1.25 1.25z"></path>
</svg>
