<!-- Generated by IcoMoon.io -->
<svg version="1.1" xmlns="http://www.w3.org/2000/svg" width="20" height="20" viewBox="0 0 20 20">
<title>bricks</title>
<path d="M11.866 0.625l-1.411 1.411-0.676-0.676-4.419 4.419 4.452 4.452h-0.062c-0.72 0-1.313 0.592-1.313 1.313v0.625h-2.438v-0.688c0-0.72-0.592-1.313-1.312-1.313h-1.313c-0.72 0-1.313 0.592-1.313 1.313v0.688h-0.938v6.25h12.25v-4.625l1.089 1.089 4.419-4.419-0.755-0.755 1.402-1.402-2.74-2.74-1.402 1.402-2.194-2.194 1.411-1.411-2.74-2.74zM11.062 11.482l0 0.688h-1.375v-0.625c0-0.011 0.004-0.027 0.020-0.042s0.032-0.020 0.042-0.020h1.312zM9.064 13.419h3.061v3.75h-9.75v-3.75h6.686c0 0 0.001 0 0.001 0s0.001 0 0.001 0zM14.505 7.853l-0.013 0.013 2.611 2.611-2.639 2.639-7.336-7.336 2.648-2.648 2.532 2.532 0.003-0.003 2.194 2.194zM17.245 8.826l-0.972-0.972 0.518-0.518 0.972 0.972-0.518 0.518zM12.838 3.365l-0.527 0.527-0.972-0.972 0.527-0.527 0.972 0.972zM4.75 11.482v0.688h-1.438v-0.688c0-0.011 0.004-0.027 0.020-0.042s0.032-0.020 0.042-0.020h1.313c0.011 0 0.027 0.004 0.042 0.020s0.020 0.032 0.020 0.042z"></path>
</svg>
