<!-- Generated by IcoMoon.io -->
<svg version="1.1" xmlns="http://www.w3.org/2000/svg" width="20" height="20" viewBox="0 0 20 20">
<title>bucket</title>
<path d="M11.25 1.25c0.345 0 0.625 0.28 0.625 0.625v2.866l6.509 6.509h-4.396l-5.435 4.831c-0.981 0.966-2.562 0.993-3.504-0.023l-2.991-2.991c-0.979-0.979-1.012-2.571 0.009-3.518l7.308-7.308 1.25 1.25v-1.616c0-0.345 0.28-0.625 0.625-0.625zM10.625 5.259l-1.25-1.25-6.453 6.452c-0.469 0.429-0.497 1.205 0.020 1.722l3.019 3.020c0.43 0.469 1.205 0.497 1.722-0.020l0.013-0.013 5.816-5.17h1.854l-3.491-3.491v1.616c0 0.345-0.28 0.625-0.625 0.625s-0.625-0.28-0.625-0.625v-2.866z"></path>
<path d="M15.887 13.168l0.426-0.397 0.451 0.42c0.015 0.014 0.036 0.034 0.062 0.060 0.053 0.051 0.128 0.125 0.217 0.217 0.178 0.182 0.417 0.437 0.657 0.728 0.239 0.288 0.49 0.624 0.685 0.967 0.186 0.326 0.365 0.735 0.365 1.151 0 1.345-1.092 2.438-2.438 2.438s-2.437-1.092-2.437-2.438c0-0.415 0.179-0.824 0.365-1.151 0.195-0.343 0.446-0.679 0.685-0.967 0.241-0.29 0.479-0.546 0.657-0.728 0.089-0.091 0.164-0.165 0.217-0.217 0.027-0.026 0.048-0.046 0.062-0.060l0.017-0.017 0.005-0.005 0.002-0.002zM16.313 13.625l-0.426-0.457c0 0 0 0 0.426 0.457zM16.313 14.512c-0.131 0.139-0.278 0.303-0.425 0.48-0.214 0.259-0.416 0.532-0.561 0.787-0.154 0.271-0.202 0.448-0.202 0.533 0 0.655 0.533 1.188 1.187 1.188s1.188-0.533 1.188-1.188c0-0.085-0.047-0.262-0.202-0.533-0.145-0.255-0.347-0.528-0.561-0.787-0.147-0.177-0.294-0.341-0.425-0.48z"></path>
</svg>
