<!-- Generated by IcoMoon.io -->
<svg version="1.1" xmlns="http://www.w3.org/2000/svg" width="20" height="20" viewBox="0 0 20 20">
<title>bug</title>
<path d="M7.5 1.875c0 1.030 0.845 1.875 1.875 1.875h1.25c1.030 0 1.875-0.845 1.875-1.875 0-0.345 0.28-0.625 0.625-0.625s0.625 0.28 0.625 0.625c0 1.006-0.481 1.905-1.224 2.477 1.639 0.83 2.823 2.439 3.057 4.333 1.114-0.255 1.917-1.231 1.917-2.435 0-0.345 0.28-0.625 0.625-0.625s0.625 0.28 0.625 0.625c0 1.882-1.335 3.408-3.125 3.7v1.3h2.5c0.345 0 0.625 0.28 0.625 0.625s-0.28 0.625-0.625 0.625h-2.5v1.3c1.79 0.291 3.125 1.818 3.125 3.7 0 0.345-0.28 0.625-0.625 0.625s-0.625-0.28-0.625-0.625c0-1.208-0.809-2.187-1.929-2.438-0.332 2.084-2.147 3.688-4.321 3.688h-2.5c-2.174 0-3.989-1.604-4.321-3.688-1.12 0.251-1.929 1.23-1.929 2.438 0 0.345-0.28 0.625-0.625 0.625s-0.625-0.28-0.625-0.625c0-1.882 1.335-3.408 3.125-3.7v-1.3h-2.5c-0.345 0-0.625-0.28-0.625-0.625s0.28-0.625 0.625-0.625h2.5v-1.3c-1.79-0.291-3.125-1.818-3.125-3.7 0-0.345 0.28-0.625 0.625-0.625s0.625 0.28 0.625 0.625c0 1.203 0.804 2.18 1.917 2.435 0.234-1.894 1.418-3.503 3.057-4.333-0.743-0.572-1.224-1.471-1.224-2.477 0-0.345 0.28-0.625 0.625-0.625s0.625 0.28 0.625 0.625zM14.375 10h-3.75v7.5h0.625c1.717 0 3.125-1.408 3.125-3.125v-4.375zM9.375 17.5v-7.5h-3.75v4.375c0 1.717 1.408 3.125 3.125 3.125h0.625zM5.67 8.75h8.66c-0.306-2.112-2.137-3.75-4.33-3.75s-4.024 1.638-4.33 3.75z"></path>
</svg>
