<!-- Generated by IcoMoon.io -->
<svg version="1.1" xmlns="http://www.w3.org/2000/svg" width="20" height="20" viewBox="0 0 20 20">
<title>bus-mini</title>
<path d="M13.125 5.625c0.345 0 0.625 0.28 0.625 0.625v2.5h1.25c0.345 0 0.625 0.28 0.625 0.625s-0.28 0.625-0.625 0.625h-2.5v-3.75c0-0.345 0.28-0.625 0.625-0.625z"></path>
<path d="M10 6.25c0-0.345-0.28-0.625-0.625-0.625s-0.625 0.28-0.625 0.625v3.75h2.5c0.345 0 0.625-0.28 0.625-0.625s-0.28-0.625-0.625-0.625h-1.25v-2.5z"></path>
<path d="M5.625 5.625c0.345 0 0.625 0.28 0.625 0.625v2.5h1.25c0.345 0 0.625 0.28 0.625 0.625s-0.28 0.625-0.625 0.625h-2.5v-3.75c0-0.345 0.28-0.625 0.625-0.625z"></path>
<path d="M3.125 8.75c-0.345 0-0.625 0.28-0.625 0.625s0.28 0.625 0.625 0.625h0.625c0.345 0 0.625-0.28 0.625-0.625s-0.28-0.625-0.625-0.625h-0.625z"></path>
<path d="M11.954 14.375c0.278 1.078 1.256 1.875 2.421 1.875s2.144-0.797 2.421-1.875h0.079c1.381 0 2.5-1.119 2.5-2.5v-1.149c0-1.076-0.689-2.031-1.709-2.372l-0.366-0.122-1.842-3.223c-0.445-0.779-1.273-1.26-2.171-1.26h-10.162c-1.381 0-2.5 1.119-2.5 2.5v8.125h0.704c0.278 1.078 1.256 1.875 2.421 1.875 0.747 0 1.417-0.327 1.875-0.846 0.458 0.519 1.128 0.846 1.875 0.846 1.165 0 2.144-0.797 2.421-1.875h2.033zM1.875 6.25c0-0.69 0.56-1.25 1.25-1.25h10.162c0.449 0 0.863 0.24 1.085 0.63l2.079 3.638 0.819 0.273c0.51 0.17 0.855 0.648 0.855 1.186v1.149c0 0.69-0.56 1.25-1.25 1.25h-0.079c-0.278-1.078-1.256-1.875-2.421-1.875s-2.144 0.797-2.421 1.875h-2.033c-0.278-1.078-1.256-1.875-2.421-1.875-0.747 0-1.417 0.327-1.875 0.846-0.458-0.519-1.128-0.846-1.875-0.846s-1.417 0.327-1.875 0.846v-5.846zM7.5 15c-0.69 0-1.25-0.56-1.25-1.25s0.56-1.25 1.25-1.25c0.69 0 1.25 0.56 1.25 1.25s-0.56 1.25-1.25 1.25zM3.75 12.5c0.69 0 1.25 0.56 1.25 1.25s-0.56 1.25-1.25 1.25c-0.69 0-1.25-0.56-1.25-1.25s0.56-1.25 1.25-1.25zM13.125 13.75c0-0.69 0.56-1.25 1.25-1.25s1.25 0.56 1.25 1.25c0 0.69-0.56 1.25-1.25 1.25s-1.25-0.56-1.25-1.25z"></path>
</svg>
