<!-- Generated by IcoMoon.io -->
<svg version="1.1" xmlns="http://www.w3.org/2000/svg" width="32" height="32" viewBox="0 0 32 32">
<title>bus-small</title>
<path d="M23 9c0.552 0 1 0.448 1 1v4h3c0.552 0 1 0.448 1 1s-0.448 1-1 1h-5v-6c0-0.552 0.448-1 1-1z"></path>
<path d="M18 10c0-0.552-0.448-1-1-1s-1 0.448-1 1v6h4c0.552 0 1-0.448 1-1s-0.448-1-1-1h-2v-4z"></path>
<path d="M11 9c0.552 0 1 0.448 1 1v4h2c0.552 0 1 0.448 1 1s-0.448 1-1 1h-4v-6c0-0.552 0.448-1 1-1z"></path>
<path d="M6 10c0-0.552-0.448-1-1-1s-1 0.448-1 1v6h4c0.552 0 1-0.448 1-1s-0.448-1-1-1h-2v-4z"></path>
<path d="M26.874 23c-0.444 1.725-2.010 3-3.874 3s-3.43-1.275-3.874-3h-9.252c-0.444 1.725-2.010 3-3.874 3s-3.43-1.275-3.874-3h-1.126v-13c0-2.209 1.791-4 4-4h20.757c1.061 0 2.078 0.421 2.828 1.172l1.243 1.243c0.75 0.75 1.172 1.768 1.172 2.828v7.757c0 2.209-1.791 4-4 4h-0.126zM5 8c-1.105 0-2 0.895-2 2v9.354c0.733-0.83 1.805-1.354 3-1.354 1.864 0 3.43 1.275 3.874 3h9.252c0.444-1.725 2.010-3 3.874-3s3.43 1.275 3.874 3h0.126c1.105 0 2-0.895 2-2v-7.757c0-0.53-0.211-1.039-0.586-1.414l-1.243-1.243c-0.375-0.375-0.884-0.586-1.414-0.586h-20.757zM6 20c-1.105 0-2 0.895-2 2s0.895 2 2 2c1.105 0 2-0.895 2-2s-0.895-2-2-2zM21 22c0 1.105 0.895 2 2 2s2-0.895 2-2c0-1.105-0.895-2-2-2s-2 0.895-2 2z"></path>
</svg>
