<!-- Generated by IcoMoon.io -->
<svg version="1.1" xmlns="http://www.w3.org/2000/svg" width="32" height="32" viewBox="0 0 32 32">
<title>bus-mini</title>
<path d="M21 9c0.552 0 1 0.448 1 1v4h2c0.552 0 1 0.448 1 1s-0.448 1-1 1h-4v-6c0-0.552 0.448-1 1-1z"></path>
<path d="M16 10c0-0.552-0.448-1-1-1s-1 0.448-1 1v6h4c0.552 0 1-0.448 1-1s-0.448-1-1-1h-2v-4z"></path>
<path d="M9 9c0.552 0 1 0.448 1 1v4h2c0.552 0 1 0.448 1 1s-0.448 1-1 1h-4v-6c0-0.552 0.448-1 1-1z"></path>
<path d="M5 14c-0.552 0-1 0.448-1 1s0.448 1 1 1h1c0.552 0 1-0.448 1-1s-0.448-1-1-1h-1z"></path>
<path d="M19.126 23c0.444 1.725 2.010 3 3.874 3s3.43-1.275 3.874-3h0.126c2.209 0 4-1.791 4-4v-1.838c0-1.722-1.102-3.25-2.735-3.795l-0.586-0.195-2.947-5.157c-0.712-1.246-2.038-2.015-3.473-2.015h-16.259c-2.209 0-4 1.791-4 4v13h1.126c0.444 1.725 2.010 3 3.874 3 1.195 0 2.267-0.524 3-1.354 0.733 0.83 1.805 1.354 3 1.354 1.864 0 3.43-1.275 3.874-3h3.252zM3 10c0-1.105 0.895-2 2-2h16.259c0.718 0 1.38 0.385 1.736 1.008l3.326 5.82 1.311 0.437c0.817 0.272 1.367 1.036 1.367 1.897v1.838c0 1.105-0.895 2-2 2h-0.126c-0.444-1.725-2.010-3-3.874-3s-3.43 1.275-3.874 3h-3.252c-0.444-1.725-2.010-3-3.874-3-1.195 0-2.267 0.524-3 1.354-0.733-0.83-1.805-1.354-3-1.354s-2.267 0.524-3 1.354v-9.354zM12 24c-1.105 0-2-0.895-2-2s0.895-2 2-2c1.105 0 2 0.895 2 2s-0.895 2-2 2zM6 20c1.105 0 2 0.895 2 2s-0.895 2-2 2c-1.105 0-2-0.895-2-2s0.895-2 2-2zM21 22c0-1.105 0.895-2 2-2s2 0.895 2 2c0 1.105-0.895 2-2 2s-2-0.895-2-2z"></path>
</svg>
