<!-- Generated by IcoMoon.io -->
<svg version="1.1" xmlns="http://www.w3.org/2000/svg" width="20" height="20" viewBox="0 0 20 20">
<title>bus</title>
<path d="M14.375 5.625c0.345 0 0.625 0.28 0.625 0.625v2.5h1.875c0.345 0 0.625 0.28 0.625 0.625s-0.28 0.625-0.625 0.625h-3.125v-3.75c0-0.345 0.28-0.625 0.625-0.625z"></path>
<path d="M11.25 6.25c0-0.345-0.28-0.625-0.625-0.625s-0.625 0.28-0.625 0.625v3.75h2.5c0.345 0 0.625-0.28 0.625-0.625s-0.28-0.625-0.625-0.625h-1.25v-2.5z"></path>
<path d="M6.875 5.625c0.345 0 0.625 0.28 0.625 0.625v2.5h1.25c0.345 0 0.625 0.28 0.625 0.625s-0.28 0.625-0.625 0.625h-2.5v-3.75c0-0.345 0.28-0.625 0.625-0.625z"></path>
<path d="M3.75 6.25c0-0.345-0.28-0.625-0.625-0.625s-0.625 0.28-0.625 0.625v3.75h2.5c0.345 0 0.625-0.28 0.625-0.625s-0.28-0.625-0.625-0.625h-1.25v-2.5z"></path>
<path d="M11.954 14.375c0.278 1.078 1.256 1.875 2.421 1.875s2.144-0.797 2.421-1.875h0.079c1.381 0 2.5-1.119 2.5-2.5v-4.848c0-0.663-0.263-1.299-0.732-1.768l-0.777-0.777c-0.469-0.469-1.105-0.732-1.768-0.732h-12.973c-1.381 0-2.5 1.119-2.5 2.5v8.125h0.704c0.278 1.078 1.256 1.875 2.421 1.875 0.747 0 1.417-0.327 1.875-0.846 0.458 0.519 1.128 0.846 1.875 0.846 1.165 0 2.144-0.797 2.421-1.875h2.033zM1.875 6.25c0-0.69 0.56-1.25 1.25-1.25h12.973c0.332 0 0.649 0.132 0.884 0.366l0.777 0.777c0.234 0.234 0.366 0.552 0.366 0.884v4.848c0 0.69-0.56 1.25-1.25 1.25h-0.079c-0.278-1.078-1.256-1.875-2.421-1.875s-2.144 0.797-2.421 1.875h-2.033c-0.278-1.078-1.256-1.875-2.421-1.875-0.747 0-1.417 0.327-1.875 0.846-0.458-0.519-1.128-0.846-1.875-0.846s-1.417 0.327-1.875 0.846v-5.846zM3.75 12.5c0.69 0 1.25 0.56 1.25 1.25s-0.56 1.25-1.25 1.25c-0.69 0-1.25-0.56-1.25-1.25s0.56-1.25 1.25-1.25zM7.5 15c-0.69 0-1.25-0.56-1.25-1.25s0.56-1.25 1.25-1.25c0.69 0 1.25 0.56 1.25 1.25s-0.56 1.25-1.25 1.25zM13.125 13.75c0-0.69 0.56-1.25 1.25-1.25s1.25 0.56 1.25 1.25c0 0.69-0.56 1.25-1.25 1.25s-1.25-0.56-1.25-1.25z"></path>
</svg>
