<!-- Generated by IcoMoon.io -->
<svg version="1.1" xmlns="http://www.w3.org/2000/svg" width="20" height="20" viewBox="0 0 20 20">
<title>cache</title>
<path d="M12.317 8.567c0.244-0.244 0.244-0.64 0-0.884s-0.64-0.244-0.884 0l-4.817 4.817h3.75l-2.683 2.683c-0.244 0.244-0.244 0.64 0 0.884s0.64 0.244 0.884 0l4.817-4.817h-3.75l2.683-2.683z"></path>
<path d="M4.105 1.854c-0.761 0.187-1.421 0.42-1.906 0.702-0.44 0.256-0.949 0.68-0.949 1.319v12.188c0 0.635 0.497 1.067 0.94 1.333 0.484 0.291 1.144 0.532 1.905 0.726 1.532 0.391 3.618 0.629 5.905 0.629s4.371-0.238 5.902-0.62c0.76-0.19 1.418-0.424 1.9-0.703 0.431-0.249 0.949-0.668 0.949-1.302v-12.25c0-0.638-0.509-1.062-0.949-1.319-0.485-0.282-1.145-0.515-1.906-0.702-1.532-0.377-3.616-0.604-5.895-0.604s-4.363 0.227-5.895 0.604zM2.518 3.875c0.032-0.041 0.114-0.124 0.31-0.238 0.337-0.196 0.867-0.394 1.576-0.569 1.409-0.347 3.387-0.568 5.596-0.568s4.187 0.221 5.596 0.568c0.709 0.175 1.239 0.373 1.576 0.569 0.196 0.114 0.278 0.197 0.31 0.238-0.032 0.041-0.114 0.124-0.31 0.238-0.337 0.196-0.867 0.394-1.576 0.569-1.409 0.347-3.387 0.568-5.596 0.568s-4.187-0.221-5.596-0.568c-0.709-0.175-1.239-0.373-1.576-0.569-0.196-0.114-0.278-0.197-0.31-0.238zM17.5 7.976c-0.009 0.016-0.033 0.050-0.092 0.102-0.125 0.111-0.344 0.245-0.678 0.384-0.663 0.275-1.65 0.516-2.869 0.668-0.343 0.043-0.586 0.355-0.543 0.698s0.355 0.586 0.698 0.543c1.281-0.16 2.388-0.42 3.193-0.754 0.1-0.042 0.198-0.085 0.292-0.131v2.501c-0.007 0.016-0.033 0.057-0.11 0.124-0.137 0.119-0.374 0.26-0.732 0.403-0.711 0.284-1.76 0.526-3.045 0.678-0.343 0.041-0.588 0.352-0.547 0.694s0.352 0.588 0.694 0.547c1.34-0.16 2.509-0.418 3.361-0.759 0.13-0.052 0.257-0.107 0.377-0.166v2.582c-0.015 0.023-0.081 0.114-0.325 0.255-0.338 0.196-0.868 0.395-1.577 0.572-1.407 0.352-3.386 0.583-5.598 0.583s-4.19-0.231-5.595-0.59c-0.707-0.181-1.235-0.385-1.571-0.587-0.271-0.162-0.324-0.264-0.333-0.281v-2.514c0.096 0.045 0.195 0.088 0.297 0.13 0.8 0.323 1.902 0.582 3.173 0.773 0.341 0.051 0.66-0.184 0.711-0.525s-0.184-0.66-0.525-0.711c-1.229-0.184-2.221-0.425-2.89-0.696-0.337-0.136-0.556-0.266-0.68-0.373-0.052-0.045-0.076-0.075-0.086-0.090v-2.573c0.099 0.047 0.202 0.091 0.307 0.133 0.808 0.323 1.926 0.582 3.228 0.772 0.342 0.050 0.659-0.186 0.709-0.528s-0.186-0.659-0.528-0.709c-1.261-0.184-2.268-0.426-2.944-0.696-0.341-0.136-0.561-0.266-0.686-0.373-0.052-0.044-0.076-0.074-0.085-0.089v-2.621c0.443 0.212 0.992 0.393 1.605 0.544 1.532 0.377 3.616 0.604 5.895 0.604s4.363-0.227 5.895-0.604c0.614-0.151 1.162-0.332 1.605-0.544v2.624z"></path>
</svg>
