<!-- Generated by IcoMoon.io -->
<svg version="1.1" xmlns="http://www.w3.org/2000/svg" width="32" height="32" viewBox="0 0 32 32">
<title>calculator</title>
<path d="M8 10c-0.552 0-1 0.448-1 1s0.448 1 1 1h2v2c0 0.552 0.448 1 1 1s1-0.448 1-1v-2h2c0.552 0 1-0.448 1-1s-0.448-1-1-1h-2v-2c0-0.552-0.448-1-1-1s-1 0.448-1 1v2h-2z"></path>
<path d="M17 11c0-0.552 0.448-1 1-1h6c0.552 0 1 0.448 1 1s-0.448 1-1 1h-6c-0.552 0-1-0.448-1-1z"></path>
<path d="M18 18c-0.552 0-1 0.448-1 1s0.448 1 1 1h6c0.552 0 1-0.448 1-1s-0.448-1-1-1h-6z"></path>
<path d="M17 23c0-0.552 0.448-1 1-1h6c0.552 0 1 0.448 1 1s-0.448 1-1 1h-6c-0.552 0-1-0.448-1-1z"></path>
<path d="M14.707 17.293c0.39 0.39 0.39 1.024 0 1.414l-2.293 2.293 2.293 2.293c0.39 0.39 0.39 1.024 0 1.414s-1.024 0.39-1.414 0l-2.293-2.293-2.293 2.293c-0.391 0.39-1.024 0.39-1.414 0s-0.391-1.024 0-1.414l2.293-2.293-2.293-2.293c-0.391-0.39-0.391-1.024 0-1.414s1.024-0.39 1.414 0l2.293 2.293 2.293-2.293c0.39-0.39 1.024-0.39 1.414 0z"></path>
<path d="M6 2c-2.252 0-4 1.748-4 4v20c0 2.252 1.748 4 4 4h20c2.252 0 4-1.748 4-4v-20c0-2.252-1.748-4-4-4h-20zM4 6c0-1.148 0.852-2 2-2h20c1.148 0 2 0.852 2 2v20c0 1.148-0.852 2-2 2h-20c-1.148 0-2-0.852-2-2v-20z"></path>
</svg>
