<!-- Generated by IcoMoon.io -->
<svg version="1.1" xmlns="http://www.w3.org/2000/svg" width="20" height="20" viewBox="0 0 20 20">
<title>calculator</title>
<path d="M5 6.25c-0.345 0-0.625 0.28-0.625 0.625s0.28 0.625 0.625 0.625h1.25v1.25c0 0.345 0.28 0.625 0.625 0.625s0.625-0.28 0.625-0.625v-1.25h1.25c0.345 0 0.625-0.28 0.625-0.625s-0.28-0.625-0.625-0.625h-1.25v-1.25c0-0.345-0.28-0.625-0.625-0.625s-0.625 0.28-0.625 0.625v1.25h-1.25z"></path>
<path d="M10.625 6.875c0-0.345 0.28-0.625 0.625-0.625h3.75c0.345 0 0.625 0.28 0.625 0.625s-0.28 0.625-0.625 0.625h-3.75c-0.345 0-0.625-0.28-0.625-0.625z"></path>
<path d="M11.25 11.25c-0.345 0-0.625 0.28-0.625 0.625s0.28 0.625 0.625 0.625h3.75c0.345 0 0.625-0.28 0.625-0.625s-0.28-0.625-0.625-0.625h-3.75z"></path>
<path d="M10.625 14.375c0-0.345 0.28-0.625 0.625-0.625h3.75c0.345 0 0.625 0.28 0.625 0.625s-0.28 0.625-0.625 0.625h-3.75c-0.345 0-0.625-0.28-0.625-0.625z"></path>
<path d="M9.192 10.808c0.244 0.244 0.244 0.64 0 0.884l-1.433 1.433 1.433 1.433c0.244 0.244 0.244 0.64 0 0.884s-0.64 0.244-0.884 0l-1.433-1.433-1.433 1.433c-0.244 0.244-0.64 0.244-0.884 0s-0.244-0.64 0-0.884l1.433-1.433-1.433-1.433c-0.244-0.244-0.244-0.64 0-0.884s0.64-0.244 0.884 0l1.433 1.433 1.433-1.433c0.244-0.244 0.64-0.244 0.884 0z"></path>
<path d="M3.75 1.25c-1.408 0-2.5 1.092-2.5 2.5v12.5c0 1.408 1.092 2.5 2.5 2.5h12.5c1.408 0 2.5-1.092 2.5-2.5v-12.5c0-1.408-1.092-2.5-2.5-2.5h-12.5zM2.5 3.75c0-0.717 0.533-1.25 1.25-1.25h12.5c0.717 0 1.25 0.533 1.25 1.25v12.5c0 0.717-0.533 1.25-1.25 1.25h-12.5c-0.717 0-1.25-0.533-1.25-1.25v-12.5z"></path>
</svg>
