<!-- Generated by IcoMoon.io -->
<svg version="1.1" xmlns="http://www.w3.org/2000/svg" width="20" height="20" viewBox="0 0 20 20">
<title>calendar-week</title>
<path d="M6.875 1.875v0.625h6.25v-0.625c0-0.345 0.28-0.625 0.625-0.625s0.625 0.28 0.625 0.625v0.625h1.25c1.408 0 2.5 1.092 2.5 2.5v11.25c0 1.408-1.092 2.5-2.5 2.5h-11.25c-1.408 0-2.5-1.092-2.5-2.5v-11.25c0-1.408 1.092-2.5 2.5-2.5h1.25v-0.625c0-0.345 0.28-0.625 0.625-0.625s0.625 0.28 0.625 0.625zM16.875 13.75v-2.5h-13.75v2.5h13.75zM3.125 15v1.25c0 0.717 0.533 1.25 1.25 1.25h11.25c0.717 0 1.25-0.533 1.25-1.25v-1.25h-13.75zM3.125 10h13.75v-2.5h-13.75v2.5zM5.625 3.75h-1.25c-0.717 0-1.25 0.533-1.25 1.25v1.25h13.75v-1.25c0-0.717-0.533-1.25-1.25-1.25h-1.25v1.25c0 0.345-0.28 0.625-0.625 0.625s-0.625-0.28-0.625-0.625v-1.25h-6.25v1.25c0 0.345-0.28 0.625-0.625 0.625s-0.625-0.28-0.625-0.625v-1.25z"></path>
</svg>
