<!-- Generated by IcoMoon.io -->
<svg version="1.1" xmlns="http://www.w3.org/2000/svg" width="20" height="20" viewBox="0 0 20 20">
<title>calendar-month</title>
<path d="M6.25 1.25c0.345 0 0.625 0.28 0.625 0.625v0.625h6.25v-0.625c0-0.345 0.28-0.625 0.625-0.625s0.625 0.28 0.625 0.625v0.625h1.25c1.408 0 2.5 1.092 2.5 2.5v11.25c0 1.408-1.092 2.5-2.5 2.5h-11.25c-1.408 0-2.5-1.092-2.5-2.5v-11.25c0-1.408 1.092-2.5 2.5-2.5h1.25v-0.625c0-0.345 0.28-0.625 0.625-0.625zM14.375 17.5h1.25c0.717 0 1.25-0.533 1.25-1.25v-1.25h-2.5v2.5zM13.125 15h-2.5v2.5h2.5v-2.5zM14.375 13.75h2.5v-2.5h-2.5v2.5zM13.125 11.25h-2.5v2.5h2.5v-2.5zM14.375 10h2.5v-2.5h-2.5v2.5zM13.125 7.5h-2.5v2.5h2.5v-2.5zM16.875 6.25v-1.25c0-0.717-0.533-1.25-1.25-1.25h-1.25v1.25c0 0.345-0.28 0.625-0.625 0.625s-0.625-0.28-0.625-0.625v-1.25h-6.25v1.25c0 0.345-0.28 0.625-0.625 0.625s-0.625-0.28-0.625-0.625v-1.25h-1.25c-0.717 0-1.25 0.533-1.25 1.25v1.25h13.75zM6.875 17.5h2.5v-2.5h-2.5v2.5zM9.375 13.75v-2.5h-2.5v2.5h2.5zM9.375 10v-2.5h-2.5v2.5h2.5zM5.625 17.5v-2.5h-2.5v1.25c0 0.717 0.533 1.25 1.25 1.25h1.25zM5.625 11.25h-2.5v2.5h2.5v-2.5zM5.625 7.5h-2.5v2.5h2.5v-2.5z"></path>
</svg>
