<!-- Generated by IcoMoon.io -->
<svg version="1.1" xmlns="http://www.w3.org/2000/svg" width="20" height="20" viewBox="0 0 20 20">
<title>calendar-key</title>
<path d="M6.875 10c-1.381 0-2.5 1.119-2.5 2.5s1.119 2.5 2.5 2.5c1.165 0 2.144-0.797 2.421-1.875h2.579v1.25c0 0.345 0.28 0.625 0.625 0.625s0.625-0.28 0.625-0.625v-1.25h1.25v1.25c0 0.345 0.28 0.625 0.625 0.625s0.625-0.28 0.625-0.625v-2.5h-6.329c-0.278-1.078-1.256-1.875-2.421-1.875zM5.625 12.5c0-0.69 0.56-1.25 1.25-1.25s1.25 0.56 1.25 1.25c0 0.69-0.56 1.25-1.25 1.25s-1.25-0.56-1.25-1.25z"></path>
<path d="M6.25 1.25c-0.345 0-0.625 0.28-0.625 0.625v0.625h-1.25c-1.408 0-2.5 1.092-2.5 2.5v11.25c0 1.408 1.092 2.5 2.5 2.5h11.25c1.408 0 2.5-1.092 2.5-2.5v-11.25c0-1.408-1.092-2.5-2.5-2.5h-1.25v-0.625c0-0.345-0.28-0.625-0.625-0.625s-0.625 0.28-0.625 0.625v0.625h-6.25v-0.625c0-0.345-0.28-0.625-0.625-0.625zM5.625 5c0 0.345 0.28 0.625 0.625 0.625s0.625-0.28 0.625-0.625v-1.25h6.25v1.25c0 0.345 0.28 0.625 0.625 0.625s0.625-0.28 0.625-0.625v-1.25h1.25c0.717 0 1.25 0.533 1.25 1.25v1.25h-13.75v-1.25c0-0.717 0.533-1.25 1.25-1.25h1.25v1.25zM3.125 16.25v-8.75h13.75v8.75c0 0.717-0.533 1.25-1.25 1.25h-11.25c-0.717 0-1.25-0.533-1.25-1.25z"></path>
</svg>
