<!-- Generated by IcoMoon.io -->
<svg version="1.1" xmlns="http://www.w3.org/2000/svg" width="32" height="32" viewBox="0 0 32 32">
<title>calendar-day</title>
<path d="M11 3v1h10v-1c0-0.552 0.448-1 1-1s1 0.448 1 1v1h2c2.252 0 4 1.748 4 4v18c0 2.252-1.748 4-4 4h-18c-2.252 0-4-1.748-4-4v-18c0-2.252 1.748-4 4-4h2v-1c0-0.552 0.448-1 1-1s1 0.448 1 1zM9 6h-2c-1.148 0-2 0.852-2 2v2h22v-2c0-1.148-0.852-2-2-2h-2v2c0 0.552-0.448 1-1 1s-1-0.448-1-1v-2h-10v2c0 0.552-0.448 1-1 1s-1-0.448-1-1v-2zM5 12v14c0 1.148 0.852 2 2 2h18c1.148 0 2-0.852 2-2v-14h-22z"></path>
</svg>
