<!-- Generated by IcoMoon.io -->
<svg version="1.1" xmlns="http://www.w3.org/2000/svg" width="20" height="20" viewBox="0 0 20 20">
<title>calendar-period</title>
<path d="M12.317 9.558c-0.244-0.244-0.64-0.244-0.884 0s-0.244 0.64 0 0.884l1.433 1.433h-5.732l1.433-1.433c0.244-0.244 0.244-0.64 0-0.884s-0.64-0.244-0.884 0l-2.942 2.942 2.942 2.942c0.244 0.244 0.64 0.244 0.884 0s0.244-0.64 0-0.884l-1.433-1.433h5.732l-1.433 1.433c-0.244 0.244-0.244 0.64 0 0.884s0.64 0.244 0.884 0l2.942-2.942-2.942-2.942z"></path>
<path d="M6.25 1.25c-0.345 0-0.625 0.28-0.625 0.625v0.625h-1.25c-1.408 0-2.5 1.092-2.5 2.5v11.25c0 1.408 1.092 2.5 2.5 2.5h11.25c1.408 0 2.5-1.092 2.5-2.5v-11.25c0-1.408-1.092-2.5-2.5-2.5h-1.25v-0.625c0-0.345-0.28-0.625-0.625-0.625s-0.625 0.28-0.625 0.625v0.625h-6.25v-0.625c0-0.345-0.28-0.625-0.625-0.625zM5.625 5c0 0.345 0.28 0.625 0.625 0.625s0.625-0.28 0.625-0.625v-1.25h6.25v1.25c0 0.345 0.28 0.625 0.625 0.625s0.625-0.28 0.625-0.625v-1.25h1.25c0.717 0 1.25 0.533 1.25 1.25v1.25h-13.75v-1.25c0-0.717 0.533-1.25 1.25-1.25h1.25v1.25zM3.125 16.25v-8.75h13.75v8.75c0 0.717-0.533 1.25-1.25 1.25h-11.25c-0.717 0-1.25-0.533-1.25-1.25z"></path>
</svg>
