<!-- Generated by IcoMoon.io -->
<svg version="1.1" xmlns="http://www.w3.org/2000/svg" width="20" height="20" viewBox="0 0 20 20">
<title>camera</title>
<path d="M10 7.563c-2.071 0-3.75 1.679-3.75 3.75s1.679 3.75 3.75 3.75c2.071 0 3.75-1.679 3.75-3.75s-1.679-3.75-3.75-3.75zM7.5 11.313c0-1.381 1.119-2.5 2.5-2.5s2.5 1.119 2.5 2.5c0 1.381-1.119 2.5-2.5 2.5s-2.5-1.119-2.5-2.5z"></path>
<path d="M12.694 2.5h-5.388l-1.188 2.313h-2.368c-1.408 0-2.5 1.092-2.5 2.5v7.813c0 1.408 1.092 2.5 2.5 2.5h12.5c1.394 0 2.5-1.079 2.5-2.438v-7.875c0-1.408-1.092-2.5-2.5-2.5h-2.368l-1.187-2.313zM6.882 6.063l1.188-2.313h3.862l1.188 2.313h3.132c0.717 0 1.25 0.533 1.25 1.25v7.875c0 0.641-0.519 1.187-1.25 1.187h-12.5c-0.717 0-1.25-0.533-1.25-1.25v-7.812c0-0.717 0.533-1.25 1.25-1.25h3.132z"></path>
</svg>
