<!-- Generated by IcoMoon.io -->
<svg version="1.1" xmlns="http://www.w3.org/2000/svg" width="20" height="20" viewBox="0 0 20 20">
<title>car-alt</title>
<path d="M8.75 6.25c0-0.345-0.28-0.625-0.625-0.625s-0.625 0.28-0.625 0.625v3.75h3.75c0.345 0 0.625-0.28 0.625-0.625s-0.28-0.625-0.625-0.625h-2.5v-2.5z"></path>
<path d="M3.438 8.75c-0.345 0-0.625 0.28-0.625 0.625s0.28 0.625 0.625 0.625h2.813c0.345 0 0.625-0.28 0.625-0.625s-0.28-0.625-0.625-0.625h-2.813z"></path>
<path d="M2.579 14.375c0.278 1.078 1.256 1.875 2.421 1.875s2.144-0.797 2.421-1.875h4.533c0.278 1.078 1.256 1.875 2.421 1.875s2.144-0.797 2.421-1.875h0.079c1.381 0 2.5-1.119 2.5-2.5v-1.036c0-1.147-0.781-2.147-1.894-2.425l-3.382-0.846-2.432-2.919c-0.475-0.57-1.179-0.9-1.921-0.9h-5.322c-1.042 0-1.975 0.646-2.341 1.622l-1.299 3.465c-0.105 0.281-0.159 0.578-0.159 0.878v4.66h1.954zM3.254 5.811c0.183-0.488 0.649-0.811 1.17-0.811h5.322c0.371 0 0.723 0.165 0.96 0.45l2.693 3.232 3.778 0.944c0.556 0.139 0.947 0.639 0.947 1.213v1.036c0 0.69-0.56 1.25-1.25 1.25h-0.079c-0.278-1.078-1.256-1.875-2.421-1.875s-2.144 0.797-2.421 1.875h-4.532c-0.278-1.078-1.256-1.875-2.421-1.875s-2.144 0.797-2.421 1.875h-0.704v-3.41c0-0.15 0.027-0.299 0.080-0.439l1.299-3.465zM6.25 13.75c0 0.69-0.56 1.25-1.25 1.25s-1.25-0.56-1.25-1.25c0-0.69 0.56-1.25 1.25-1.25s1.25 0.56 1.25 1.25zM13.125 13.75c0-0.69 0.56-1.25 1.25-1.25s1.25 0.56 1.25 1.25c0 0.69-0.56 1.25-1.25 1.25s-1.25-0.56-1.25-1.25z"></path>
</svg>
