<!-- Generated by IcoMoon.io -->
<svg version="1.1" xmlns="http://www.w3.org/2000/svg" width="20" height="20" viewBox="0 0 20 20">
<title>car-error</title>
<path d="M12.754 4.375c1.877 0 3.27 0.5 4.178 1.438 1.338 1.381 1.335 3.397 1.332 4.772-0 0.056-0 0.111-0 0.165v0.5c0 1.5-0.666 2.125-1.272 2.375-0.242 1.125-1.211 2-2.361 2s-2.119-0.813-2.361-1.875h-5.025c-0.303 1.063-1.211 1.875-2.361 1.875s-2.119-0.875-2.361-2c-0.605-0.25-1.271-0.875-1.271-2.375 0-2.375 5.934-6.875 11.504-6.875zM3.672 13.125c0 0.688 0.545 1.25 1.211 1.25s1.211-0.563 1.211-1.25c0-0.688-0.545-1.25-1.211-1.25s-1.211 0.563-1.211 1.25zM13.359 13.125c0 0.688 0.545 1.25 1.211 1.25s1.211-0.563 1.211-1.25c0-0.688-0.545-1.25-1.211-1.25s-1.211 0.563-1.211 1.25zM16.992 11.25v-0.563c0.061-1.188 0.061-2.937-0.908-4-0.727-0.688-1.816-1.063-3.33-1.063-5.449 0-10.293 4.313-10.293 5.625 0 0.438 0.061 0.75 0.121 0.938 0.363-0.938 1.211-1.563 2.24-1.563 1.15 0 2.119 0.813 2.361 1.875h5.025c0.303-1.063 1.211-1.875 2.361-1.875 1.029 0 1.877 0.625 2.24 1.563 0.121-0.188 0.182-0.5 0.182-0.938zM11.581 7.683c0.236 0.244 0.236 0.64 0 0.884l-0.783 0.808 0.783 0.808c0.236 0.244 0.236 0.64 0 0.884s-0.62 0.244-0.856 0l-0.783-0.808-0.783 0.808c-0.237 0.244-0.62 0.244-0.856 0s-0.236-0.64 0-0.884l0.783-0.808-0.783-0.808c-0.236-0.244-0.236-0.64 0-0.884s0.62-0.244 0.856 0l0.783 0.808 0.783-0.808c0.237-0.244 0.62-0.244 0.856 0z"></path>
</svg>
