<!-- Generated by IcoMoon.io -->
<svg version="1.1" xmlns="http://www.w3.org/2000/svg" width="20" height="20" viewBox="0 0 20 20">
<title>car-arrow-e</title>
<path d="M10 11.875c-0.188 0-0.313-0.063-0.438-0.188-0.25-0.25-0.25-0.625 0-0.875l0.813-0.813h-2.25c-0.375 0-0.625-0.25-0.625-0.625s0.25-0.625 0.625-0.625h2.25l-0.813-0.813c-0.25-0.25-0.25-0.625 0-0.875s0.625-0.25 0.875 0l2.313 2.313-2.313 2.313c-0.125 0.125-0.25 0.188-0.438 0.188z"></path>
<path d="M17.438 5.813c-0.938-0.938-2.375-1.437-4.313-1.437-5.75 0-11.875 4.5-11.875 6.875 0 1.5 0.688 2.125 1.313 2.375 0.25 1.125 1.25 2 2.438 2s2.125-0.813 2.438-1.875h5.188c0.25 1.063 1.25 1.875 2.437 1.875s2.188-0.875 2.438-2c0.625-0.25 1.313-0.875 1.313-2.375v-0.5c0-0.054 0-0.108 0-0.164v-0.001c0.002-1.375 0.006-3.391-1.375-4.772zM5 14.375c-0.688 0-1.25-0.563-1.25-1.25s0.563-1.25 1.25-1.25c0.688 0 1.25 0.563 1.25 1.25s-0.563 1.25-1.25 1.25zM15 14.375c-0.688 0-1.25-0.563-1.25-1.25s0.563-1.25 1.25-1.25c0.688 0 1.25 0.563 1.25 1.25s-0.563 1.25-1.25 1.25zM17.5 10.688v0.563c0 0.438-0.063 0.75-0.188 0.938-0.375-0.938-1.25-1.563-2.313-1.563-1.188 0-2.125 0.813-2.438 1.875h-5.188c-0.25-1.063-1.25-1.875-2.438-1.875-1.063 0-1.937 0.625-2.313 1.563-0.062-0.188-0.125-0.5-0.125-0.938 0-1.313 5-5.625 10.625-5.625 1.563 0 2.688 0.375 3.438 1.063 1 1.062 1 2.813 0.938 4z"></path>
</svg>
