<!-- Generated by IcoMoon.io -->
<svg version="1.1" xmlns="http://www.w3.org/2000/svg" width="32" height="32" viewBox="0 0 32 32">
<title>car-arrow-e</title>
<path d="M16 19c-0.3 0-0.5-0.1-0.7-0.3-0.4-0.4-0.4-1 0-1.4l1.3-1.3h-3.6c-0.6 0-1-0.4-1-1s0.4-1 1-1h3.6l-1.3-1.3c-0.4-0.4-0.4-1 0-1.4s1-0.4 1.4 0l3.7 3.7-3.7 3.7c-0.2 0.2-0.4 0.3-0.7 0.3z"></path>
<path d="M27.9 9.3c-1.5-1.5-3.8-2.3-6.9-2.3-9.2 0-19 7.2-19 11 0 2.4 1.1 3.4 2.1 3.8 0.4 1.8 2 3.2 3.9 3.2s3.4-1.3 3.9-3h8.3c0.4 1.7 2 3 3.9 3s3.5-1.4 3.9-3.2c1-0.4 2.1-1.4 2.1-3.8v-0.8c0-0.086 0-0.173 0-0.262v-0.002c0.004-2.201 0.009-5.426-2.2-7.636zM8 23c-1.1 0-2-0.9-2-2s0.9-2 2-2c1.1 0 2 0.9 2 2s-0.9 2-2 2zM24 23c-1.1 0-2-0.9-2-2s0.9-2 2-2c1.1 0 2 0.9 2 2s-0.9 2-2 2zM28 17.1v0.9c0 0.7-0.1 1.2-0.3 1.5-0.6-1.5-2-2.5-3.7-2.5-1.9 0-3.4 1.3-3.9 3h-8.3c-0.4-1.7-2-3-3.9-3-1.7 0-3.1 1-3.7 2.5-0.1-0.3-0.2-0.8-0.2-1.5 0-2.1 8-9 17-9 2.5 0 4.3 0.6 5.5 1.7 1.6 1.7 1.6 4.5 1.5 6.4z"></path>
</svg>
