<!-- Generated by IcoMoon.io -->
<svg version="1.1" xmlns="http://www.w3.org/2000/svg" width="20" height="20" viewBox="0 0 20 20">
<title>car-charging</title>
<path d="M17.438 5.813c-0.938-0.938-2.375-1.437-4.313-1.437-0.438 0-1 0-1.438 0.062-0.313 0.063-0.563 0.375-0.5 0.688s0.375 0.563 0.688 0.5c0.375 0 0.813 0 1.25 0 1.563 0 2.688 0.375 3.438 1.063 1.063 1.062 1 2.75 0.938 4 0 0.188 0 0.375 0 0.563 0 0.438-0.063 0.75-0.188 0.938-0.375-0.938-1.25-1.563-2.313-1.563-1.188 0-2.125 0.813-2.438 1.875-0.313 0.063-0.5 0.313-0.5 0.625s0.25 0.563 0.5 0.625c0.25 1.063 1.25 1.875 2.438 1.875s2.188-0.875 2.438-2c0.625-0.25 1.313-0.875 1.313-2.375 0-0.125 0-0.313 0-0.5 0.063-1.375 0.125-3.5-1.313-4.938zM15 14.375c-0.688 0-1.25-0.563-1.25-1.25s0.563-1.25 1.25-1.25c0.688 0 1.25 0.563 1.25 1.25s-0.563 1.25-1.25 1.25z"></path>
<path d="M8.5 12.5h-1.063c-0.25-1.063-1.25-1.875-2.438-1.875-1.063 0-1.938 0.625-2.313 1.563-0.125-0.188-0.188-0.5-0.188-0.938 0-0.75 1.75-2.625 4.563-4.063 0.313-0.188 0.438-0.563 0.25-0.813-0.188-0.313-0.563-0.438-0.813-0.25-2.562 1.25-5.25 3.5-5.25 5.125 0 1.5 0.688 2.125 1.313 2.375 0.25 1.125 1.25 2 2.438 2s2.125-0.813 2.438-1.875h1.063c0.375 0 0.625-0.25 0.625-0.625s-0.25-0.625-0.625-0.625zM5 14.375c-0.688 0-1.25-0.563-1.25-1.25s0.563-1.25 1.25-1.25c0.688 0 1.25 0.563 1.25 1.25s-0.563 1.25-1.25 1.25z"></path>
<path d="M13.063 9.063c-0.125-0.188-0.375-0.313-0.563-0.313h-4l2.063-4.125c0.125-0.313 0-0.687-0.25-0.812-0.313-0.125-0.688 0-0.813 0.25l-2.5 5c-0.125 0.188-0.063 0.438 0 0.625 0.125 0.188 0.313 0.313 0.563 0.313h4l-2.063 4.125c-0.125 0.313 0 0.688 0.25 0.813 0.063 0.063 0.125 0.063 0.25 0.063 0.25 0 0.438-0.125 0.563-0.375l2.5-5c0.063-0.188 0.063-0.375 0-0.563z"></path>
</svg>
