<!-- Generated by IcoMoon.io -->
<svg version="1.1" xmlns="http://www.w3.org/2000/svg" width="20" height="20" viewBox="0 0 20 20">
<title>card-up</title>
<path d="M10 0.625l2.942 2.942c0.244 0.244 0.244 0.64 0 0.884s-0.64 0.244-0.884 0l-1.433-1.433v4.741c0 0.345-0.28 0.625-0.625 0.625s-0.625-0.28-0.625-0.625v-4.741l-1.433 1.433c-0.244 0.244-0.64 0.244-0.884 0s-0.244-0.64 0-0.884l2.942-2.942z"></path>
<path d="M4.375 14.634c-0.345 0-0.625 0.28-0.625 0.625s0.28 0.625 0.625 0.625h2.5c0.345 0 0.625-0.28 0.625-0.625s-0.28-0.625-0.625-0.625h-2.5z"></path>
<path d="M2.5 8.384c0-0.717 0.533-1.25 1.25-1.25h3.125c0.345 0 0.625-0.28 0.625-0.625s-0.28-0.625-0.625-0.625h-3.125c-1.408 0-2.5 1.092-2.5 2.5v7.5c0 1.408 1.092 2.5 2.5 2.5h12.5c1.408 0 2.5-1.092 2.5-2.5v-7.5c0-1.408-1.092-2.5-2.5-2.5h-3.125c-0.345 0-0.625 0.28-0.625 0.625s0.28 0.625 0.625 0.625h3.125c0.717 0 1.25 0.533 1.25 1.25v1.25h-15v-1.25zM2.5 15.884v-3.75h15v3.75c0 0.717-0.533 1.25-1.25 1.25h-12.5c-0.717 0-1.25-0.533-1.25-1.25z"></path>
</svg>
