<!-- Generated by IcoMoon.io -->
<svg version="1.1" xmlns="http://www.w3.org/2000/svg" width="20" height="20" viewBox="0 0 20 20">
<title>card</title>
<path d="M4.375 13.125c-0.345 0-0.625 0.28-0.625 0.625s0.28 0.625 0.625 0.625h2.5c0.345 0 0.625-0.28 0.625-0.625s-0.28-0.625-0.625-0.625h-2.5z"></path>
<path d="M1.25 5.625v8.75c0 1.408 1.092 2.5 2.5 2.5h12.5c1.408 0 2.5-1.092 2.5-2.5v-8.75c0-1.408-1.092-2.5-2.5-2.5h-12.5c-1.408 0-2.5 1.092-2.5 2.5zM3.75 4.375h12.5c0.717 0 1.25 0.533 1.25 1.25v1.25h-15v-1.25c0-0.717 0.533-1.25 1.25-1.25zM2.5 14.375v-5h15v5c0 0.717-0.533 1.25-1.25 1.25h-12.5c-0.717 0-1.25-0.533-1.25-1.25z"></path>
</svg>
