<!-- Generated by IcoMoon.io -->
<svg version="1.1" xmlns="http://www.w3.org/2000/svg" width="32" height="32" viewBox="0 0 32 32">
<title>caret-ns</title>
<path d="M22.707 12.707l-6.707-6.707-6.707 6.707c-0.391 0.39-0.391 1.024 0 1.414s1.024 0.39 1.414 0l5.293-5.293 5.293 5.293c0.39 0.39 1.024 0.39 1.414 0s0.39-1.024 0-1.414z"></path>
<path d="M10.707 16.707c-0.39-0.39-1.024-0.39-1.414 0s-0.391 1.024 0 1.414l6.707 6.707 6.707-6.707c0.39-0.39 0.39-1.024 0-1.414s-1.024-0.39-1.414 0l-5.293 5.293-5.293-5.293z"></path>
</svg>
