<!-- Generated by IcoMoon.io -->
<svg version="1.1" xmlns="http://www.w3.org/2000/svg" width="20" height="20" viewBox="0 0 20 20">
<title>caret-ns</title>
<path d="M14.192 7.942l-4.192-4.192-4.192 4.192c-0.244 0.244-0.244 0.64 0 0.884s0.64 0.244 0.884 0l3.308-3.308 3.308 3.308c0.244 0.244 0.64 0.244 0.884 0s0.244-0.64 0-0.884z"></path>
<path d="M6.692 10.442c-0.244-0.244-0.64-0.244-0.884 0s-0.244 0.64 0 0.884l4.192 4.192 4.192-4.192c0.244-0.244 0.244-0.64 0-0.884s-0.64-0.244-0.884 0l-3.308 3.308-3.308-3.308z"></path>
</svg>
