<!-- Generated by IcoMoon.io -->
<svg version="1.1" xmlns="http://www.w3.org/2000/svg" width="20" height="20" viewBox="0 0 20 20">
<title>carry</title>
<path d="M2.163 2.571c-0.306-0.159-0.684-0.040-0.843 0.266s-0.040 0.684 0.266 0.843l2.897 1.506 2.613 8.123c-0.978 0.44-1.659 1.424-1.659 2.566 0 1.553 1.259 2.813 2.813 2.813s2.813-1.259 2.813-2.813c0-0.201-0.021-0.397-0.061-0.586l7.19-2.319c0.328-0.106 0.509-0.458 0.403-0.787s-0.458-0.509-0.787-0.403l-7.339 2.367c-0.499-0.641-1.27-1.059-2.139-1.084l-2.815-8.75-3.353-1.744zM6.688 15.875c0-0.863 0.7-1.563 1.563-1.563s1.563 0.7 1.563 1.563c0 0.863-0.7 1.563-1.563 1.563s-1.563-0.7-1.563-1.563z"></path>
<path d="M7.798 5.185c-0.328 0.106-0.508 0.459-0.402 0.787l2.118 6.541c0.106 0.328 0.459 0.508 0.787 0.402l6.541-2.118c0.328-0.106 0.508-0.459 0.402-0.787l-2.118-6.541c-0.106-0.328-0.459-0.508-0.787-0.402l-6.541 2.118zM10.51 11.533l-1.733-5.352 5.352-1.733 1.733 5.352-5.352 1.733z"></path>
</svg>
