<!-- Generated by IcoMoon.io -->
<svg version="1.1" xmlns="http://www.w3.org/2000/svg" width="32" height="32" viewBox="0 0 32 32">
<title>carry</title>
<path d="M3.462 4.113c-0.49-0.255-1.094-0.064-1.349 0.426s-0.064 1.094 0.426 1.349l4.635 2.41 4.181 12.997c-1.565 0.705-2.655 2.278-2.655 4.105 0 2.485 2.015 4.5 4.5 4.5s4.5-2.015 4.5-4.5c0-0.321-0.034-0.635-0.098-0.937l11.505-3.711c0.526-0.169 0.814-0.733 0.645-1.259s-0.733-0.814-1.259-0.645l-11.742 3.788c-0.799-1.025-2.031-1.695-3.422-1.734l-4.503-13.999-5.365-2.79zM10.7 25.4c0-1.381 1.119-2.5 2.5-2.5s2.5 1.119 2.5 2.5c0 1.381-1.119 2.5-2.5 2.5s-2.5-1.119-2.5-2.5z"></path>
<path d="M12.476 8.296c-0.525 0.17-0.813 0.734-0.643 1.259l3.389 10.465c0.17 0.525 0.734 0.813 1.259 0.643l10.465-3.389c0.525-0.17 0.813-0.734 0.643-1.259l-3.389-10.465c-0.17-0.525-0.734-0.813-1.259-0.643l-10.465 3.389zM16.817 18.453l-2.773-8.563 8.563-2.773 2.773 8.563-8.563 2.773z"></path>
</svg>
