<!-- Generated by IcoMoon.io -->
<svg version="1.1" xmlns="http://www.w3.org/2000/svg" width="32" height="32" viewBox="0 0 32 32">
<title>carrot</title>
<path d="M22.519 2c0.552 0 1 0.448 1 1v4.586l2.293-2.293c0.39-0.391 1.024-0.391 1.414 0s0.39 1.024 0 1.414l-2.293 2.293h4.586c0.552 0 1 0.448 1 1s-0.448 1-1 1h-5.049c0.365 0.495 0.679 1.001 0.912 1.494 0.245 0.518 0.43 1.080 0.454 1.635 0.025 0.576-0.126 1.195-0.61 1.679-5.428 5.428-10.758 8.958-14.74 11.133-1.991 1.088-3.646 1.837-4.809 2.317-0.582 0.24-1.040 0.412-1.357 0.526-0.158 0.057-0.281 0.099-0.366 0.127-0.042 0.014-0.075 0.025-0.098 0.032l-0.027 0.009-0.008 0.003-0.004 0.001-0.297-0.955-0.955-0.297 0-0.001 0.001-0.003 0.003-0.008 0.009-0.027c0.007-0.023 0.018-0.056 0.032-0.099 0.028-0.085 0.070-0.208 0.127-0.366 0.113-0.317 0.286-0.775 0.526-1.357 0.48-1.163 1.229-2.818 2.317-4.809 1.689-3.091 4.194-6.996 7.771-11.128 0.040-0.070 0.088-0.136 0.146-0.196 0.035-0.037 0.073-0.071 0.112-0.101 0.958-1.094 1.991-2.202 3.103-3.315 0.484-0.484 1.103-0.635 1.679-0.61 0.555 0.024 1.117 0.209 1.635 0.454 0.492 0.233 0.998 0.547 1.494 0.912v-5.049c0-0.552 0.448-1 1-1zM21.519 11v-0.333c-0.79-0.762-1.635-1.384-2.35-1.723-0.386-0.183-0.675-0.255-0.864-0.264-0.089-0.004-0.137 0.007-0.156 0.014-0.015 0.005-0.018 0.008-0.023 0.013-0.887 0.887-1.722 1.772-2.508 2.648l1.592 1.523c0.399 0.382 0.413 1.015 0.031 1.414s-1.015 0.413-1.414 0.031l-1.523-1.457c-0.665 0.789-1.289 1.567-1.875 2.331l1.296 1.296c0.39 0.39 0.39 1.024 0 1.414s-1.024 0.39-1.414 0l-1.087-1.087c-1.626 2.265-2.904 4.365-3.891 6.171-0.947 1.733-1.625 3.196-2.082 4.275 1.079-0.457 2.542-1.135 4.275-2.082 3.843-2.1 9.013-5.52 14.285-10.792 0.004-0.004 0.008-0.008 0.013-0.023 0.006-0.019 0.018-0.067 0.014-0.156-0.008-0.189-0.081-0.479-0.264-0.864-0.339-0.716-0.961-1.56-1.723-2.35h-0.333z"></path>
<path d="M2.564 28.703c0 0-0 0.001 0.955 0.297 0.297 0.955 0.297 0.955 0.297 0.955l-1.817 0.564 0.564-1.817z"></path>
</svg>
