<!-- Generated by IcoMoon.io -->
<svg version="1.1" xmlns="http://www.w3.org/2000/svg" width="20" height="20" viewBox="0 0 20 20">
<title>carrot</title>
<path d="M14.074 1.25c0.345 0 0.625 0.28 0.625 0.625v2.866l1.433-1.433c0.244-0.244 0.64-0.244 0.884 0s0.244 0.64 0 0.884l-1.433 1.433h2.866c0.345 0 0.625 0.28 0.625 0.625s-0.28 0.625-0.625 0.625h-3.156c0.228 0.31 0.424 0.626 0.57 0.933 0.153 0.323 0.269 0.675 0.284 1.022 0.016 0.36-0.079 0.747-0.381 1.049-3.393 3.393-6.724 5.599-9.213 6.958-1.244 0.68-2.279 1.148-3.006 1.448-0.364 0.15-0.65 0.258-0.848 0.329-0.099 0.035-0.176 0.062-0.229 0.079-0.027 0.009-0.047 0.016-0.062 0.020l-0.017 0.005-0.005 0.002-0.002 0.001-0.186-0.597-0.597-0.186 0-0.001 0.001-0.002 0.002-0.005 0.005-0.017c0.005-0.014 0.011-0.035 0.020-0.062 0.018-0.053 0.044-0.13 0.079-0.229 0.071-0.198 0.179-0.485 0.329-0.848 0.3-0.727 0.768-1.761 1.448-3.006 1.056-1.932 2.621-4.373 4.857-6.955 0.025-0.043 0.055-0.085 0.092-0.122 0.022-0.023 0.046-0.044 0.070-0.063 0.599-0.684 1.244-1.376 1.94-2.072 0.303-0.302 0.689-0.397 1.049-0.381 0.347 0.015 0.698 0.131 1.022 0.284 0.308 0.146 0.624 0.342 0.933 0.57v-3.156c0-0.345 0.28-0.625 0.625-0.625zM13.449 6.875v-0.208c-0.494-0.476-1.022-0.865-1.469-1.077-0.241-0.114-0.422-0.16-0.54-0.165-0.055-0.002-0.085 0.005-0.097 0.009-0.009 0.003-0.011 0.005-0.014 0.008-0.555 0.555-1.077 1.108-1.567 1.655l0.995 0.952c0.249 0.239 0.258 0.634 0.020 0.884s-0.634 0.258-0.884 0.020l-0.952-0.91c-0.415 0.493-0.806 0.979-1.172 1.457l0.81 0.81c0.244 0.244 0.244 0.64 0 0.884s-0.64 0.244-0.884 0l-0.679-0.679c-1.016 1.416-1.815 2.728-2.432 3.857-0.592 1.083-1.016 1.998-1.301 2.672 0.674-0.286 1.589-0.71 2.672-1.301 2.402-1.312 5.633-3.45 8.928-6.745 0.003-0.003 0.005-0.005 0.008-0.014 0.004-0.012 0.011-0.042 0.009-0.097-0.005-0.118-0.050-0.299-0.165-0.54-0.212-0.447-0.6-0.975-1.077-1.469h-0.208z"></path>
<path d="M1.603 17.939c0 0-0 0 0.597 0.186 0.185 0.597 0.186 0.597 0.186 0.597l-1.135 0.353 0.353-1.135z"></path>
</svg>
