<!-- Generated by IcoMoon.io -->
<svg version="1.1" xmlns="http://www.w3.org/2000/svg" width="20" height="20" viewBox="0 0 20 20">
<title>cart-add</title>
<path d="M1.875 1.25c-0.345 0-0.625 0.28-0.625 0.625s0.28 0.625 0.625 0.625h1.316l0.397 3.574c-0.016 0.056-0.025 0.115-0.025 0.176 0 0.11 0.028 0.214 0.078 0.303l0.551 4.96 0.001 0.007c0.164 1.229 1.225 2.23 2.495 2.23h1.563c0.345 0 0.625-0.28 0.625-0.625s-0.28-0.625-0.625-0.625h-1.563c-0.603 0-1.166-0.496-1.255-1.139l-0.498-4.486h12.214l-0.716 1.551c-0.145 0.313-0.008 0.685 0.306 0.829s0.685 0.008 0.829-0.306l1.12-2.426c0.021-0.043 0.037-0.088 0.048-0.136 0.037-0.164 0.006-0.333-0.081-0.471-0.048-0.077-0.113-0.143-0.193-0.194-0.060-0.038-0.128-0.067-0.199-0.083-0.050-0.011-0.1-0.016-0.149-0.015h-13.316l-0.486-4.375h-2.434z"></path>
<path d="M12.5 13.75c-0.345 0-0.625 0.28-0.625 0.625s0.28 0.625 0.625 0.625h1.25v1.25c0 0.345 0.28 0.625 0.625 0.625s0.625-0.28 0.625-0.625v-1.25h1.25c0.345 0 0.625-0.28 0.625-0.625s-0.28-0.625-0.625-0.625h-1.25v-1.25c0-0.345-0.28-0.625-0.625-0.625s-0.625 0.28-0.625 0.625v1.25h-1.25z"></path>
<path d="M14.375 9.375c-2.761 0-5 2.239-5 5s2.239 5 5 5c2.761 0 5-2.239 5-5s-2.239-5-5-5zM10.625 14.375c0-2.071 1.679-3.75 3.75-3.75s3.75 1.679 3.75 3.75c0 2.071-1.679 3.75-3.75 3.75s-3.75-1.679-3.75-3.75z"></path>
<path d="M8.018 16.25c-0.257-0.728-0.952-1.25-1.768-1.25-1.036 0-1.875 0.839-1.875 1.875s0.839 1.875 1.875 1.875c0.816 0 1.511-0.522 1.768-1.25h0.607c0.345 0 0.625-0.28 0.625-0.625s-0.28-0.625-0.625-0.625h-0.607zM5.625 16.875c0-0.345 0.28-0.625 0.625-0.625s0.625 0.28 0.625 0.625c0 0.345-0.28 0.625-0.625 0.625s-0.625-0.28-0.625-0.625z"></path>
</svg>
