<!-- Generated by IcoMoon.io -->
<svg version="1.1" xmlns="http://www.w3.org/2000/svg" width="20" height="20" viewBox="0 0 20 20">
<title>cart</title>
<path d="M1.875 1.25c-0.345 0-0.625 0.28-0.625 0.625s0.28 0.625 0.625 0.625h1.316l0.397 3.574c-0.016 0.056-0.025 0.115-0.025 0.176 0 0.11 0.028 0.214 0.078 0.303l0.551 4.96 0.001 0.007c0.164 1.229 1.225 2.23 2.495 2.23h7.125c1.017 0 1.852-0.601 2.257-1.491l2.619-5.737c0.021-0.043 0.037-0.089 0.047-0.137 0.056-0.254-0.052-0.521-0.275-0.662-0.061-0.039-0.129-0.068-0.203-0.084-0.049-0.011-0.098-0.015-0.147-0.014h-13.316l-0.486-4.375h-2.434zM5.433 11.361l-0.498-4.486h12.218l-2.222 4.866c-0.22 0.485-0.635 0.759-1.118 0.759h-7.125c-0.603 0-1.166-0.496-1.255-1.139z"></path>
<path d="M8.018 16.25h4.588c0.257-0.728 0.952-1.25 1.768-1.25 1.036 0 1.875 0.839 1.875 1.875s-0.839 1.875-1.875 1.875c-0.816 0-1.511-0.522-1.768-1.25h-4.588c-0.257 0.728-0.952 1.25-1.768 1.25-1.036 0-1.875-0.839-1.875-1.875s0.839-1.875 1.875-1.875c0.816 0 1.511 0.522 1.768 1.25zM6.25 16.25c-0.345 0-0.625 0.28-0.625 0.625s0.28 0.625 0.625 0.625c0.345 0 0.625-0.28 0.625-0.625s-0.28-0.625-0.625-0.625zM13.75 16.875c0 0.345 0.28 0.625 0.625 0.625s0.625-0.28 0.625-0.625c0-0.345-0.28-0.625-0.625-0.625s-0.625 0.28-0.625 0.625z"></path>
</svg>
