<!-- Generated by IcoMoon.io -->
<svg version="1.1" xmlns="http://www.w3.org/2000/svg" width="32" height="32" viewBox="0 0 32 32">
<title>cart-pending</title>
<path d="M3 2c-0.552 0-1 0.448-1 1s0.448 1 1 1h2.105l0.635 5.718c-0.026 0.089-0.040 0.184-0.040 0.282 0 0.176 0.046 0.342 0.126 0.486l0.882 7.936 0.001 0.011c0.262 1.966 1.959 3.568 3.991 3.568h2.5c0.552 0 1-0.448 1-1s-0.448-1-1-1h-2.5c-0.965 0-1.865-0.793-2.007-1.822l-0.798-7.178h19.542l-1.145 2.481c-0.231 0.502-0.012 1.096 0.489 1.327s1.096 0.012 1.327-0.489l1.791-3.881c0.035-0.071 0.061-0.146 0.078-0.225 0.058-0.263 0.005-0.535-0.137-0.755-0.076-0.118-0.177-0.221-0.301-0.3-0.098-0.063-0.207-0.109-0.324-0.135-0.079-0.018-0.159-0.025-0.237-0.023h-21.306l-0.778-7h-3.895z"></path>
<path d="M23 24c0.552 0 1-0.448 1-1s-0.448-1-1-1c-0.552 0-1 0.448-1 1s0.448 1 1 1z"></path>
<path d="M21 23c0 0.552-0.448 1-1 1s-1-0.448-1-1c0-0.552 0.448-1 1-1s1 0.448 1 1z"></path>
<path d="M26 24c0.552 0 1-0.448 1-1s-0.448-1-1-1c-0.552 0-1 0.448-1 1s0.448 1 1 1z"></path>
<path d="M15 23c0-4.418 3.582-8 8-8s8 3.582 8 8c0 4.418-3.582 8-8 8s-8-3.582-8-8zM23 17c-3.314 0-6 2.686-6 6s2.686 6 6 6c3.314 0 6-2.686 6-6s-2.686-6-6-6z"></path>
<path d="M12.829 26c-0.412-1.165-1.523-2-2.829-2-1.657 0-3 1.343-3 3s1.343 3 3 3c1.306 0 2.418-0.835 2.829-2h0.971c0.552 0 1-0.448 1-1s-0.448-1-1-1h-0.971zM9 27c0-0.552 0.448-1 1-1s1 0.448 1 1c0 0.552-0.448 1-1 1s-1-0.448-1-1z"></path>
</svg>
