<!-- Generated by IcoMoon.io -->
<svg version="1.1" xmlns="http://www.w3.org/2000/svg" width="20" height="20" viewBox="0 0 20 20">
<title>celery</title>
<path d="M19.15 9.806v7.25c0.006 0.069 0.006 0.138 0 0.206 0 0.453-0.18 0.887-0.5 1.207s-0.754 0.5-1.207 0.5c-0.071 0.006-0.142 0.006-0.213 0h-14.631c-0.467 0-0.916-0.186-1.246-0.516s-0.516-0.779-0.516-1.246c0-0.063 0-0.125 0-0.188v-14.431c-0.003-0.060-0.003-0.121 0-0.181 0-0.469 0.186-0.919 0.518-1.251s0.782-0.518 1.251-0.518c0.077-0.006 0.154-0.006 0.231 0h14.375c1.296 0 1.942 0.644 1.938 1.931v7.238zM14.956 4.269c-0.313-0.156-0.569-0.306-0.838-0.419-1.533-0.637-3.178-0.962-4.838-0.956h-0.331c-2.075 0.037-3.425 1.287-3.475 3.319-0.063 2.35-0.050 4.7 0 7.038 0.031 1.875 1.069 3.125 2.944 3.225 0.2 0 0.438 0 0.675 0 1.019 0 2.035-0.109 3.031-0.325h-0.094c1.061-0.259 2.105-0.585 3.125-0.975l-0.175 0.056c-0.294-0.625-0.544-1.069-0.737-1.55s-0.344-0.462-0.788-0.331c-1.133 0.359-2.287 0.647-3.456 0.862h-0.188c-1.175 0.194-1.775-0.419-1.775-1.619v-5.913c-0.003-0.062-0.003-0.125 0-0.188 0-0.17 0.033-0.338 0.099-0.494s0.16-0.299 0.281-0.418c0.12-0.12 0.263-0.214 0.42-0.279s0.325-0.097 0.495-0.096h0.238c0.509 0.002 1.016 0.058 1.512 0.169h-0.044c0.987 0.225 1.938 0.525 3.006 0.8l0.912-1.875v-0.031z"></path>
</svg>
