<!-- Generated by IcoMoon.io -->
<svg version="1.1" xmlns="http://www.w3.org/2000/svg" width="32" height="32" viewBox="0 0 32 32">
<title>celery</title>
<path d="M30.64 15.69v11.6c0.010 0.11 0.010 0.22 0 0.33 0 0.724-0.288 1.418-0.8 1.93s-1.206 0.8-1.93 0.8c-0.113 0.010-0.227 0.010-0.34 0h-23.41c-0.748 0-1.465-0.297-1.994-0.826s-0.826-1.246-0.826-1.994c0-0.1 0-0.2 0-0.3v-23.090c-0.005-0.097-0.005-0.193 0-0.29 0-0.751 0.298-1.47 0.829-2.001s1.251-0.829 2.001-0.829c0.123-0.010 0.247-0.010 0.37 0h23c2.073 0 3.107 1.030 3.1 3.090v11.58zM23.93 6.83c-0.5-0.25-0.91-0.49-1.34-0.67-2.453-1.019-5.084-1.539-7.74-1.53h-0.53c-3.32 0.060-5.48 2.060-5.56 5.31-0.1 3.76-0.080 7.52 0 11.26 0.050 3 1.71 5 4.71 5.16 0.32 0 0.7 0 1.080 0 1.631 0 3.257-0.174 4.85-0.52h-0.15c1.698-0.414 3.368-0.935 5-1.56l-0.28 0.090c-0.47-1-0.87-1.71-1.18-2.48s-0.55-0.74-1.26-0.53c-1.813 0.575-3.66 1.036-5.53 1.38h-0.3c-1.88 0.31-2.84-0.67-2.84-2.59v-9.46c-0.006-0.1-0.006-0.2 0-0.3 0-0.271 0.054-0.54 0.158-0.791s0.257-0.478 0.449-0.67c0.192-0.191 0.421-0.343 0.672-0.446s0.52-0.155 0.791-0.154h0.38c0.814 0.003 1.625 0.094 2.42 0.27h-0.070c1.58 0.36 3.1 0.84 4.81 1.28l1.46-3v-0.050z"></path>
</svg>
