<!-- Generated by IcoMoon.io -->
<svg version="1.1" xmlns="http://www.w3.org/2000/svg" width="20" height="20" viewBox="0 0 20 20">
<title>center</title>
<path d="M10.625 1.875v1.906c2.953 0.293 5.301 2.641 5.594 5.594h1.906c0.345 0 0.625 0.28 0.625 0.625s-0.28 0.625-0.625 0.625h-1.906c-0.293 2.953-2.641 5.301-5.594 5.594v1.906c0 0.345-0.28 0.625-0.625 0.625s-0.625-0.28-0.625-0.625v-1.906c-2.953-0.293-5.301-2.641-5.594-5.594h-1.906c-0.345 0-0.625-0.28-0.625-0.625s0.28-0.625 0.625-0.625h1.906c0.293-2.953 2.641-5.301 5.594-5.594v-1.906c0-0.345 0.28-0.625 0.625-0.625s0.625 0.28 0.625 0.625zM9.375 5.039c-2.262 0.282-4.054 2.075-4.336 4.336h4.336v-4.336zM10.625 9.375h4.336c-0.282-2.262-2.075-4.054-4.336-4.336v4.336zM9.375 10.625h-4.336c0.282 2.262 2.075 4.054 4.336 4.336v-4.336zM10.625 14.961c2.262-0.282 4.054-2.075 4.336-4.336h-4.336v4.336z"></path>
</svg>
