<!-- Generated by IcoMoon.io -->
<svg version="1.1" xmlns="http://www.w3.org/2000/svg" width="32" height="32" viewBox="0 0 32 32">
<title>center</title>
<path d="M17 3v3.049c4.724 0.469 8.482 4.226 8.951 8.951h3.049c0.552 0 1 0.448 1 1s-0.448 1-1 1h-3.049c-0.469 4.724-4.226 8.482-8.951 8.951v3.049c0 0.552-0.448 1-1 1s-1-0.448-1-1v-3.049c-4.724-0.469-8.482-4.226-8.951-8.951h-3.049c-0.552 0-1-0.448-1-1s0.448-1 1-1h3.049c0.469-4.724 4.226-8.482 8.951-8.951v-3.049c0-0.552 0.448-1 1-1s1 0.448 1 1zM15 8.062c-3.619 0.451-6.487 3.319-6.938 6.938h6.938v-6.938zM17 15h6.938c-0.451-3.619-3.319-6.487-6.938-6.938v6.938zM15 17h-6.938c0.451 3.619 3.319 6.487 6.938 6.938v-6.938zM17 23.938c3.619-0.451 6.487-3.319 6.938-6.938h-6.938v6.938z"></path>
</svg>
