<!-- Generated by IcoMoon.io -->
<svg version="1.1" xmlns="http://www.w3.org/2000/svg" width="20" height="20" viewBox="0 0 20 20">
<title>certificate</title>
<path d="M2.5 3.75c0-0.717 0.533-1.25 1.25-1.25h12.5c0.717 0 1.25 0.533 1.25 1.25v10c0 0.345 0.28 0.625 0.625 0.625s0.625-0.28 0.625-0.625v-10c0-1.408-1.092-2.5-2.5-2.5h-12.5c-1.408 0-2.5 1.092-2.5 2.5v10c0 1.408 1.092 2.5 2.5 2.5h1.875c0.345 0 0.625-0.28 0.625-0.625s-0.28-0.625-0.625-0.625h-1.875c-0.717 0-1.25-0.533-1.25-1.25v-10z"></path>
<path d="M11.875 10c-0.616 0-1.25 0.49-1.25 1.25 0 0.359 0.173 0.667 0.378 0.872s0.512 0.378 0.872 0.378c0.616 0 1.25-0.49 1.25-1.25 0-0.359-0.173-0.667-0.378-0.872s-0.512-0.378-0.872-0.378z"></path>
<path d="M11.875 6.875c-2.416 0-4.375 1.959-4.375 4.375 0 1.194 0.478 2.275 1.253 3.065-0.002 0.020-0.003 0.040-0.003 0.060v4.761l3.125-1.563 3.125 1.563v-4.761c0-0.020-0.001-0.040-0.003-0.060 0.775-0.789 1.253-1.871 1.253-3.065 0-2.416-1.959-4.375-4.375-4.375zM8.75 11.25c0-1.726 1.399-3.125 3.125-3.125s3.125 1.399 3.125 3.125c0 1.726-1.399 3.125-3.125 3.125s-3.125-1.399-3.125-3.125zM13.75 15.204v1.91l-1.875-0.938-1.875 0.938v-1.91c0.568 0.27 1.204 0.421 1.875 0.421s1.307-0.151 1.875-0.421z"></path>
<path d="M3.125 5c0-0.345 0.28-0.625 0.625-0.625h12.5c0.345 0 0.625 0.28 0.625 0.625s-0.28 0.625-0.625 0.625h-12.5c-0.345 0-0.625-0.28-0.625-0.625z"></path>
<path d="M3.75 6.875c-0.345 0-0.625 0.28-0.625 0.625s0.28 0.625 0.625 0.625h1.875c0.345 0 0.625-0.28 0.625-0.625s-0.28-0.625-0.625-0.625h-1.875z"></path>
<path d="M3.125 10c0-0.345 0.28-0.625 0.625-0.625h1.875c0.345 0 0.625 0.28 0.625 0.625s-0.28 0.625-0.625 0.625h-1.875c-0.345 0-0.625-0.28-0.625-0.625z"></path>
<path d="M3.75 11.875c-0.345 0-0.625 0.28-0.625 0.625s0.28 0.625 0.625 0.625h1.875c0.345 0 0.625-0.28 0.625-0.625s-0.28-0.625-0.625-0.625h-1.875z"></path>
</svg>
