<!-- Generated by IcoMoon.io -->
<svg version="1.1" xmlns="http://www.w3.org/2000/svg" width="20" height="20" viewBox="0 0 20 20">
<title>chart-bars-stack</title>
<path d="M13.75 1.25h5v15c0 1.408-1.092 2.5-2.5 2.5h-12.5c-1.408 0-2.5-1.092-2.5-2.5v-6.25h5v7.5h1.25v-10.625h5v10.625h1.25v-16.25zM11.25 17.5v-3.75h-2.5v3.75h2.5zM17.5 2.5h-2.5v6.25h2.5v-6.25zM11.25 12.5v-4.375h-2.5v4.375h2.5zM15 17.5h1.25c0.717 0 1.25-0.533 1.25-1.25v-6.25h-2.5v7.5zM5 13.75v-2.5h-2.5v2.5h2.5zM2.5 16.25c0 0.717 0.533 1.25 1.25 1.25h1.25v-2.5h-2.5v1.25z"></path>
</svg>
