<!-- Generated by IcoMoon.io -->
<svg version="1.1" xmlns="http://www.w3.org/2000/svg" width="32" height="32" viewBox="0 0 32 32">
<title>chart-line-dots</title>
<path d="M4 4v8.803l2.038-2.938c-0.341-0.54-0.538-1.18-0.538-1.865 0-1.933 1.567-3.5 3.5-3.5s3.5 1.567 3.5 3.5c0 1.018-0.435 1.935-1.129 2.575l2.022 4.425h5.877l2.481-5.819c-0.764-0.642-1.25-1.605-1.25-2.681 0-1.933 1.567-3.5 3.5-3.5s3.5 1.567 3.5 3.5c0 1.933-1.567 3.5-3.5 3.5-0.14 0-0.278-0.008-0.414-0.024l-2.142 5.024h7.556c0.552 0 1 0.448 1 1s-0.448 1-1 1h-8.409l-1.841 4.319c0.764 0.642 1.25 1.605 1.25 2.681 0 1.933-1.567 3.5-3.5 3.5s-3.5-1.567-3.5-3.5c0-1.018 0.435-1.935 1.129-2.575l-2.022-4.425h-8.107v11c0 0.552-0.448 1-1 1s-1-0.448-1-1v-11.987c-0-0.009-0-0.018 0-0.027v-11.986c0-0.552 0.448-1 1-1s1 0.448 1 1zM4.91 15h6.283l-1.62-3.547c-0.187 0.031-0.378 0.047-0.573 0.047-0.516 0-1.005-0.111-1.446-0.312l-2.644 3.812zM8.101 9.201c0.251 0.188 0.562 0.299 0.899 0.299 0.163 0 0.32-0.026 0.466-0.074 0.065-0.053 0.138-0.099 0.218-0.136 0.058-0.026 0.116-0.047 0.176-0.061 0.387-0.271 0.64-0.721 0.64-1.229 0-0.828-0.672-1.5-1.5-1.5s-1.5 0.672-1.5 1.5c0 0.368 0.133 0.706 0.353 0.967 0.006 0.004 0.011 0.008 0.017 0.011 0.091 0.063 0.168 0.139 0.231 0.223zM15.927 20.547c0.186-0.031 0.378-0.047 0.573-0.047 0.14 0 0.278 0.008 0.414 0.024l1.503-3.524h-4.111l1.62 3.547zM15.816 22.71c-0.058 0.026-0.117 0.047-0.176 0.061-0.387 0.271-0.64 0.721-0.64 1.229 0 0.828 0.672 1.5 1.5 1.5s1.5-0.672 1.5-1.5c0-0.828-0.672-1.5-1.5-1.5-0.163 0-0.32 0.026-0.466 0.074-0.065 0.053-0.138 0.099-0.218 0.136zM22.5 6.5c0 0.828 0.672 1.5 1.5 1.5s1.5-0.672 1.5-1.5c0-0.828-0.672-1.5-1.5-1.5s-1.5 0.672-1.5 1.5z"></path>
</svg>
