<!-- Generated by IcoMoon.io -->
<svg version="1.1" xmlns="http://www.w3.org/2000/svg" width="20" height="20" viewBox="0 0 20 20">
<title>chart-bars-axis</title>
<path d="M1.875 1.875c0.345 0 0.625 0.28 0.625 0.625v6.875h1.25v-6.25h3.75v6.25h6.25v-3.75h3.75v3.75h0.625c0.345 0 0.625 0.28 0.625 0.625s-0.28 0.625-0.625 0.625h-5.625v3.125h-3.75v-3.125h-6.25v6.875c0 0.345-0.28 0.625-0.625 0.625s-0.625-0.28-0.625-0.625v-15c0-0.345 0.28-0.625 0.625-0.625zM10 10.625v1.875h1.25v-1.875h-1.25zM16.25 9.375v-2.5h-1.25v2.5h1.25zM5 9.375h1.25v-5h-1.25v5z"></path>
</svg>
