<!-- Generated by IcoMoon.io -->
<svg version="1.1" xmlns="http://www.w3.org/2000/svg" width="20" height="20" viewBox="0 0 20 20">
<title>chart-line</title>
<path d="M1.875 1.875c0.345 0 0.625 0.28 0.625 0.625v3.402c0.588-0.716 1.414-1.215 2.5-1.215 1.327 0 2.163 0.796 2.718 1.784 0.467 0.833 0.786 1.89 1.075 2.903h6.165c0.413-1.946 0.58-4.086 0.668-5.66 0.019-0.345 0.314-0.609 0.659-0.589s0.608 0.314 0.589 0.659c-0.084 1.509-0.243 3.611-0.64 5.59h1.891c0.345 0 0.625 0.28 0.625 0.625s-0.28 0.625-0.625 0.625h-2.18c-0.015 0.056-0.030 0.112-0.046 0.168-0.324 1.165-0.768 2.268-1.396 3.092-0.638 0.838-1.503 1.428-2.628 1.428-1.38 0-2.278-0.766-2.883-1.766-0.508-0.839-0.848-1.901-1.143-2.921h-5.349v6.875c0 0.345-0.28 0.625-0.625 0.625s-0.625-0.28-0.625-0.625v-15c0-0.345 0.28-0.625 0.625-0.625zM2.527 9.375h4.964c-0.257-0.882-0.517-1.673-0.864-2.292-0.432-0.769-0.923-1.146-1.628-1.146-0.806 0-1.407 0.443-1.839 1.206-0.351 0.621-0.562 1.418-0.634 2.232zM9.152 10.625c0.262 0.875 0.538 1.661 0.909 2.274 0.459 0.758 1.006 1.164 1.814 1.164 0.625 0 1.156-0.309 1.634-0.935 0.463-0.608 0.84-1.475 1.138-2.502h-5.495z"></path>
</svg>
