<!-- Generated by IcoMoon.io -->
<svg version="1.1" xmlns="http://www.w3.org/2000/svg" width="20" height="20" viewBox="0 0 20 20">
<title>chart-lines</title>
<path d="M18.125 1.875c0-0.345-0.28-0.625-0.625-0.625s-0.625 0.28-0.625 0.625v14.375c0 0.717-0.533 1.25-1.25 1.25h-1.25v-13.125c0-0.345-0.28-0.625-0.625-0.625s-0.625 0.28-0.625 0.625v13.125h-2.5v-7.5c0-0.345-0.28-0.625-0.625-0.625s-0.625 0.28-0.625 0.625v7.5h-2.5v-10.625c0-0.345-0.28-0.625-0.625-0.625s-0.625 0.28-0.625 0.625v10.625h-1.25c-0.717 0-1.25-0.533-1.25-1.25v-5.625c0-0.345-0.28-0.625-0.625-0.625s-0.625 0.28-0.625 0.625v5.625c0 1.408 1.092 2.5 2.5 2.5h11.25c1.408 0 2.5-1.092 2.5-2.5v-14.375z"></path>
</svg>
