<!-- Generated by IcoMoon.io -->
<svg version="1.1" xmlns="http://www.w3.org/2000/svg" width="20" height="20" viewBox="0 0 20 20">
<title>charging-on</title>
<path d="M13.423 1.326c0.251 0.136 0.378 0.424 0.308 0.701l-1.681 6.723h2.949c0.249 0 0.473 0.147 0.573 0.375s0.054 0.493-0.115 0.675l-8.125 8.75c-0.194 0.209-0.505 0.26-0.756 0.124s-0.378-0.424-0.309-0.701l1.681-6.723h-2.95c-0.249 0-0.474-0.147-0.573-0.375s-0.054-0.493 0.115-0.675l8.125-8.75c0.194-0.209 0.505-0.26 0.756-0.124zM6.433 10h2.317c0.192 0 0.374 0.089 0.493 0.24s0.16 0.349 0.114 0.536l-1.286 5.142 5.496-5.919h-2.317c-0.192 0-0.374-0.089-0.493-0.24s-0.16-0.349-0.114-0.536l1.286-5.142-5.496 5.919z"></path>
<path d="M16.25 10c0-0.345 0.28-0.625 0.625-0.625h1.25c0.345 0 0.625 0.28 0.625 0.625s-0.28 0.625-0.625 0.625h-1.25c-0.345 0-0.625-0.28-0.625-0.625z"></path>
<path d="M1.875 9.375c-0.345 0-0.625 0.28-0.625 0.625s0.28 0.625 0.625 0.625h1.25c0.345 0 0.625-0.28 0.625-0.625s-0.28-0.625-0.625-0.625h-1.25z"></path>
<path d="M17.4 5.285c0.188 0.29 0.105 0.677-0.185 0.864l-1.063 0.688c-0.29 0.188-0.677 0.105-0.864-0.185s-0.105-0.677 0.185-0.864l1.063-0.688c0.29-0.188 0.677-0.105 0.864 0.185z"></path>
<path d="M4.527 14.212c0.29-0.188 0.373-0.574 0.185-0.864s-0.574-0.373-0.864-0.185l-1.063 0.688c-0.29 0.188-0.373 0.574-0.185 0.864s0.574 0.373 0.864 0.185l1.063-0.688z"></path>
<path d="M15.288 13.348c0.188-0.29 0.574-0.373 0.864-0.185l1.063 0.688c0.29 0.188 0.373 0.574 0.185 0.864s-0.574 0.373-0.864 0.185l-1.063-0.688c-0.29-0.188-0.373-0.574-0.185-0.864z"></path>
<path d="M3.465 5.1c-0.29-0.188-0.677-0.105-0.864 0.185s-0.105 0.677 0.185 0.864l1.063 0.688c0.29 0.188 0.677 0.105 0.864-0.185s0.105-0.677-0.185-0.864l-1.063-0.687z"></path>
</svg>
