<!-- Generated by IcoMoon.io -->
<svg version="1.1" xmlns="http://www.w3.org/2000/svg" width="32" height="32" viewBox="0 0 32 32">
<title>chart-area</title>
<path d="M29.468 7.47l-9.846-5.47-8.328 14.573-9.294 4.131v5.65c0 2.252 1.748 4 4 4h20c2.252 0 4-1.748 4-4 0-0.552-0.448-1-1-1s-1 0.448-1 1c0 1.148-0.852 2-2 2h-20c-1.148 0-2-0.852-2-2v-4.35l8.706-3.869 7.672-13.427 7.622 4.234v1.412c0 0.552 0.448 1 1 1s1-0.448 1-1v-1.98c0.001-0.042-0.001-0.084-0.006-0.126-0.015-0.146-0.062-0.283-0.134-0.404-0.094-0.158-0.23-0.288-0.393-0.374z"></path>
<path d="M29 13.354c0.552 0 1 0.448 1 1v2c0 0.552-0.448 1-1 1s-1-0.448-1-1v-2c0-0.552 0.448-1 1-1z"></path>
<path d="M30 20.354c0-0.552-0.448-1-1-1s-1 0.448-1 1v2c0 0.552 0.448 1 1 1s1-0.448 1-1v-2z"></path>
</svg>
