<!-- Generated by IcoMoon.io -->
<svg version="1.1" xmlns="http://www.w3.org/2000/svg" width="32" height="32" viewBox="0 0 32 32">
<title>chart-area-stack</title>
<path d="M19.622 2l9.846 5.47c0.037 0.020 0.072 0.041 0.106 0.065 0.12 0.084 0.217 0.191 0.287 0.311s0.117 0.256 0.132 0.401c0.005 0.042 0.006 0.084 0.006 0.127v1.98c0 0.552-0.448 1-1 1s-1-0.448-1-1v-1.412l-7.622-4.234-7.672 13.427-8.706 3.869v2.963l7.46-2.487 8.413-8.413 8.4 5.6c0.182-0.193 0.441-0.313 0.727-0.313 0.552 0 1 0.448 1 1v0.987c0 0.009 0 0.019 0 0.029v0.985c0 0.552-0.448 1-1 1s-1-0.448-1-1v-0.465l-7.873-5.248-7.587 7.587-8.431 2.81c0.265 0.786 0.986 1.316 1.891 1.316h20c1.148 0 2-0.852 2-2 0-0.552 0.448-1 1-1s1 0.448 1 1c0 2.252-1.748 4-4 4h-20c-2.243 0-3.986-1.734-4-3.974-0-0.017-0-0.033-0-0.050v-5.626l9.294-4.131 8.328-14.573z"></path>
<path d="M30 14.354c0-0.552-0.448-1-1-1s-1 0.448-1 1v2c0 0.552 0.448 1 1 1s1-0.448 1-1v-2z"></path>
</svg>
