<!-- Generated by IcoMoon.io -->
<svg version="1.1" xmlns="http://www.w3.org/2000/svg" width="32" height="32" viewBox="0 0 32 32">
<title>chart-pie</title>
<path d="M15 3v14h14c0.552 0 1-0.448 1-1 0-7.752-6.248-14-14-14-0.552 0-1 0.448-1 1zM17 4.041c5.847 0.478 10.481 5.113 10.959 10.959h-10.959v-10.959z"></path>
<path d="M12.311 4.551c0.525-0.172 0.811-0.736 0.64-1.261s-0.736-0.811-1.261-0.64c-5.596 1.829-9.689 7.102-9.689 13.351 0 7.752 6.248 14 14 14 6.24 0 11.63-4.087 13.357-9.811 0.16-0.529-0.14-1.087-0.668-1.246s-1.087 0.14-1.246 0.668c-1.472 4.877-6.082 8.389-11.443 8.389-6.648 0-12-5.352-12-12 0-5.352 3.507-9.879 8.311-11.45z"></path>
</svg>
