<!-- Generated by IcoMoon.io -->
<svg version="1.1" xmlns="http://www.w3.org/2000/svg" width="32" height="32" viewBox="0 0 32 32">
<title>charging-off</title>
<path d="M21.97 3.243c0.11-0.442-0.091-0.902-0.491-1.12s-0.896-0.139-1.208 0.193l-6.3 6.7c-0.378 0.402-0.359 1.035 0.043 1.414s1.035 0.359 1.414-0.043l3.67-3.903-1.669 6.676c-0.134 0.536 0.192 1.079 0.728 1.213s1.079-0.192 1.213-0.728l2.6-10.4z"></path>
<path d="M3.707 2.293c-0.391-0.391-1.024-0.391-1.414 0s-0.391 1.024 0 1.414l8.624 8.624-3.654 3.994c-0.268 0.293-0.337 0.715-0.177 1.078s0.519 0.597 0.915 0.597h4.719l-2.689 10.758c-0.11 0.442 0.092 0.903 0.492 1.121s0.897 0.138 1.208-0.195l7.994-8.545 8.569 8.569c0.39 0.391 1.024 0.391 1.414 0s0.39-1.024 0-1.414l-26-26zM10.27 16l2.062-2.254 5.977 5.977-5.403 5.776 2.064-8.256c0.075-0.299 0.008-0.615-0.182-0.858s-0.48-0.385-0.788-0.385h-3.73z"></path>
<path d="M20 14c-0.552 0-1 0.448-1 1s0.448 1 1 1h1.747l-0.388 0.429c-0.371 0.41-0.339 1.042 0.071 1.413s1.042 0.339 1.412-0.071l1.9-2.1c0.265-0.293 0.333-0.715 0.172-1.076s-0.519-0.594-0.914-0.594h-4z"></path>
</svg>
