<!-- Generated by IcoMoon.io -->
<svg version="1.1" xmlns="http://www.w3.org/2000/svg" width="20" height="20" viewBox="0 0 20 20">
<title>charging-fast</title>
<path d="M16.856 2.027c0.069-0.277-0.058-0.565-0.308-0.701s-0.562-0.085-0.756 0.124l-8.125 8.75c-0.169 0.182-0.214 0.447-0.115 0.675s0.324 0.375 0.573 0.375h2.949l-1.681 6.723c-0.069 0.277 0.058 0.565 0.308 0.701s0.562 0.085 0.756-0.124l8.125-8.75c0.169-0.182 0.214-0.447 0.115-0.675s-0.324-0.375-0.573-0.375h-2.949l1.681-6.723zM11.875 10h-2.317l5.496-5.919-1.286 5.142c-0.047 0.187-0.005 0.384 0.114 0.536s0.3 0.24 0.493 0.24h2.317l-5.496 5.919 1.286-5.142c0.047-0.187 0.005-0.385-0.114-0.536s-0.3-0.24-0.493-0.24z"></path>
<path d="M10.606 2.028c0.070-0.277-0.057-0.566-0.307-0.702s-0.562-0.085-0.757 0.124l-8.125 8.75c-0.169 0.182-0.214 0.447-0.115 0.675s0.324 0.375 0.573 0.375h2.95l-1.681 6.723c-0.069 0.277 0.058 0.566 0.309 0.702s0.563 0.084 0.756-0.126l5.187-5.625c0.234-0.254 0.218-0.649-0.036-0.883s-0.649-0.218-0.883 0.036l-3.528 3.826 1.281-5.125c0.047-0.187 0.005-0.385-0.114-0.536s-0.3-0.24-0.493-0.24h-2.317l5.487-5.909-0.776 3.068c-0.085 0.335 0.118 0.674 0.453 0.759s0.674-0.118 0.759-0.453l1.375-5.438z"></path>
</svg>
