<!-- Generated by IcoMoon.io -->
<svg version="1.1" xmlns="http://www.w3.org/2000/svg" width="32" height="32" viewBox="0 0 32 32">
<title>chart-line</title>
<path d="M3 3c0.552 0 1 0.448 1 1v5.443c0.94-1.145 2.263-1.943 4-1.943 2.123 0 3.461 1.273 4.349 2.854 0.747 1.332 1.258 3.024 1.72 4.646h9.864c0.662-3.114 0.929-6.538 1.069-9.055 0.031-0.551 0.503-0.974 1.054-0.943s0.974 0.502 0.943 1.054c-0.134 2.415-0.389 5.777-1.024 8.945h3.025c0.552 0 1 0.448 1 1s-0.448 1-1 1h-3.489c-0.024 0.090-0.048 0.179-0.073 0.268-0.519 1.864-1.23 3.629-2.233 4.947-1.021 1.341-2.405 2.285-4.205 2.285-2.208 0-3.644-1.226-4.613-2.826-0.813-1.342-1.357-3.041-1.829-4.674h-8.558v11c0 0.552-0.448 1-1 1s-1-0.448-1-1v-24c0-0.552 0.448-1 1-1zM4.044 15h7.943c-0.411-1.411-0.827-2.677-1.382-3.667-0.691-1.231-1.477-1.833-2.604-1.833-1.29 0-2.252 0.709-2.942 1.93-0.561 0.993-0.9 2.269-1.014 3.57zM14.643 17c0.419 1.4 0.861 2.658 1.455 3.638 0.734 1.212 1.61 1.862 2.902 1.862 1 0 1.85-0.494 2.614-1.497 0.741-0.973 1.343-2.36 1.821-4.003h-8.792z"></path>
</svg>
