<!-- Generated by IcoMoon.io -->
<svg version="1.1" xmlns="http://www.w3.org/2000/svg" width="20" height="20" viewBox="0 0 20 20">
<title>charging-off</title>
<path d="M13.731 2.027c0.069-0.276-0.057-0.564-0.307-0.7s-0.56-0.087-0.755 0.12l-3.938 4.188c-0.236 0.251-0.224 0.647 0.027 0.883s0.647 0.224 0.883-0.027l2.294-2.44-1.043 4.172c-0.084 0.335 0.12 0.674 0.455 0.758s0.674-0.12 0.758-0.455l1.625-6.5z"></path>
<path d="M2.317 1.433c-0.244-0.244-0.64-0.244-0.884 0s-0.244 0.64 0 0.884l5.39 5.39-2.284 2.496c-0.167 0.183-0.211 0.447-0.111 0.674s0.324 0.373 0.572 0.373h2.95l-1.681 6.723c-0.069 0.276 0.057 0.564 0.308 0.701s0.561 0.086 0.755-0.122l4.996-5.341 5.356 5.356c0.244 0.244 0.64 0.244 0.884 0s0.244-0.64 0-0.884l-16.25-16.25zM6.419 10l1.289-1.408 3.736 3.736-3.377 3.61 1.29-5.16c0.047-0.187 0.005-0.385-0.114-0.536s-0.3-0.24-0.493-0.24h-2.331z"></path>
<path d="M12.5 8.75c-0.345 0-0.625 0.28-0.625 0.625s0.28 0.625 0.625 0.625h1.092l-0.243 0.268c-0.232 0.256-0.212 0.651 0.044 0.883s0.651 0.212 0.883-0.044l1.188-1.312c0.166-0.183 0.208-0.447 0.108-0.673s-0.324-0.372-0.571-0.372h-2.5z"></path>
</svg>
