<!-- Generated by IcoMoon.io -->
<svg version="1.1" xmlns="http://www.w3.org/2000/svg" width="32" height="32" viewBox="0 0 32 32">
<title>charging</title>
<path d="M21.493 2.13c0.391 0.221 0.587 0.677 0.477 1.113l-2.689 10.757h5.719c0.404 0 0.769 0.244 0.924 0.617s0.069 0.804-0.217 1.090l-14 14c-0.318 0.318-0.809 0.385-1.2 0.163s-0.586-0.677-0.477-1.113l2.689-10.758h-5.719c-0.404 0-0.769-0.244-0.924-0.617s-0.069-0.804 0.217-1.090l14-14c0.318-0.318 0.809-0.385 1.2-0.163zM9.414 16h4.586c0.308 0 0.599 0.142 0.788 0.385s0.257 0.559 0.182 0.858l-2.124 8.497 9.74-9.74h-4.586c-0.308 0-0.599-0.142-0.788-0.385s-0.257-0.559-0.182-0.858l2.124-8.498-9.74 9.74z"></path>
</svg>
