<!-- Generated by IcoMoon.io -->
<svg version="1.1" xmlns="http://www.w3.org/2000/svg" width="20" height="20" viewBox="0 0 20 20">
<title>chart-line-dots</title>
<path d="M2.5 2.5v5.502l1.274-1.836c-0.213-0.337-0.336-0.737-0.336-1.166 0-1.208 0.979-2.188 2.188-2.188s2.188 0.979 2.188 2.188c0 0.637-0.272 1.21-0.706 1.609l1.264 2.766h3.673l1.551-3.637c-0.478-0.401-0.781-1.003-0.781-1.676 0-1.208 0.979-2.188 2.188-2.188s2.188 0.979 2.188 2.188c0 1.208-0.979 2.188-2.188 2.188-0.088 0-0.174-0.005-0.259-0.015l-1.339 3.14h4.723c0.345 0 0.625 0.28 0.625 0.625s-0.28 0.625-0.625 0.625h-5.256l-1.151 2.699c0.478 0.401 0.781 1.003 0.781 1.676 0 1.208-0.979 2.188-2.188 2.188s-2.188-0.979-2.188-2.188c0-0.637 0.272-1.21 0.706-1.609l-1.264-2.766h-5.067v6.875c0 0.345-0.28 0.625-0.625 0.625s-0.625-0.28-0.625-0.625v-7.492c-0-0.006-0-0.011 0-0.017v-7.491c0-0.345 0.28-0.625 0.625-0.625s0.625 0.28 0.625 0.625zM3.069 9.375h3.927l-1.013-2.217c-0.117 0.019-0.236 0.029-0.358 0.029-0.322 0-0.628-0.070-0.904-0.195l-1.652 2.382zM5.063 5.751c0.157 0.117 0.351 0.187 0.562 0.187 0.102 0 0.2-0.016 0.291-0.046 0.041-0.033 0.086-0.062 0.136-0.085 0.036-0.016 0.073-0.029 0.11-0.038 0.242-0.17 0.4-0.45 0.4-0.768 0-0.518-0.42-0.938-0.938-0.938s-0.938 0.42-0.938 0.938c0 0.23 0.083 0.441 0.221 0.604 0.003 0.002 0.007 0.005 0.010 0.007 0.057 0.039 0.105 0.087 0.144 0.139zM9.954 12.842c0.117-0.019 0.236-0.029 0.358-0.029 0.088 0 0.174 0.005 0.259 0.015l0.939-2.203h-2.569l1.013 2.217zM9.885 14.193c-0.036 0.016-0.073 0.029-0.11 0.038-0.242 0.17-0.4 0.45-0.4 0.768 0 0.518 0.42 0.938 0.938 0.938s0.938-0.42 0.938-0.938c0-0.518-0.42-0.938-0.938-0.938-0.102 0-0.2 0.016-0.291 0.046-0.041 0.033-0.086 0.062-0.136 0.085zM14.063 4.063c0 0.518 0.42 0.938 0.938 0.938s0.938-0.42 0.938-0.938c0-0.518-0.42-0.938-0.938-0.938s-0.938 0.42-0.938 0.938z"></path>
</svg>
