<!-- Generated by IcoMoon.io -->
<svg version="1.1" xmlns="http://www.w3.org/2000/svg" width="20" height="20" viewBox="0 0 20 20">
<title>chart-area</title>
<path d="M18.417 4.669l-6.154-3.419-5.205 9.108-5.809 2.582v3.531c0 1.408 1.092 2.5 2.5 2.5h12.5c1.408 0 2.5-1.092 2.5-2.5 0-0.345-0.28-0.625-0.625-0.625s-0.625 0.28-0.625 0.625c0 0.717-0.533 1.25-1.25 1.25h-12.5c-0.717 0-1.25-0.533-1.25-1.25v-2.719l5.441-2.418 4.795-8.392 4.764 2.647v0.882c0 0.345 0.28 0.625 0.625 0.625s0.625-0.28 0.625-0.625v-1.238c0.001-0.026-0.001-0.053-0.003-0.079-0.010-0.091-0.039-0.177-0.084-0.252-0.059-0.099-0.144-0.18-0.245-0.234z"></path>
<path d="M18.125 8.346c0.345 0 0.625 0.28 0.625 0.625v1.25c0 0.345-0.28 0.625-0.625 0.625s-0.625-0.28-0.625-0.625v-1.25c0-0.345 0.28-0.625 0.625-0.625z"></path>
<path d="M18.75 12.721c0-0.345-0.28-0.625-0.625-0.625s-0.625 0.28-0.625 0.625v1.25c0 0.345 0.28 0.625 0.625 0.625s0.625-0.28 0.625-0.625v-1.25z"></path>
</svg>
