<!-- Generated by IcoMoon.io -->
<svg version="1.1" xmlns="http://www.w3.org/2000/svg" width="20" height="20" viewBox="0 0 20 20">
<title>chart-pie</title>
<path d="M9.375 1.875v8.75h8.75c0.345 0 0.625-0.28 0.625-0.625 0-4.845-3.905-8.75-8.75-8.75-0.345 0-0.625 0.28-0.625 0.625zM10.625 2.525c3.654 0.299 6.551 3.195 6.85 6.85h-6.85v-6.85z"></path>
<path d="M7.694 2.844c0.328-0.107 0.507-0.46 0.4-0.788s-0.46-0.507-0.788-0.4c-3.498 1.143-6.056 4.439-6.056 8.344 0 4.845 3.905 8.75 8.75 8.75 3.9 0 7.268-2.555 8.348-6.132 0.1-0.33-0.087-0.679-0.418-0.779s-0.679 0.087-0.779 0.418c-0.92 3.048-3.801 5.243-7.152 5.243-4.155 0-7.5-3.345-7.5-7.5 0-3.345 2.192-6.174 5.194-7.156z"></path>
</svg>
