<!-- Generated by IcoMoon.io -->
<svg version="1.1" xmlns="http://www.w3.org/2000/svg" width="20" height="20" viewBox="0 0 20 20">
<title>charging</title>
<path d="M13.433 1.331c0.244 0.138 0.367 0.423 0.298 0.695l-1.681 6.723h3.574c0.253 0 0.481 0.152 0.577 0.386s0.043 0.502-0.136 0.681l-8.75 8.75c-0.199 0.199-0.505 0.24-0.75 0.102s-0.367-0.423-0.298-0.695l1.681-6.723h-3.574c-0.253 0-0.481-0.152-0.577-0.386s-0.043-0.502 0.135-0.681l8.75-8.75c0.199-0.199 0.505-0.24 0.75-0.102zM5.884 10h2.866c0.192 0 0.374 0.089 0.493 0.24s0.16 0.349 0.114 0.536l-1.328 5.311 6.088-6.088h-2.866c-0.192 0-0.374-0.089-0.493-0.24s-0.16-0.349-0.114-0.536l1.328-5.311-6.088 6.088z"></path>
</svg>
