<!-- Generated by IcoMoon.io -->
<svg version="1.1" xmlns="http://www.w3.org/2000/svg" width="20" height="20" viewBox="0 0 20 20">
<title>chart-area-stack</title>
<path d="M12.264 1.25l6.154 3.419c0.023 0.012 0.045 0.026 0.066 0.041 0.075 0.053 0.135 0.119 0.18 0.195s0.073 0.16 0.083 0.25c0.003 0.026 0.004 0.053 0.003 0.079v1.238c0 0.345-0.28 0.625-0.625 0.625s-0.625-0.28-0.625-0.625v-0.882l-4.764-2.647-4.795 8.392-5.441 2.418v1.852l4.662-1.554 5.258-5.258 5.25 3.5c0.114-0.121 0.275-0.196 0.454-0.196 0.345 0 0.625 0.28 0.625 0.625v0.617c0 0.006 0 0.012 0 0.018v0.616c0 0.345-0.28 0.625-0.625 0.625s-0.625-0.28-0.625-0.625v-0.291l-4.92-3.28-4.742 4.742-5.269 1.756c0.166 0.491 0.616 0.822 1.182 0.822h12.5c0.717 0 1.25-0.533 1.25-1.25 0-0.345 0.28-0.625 0.625-0.625s0.625 0.28 0.625 0.625c0 1.408-1.092 2.5-2.5 2.5h-12.5c-1.402 0-2.491-1.084-2.5-2.483-0-0.010-0-0.021-0-0.031v-3.517l5.809-2.582 5.205-9.108z"></path>
<path d="M18.75 8.971c0-0.345-0.28-0.625-0.625-0.625s-0.625 0.28-0.625 0.625v1.25c0 0.345 0.28 0.625 0.625 0.625s0.625-0.28 0.625-0.625v-1.25z"></path>
</svg>
