<!-- Generated by IcoMoon.io -->
<svg version="1.1" xmlns="http://www.w3.org/2000/svg" width="20" height="20" viewBox="0 0 20 20">
<title>chart-pie-alt</title>
<path d="M18.538 11.924c0.004-0.013 0.007-0.026 0.010-0.040s0.006-0.028 0.008-0.042c0.127-0.594 0.194-1.211 0.194-1.843 0-4.833-3.918-8.75-8.75-8.75s-8.75 3.918-8.75 8.75c0 4.832 3.917 8.75 8.75 8.75 4.171 0 7.661-2.919 8.538-6.826zM10.625 9.063v-6.537c2.631 0.217 4.877 1.792 6.035 4.022l-6.035 2.515zM12.067 9.816l5.074-2.114c0.233 0.724 0.359 1.497 0.359 2.298 0 0.339-0.022 0.672-0.066 0.999l-5.367-1.183zM9.865 10.61l0.003 0.001 7.298 1.609c-0.946 3.058-3.797 5.28-7.166 5.28-4.142 0-7.5-3.358-7.5-7.5 0-3.932 3.025-7.157 6.875-7.474v7.462c-0.006 0.286 0.186 0.546 0.471 0.618 0.006 0.002 0.013 0.003 0.019 0.004z"></path>
</svg>
