<!-- Generated by IcoMoon.io -->
<svg version="1.1" xmlns="http://www.w3.org/2000/svg" width="20" height="20" viewBox="0 0 20 20">
<title>chip</title>
<path d="M8.125 1.875c0-0.345-0.28-0.625-0.625-0.625s-0.625 0.28-0.625 0.625v1.25c0 0.345 0.28 0.625 0.625 0.625s0.625-0.28 0.625-0.625v-1.25z"></path>
<path d="M4.375 7.125c0-1.533 1.217-2.75 2.75-2.75h5.75c1.533 0 2.75 1.217 2.75 2.75v5.75c0 1.533-1.217 2.75-2.75 2.75h-5.75c-1.533 0-2.75-1.217-2.75-2.75v-5.75zM7.125 5.625c-0.842 0-1.5 0.658-1.5 1.5v5.75c0 0.842 0.658 1.5 1.5 1.5h5.75c0.842 0 1.5-0.658 1.5-1.5v-5.75c0-0.842-0.658-1.5-1.5-1.5h-5.75z"></path>
<path d="M1.25 7.5c0-0.345 0.28-0.625 0.625-0.625h1.25c0.345 0 0.625 0.28 0.625 0.625s-0.28 0.625-0.625 0.625h-1.25c-0.345 0-0.625-0.28-0.625-0.625z"></path>
<path d="M1.875 9.375c-0.345 0-0.625 0.28-0.625 0.625s0.28 0.625 0.625 0.625h1.25c0.345 0 0.625-0.28 0.625-0.625s-0.28-0.625-0.625-0.625h-1.25z"></path>
<path d="M1.25 12.5c0-0.345 0.28-0.625 0.625-0.625h1.25c0.345 0 0.625 0.28 0.625 0.625s-0.28 0.625-0.625 0.625h-1.25c-0.345 0-0.625-0.28-0.625-0.625z"></path>
<path d="M16.875 6.875c-0.345 0-0.625 0.28-0.625 0.625s0.28 0.625 0.625 0.625h1.25c0.345 0 0.625-0.28 0.625-0.625s-0.28-0.625-0.625-0.625h-1.25z"></path>
<path d="M16.25 10c0-0.345 0.28-0.625 0.625-0.625h1.25c0.345 0 0.625 0.28 0.625 0.625s-0.28 0.625-0.625 0.625h-1.25c-0.345 0-0.625-0.28-0.625-0.625z"></path>
<path d="M16.875 11.875c-0.345 0-0.625 0.28-0.625 0.625s0.28 0.625 0.625 0.625h1.25c0.345 0 0.625-0.28 0.625-0.625s-0.28-0.625-0.625-0.625h-1.25z"></path>
<path d="M7.5 16.25c0.345 0 0.625 0.28 0.625 0.625v1.25c0 0.345-0.28 0.625-0.625 0.625s-0.625-0.28-0.625-0.625v-1.25c0-0.345 0.28-0.625 0.625-0.625z"></path>
<path d="M10.625 16.875c0-0.345-0.28-0.625-0.625-0.625s-0.625 0.28-0.625 0.625v1.25c0 0.345 0.28 0.625 0.625 0.625s0.625-0.28 0.625-0.625v-1.25z"></path>
<path d="M12.5 16.25c0.345 0 0.625 0.28 0.625 0.625v1.25c0 0.345-0.28 0.625-0.625 0.625s-0.625-0.28-0.625-0.625v-1.25c0-0.345 0.28-0.625 0.625-0.625z"></path>
<path d="M10 1.25c0.345 0 0.625 0.28 0.625 0.625v1.25c0 0.345-0.28 0.625-0.625 0.625s-0.625-0.28-0.625-0.625v-1.25c0-0.345 0.28-0.625 0.625-0.625z"></path>
<path d="M13.125 1.875c0-0.345-0.28-0.625-0.625-0.625s-0.625 0.28-0.625 0.625v1.25c0 0.345 0.28 0.625 0.625 0.625s0.625-0.28 0.625-0.625v-1.25z"></path>
</svg>
