<!-- Generated by IcoMoon.io -->
<svg version="1.1" xmlns="http://www.w3.org/2000/svg" width="20" height="20" viewBox="0 0 20 20">
<title>chip</title>
<path d="M8.203 6.25c-1.087 0-1.953 0.866-1.953 1.953v3.594c0 1.087 0.866 1.953 1.953 1.953h3.594c1.087 0 1.953-0.866 1.953-1.953v-3.594c0-1.087-0.866-1.953-1.953-1.953h-3.594zM7.5 8.203c0-0.397 0.306-0.703 0.703-0.703h3.594c0.397 0 0.703 0.306 0.703 0.703v3.594c0 0.397-0.306 0.703-0.703 0.703h-3.594c-0.397 0-0.703-0.306-0.703-0.703v-3.594z"></path>
<path d="M7.5 0.625c-0.345 0-0.625 0.28-0.625 0.625v1.875c-2.071 0-3.75 1.679-3.75 3.75h-1.875c-0.345 0-0.625 0.28-0.625 0.625s0.28 0.625 0.625 0.625h1.875v1.25h-1.875c-0.345 0-0.625 0.28-0.625 0.625s0.28 0.625 0.625 0.625h1.875v1.25h-1.875c-0.345 0-0.625 0.28-0.625 0.625s0.28 0.625 0.625 0.625h1.875c0 2.071 1.679 3.75 3.75 3.75v1.875c0 0.345 0.28 0.625 0.625 0.625s0.625-0.28 0.625-0.625v-1.875h1.25v1.875c0 0.345 0.28 0.625 0.625 0.625s0.625-0.28 0.625-0.625v-1.875h1.25v1.875c0 0.345 0.28 0.625 0.625 0.625s0.625-0.28 0.625-0.625v-1.875c2.071 0 3.75-1.679 3.75-3.75h1.875c0.345 0 0.625-0.28 0.625-0.625s-0.28-0.625-0.625-0.625h-1.875v-1.25h1.875c0.345 0 0.625-0.28 0.625-0.625s-0.28-0.625-0.625-0.625h-1.875v-1.25h1.875c0.345 0 0.625-0.28 0.625-0.625s-0.28-0.625-0.625-0.625h-1.875c0-2.071-1.679-3.75-3.75-3.75v-1.875c0-0.345-0.28-0.625-0.625-0.625s-0.625 0.28-0.625 0.625v1.875h-1.25v-1.875c0-0.345-0.28-0.625-0.625-0.625s-0.625 0.28-0.625 0.625v1.875h-1.25v-1.875c0-0.345-0.28-0.625-0.625-0.625zM4.375 6.875c0-1.381 1.119-2.5 2.5-2.5h6.25c1.381 0 2.5 1.119 2.5 2.5v6.25c0 1.381-1.119 2.5-2.5 2.5h-6.25c-1.381 0-2.5-1.119-2.5-2.5v-6.25z"></path>
</svg>
