<!-- Generated by IcoMoon.io -->
<svg version="1.1" xmlns="http://www.w3.org/2000/svg" width="32" height="32" viewBox="0 0 32 32">
<title>chip</title>
<path d="M13 3c0-0.552-0.448-1-1-1s-1 0.448-1 1v2c0 0.552 0.448 1 1 1s1-0.448 1-1v-2z"></path>
<path d="M7 11.4c0-2.452 1.948-4.4 4.4-4.4h9.2c2.452 0 4.4 1.948 4.4 4.4v9.2c0 2.452-1.948 4.4-4.4 4.4h-9.2c-2.452 0-4.4-1.948-4.4-4.4v-9.2zM11.4 9c-1.348 0-2.4 1.052-2.4 2.4v9.2c0 1.348 1.052 2.4 2.4 2.4h9.2c1.348 0 2.4-1.052 2.4-2.4v-9.2c0-1.348-1.052-2.4-2.4-2.4h-9.2z"></path>
<path d="M2 12c0-0.552 0.448-1 1-1h2c0.552 0 1 0.448 1 1s-0.448 1-1 1h-2c-0.552 0-1-0.448-1-1z"></path>
<path d="M3 15c-0.552 0-1 0.448-1 1s0.448 1 1 1h2c0.552 0 1-0.448 1-1s-0.448-1-1-1h-2z"></path>
<path d="M2 20c0-0.552 0.448-1 1-1h2c0.552 0 1 0.448 1 1s-0.448 1-1 1h-2c-0.552 0-1-0.448-1-1z"></path>
<path d="M27 11c-0.552 0-1 0.448-1 1s0.448 1 1 1h2c0.552 0 1-0.448 1-1s-0.448-1-1-1h-2z"></path>
<path d="M26 16c0-0.552 0.448-1 1-1h2c0.552 0 1 0.448 1 1s-0.448 1-1 1h-2c-0.552 0-1-0.448-1-1z"></path>
<path d="M27 19c-0.552 0-1 0.448-1 1s0.448 1 1 1h2c0.552 0 1-0.448 1-1s-0.448-1-1-1h-2z"></path>
<path d="M12 26c0.552 0 1 0.448 1 1v2c0 0.552-0.448 1-1 1s-1-0.448-1-1v-2c0-0.552 0.448-1 1-1z"></path>
<path d="M17 27c0-0.552-0.448-1-1-1s-1 0.448-1 1v2c0 0.552 0.448 1 1 1s1-0.448 1-1v-2z"></path>
<path d="M20 26c0.552 0 1 0.448 1 1v2c0 0.552-0.448 1-1 1s-1-0.448-1-1v-2c0-0.552 0.448-1 1-1z"></path>
<path d="M16 2c0.552 0 1 0.448 1 1v2c0 0.552-0.448 1-1 1s-1-0.448-1-1v-2c0-0.552 0.448-1 1-1z"></path>
<path d="M21 3c0-0.552-0.448-1-1-1s-1 0.448-1 1v2c0 0.552 0.448 1 1 1s1-0.448 1-1v-2z"></path>
</svg>
