<!-- Generated by IcoMoon.io -->
<svg version="1.1" xmlns="http://www.w3.org/2000/svg" width="20" height="20" viewBox="0 0 20 20">
<title>clipboard-paste</title>
<path d="M5 3.75c-0.717 0-1.25 0.533-1.25 1.25v11.25c0 0.717 0.533 1.25 1.25 1.25h3.75c0.345 0 0.625 0.28 0.625 0.625s-0.28 0.625-0.625 0.625h-3.75c-1.408 0-2.5-1.092-2.5-2.5v-11.25c0-1.408 1.092-2.5 2.5-2.5h2.197c0.424-0.754 1.23-1.25 2.178-1.25h1.25c0.948 0 1.754 0.496 2.178 1.25h2.197c1.408 0 2.5 1.092 2.5 2.5v3.125c0 0.345-0.28 0.625-0.625 0.625s-0.625-0.28-0.625-0.625v-3.125c0-0.717-0.533-1.25-1.25-1.25h-1.875v0.107c0.727 0.258 1.25 0.954 1.25 1.768v1.25h-8.75v-1.25c0-0.814 0.523-1.509 1.25-1.768v-0.107h-1.875zM9.375 2.5c-0.717 0-1.25 0.533-1.25 1.25v1.25h-0.625c-0.342 0-0.625 0.283-0.625 0.625h6.25c0-0.342-0.283-0.625-0.625-0.625h-0.625v-1.25c0-0.717-0.533-1.25-1.25-1.25h-1.25z"></path>
<path d="M13.75 14.741l-0.808-0.808c-0.244-0.244-0.64-0.244-0.884 0s-0.244 0.64 0 0.884l2.317 2.317 2.317-2.317c0.244-0.244 0.244-0.64 0-0.884s-0.64-0.244-0.884 0l-0.808 0.808v-2.241c0-0.345-0.28-0.625-0.625-0.625s-0.625 0.28-0.625 0.625v2.241z"></path>
<path d="M14.375 9.375c-2.761 0-5 2.239-5 5s2.239 5 5 5c2.761 0 5-2.239 5-5s-2.239-5-5-5zM10.625 14.375c0-2.071 1.679-3.75 3.75-3.75s3.75 1.679 3.75 3.75c0 2.071-1.679 3.75-3.75 3.75s-3.75-1.679-3.75-3.75z"></path>
</svg>
