<!-- Generated by IcoMoon.io -->
<svg version="1.1" xmlns="http://www.w3.org/2000/svg" width="20" height="20" viewBox="0 0 20 20">
<title>clipboard</title>
<path d="M12.803 2.5h2.197c1.408 0 2.5 1.092 2.5 2.5v11.25c0 1.408-1.092 2.5-2.5 2.5h-10c-1.408 0-2.5-1.092-2.5-2.5v-11.25c0-1.408 1.092-2.5 2.5-2.5h2.197c0.424-0.754 1.23-1.25 2.178-1.25h1.25c0.948 0 1.754 0.496 2.178 1.25zM6.875 3.75h-1.875c-0.717 0-1.25 0.533-1.25 1.25v11.25c0 0.717 0.533 1.25 1.25 1.25h10c0.717 0 1.25-0.533 1.25-1.25v-11.25c0-0.717-0.533-1.25-1.25-1.25h-1.875v0.107c0.727 0.258 1.25 0.954 1.25 1.768v1.25h-8.75v-1.25c0-0.814 0.523-1.509 1.25-1.768v-0.107zM8.125 3.75v1.25h-0.625c-0.342 0-0.625 0.283-0.625 0.625h6.25c0-0.342-0.283-0.625-0.625-0.625h-0.625v-1.25c0-0.717-0.533-1.25-1.25-1.25h-1.25c-0.717 0-1.25 0.533-1.25 1.25z"></path>
</svg>
