<!-- Generated by IcoMoon.io -->
<svg version="1.1" xmlns="http://www.w3.org/2000/svg" width="20" height="20" viewBox="0 0 20 20">
<title>clock</title>
<path d="M10.625 5c0-0.345-0.28-0.625-0.625-0.625s-0.625 0.28-0.625 0.625v5.386l4.096 2.048c0.309 0.154 0.684 0.029 0.838-0.279s0.029-0.684-0.279-0.838l-3.404-1.702v-4.614z"></path>
<path d="M10 1.25c-4.832 0-8.75 3.918-8.75 8.75s3.918 8.75 8.75 8.75c4.832 0 8.75-3.918 8.75-8.75s-3.918-8.75-8.75-8.75zM2.5 10c0-4.142 3.358-7.5 7.5-7.5s7.5 3.358 7.5 7.5c0 4.142-3.358 7.5-7.5 7.5s-7.5-3.358-7.5-7.5z"></path>
</svg>
