<!-- Generated by IcoMoon.io -->
<svg version="1.1" xmlns="http://www.w3.org/2000/svg" width="20" height="20" viewBox="0 0 20 20">
<title>clone-w-e</title>
<path d="M2.5 3.75c0-0.717 0.533-1.25 1.25-1.25h6.875c0.717 0 1.25 0.533 1.25 1.25v0.625c0 0.345 0.28 0.625 0.625 0.625s0.625-0.28 0.625-0.625v-0.625c0-1.408-1.092-2.5-2.5-2.5h-6.875c-1.408 0-2.5 1.092-2.5 2.5v12.5c0 1.408 1.092 2.5 2.5 2.5h6.875c1.408 0 2.5-1.092 2.5-2.5v-0.625c0-0.345-0.28-0.625-0.625-0.625s-0.625 0.28-0.625 0.625v0.625c0 0.717-0.533 1.25-1.25 1.25h-6.875c-0.717 0-1.25-0.533-1.25-1.25v-12.5z"></path>
<path d="M14.375 1.25c-0.345 0-0.625 0.28-0.625 0.625s0.28 0.625 0.625 0.625h1.875c0.717 0 1.25 0.533 1.25 1.25v12.5c0 0.717-0.533 1.25-1.25 1.25h-1.875c-0.345 0-0.625 0.28-0.625 0.625s0.28 0.625 0.625 0.625h1.875c1.408 0 2.5-1.092 2.5-2.5v-12.5c0-1.408-1.092-2.5-2.5-2.5h-1.875z"></path>
<path d="M15.442 9.558l0.442 0.442-0.442 0.442c0-0-0 0 0 0l-3.125 3.125c-0.244 0.244-0.64 0.244-0.884 0s-0.244-0.64 0-0.884l2.058-2.058h-7.866c-0.345 0-0.625-0.28-0.625-0.625s0.28-0.625 0.625-0.625h7.866l-2.058-2.058c-0.244-0.244-0.244-0.64 0-0.884s0.64-0.244 0.884 0l3.125 3.125c0 0 0 0 0.001 0.001z"></path>
</svg>
