<!-- Generated by IcoMoon.io -->
<svg version="1.1" xmlns="http://www.w3.org/2000/svg" width="20" height="20" viewBox="0 0 20 20">
<title>cloud-upload</title>
<path d="M8.123 7.239c0.162-1.938 1.777-3.489 3.752-3.489 2.092 0 3.75 1.658 3.75 3.75 0 0.455-0.058 0.861-0.199 1.191l-0.264 0.615 0.632 0.221c1.018 0.356 1.707 1.257 1.707 2.348 0 1.405-1.095 2.5-2.5 2.5h-1.875c-0.345 0-0.625 0.28-0.625 0.625s0.28 0.625 0.625 0.625h1.875c2.095 0 3.75-1.655 3.75-3.75 0-1.443-0.802-2.651-1.986-3.283 0.083-0.367 0.111-0.74 0.111-1.092 0-2.783-2.217-5-5-5-2.383 0-4.349 1.677-4.876 3.878-0.333-0.080-0.683-0.128-1.061-0.128-2.595 0-4.688 2.092-4.688 4.687s2.092 4.688 4.688 4.688h0.938c0.345 0 0.625-0.28 0.625-0.625s-0.28-0.625-0.625-0.625h-0.938c-1.905 0-3.438-1.533-3.438-3.438s1.533-3.437 3.438-3.437c0.464 0 0.888 0.102 1.343 0.273l0.774 0.29 0.069-0.823z"></path>
<path d="M10 8.491l2.942 2.942c0.244 0.244 0.244 0.64 0 0.884s-0.64 0.244-0.884 0l-1.433-1.433v5.991c0 0.345-0.28 0.625-0.625 0.625s-0.625-0.28-0.625-0.625v-5.991l-1.433 1.433c-0.244 0.244-0.64 0.244-0.884 0s-0.244-0.64 0-0.884l2.942-2.942z"></path>
</svg>
