<!-- Generated by IcoMoon.io -->
<svg version="1.1" xmlns="http://www.w3.org/2000/svg" width="32" height="32" viewBox="0 0 32 32">
<title>cloud</title>
<path d="M19 8c-3.161 0-5.745 2.482-6.003 5.583l-0.11 1.318-1.238-0.464c-0.728-0.273-1.406-0.436-2.149-0.436-3.048 0-5.5 2.452-5.5 5.5s2.452 5.5 5.5 5.5h14.5c2.248 0 4-1.752 4-4 0-1.744-1.102-3.186-2.73-3.756l-1.011-0.354 0.422-0.984c0.226-0.528 0.319-1.178 0.319-1.906 0-3.348-2.652-6-6-6zM11.198 12.205c0.844-3.522 3.99-6.205 7.802-6.205 4.452 0 8 3.548 8 8 0 0.564-0.045 1.16-0.177 1.747 1.894 1.011 3.177 2.944 3.177 5.253 0 3.352-2.648 6-6 6h-14.5c-4.152 0-7.5-3.348-7.5-7.5s3.348-7.5 7.5-7.5c0.605 0 1.165 0.078 1.698 0.205z"></path>
</svg>
