<!-- Generated by IcoMoon.io -->
<svg version="1.1" xmlns="http://www.w3.org/2000/svg" width="20" height="20" viewBox="0 0 20 20">
<title>cloud</title>
<path d="M11.875 5c-1.975 0-3.591 1.551-3.752 3.489l-0.069 0.823-0.774-0.29c-0.455-0.171-0.879-0.273-1.343-0.273-1.905 0-3.438 1.533-3.438 3.437s1.533 3.438 3.438 3.438h9.063c1.405 0 2.5-1.095 2.5-2.5 0-1.090-0.689-1.991-1.707-2.348l-0.632-0.221 0.264-0.615c0.141-0.33 0.199-0.736 0.199-1.191 0-2.092-1.658-3.75-3.75-3.75zM6.999 7.628c0.527-2.201 2.494-3.878 4.876-3.878 2.783 0 5 2.217 5 5 0 0.352-0.028 0.725-0.111 1.092 1.184 0.632 1.986 1.84 1.986 3.283 0 2.095-1.655 3.75-3.75 3.75h-9.063c-2.595 0-4.688-2.092-4.688-4.688s2.092-4.688 4.688-4.688c0.378 0 0.728 0.048 1.061 0.128z"></path>
</svg>
