<!-- Generated by IcoMoon.io -->
<svg version="1.1" xmlns="http://www.w3.org/2000/svg" width="32" height="32" viewBox="0 0 32 32">
<title>cloud-download</title>
<path d="M12.996 9.583c0.258-3.101 2.843-5.583 6.004-5.583 3.348 0 6 2.652 6 6 0 0.728-0.093 1.378-0.319 1.906l-0.422 0.984 1.011 0.354c1.629 0.57 2.73 2.012 2.73 3.756 0 2.248-1.752 4-4 4h-3c-0.552 0-1 0.448-1 1s0.448 1 1 1h3c3.352 0 6-2.648 6-6 0-2.309-1.284-4.242-3.178-5.253 0.133-0.587 0.177-1.184 0.177-1.747 0-4.452-3.548-8-8-8-3.812 0-6.959 2.683-7.802 6.205-0.532-0.128-1.093-0.205-1.698-0.205-4.152 0-7.5 3.348-7.5 7.5s3.348 7.5 7.5 7.5h1.5c0.552 0 1-0.448 1-1s-0.448-1-1-1h-1.5c-3.048 0-5.5-2.452-5.5-5.5s2.452-5.5 5.5-5.5c0.743 0 1.421 0.163 2.149 0.436l1.238 0.464 0.11-1.317z"></path>
<path d="M16 16c0.552 0 1 0.448 1 1v9.586l2.293-2.293c0.39-0.39 1.024-0.39 1.414 0s0.39 1.024 0 1.414l-4.707 4.707-4.707-4.707c-0.39-0.39-0.39-1.024 0-1.414s1.024-0.39 1.414 0l2.293 2.293v-9.586c0-0.552 0.448-1 1-1z"></path>
</svg>
