<!-- Generated by IcoMoon.io -->
<svg version="1.1" xmlns="http://www.w3.org/2000/svg" width="20" height="20" viewBox="0 0 20 20">
<title>code-ok</title>
<path d="M6.875 1.25c-1.408 0-2.5 1.092-2.5 2.5v4.375c0 0.717-0.533 1.25-1.25 1.25h-0.625c-0.345 0-0.625 0.28-0.625 0.625s0.28 0.625 0.625 0.625h0.625c0.717 0 1.25 0.533 1.25 1.25v4.375c0 1.408 1.092 2.5 2.5 2.5h1.25c0.345 0 0.625-0.28 0.625-0.625s-0.28-0.625-0.625-0.625h-1.25c-0.717 0-1.25-0.533-1.25-1.25v-4.375c0-0.756-0.315-1.421-0.825-1.875 0.51-0.454 0.825-1.119 0.825-1.875v-4.375c0-0.717 0.533-1.25 1.25-1.25h1.25c0.345 0 0.625-0.28 0.625-0.625s-0.28-0.625-0.625-0.625h-1.25z"></path>
<path d="M16.692 12.683c0.244 0.244 0.244 0.64 0 0.884l-2.942 2.942-1.692-1.692c-0.244-0.244-0.244-0.64 0-0.884s0.64-0.244 0.884 0l0.808 0.808 2.058-2.058c0.244-0.244 0.64-0.244 0.884 0z"></path>
<path d="M9.375 14.375c0-2.761 2.239-5 5-5s5 2.239 5 5c0 2.761-2.239 5-5 5s-5-2.239-5-5zM14.375 10.625c-2.071 0-3.75 1.679-3.75 3.75s1.679 3.75 3.75 3.75c2.071 0 3.75-1.679 3.75-3.75s-1.679-3.75-3.75-3.75z"></path>
<path d="M11.875 1.25c-0.345 0-0.625 0.28-0.625 0.625s0.28 0.625 0.625 0.625h1.25c0.717 0 1.25 0.533 1.25 1.25v4.375c0 0.345 0.28 0.625 0.625 0.625s0.625-0.28 0.625-0.625v-4.375c0-1.408-1.092-2.5-2.5-2.5h-1.25z"></path>
</svg>
