<!-- Generated by IcoMoon.io -->
<svg version="1.1" xmlns="http://www.w3.org/2000/svg" width="20" height="20" viewBox="0 0 20 20">
<title>code</title>
<path d="M6.875 1.25c-1.408 0-2.5 1.092-2.5 2.5v4.375c0 0.717-0.533 1.25-1.25 1.25h-0.625c-0.345 0-0.625 0.28-0.625 0.625s0.28 0.625 0.625 0.625h0.625c0.717 0 1.25 0.533 1.25 1.25v4.375c0 1.408 1.092 2.5 2.5 2.5h1.25c0.345 0 0.625-0.28 0.625-0.625s-0.28-0.625-0.625-0.625h-1.25c-0.717 0-1.25-0.533-1.25-1.25v-4.375c0-0.756-0.315-1.421-0.825-1.875 0.51-0.454 0.825-1.119 0.825-1.875v-4.375c0-0.717 0.533-1.25 1.25-1.25h1.25c0.345 0 0.625-0.28 0.625-0.625s-0.28-0.625-0.625-0.625h-1.25z"></path>
<path d="M11.25 1.875c0-0.345 0.28-0.625 0.625-0.625h1.25c1.408 0 2.5 1.092 2.5 2.5v4.375c0 0.717 0.533 1.25 1.25 1.25h0.625c0.345 0 0.625 0.28 0.625 0.625s-0.28 0.625-0.625 0.625h-0.625c-0.717 0-1.25 0.533-1.25 1.25v4.375c0 1.408-1.092 2.5-2.5 2.5h-1.25c-0.345 0-0.625-0.28-0.625-0.625s0.28-0.625 0.625-0.625h1.25c0.717 0 1.25-0.533 1.25-1.25v-4.375c0-0.756 0.315-1.421 0.825-1.875-0.51-0.454-0.825-1.119-0.825-1.875v-4.375c0-0.717-0.533-1.25-1.25-1.25h-1.25c-0.345 0-0.625-0.28-0.625-0.625z"></path>
</svg>
