<!-- Generated by IcoMoon.io -->
<svg version="1.1" xmlns="http://www.w3.org/2000/svg" width="20" height="20" viewBox="0 0 20 20">
<title>coffee-togo</title>
<path d="M12.916 1.25h-5.832l-1.313 1.563h-1.021c-1.188 0-2.25 0.936-2.25 2.188v2.188h1.364l0.528 6.105c-0.011 0.046-0.017 0.095-0.017 0.145 0 0.088 0.018 0.171 0.051 0.247l0.264 3.054c0.091 1.157 1.069 2.011 2.248 2.011h6.125c1.179 0 2.157-0.854 2.248-2.011l0.264-3.054c0.033-0.076 0.051-0.159 0.051-0.247 0-0.050-0.006-0.098-0.017-0.145l0.528-6.105h1.364v-2.188c0-1.252-1.062-2.188-2.25-2.188h-1.021l-1.313-1.563zM14.395 12.813h-8.79l-0.189-2.188h9.168l-0.189 2.188zM5.713 14.063h8.574l-0.223 2.577c-0.036 0.466-0.432 0.86-1.002 0.86h-6.125c-0.57 0-0.966-0.394-1.002-0.86l-0.223-2.577zM3.75 5.938v-0.938c0-0.498 0.438-0.938 1-0.938h1.604l1.313-1.563h4.668l1.313 1.563h1.604c0.562 0 1 0.439 1 0.938v0.938h-12.5zM5.119 7.188h9.762l-0.189 2.188h-9.384l-0.189-2.188z"></path>
</svg>
