<!-- Generated by IcoMoon.io -->
<svg version="1.1" xmlns="http://www.w3.org/2000/svg" width="20" height="20" viewBox="0 0 20 20">
<title>coffee</title>
<path d="M8.125 2.5c0-0.345-0.28-0.625-0.625-0.625s-0.625 0.28-0.625 0.625v1.875c0 0.345 0.28 0.625 0.625 0.625s0.625-0.28 0.625-0.625v-1.875z"></path>
<path d="M4.375 6.25v6.875c0 1.408 1.092 2.5 2.5 2.5h6.25c1.408 0 2.5-1.092 2.5-2.5v-2.5c1.408 0 2.5-1.092 2.5-2.5v-1.875h-13.75zM16.875 8.125c0 0.717-0.533 1.25-1.25 1.25v-1.875h1.25v0.625zM5.625 13.125v-5.625h8.75v5.625c0 0.717-0.533 1.25-1.25 1.25h-6.25c-0.717 0-1.25-0.533-1.25-1.25z"></path>
<path d="M2.5 16.875c-0.345 0-0.625 0.28-0.625 0.625s0.28 0.625 0.625 0.625h15c0.345 0 0.625-0.28 0.625-0.625s-0.28-0.625-0.625-0.625h-15z"></path>
<path d="M10 1.875c0.345 0 0.625 0.28 0.625 0.625v1.875c0 0.345-0.28 0.625-0.625 0.625s-0.625-0.28-0.625-0.625v-1.875c0-0.345 0.28-0.625 0.625-0.625z"></path>
<path d="M13.125 2.5c0-0.345-0.28-0.625-0.625-0.625s-0.625 0.28-0.625 0.625v1.875c0 0.345 0.28 0.625 0.625 0.625s0.625-0.28 0.625-0.625v-1.875z"></path>
</svg>
