<!-- Generated by IcoMoon.io -->
<svg version="1.1" xmlns="http://www.w3.org/2000/svg" width="32" height="32" viewBox="0 0 32 32">
<title>coffee-togo</title>
<path d="M20.666 2h-9.332l-2.1 2.5h-1.634c-1.901 0-3.6 1.497-3.6 3.5v3.5h2.183l0.844 9.769c-0.018 0.074-0.027 0.152-0.027 0.231 0 0.14 0.029 0.274 0.081 0.395l0.422 4.887c0.145 1.852 1.71 3.218 3.597 3.218h9.8c1.887 0 3.452-1.366 3.597-3.218l0.422-4.887c0.052-0.121 0.081-0.255 0.081-0.395 0-0.080-0.009-0.157-0.027-0.231l0.844-9.769h2.183v-3.5c0-2.003-1.699-3.5-3.6-3.5h-1.634l-2.1-2.5zM23.032 20.5h-14.064l-0.302-3.5h14.669l-0.302 3.5zM9.141 22.5h13.718l-0.356 4.123c-0.057 0.745-0.691 1.377-1.603 1.377h-9.8c-0.912 0-1.546-0.631-1.603-1.377l-0.356-4.123zM6 9.5v-1.5c0-0.797 0.701-1.5 1.6-1.5h2.566l2.1-2.5h7.468l2.1 2.5h2.566c0.899 0 1.6 0.703 1.6 1.5v1.5h-20zM8.19 11.5h15.62l-0.302 3.5h-15.015l-0.302-3.5z"></path>
</svg>
