<!-- Generated by IcoMoon.io -->
<svg version="1.1" xmlns="http://www.w3.org/2000/svg" width="20" height="20" viewBox="0 0 20 20">
<title>coins-alt</title>
<path d="M2.5 1.875c-0.33 0-0.653 0.113-0.895 0.355s-0.355 0.566-0.355 0.895v2.5c0 0.33 0.113 0.653 0.355 0.895s0.566 0.355 0.895 0.355v2.5c0 0.329 0.113 0.653 0.355 0.895 0.084 0.084 0.178 0.152 0.278 0.206-0.005 0.049-0.008 0.099-0.008 0.149v2.5c-0.33 0-0.653 0.113-0.895 0.355s-0.355 0.566-0.355 0.895v2.5c0 0.329 0.113 0.653 0.355 0.895s0.566 0.355 0.895 0.355h7.5c0.329 0 0.653-0.113 0.895-0.355 0.038-0.038 0.072-0.077 0.104-0.118 0.645 0.304 1.366 0.473 2.126 0.473 2.761 0 5-2.239 5-5s-2.239-5-5-5c-0.432 0-0.851 0.055-1.25 0.158v-1.408c0-0.329-0.113-0.653-0.355-0.895s-0.566-0.355-0.895-0.355v-2.5c0-0.33-0.113-0.653-0.355-0.895s-0.566-0.355-0.895-0.355h-7.5zM11.726 16.282c-0.068-0.080-0.156-0.143-0.256-0.18-0.724-0.555-1.239-1.369-1.409-2.302 0.001-0.016 0.002-0.033 0.002-0.050 0-0.079-0.015-0.154-0.041-0.224-0.014-0.132-0.021-0.266-0.021-0.401 0-1.449 0.822-2.706 2.025-3.331 0.083-0.021 0.16-0.058 0.226-0.108 0.459-0.2 0.966-0.311 1.498-0.311 2.071 0 3.75 1.679 3.75 3.75s-1.679 3.75-3.75 3.75c-0.746 0-1.44-0.218-2.024-0.593zM8.75 13.125h-4.375v-2.5h5.044c-0.425 0.735-0.669 1.589-0.669 2.5zM8.908 14.375c0.253 0.983 0.797 1.849 1.535 2.5h-7.318v-2.5h5.783zM10.443 9.375h-6.693v-2.5h7.5v1.919c-0.289 0.167-0.559 0.362-0.807 0.581zM10 5.625h-7.5v-2.5h7.5v2.5z"></path>
</svg>
