<!-- Generated by IcoMoon.io -->
<svg version="1.1" xmlns="http://www.w3.org/2000/svg" width="20" height="20" viewBox="0 0 20 20">
<title>coins-stash</title>
<path d="M14.688 1.875c-1.017 0-1.969 0.186-2.689 0.514-0.664 0.302-1.373 0.847-1.373 1.674s0.709 1.372 1.373 1.674c0.72 0.327 1.672 0.514 2.689 0.514s1.969-0.186 2.689-0.514c0.664-0.302 1.373-0.847 1.373-1.674s-0.709-1.372-1.373-1.674c-0.72-0.327-1.672-0.514-2.689-0.514zM11.875 4.063c0-0.036 0.060-0.272 0.64-0.536 0.524-0.238 1.291-0.402 2.172-0.402s1.648 0.164 2.172 0.402c0.58 0.264 0.64 0.5 0.64 0.536s-0.060 0.272-0.64 0.536c-0.524 0.238-1.291 0.402-2.172 0.402s-1.648-0.164-2.172-0.402c-0.58-0.264-0.64-0.5-0.64-0.536z"></path>
<path d="M11.875 6.563c0-0.345-0.28-0.625-0.625-0.625s-0.625 0.28-0.625 0.625c0 0.836 0.719 1.38 1.384 1.679 0.723 0.325 1.673 0.508 2.678 0.508s1.956-0.183 2.678-0.508c0.666-0.299 1.384-0.844 1.384-1.679 0-0.345-0.28-0.625-0.625-0.625s-0.625 0.28-0.625 0.625c0 0.039-0.063 0.276-0.647 0.539-0.527 0.237-1.295 0.398-2.165 0.398s-1.638-0.161-2.165-0.398c-0.584-0.263-0.647-0.5-0.647-0.539z"></path>
<path d="M11.25 8.438c0.345 0 0.625 0.28 0.625 0.625 0 0.039 0.063 0.276 0.647 0.539 0.527 0.237 1.295 0.398 2.165 0.398s1.638-0.161 2.165-0.398c0.584-0.263 0.647-0.5 0.647-0.539 0-0.345 0.28-0.625 0.625-0.625s0.625 0.28 0.625 0.625c0 0.836-0.719 1.38-1.384 1.679-0.723 0.325-1.673 0.508-2.678 0.508s-1.956-0.183-2.678-0.508c-0.666-0.299-1.384-0.844-1.384-1.679 0-0.345 0.28-0.625 0.625-0.625z"></path>
<path d="M11.875 11.563c0-0.345-0.28-0.625-0.625-0.625s-0.625 0.28-0.625 0.625c0 0.836 0.719 1.38 1.384 1.679 0.723 0.325 1.673 0.508 2.678 0.508s1.956-0.183 2.678-0.508c0.666-0.299 1.384-0.844 1.384-1.679 0-0.345-0.28-0.625-0.625-0.625s-0.625 0.28-0.625 0.625c0 0.039-0.063 0.276-0.647 0.539-0.527 0.237-1.295 0.398-2.165 0.398s-1.638-0.161-2.165-0.398c-0.584-0.263-0.647-0.5-0.647-0.539z"></path>
<path d="M11.25 13.438c0.345 0 0.625 0.28 0.625 0.625 0 0.039 0.063 0.276 0.647 0.539 0.527 0.237 1.295 0.398 2.165 0.398s1.638-0.161 2.165-0.398c0.584-0.263 0.647-0.5 0.647-0.539 0-0.345 0.28-0.625 0.625-0.625s0.625 0.28 0.625 0.625c0 0.836-0.719 1.38-1.384 1.679-0.723 0.325-1.673 0.508-2.678 0.508s-1.956-0.183-2.678-0.508c-0.666-0.299-1.384-0.844-1.384-1.679 0-0.345 0.28-0.625 0.625-0.625z"></path>
<path d="M11.875 16.563c0-0.345-0.28-0.625-0.625-0.625s-0.625 0.28-0.625 0.625c0 0.836 0.719 1.38 1.384 1.679 0.723 0.325 1.673 0.508 2.678 0.508s1.956-0.183 2.678-0.508c0.666-0.299 1.384-0.844 1.384-1.679 0-0.345-0.28-0.625-0.625-0.625s-0.625 0.28-0.625 0.625c0 0.039-0.063 0.276-0.647 0.539-0.527 0.237-1.295 0.398-2.165 0.398s-1.638-0.161-2.165-0.398c-0.584-0.263-0.647-0.5-0.647-0.539z"></path>
<path d="M2.623 7.389c0.72-0.327 1.672-0.514 2.689-0.514s1.969 0.186 2.689 0.514c0.664 0.302 1.373 0.847 1.373 1.674s-0.709 1.372-1.373 1.674c-0.72 0.328-1.672 0.514-2.689 0.514s-1.969-0.186-2.689-0.514c-0.664-0.302-1.373-0.847-1.373-1.674s0.709-1.372 1.373-1.674zM3.14 8.527c-0.58 0.264-0.64 0.5-0.64 0.536s0.060 0.272 0.64 0.536c0.524 0.238 1.291 0.402 2.172 0.402s1.648-0.164 2.172-0.402c0.58-0.264 0.64-0.5 0.64-0.536s-0.060-0.272-0.64-0.536c-0.524-0.238-1.291-0.402-2.172-0.402s-1.648 0.164-2.172 0.402z"></path>
<path d="M2.5 11.563c0-0.345-0.28-0.625-0.625-0.625s-0.625 0.28-0.625 0.625c0 0.836 0.719 1.38 1.384 1.679 0.723 0.325 1.673 0.508 2.678 0.508s1.956-0.183 2.678-0.508c0.666-0.299 1.384-0.844 1.384-1.679 0-0.345-0.28-0.625-0.625-0.625s-0.625 0.28-0.625 0.625c0 0.039-0.063 0.276-0.647 0.539-0.527 0.237-1.295 0.398-2.165 0.398s-1.638-0.161-2.165-0.398c-0.584-0.263-0.647-0.5-0.647-0.539z"></path>
<path d="M1.875 13.438c0.345 0 0.625 0.28 0.625 0.625 0 0.039 0.063 0.276 0.647 0.539 0.527 0.237 1.295 0.398 2.165 0.398s1.638-0.161 2.165-0.398c0.584-0.263 0.647-0.5 0.647-0.539 0-0.345 0.28-0.625 0.625-0.625s0.625 0.28 0.625 0.625c0 0.836-0.719 1.38-1.384 1.679-0.723 0.325-1.673 0.508-2.678 0.508s-1.956-0.183-2.678-0.508c-0.666-0.299-1.384-0.844-1.384-1.679 0-0.345 0.28-0.625 0.625-0.625z"></path>
<path d="M2.5 16.563c0-0.345-0.28-0.625-0.625-0.625s-0.625 0.28-0.625 0.625c0 0.836 0.719 1.38 1.384 1.679 0.723 0.325 1.673 0.508 2.678 0.508s1.956-0.183 2.678-0.508c0.666-0.299 1.384-0.844 1.384-1.679 0-0.345-0.28-0.625-0.625-0.625s-0.625 0.28-0.625 0.625c0 0.039-0.063 0.276-0.647 0.539-0.527 0.237-1.295 0.398-2.165 0.398s-1.638-0.161-2.165-0.398c-0.584-0.263-0.647-0.5-0.647-0.539z"></path>
</svg>
