<!-- Generated by IcoMoon.io -->
<svg version="1.1" xmlns="http://www.w3.org/2000/svg" width="32" height="32" viewBox="0 0 32 32">
<title>coins-alt</title>
<path d="M4 3c-0.527 0-1.044 0.18-1.432 0.568s-0.568 0.905-0.568 1.432v4c0 0.527 0.18 1.044 0.568 1.432s0.905 0.568 1.432 0.568v4c0 0.527 0.18 1.044 0.568 1.432 0.134 0.134 0.284 0.244 0.445 0.329-0.008 0.079-0.013 0.159-0.013 0.238v4c-0.527 0-1.044 0.18-1.432 0.568s-0.568 0.905-0.568 1.432v4c0 0.527 0.18 1.044 0.568 1.432s0.905 0.568 1.432 0.568h12c0.527 0 1.044-0.18 1.432-0.568 0.060-0.060 0.115-0.123 0.166-0.189 1.032 0.486 2.186 0.757 3.402 0.757 4.418 0 8-3.582 8-8s-3.582-8-8-8c-0.691 0-1.361 0.088-2 0.252v-2.252c0-0.527-0.18-1.044-0.568-1.432s-0.905-0.568-1.432-0.568v-4c0-0.527-0.18-1.044-0.568-1.432s-0.905-0.568-1.432-0.568h-12zM18.762 26.052c-0.109-0.128-0.25-0.228-0.41-0.288-1.158-0.888-1.983-2.19-2.254-3.684 0.002-0.026 0.003-0.053 0.003-0.080 0-0.126-0.023-0.247-0.066-0.358-0.022-0.211-0.034-0.425-0.034-0.642 0-2.319 1.315-4.33 3.24-5.329 0.133-0.033 0.256-0.092 0.362-0.173 0.734-0.32 1.545-0.498 2.397-0.498 3.314 0 6 2.686 6 6s-2.686 6-6 6c-1.193 0-2.304-0.348-3.238-0.948zM14 21h-7v-4h8.070c-0.681 1.177-1.070 2.543-1.070 4zM14.252 23c0.405 1.572 1.275 2.958 2.456 4h-11.708v-4h9.252zM16.708 15h-10.708v-4h12v3.070c-0.462 0.267-0.894 0.579-1.292 0.93zM16 9h-12v-4h12v4z"></path>
</svg>
