<!-- Generated by IcoMoon.io -->
<svg version="1.1" xmlns="http://www.w3.org/2000/svg" width="20" height="20" viewBox="0 0 20 20">
<title>coins</title>
<path d="M4.379 8.662c-0.721-0.394-1.254-1.014-1.254-1.787v-2.5c0-0.882 0.699-1.512 1.444-1.885 0.782-0.391 1.82-0.615 2.931-0.615s2.149 0.224 2.931 0.615c0.745 0.373 1.444 1.003 1.444 1.885v2.5c0 0.040-0.003 0.081-0.007 0.121 0.259 0.153 0.495 0.327 0.691 0.523 0.313 0.313 0.566 0.728 0.566 1.231v1.359c0.301-0.071 0.615-0.109 0.938-0.109 2.244 0 4.063 1.819 4.063 4.063s-1.819 4.063-4.063 4.063c-1.61 0-3.002-0.937-3.659-2.296-0.265 0.468-0.735 0.823-1.228 1.067-0.784 0.388-1.821 0.604-2.925 0.604s-2.141-0.216-2.925-0.604c-0.751-0.371-1.45-1.002-1.45-1.896v-2.5c0-0.701 0.456-1.241 0.983-1.602 0.417-0.285 0.94-0.505 1.517-0.653v-1.495c0-0.001 0-0.002 0-0.003 0-0.028 0.001-0.057 0.004-0.085zM4.375 4.375c0 0.153 0.141 0.461 0.753 0.767 0.575 0.287 1.413 0.483 2.372 0.483s1.797-0.196 2.372-0.483c0.612-0.306 0.753-0.613 0.753-0.767s-0.141-0.461-0.753-0.767c-0.575-0.287-1.413-0.483-2.372-0.483s-1.797 0.196-2.372 0.483c-0.612 0.306-0.753 0.613-0.753 0.767zM10.431 6.26c-0.783 0.391-1.82 0.615-2.931 0.615s-2.149-0.224-2.931-0.615c-0.065-0.033-0.13-0.067-0.194-0.104v0.719c0 0.17 0.186 0.57 0.952 0.846 0.005 0.002 0.010 0.004 0.015 0.006l0.004 0.001 0.005 0.002c0.004 0.001 0.007 0.003 0.011 0.004 0.551 0.219 1.345 0.391 2.138 0.391 0.805 0 1.537-0.144 2.095-0.369 0.582-0.234 0.874-0.513 0.963-0.706l0.004-0.009 0.004-0.007c0-0.001 0.001-0.002 0.001-0.003 0.014-0.029 0.032-0.073 0.046-0.117 0.006-0.022 0.010-0.038 0.012-0.049l0-0.002v-0.707c-0.064 0.036-0.129 0.071-0.194 0.104zM5.625 10.541v0.199c0 0.008 0 0.015 0 0.023v0.488c0 0.168 0.145 0.475 0.753 0.776 0.575 0.284 1.413 0.474 2.372 0.474 0.358 0 0.689-0.026 1-0.073 0.077-0.033 0.161-0.052 0.25-0.052 0.014 0 0.028 0.001 0.043 0.001 0.123-0.024 0.243-0.052 0.361-0.082 0.329-0.679 0.84-1.252 1.471-1.656v-0.098c-0.066 0.037-0.133 0.073-0.2 0.106-0.784 0.388-1.821 0.604-2.925 0.604s-2.141-0.216-2.925-0.604c-0.067-0.033-0.134-0.068-0.2-0.106zM11.875 8.75c0-0.059-0.028-0.175-0.2-0.347-0.092-0.092-0.214-0.188-0.364-0.282-0.329 0.342-0.778 0.605-1.25 0.795-0.724 0.291-1.617 0.459-2.561 0.459-0.56 0-1.121-0.070-1.629-0.184 0.115 0.107 0.278 0.221 0.507 0.335 0.575 0.284 1.413 0.474 2.372 0.474s1.796-0.19 2.372-0.474c0.609-0.301 0.753-0.607 0.753-0.776zM3.125 15c0 0.168 0.145 0.475 0.753 0.776 0.575 0.284 1.413 0.474 2.372 0.474s1.796-0.19 2.372-0.474c0.609-0.301 0.753-0.607 0.753-0.776v-0.719c-0.206 0.117-0.428 0.218-0.656 0.304-0.704 0.264-1.56 0.415-2.469 0.415-1.104 0-2.141-0.216-2.925-0.604-0.067-0.033-0.134-0.068-0.2-0.106v0.709zM4.4 11.538c-0.338 0.109-0.621 0.244-0.836 0.392-0.364 0.249-0.439 0.458-0.439 0.57 0 0.168 0.145 0.475 0.753 0.776 0.575 0.284 1.413 0.474 2.372 0.474 0.422 0 0.823-0.038 1.188-0.106-0.6-0.1-1.151-0.269-1.613-0.498-0.667-0.33-1.294-0.865-1.425-1.608zM12.796 11.551c-0.008 0.004-0.015 0.008-0.023 0.012-0.568 0.293-1.022 0.774-1.282 1.361-0.015 0.081-0.045 0.157-0.088 0.226-0.098 0.286-0.152 0.594-0.152 0.913 0 1.553 1.259 2.813 2.813 2.813s2.813-1.259 2.813-2.813c0-1.553-1.259-2.813-2.813-2.813-0.456 0-0.886 0.108-1.267 0.301z"></path>
</svg>
