<!-- Generated by IcoMoon.io -->
<svg version="1.1" xmlns="http://www.w3.org/2000/svg" width="20" height="20" viewBox="0 0 20 20">
<title>comments</title>
<path d="M3.75 1.875c-1.408 0-2.5 1.092-2.5 2.5v9.375c0 1.382 1.662 2.057 2.668 1.152l0.004-0.004 2.574-2.398h5.379c1.408 0 2.5-1.092 2.5-2.5v-5.625c0-1.408-1.092-2.5-2.5-2.5h-8.125zM2.5 4.375c0-0.717 0.533-1.25 1.25-1.25h8.125c0.717 0 1.25 0.533 1.25 1.25v5.625c0 0.717-0.533 1.25-1.25 1.25h-5.871l-2.925 2.726c-0.113 0.099-0.253 0.113-0.379 0.059-0.129-0.055-0.199-0.16-0.199-0.285v-9.375z"></path>
<path d="M15.625 5c-0.345 0-0.625 0.28-0.625 0.625s0.28 0.625 0.625 0.625h0.625c0.717 0 1.25 0.533 1.25 1.25v9.375c0 0.125-0.071 0.23-0.199 0.285-0.126 0.054-0.267 0.040-0.379-0.059l-2.925-2.726h-5.871c-0.482 0-0.824-0.208-1.016-0.553-0.168-0.302-0.548-0.411-0.85-0.243s-0.41 0.548-0.243 0.85c0.433 0.779 1.216 1.197 2.109 1.197h5.379l2.578 2.402c1.006 0.905 2.668 0.23 2.668-1.152v-9.375c0-1.408-1.092-2.5-2.5-2.5h-0.625z"></path>
</svg>
