<!-- Generated by IcoMoon.io -->
<svg version="1.1" xmlns="http://www.w3.org/2000/svg" width="20" height="20" viewBox="0 0 20 20">
<title>comment-pending</title>
<path d="M6.563 8.125c0 0.518-0.42 0.938-0.938 0.938s-0.938-0.42-0.938-0.938c0-0.518 0.42-0.938 0.938-0.938s0.938 0.42 0.938 0.938z"></path>
<path d="M10 9.063c0.518 0 0.938-0.42 0.938-0.938s-0.42-0.938-0.938-0.938c-0.518 0-0.938 0.42-0.938 0.938s0.42 0.938 0.938 0.938z"></path>
<path d="M15.313 8.125c0 0.518-0.42 0.938-0.938 0.938s-0.938-0.42-0.938-0.938c0-0.518 0.42-0.938 0.938-0.938s0.938 0.42 0.938 0.938z"></path>
<path d="M3.75 1.25c-1.408 0-2.5 1.092-2.5 2.5v12.5c0 1.382 1.662 2.057 2.668 1.152l0.004-0.004 2.574-2.398h9.754c1.408 0 2.5-1.092 2.5-2.5v-8.75c0-1.408-1.092-2.5-2.5-2.5h-12.5zM2.5 3.75c0-0.717 0.533-1.25 1.25-1.25h12.5c0.717 0 1.25 0.533 1.25 1.25v8.75c0 0.717-0.533 1.25-1.25 1.25h-10.246l-2.925 2.726c-0.113 0.099-0.253 0.113-0.379 0.059-0.129-0.055-0.199-0.16-0.199-0.285v-12.5z"></path>
</svg>
