<!-- Generated by IcoMoon.io -->
<svg version="1.1" xmlns="http://www.w3.org/2000/svg" width="32" height="32" viewBox="0 0 32 32">
<title>comment-text</title>
<path d="M8 10h16v-2h-16v2z"></path>
<path d="M16 18h-8v-2h8v2z"></path>
<path d="M8 14h16v-2h-16v2z"></path>
<path d="M6 2c-2.252 0-4 1.748-4 4v20c0 2.212 2.66 3.291 4.269 1.843l0.006-0.006 4.118-3.837h15.606c2.252 0 4-1.748 4-4v-14c0-2.252-1.748-4-4-4h-20zM4 6c0-1.148 0.852-2 2-2h20c1.148 0 2 0.852 2 2v14c0 1.148-0.852 2-2 2h-16.394l-4.68 4.361c-0.181 0.159-0.405 0.181-0.607 0.095-0.206-0.088-0.319-0.256-0.319-0.456v-20z"></path>
</svg>
