<!-- Generated by IcoMoon.io -->
<svg version="1.1" xmlns="http://www.w3.org/2000/svg" width="20" height="20" viewBox="0 0 20 20">
<title>comment</title>
<path d="M1.25 3.75c0-1.408 1.092-2.5 2.5-2.5h12.5c1.408 0 2.5 1.092 2.5 2.5v8.75c0 1.408-1.092 2.5-2.5 2.5h-9.754l-2.578 2.402c-1.006 0.905-2.668 0.23-2.668-1.152v-12.5zM3.75 2.5c-0.717 0-1.25 0.533-1.25 1.25v12.5c0 0.125 0.071 0.23 0.199 0.285 0.126 0.054 0.267 0.040 0.379-0.059l2.925-2.726h10.246c0.717 0 1.25-0.533 1.25-1.25v-8.75c0-0.717-0.533-1.25-1.25-1.25h-12.5z"></path>
</svg>
