<!-- Generated by IcoMoon.io -->
<svg version="1.1" xmlns="http://www.w3.org/2000/svg" width="20" height="20" viewBox="0 0 20 20">
<title>compass-alt</title>
<path d="M10.625 1.875v1.32c1.253 0.284 2.188 1.404 2.188 2.743 0 1.077-0.605 2.012-1.493 2.485l0.991 2.203h1.44c0.345 0 0.625 0.28 0.625 0.625s-0.28 0.625-0.625 0.625h-0.877l2.697 5.993c0.142 0.315 0.001 0.685-0.313 0.826s-0.685 0.001-0.826-0.313l-2.928-6.507h-3.004l-2.928 6.507c-0.142 0.315-0.512 0.455-0.826 0.313s-0.455-0.512-0.313-0.826l2.697-5.993h-0.877c-0.345 0-0.625-0.28-0.625-0.625s0.28-0.625 0.625-0.625h1.44l0.991-2.203c-0.888-0.473-1.493-1.408-1.493-2.485 0-1.338 0.935-2.459 2.188-2.743v-1.32c0-0.345 0.28-0.625 0.625-0.625s0.625 0.28 0.625 0.625zM10 4.375c-0.863 0-1.563 0.7-1.563 1.563s0.7 1.563 1.563 1.563c0.863 0 1.563-0.7 1.563-1.563s-0.7-1.563-1.563-1.563zM10.095 8.748c-0.032 0.001-0.063 0.002-0.095 0.002s-0.064-0.001-0.095-0.002l-0.844 1.877h1.879l-0.844-1.877z"></path>
</svg>
