<!-- Generated by IcoMoon.io -->
<svg version="1.1" xmlns="http://www.w3.org/2000/svg" width="32" height="32" viewBox="0 0 32 32">
<title>compass-alt</title>
<path d="M17 3v2.111c2.004 0.455 3.5 2.247 3.5 4.389 0 1.723-0.968 3.219-2.389 3.975l1.586 3.525h2.303c0.552 0 1 0.448 1 1s-0.448 1-1 1h-1.403l4.315 9.59c0.227 0.504 0.002 1.096-0.502 1.322s-1.096 0.002-1.322-0.502l-4.685-10.41h-4.807l-4.685 10.41c-0.227 0.504-0.819 0.728-1.322 0.502s-0.728-0.819-0.502-1.322l4.315-9.59h-1.403c-0.552 0-1-0.448-1-1s0.448-1 1-1h2.303l1.586-3.525c-1.422-0.756-2.389-2.253-2.389-3.975 0-2.142 1.496-3.934 3.5-4.388v-2.111c0-0.552 0.448-1 1-1s1 0.448 1 1zM16 7c-1.381 0-2.5 1.119-2.5 2.5s1.119 2.5 2.5 2.5c1.381 0 2.5-1.119 2.5-2.5s-1.119-2.5-2.5-2.5zM16.152 13.998c-0.051 0.002-0.101 0.002-0.152 0.002s-0.102-0.001-0.152-0.002l-1.351 3.002h3.007l-1.351-3.002z"></path>
</svg>
