<!-- Generated by IcoMoon.io -->
<svg version="1.1" xmlns="http://www.w3.org/2000/svg" width="20" height="20" viewBox="0 0 20 20">
<title>compass</title>
<path d="M12.464 12.086l-0.094 0.284-0.283 0.094c-0.008 0.003-0.017 0.006-0.025 0.008l-6.799 2.266 2.266-6.799c0.003-0.008 0.005-0.017 0.008-0.025l0.095-0.284 0.284-0.095c0.008-0.003 0.016-0.006 0.024-0.008l6.799-2.266-2.266 6.799c-0.003 0.008-0.005 0.017-0.008 0.025zM11.602 10.718l1.16-3.48-3.48 1.16 2.32 2.32zM8.398 9.282l-1.16 3.48 3.48-1.16-2.32-2.32z"></path>
<path d="M1.25 10c0-4.832 3.918-8.75 8.75-8.75s8.75 3.918 8.75 8.75c0 4.832-3.918 8.75-8.75 8.75s-8.75-3.918-8.75-8.75zM10 2.5c-4.142 0-7.5 3.358-7.5 7.5s3.358 7.5 7.5 7.5c4.142 0 7.5-3.358 7.5-7.5s-3.358-7.5-7.5-7.5z"></path>
</svg>
