<!-- Generated by IcoMoon.io -->
<svg version="1.1" xmlns="http://www.w3.org/2000/svg" width="20" height="20" viewBox="0 0 20 20">
<title>controller</title>
<path d="M5.938 7.25c0.518 0 0.938-0.42 0.938-0.938s-0.42-0.938-0.938-0.938c-0.518 0-0.938 0.42-0.938 0.938s0.42 0.938 0.938 0.938z"></path>
<path d="M14.063 7.25c0.518 0 0.938-0.42 0.938-0.938s-0.42-0.938-0.938-0.938c-0.518 0-0.938 0.42-0.938 0.938s0.42 0.938 0.938 0.938z"></path>
<path d="M8.75 8.188c0 0.518-0.42 0.938-0.938 0.938s-0.938-0.42-0.938-0.938c0-0.518 0.42-0.938 0.938-0.938s0.938 0.42 0.938 0.938z"></path>
<path d="M12.188 9.125c0.518 0 0.938-0.42 0.938-0.938s-0.42-0.938-0.938-0.938c-0.518 0-0.938 0.42-0.938 0.938s0.42 0.938 0.938 0.938z"></path>
<path d="M6.563 2.5c-2.533 0-4.688 2.155-4.688 4.688v0.29l-0.498 6.972c-0.082 0.935 0.421 1.862 1.273 2.292 1.121 0.598 2.49 0.161 3.087-0.943l2.133-3.862h4.262l2.133 3.862c0.597 1.104 1.966 1.541 3.087 0.943 0.851-0.43 1.355-1.357 1.273-2.292l-0.498-6.972v-0.29c0-2.595-2.092-4.688-4.688-4.688-0.874 0-1.678 0.25-2.355 0.625h-2.166c-0.677-0.375-1.48-0.625-2.355-0.625zM3.125 7.188c0-1.842 1.595-3.438 3.438-3.438 0.683 0 1.323 0.21 1.866 0.536 0.097 0.058 0.208 0.089 0.322 0.089h2.5c0.113 0 0.224-0.031 0.322-0.089 0.543-0.326 1.183-0.536 1.866-0.536 1.905 0 3.438 1.533 3.438 3.438v0.313c0 0.015 0.001 0.030 0.002 0.044l0.5 7 0.001 0.012c0.039 0.435-0.203 0.876-0.595 1.072-0.006 0.003-0.011 0.006-0.017 0.009-0.501 0.27-1.126 0.082-1.403-0.433l-2.316-4.193c-0.11-0.199-0.32-0.323-0.547-0.323h-5c-0.228 0-0.437 0.124-0.547 0.323l-2.316 4.193c-0.278 0.516-0.902 0.703-1.403 0.433-0.006-0.003-0.011-0.006-0.017-0.009-0.392-0.196-0.634-0.637-0.595-1.072l0.001-0.012 0.5-7c0.001-0.015 0.002-0.030 0.002-0.044v-0.313z"></path>
</svg>
