<!-- Generated by IcoMoon.io -->
<svg version="1.1" xmlns="http://www.w3.org/2000/svg" width="32" height="32" viewBox="0 0 32 32">
<title>controller</title>
<path d="M9.5 11.6c0.828 0 1.5-0.672 1.5-1.5s-0.672-1.5-1.5-1.5c-0.828 0-1.5 0.672-1.5 1.5s0.672 1.5 1.5 1.5z"></path>
<path d="M22.5 11.6c0.828 0 1.5-0.672 1.5-1.5s-0.672-1.5-1.5-1.5c-0.828 0-1.5 0.672-1.5 1.5s0.672 1.5 1.5 1.5z"></path>
<path d="M14 13.1c0 0.828-0.672 1.5-1.5 1.5s-1.5-0.672-1.5-1.5c0-0.828 0.672-1.5 1.5-1.5s1.5 0.672 1.5 1.5z"></path>
<path d="M19.5 14.6c0.828 0 1.5-0.672 1.5-1.5s-0.672-1.5-1.5-1.5c-0.828 0-1.5 0.672-1.5 1.5s0.672 1.5 1.5 1.5z"></path>
<path d="M10.5 4c-4.052 0-7.5 3.448-7.5 7.5v0.465l-0.797 11.155c-0.132 1.496 0.674 2.98 2.036 3.668 1.794 0.957 3.984 0.258 4.939-1.509l3.412-6.179h6.82l3.412 6.179c0.955 1.766 3.145 2.465 4.939 1.508 1.362-0.688 2.168-2.172 2.036-3.668l-0.797-11.155v-0.465c0-4.152-3.348-7.5-7.5-7.5-1.399 0-2.685 0.399-3.768 1h-3.465c-1.083-0.601-2.369-1-3.768-1zM5 11.5c0-2.948 2.552-5.5 5.5-5.5 1.093 0 2.117 0.337 2.986 0.857 0.155 0.093 0.333 0.143 0.514 0.143h4c0.181 0 0.359-0.049 0.514-0.143 0.868-0.521 1.892-0.857 2.986-0.857 3.048 0 5.5 2.452 5.5 5.5v0.5c0 0.024 0.001 0.047 0.003 0.071l0.8 11.2 0.002 0.019c0.063 0.695-0.324 1.402-0.951 1.715-0.009 0.005-0.018 0.009-0.027 0.014-0.802 0.432-1.801 0.132-2.245-0.694l-3.705-6.709c-0.176-0.319-0.511-0.517-0.875-0.517h-8c-0.364 0-0.699 0.198-0.875 0.517l-3.705 6.709c-0.444 0.826-1.443 1.125-2.245 0.694-0.009-0.005-0.018-0.009-0.027-0.014-0.627-0.314-1.015-1.020-0.951-1.715l0.002-0.019 0.8-11.2c0.002-0.024 0.003-0.047 0.003-0.071v-0.5z"></path>
</svg>
