<!-- Generated by IcoMoon.io -->
<svg version="1.1" xmlns="http://www.w3.org/2000/svg" width="20" height="20" viewBox="0 0 20 20">
<title>cube</title>
<path d="M17.008 3.691c1.065 0.333 1.742 1.257 1.742 2.344v8.125c0 1.038-0.753 2.014-1.74 2.343l-7.013 2.316-7.003-2.377c-1.066-0.332-1.745-1.257-1.745-2.344v-8.125c0-1.096 0.684-2 1.713-2.396l7.042-2.327 7.003 2.441zM2.622 5.43c-0.081 0.167-0.122 0.351-0.122 0.542v8.125c0 0.535 0.318 0.982 0.871 1.153l0.009 0.003 5.995 2.035v-9.497l-6.753-2.361zM10.625 7.791v9.504l5.991-1.979c0.513-0.172 0.884-0.695 0.884-1.157v-8.125c0-0.217-0.052-0.419-0.151-0.595l-6.724 2.351zM9.995 2.57l-6.050 1.998 6.056 2.117 5.891-2.060-5.897-2.056z"></path>
</svg>
