<!-- Generated by IcoMoon.io -->
<svg version="1.1" xmlns="http://www.w3.org/2000/svg" width="32" height="32" viewBox="0 0 32 32">
<title>cube</title>
<path d="M27.213 5.906c1.704 0.533 2.787 2.012 2.787 3.75v13c0 1.661-1.205 3.223-2.784 3.749l-11.22 3.706-11.204-3.803c-1.706-0.531-2.791-2.012-2.791-3.751v-13c0-1.754 1.094-3.2 2.741-3.833l11.268-3.723 11.204 3.906zM4.196 8.689c-0.129 0.268-0.196 0.562-0.196 0.867v13c0 0.856 0.509 1.572 1.394 1.844l0.014 0.004 9.592 3.256v-15.195l-10.804-3.777zM17 12.466v15.207l9.585-3.166c0.821-0.274 1.415-1.113 1.415-1.851v-13c0-0.347-0.084-0.671-0.242-0.951l-10.758 3.761zM15.991 4.112l-9.681 3.197 9.689 3.387 9.426-3.295-9.435-3.289z"></path>
</svg>
