<!-- Generated by IcoMoon.io -->
<svg version="1.1" xmlns="http://www.w3.org/2000/svg" width="20" height="20" viewBox="0 0 20 20">
<title>currency-bitcoin</title>
<path d="M10 5v-0.625c0-0.345 0.28-0.625 0.625-0.625s0.625 0.28 0.625 0.625v0.625h0.313c1.533 0 2.813 1.28 2.813 2.813 0 0.875-0.418 1.668-1.061 2.188 0.644 0.519 1.061 1.312 1.061 2.188 0 1.533-1.28 2.813-2.813 2.813h-0.313v0.625c0 0.345-0.28 0.625-0.625 0.625s-0.625-0.28-0.625-0.625v-0.625h-0.625v0.625c0 0.345-0.28 0.625-0.625 0.625s-0.625-0.28-0.625-0.625v-0.625h-1.25v-10h1.25v-0.625c0-0.345 0.28-0.625 0.625-0.625s0.625 0.28 0.625 0.625v0.625h0.625zM11.563 13.75c0.842 0 1.563-0.72 1.563-1.563s-0.72-1.563-1.563-1.563h-3.438v3.125h3.438zM8.125 6.25v3.125h3.438c0.842 0 1.563-0.72 1.563-1.563s-0.72-1.563-1.563-1.563h-3.438z"></path>
<path d="M10 1.25c-4.832 0-8.75 3.918-8.75 8.75s3.918 8.75 8.75 8.75c4.832 0 8.75-3.918 8.75-8.75s-3.918-8.75-8.75-8.75zM2.5 10c0-4.142 3.358-7.5 7.5-7.5s7.5 3.358 7.5 7.5c0 4.142-3.358 7.5-7.5 7.5s-7.5-3.358-7.5-7.5z"></path>
</svg>
