<!-- Generated by IcoMoon.io -->
<svg version="1.1" xmlns="http://www.w3.org/2000/svg" width="20" height="20" viewBox="0 0 20 20">
<title>currency-litecoin</title>
<path d="M10.172 5.024c0.332 0.095 0.524 0.441 0.429 0.773l-1.022 3.578h1.046c0.345 0 0.625 0.28 0.625 0.625s-0.28 0.625-0.625 0.625h-1.404l-0.893 3.125h4.171c0.345 0 0.625 0.28 0.625 0.625s-0.28 0.625-0.625 0.625h-5.829l1.25-4.375h-1.046c-0.345 0-0.625-0.28-0.625-0.625s0.28-0.625 0.625-0.625h1.404l1.121-3.922c0.095-0.332 0.441-0.524 0.773-0.429z"></path>
<path d="M1.25 10c0-4.832 3.918-8.75 8.75-8.75s8.75 3.918 8.75 8.75c0 4.832-3.918 8.75-8.75 8.75s-8.75-3.918-8.75-8.75zM10 2.5c-4.142 0-7.5 3.358-7.5 7.5s3.358 7.5 7.5 7.5c4.142 0 7.5-3.358 7.5-7.5s-3.358-7.5-7.5-7.5z"></path>
</svg>
