<!-- Generated by IcoMoon.io -->
<svg version="1.1" xmlns="http://www.w3.org/2000/svg" width="20" height="20" viewBox="0 0 20 20">
<title>currency-euro</title>
<path d="M7.575 7.308c1.375-1.427 3.66-1.44 5.108 0.008 0.244 0.244 0.64 0.244 0.884 0s0.244-0.64 0-0.884c-1.927-1.927-5.017-1.939-6.892 0.008-0.489 0.508-0.855 1.106-1.092 1.746h-0.583c-0.345 0-0.625 0.28-0.625 0.625s0.28 0.625 0.625 0.625h0.288c-0.043 0.394-0.041 0.793 0.007 1.188h-0.92c-0.345 0-0.625 0.28-0.625 0.625s0.28 0.625 0.625 0.625h1.237c0.236 0.594 0.592 1.15 1.071 1.629 1.927 1.927 5.017 1.939 6.892-0.008 0.239-0.249 0.232-0.644-0.017-0.884s-0.644-0.232-0.884 0.017c-1.375 1.427-3.66 1.44-5.108-0.008-0.226-0.226-0.416-0.477-0.569-0.746h2.377c0.345 0 0.625-0.28 0.625-0.625s-0.28-0.625-0.625-0.625h-2.817c-0.064-0.392-0.067-0.793-0.011-1.188h4.078c0.345 0 0.625-0.28 0.625-0.625s-0.28-0.625-0.625-0.625h-3.679c0.164-0.317 0.374-0.614 0.629-0.879z"></path>
<path d="M10 1.25c-4.832 0-8.75 3.918-8.75 8.75s3.918 8.75 8.75 8.75c4.832 0 8.75-3.918 8.75-8.75s-3.918-8.75-8.75-8.75zM2.5 10c0-4.142 3.358-7.5 7.5-7.5s7.5 3.358 7.5 7.5c0 4.142-3.358 7.5-7.5 7.5s-7.5-3.358-7.5-7.5z"></path>
</svg>
