<!-- Generated by IcoMoon.io -->
<svg version="1.1" xmlns="http://www.w3.org/2000/svg" width="20" height="20" viewBox="0 0 20 20">
<title>currency-usd</title>
<path d="M10.625 4.375v0.674c0.568 0.090 1.091 0.301 1.513 0.613 0.576 0.427 0.987 1.068 0.987 1.838 0 0.345-0.28 0.625-0.625 0.625s-0.625-0.28-0.625-0.625c0-0.292-0.151-0.589-0.482-0.834-0.333-0.247-0.824-0.416-1.393-0.416s-1.060 0.169-1.393 0.416c-0.33 0.245-0.482 0.542-0.482 0.834 0 0.378 0.175 0.686 0.556 1.004 0.402 0.335 0.955 0.615 1.598 0.937l0.036 0.018c0.599 0.299 1.278 0.639 1.803 1.077 0.556 0.463 1.006 1.093 1.006 1.964 0 0.77-0.411 1.411-0.987 1.838-0.422 0.313-0.945 0.524-1.513 0.613v0.674c0 0.345-0.28 0.625-0.625 0.625s-0.625-0.28-0.625-0.625v-0.674c-0.568-0.090-1.091-0.301-1.513-0.613-0.576-0.427-0.987-1.068-0.987-1.838 0-0.345 0.28-0.625 0.625-0.625s0.625 0.28 0.625 0.625c0 0.292 0.151 0.589 0.482 0.834 0.333 0.247 0.824 0.416 1.393 0.416s1.060-0.169 1.393-0.416c0.33-0.245 0.482-0.542 0.482-0.834 0-0.378-0.175-0.686-0.556-1.004-0.402-0.335-0.955-0.615-1.598-0.937l-0.036-0.018c-0.599-0.299-1.278-0.639-1.803-1.077-0.556-0.463-1.006-1.093-1.006-1.964 0-0.77 0.411-1.411 0.987-1.838 0.422-0.313 0.945-0.524 1.513-0.613v-0.674c0-0.345 0.28-0.625 0.625-0.625s0.625 0.28 0.625 0.625z"></path>
<path d="M10 1.25c-4.832 0-8.75 3.918-8.75 8.75s3.918 8.75 8.75 8.75c4.832 0 8.75-3.918 8.75-8.75s-3.918-8.75-8.75-8.75zM2.5 10c0-4.142 3.358-7.5 7.5-7.5s7.5 3.358 7.5 7.5c0 4.142-3.358 7.5-7.5 7.5s-7.5-3.358-7.5-7.5z"></path>
</svg>
