<!-- Generated by IcoMoon.io -->
<svg version="1.1" xmlns="http://www.w3.org/2000/svg" width="20" height="20" viewBox="0 0 20 20">
<title>currency-xrp</title>
<path d="M10.925 10.625l2.688 3.36c0.216 0.27 0.172 0.663-0.098 0.878s-0.663 0.172-0.878-0.098l-2.312-2.89h-0.649l-2.312 2.89c-0.216 0.27-0.609 0.313-0.878 0.098s-0.313-0.609-0.098-0.878l2.688-3.36h1.851z"></path>
<path d="M7.363 5.235c-0.216-0.27-0.609-0.313-0.878-0.098s-0.313 0.609-0.098 0.878l2.688 3.36h1.851l2.688-3.36c0.216-0.27 0.172-0.663-0.098-0.878s-0.663-0.172-0.878 0.098l-2.312 2.89h-0.649l-2.312-2.89z"></path>
<path d="M1.25 10c0-4.832 3.918-8.75 8.75-8.75s8.75 3.918 8.75 8.75c0 4.832-3.918 8.75-8.75 8.75s-8.75-3.918-8.75-8.75zM10 2.5c-4.142 0-7.5 3.358-7.5 7.5s3.358 7.5 7.5 7.5c4.142 0 7.5-3.358 7.5-7.5s-3.358-7.5-7.5-7.5z"></path>
</svg>
