<!-- Generated by IcoMoon.io -->
<svg version="1.1" xmlns="http://www.w3.org/2000/svg" width="32" height="32" viewBox="0 0 32 32">
<title>currency-pound</title>
<path d="M9 16c0-0.552 0.448-1 1-1h1.542c-0.099-0.409-0.2-0.779-0.288-1.074-0.271-0.704-0.259-1.298-0.134-1.922l0.002-0.010 0.002-0.010c0.494-2.223 2.473-3.983 4.876-3.983 2.752 0 5 2.248 5 5 0 0.552-0.448 1-1 1s-1-0.448-1-1c0-1.648-1.352-3-3-3-1.393 0-2.612 1.035-2.921 2.407-0.070 0.355-0.059 0.549 0.050 0.822l0.017 0.041 0.013 0.043c0.124 0.414 0.287 1.012 0.437 1.687h2.405c0.552 0 1 0.448 1 1s-0.448 1-1 1h-2.065c0.041 0.378 0.065 0.749 0.065 1.1 0 0.795-0.315 1.595-0.683 2.275-0.328 0.608-0.742 1.2-1.156 1.725h7.839c0.552 0 1 0.448 1 1s-0.448 1-1 1h-8.1c-0.75 0-1.413-0.389-1.732-1.028-0.322-0.645-0.23-1.418 0.26-2.008 0.425-0.52 0.833-1.090 1.129-1.639 0.308-0.57 0.442-1.020 0.442-1.325 0-0.34-0.030-0.715-0.079-1.1h-1.921c-0.552 0-1-0.448-1-1z"></path>
<path d="M2 16c0-7.732 6.268-14 14-14s14 6.268 14 14c0 7.732-6.268 14-14 14s-14-6.268-14-14zM16 4c-6.627 0-12 5.373-12 12s5.373 12 12 12c6.627 0 12-5.373 12-12s-5.373-12-12-12z"></path>
</svg>
