<!-- Generated by IcoMoon.io -->
<svg version="1.1" xmlns="http://www.w3.org/2000/svg" width="20" height="20" viewBox="0 0 20 20">
<title>currency-yen</title>
<path d="M7.5 11.25c0-0.345 0.28-0.625 0.625-0.625h1.25v-1.024l-2.98-3.576c-0.221-0.265-0.185-0.659 0.080-0.88s0.659-0.185 0.88 0.080l2.645 3.174 2.645-3.174c0.221-0.265 0.615-0.301 0.88-0.080s0.301 0.615 0.080 0.88l-2.98 3.576v1.024h1.25c0.345 0 0.625 0.28 0.625 0.625s-0.28 0.625-0.625 0.625h-1.25v0.625h1.25c0.345 0 0.625 0.28 0.625 0.625s-0.28 0.625-0.625 0.625h-1.25v0.625c0 0.345-0.28 0.625-0.625 0.625s-0.625-0.28-0.625-0.625v-0.625h-1.25c-0.345 0-0.625-0.28-0.625-0.625s0.28-0.625 0.625-0.625h1.25v-0.625h-1.25c-0.345 0-0.625-0.28-0.625-0.625z"></path>
<path d="M1.25 10c0-4.832 3.918-8.75 8.75-8.75s8.75 3.918 8.75 8.75c0 4.832-3.918 8.75-8.75 8.75s-8.75-3.918-8.75-8.75zM10 2.5c-4.142 0-7.5 3.358-7.5 7.5s3.358 7.5 7.5 7.5c4.142 0 7.5-3.358 7.5-7.5s-3.358-7.5-7.5-7.5z"></path>
</svg>
