<!-- Generated by IcoMoon.io -->
<svg version="1.1" xmlns="http://www.w3.org/2000/svg" width="20" height="20" viewBox="0 0 20 20">
<title>currency-pound</title>
<path d="M5.625 10c0-0.345 0.28-0.625 0.625-0.625h0.964c-0.062-0.256-0.125-0.487-0.18-0.671-0.17-0.44-0.162-0.811-0.084-1.201l0.001-0.007 0.001-0.007c0.309-1.389 1.546-2.489 3.048-2.489 1.72 0 3.125 1.405 3.125 3.125 0 0.345-0.28 0.625-0.625 0.625s-0.625-0.28-0.625-0.625c0-1.030-0.845-1.875-1.875-1.875-0.871 0-1.632 0.647-1.826 1.504-0.044 0.222-0.037 0.343 0.031 0.514l0.010 0.026 0.008 0.027c0.078 0.259 0.18 0.633 0.273 1.055h1.503c0.345 0 0.625 0.28 0.625 0.625s-0.28 0.625-0.625 0.625h-1.291c0.026 0.236 0.041 0.468 0.041 0.688 0 0.497-0.197 0.997-0.427 1.422-0.205 0.38-0.464 0.75-0.723 1.078h4.899c0.345 0 0.625 0.28 0.625 0.625s-0.28 0.625-0.625 0.625h-5.062c-0.469 0-0.883-0.243-1.082-0.642-0.201-0.403-0.143-0.886 0.163-1.255 0.266-0.325 0.52-0.681 0.706-1.024 0.192-0.356 0.277-0.638 0.277-0.828 0-0.213-0.018-0.447-0.049-0.688h-1.201c-0.345 0-0.625-0.28-0.625-0.625z"></path>
<path d="M1.25 10c0-4.832 3.918-8.75 8.75-8.75s8.75 3.918 8.75 8.75c0 4.832-3.918 8.75-8.75 8.75s-8.75-3.918-8.75-8.75zM10 2.5c-4.142 0-7.5 3.358-7.5 7.5s3.358 7.5 7.5 7.5c4.142 0 7.5-3.358 7.5-7.5s-3.358-7.5-7.5-7.5z"></path>
</svg>
