<!-- Generated by IcoMoon.io -->
<svg version="1.1" xmlns="http://www.w3.org/2000/svg" width="20" height="20" viewBox="0 0 20 20">
<title>cycle-cw</title>
<path d="M4.692 4.708c2.943-2.943 7.673-2.943 10.616 0l0.683 0.683h-1.991c-0.345 0-0.625 0.28-0.625 0.625s0.28 0.625 0.625 0.625h3.498c0.002 0 0.003 0 0.004 0h0.623v-0.622c0-0.002 0-0.004 0-0.006v-3.497c0-0.345-0.28-0.625-0.625-0.625s-0.625 0.28-0.625 0.625v1.991l-0.683-0.683c-3.432-3.432-8.952-3.432-12.384 0s-3.432 8.952 0 12.384c3.432 3.432 8.952 3.432 12.384 0 1.816-1.816 2.692-4.24 2.557-6.664-0.019-0.345-0.314-0.608-0.659-0.589s-0.608 0.314-0.589 0.659c0.115 2.076-0.633 4.152-2.193 5.711-2.943 2.943-7.673 2.943-10.616 0s-2.943-7.673 0-10.616z"></path>
</svg>
