<!-- Generated by IcoMoon.io -->
<svg version="1.1" xmlns="http://www.w3.org/2000/svg" width="20" height="20" viewBox="0 0 20 20">
<title>cycle-square-cw</title>
<path d="M5 1.875c-1.408 0-2.5 1.092-2.5 2.5v10c0 1.408 1.092 2.5 2.5 2.5h1.25c0.345 0 0.625-0.28 0.625-0.625s-0.28-0.625-0.625-0.625h-1.25c-0.717 0-1.25-0.533-1.25-1.25v-10c0-0.717 0.533-1.25 1.25-1.25h10c0.717 0 1.25 0.533 1.25 1.25v10c0 0.717-0.533 1.25-1.25 1.25h-3.491l0.808-0.808c0.244-0.244 0.244-0.64 0-0.884s-0.64-0.244-0.884 0l-2.317 2.317 2.317 2.317c0.244 0.244 0.64 0.244 0.884 0s0.244-0.64 0-0.884l-0.808-0.808h3.491c1.408 0 2.5-1.092 2.5-2.5v-10c0-1.408-1.092-2.5-2.5-2.5h-10z"></path>
</svg>
