<!-- Generated by IcoMoon.io -->
<svg version="1.1" xmlns="http://www.w3.org/2000/svg" width="32" height="32" viewBox="0 0 32 32">
<title>cycle-cw</title>
<path d="M7.507 7.532c4.71-4.709 12.276-4.709 16.986 0l1.093 1.093h-3.186c-0.552 0-1 0.448-1 1s0.448 1 1 1h5.596c0.002 0 0.005 0 0.007 0h0.997v-0.995c0-0.003 0-0.007 0-0.010v-5.595c0-0.552-0.448-1-1-1s-1 0.448-1 1v3.186l-1.093-1.093c-5.491-5.491-14.324-5.491-19.814 0s-5.491 14.324 0 19.814c5.491 5.491 14.324 5.491 19.814 0 2.905-2.905 4.307-6.784 4.091-10.663-0.031-0.551-0.503-0.974-1.054-0.943s-0.974 0.502-0.943 1.054c0.185 3.321-1.014 6.642-3.509 9.137-4.71 4.709-12.276 4.709-16.986 0s-4.709-12.276 0-16.986z"></path>
</svg>
