<!-- Generated by IcoMoon.io -->
<svg version="1.1" xmlns="http://www.w3.org/2000/svg" width="20" height="20" viewBox="0 0 20 20">
<title>database</title>
<path d="M1.25 15.625v-11.25c0-0.641 0.42-1.133 0.896-1.479 0.489-0.356 1.157-0.65 1.925-0.887 1.545-0.475 3.641-0.76 5.929-0.76s4.384 0.285 5.929 0.76c0.769 0.236 1.436 0.531 1.925 0.887 0.475 0.346 0.896 0.838 0.896 1.479v11.25c0 0.639-0.42 1.13-0.894 1.476-0.488 0.356-1.154 0.65-1.922 0.887-1.543 0.476-3.64 0.762-5.934 0.762s-4.391-0.286-5.934-0.762c-0.768-0.237-1.434-0.532-1.922-0.887-0.474-0.346-0.894-0.836-0.894-1.476zM2.5 4.375c0 0.049 0.034 0.215 0.381 0.468 0.333 0.242 0.856 0.487 1.557 0.703 1.396 0.429 3.362 0.705 5.561 0.705s4.166-0.275 5.561-0.705c0.702-0.216 1.224-0.46 1.557-0.703 0.347-0.252 0.381-0.418 0.381-0.468s-0.034-0.215-0.381-0.468c-0.333-0.242-0.856-0.487-1.557-0.703-1.396-0.429-3.362-0.705-5.561-0.705s-4.166 0.275-5.561 0.705c-0.702 0.216-1.224 0.46-1.557 0.703-0.347 0.252-0.381 0.418-0.381 0.468zM4.071 6.74c-0.597-0.184-1.132-0.402-1.571-0.657v2.042c0 0.048 0.034 0.213 0.38 0.466 0.332 0.242 0.854 0.487 1.554 0.703 1.394 0.43 3.36 0.707 5.566 0.707s4.172-0.277 5.566-0.707c0.701-0.216 1.222-0.461 1.554-0.703 0.346-0.252 0.38-0.418 0.38-0.466v-2.042c-0.439 0.255-0.974 0.473-1.571 0.657-1.545 0.475-3.641 0.76-5.929 0.76s-4.384-0.285-5.929-0.76zM17.5 9.832c-0.437 0.254-0.971 0.472-1.566 0.656-1.543 0.476-3.64 0.762-5.934 0.762s-4.391-0.286-5.934-0.762c-0.595-0.183-1.129-0.402-1.566-0.656v2.043c0 0.048 0.034 0.213 0.38 0.466 0.332 0.242 0.854 0.487 1.554 0.703 1.394 0.43 3.36 0.707 5.566 0.707s4.172-0.277 5.566-0.707c0.701-0.216 1.222-0.461 1.554-0.703 0.346-0.252 0.38-0.417 0.38-0.466v-2.043zM4.066 14.238c-0.595-0.183-1.129-0.402-1.566-0.656v2.043c0 0.048 0.034 0.213 0.38 0.466 0.332 0.242 0.854 0.487 1.554 0.703 1.394 0.43 3.36 0.707 5.566 0.707s4.172-0.277 5.566-0.707c0.701-0.216 1.222-0.461 1.554-0.703 0.346-0.252 0.38-0.418 0.38-0.466v-2.043c-0.437 0.254-0.971 0.472-1.566 0.656-1.543 0.476-3.64 0.762-5.934 0.762s-4.391-0.286-5.934-0.762z"></path>
</svg>
