<!-- Generated by IcoMoon.io -->
<svg version="1.1" xmlns="http://www.w3.org/2000/svg" width="20" height="20" viewBox="0 0 20 20">
<title>database-ok</title>
<path d="M2.5 6.083c0.439 0.255 0.974 0.473 1.571 0.657 1.545 0.475 3.641 0.76 5.929 0.76s4.384-0.285 5.929-0.76c0.597-0.184 1.132-0.402 1.571-0.657v2.042c0 0.040-0.023 0.181-0.284 0.355-0.287 0.192-0.365 0.58-0.173 0.867 0.118 0.177 0.311 0.275 0.51 0.278 0.096 0.221 0.317 0.375 0.573 0.375 0.345 0 0.625-0.28 0.625-0.625v-5c0-0.641-0.42-1.133-0.896-1.479-0.489-0.356-1.157-0.65-1.925-0.887-1.545-0.475-3.641-0.76-5.929-0.76s-4.384 0.285-5.929 0.76c-0.769 0.236-1.436 0.531-1.925 0.887-0.475 0.346-0.896 0.838-0.896 1.479v11.25c0 0.612 0.386 1.087 0.83 1.424 0.453 0.345 1.071 0.631 1.78 0.865 1.425 0.469 3.363 0.772 5.497 0.836 0.345 0.010 0.633-0.261 0.643-0.606s-0.261-0.633-0.606-0.643c-2.054-0.061-3.865-0.352-5.143-0.774-0.643-0.212-1.115-0.445-1.414-0.672-0.309-0.235-0.337-0.385-0.337-0.429v-2.039c0.281 0.164 0.598 0.311 0.94 0.442 1.193 0.459 2.821 0.78 4.642 0.907 0.344 0.024 0.643-0.235 0.667-0.58s-0.235-0.643-0.58-0.667c-1.742-0.122-3.239-0.427-4.28-0.827-0.523-0.201-0.898-0.414-1.13-0.614-0.236-0.203-0.258-0.33-0.258-0.373v-2.048c0.388 0.224 0.85 0.419 1.359 0.587 1.425 0.469 3.363 0.772 5.497 0.836 0.345 0.010 0.633-0.261 0.643-0.606s-0.261-0.633-0.606-0.643c-2.054-0.061-3.865-0.352-5.143-0.774-0.643-0.212-1.115-0.445-1.414-0.672-0.309-0.235-0.337-0.385-0.337-0.429v-2.042zM2.5 4.375c0-0.049 0.034-0.215 0.381-0.468 0.333-0.242 0.856-0.487 1.557-0.703 1.396-0.429 3.362-0.705 5.561-0.705s4.166 0.275 5.561 0.705c0.702 0.216 1.224 0.46 1.557 0.703 0.347 0.252 0.381 0.418 0.381 0.468s-0.034 0.215-0.381 0.468c-0.333 0.242-0.856 0.487-1.557 0.703-1.396 0.429-3.362 0.705-5.561 0.705s-4.166-0.275-5.561-0.705c-0.702-0.216-1.224-0.46-1.557-0.703-0.347-0.252-0.381-0.418-0.381-0.468z"></path>
<path d="M16.692 12.683c0.244 0.244 0.244 0.64 0 0.884l-2.942 2.942-1.692-1.692c-0.244-0.244-0.244-0.64 0-0.884s0.64-0.244 0.884 0l0.808 0.808 2.058-2.058c0.244-0.244 0.64-0.244 0.884 0z"></path>
<path d="M9.375 14.375c0-2.761 2.239-5 5-5s5 2.239 5 5c0 2.761-2.239 5-5 5s-5-2.239-5-5zM14.375 10.625c-2.071 0-3.75 1.679-3.75 3.75s1.679 3.75 3.75 3.75c2.071 0 3.75-1.679 3.75-3.75s-1.679-3.75-3.75-3.75z"></path>
</svg>
