<!-- Generated by IcoMoon.io -->
<svg version="1.1" xmlns="http://www.w3.org/2000/svg" width="32" height="32" viewBox="0 0 32 32">
<title>database</title>
<path d="M2 25v-18c0-1.026 0.673-1.812 1.433-2.366 0.782-0.569 1.85-1.040 3.080-1.419 2.472-0.761 5.825-1.216 9.486-1.216s7.015 0.455 9.486 1.216c1.23 0.378 2.298 0.849 3.080 1.419 0.761 0.553 1.433 1.34 1.433 2.366v18c0 1.023-0.671 1.809-1.43 2.361-0.781 0.569-1.847 1.040-3.075 1.419-2.469 0.762-5.823 1.219-9.495 1.219s-7.025-0.458-9.495-1.219c-1.229-0.379-2.295-0.85-3.075-1.419-0.759-0.553-1.43-1.338-1.43-2.361zM4 7c0 0.079 0.055 0.345 0.61 0.748 0.533 0.388 1.369 0.779 2.492 1.124 2.233 0.687 5.38 1.127 8.898 1.127s6.665-0.44 8.898-1.127c1.123-0.345 1.959-0.736 2.492-1.124 0.555-0.404 0.61-0.669 0.61-0.748s-0.055-0.345-0.61-0.748c-0.533-0.388-1.369-0.779-2.492-1.124-2.233-0.687-5.38-1.127-8.898-1.127s-6.665 0.44-8.898 1.127c-1.123 0.345-1.959 0.736-2.492 1.124-0.555 0.404-0.61 0.669-0.61 0.748zM6.514 10.784c-0.955-0.294-1.812-0.643-2.514-1.051v3.267c0 0.077 0.054 0.341 0.608 0.745 0.532 0.387 1.366 0.779 2.487 1.124 2.231 0.688 5.377 1.131 8.905 1.131s6.675-0.442 8.905-1.131c1.121-0.346 1.955-0.737 2.487-1.124 0.554-0.403 0.608-0.668 0.608-0.745v-3.267c-0.702 0.408-1.559 0.758-2.514 1.051-2.472 0.761-5.825 1.216-9.486 1.216s-7.015-0.455-9.486-1.216zM28 15.731c-0.7 0.407-1.554 0.756-2.505 1.049-2.469 0.762-5.823 1.219-9.495 1.219s-7.025-0.458-9.495-1.219c-0.952-0.294-1.806-0.643-2.505-1.049v3.269c0 0.077 0.054 0.341 0.608 0.745 0.532 0.387 1.366 0.779 2.487 1.125 2.231 0.688 5.377 1.131 8.905 1.131s6.675-0.442 8.905-1.131c1.121-0.346 1.955-0.737 2.487-1.125 0.554-0.404 0.608-0.668 0.608-0.745v-3.269zM6.505 22.781c-0.952-0.294-1.806-0.643-2.505-1.049v3.269c0 0.077 0.054 0.341 0.608 0.745 0.532 0.387 1.366 0.779 2.487 1.125 2.231 0.688 5.377 1.131 8.905 1.131s6.675-0.442 8.905-1.131c1.121-0.346 1.955-0.737 2.487-1.125 0.554-0.404 0.608-0.668 0.608-0.745v-3.269c-0.7 0.407-1.554 0.756-2.505 1.049-2.469 0.762-5.823 1.219-9.495 1.219s-7.025-0.458-9.495-1.219z"></path>
</svg>
