<!-- Generated by IcoMoon.io -->
<svg version="1.1" xmlns="http://www.w3.org/2000/svg" width="32" height="32" viewBox="0 0 32 32">
<title>delete-square</title>
<path d="M8.293 8.293c0.391-0.391 1.024-0.391 1.414 0l6.293 6.293 6.293-6.293c0.39-0.391 1.024-0.391 1.414 0s0.39 1.024 0 1.414l-6.293 6.293 6.293 6.293c0.39 0.39 0.39 1.024 0 1.414s-1.024 0.39-1.414 0l-6.293-6.293-6.293 6.293c-0.391 0.39-1.024 0.39-1.414 0s-0.391-1.024 0-1.414l6.293-6.293-6.293-6.293c-0.391-0.391-0.391-1.024 0-1.414z"></path>
<path d="M2 6c0-2.252 1.748-4 4-4h20c2.252 0 4 1.748 4 4v20c0 2.252-1.748 4-4 4h-20c-2.252 0-4-1.748-4-4v-20zM6 4c-1.148 0-2 0.852-2 2v20c0 1.148 0.852 2 2 2h20c1.148 0 2-0.852 2-2v-20c0-1.148-0.852-2-2-2h-20z"></path>
</svg>
