<!-- Generated by IcoMoon.io -->
<svg version="1.1" xmlns="http://www.w3.org/2000/svg" width="20" height="20" viewBox="0 0 20 20">
<title>delete-circle</title>
<path d="M6.121 6.121c0.244-0.244 0.64-0.244 0.884 0l2.996 2.996 2.996-2.996c0.244-0.244 0.64-0.244 0.884 0s0.244 0.64 0 0.884l-2.996 2.996 2.996 2.996c0.244 0.244 0.244 0.64 0 0.884s-0.64 0.244-0.884 0l-2.996-2.996-2.996 2.996c-0.244 0.244-0.64 0.244-0.884 0s-0.244-0.64 0-0.884l2.996-2.996-2.996-2.996c-0.244-0.244-0.244-0.64 0-0.884z"></path>
<path d="M1.25 10c0-4.832 3.918-8.75 8.75-8.75s8.75 3.918 8.75 8.75c0 4.832-3.918 8.75-8.75 8.75s-8.75-3.918-8.75-8.75zM10 2.5c-4.142 0-7.5 3.358-7.5 7.5s3.358 7.5 7.5 7.5c4.142 0 7.5-3.358 7.5-7.5s-3.358-7.5-7.5-7.5z"></path>
</svg>
