<!-- Generated by IcoMoon.io -->
<svg version="1.1" xmlns="http://www.w3.org/2000/svg" width="20" height="20" viewBox="0 0 20 20">
<title>deny</title>
<path d="M10 3.125c3.797 0 6.875 3.078 6.875 6.875s-3.078 6.875-6.875 6.875c-3.797 0-6.875-3.078-6.875-6.875s3.078-6.875 6.875-6.875zM6.489 5.605l7.906 7.906c0.77-0.962 1.23-2.183 1.23-3.511 0-3.107-2.518-5.625-5.625-5.625-1.328 0-2.549 0.46-3.511 1.23zM5.605 6.489c-0.77 0.962-1.23 2.183-1.23 3.511 0 3.107 2.518 5.625 5.625 5.625 1.328 0 2.549-0.46 3.511-1.23l-7.906-7.906z"></path>
</svg>
