<!-- Generated by IcoMoon.io -->
<svg version="1.1" xmlns="http://www.w3.org/2000/svg" width="20" height="20" viewBox="0 0 20 20">
<title>desktop</title>
<path d="M3.75 2.5c-1.408 0-2.5 1.092-2.5 2.5v7.5c0 1.408 1.092 2.5 2.5 2.5h5.625v1.25h-2.5v1.25h6.25v-1.25h-2.5v-1.25h5.625c1.408 0 2.5-1.092 2.5-2.5v-7.5c0-1.408-1.092-2.5-2.5-2.5h-12.5zM2.5 5c0-0.717 0.533-1.25 1.25-1.25h12.5c0.717 0 1.25 0.533 1.25 1.25v5.625h-15v-5.625zM2.5 11.875h15v0.625c0 0.717-0.533 1.25-1.25 1.25h-12.5c-0.717 0-1.25-0.533-1.25-1.25v-0.625z"></path>
</svg>
