<!-- Generated by IcoMoon.io -->
<svg version="1.1" xmlns="http://www.w3.org/2000/svg" width="20" height="20" viewBox="0 0 20 20">
<title>device-portrait</title>
<path d="M10.938 15c0 0.518-0.42 0.938-0.938 0.938s-0.938-0.42-0.938-0.938c0-0.518 0.42-0.938 0.938-0.938s0.938 0.42 0.938 0.938z"></path>
<path d="M6.875 1.25c-1.408 0-2.5 1.092-2.5 2.5v12.5c0 1.408 1.092 2.5 2.5 2.5h6.25c1.408 0 2.5-1.092 2.5-2.5v-12.5c0-1.408-1.092-2.5-2.5-2.5h-6.25zM5.625 3.75c0-0.717 0.533-1.25 1.25-1.25h6.25c0.717 0 1.25 0.533 1.25 1.25v12.5c0 0.717-0.533 1.25-1.25 1.25h-6.25c-0.717 0-1.25-0.533-1.25-1.25v-12.5z"></path>
</svg>
