<!-- Generated by IcoMoon.io -->
<svg version="1.1" xmlns="http://www.w3.org/2000/svg" width="32" height="32" viewBox="0 0 32 32">
<title>device-portrait</title>
<path d="M17.5 24c0 0.828-0.672 1.5-1.5 1.5s-1.5-0.672-1.5-1.5c0-0.828 0.672-1.5 1.5-1.5s1.5 0.672 1.5 1.5z"></path>
<path d="M11 2c-2.252 0-4 1.748-4 4v20c0 2.252 1.748 4 4 4h10c2.252 0 4-1.748 4-4v-20c0-2.252-1.748-4-4-4h-10zM9 6c0-1.148 0.852-2 2-2h10c1.148 0 2 0.852 2 2v20c0 1.148-0.852 2-2 2h-10c-1.148 0-2-0.852-2-2v-20z"></path>
</svg>
