<!-- Generated by IcoMoon.io -->
<svg version="1.1" xmlns="http://www.w3.org/2000/svg" width="32" height="32" viewBox="0 0 32 32">
<title>device-landscape</title>
<path d="M9.5 16c0 0.828-0.672 1.5-1.5 1.5s-1.5-0.672-1.5-1.5c0-0.828 0.672-1.5 1.5-1.5s1.5 0.672 1.5 1.5z"></path>
<path d="M6 7c-2.252 0-4 1.748-4 4v10c0 2.252 1.748 4 4 4h20c2.252 0 4-1.748 4-4v-10c0-2.252-1.748-4-4-4h-20zM4 11c0-1.148 0.852-2 2-2h20c1.148 0 2 0.852 2 2v10c0 1.148-0.852 2-2 2h-20c-1.148 0-2-0.852-2-2v-10z"></path>
</svg>
