<!-- Generated by IcoMoon.io -->
<svg version="1.1" xmlns="http://www.w3.org/2000/svg" width="20" height="20" viewBox="0 0 20 20">
<title>diamond</title>
<path d="M4.119 1.305c0.028-0.013 0.057-0.023 0.086-0.031 0.061-0.017 0.122-0.025 0.183-0.023h11.223c0.060-0.001 0.121 0.006 0.182 0.023 0.031 0.009 0.062 0.020 0.091 0.033 0.124 0.057 0.222 0.15 0.285 0.262 0.005 0.009 0.010 0.018 0.015 0.028l2.493 4.987c0.028 0.054 0.049 0.111 0.060 0.17 0.007 0.034 0.011 0.068 0.012 0.102 0.005 0.135-0.034 0.272-0.119 0.389-0.008 0.011-0.016 0.021-0.024 0.031l-8.117 9.99c-0.116 0.147-0.296 0.237-0.49 0.237s-0.374-0.090-0.49-0.238l-8.116-9.989c-0.008-0.010-0.016-0.020-0.024-0.031-0.089-0.122-0.127-0.267-0.118-0.408 0.001-0.021 0.004-0.042 0.007-0.062 0.011-0.066 0.032-0.13 0.064-0.19l2.499-4.997c0.063-0.121 0.166-0.222 0.298-0.281zM11.93 13.509l4.882-6.009h-2.629l-2.253 6.009zM12.848 7.5h-5.696l2.848 7.595 2.848-7.595zM5.817 7.5h-2.629l4.882 6.009-2.253-6.009zM4.293 3.437l-1.407 2.814h2.462l-1.055-2.814zM7.5 6.25h5l-2.5-3.333-2.5 3.333zM14.652 6.25h2.462l-1.407-2.814-1.055 2.814zM14.723 2.5h-3.473l2.315 3.087 1.158-3.087zM8.75 2.5h-3.473l1.158 3.087 2.315-3.087z"></path>
</svg>
