<!-- Generated by IcoMoon.io -->
<svg version="1.1" xmlns="http://www.w3.org/2000/svg" width="20" height="20" viewBox="0 0 20 20">
<title>digitalocean</title>
<path d="M10 18.975v-3.544c0.918 0.001 1.822-0.223 2.634-0.651s1.506-1.050 2.023-1.808 0.84-1.633 0.941-2.545c0.101-0.912-0.022-1.836-0.36-2.689-0.27-0.72-0.693-1.372-1.24-1.912s-1.205-0.954-1.929-1.213c-0.85-0.336-1.769-0.46-2.678-0.361s-1.78 0.418-2.538 0.93c-0.758 0.512-1.379 1.2-1.811 2.006s-0.66 1.705-0.667 2.619h-3.544c0.004-1.454 0.352-2.886 1.016-4.18s1.625-2.411 2.805-3.261c1.179-0.85 2.544-1.409 3.981-1.63s2.906-0.098 4.286 0.358c1.359 0.429 2.595 1.179 3.603 2.187s1.76 2.242 2.191 3.601c0.458 1.381 0.581 2.85 0.361 4.288s-0.779 2.803-1.629 3.983c-0.85 1.18-1.968 2.142-3.262 2.807s-2.727 1.013-4.182 1.016zM6.469 15.431h3.531v-3.537h-3.531v3.537zM3.75 18.15h2.713v-2.719h-2.713v2.719zM1.475 15.431h2.275v-2.269h-2.275v2.269z"></path>
</svg>
