<!-- Generated by IcoMoon.io -->
<svg version="1.1" xmlns="http://www.w3.org/2000/svg" width="20" height="20" viewBox="0 0 20 20">
<title>direction-both</title>
<path d="M10.625 1.875v0.625h5.259l3.125 3.125-3.125 3.125h-5.259v0.625h7.5v6.25h-7.5v2.5c0 0.345-0.28 0.625-0.625 0.625s-0.625-0.28-0.625-0.625v-2.5h-5.259l-3.125-3.125 3.125-3.125h5.259v-0.625h-7.5v-6.25h7.5v-0.625c0-0.345 0.28-0.625 0.625-0.625s0.625 0.28 0.625 0.625zM4.634 10.625l-1.875 1.875 1.875 1.875h12.241v-3.75h-12.241zM15.366 7.5l1.875-1.875-1.875-1.875h-12.241v3.75h12.241z"></path>
</svg>
