<!-- Generated by IcoMoon.io -->
<svg version="1.1" xmlns="http://www.w3.org/2000/svg" width="20" height="20" viewBox="0 0 20 20">
<title>disability</title>
<path d="M5.625 3.75c0-1.381 1.119-2.5 2.5-2.5s2.5 1.119 2.5 2.5c0 1.381-1.119 2.5-2.5 2.5s-2.5-1.119-2.5-2.5zM8.125 2.5c-0.69 0-1.25 0.56-1.25 1.25s0.56 1.25 1.25 1.25c0.69 0 1.25-0.56 1.25-1.25s-0.56-1.25-1.25-1.25z"></path>
<path d="M8.75 8.125c0-0.345-0.28-0.625-0.625-0.625s-0.625 0.28-0.625 0.625v6.25h4.637l2.5 4.375h1.613c0.345 0 0.625-0.28 0.625-0.625s-0.28-0.625-0.625-0.625h-0.887l-2.5-4.375h-4.113v-3.125h3.125c0.345 0 0.625-0.28 0.625-0.625s-0.28-0.625-0.625-0.625h-3.125v-0.625z"></path>
<path d="M6.51 10.381c0.314-0.144 0.452-0.515 0.308-0.829s-0.515-0.452-0.829-0.308c-1.721 0.789-2.865 2.51-2.865 4.506 0 2.783 2.217 5 5 5 1.718 0 3.219-0.862 4.141-2.21 0.195-0.285 0.122-0.674-0.163-0.869s-0.674-0.122-0.869 0.163c-0.703 1.028-1.828 1.665-3.109 1.665-2.092 0-3.75-1.658-3.75-3.75 0-1.504 0.856-2.783 2.135-3.369z"></path>
</svg>
