<!-- Generated by IcoMoon.io -->
<svg version="1.1" xmlns="http://www.w3.org/2000/svg" width="32" height="32" viewBox="0 0 32 32">
<title>disability</title>
<path d="M9 6c0-2.209 1.791-4 4-4s4 1.791 4 4c0 2.209-1.791 4-4 4s-4-1.791-4-4zM13 4c-1.105 0-2 0.895-2 2s0.895 2 2 2c1.105 0 2-0.895 2-2s-0.895-2-2-2z"></path>
<path d="M14 13c0-0.552-0.448-1-1-1s-1 0.448-1 1v10h7.42l4 7h2.58c0.552 0 1-0.448 1-1s-0.448-1-1-1h-1.42l-4-7h-6.58v-5h5c0.552 0 1-0.448 1-1s-0.448-1-1-1h-5v-1z"></path>
<path d="M10.417 16.609c0.502-0.23 0.723-0.824 0.492-1.326s-0.824-0.723-1.326-0.492c-2.753 1.262-4.583 4.016-4.583 7.209 0 4.452 3.548 8 8 8 2.75 0 5.15-1.379 6.625-3.535 0.312-0.456 0.195-1.078-0.261-1.39s-1.078-0.195-1.39 0.261c-1.125 1.644-2.924 2.665-4.975 2.665-3.348 0-6-2.652-6-6 0-2.407 1.37-4.453 3.417-5.391z"></path>
</svg>
