<!-- Generated by IcoMoon.io -->
<svg version="1.1" xmlns="http://www.w3.org/2000/svg" width="32" height="32" viewBox="0 0 32 32">
<title>discount-ticket</title>
<path d="M10 13c0.552 0 1-0.448 1-1s-0.448-1-1-1c-0.552 0-1 0.448-1 1s0.448 1 1 1z"></path>
<path d="M11 16c0 0.552-0.448 1-1 1s-1-0.448-1-1c0-0.552 0.448-1 1-1s1 0.448 1 1z"></path>
<path d="M10 21c0.552 0 1-0.448 1-1s-0.448-1-1-1c-0.552 0-1 0.448-1 1s0.448 1 1 1z"></path>
<path d="M17.207 20.707l8-8c0.39-0.39 0.39-1.024 0-1.414s-1.024-0.39-1.414 0l-8 8c-0.39 0.39-0.39 1.024 0 1.414s1.024 0.39 1.414 0z"></path>
<path d="M15 12.5c0-1.381 1.119-2.5 2.5-2.5s2.5 1.119 2.5 2.5c0 1.381-1.119 2.5-2.5 2.5s-2.5-1.119-2.5-2.5zM17.5 12c-0.276 0-0.5 0.224-0.5 0.5s0.224 0.5 0.5 0.5c0.276 0 0.5-0.224 0.5-0.5s-0.224-0.5-0.5-0.5z"></path>
<path d="M23.5 17c-1.381 0-2.5 1.119-2.5 2.5s1.119 2.5 2.5 2.5c1.381 0 2.5-1.119 2.5-2.5s-1.119-2.5-2.5-2.5zM23 19.5c0-0.276 0.224-0.5 0.5-0.5s0.5 0.224 0.5 0.5c0 0.276-0.224 0.5-0.5 0.5s-0.5-0.224-0.5-0.5z"></path>
<path d="M2 11c0-2.252 1.748-4 4-4h20c2.252 0 4 1.748 4 4v10c0 2.252-1.748 4-4 4h-20c-2.252 0-4-1.748-4-4v-10zM6 9c-1.148 0-2 0.852-2 2v10c0 1.148 0.852 2 2 2h20c1.148 0 2-0.852 2-2v-10c0-1.148-0.852-2-2-2h-20z"></path>
</svg>
