<!-- Generated by IcoMoon.io -->
<svg version="1.1" xmlns="http://www.w3.org/2000/svg" width="20" height="20" viewBox="0 0 20 20">
<title>discount-ticket</title>
<path d="M6.25 8.125c0.345 0 0.625-0.28 0.625-0.625s-0.28-0.625-0.625-0.625c-0.345 0-0.625 0.28-0.625 0.625s0.28 0.625 0.625 0.625z"></path>
<path d="M6.875 10c0 0.345-0.28 0.625-0.625 0.625s-0.625-0.28-0.625-0.625c0-0.345 0.28-0.625 0.625-0.625s0.625 0.28 0.625 0.625z"></path>
<path d="M6.25 13.125c0.345 0 0.625-0.28 0.625-0.625s-0.28-0.625-0.625-0.625c-0.345 0-0.625 0.28-0.625 0.625s0.28 0.625 0.625 0.625z"></path>
<path d="M10.754 12.942l5-5c0.244-0.244 0.244-0.64 0-0.884s-0.64-0.244-0.884 0l-5 5c-0.244 0.244-0.244 0.64 0 0.884s0.64 0.244 0.884 0z"></path>
<path d="M9.375 7.813c0-0.863 0.7-1.563 1.563-1.563s1.563 0.7 1.563 1.563c0 0.863-0.7 1.563-1.563 1.563s-1.563-0.7-1.563-1.563zM10.938 7.5c-0.173 0-0.313 0.14-0.313 0.313s0.14 0.313 0.313 0.313c0.173 0 0.313-0.14 0.313-0.313s-0.14-0.313-0.313-0.313z"></path>
<path d="M14.688 10.625c-0.863 0-1.563 0.7-1.563 1.563s0.7 1.563 1.563 1.563c0.863 0 1.563-0.7 1.563-1.563s-0.7-1.563-1.563-1.563zM14.375 12.188c0-0.173 0.14-0.313 0.313-0.313s0.313 0.14 0.313 0.313c0 0.173-0.14 0.313-0.313 0.313s-0.313-0.14-0.313-0.313z"></path>
<path d="M1.25 6.875c0-1.408 1.092-2.5 2.5-2.5h12.5c1.408 0 2.5 1.092 2.5 2.5v6.25c0 1.408-1.092 2.5-2.5 2.5h-12.5c-1.408 0-2.5-1.092-2.5-2.5v-6.25zM3.75 5.625c-0.717 0-1.25 0.533-1.25 1.25v6.25c0 0.717 0.533 1.25 1.25 1.25h12.5c0.717 0 1.25-0.533 1.25-1.25v-6.25c0-0.717-0.533-1.25-1.25-1.25h-12.5z"></path>
</svg>
