<!-- Generated by IcoMoon.io -->
<svg version="1.1" xmlns="http://www.w3.org/2000/svg" width="20" height="20" viewBox="0 0 20 20">
<title>divide</title>
<path d="M6.875 5c0-1.726 1.399-3.125 3.125-3.125s3.125 1.399 3.125 3.125c0 1.726-1.399 3.125-3.125 3.125s-3.125-1.399-3.125-3.125zM10 3.125c-1.036 0-1.875 0.839-1.875 1.875s0.839 1.875 1.875 1.875c1.036 0 1.875-0.839 1.875-1.875s-0.839-1.875-1.875-1.875z"></path>
<path d="M6.875 15c0-1.726 1.399-3.125 3.125-3.125s3.125 1.399 3.125 3.125c0 1.726-1.399 3.125-3.125 3.125s-3.125-1.399-3.125-3.125zM10 13.125c-1.036 0-1.875 0.839-1.875 1.875s0.839 1.875 1.875 1.875c1.036 0 1.875-0.839 1.875-1.875s-0.839-1.875-1.875-1.875z"></path>
<path d="M5.625 9.375c-0.345 0-0.625 0.28-0.625 0.625s0.28 0.625 0.625 0.625h8.75c0.345 0 0.625-0.28 0.625-0.625s-0.28-0.625-0.625-0.625h-8.75z"></path>
</svg>
