<!-- Generated by IcoMoon.io -->
<svg version="1.1" xmlns="http://www.w3.org/2000/svg" width="20" height="20" viewBox="0 0 20 20">
<title>docker</title>
<path d="M0.831 10.137c0.025-0.081 0.039-0.165 0.044-0.25 0-0.162 0.063-0.238 0.256-0.238h12.294c0.392 0 0.781-0.076 1.144-0.225l0.219-0.1c-0.23-0.419-0.351-0.89-0.35-1.369-0.009-0.125-0.009-0.25 0-0.375 0.076-0.609 0.326-1.184 0.719-1.656 0.355 0.187 0.67 0.442 0.926 0.751s0.449 0.665 0.567 1.049c0.069 0.275 0.063 0.244 0.337 0.225 0.17-0.020 0.341-0.027 0.513-0.019 0.609-0 1.2 0.202 1.681 0.575-0.206 0.559-0.574 1.044-1.056 1.394-0.45 0.273-0.967 0.416-1.494 0.412h-0.125c-0.056-0-0.11 0.017-0.154 0.050s-0.078 0.078-0.096 0.131c-0.59 1.413-1.525 2.657-2.718 3.617s-2.607 1.608-4.114 1.883h-0.056c-0.759 0.152-1.532 0.228-2.306 0.225h-0.362c-1.167 0.011-2.315-0.292-3.325-0.875-1.092-0.699-1.882-1.783-2.212-3.037v-0.037c-0.102-0.412-0.179-0.829-0.231-1.25v-0.063c0-0.075-0.031-0.131-0.050-0.194l-0.050-0.625zM8.956 3.375v1.538c0 0.144 0.044 0.181 0.188 0.181h1.481c0.15 0 0.2-0.044 0.2-0.2v-1.519h-1.869zM6.175 7.2c0.131 0 0.188 0 0.181-0.175v-1.394c0-0.119 0-0.162-0.156-0.162h-1.55c-0.125 0-0.162 0.044-0.156 0.162v1.394c0 0.144 0.050 0.175 0.175 0.175h1.506zM10.681 7.2c0.125 0 0.169-0.050 0.162-0.169v-1.4c0-0.112 0-0.162-0.156-0.162h-1.544c-0.125 0-0.169 0.038-0.169 0.162v1.394c0 0.138 0.050 0.175 0.181 0.175h1.525zM6.875 5.469c-0.112 0-0.15 0.044-0.15 0.15v1.419c0 0.106 0.038 0.162 0.15 0.162h1.55c0.112 0 0.15-0.056 0.15-0.162v-1.419c0-0.125-0.056-0.15-0.175-0.15h-0.75c-0.25 0-0.5 0-0.763 0h-0.013zM3.987 9.262c0.1 0 0.138-0.037 0.138-0.144v-1.394c0-0.106-0.037-0.15-0.138-0.15h-1.569c-0.106 0-0.144 0.044-0.144 0.144v1.4c0 0.119 0.056 0.144 0.163 0.144h1.55zM6.194 9.262c0.119 0 0.163-0.031 0.163-0.156v-1.362c0-0.131-0.044-0.169-0.175-0.169h-1.513c-0.119 0-0.169 0.037-0.162 0.162v1.362c0 0.131 0.044 0.162 0.175 0.162h1.512zM10.7 9.262c0.119 0 0.162-0.031 0.156-0.15v-1.375c0-0.106 0-0.162-0.144-0.162h-1.569c-0.113 0-0.156 0.038-0.156 0.156v1.375c0 0.131 0.050 0.156 0.175 0.156h1.538zM12.925 9.262c0.106 0 0.162 0 0.162-0.144v-1.394c0-0.106-0.037-0.15-0.137-0.15h-1.587c-0.1 0-0.137 0.044-0.137 0.15v1.394c0 0.119 0.056 0.144 0.156 0.144h1.544zM6.931 7.575c-0.119 0-0.175 0.038-0.175 0.162v1.375c0 0.106 0.044 0.15 0.156 0.15h1.544c0.113 0 0.15-0.050 0.15-0.15v-1.381c0-0.112-0.044-0.156-0.156-0.156h-1.519z"></path>
</svg>
