<!-- Generated by IcoMoon.io -->
<svg version="1.1" xmlns="http://www.w3.org/2000/svg" width="32" height="32" viewBox="0 0 32 32">
<title>docker</title>
<path d="M1.33 16.22c0.040-0.13 0.063-0.264 0.070-0.4 0-0.26 0.1-0.38 0.41-0.38h19.67c0.628 0.001 1.249-0.122 1.83-0.36l0.35-0.16c-0.368-0.671-0.561-1.424-0.56-2.19-0.015-0.2-0.015-0.4 0-0.6 0.122-0.975 0.521-1.895 1.15-2.65 0.568 0.299 1.072 0.708 1.482 1.202s0.719 1.065 0.908 1.678c0.11 0.44 0.1 0.39 0.54 0.36 0.272-0.032 0.546-0.043 0.82-0.030 0.974-0 1.92 0.323 2.69 0.92-0.33 0.894-0.918 1.671-1.69 2.23-0.72 0.436-1.548 0.665-2.39 0.66h-0.2c-0.089-0-0.175 0.028-0.247 0.080s-0.125 0.126-0.153 0.21c-0.945 2.261-2.439 4.25-4.348 5.787s-4.171 2.572-6.582 3.013h-0.090c-1.215 0.244-2.451 0.364-3.69 0.36h-0.58c-1.867 0.017-3.704-0.466-5.32-1.4-1.747-1.119-3.011-2.854-3.54-4.86v-0.060c-0.164-0.659-0.287-1.326-0.37-2v-0.1c0-0.12-0.050-0.21-0.080-0.31l-0.080-1zM14.33 5.4v2.46c0 0.23 0.070 0.29 0.3 0.29h2.37c0.24 0 0.32-0.070 0.32-0.32v-2.43h-2.99zM9.88 11.52c0.21 0 0.3 0 0.29-0.28v-2.23c0-0.19 0-0.26-0.25-0.26h-2.48c-0.2 0-0.26 0.070-0.25 0.26v2.23c0 0.23 0.080 0.28 0.28 0.28h2.41zM17.090 11.52c0.2 0 0.27-0.080 0.26-0.27v-2.24c0-0.18 0-0.26-0.25-0.26h-2.47c-0.2 0-0.27 0.060-0.27 0.26v2.23c0 0.22 0.080 0.28 0.29 0.28h2.44zM11 8.75c-0.18 0-0.24 0.070-0.24 0.24v2.27c0 0.17 0.060 0.26 0.24 0.26h2.48c0.18 0 0.24-0.090 0.24-0.26v-2.27c0-0.2-0.090-0.24-0.28-0.24h-1.2c-0.4 0-0.8 0-1.22 0h-0.020zM6.38 14.82c0.16 0 0.22-0.060 0.22-0.23v-2.23c0-0.17-0.060-0.24-0.22-0.24h-2.51c-0.17 0-0.23 0.070-0.23 0.23v2.24c0 0.19 0.090 0.23 0.26 0.23h2.48zM9.91 14.82c0.19 0 0.26-0.050 0.26-0.25v-2.18c0-0.21-0.070-0.27-0.28-0.27h-2.42c-0.19 0-0.27 0.060-0.26 0.26v2.18c0 0.21 0.070 0.26 0.28 0.26h2.42zM17.12 14.82c0.19 0 0.26-0.050 0.25-0.24v-2.2c0-0.17 0-0.26-0.23-0.26h-2.51c-0.18 0-0.25 0.060-0.25 0.25v2.2c0 0.21 0.080 0.25 0.28 0.25h2.46zM20.68 14.82c0.17 0 0.26 0 0.26-0.23v-2.23c0-0.17-0.060-0.24-0.22-0.24h-2.54c-0.16 0-0.22 0.070-0.22 0.24v2.23c0 0.19 0.090 0.23 0.25 0.23h2.47zM11.090 12.12c-0.19 0-0.28 0.060-0.28 0.26v2.2c0 0.17 0.070 0.24 0.25 0.24h2.47c0.18 0 0.24-0.080 0.24-0.24v-2.21c0-0.18-0.070-0.25-0.25-0.25h-2.43z"></path>
</svg>
