<!-- Generated by IcoMoon.io -->
<svg version="1.1" xmlns="http://www.w3.org/2000/svg" width="20" height="20" viewBox="0 0 20 20">
<title>dog-deny</title>
<path d="M2.317 1.433c-0.244-0.244-0.64-0.244-0.884 0s-0.244 0.64 0 0.884l1.441 1.441c-0.019 0.007-0.039 0.013-0.060 0.020-0.155 0.050-0.318 0.097-0.498 0.147l-0.020 0.006c-0.183 0.052-0.381 0.108-0.575 0.173l-0.344 0.115-0.071 0.356c-0.057 0.284-0.088 0.742-0.009 1.192 0.074 0.426 0.281 1.030 0.867 1.323 0.248 0.124 0.508 0.154 0.718 0.162 0.165 0.006 0.348-0.002 0.508-0.010 0.038-0.002 0.075-0.003 0.11-0.005 0.309-0.012 0.58-0.010 0.836 0.056l0.051 0.118c0.307 0.707 0.484 1.115 0.583 1.711 0.041 0.247 0.067 0.556 0.096 0.9 0.014 0.164 0.028 0.337 0.046 0.514 0.025 0.258 0.056 0.523 0.1 0.755 0.040 0.208 0.106 0.482 0.247 0.693 0.094 0.141 0.22 0.286 0.334 0.412 0.055 0.061 0.106 0.116 0.157 0.171 0.070 0.076 0.139 0.151 0.217 0.238 0.26 0.293 0.455 0.549 0.542 0.766 0.112 0.28 0.268 0.759 0.378 1.198 0.055 0.22 0.096 0.413 0.115 0.557 0.005 0.037 0.008 0.068 0.010 0.091-0.024 0.037-0.056 0.082-0.099 0.14-0.017 0.023-0.038 0.050-0.060 0.080-0.059 0.078-0.13 0.171-0.189 0.257-0.085 0.122-0.185 0.283-0.25 0.466-0.067 0.189-0.109 0.441-0.018 0.712 0.097 0.291 0.268 0.572 0.555 0.774 0.284 0.2 0.622 0.279 0.975 0.279 0.275 0 0.668-0.013 1.019-0.065 0.174-0.026 0.365-0.064 0.535-0.128 0.135-0.050 0.42-0.173 0.567-0.466 0.057-0.114 0.1-0.261 0.13-0.369 0.034-0.124 0.068-0.265 0.099-0.398 0.037-0.161 0.066-0.296 0.088-0.4 0.019-0.086 0.032-0.151 0.042-0.19l0.044-0.177-0.058-0.173c-0.084-0.252-0.26-0.815-0.402-1.35-0.071-0.268-0.13-0.518-0.165-0.713-0.018-0.098-0.027-0.17-0.030-0.218l-0-0.005c0.14-0.463 0.253-1.305 0.272-2.323l0.653 0.653 0.043 1.007c0.281-0.012 0.547-0.085 0.786-0.177l1.839 1.839c-0.036 0.048-0.072 0.091-0.109 0.134-0.027 0.031-0.058 0.065-0.093 0.104-0.115 0.127-0.27 0.298-0.45 0.539-0.418 0.558-0.254 1.259 0.103 1.692 0.387 0.469 1.045 0.728 1.799 0.539l-0.303-1.213c-0.294 0.073-0.457-0.031-0.531-0.122-0.076-0.092-0.063-0.146-0.061-0.155 0.14-0.186 0.241-0.298 0.348-0.416 0.042-0.047 0.085-0.094 0.132-0.148 0.019-0.022 0.037-0.043 0.056-0.065l0.594 0.594c-0.045 0.18-0.073 0.38-0.073 0.606 0 0.339 0.155 0.609 0.368 0.793 0.193 0.167 0.426 0.259 0.622 0.315 0.299 0.085 0.638 0.118 0.929 0.132l0.765 0.765c0.244 0.244 0.64 0.244 0.884 0s0.244-0.64 0-0.884l-16.25-16.25zM3.201 4.966c0.199-0.065 0.417-0.145 0.627-0.254l6.139 6.139h-0.947c0 1.156-0.131 1.993-0.23 2.29-0.054 0.163-0.047 0.331-0.041 0.42 0.007 0.112 0.025 0.235 0.047 0.356 0.044 0.244 0.112 0.531 0.187 0.812 0.124 0.468 0.271 0.952 0.37 1.259l-0.017 0.077c-0.025 0.113-0.053 0.243-0.078 0.354-0.029 0.126-0.058 0.247-0.086 0.345l-0.005 0.019c-0.052 0.013-0.12 0.027-0.204 0.039-0.266 0.039-0.589 0.051-0.838 0.051-0.17 0-0.236-0.037-0.257-0.052-0.014-0.010-0.037-0.029-0.061-0.080 0.015-0.031 0.042-0.075 0.085-0.138s0.087-0.12 0.137-0.187c0.026-0.035 0.055-0.072 0.086-0.115 0.080-0.107 0.181-0.248 0.256-0.399 0.082-0.164 0.090-0.332 0.091-0.419 0.002-0.107-0.008-0.218-0.022-0.323-0.028-0.212-0.081-0.457-0.142-0.699-0.122-0.483-0.294-1.016-0.43-1.356-0.175-0.438-0.504-0.836-0.768-1.133-0.079-0.089-0.167-0.185-0.247-0.271-0.049-0.054-0.095-0.104-0.133-0.146-0.115-0.127-0.185-0.212-0.222-0.267 0.003 0.004 0.002 0.003-0-0.004-0.007-0.020-0.032-0.087-0.059-0.231-0.033-0.173-0.060-0.391-0.084-0.64-0.013-0.135-0.026-0.282-0.038-0.433-0.031-0.372-0.065-0.768-0.115-1.067-0.126-0.757-0.369-1.313-0.675-2.016-0.049-0.113-0.1-0.231-0.153-0.353l-0.098-0.23-0.23-0.098c-0.596-0.256-1.177-0.247-1.597-0.23-0.052 0.002-0.1 0.004-0.144 0.006-0.152 0.007-0.269 0.012-0.38 0.008-0.138-0.005-0.189-0.024-0.203-0.031-0.043-0.022-0.142-0.116-0.194-0.419-0.022-0.127-0.030-0.259-0.028-0.379 0.045-0.013 0.090-0.026 0.136-0.039l0.028-0.008c0.173-0.049 0.358-0.101 0.537-0.159zM7.212 15.481c-0-0-0-0.004 0.001-0.010-0 0.007-0.001 0.010-0.001 0.010z"></path>
<path d="M17.29 7.757c0.523-0.523 1.105-1.431 1.083-2.436-0.011-0.523-0.187-1.051-0.589-1.523-0.395-0.463-0.981-0.843-1.77-1.13l-0.427 1.175c0.651 0.237 1.031 0.512 1.246 0.765 0.208 0.244 0.286 0.493 0.291 0.74 0.011 0.534-0.324 1.132-0.717 1.525l0.884 0.884z"></path>
<path d="M6.241 3.75c-0.217 0-0.405 0.003-0.57 0.010l-0.051-1.249c0.187-0.008 0.394-0.011 0.621-0.011 0.733 0 1.267 0.058 1.656 0.213 0.208 0.083 0.385 0.197 0.529 0.352 0.142 0.152 0.224 0.315 0.28 0.454 0.046 0.115 0.097 0.253 0.154 0.409 0.068 0.184 0.144 0.392 0.231 0.613 0.114 0.19 0.197 0.385 0.246 0.579 0.015 0.032 0.030 0.065 0.046 0.097 0.152 0.321 0.311 0.604 0.471 0.812 0.171 0.223 0.284 0.284 0.319 0.294 0.305 0.087 0.62 0.052 1.232-0.014l0.054-0.006c0.617-0.067 1.405-0.139 2.461 0.002 1.332 0.178 2.571 0.894 3.21 2.012 0.493 0.863 0.483 1.743 0.477 2.349-0 0.042-0.001 0.083-0.001 0.122 0.051 0.221 0.135 0.415 0.251 0.633 0.052 0.099 0.108 0.196 0.17 0.305l0.047 0.082c0.079 0.14 0.166 0.296 0.252 0.468 0.062 0.124 0.099 0.192 0.138 0.261 0.030 0.054 0.061 0.11 0.104 0.194 0.080 0.155 0.154 0.322 0.202 0.54 0.089 0.399 0.078 0.917 0.013 1.817-0.016 0.221-0.034 0.422-0.053 0.606l-1.243-0.133c0.018-0.167 0.034-0.353 0.049-0.561 0.067-0.934 0.056-1.266 0.013-1.457-0.017-0.077-0.041-0.139-0.093-0.238-0.010-0.020-0.031-0.057-0.056-0.105-0.055-0.101-0.134-0.247-0.193-0.365-0.071-0.142-0.145-0.275-0.222-0.41l-0.042-0.074c-0.063-0.111-0.129-0.227-0.191-0.344-0.156-0.294-0.303-0.622-0.385-1.032l-0.012-0.061v-0.062c0-0.063 0-0.126 0.001-0.187 0.003-0.628 0.006-1.175-0.311-1.729-0.409-0.715-1.265-1.256-2.29-1.393-0.908-0.121-1.58-0.062-2.16 0.002-0.047 0.005-0.095 0.011-0.143 0.016-0.512 0.058-1.070 0.121-1.622-0.036-0.423-0.121-0.742-0.441-0.967-0.735-0.214-0.279-0.401-0.61-0.56-0.935l-0.212-0.178c0.032-0.039 0.054-0.089 0.050-0.167l-0-0.006c-0.057-0.13-0.112-0.261-0.164-0.389-0.012-0.017-0.024-0.034-0.037-0.051l0.013-0.009c-0.116-0.29-0.216-0.561-0.292-0.769-0.047-0.128-0.085-0.232-0.113-0.302-0.021-0.053-0.032-0.065-0.034-0.066s-0.005-0.005-0.014-0.011c-0.010-0.007-0.029-0.018-0.063-0.031-0.155-0.062-0.486-0.124-1.193-0.124z"></path>
<path d="M5.169 14.987c0-0.236-0.045-0.587-0.155-1.107l1.223-0.259c0.115 0.544 0.183 0.997 0.183 1.366 0 0.361-0.064 0.743-0.317 1.042-0.1 0.117-0.21 0.206-0.279 0.262l-0.022 0.017c-0.068 0.054-0.1 0.080-0.129 0.109-0.024 0.024-0.030 0.036-0.032 0.042s-0.013 0.032-0.014 0.096c0.001 0.003 0.003 0.012 0.008 0.025 0.009 0.020 0.020 0.034 0.030 0.042 0.006 0.005 0.024 0.018 0.071 0.024 0.051 0.006 0.152 0.005 0.318-0.051l0.395 1.186c-0.617 0.206-1.165 0.137-1.565-0.183-0.361-0.289-0.508-0.713-0.508-1.035 0-0.471 0.178-0.793 0.41-1.026 0.085-0.085 0.178-0.159 0.236-0.205l0.021-0.017c0.058-0.047 0.084-0.070 0.099-0.086 0.006-0.016 0.028-0.081 0.028-0.242z"></path>
</svg>
