<!-- Generated by IcoMoon.io -->
<svg version="1.1" xmlns="http://www.w3.org/2000/svg" width="32" height="32" viewBox="0 0 32 32">
<title>dog-deny</title>
<path d="M3.707 2.293c-0.391-0.391-1.024-0.391-1.414 0s-0.391 1.024 0 1.414l2.306 2.306c-0.031 0.011-0.063 0.021-0.096 0.032-0.247 0.081-0.509 0.155-0.796 0.236l-0.032 0.009c-0.292 0.083-0.609 0.173-0.919 0.276l-0.551 0.184-0.114 0.569c-0.091 0.454-0.14 1.187-0.015 1.907 0.118 0.682 0.45 1.648 1.387 2.117 0.397 0.199 0.813 0.247 1.149 0.259 0.265 0.009 0.557-0.004 0.812-0.015 0.061-0.003 0.12-0.005 0.176-0.008 0.495-0.020 0.929-0.016 1.338 0.089l0.082 0.189c0.491 1.132 0.774 1.784 0.933 2.737 0.066 0.395 0.108 0.89 0.154 1.44 0.022 0.263 0.045 0.539 0.073 0.823 0.040 0.413 0.089 0.837 0.161 1.209 0.064 0.333 0.17 0.771 0.396 1.109 0.15 0.225 0.352 0.457 0.535 0.659 0.088 0.097 0.17 0.186 0.251 0.274 0.112 0.121 0.223 0.242 0.346 0.381 0.417 0.469 0.728 0.879 0.867 1.226 0.179 0.448 0.428 1.215 0.605 1.917 0.089 0.351 0.153 0.661 0.183 0.892 0.008 0.060 0.013 0.108 0.016 0.146-0.038 0.059-0.090 0.132-0.158 0.224-0.028 0.038-0.061 0.081-0.096 0.127-0.094 0.124-0.207 0.274-0.302 0.412-0.135 0.196-0.296 0.453-0.4 0.746-0.107 0.303-0.174 0.706-0.030 1.139 0.155 0.466 0.43 0.916 0.888 1.238 0.455 0.32 0.995 0.446 1.56 0.446 0.441 0 1.068-0.021 1.631-0.104 0.278-0.041 0.583-0.103 0.857-0.204 0.216-0.081 0.672-0.276 0.907-0.745 0.091-0.182 0.161-0.417 0.209-0.59 0.055-0.199 0.109-0.424 0.158-0.637 0.059-0.257 0.106-0.474 0.141-0.64 0.030-0.138 0.052-0.241 0.068-0.304l0.071-0.282-0.092-0.276c-0.134-0.403-0.416-1.305-0.643-2.16-0.113-0.43-0.208-0.829-0.264-1.141-0.028-0.157-0.043-0.273-0.048-0.349l-0-0.007c0.224-0.74 0.404-2.087 0.435-3.717l1.045 1.045 0.069 1.611c0.449-0.019 0.875-0.136 1.258-0.284l2.942 2.942c-0.058 0.077-0.115 0.145-0.175 0.214-0.043 0.050-0.093 0.105-0.148 0.166-0.184 0.203-0.431 0.477-0.72 0.862-0.669 0.892-0.407 2.015 0.164 2.707 0.619 0.75 1.672 1.164 2.878 0.863l-0.485-1.94c-0.47 0.118-0.731-0.049-0.85-0.195-0.121-0.147-0.102-0.233-0.097-0.249 0.224-0.297 0.386-0.477 0.556-0.666 0.067-0.075 0.136-0.151 0.21-0.236 0.030-0.034 0.060-0.069 0.089-0.104l0.951 0.951c-0.072 0.288-0.117 0.608-0.117 0.969 0 0.543 0.248 0.974 0.589 1.269 0.309 0.267 0.681 0.415 0.995 0.504 0.479 0.136 1.020 0.189 1.486 0.211l1.223 1.223c0.39 0.39 1.024 0.39 1.414 0s0.39-1.024 0-1.414l-26-26zM5.122 7.946c0.318-0.104 0.667-0.232 1.003-0.407l9.822 9.822h-1.515c0 1.849-0.209 3.189-0.368 3.665-0.087 0.261-0.076 0.53-0.066 0.672 0.012 0.179 0.040 0.376 0.075 0.569 0.070 0.39 0.18 0.849 0.299 1.3 0.198 0.749 0.434 1.523 0.592 2.015l-0.027 0.123c-0.039 0.181-0.085 0.389-0.125 0.567-0.046 0.202-0.093 0.395-0.137 0.552l-0.009 0.031c-0.083 0.021-0.192 0.043-0.326 0.063-0.425 0.062-0.943 0.082-1.34 0.082-0.272 0-0.378-0.059-0.411-0.083-0.022-0.015-0.059-0.047-0.098-0.129 0.025-0.049 0.066-0.121 0.136-0.22 0.070-0.101 0.139-0.192 0.22-0.299 0.042-0.055 0.088-0.116 0.138-0.183 0.128-0.172 0.289-0.397 0.41-0.639 0.131-0.262 0.144-0.532 0.146-0.67 0.002-0.171-0.014-0.349-0.036-0.518-0.045-0.339-0.129-0.732-0.227-1.118-0.195-0.773-0.47-1.626-0.688-2.17-0.28-0.701-0.807-1.338-1.229-1.812-0.126-0.142-0.268-0.296-0.395-0.434-0.079-0.086-0.153-0.166-0.213-0.233-0.184-0.204-0.296-0.338-0.355-0.428 0.004 0.006 0.004 0.005-0-0.007-0.012-0.032-0.051-0.14-0.095-0.37-0.053-0.277-0.095-0.626-0.134-1.024-0.021-0.216-0.041-0.451-0.061-0.693-0.050-0.594-0.104-1.228-0.183-1.707-0.202-1.211-0.59-2.101-1.080-3.226-0.079-0.181-0.161-0.369-0.245-0.565l-0.158-0.368-0.368-0.158c-0.954-0.409-1.884-0.395-2.555-0.368-0.083 0.003-0.159 0.007-0.231 0.010-0.244 0.011-0.431 0.019-0.607 0.013-0.221-0.008-0.303-0.038-0.325-0.049-0.069-0.034-0.226-0.186-0.311-0.67-0.035-0.204-0.047-0.415-0.045-0.607 0.071-0.020 0.144-0.041 0.218-0.062l0.045-0.013c0.276-0.078 0.573-0.162 0.859-0.255zM11.539 24.77c-0-0-0-0.006 0.001-0.016-0 0.011-0.001 0.016-0.001 0.016z"></path>
<path d="M27.664 12.412c0.837-0.838 1.767-2.29 1.733-3.897-0.018-0.837-0.299-1.682-0.942-2.437-0.631-0.741-1.57-1.348-2.832-1.807l-0.683 1.88c1.042 0.379 1.649 0.82 1.993 1.224 0.333 0.391 0.457 0.789 0.465 1.183 0.018 0.854-0.519 1.811-1.148 2.441l1.414 1.414z"></path>
<path d="M9.985 6c-0.347 0-0.648 0.005-0.913 0.016l-0.082-1.998c0.3-0.012 0.63-0.017 0.994-0.017 1.172 0 2.027 0.093 2.649 0.34 0.333 0.132 0.617 0.315 0.847 0.563 0.227 0.244 0.359 0.504 0.447 0.726 0.073 0.183 0.155 0.405 0.246 0.654 0.108 0.295 0.23 0.628 0.37 0.98 0.182 0.304 0.315 0.616 0.394 0.927 0.024 0.052 0.048 0.104 0.073 0.156 0.243 0.514 0.498 0.966 0.754 1.299 0.274 0.357 0.454 0.454 0.51 0.47 0.488 0.139 0.992 0.084 1.97-0.023l0.086-0.009c0.988-0.108 2.249-0.222 3.938 0.003 2.131 0.284 4.114 1.43 5.136 3.219 0.789 1.38 0.773 2.789 0.762 3.758-0.001 0.067-0.001 0.133-0.002 0.196 0.081 0.354 0.216 0.664 0.401 1.013 0.084 0.158 0.172 0.313 0.272 0.488l0.075 0.131c0.127 0.224 0.266 0.473 0.404 0.748 0.099 0.198 0.159 0.306 0.221 0.418 0.048 0.087 0.097 0.176 0.166 0.31 0.128 0.247 0.246 0.515 0.323 0.864 0.142 0.638 0.124 1.468 0.021 2.907-0.025 0.354-0.054 0.675-0.085 0.969l-1.989-0.213c0.029-0.266 0.055-0.564 0.079-0.898 0.107-1.494 0.089-2.026 0.021-2.331-0.027-0.123-0.066-0.222-0.148-0.38-0.016-0.032-0.049-0.091-0.090-0.168-0.088-0.161-0.214-0.395-0.309-0.584-0.114-0.227-0.232-0.44-0.355-0.657l-0.067-0.118c-0.101-0.177-0.207-0.364-0.306-0.55-0.25-0.47-0.485-0.995-0.616-1.65l-0.019-0.097v-0.099c0-0.101 0-0.201 0.001-0.299 0.005-1.005 0.009-1.88-0.498-2.766-0.654-1.144-2.023-2.010-3.664-2.229-1.453-0.194-2.528-0.099-3.457 0.003-0.076 0.008-0.152 0.017-0.229 0.026-0.82 0.093-1.712 0.194-2.594-0.058-0.678-0.194-1.187-0.705-1.547-1.176-0.342-0.447-0.641-0.976-0.895-1.496l-0.34-0.285c0.052-0.062 0.087-0.142 0.080-0.267l-0.001-0.010c-0.092-0.208-0.18-0.418-0.263-0.623-0.018-0.027-0.038-0.054-0.059-0.082l0.020-0.015c-0.186-0.464-0.345-0.898-0.468-1.231-0.075-0.205-0.137-0.372-0.181-0.482-0.034-0.084-0.052-0.103-0.054-0.106s-0.007-0.008-0.022-0.018c-0.016-0.011-0.047-0.028-0.1-0.050-0.247-0.098-0.777-0.198-1.91-0.198z"></path>
<path d="M8.271 23.979c0-0.378-0.073-0.94-0.249-1.771l1.957-0.415c0.184 0.87 0.292 1.596 0.292 2.186 0 0.578-0.102 1.189-0.508 1.668-0.159 0.188-0.336 0.33-0.447 0.419l-0.034 0.027c-0.108 0.086-0.16 0.128-0.207 0.175-0.039 0.039-0.048 0.057-0.052 0.067s-0.021 0.050-0.022 0.153c0.001 0.005 0.004 0.019 0.013 0.039 0.015 0.032 0.033 0.054 0.049 0.067 0.010 0.008 0.038 0.029 0.113 0.038 0.081 0.010 0.243 0.008 0.509-0.081l0.632 1.897c-0.987 0.329-1.863 0.219-2.503-0.293-0.578-0.462-0.813-1.14-0.813-1.656 0-0.753 0.284-1.268 0.655-1.642 0.135-0.136 0.284-0.254 0.378-0.329l0.034-0.027c0.093-0.075 0.135-0.112 0.159-0.137 0.010-0.026 0.044-0.13 0.044-0.387z"></path>
</svg>
