<!-- Generated by IcoMoon.io -->
<svg version="1.1" xmlns="http://www.w3.org/2000/svg" width="20" height="20" viewBox="0 0 20 20">
<title>dog</title>
<path d="M4.914 3.855c-0.172 0.052-0.265 0.12-0.4 0.3-0.315 0.42-0.797 0.633-1.195 0.772-0.208 0.072-0.426 0.134-0.627 0.191l-0.027 0.008c-0.056 0.016-0.112 0.032-0.166 0.047-0.001 0.12 0.006 0.252 0.028 0.379 0.053 0.303 0.151 0.397 0.194 0.419 0.014 0.007 0.065 0.026 0.203 0.031 0.11 0.004 0.227-0.001 0.379-0.008 0.045-0.002 0.093-0.004 0.145-0.006 0.42-0.017 1.001-0.026 1.597 0.23l0.23 0.098 0.098 0.23c0.053 0.123 0.104 0.24 0.153 0.353 0.306 0.703 0.549 1.26 0.675 2.016 0.050 0.299 0.083 0.695 0.115 1.066 0.013 0.151 0.025 0.298 0.038 0.433 0.024 0.249 0.051 0.467 0.084 0.64 0.028 0.144 0.052 0.212 0.059 0.231 0.003 0.007 0.003 0.008 0 0.004 0.037 0.056 0.107 0.14 0.222 0.267 0.038 0.042 0.084 0.092 0.133 0.146 0.079 0.086 0.168 0.183 0.247 0.271 0.263 0.296 0.593 0.694 0.768 1.133 0.136 0.34 0.308 0.873 0.43 1.356 0.061 0.242 0.114 0.487 0.142 0.699 0.014 0.105 0.024 0.217 0.022 0.323-0.001 0.086-0.009 0.255-0.091 0.419-0.076 0.151-0.177 0.292-0.256 0.399-0.032 0.042-0.060 0.080-0.086 0.114-0.051 0.067-0.094 0.124-0.137 0.187s-0.069 0.107-0.085 0.138c0.025 0.051 0.048 0.071 0.061 0.080 0.021 0.015 0.087 0.052 0.257 0.052 0.248 0 0.572-0.012 0.838-0.051 0.084-0.012 0.152-0.026 0.204-0.039l0.005-0.019c0.027-0.098 0.057-0.219 0.086-0.345 0.025-0.111 0.054-0.241 0.078-0.354l0.017-0.077c-0.098-0.307-0.246-0.791-0.37-1.259-0.074-0.282-0.143-0.569-0.187-0.812-0.022-0.121-0.039-0.244-0.047-0.356-0.006-0.089-0.013-0.257 0.041-0.42 0.099-0.297 0.23-1.135 0.23-2.29h1.25c0 1.153-0.121 2.116-0.274 2.624l0 0.005c0.003 0.047 0.012 0.12 0.030 0.218 0.035 0.195 0.094 0.445 0.165 0.713 0.141 0.535 0.318 1.098 0.402 1.35l0.058 0.173-0.044 0.177c-0.010 0.039-0.024 0.104-0.042 0.19-0.022 0.104-0.051 0.239-0.088 0.4-0.031 0.133-0.065 0.274-0.099 0.398-0.030 0.108-0.073 0.255-0.13 0.369-0.146 0.293-0.432 0.415-0.567 0.466-0.171 0.064-0.362 0.102-0.535 0.128-0.352 0.052-0.744 0.065-1.019 0.065-0.354 0-0.691-0.079-0.975-0.279-0.287-0.201-0.458-0.482-0.555-0.774-0.090-0.271-0.048-0.523 0.018-0.712 0.065-0.183 0.165-0.344 0.25-0.466 0.059-0.086 0.13-0.179 0.189-0.257 0.022-0.029 0.043-0.057 0.060-0.080 0.043-0.057 0.075-0.103 0.099-0.14-0.002-0.024-0.005-0.054-0.010-0.091-0.019-0.144-0.059-0.338-0.115-0.557-0.111-0.439-0.266-0.918-0.378-1.198-0.087-0.217-0.281-0.473-0.542-0.766-0.077-0.087-0.146-0.162-0.216-0.238-0.051-0.055-0.102-0.111-0.157-0.172-0.114-0.126-0.241-0.271-0.334-0.412-0.141-0.211-0.207-0.485-0.247-0.693-0.045-0.232-0.075-0.497-0.1-0.755-0.017-0.177-0.032-0.35-0.046-0.514-0.029-0.344-0.055-0.653-0.096-0.9-0.099-0.595-0.276-1.003-0.583-1.711l-0.051-0.118c-0.256-0.066-0.527-0.068-0.836-0.056-0.035 0.001-0.072 0.003-0.11 0.005-0.16 0.007-0.342 0.016-0.508 0.010-0.21-0.007-0.47-0.038-0.718-0.162-0.586-0.293-0.793-0.896-0.867-1.323-0.078-0.45-0.047-0.908 0.009-1.192l0.071-0.356 0.344-0.115c0.2-0.067 0.407-0.125 0.596-0.179l0.035-0.010c0.205-0.058 0.388-0.11 0.556-0.169 0.355-0.124 0.528-0.237 0.606-0.341 0.258-0.344 0.558-0.603 1.041-0.747 0.425-0.128 0.968-0.157 1.686-0.157 0.733 0 1.267 0.058 1.656 0.213 0.208 0.083 0.385 0.197 0.529 0.352 0.142 0.152 0.224 0.315 0.28 0.454 0.046 0.115 0.097 0.253 0.154 0.409 0.067 0.184 0.143 0.391 0.23 0.61 0.116 0.192 0.201 0.389 0.251 0.59 0.014 0.030 0.028 0.060 0.042 0.090 0.152 0.321 0.311 0.604 0.471 0.812 0.171 0.223 0.284 0.284 0.319 0.294 0.305 0.087 0.62 0.053 1.232-0.014l0.054-0.006c0.617-0.067 1.405-0.139 2.461 0.002 1.332 0.178 2.571 0.894 3.21 2.012 0.493 0.863 0.483 1.743 0.477 2.349-0 0.042-0.001 0.083-0.001 0.122 0.051 0.221 0.135 0.415 0.251 0.633 0.052 0.099 0.108 0.196 0.17 0.305l0.047 0.082c0.079 0.14 0.166 0.296 0.252 0.468 0.062 0.124 0.099 0.192 0.138 0.262 0.030 0.054 0.061 0.11 0.104 0.194 0.080 0.155 0.154 0.322 0.202 0.54 0.089 0.399 0.078 0.917 0.013 1.817-0.066 0.925-0.169 1.538-0.318 1.935-0.075 0.201-0.182 0.4-0.348 0.551-0.187 0.17-0.406 0.24-0.615 0.24h-0.020c-0.303 0-0.822 0-1.274-0.090-0.228-0.046-0.501-0.125-0.731-0.285-0.254-0.176-0.474-0.468-0.474-0.875 0-0.63 0.219-1.057 0.395-1.365l0.004-0.008c0.186-0.326 0.226-0.395 0.226-0.503 0-0.227-0.008-0.371-0.024-0.47-0.011-0.072-0.023-0.1-0.027-0.107-0.005-0.005-0.019-0.017-0.051-0.036-0.065-0.039-0.165-0.084-0.342-0.155-0.402-0.161-0.702-0.368-0.925-0.621-0.221-0.251-0.337-0.513-0.414-0.725-0.032-0.086-0.057-0.158-0.079-0.221-0.098-0.278-0.127-0.359-0.273-0.457-0.020-0.013-0.050-0.032-0.161-0.009-0.133 0.028-0.306 0.104-0.551 0.234-0.059 0.031-0.124 0.067-0.193 0.104-0.185 0.101-0.398 0.218-0.602 0.311-0.29 0.133-0.639 0.26-1.018 0.276l-0.054-1.249c0.144-0.006 0.321-0.058 0.55-0.163 0.163-0.075 0.314-0.158 0.483-0.25 0.078-0.043 0.16-0.088 0.248-0.134 0.25-0.133 0.557-0.285 0.877-0.353 0.343-0.073 0.74-0.057 1.113 0.192 0.526 0.351 0.695 0.869 0.792 1.167 0.015 0.045 0.028 0.085 0.040 0.119 0.055 0.148 0.105 0.246 0.179 0.33 0.072 0.082 0.199 0.186 0.452 0.287 0.324 0.13 0.729 0.292 0.974 0.667 0.237 0.362 0.255 0.815 0.255 1.262 0 0.462-0.218 0.83-0.351 1.056-0.016 0.027-0.030 0.052-0.043 0.074-0.118 0.207-0.204 0.383-0.225 0.625 0.043 0.016 0.107 0.036 0.196 0.053 0.256 0.051 0.568 0.063 0.849 0.065 0.080-0.226 0.171-0.685 0.234-1.565 0.067-0.934 0.056-1.266 0.013-1.457-0.017-0.077-0.041-0.139-0.093-0.238-0.010-0.020-0.031-0.057-0.056-0.105-0.055-0.101-0.134-0.247-0.193-0.365-0.071-0.142-0.145-0.275-0.222-0.41l-0.042-0.074c-0.063-0.111-0.129-0.227-0.191-0.344-0.156-0.294-0.303-0.622-0.385-1.032l-0.012-0.061v-0.062c0-0.063 0-0.126 0.001-0.187 0.003-0.628 0.006-1.175-0.311-1.729-0.409-0.715-1.265-1.256-2.29-1.393-0.908-0.121-1.58-0.062-2.16 0.002-0.047 0.005-0.095 0.011-0.143 0.016-0.512 0.058-1.070 0.121-1.622-0.036-0.423-0.121-0.742-0.441-0.967-0.735-0.019-0.025-0.038-0.051-0.057-0.077-0.587 0.452-1.451 0.476-2.208 0.097l0.559-1.118c0.454 0.227 0.79 0.117 0.907 0.014 0.051-0.046 0.077-0.098 0.078-0.17 0-0.009-0-0.020-0.001-0.032-0.057-0.13-0.112-0.261-0.164-0.389-0.012-0.017-0.024-0.034-0.037-0.051l0.013-0.009c-0.116-0.29-0.216-0.561-0.292-0.769-0.047-0.128-0.085-0.232-0.113-0.302-0.021-0.053-0.032-0.065-0.034-0.066s-0.005-0.005-0.014-0.011c-0.010-0.007-0.029-0.018-0.063-0.031-0.155-0.062-0.486-0.124-1.193-0.124-0.723 0-1.097 0.036-1.326 0.105zM7.212 15.481c-0-0-0-0.004 0.001-0.010-0 0.007-0.001 0.010-0.001 0.010zM9.996 13.444l0 0.001c0 0.001-0 0.003-0 0.005 0-0.004 0-0.006 0-0.006z"></path>
<path d="M18.373 5.322c0.021 1.005-0.56 1.912-1.083 2.436l-0.884-0.884c0.393-0.393 0.729-0.991 0.717-1.525-0.005-0.247-0.083-0.495-0.291-0.74-0.215-0.253-0.595-0.528-1.246-0.765l0.427-1.175c0.789 0.287 1.376 0.666 1.77 1.13 0.402 0.472 0.578 1.001 0.589 1.523z"></path>
<path d="M5.169 14.987c0-0.236-0.045-0.587-0.155-1.107l1.223-0.259c0.115 0.544 0.183 0.997 0.183 1.366 0 0.361-0.064 0.743-0.317 1.042-0.1 0.117-0.21 0.206-0.279 0.262l-0.022 0.017c-0.068 0.054-0.1 0.080-0.129 0.109-0.024 0.024-0.030 0.036-0.032 0.042s-0.013 0.032-0.014 0.096c0.001 0.003 0.003 0.012 0.008 0.025 0.009 0.020 0.020 0.034 0.030 0.042 0.006 0.005 0.024 0.018 0.071 0.024 0.051 0.006 0.152 0.005 0.318-0.051l0.395 1.186c-0.617 0.206-1.165 0.137-1.565-0.183-0.361-0.289-0.508-0.713-0.508-1.035 0-0.471 0.178-0.793 0.41-1.026 0.085-0.085 0.178-0.159 0.236-0.205l0.021-0.017c0.058-0.047 0.084-0.070 0.099-0.086 0.006-0.016 0.028-0.081 0.028-0.242z"></path>
<path d="M13.816 14.095c-0.131 0.261-0.226 0.386-0.336 0.512-0.027 0.031-0.058 0.065-0.093 0.104-0.115 0.127-0.27 0.298-0.45 0.539-0.418 0.558-0.254 1.259 0.103 1.692 0.387 0.469 1.045 0.728 1.799 0.539l-0.303-1.213c-0.294 0.073-0.457-0.031-0.531-0.122-0.076-0.092-0.063-0.146-0.061-0.155 0.14-0.186 0.241-0.298 0.348-0.416 0.042-0.047 0.085-0.094 0.132-0.148 0.173-0.198 0.329-0.41 0.511-0.773l-1.118-0.559z"></path>
</svg>
