<!-- Generated by IcoMoon.io -->
<svg version="1.1" xmlns="http://www.w3.org/2000/svg" width="32" height="32" viewBox="0 0 32 32">
<title>down-square</title>
<path d="M8.293 15.293c0.391-0.39 1.024-0.39 1.414 0l5.293 5.293v-11.586c0-0.552 0.448-1 1-1s1 0.448 1 1v11.586l5.293-5.293c0.39-0.39 1.024-0.39 1.414 0s0.39 1.024 0 1.414l-7.707 7.707-7.707-7.707c-0.391-0.39-0.391-1.024 0-1.414z"></path>
<path d="M2 6c0-2.252 1.748-4 4-4h20c2.252 0 4 1.748 4 4v20c0 2.252-1.748 4-4 4h-20c-2.252 0-4-1.748-4-4v-20zM6 4c-1.148 0-2 0.852-2 2v20c0 1.148 0.852 2 2 2h20c1.148 0 2-0.852 2-2v-20c0-1.148-0.852-2-2-2h-20z"></path>
</svg>
