<!-- Generated by IcoMoon.io -->
<svg version="1.1" xmlns="http://www.w3.org/2000/svg" width="20" height="20" viewBox="0 0 20 20">
<title>drinks</title>
<path d="M8.125 1.056v8.125c0 1.506-1.077 2.771-2.5 3.062v5.063h1.875c0.345 0 0.625 0.28 0.625 0.625s-0.28 0.625-0.625 0.625h-5c-0.345 0-0.625-0.28-0.625-0.625s0.28-0.625 0.625-0.625h1.875v-5.063c-1.423-0.291-2.5-1.556-2.5-3.062v-2.486c-0-0.009-0-0.017 0-0.026v-5.612h6.25zM3.125 9.181c0 1.030 0.845 1.875 1.875 1.875s1.875-0.845 1.875-1.875v-0.913c-0.194 0.025-0.389 0.022-0.578 0.001-0.528-0.060-1.070-0.27-1.537-0.464-0.113-0.047-0.223-0.094-0.328-0.138-0.36-0.153-0.677-0.288-0.976-0.376-0.132-0.039-0.241-0.062-0.331-0.075v1.966zM6.438 7.027c0.187 0.021 0.326 0.007 0.437-0.039v-4.682h-3.75v3.653c0.243 0.017 0.477 0.071 0.685 0.132 0.376 0.111 0.782 0.284 1.153 0.442 0.095 0.041 0.189 0.080 0.278 0.118 0.471 0.196 0.866 0.338 1.197 0.376z"></path>
<path d="M18.125 3.556v3.739c0 0.007 0 0.014 0 0.022v0.615c0 2.196-1.636 4.025-3.75 4.33v5.045h1.875c0.345 0 0.625 0.28 0.625 0.625s-0.28 0.625-0.625 0.625h-5c-0.345 0-0.625-0.28-0.625-0.625s0.28-0.625 0.625-0.625h1.875v-5.045c-2.114-0.305-3.75-2.135-3.75-4.33v-0.611c-0-0.009-0-0.018 0-0.026v-3.737h8.75zM16.875 6.937v-2.131h-6.25v1.566c0.642-0.208 1.216-0.265 1.747-0.216 0.753 0.070 1.368 0.349 1.874 0.582l0.020 0.009c0.522 0.241 0.907 0.419 1.336 0.464 0.338 0.036 0.741-0.011 1.272-0.275zM10.625 7.706v0.226c0 1.717 1.408 3.125 3.125 3.125 1.594 0 2.921-1.213 3.104-2.76-0.489 0.162-0.944 0.205-1.382 0.159-0.64-0.067-1.197-0.326-1.664-0.542l-0.085-0.039c-0.509-0.235-0.949-0.425-1.465-0.473-0.43-0.040-0.953 0.017-1.632 0.304z"></path>
</svg>
