<!-- Generated by IcoMoon.io -->
<svg version="1.1" xmlns="http://www.w3.org/2000/svg" width="32" height="32" viewBox="0 0 32 32">
<title>drinks</title>
<path d="M13 1.69v13c0 2.41-1.723 4.433-4 4.899v8.101h3c0.552 0 1 0.448 1 1s-0.448 1-1 1h-8c-0.552 0-1-0.448-1-1s0.448-1 1-1h3v-8.101c-2.277-0.466-4-2.489-4-4.899v-3.978c-0-0.014-0-0.028 0-0.042v-8.98h10zM5 14.69c0 1.648 1.352 3 3 3s3-1.352 3-3v-1.46c-0.311 0.040-0.623 0.035-0.925 0.001-0.844-0.096-1.712-0.431-2.459-0.742-0.181-0.076-0.356-0.15-0.524-0.222-0.576-0.245-1.083-0.46-1.562-0.602-0.211-0.062-0.385-0.1-0.529-0.12v3.145zM10.3 11.243c0.3 0.034 0.522 0.011 0.7-0.062v-7.491h-6v5.845c0.389 0.027 0.763 0.113 1.096 0.212 0.601 0.178 1.252 0.455 1.844 0.707 0.153 0.065 0.302 0.129 0.445 0.188 0.753 0.314 1.385 0.541 1.916 0.601z"></path>
<path d="M29 5.69v5.982c0 0.011 0 0.023 0 0.034v0.984c0 3.513-2.618 6.44-6 6.928v8.072h3c0.552 0 1 0.448 1 1s-0.448 1-1 1h-8c-0.552 0-1-0.448-1-1s0.448-1 1-1h3v-8.072c-3.382-0.488-6-3.416-6-6.928v-0.978c-0-0.014-0-0.028 0-0.042v-5.98h14zM27 11.1v-3.409h-10v2.505c1.027-0.333 1.945-0.423 2.795-0.345 1.205 0.111 2.189 0.558 2.999 0.932l0.032 0.015c0.834 0.385 1.452 0.67 2.138 0.742 0.541 0.057 1.186-0.017 2.036-0.44zM17 12.329v0.361c0 2.748 2.252 5 5 5 2.55 0 4.674-1.94 4.966-4.416-0.782 0.259-1.511 0.328-2.211 0.254-1.024-0.108-1.916-0.521-2.663-0.867l-0.136-0.063c-0.815-0.376-1.518-0.68-2.345-0.756-0.688-0.063-1.525 0.028-2.611 0.487z"></path>
</svg>
