<!-- Generated by IcoMoon.io -->
<svg version="1.1" xmlns="http://www.w3.org/2000/svg" width="20" height="20" viewBox="0 0 20 20">
<title>drive</title>
<path d="M3.75 13.75c0-0.345 0.28-0.625 0.625-0.625h1.875c0.345 0 0.625 0.28 0.625 0.625s-0.28 0.625-0.625 0.625h-1.875c-0.345 0-0.625-0.28-0.625-0.625z"></path>
<path d="M8.75 13.125c-0.345 0-0.625 0.28-0.625 0.625s0.28 0.625 0.625 0.625h0.625c0.345 0 0.625-0.28 0.625-0.625s-0.28-0.625-0.625-0.625h-0.625z"></path>
<path d="M1.262 11.13c-0.009 0.045-0.013 0.090-0.012 0.134v3.111c0 1.408 1.092 2.5 2.5 2.5h12.5c1.408 0 2.5-1.092 2.5-2.5v-3.111c0.001-0.046-0.003-0.092-0.012-0.137-0.009-0.044-0.023-0.087-0.040-0.128l-2.62-6.362c-0.003-0.007-0.006-0.014-0.009-0.021-0.415-0.912-1.326-1.491-2.319-1.491h-7.5c-0.993 0-1.904 0.579-2.319 1.491-0.003 0.007-0.006 0.014-0.009 0.021l-2.62 6.362c-0.018 0.041-0.032 0.085-0.041 0.131zM2.808 10.625l2.265-5.501c0.212-0.457 0.673-0.749 1.177-0.749h7.5c0.504 0 0.965 0.292 1.177 0.749l2.265 5.501h-14.383zM2.5 14.375v-2.5h15v2.5c0 0.717-0.533 1.25-1.25 1.25h-12.5c-0.717 0-1.25-0.533-1.25-1.25z"></path>
</svg>
