<!-- Generated by IcoMoon.io -->
<svg version="1.1" xmlns="http://www.w3.org/2000/svg" width="20" height="20" viewBox="0 0 20 20">
<title>drive-up</title>
<path d="M10 0.625l2.942 2.942c0.244 0.244 0.244 0.64 0 0.884s-0.64 0.244-0.884 0l-1.433-1.433v6.616c0 0.345-0.28 0.625-0.625 0.625s-0.625-0.28-0.625-0.625v-6.616l-1.433 1.433c-0.244 0.244-0.64 0.244-0.884 0s-0.244-0.64 0-0.884l2.942-2.942z"></path>
<path d="M3.75 15.259c0-0.345 0.28-0.625 0.625-0.625h1.875c0.345 0 0.625 0.28 0.625 0.625s-0.28 0.625-0.625 0.625h-1.875c-0.345 0-0.625-0.28-0.625-0.625z"></path>
<path d="M8.75 14.634c-0.345 0-0.625 0.28-0.625 0.625s0.28 0.625 0.625 0.625h0.625c0.345 0 0.625-0.28 0.625-0.625s-0.28-0.625-0.625-0.625h-0.625z"></path>
<path d="M1.25 12.772v3.112c0 1.408 1.092 2.5 2.5 2.5h12.5c1.408 0 2.5-1.092 2.5-2.5v-3.112c0.001-0.048-0.003-0.097-0.014-0.146s-0.027-0.095-0.048-0.139l-2.619-5.737c-0.405-0.89-1.24-1.491-2.256-1.491h-1.313c-0.345 0-0.625 0.28-0.625 0.625s0.28 0.625 0.625 0.625h1.313c0.483 0 0.898 0.274 1.118 0.759l2.222 4.866h-14.305l2.222-4.866c0.215-0.473 0.686-0.759 1.119-0.759h1.313c0.345 0 0.625-0.28 0.625-0.625s-0.28-0.625-0.625-0.625h-1.313c-0.942 0-1.847 0.59-2.256 1.491l-2.619 5.737c-0.021 0.044-0.037 0.090-0.048 0.139s-0.015 0.098-0.014 0.146zM2.5 15.884v-2.5h15v2.5c0 0.717-0.533 1.25-1.25 1.25h-12.5c-0.717 0-1.25-0.533-1.25-1.25z"></path>
</svg>
