<!-- Generated by IcoMoon.io -->
<svg version="1.1" xmlns="http://www.w3.org/2000/svg" width="20" height="20" viewBox="0 0 20 20">
<title>drone</title>
<path d="M19.163 10.194h-5.25c-0.089 0-0.177-0.029-0.248-0.083s-0.123-0.131-0.146-0.217c-0.189-0.577-0.515-1.1-0.95-1.524s-0.967-0.735-1.55-0.907h-0.031c-0.31-0.095-0.632-0.148-0.956-0.156-0.691 0.001-1.367 0.204-1.943 0.585s-1.029 0.923-1.3 1.558c-0.071 0.223-0.211 0.417-0.4 0.555s-0.416 0.213-0.65 0.214c-0.064 0.007-0.129 0.007-0.194 0-1.406-0.056-2.825 0-4.238 0h-0.475c0.1-1.203 0.45-2.373 1.026-3.434s1.368-1.99 2.324-2.729c3.156-2.431 6.631-2.587 10.194-1.019 2.681 1.2 4.887 4.631 4.806 7.181l-0.019-0.025zM16.738 11.681h-2.781c-0.098-0-0.193 0.034-0.269 0.097s-0.126 0.15-0.144 0.247c-0.229 0.743-0.69 1.393-1.316 1.855s-1.382 0.712-2.159 0.714c-0.472 0.002-0.939-0.089-1.375-0.269-0.518-0.193-0.984-0.504-1.36-0.909s-0.653-0.892-0.808-1.422c-0.062-0.194-0.125-0.275-0.338-0.275h-2.944l-0.219 0.044c-0.018 0.061-0.018 0.126 0 0.188 0.028 0.109 0.065 0.216 0.112 0.319 0.759 1.724 1.981 3.204 3.531 4.275 0.792 0.563 1.711 0.92 2.675 1.041s1.943 0.002 2.85-0.348h-0.044c1.805-0.646 3.317-1.922 4.256-3.594v-0.044c0.362-0.577 0.576-1.233 0.625-1.912l-0.294-0.006zM7.688 11.056c0.031 0.602 0.292 1.168 0.729 1.583s1.016 0.646 1.618 0.646 1.182-0.231 1.618-0.646c0.437-0.415 0.697-0.981 0.729-1.583-0.031-0.601-0.292-1.168-0.729-1.583s-1.016-0.646-1.618-0.646-1.182 0.231-1.618 0.646c-0.437 0.415-0.697 0.981-0.729 1.583z"></path>
</svg>
