<!-- Generated by IcoMoon.io -->
<svg version="1.1" xmlns="http://www.w3.org/2000/svg" width="20" height="20" viewBox="0 0 20 20">
<title>drop</title>
<path d="M10.465 1.766l-0.465-0.516-0.465 0.516 0.465 0.418 0.465-0.418zM10 3.143c0.114 0.137 0.246 0.297 0.392 0.478 0.519 0.644 1.21 1.547 1.9 2.581 0.691 1.037 1.374 2.195 1.881 3.352 0.511 1.164 0.826 2.284 0.826 3.255 0 2.78-2.22 5-5 5s-5-2.22-5-5c0-0.971 0.315-2.091 0.826-3.255 0.508-1.157 1.19-2.315 1.881-3.352 0.69-1.035 1.381-1.937 1.9-2.581 0.146-0.181 0.278-0.341 0.392-0.478zM10 2.184c-0.465-0.418-0.465-0.418-0.465-0.418l-0.002 0.002-0.004 0.004-0.013 0.015c-0.011 0.013-0.028 0.032-0.049 0.056-0.043 0.049-0.105 0.12-0.184 0.212-0.157 0.184-0.381 0.45-0.649 0.782-0.536 0.665-1.251 1.598-1.967 2.672-0.715 1.073-1.439 2.297-1.986 3.543-0.544 1.238-0.932 2.54-0.932 3.757 0 3.47 2.78 6.25 6.25 6.25s6.25-2.78 6.25-6.25c0-1.217-0.388-2.519-0.932-3.757-0.547-1.246-1.271-2.47-1.986-3.543-0.716-1.074-1.431-2.008-1.967-2.672-0.268-0.333-0.492-0.599-0.649-0.782-0.079-0.092-0.141-0.163-0.184-0.212-0.021-0.024-0.038-0.043-0.049-0.056l-0.013-0.015-0.004-0.004-0.001-0.001c0 0-0.001-0.001-0.465 0.417z"></path>
</svg>
