<!-- Generated by IcoMoon.io -->
<svg version="1.1" xmlns="http://www.w3.org/2000/svg" width="20" height="20" viewBox="0 0 20 20">
<title>duplicate</title>
<path d="M2.5 3.75c0-0.717 0.533-1.25 1.25-1.25h7.5c0.717 0 1.25 0.533 1.25 1.25 0 0.345 0.28 0.625 0.625 0.625s0.625-0.28 0.625-0.625c0-1.408-1.092-2.5-2.5-2.5h-7.5c-1.408 0-2.5 1.092-2.5 2.5v7.5c0 1.408 1.092 2.5 2.5 2.5 0.345 0 0.625-0.28 0.625-0.625s-0.28-0.625-0.625-0.625c-0.717 0-1.25-0.533-1.25-1.25v-7.5z"></path>
<path d="M8.75 6.25c-1.408 0-2.5 1.092-2.5 2.5v7.5c0 1.408 1.092 2.5 2.5 2.5h7.5c1.408 0 2.5-1.092 2.5-2.5v-7.5c0-1.408-1.092-2.5-2.5-2.5h-7.5zM7.5 8.75c0-0.717 0.533-1.25 1.25-1.25h7.5c0.717 0 1.25 0.533 1.25 1.25v7.5c0 0.717-0.533 1.25-1.25 1.25h-7.5c-0.717 0-1.25-0.533-1.25-1.25v-7.5z"></path>
</svg>
