<!-- Generated by IcoMoon.io -->
<svg version="1.1" xmlns="http://www.w3.org/2000/svg" width="32" height="32" viewBox="0 0 32 32">
<title>duplicate-remove</title>
<path d="M4 6c0-1.148 0.852-2 2-2h12c1.148 0 2 0.852 2 2 0 0.552 0.448 1 1 1s1-0.448 1-1c0-2.252-1.748-4-4-4h-12c-2.252 0-4 1.748-4 4v12c0 2.252 1.748 4 4 4 0.552 0 1-0.448 1-1s-0.448-1-1-1c-1.148 0-2-0.852-2-2v-12z"></path>
<path d="M15 20c0-0.552 0.448-1 1-1h8c0.552 0 1 0.448 1 1s-0.448 1-1 1h-8c-0.552 0-1-0.448-1-1z"></path>
<path d="M10 14c0-2.252 1.748-4 4-4h12c2.252 0 4 1.748 4 4v12c0 2.252-1.748 4-4 4h-12c-2.252 0-4-1.748-4-4v-12zM14 12c-1.148 0-2 0.852-2 2v12c0 1.148 0.852 2 2 2h12c1.148 0 2-0.852 2-2v-12c0-1.148-0.852-2-2-2h-12z"></path>
</svg>
