<!-- Generated by IcoMoon.io -->
<svg version="1.1" xmlns="http://www.w3.org/2000/svg" width="20" height="20" viewBox="0 0 20 20">
<title>earth</title>
<path d="M1.25 10c0-4.832 3.918-8.75 8.75-8.75s8.75 3.918 8.75 8.75c0 4.832-3.918 8.75-8.75 8.75s-8.75-3.918-8.75-8.75zM10 2.5c-0.046 0-0.093 0-0.139 0.001l0.407 1.017c0.067 0.168 0.058 0.356-0.024 0.517s-0.23 0.278-0.405 0.322l-0.917 0.229-0.517 1.55c-0.075 0.225-0.27 0.388-0.505 0.421l-1.981 0.283-0.707 0.707 0.65 0.813 0.861-0.215c0.189-0.047 0.39-0.004 0.542 0.118l1.444 1.155 1.413 0.283c0.121 0.024 0.232 0.084 0.319 0.171l1.875 1.875c0.117 0.117 0.183 0.276 0.183 0.442v0.625c0 0.237-0.134 0.453-0.346 0.559l-1.529 0.765v0.551c0 0.113-0.031 0.224-0.089 0.322l-0.938 1.562c-0.077 0.128-0.197 0.224-0.338 0.271l-0.938 0.313c-0.17 0.057-0.356 0.038-0.511-0.052s-0.264-0.242-0.299-0.418l-0.3-1.499-0.889-2.075-1.218-1.827c-0.068-0.103-0.105-0.223-0.105-0.347v-0.957l-1.65-1.375c-0.054-0.045-0.1-0.098-0.136-0.159l-0.387-0.645c-0.213 0.695-0.327 1.433-0.327 2.198 0 4.142 3.358 7.5 7.5 7.5 3.932 0 7.157-3.025 7.474-6.875h-0.087l-2.025 1.446c-0.188 0.135-0.436 0.154-0.643 0.050l-0.625-0.313c-0.262-0.131-0.398-0.426-0.327-0.711l0.919-3.675v-0.389l-1.734-0.496c-0.228-0.065-0.4-0.254-0.443-0.487s0.050-0.471 0.24-0.613l1.214-0.911 0.531-0.531c-1.253-0.939-2.809-1.496-4.495-1.496zM15.431 4.828l-0.614 0.614c-0.021 0.021-0.043 0.040-0.067 0.058l-0.243 0.182 0.977 0.279c0.268 0.077 0.453 0.322 0.453 0.601v0.938c0 0.051-0.006 0.102-0.019 0.152l-0.757 3.027 1.662-1.187c0.106-0.076 0.233-0.116 0.363-0.116h0.287c-0.145-1.757-0.896-3.343-2.043-4.547zM3.431 6.378l0.446 0.744c0.017-0.022 0.036-0.044 0.056-0.064l1.25-1.25c0.096-0.096 0.22-0.158 0.354-0.177l1.805-0.258 0.503-1.509c0.068-0.203 0.234-0.357 0.441-0.409l0.555-0.139-0.272-0.681c-2.214 0.428-4.082 1.83-5.138 3.742zM6.236 9.554c0.009 0.043 0.014 0.088 0.014 0.133v1.061l1.145 1.718c0.021 0.032 0.039 0.065 0.054 0.1l0.937 2.188c0.017 0.040 0.030 0.081 0.038 0.124l0.174 0.868 0.047-0.016 0.729-1.216v-0.764c0-0.237 0.134-0.453 0.346-0.559l1.516-0.758-1.545-1.545-1.377-0.275c-0.098-0.020-0.19-0.062-0.268-0.125l-1.321-1.057-0.491 0.123z"></path>
</svg>
