<!-- Generated by IcoMoon.io -->
<svg version="1.1" xmlns="http://www.w3.org/2000/svg" width="20" height="20" viewBox="0 0 20 20">
<title>earth-alt</title>
<path d="M10 1.25c-4.832 0-8.75 3.918-8.75 8.75s3.918 8.75 8.75 8.75c4.832 0 8.75-3.918 8.75-8.75s-3.918-8.75-8.75-8.75zM9.469 2.518c0.175-0.012 0.352-0.018 0.531-0.018 4.142 0 7.5 3.358 7.5 7.5 0 1.732-0.587 3.327-1.573 4.596 0-0-0 0 0 0l0.563-1.714 0.256-0.52c0.175-0.355 0.171-0.772-0.010-1.124s-0.518-0.597-0.909-0.662l-0.576-0.095-0.273-0.21-0.53-0.537c-0.16-0.162-0.362-0.278-0.583-0.334l-1.181-0.299c-0.234-0.059-0.479-0.050-0.708 0.027l-0.691 0.234h-0.055c0.208-0.226 0.33-0.526 0.33-0.846v-0.436c0.248-0.154 0.436-0.392 0.528-0.672l0.134-0.408 0.129-0.066c0.241-0.122 0.436-0.32 0.556-0.562l0.295-0.599c0.276-0.56 0.096-1.238-0.421-1.588l-0.783-0.529-0.503-0.511c-0.235-0.238-0.556-0.373-0.89-0.373h-0.663c-0.118-0.101-0.256-0.181-0.412-0.234l-0.063-0.021zM4.307 5.117c0.178 0.241 0.44 0.415 0.746 0.48l0.173 0.037v0.034l-0.259 1.051c-0.044 0.177-0.048 0.362-0.013 0.541l0.295 1.497c0.031 0.159 0.093 0.31 0.182 0.445l0.59 0.898c0.091 0.138 0.208 0.257 0.344 0.349l0.885 0.599c0.137 0.092 0.29 0.157 0.452 0.19l0.965 0.196 0.304 0.463c0.063 0.095 0.137 0.18 0.221 0.254-0.173 0.347-0.176 0.757-0.002 1.11l0.59 1.198c0.133 0.271 0.36 0.483 0.636 0.599l-0.341 0.691c-0.032 0.064-0.058 0.131-0.078 0.2l-0.26 0.885c-0.064 0.218-0.067 0.446-0.012 0.66-4.015-0.144-7.226-3.445-7.226-7.495 0-1.865 0.681-3.571 1.807-4.883zM6.181 7.018l0.295-1.198v-1.198l-1.163-0.247 1.563-0.938 0.781-0.013h0.59l0.885 0.299-0.295 0.898 0.885 0.599v-1.198h0.885l0.59 0.599 0.885 0.599-0.295 0.599-0.59 0.299-0.295 0.898-0.59 0.299v1.198l-0.295-0.299-0.59-0.299-1.181 0.599v0.898l0.59 0.299 0.59-0.599 0.295 0.599 0.59 0.599 0.59 0.299h0.59l0.885-0.299 1.181 0.299 0.59 0.599 0.59 0.453 0.885 0.146-0.295 0.599-0.59 1.797-1.476 1.198-1.181 1.198-0.295 0.599-0.851-0.013 0.26-0.885 0.59-1.198v-0.898l-0.885-0.299-0.59-1.198 0.59-0.898v-0.599h-0.885l-0.59-0.898-1.476-0.299-0.885-0.599-0.59-0.898-0.295-1.497z"></path>
</svg>
