<!-- Generated by IcoMoon.io -->
<svg version="1.1" xmlns="http://www.w3.org/2000/svg" width="20" height="20" viewBox="0 0 20 20">
<title>eat</title>
<path d="M5.193 1.424c0.249-0.239 0.645-0.23 0.884 0.019l2.808 2.933c0.583 0.588 0.705 1.424 0.365 2.115l0.751 0.751 0.738-0.738c-0.277-1.234 0.055-2.555 1.007-3.507l0.625-0.625c1.432-1.432 3.827-1.432 5.259 0s1.432 3.827 0 5.259l-0.625 0.625c-0.946 0.946-2.311 1.283-3.51 1.010l-0.736 0.736 5.433 5.433c0.744 0.744 0.744 2.015 0 2.759s-2.015 0.744-2.759 0l-5.433-5.433-5.433 5.433c-0.744 0.744-2.015 0.744-2.759 0s-0.744-2.015 0-2.759l5.433-5.433-0.751-0.751c-0.691 0.34-1.527 0.219-2.115-0.365l-2.933-2.808c-0.249-0.239-0.258-0.634-0.019-0.884s0.634-0.258 0.884-0.019l2.947 2.822c0.256 0.256 0.61 0.256 0.866 0 0.244-0.244 0.64-0.244 0.884 0l1.121 1.121 0.991-0.991-1.121-1.121c-0.244-0.244-0.244-0.64 0-0.884 0.256-0.256 0.256-0.61 0-0.866l-0.009-0.010-2.813-2.938c-0.239-0.249-0.23-0.645 0.019-0.884zM2.692 16.317c-0.256 0.256-0.256 0.735 0 0.991s0.735 0.256 0.991 0l9.466-9.466 0.371 0.131c0.842 0.297 1.9 0.097 2.6-0.603l0.625-0.625c0.943-0.943 0.943-2.548 0-3.491s-2.548-0.943-3.491 0l-0.625 0.625c-0.699 0.699-0.903 1.698-0.599 2.61l0.122 0.366-9.461 9.461zM11.875 10.884l-0.991 0.991 5.433 5.433c0.256 0.256 0.735 0.256 0.991 0s0.256-0.735 0-0.991l-5.433-5.433z"></path>
<path d="M4.192 3.308c-0.244-0.244-0.64-0.244-0.884 0s-0.244 0.64 0 0.884l2.5 2.5c0.244 0.244 0.64 0.244 0.884 0s0.244-0.64 0-0.884l-2.5-2.5z"></path>
</svg>
