<!-- Generated by IcoMoon.io -->
<svg version="1.1" xmlns="http://www.w3.org/2000/svg" width="32" height="32" viewBox="0 0 32 32">
<title>eat</title>
<path d="M8.308 2.278c0.399-0.382 1.032-0.368 1.414 0.031l4.493 4.693c0.934 0.94 1.128 2.278 0.584 3.384l1.201 1.201 1.181-1.181c-0.443-1.975 0.088-4.088 1.612-5.612l1-1c2.291-2.291 6.124-2.291 8.414 0s2.291 6.124 0 8.414l-1 1c-1.513 1.514-3.698 2.053-5.616 1.616l-1.177 1.177 8.693 8.693c1.191 1.191 1.191 3.224 0 4.414s-3.224 1.191-4.414 0l-8.693-8.693-8.693 8.693c-1.191 1.191-3.224 1.191-4.414 0s-1.191-3.224 0-4.414l8.693-8.693-1.201-1.201c-1.106 0.544-2.443 0.35-3.384-0.584l-4.693-4.493c-0.399-0.382-0.413-1.015-0.031-1.414s1.015-0.413 1.414-0.031l4.716 4.515c0.409 0.409 0.976 0.409 1.386 0 0.39-0.39 1.024-0.39 1.414 0l1.793 1.793 1.586-1.586-1.793-1.793c-0.39-0.39-0.39-1.024 0-1.414 0.409-0.409 0.409-0.976 0-1.386l-0.015-0.016-4.5-4.7c-0.382-0.399-0.368-1.032 0.031-1.414zM4.307 26.107c-0.409 0.41-0.409 1.176 0 1.586s1.176 0.41 1.586 0l15.146-15.146 0.594 0.21c1.348 0.476 3.041 0.155 4.16-0.964l1-1c1.509-1.509 1.509-4.076 0-5.586s-4.076-1.509-5.586 0l-1 1c-1.118 1.118-1.445 2.716-0.958 4.177l0.195 0.586-15.137 15.137zM19 17.414l-1.586 1.586 8.693 8.693c0.41 0.41 1.176 0.41 1.586 0s0.41-1.176 0-1.586l-8.693-8.693z"></path>
<path d="M6.707 5.293c-0.391-0.391-1.024-0.391-1.414 0s-0.391 1.024 0 1.414l4 4c0.391 0.39 1.024 0.39 1.414 0s0.39-1.024 0-1.414l-4-4z"></path>
</svg>
