<!-- Generated by IcoMoon.io -->
<svg version="1.1" xmlns="http://www.w3.org/2000/svg" width="20" height="20" viewBox="0 0 20 20">
<title>economy</title>
<path d="M8.75 1.25c-1.381 0-2.5 1.119-2.5 2.5s1.119 2.5 2.5 2.5c1.381 0 2.5-1.119 2.5-2.5s-1.119-2.5-2.5-2.5zM7.5 3.75c0-0.69 0.56-1.25 1.25-1.25s1.25 0.56 1.25 1.25c0 0.69-0.56 1.25-1.25 1.25s-1.25-0.56-1.25-1.25z"></path>
<path d="M11.25 6.875c0-1.381 1.119-2.5 2.5-2.5s2.5 1.119 2.5 2.5c0 1.381-1.119 2.5-2.5 2.5s-2.5-1.119-2.5-2.5zM13.75 5.625c-0.69 0-1.25 0.56-1.25 1.25s0.56 1.25 1.25 1.25c0.69 0 1.25-0.56 1.25-1.25s-0.56-1.25-1.25-1.25z"></path>
<path d="M12.426 11.567c0.024-0.003 0.049-0.004 0.074-0.004h3.75c1.345 0 2.438 1.092 2.438 2.438 0 1.030-0.682 1.949-1.677 2.28l-0.011 0.004-4.999 1.562c-1.332 0.42-2.724 0.346-4.028-0.135l-0.002-0.001-3.082-1.148h-3.012c-0.345 0-0.625-0.28-0.625-0.625v-6.875c0-0.345 0.28-0.625 0.625-0.625h3.112c0.055-0.001 0.111 0.005 0.166 0.019 0.048 0.012 0.094 0.030 0.137 0.052l2.357 1.179h2.352c1.192 0 2.159 0.784 2.426 1.879zM5.625 10.074v5.43l2.78 1.036c1.070 0.394 2.177 0.444 3.22 0.115l0.002-0.001 4.994-1.561c0.502-0.17 0.818-0.624 0.818-1.093 0-0.655-0.533-1.187-1.188-1.187h-3.75c-0.025 0-0.050-0.001-0.074-0.004-0.268 1.095-1.234 1.879-2.426 1.879h-1.875c-0.345 0-0.625-0.28-0.625-0.625s0.28-0.625 0.625-0.625h1.875c0.717 0 1.25-0.533 1.25-1.25s-0.533-1.25-1.25-1.25h-2.5c-0.097 0-0.193-0.023-0.279-0.066l-1.596-0.798zM2.5 9.688v5.625h1.875v-5.625h-1.875z"></path>
</svg>
