<!-- Generated by IcoMoon.io -->
<svg version="1.1" xmlns="http://www.w3.org/2000/svg" width="20" height="20" viewBox="0 0 20 20">
<title>edit-square</title>
<path d="M3.125 4.181c0-0.717 0.533-1.25 1.25-1.25h5.625c0.345 0 0.625-0.28 0.625-0.625s-0.28-0.625-0.625-0.625h-5.625c-1.408 0-2.5 1.092-2.5 2.5v11.25c0 1.408 1.092 2.5 2.5 2.5h11.25c1.408 0 2.5-1.092 2.5-2.5v-5.625c0-0.345-0.28-0.625-0.625-0.625s-0.625 0.28-0.625 0.625v5.625c0 0.717-0.533 1.25-1.25 1.25h-11.25c-0.717 0-1.25-0.533-1.25-1.25v-11.25z"></path>
<path d="M16.754 2.552l0.491 0.491c1.020 0.947 0.988 2.538 0.009 3.518l-6.302 6.302-0.144 0.041c-0.007 0.002-0.015 0.004-0.022 0.006l-5.446 1.556 1.556-5.446c0.002-0.008 0.004-0.016 0.007-0.023l0.041-0.144 6.293-6.293c0.947-1.020 2.538-0.988 3.518-0.009zM10.625 11.422l4.741-4.741-2.241-2.241-4.741 4.741 2.241 2.241zM7.809 10.374l-0.649 2.272 2.272-0.649-1.623-1.623zM14.009 3.556l2.241 2.241 0.121-0.121c0.517-0.517 0.488-1.293 0.020-1.722l-0.010-0.009-0.51-0.51c-0.517-0.517-1.293-0.488-1.722-0.020l-0.009 0.010-0.13 0.13z"></path>
</svg>
