<!-- Generated by IcoMoon.io -->
<svg version="1.1" xmlns="http://www.w3.org/2000/svg" width="32" height="32" viewBox="0 0 32 32">
<title>edit</title>
<path d="M25.807 4.193l0.786 0.786c1.633 1.515 1.581 4.061 0.014 5.628l-12.083 12.083-0.231 0.066c-0.012 0.003-0.023 0.007-0.035 0.010l-8.714 2.49 2.489-8.713c0.003-0.012 0.007-0.025 0.011-0.037l0.066-0.23 12.069-12.069c1.515-1.633 4.061-1.581 5.628-0.014zM8.456 22.344l3.635-1.039-2.597-2.597-1.039 3.635zM10.414 16.8l3.586 3.586 9.586-9.586-3.586-3.586-9.586 9.586zM25 9.386l0.193-0.193c0.827-0.827 0.781-2.068 0.031-2.756l-0.016-0.015-0.815-0.815c-0.827-0.827-2.069-0.781-2.756-0.031l-0.015 0.016-0.208 0.208 3.586 3.586z"></path>
<path d="M4 26.8c-0.552 0-1 0.448-1 1s0.448 1 1 1h24c0.552 0 1-0.448 1-1s-0.448-1-1-1h-24z"></path>
</svg>
