<!-- Generated by IcoMoon.io -->
<svg version="1.1" xmlns="http://www.w3.org/2000/svg" width="20" height="20" viewBox="0 0 20 20">
<title>edit</title>
<path d="M16.129 2.621l0.491 0.491c1.020 0.947 0.988 2.538 0.009 3.518l-7.552 7.552-0.144 0.041c-0.007 0.002-0.015 0.004-0.022 0.006l-5.446 1.556 1.556-5.446c0.002-0.008 0.004-0.015 0.007-0.023l0.041-0.144 7.543-7.543c0.947-1.020 2.538-0.988 3.518-0.009zM5.285 13.965l2.272-0.649-1.623-1.623-0.649 2.272zM6.509 10.5l2.241 2.241 5.991-5.991-2.241-2.241-5.991 5.991zM15.625 5.866l0.121-0.121c0.517-0.517 0.488-1.293 0.020-1.722l-0.010-0.009-0.51-0.51c-0.517-0.517-1.293-0.488-1.722-0.020l-0.009 0.010-0.13 0.13 2.241 2.241z"></path>
<path d="M2.5 16.75c-0.345 0-0.625 0.28-0.625 0.625s0.28 0.625 0.625 0.625h15c0.345 0 0.625-0.28 0.625-0.625s-0.28-0.625-0.625-0.625h-15z"></path>
</svg>
