<!-- Generated by IcoMoon.io -->
<svg version="1.1" xmlns="http://www.w3.org/2000/svg" width="32" height="32" viewBox="0 0 32 32">
<title>electric-car-alt</title>
<path d="M21.7 2.355c-0.3 0.4-0.3 1 0.2 1.3l1.5 1.3-1.1 1.6-1.5-1.2c-0.4-0.4-1-0.3-1.4 0.1s-0.3 1 0.1 1.4l1.5 1.3c-0.3 0.4-0.2 1 0.2 1.3l2.3 1.9c1.2 1.1 2.9 1.2 4.3 0.5 0.8 1.6 1.3 3.5 1.3 5.4 0 2.4-0.7 4.6-1.9 6.5-0.7-0.9-1.9-1.5-3.1-1.5-1.9 0-3.5 1.3-3.9 3h-8.3c-0.5-1.7-2-3-3.9-3-1.2 0-2.3 0.6-3 1.4-0.3 0.3-0.5 0.7-0.7 1.1-0.2-0.3-0.3-0.8-0.3-1.5 0-0.5 0.3-1.3 1-2.2 0.6-1 1.7-2.1 3.1-3.1 2.8-2 7.1-3.7 12.9-3.7 1.6 0 3 1.4 3 3v1h-3v-1c0-0.6-0.4-1-1-1s-1 0.4-1 1v1h-7c-0.6 0-1 0.4-1 1s0.4 1 1 1h13c0.6 0 1-0.4 1-1v-2c0-2.8-2.2-5-5-5-6.2 0-10.9 1.9-14.1 4.1-1.6 1.1-2.8 2.3-3.6 3.5s-1.3 2.4-1.3 3.4c0 1.7 0.6 2.8 1.4 3.3 0.3 0.2 0.5 0.3 0.7 0.4 0.4 1.8 2 3.2 3.9 3.2s3.5-1.3 3.9-3h8.2c0.5 1.7 2 3 3.9 3 2.2 0 4-1.8 4-4 0-0.2 0-0.3 0-0.4 1.8-2.4 3-5.3 3-8.6 0-2.4-0.7-4.8-1.8-6.8 1.2-1.7 0.9-4-0.8-5.3l-2.3-1.9c-0.2-0.1-0.4-0.2-0.7-0.2s-0.5 0.2-0.7 0.4l-0.1 0.1-1.5-1.2c-0.4-0.4-1-0.3-1.4 0.1zM25.9 25.655c0 0.1 0 0.3 0.1 0.4 0 0.1 0 0.1 0 0.2 0 1.1-0.9 2-2 2s-2-0.9-2-2c0-1.1 0.9-2 2-2 0.9 0 1.6 0.6 1.9 1.4zM23.1 8.555l0.1-0.1 2.2-2.8c0.1 0 0.1-0.1 0.1-0.1l0.1-0.1 1.5 1.2c0.8 0.6 1 1.9 0.2 2.8 0 0 0 0-0.1 0.1-0.6 0.9-1.9 1.1-2.7 0.3l-1.4-1.3zM8 24.255c1.1 0 2 0.9 2 2s-0.9 2-2 2c-1.1 0-2-0.9-2-2s0.9-2 2-2z"></path>
</svg>
