<!-- Generated by IcoMoon.io -->
<svg version="1.1" xmlns="http://www.w3.org/2000/svg" width="20" height="20" viewBox="0 0 20 20">
<title>electric-car-charging</title>
<path d="M13.581 1.477c-0.22 0.266-0.182 0.66 0.084 0.88l0.95 0.785-0.779 0.963-0.938-0.775c-0.266-0.22-0.66-0.182-0.88 0.084s-0.182 0.66 0.084 0.88l0.949 0.784c-0.186 0.265-0.14 0.632 0.113 0.841l1.435 1.185c0.784 0.662 1.846 0.759 2.691 0.313 0.514 1.034 0.834 2.2 0.834 3.395 0 1.481-0.447 2.855-1.198 4.033-0.459-0.554-1.152-0.908-1.927-0.908-1.174 0-2.159 0.809-2.428 1.901-0.259 0.077-0.447 0.316-0.447 0.599s0.189 0.523 0.447 0.599c0.268 1.091 1.254 1.901 2.428 1.901 1.381 0 2.5-1.119 2.5-2.5 0-0.075-0.003-0.149-0.010-0.222 1.156-1.497 1.885-3.355 1.885-5.403 0-1.545-0.45-3.019-1.134-4.276 0.751-1.065 0.56-2.533-0.476-3.338l-1.43-1.181c-0.129-0.106-0.295-0.157-0.461-0.14s-0.318 0.099-0.423 0.229l-0.051 0.063-0.94-0.777c-0.266-0.22-0.66-0.182-0.88 0.084zM14.449 5.359c0.020-0.028 0.037-0.058 0.052-0.088l1.393-1.723c0.031-0.026 0.061-0.055 0.088-0.087 0.019-0.023 0.036-0.047 0.051-0.071l0.944 0.78c0.006 0.005 0.011 0.009 0.017 0.014 0.522 0.401 0.618 1.178 0.154 1.726-0.011 0.013-0.022 0.027-0.031 0.040-0.406 0.568-1.17 0.658-1.713 0.199l-0.955-0.789zM16.245 16.325c0.003 0.037 0.005 0.075 0.005 0.113 0 0.69-0.56 1.25-1.25 1.25s-1.25-0.56-1.25-1.25c0-0.69 0.56-1.25 1.25-1.25 0.554 0 1.024 0.36 1.188 0.859-0.002 0.095 0.017 0.191 0.057 0.278z"></path>
<path d="M13.124 7.688l0.001-0c1.72 0 3.125 1.405 3.125 3.125v1.25c0 0.345-0.28 0.625-0.625 0.625h-1.375c-0.345 0-0.625-0.28-0.625-0.625s0.28-0.625 0.625-0.625h0.75v-0.625c0-1.030-0.845-1.875-1.875-1.875-0.509 0-0.901 0.001-1.287 0.056-0.342 0.049-0.658-0.189-0.707-0.53s0.189-0.658 0.53-0.707c0.482-0.069 0.957-0.069 1.441-0.069l0.021 0z"></path>
<path d="M7.421 15.813c-0.278-1.078-1.256-1.875-2.421-1.875-1.043 0-1.937 0.639-2.312 1.547-0.098-0.172-0.188-0.454-0.188-0.922 0-0.397 0.302-1.173 1.113-2.074 0.787-0.874 1.991-1.79 3.628-2.475 0.318-0.133 0.469-0.499 0.336-0.818s-0.499-0.469-0.818-0.335c-1.8 0.753-3.159 1.774-4.075 2.791-0.892 0.99-1.434 2.057-1.434 2.911 0 1.090 0.373 1.764 0.875 2.141 0.146 0.11 0.293 0.186 0.426 0.238 0.233 1.139 1.241 1.996 2.449 1.996 1.165 0 2.144-0.797 2.421-1.875h1.141c0.345 0 0.625-0.28 0.625-0.625s-0.28-0.625-0.625-0.625h-1.141zM3.75 16.438c0-0.69 0.56-1.25 1.25-1.25s1.25 0.56 1.25 1.25c0 0.69-0.56 1.25-1.25 1.25s-1.25-0.56-1.25-1.25z"></path>
<path d="M10.279 7.128c0.309 0.154 0.434 0.53 0.279 0.838l-2.048 4.096h3.989c0.217 0 0.418 0.112 0.532 0.296s0.124 0.414 0.027 0.608l-2.5 5c-0.154 0.309-0.53 0.434-0.838 0.28s-0.434-0.53-0.279-0.839l2.048-4.096h-3.989c-0.217 0-0.418-0.112-0.532-0.296s-0.124-0.414-0.027-0.608l2.5-5c0.154-0.309 0.53-0.434 0.838-0.279z"></path>
</svg>
