<!-- Generated by IcoMoon.io -->
<svg version="1.1" xmlns="http://www.w3.org/2000/svg" width="20" height="20" viewBox="0 0 20 20">
<title>electric-car</title>
<path d="M3.75 2.5c0-0.345 0.28-0.625 0.625-0.625h1.875c1.191 0 2.156 0.782 2.425 1.875h2.575c4.158 0 7.5 3.342 7.5 7.5v3.125c0 1.090-0.373 1.764-0.875 2.141-0.146 0.11-0.293 0.186-0.426 0.238-0.233 1.139-1.241 1.996-2.449 1.996-1.165 0-2.144-0.797-2.421-1.875h-5.158c-0.278 1.078-1.256 1.875-2.421 1.875-1.208 0-2.216-0.857-2.449-1.996-0.133-0.053-0.279-0.129-0.426-0.238-0.502-0.377-0.875-1.051-0.875-2.141 0-0.65 0.312-1.401 0.815-2.124 0.515-0.74 1.271-1.512 2.261-2.214 1.984-1.406 4.924-2.537 8.799-2.537 1.72 0 3.125 1.405 3.125 3.125v1.25c0 0.345-0.28 0.625-0.625 0.625h-8.125c-0.345 0-0.625-0.28-0.625-0.625s0.28-0.625 0.625-0.625h4.375v-0.625c0-0.345 0.28-0.625 0.625-0.625s0.625 0.28 0.625 0.625v0.625h1.875v-0.625c0-1.030-0.845-1.875-1.875-1.875-3.625 0-6.311 1.056-8.076 2.307-0.885 0.627-1.535 1.299-1.958 1.907-0.434 0.624-0.591 1.123-0.591 1.411 0 0.468 0.090 0.751 0.188 0.922 0.103-0.25 0.246-0.48 0.42-0.681l-0.017-1.651 0.022 1.646c0.458-0.527 1.134-0.86 1.887-0.86 1.165 0 2.144 0.797 2.421 1.875h5.158c0.278-1.078 1.256-1.875 2.421-1.875 1.043 0 1.937 0.639 2.312 1.547 0.098-0.171 0.188-0.454 0.188-0.922v-3.125c0-3.467-2.783-6.25-6.25-6.25h-2.575c-0.269 1.093-1.234 1.875-2.425 1.875h-1.875c-0.345 0-0.625-0.28-0.625-0.625h-1.25c-0.345 0-0.625-0.28-0.625-0.625s0.28-0.625 0.625-0.625h1.25v-1.25h-1.25c-0.345 0-0.625-0.28-0.625-0.625s0.28-0.625 0.625-0.625h1.25zM7.5 4.375c0-0.717-0.533-1.25-1.25-1.25h-1.25v2.5h1.25c0.717 0 1.25-0.533 1.25-1.25zM3.75 16.25c0 0.69 0.56 1.25 1.25 1.25s1.25-0.56 1.25-1.25c0-0.69-0.56-1.25-1.25-1.25s-1.25 0.56-1.25 1.25zM13.75 16.25c0 0.69 0.56 1.25 1.25 1.25s1.25-0.56 1.25-1.25c0-0.69-0.56-1.25-1.25-1.25s-1.25 0.56-1.25 1.25z"></path>
</svg>
