<!-- Generated by IcoMoon.io -->
<svg version="1.1" xmlns="http://www.w3.org/2000/svg" width="20" height="20" viewBox="0 0 20 20">
<title>electric-car-alt</title>
<path d="M13.563 1.472c-0.188 0.25-0.188 0.625 0.125 0.813l0.938 0.813-0.688 1-0.938-0.75c-0.25-0.25-0.625-0.187-0.875 0.063s-0.188 0.625 0.063 0.875l0.938 0.813c-0.188 0.25-0.125 0.625 0.125 0.813l1.438 1.187c0.75 0.688 1.813 0.75 2.688 0.313 0.5 1 0.813 2.187 0.813 3.375 0 1.5-0.438 2.875-1.188 4.063-0.437-0.563-1.187-0.938-1.938-0.938-1.187 0-2.188 0.813-2.437 1.875h-5.188c-0.313-1.063-1.25-1.875-2.438-1.875-0.75 0-1.437 0.375-1.875 0.875-0.187 0.188-0.313 0.437-0.438 0.688-0.125-0.188-0.188-0.5-0.188-0.938 0-0.313 0.188-0.813 0.625-1.375 0.375-0.625 1.063-1.313 1.938-1.938 1.75-1.25 4.437-2.313 8.063-2.313 1 0 1.875 0.875 1.875 1.875v0.625h-1.875v-0.625c0-0.375-0.25-0.625-0.625-0.625s-0.625 0.25-0.625 0.625v0.625h-4.375c-0.375 0-0.625 0.25-0.625 0.625s0.25 0.625 0.625 0.625h8.125c0.375 0 0.625-0.25 0.625-0.625v-1.25c0-1.75-1.375-3.125-3.125-3.125-3.875 0-6.813 1.188-8.813 2.563-1 0.688-1.75 1.438-2.25 2.188s-0.813 1.5-0.813 2.125c0 1.063 0.375 1.75 0.875 2.063 0.188 0.125 0.313 0.188 0.438 0.25 0.25 1.125 1.25 2 2.438 2s2.188-0.813 2.438-1.875h5.125c0.313 1.063 1.25 1.875 2.438 1.875 1.375 0 2.5-1.125 2.5-2.5 0-0.125 0-0.188 0-0.25 1.125-1.5 1.875-3.313 1.875-5.375 0-1.5-0.438-3-1.125-4.25 0.75-1.062 0.563-2.5-0.5-3.312l-1.438-1.187c-0.125-0.063-0.25-0.125-0.438-0.125s-0.313 0.125-0.438 0.25l-0.063 0.063-0.938-0.75c-0.25-0.25-0.625-0.188-0.875 0.063zM16.188 16.034c0 0.063 0 0.188 0.063 0.25 0 0.063 0 0.063 0 0.125 0 0.688-0.563 1.25-1.25 1.25s-1.25-0.563-1.25-1.25c0-0.688 0.563-1.25 1.25-1.25 0.563 0 1 0.375 1.188 0.875zM14.438 5.347l0.063-0.063 1.375-1.75c0.063 0 0.063-0.062 0.063-0.062l0.063-0.063 0.938 0.75c0.5 0.375 0.625 1.188 0.125 1.75 0 0 0 0-0.063 0.063-0.375 0.562-1.187 0.687-1.687 0.188l-0.875-0.813zM5 15.159c0.688 0 1.25 0.563 1.25 1.25s-0.563 1.25-1.25 1.25c-0.688 0-1.25-0.563-1.25-1.25s0.563-1.25 1.25-1.25z"></path>
</svg>
