<!-- Generated by IcoMoon.io -->
<svg version="1.1" xmlns="http://www.w3.org/2000/svg" width="20" height="20" viewBox="0 0 20 20">
<title>ellipsis</title>
<path d="M5 8.75c0.69 0 1.25 0.56 1.25 1.25s-0.56 1.25-1.25 1.25c-0.69 0-1.25-0.56-1.25-1.25s0.56-1.25 1.25-1.25z"></path>
<path d="M10 8.75c0.69 0 1.25 0.56 1.25 1.25s-0.56 1.25-1.25 1.25c-0.69 0-1.25-0.56-1.25-1.25s0.56-1.25 1.25-1.25z"></path>
<path d="M16.25 10c0-0.69-0.56-1.25-1.25-1.25s-1.25 0.56-1.25 1.25c0 0.69 0.56 1.25 1.25 1.25s1.25-0.56 1.25-1.25z"></path>
</svg>
