<!-- Generated by IcoMoon.io -->
<svg version="1.1" xmlns="http://www.w3.org/2000/svg" width="20" height="20" viewBox="0 0 20 20">
<title>emissions</title>
<path d="M9.375 5c0-1.72 1.405-3.125 3.125-3.125s3.125 1.405 3.125 3.125c0 1.72-1.405 3.125-3.125 3.125h-10.625c-0.345 0-0.625-0.28-0.625-0.625s0.28-0.625 0.625-0.625h10.625c1.030 0 1.875-0.845 1.875-1.875s-0.845-1.875-1.875-1.875c-1.030 0-1.875 0.845-1.875 1.875 0 0.345-0.28 0.625-0.625 0.625s-0.625-0.28-0.625-0.625z"></path>
<path d="M1.25 10.625c0-0.345 0.28-0.625 0.625-0.625h13.125c2.095 0 3.75 1.655 3.75 3.75s-1.655 3.75-3.75 3.75c-2.095 0-3.75-1.655-3.75-3.75 0-0.345 0.28-0.625 0.625-0.625s0.625 0.28 0.625 0.625c0 1.405 1.095 2.5 2.5 2.5s2.5-1.095 2.5-2.5c0-1.405-1.095-2.5-2.5-2.5h-13.125c-0.345 0-0.625-0.28-0.625-0.625z"></path>
<path d="M1.875 13.125c-0.345 0-0.625 0.28-0.625 0.625s0.28 0.625 0.625 0.625h5.625c0.717 0 1.25 0.533 1.25 1.25s-0.533 1.25-1.25 1.25c-0.717 0-1.25-0.533-1.25-1.25 0-0.345-0.28-0.625-0.625-0.625s-0.625 0.28-0.625 0.625c0 1.408 1.092 2.5 2.5 2.5s2.5-1.092 2.5-2.5c0-1.408-1.092-2.5-2.5-2.5h-5.625z"></path>
</svg>
