<!-- Generated by IcoMoon.io -->
<svg version="1.1" xmlns="http://www.w3.org/2000/svg" width="20" height="20" viewBox="0 0 20 20">
<title>emission-off</title>
<path d="M1.433 1.433c0.244-0.244 0.64-0.244 0.884 0l14.615 14.615c0.007 0.006 0.013 0.013 0.020 0.020l1.615 1.615c0.244 0.244 0.244 0.64 0 0.884s-0.64 0.244-0.884 0l-1.314-1.314c-0.425 0.167-0.884 0.247-1.369 0.247-2.095 0-3.75-1.655-3.75-3.75 0-0.345 0.28-0.625 0.625-0.625s0.625 0.28 0.625 0.625c0 1.405 1.095 2.5 2.5 2.5 0.12 0 0.235-0.007 0.346-0.020l-4.98-4.98h-8.491c-0.345 0-0.625-0.28-0.625-0.625s0.28-0.625 0.625-0.625h7.241l-1.875-1.875h-5.366c-0.345 0-0.625-0.28-0.625-0.625s0.28-0.625 0.625-0.625h4.116l-4.558-4.558c-0.244-0.244-0.244-0.64 0-0.884z"></path>
<path d="M9.375 5c0-1.72 1.405-3.125 3.125-3.125s3.125 1.405 3.125 3.125c0 1.72-1.405 3.125-3.125 3.125h-1.875c-0.345 0-0.625-0.28-0.625-0.625s0.28-0.625 0.625-0.625h1.875c1.030 0 1.875-0.845 1.875-1.875s-0.845-1.875-1.875-1.875c-1.030 0-1.875 0.845-1.875 1.875 0 0.345-0.28 0.625-0.625 0.625s-0.625-0.28-0.625-0.625z"></path>
<path d="M13.75 10c-0.345 0-0.625 0.28-0.625 0.625s0.28 0.625 0.625 0.625h1.25c1.405 0 2.5 1.095 2.5 2.5 0 0.312-0.053 0.605-0.143 0.83-0.128 0.321 0.028 0.684 0.348 0.812s0.684-0.028 0.812-0.348c0.16-0.4 0.232-0.856 0.232-1.295 0-2.095-1.655-3.75-3.75-3.75h-1.25z"></path>
<path d="M1.875 13.125c-0.345 0-0.625 0.28-0.625 0.625s0.28 0.625 0.625 0.625h5.625c0.717 0 1.25 0.533 1.25 1.25s-0.533 1.25-1.25 1.25c-0.717 0-1.25-0.533-1.25-1.25 0-0.345-0.28-0.625-0.625-0.625s-0.625 0.28-0.625 0.625c0 1.408 1.092 2.5 2.5 2.5s2.5-1.092 2.5-2.5c0-1.408-1.092-2.5-2.5-2.5h-5.625z"></path>
</svg>
