<!-- Generated by IcoMoon.io -->
<svg version="1.1" xmlns="http://www.w3.org/2000/svg" width="20" height="20" viewBox="0 0 20 20">
<title>eu-flag-dark</title>
<path d="M12.563 3.831l-0.956 0.137 0.694 0.675-0.163 0.956 0.856-0.45 0.856 0.45-0.162-0.956 0.688-0.675-0.962-0.137-0.425-0.869-0.425 0.869zM6.381 3.831l-0.962 0.137 0.694 0.675-0.162 0.956 0.856-0.45 0.856 0.45-0.163-0.956 0.694-0.675-0.956-0.137-0.431-0.869-0.425 0.869zM9.9 2.137l-0.431 0.869-0.956 0.137 0.694 0.675-0.162 0.95 0.856-0.45 0.856 0.45-0.131-0.95 0.694-0.675-0.956-0.138-0.463-0.869zM14.831 6.094l-0.963 0.144 0.694 0.675-0.188 0.95 0.856-0.45 0.856 0.45-0.163-0.95 0.694-0.675-0.956-0.144-0.431-0.862-0.4 0.862zM15.656 9.181l-0.956 0.144 0.694 0.675-0.162 0.95 0.856-0.45 0.856 0.45-0.163-0.95 0.719-0.669-0.988-0.15-0.425-0.869-0.431 0.869zM14.831 12.306l-0.963 0.137 0.694 0.675-0.188 0.931 0.856-0.45 0.856 0.45-0.163-0.956 0.694-0.675-0.931-0.113-0.431-0.869-0.425 0.869zM12.563 14.544l-0.956 0.144 0.694 0.675-0.163 0.95 0.856-0.45 0.856 0.45-0.162-0.95 0.688-0.675-0.962-0.144-0.425-0.862-0.425 0.862zM9.438 15.375l-0.956 0.137 0.694 0.675-0.163 0.956 0.888-0.462 0.856 0.45-0.131-0.944 0.694-0.675-0.963-0.137-0.425-0.869-0.494 0.869zM6.35 14.544l-0.962 0.144 0.694 0.675-0.163 0.95 0.856-0.45 0.856 0.45-0.131-0.95 0.694-0.675-0.956-0.144-0.431-0.862-0.456 0.862zM4.112 12.306l-0.956 0.137 0.694 0.675-0.163 0.931 0.856-0.45 0.856 0.45-0.162-0.956 0.694-0.675-0.931-0.113-0.425-0.869-0.463 0.869zM3.287 9.181l-0.962 0.144 0.694 0.675-0.162 0.95 0.856-0.45 0.856 0.45-0.163-0.95 0.694-0.675-0.956-0.144-0.431-0.869-0.425 0.869zM4.537 5.225l-0.431 0.862-0.956 0.144 0.694 0.675-0.156 0.956 0.856-0.45 0.856 0.45-0.162-0.95 0.694-0.675-0.931-0.144-0.463-0.869zM1.475 0.431h17.044c0.112-0.001 0.223 0.021 0.327 0.063s0.198 0.105 0.278 0.184c0.080 0.079 0.143 0.173 0.186 0.277s0.065 0.215 0.065 0.327v17.050c0 0.112-0.022 0.223-0.065 0.327s-0.106 0.198-0.186 0.277c-0.080 0.079-0.174 0.142-0.278 0.184s-0.215 0.064-0.327 0.063h-17.044c-0.225 0-0.442-0.090-0.601-0.249s-0.249-0.376-0.249-0.601v-17.050c0-0.225 0.090-0.442 0.249-0.601s0.376-0.249 0.601-0.249z"></path>
</svg>
