<!-- Generated by IcoMoon.io -->
<svg version="1.1" xmlns="http://www.w3.org/2000/svg" width="20" height="20" viewBox="0 0 20 20">
<title>eu-flag-light</title>
<path d="M9.556 17.063l-1 0.144 0.725 0.725-0.175 0.988 0.894-0.488 0.894 0.469-0.175-0.969 0.725-0.706-1-0.144-0.444-0.925-0.444 0.906zM5.694 16.056l-1 0.15 0.725 0.7-0.175 0.962 0.894-0.469 0.894 0.469-0.156-0.994 0.725-0.7-1.019-0.119-0.444-0.9-0.444 0.9zM13.419 16.056l-1 0.15 0.706 0.669-0.175 0.994 0.894-0.469 0.894 0.469-0.175-0.994 0.725-0.7-0.981-0.119-0.444-0.9-0.444 0.9zM2.862 13.2l-0.987 0.144 0.719 0.706-0.169 0.988 0.894-0.469 0.888 0.469-0.169-0.987 0.712-0.706-1-0.144-0.438-0.894-0.45 0.894zM16.244 13.2l-0.994 0.144 0.719 0.706-0.169 0.988 0.887-0.469 0.894 0.469-0.169-0.987 0.712-0.706-0.994-0.144-0.444-0.894-0.444 0.894zM1.831 9.338l-1 0.144 0.725 0.706-0.175 0.988 0.894-0.469 0.894 0.469-0.175-0.987 0.756-0.706-1-0.144-0.444-0.9-0.475 0.9zM17.281 9.338l-1 0.144 0.725 0.706-0.175 0.988 0.894-0.469 0.894 0.469-0.175-0.987 0.725-0.706-1-0.144-0.444-0.9-0.444 0.9zM2.862 5.475l-0.987 0.144 0.719 0.706-0.175 0.981 0.894-0.469 0.888 0.469-0.169-0.987 0.719-0.7-1-0.144-0.438-0.9-0.45 0.9zM16.25 5.475l-1 0.144 0.719 0.706-0.169 0.981 0.887-0.469 0.894 0.469-0.169-0.987 0.712-0.7-0.994-0.144-0.444-0.9-0.438 0.9zM5.694 2.65l-1 0.144 0.725 0.7-0.175 0.994 0.894-0.469 0.894 0.469-0.156-0.994 0.725-0.7-1-0.144-0.463-0.906-0.444 0.906zM13.419 2.65l-1 0.144 0.706 0.7-0.175 0.994 0.894-0.469 0.894 0.469-0.156-0.994 0.725-0.7-1-0.144-0.444-0.906-0.444 0.906zM10 0.712l-0.444 0.9-1 0.144 0.725 0.706-0.175 0.994 0.894-0.469 0.894 0.469-0.175-0.994 0.725-0.706-1-0.144-0.444-0.9z"></path>
</svg>
