<!-- Generated by IcoMoon.io -->
<svg version="1.1" xmlns="http://www.w3.org/2000/svg" width="20" height="20" viewBox="0 0 20 20">
<title>export</title>
<path d="M2.461 3.75c0-0.717 0.516-1.25 1.211-1.25h6.66c0.695 0 1.211 0.533 1.211 1.25v0.625c0 0.345 0.271 0.625 0.605 0.625s0.605-0.28 0.605-0.625v-0.625c0-1.408-1.058-2.5-2.422-2.5h-6.66c-1.364 0-2.422 1.092-2.422 2.5v12.5c0 1.408 1.058 2.5 2.422 2.5h6.66c1.364 0 2.422-1.092 2.422-2.5v-0.625c0-0.345-0.271-0.625-0.605-0.625s-0.605 0.28-0.605 0.625v0.625c0 0.717-0.516 1.25-1.211 1.25h-6.66c-0.695 0-1.211-0.533-1.211-1.25v-12.5zM12.284 6.433c-0.237-0.244-0.62-0.244-0.856 0s-0.236 0.64 0 0.884l1.994 2.058h-7.816c-0.334 0-0.605 0.28-0.605 0.625s0.271 0.625 0.605 0.625h7.816l-1.994 2.058c-0.236 0.244-0.236 0.64 0 0.884s0.62 0.244 0.856 0l3.455-3.567-3.455-3.567zM13.731 1.25c-0.334 0-0.606 0.28-0.606 0.625s0.271 0.625 0.606 0.625h0.605c0.334 0 0.605-0.28 0.605-0.625s-0.271-0.625-0.605-0.625h-0.605zM16.152 1.25c-0.334 0-0.606 0.28-0.606 0.625s0.271 0.625 0.606 0.625c0.695 0 1.211 0.533 1.211 1.25 0 0.345 0.271 0.625 0.606 0.625s0.606-0.28 0.606-0.625c0-1.408-1.058-2.5-2.422-2.5zM18.574 5.625c0-0.345-0.271-0.625-0.606-0.625s-0.606 0.28-0.606 0.625v0.625c0 0.345 0.271 0.625 0.606 0.625s0.606-0.28 0.606-0.625v-0.625zM18.574 8.125c0-0.345-0.271-0.625-0.606-0.625s-0.606 0.28-0.606 0.625v0.625c0 0.345 0.271 0.625 0.606 0.625s0.606-0.28 0.606-0.625v-0.625zM18.574 11.25c0-0.345-0.271-0.625-0.606-0.625s-0.606 0.28-0.606 0.625v0.625c0 0.345 0.271 0.625 0.606 0.625s0.606-0.28 0.606-0.625v-0.625zM18.574 13.75c0-0.345-0.271-0.625-0.606-0.625s-0.606 0.28-0.606 0.625v0.625c0 0.345 0.271 0.625 0.606 0.625s0.606-0.28 0.606-0.625v-0.625zM18.574 16.25c0-0.345-0.271-0.625-0.606-0.625s-0.606 0.28-0.606 0.625c0 0.717-0.516 1.25-1.211 1.25-0.334 0-0.606 0.28-0.606 0.625s0.271 0.625 0.606 0.625c1.364 0 2.422-1.092 2.422-2.5zM13.731 17.5c-0.334 0-0.606 0.28-0.606 0.625s0.271 0.625 0.606 0.625h0.605c0.334 0 0.605-0.28 0.605-0.625s-0.271-0.625-0.605-0.625h-0.605z"></path>
</svg>
