<!-- Generated by IcoMoon.io -->
<svg version="1.1" xmlns="http://www.w3.org/2000/svg" width="32" height="32" viewBox="0 0 32 32">
<title>export-alt</title>
<path d="M3.938 6c0-1.148 0.826-2 1.938-2h11.625c1.112 0 1.938 0.852 1.938 2 0 0.552 0.434 1 0.969 1s0.969-0.448 0.969-1c0-2.252-1.693-4-3.875-4h-11.625c-2.182 0-3.875 1.748-3.875 4v12c0 2.252 1.693 4 3.875 4 0.535 0 0.969-0.448 0.969-1s-0.434-1-0.969-1c-1.112 0-1.938-0.852-1.938-2v-12zM18.719 10c-0.535 0-0.969 0.448-0.969 1s0.434 1 0.969 1h6.781c1.112 0 1.938 0.852 1.938 2v12c0 1.148-0.826 2-1.938 2h-11.625c-1.112 0-1.938-0.852-1.938-2v-7c0-0.552-0.434-1-0.969-1s-0.969 0.448-0.969 1v7c0 2.252 1.693 4 3.875 4h11.625c2.182 0 3.875-1.748 3.875-4v-12c0-2.252-1.693-4-3.875-4h-6.781zM7 7h6.781c0.535 0 0.969 0.448 0.969 1s-0.434 1-0.969 1h-3.474l5.127 5.293c0.378 0.39 0.378 1.024 0 1.414s-0.992 0.391-1.37 0l-5.128-5.293v3.586c0 0.552-0.434 1-0.969 1s-0.969-0.448-0.969-1v-7zM17.284 17.293c0.378-0.39 0.992-0.39 1.37 0l1.938 2c0.378 0.39 0.378 1.024 0 1.414s-0.992 0.39-1.37 0l-1.938-2c-0.378-0.39-0.378-1.024 0-1.414zM23.654 22.293c-0.378-0.39-0.992-0.39-1.37 0s-0.378 1.024 0 1.414l0.969 1c0.378 0.39 0.992 0.39 1.37 0s0.378-1.024 0-1.414l-0.969-1z"></path>
</svg>
