<!-- Generated by IcoMoon.io -->
<svg version="1.1" xmlns="http://www.w3.org/2000/svg" width="32" height="32" viewBox="0 0 32 32">
<title>export</title>
<path d="M3.938 6c0-1.148 0.826-2 1.938-2h10.656c1.112 0 1.938 0.852 1.938 2v1c0 0.552 0.434 1 0.969 1s0.969-0.448 0.969-1v-1c0-2.252-1.693-4-3.875-4h-10.656c-2.182 0-3.875 1.748-3.875 4v20c0 2.252 1.693 4 3.875 4h10.656c2.182 0 3.875-1.748 3.875-4v-1c0-0.552-0.434-1-0.969-1s-0.969 0.448-0.969 1v1c0 1.148-0.826 2-1.938 2h-10.656c-1.112 0-1.938-0.852-1.938-2v-20zM19.654 10.293c-0.378-0.391-0.992-0.391-1.37 0s-0.378 1.024 0 1.414l3.19 3.293h-12.505c-0.535 0-0.969 0.448-0.969 1s0.434 1 0.969 1h12.505l-3.19 3.293c-0.378 0.39-0.378 1.024 0 1.414s0.992 0.39 1.37 0l5.529-5.707-5.529-5.707zM21.969 2c-0.535 0-0.969 0.448-0.969 1s0.434 1 0.969 1h0.969c0.535 0 0.969-0.448 0.969-1s-0.434-1-0.969-1h-0.969zM25.844 2c-0.535 0-0.969 0.448-0.969 1s0.434 1 0.969 1c1.112 0 1.937 0.852 1.937 2 0 0.552 0.434 1 0.969 1s0.969-0.448 0.969-1c0-2.252-1.693-4-3.875-4zM29.719 9c0-0.552-0.434-1-0.969-1s-0.969 0.448-0.969 1v1c0 0.552 0.434 1 0.969 1s0.969-0.448 0.969-1v-1zM29.719 13c0-0.552-0.434-1-0.969-1s-0.969 0.448-0.969 1v1c0 0.552 0.434 1 0.969 1s0.969-0.448 0.969-1v-1zM29.719 18c0-0.552-0.434-1-0.969-1s-0.969 0.448-0.969 1v1c0 0.552 0.434 1 0.969 1s0.969-0.448 0.969-1v-1zM29.719 22c0-0.552-0.434-1-0.969-1s-0.969 0.448-0.969 1v1c0 0.552 0.434 1 0.969 1s0.969-0.448 0.969-1v-1zM29.719 26c0-0.552-0.434-1-0.969-1s-0.969 0.448-0.969 1c0 1.148-0.826 2-1.937 2-0.535 0-0.969 0.448-0.969 1s0.434 1 0.969 1c2.182 0 3.875-1.748 3.875-4zM21.969 28c-0.535 0-0.969 0.448-0.969 1s0.434 1 0.969 1h0.969c0.535 0 0.969-0.448 0.969-1s-0.434-1-0.969-1h-0.969z"></path>
</svg>
