<!-- Generated by IcoMoon.io -->
<svg version="1.1" xmlns="http://www.w3.org/2000/svg" width="20" height="20" viewBox="0 0 20 20">
<title>export-alt</title>
<path d="M2.461 3.75c0-0.717 0.516-1.25 1.211-1.25h7.266c0.695 0 1.211 0.533 1.211 1.25 0 0.345 0.271 0.625 0.605 0.625s0.606-0.28 0.606-0.625c0-1.408-1.058-2.5-2.422-2.5h-7.266c-1.364 0-2.422 1.092-2.422 2.5v7.5c0 1.408 1.058 2.5 2.422 2.5 0.334 0 0.605-0.28 0.605-0.625s-0.271-0.625-0.605-0.625c-0.695 0-1.211-0.533-1.211-1.25v-7.5zM11.699 6.25c-0.334 0-0.606 0.28-0.606 0.625s0.271 0.625 0.606 0.625h4.238c0.695 0 1.211 0.533 1.211 1.25v7.5c0 0.717-0.516 1.25-1.211 1.25h-7.266c-0.695 0-1.211-0.533-1.211-1.25v-4.375c0-0.345-0.271-0.625-0.605-0.625s-0.606 0.28-0.606 0.625v4.375c0 1.408 1.058 2.5 2.422 2.5h7.266c1.364 0 2.422-1.092 2.422-2.5v-7.5c0-1.408-1.058-2.5-2.422-2.5h-4.238zM4.375 4.375h4.238c0.334 0 0.606 0.28 0.606 0.625s-0.271 0.625-0.606 0.625h-2.171l3.205 3.308c0.236 0.244 0.236 0.64 0 0.884s-0.62 0.244-0.856 0l-3.205-3.308v2.241c0 0.345-0.271 0.625-0.605 0.625s-0.605-0.28-0.605-0.625v-4.375zM10.802 10.808c0.237-0.244 0.62-0.244 0.856 0l1.211 1.25c0.236 0.244 0.236 0.64 0 0.884s-0.62 0.244-0.856 0l-1.211-1.25c-0.236-0.244-0.236-0.64 0-0.884zM14.784 13.933c-0.237-0.244-0.62-0.244-0.856 0s-0.236 0.64 0 0.884l0.606 0.625c0.236 0.244 0.62 0.244 0.856 0s0.236-0.64 0-0.884l-0.605-0.625z"></path>
</svg>
