<!-- Generated by IcoMoon.io -->
<svg version="1.1" xmlns="http://www.w3.org/2000/svg" width="20" height="20" viewBox="0 0 20 20">
<title>external-alt</title>
<path d="M11.25 4.375c-0.345 0-0.625 0.28-0.625 0.625s0.28 0.625 0.625 0.625h1.616l-3.308 3.308c-0.244 0.244-0.244 0.64 0 0.884s0.64 0.244 0.884 0l3.308-3.308v1.616c0 0.345 0.28 0.625 0.625 0.625s0.625-0.28 0.625-0.625v-3.75h-3.75z"></path>
<path d="M6.875 6.875c-0.69 0-1.25 0.56-1.25 1.25v4.375c0 0.69 0.56 1.25 1.25 1.25h4.375c0.69 0 1.25-0.56 1.25-1.25v-2.768c0-0.345 0.28-0.625 0.625-0.625s0.625 0.28 0.625 0.625v2.768c0 1.381-1.119 2.5-2.5 2.5h-4.375c-1.381 0-2.5-1.119-2.5-2.5v-4.375c0-1.381 1.119-2.5 2.5-2.5h2.768c0.345 0 0.625 0.28 0.625 0.625s-0.28 0.625-0.625 0.625h-2.768z"></path>
</svg>
