<!-- Generated by IcoMoon.io -->
<svg version="1.1" xmlns="http://www.w3.org/2000/svg" width="20" height="20" viewBox="0 0 20 20">
<title>eye-off</title>
<path d="M2.942 2.058l3.49 3.49c0.007 0.007 0.014 0.014 0.021 0.021l7.979 7.979c0.007 0.007 0.014 0.014 0.021 0.021l3.49 3.49c0.244 0.244 0.244 0.64 0 0.884s-0.64 0.244-0.884 0l-3.188-3.188c-1.201 0.544-2.477 0.871-3.87 0.871-3.515 0-6.631-2.095-8.653-5.291-0.13-0.205-0.129-0.468 0.002-0.672 1.005-1.563 2.216-2.861 3.641-3.788l-2.932-2.932c-0.244-0.244-0.244-0.64 0-0.884s0.64-0.244 0.884 0zM5.896 6.78c-1.243 0.758-2.336 1.849-3.273 3.222 1.848 2.729 4.508 4.373 7.377 4.373 1.025 0 1.987-0.207 2.917-0.574l-0.763-0.763c-0.595 0.435-1.326 0.712-2.154 0.712-2.095 0-3.75-1.655-3.75-3.75 0-0.828 0.278-1.559 0.712-2.154l-1.066-1.066zM7.862 8.746c-0.229 0.368-0.362 0.791-0.362 1.254 0 1.405 1.095 2.5 2.5 2.5 0.463 0 0.886-0.133 1.254-0.362l-0.876-0.876c-0.126 0.034-0.253 0.050-0.373 0.050h-0.006c-0.72 0-1.313-0.592-1.313-1.313 0-0.121 0.015-0.25 0.050-0.378l-0.876-0.876z"></path>
<path d="M10 4.375c-0.817 0-1.623 0.136-2.352 0.335-0.333 0.091-0.529 0.434-0.439 0.767s0.434 0.529 0.767 0.439c0.647-0.176 1.34-0.29 2.023-0.29 2.869 0 5.531 1.645 7.378 4.376-0.666 0.988-1.424 1.825-2.273 2.514-0.268 0.218-0.309 0.611-0.091 0.879s0.611 0.309 0.879 0.091c1.057-0.859 1.976-1.912 2.759-3.151 0.129-0.204 0.129-0.464-0-0.668-2.022-3.196-5.138-5.291-8.653-5.291z"></path>
<path d="M9.573 7.53c0.072-0.024 0.211-0.030 0.427-0.030 0.345 0 0.625-0.28 0.625-0.625s-0.28-0.625-0.625-0.625l-0.027-0c-0.17-0-0.509-0.001-0.796 0.095-0.327 0.109-0.504 0.463-0.395 0.791s0.463 0.504 0.791 0.395z"></path>
<path d="M12.566 8.051c0.317-0.136 0.685 0.011 0.821 0.328 0.208 0.486 0.363 1.010 0.363 1.621v0.023c0 0.175 0.001 0.451-0.095 0.737-0.109 0.328-0.463 0.504-0.791 0.395s-0.504-0.463-0.395-0.791c0.026-0.077 0.030-0.163 0.030-0.365 0-0.389-0.095-0.74-0.262-1.129-0.136-0.317 0.011-0.685 0.328-0.821z"></path>
</svg>
