<!-- Generated by IcoMoon.io -->
<svg version="1.1" xmlns="http://www.w3.org/2000/svg" width="32" height="32" viewBox="0 0 32 32">
<title>eye-off</title>
<path d="M4.707 3.293l5.583 5.583c0.011 0.011 0.022 0.022 0.033 0.033l12.767 12.767c0.011 0.011 0.023 0.022 0.033 0.033l5.583 5.583c0.39 0.39 0.39 1.024 0 1.414s-1.024 0.39-1.414 0l-5.101-5.101c-1.922 0.87-3.964 1.393-6.192 1.393-5.625 0-10.61-3.352-13.845-8.465-0.208-0.329-0.206-0.748 0.004-1.075 1.608-2.501 3.546-4.577 5.825-6.061l-4.691-4.691c-0.391-0.391-0.391-1.024 0-1.414s1.024-0.391 1.414 0zM9.434 10.848c-1.989 1.212-3.738 2.959-5.237 5.155 2.957 4.366 7.213 6.997 11.803 6.997 1.64 0 3.179-0.33 4.667-0.919l-1.221-1.221c-0.952 0.696-2.121 1.14-3.446 1.14-3.352 0-6-2.648-6-6 0-1.325 0.444-2.494 1.14-3.446l-1.706-1.706zM12.579 13.993c-0.367 0.589-0.579 1.266-0.579 2.007 0 2.248 1.752 4 4 4 0.741 0 1.417-0.213 2.007-0.579l-1.401-1.401c-0.202 0.055-0.405 0.079-0.596 0.080h-0.009c-1.152 0-2.1-0.948-2.1-2.1 0-0.194 0.025-0.4 0.080-0.605l-1.401-1.401z"></path>
<path d="M16 7c-1.308 0-2.598 0.217-3.763 0.535-0.533 0.145-0.847 0.695-0.702 1.228s0.695 0.847 1.228 0.702c1.034-0.282 2.144-0.465 3.237-0.465 4.591 0 8.849 2.632 11.806 7.001-1.065 1.581-2.278 2.92-3.636 4.023-0.429 0.348-0.494 0.978-0.145 1.407s0.978 0.494 1.407 0.145c1.692-1.374 3.162-3.058 4.415-5.042 0.206-0.326 0.206-0.742-0-1.069-3.235-5.113-8.22-8.465-13.845-8.465z"></path>
<path d="M15.316 12.049c0.115-0.038 0.337-0.049 0.684-0.049 0.552 0 1-0.448 1-1s-0.448-1-1-1l-0.043-0c-0.271-0.001-0.814-0.002-1.273 0.151-0.524 0.175-0.807 0.741-0.633 1.265s0.741 0.807 1.265 0.633z"></path>
<path d="M20.106 12.881c0.508-0.218 1.096 0.018 1.313 0.525 0.333 0.778 0.581 1.616 0.581 2.594v0.038c0 0.28 0.001 0.722-0.151 1.179-0.175 0.524-0.741 0.807-1.265 0.633s-0.807-0.741-0.633-1.265c0.041-0.122 0.049-0.261 0.049-0.584 0-0.622-0.152-1.184-0.419-1.806-0.218-0.508 0.017-1.095 0.525-1.313z"></path>
</svg>
