<!-- Generated by IcoMoon.io -->
<svg version="1.1" xmlns="http://www.w3.org/2000/svg" width="20" height="20" viewBox="0 0 20 20">
<title>eye</title>
<path d="M7.5 10c0-1.405 1.095-2.5 2.5-2.5 0.345 0 0.625-0.28 0.625-0.625s-0.28-0.625-0.625-0.625c-2.095 0-3.75 1.655-3.75 3.75s1.655 3.75 3.75 3.75c2.095 0 3.75-1.655 3.75-3.75 0-0.611-0.155-1.135-0.363-1.621-0.136-0.317-0.503-0.464-0.821-0.328s-0.464 0.503-0.328 0.821c0.167 0.389 0.262 0.74 0.262 1.129 0 1.405-1.095 2.5-2.5 2.5s-2.5-1.095-2.5-2.5z"></path>
<path d="M10.002 8.688h-0.002c-0.72 0-1.313 0.592-1.313 1.313s0.592 1.313 1.313 1.313c0.72 0 1.313-0.592 1.313-1.313s-0.591-1.311-1.311-1.313z"></path>
<path d="M18.63 9.632l-0.001-0.002-0.003-0.004-0.010-0.013c-0.008-0.011-0.020-0.027-0.035-0.047-0.030-0.040-0.074-0.097-0.131-0.169-0.114-0.144-0.28-0.348-0.494-0.591-0.426-0.485-1.042-1.133-1.806-1.783-1.509-1.283-3.683-2.649-6.15-2.649s-4.641 1.366-6.15 2.649c-0.764 0.649-1.381 1.297-1.806 1.783-0.213 0.243-0.38 0.447-0.494 0.591-0.057 0.072-0.101 0.129-0.131 0.169-0.015 0.020-0.027 0.036-0.035 0.047l-0.010 0.013-0.003 0.004-0.001 0.001c0 0-0.001 0.001 0.505 0.368l-0.505-0.368c-0.159 0.219-0.159 0.516 0 0.735l0.002 0.002 0.003 0.004 0.010 0.013c0.008 0.011 0.020 0.027 0.035 0.047 0.030 0.040 0.074 0.097 0.131 0.169 0.114 0.144 0.28 0.348 0.494 0.591 0.426 0.485 1.042 1.133 1.806 1.783 1.509 1.283 3.683 2.649 6.15 2.649s4.641-1.366 6.15-2.649c0.764-0.649 1.381-1.297 1.806-1.783 0.213-0.243 0.38-0.447 0.494-0.591 0.057-0.072 0.101-0.129 0.131-0.169 0.015-0.020 0.027-0.036 0.035-0.047l0.010-0.013 0.003-0.004 0.001-0.001c0 0 0.001-0.001-0.505-0.368l0.505 0.368c0.159-0.219 0.159-0.517-0-0.736zM2.983 10.369c-0.122-0.139-0.227-0.264-0.314-0.369 0.087-0.105 0.192-0.23 0.314-0.369 0.397-0.452 0.97-1.054 1.676-1.655 1.432-1.217 3.32-2.351 5.34-2.351s3.909 1.134 5.34 2.351c0.706 0.601 1.28 1.203 1.676 1.655 0.122 0.139 0.227 0.264 0.314 0.369-0.087 0.105-0.192 0.23-0.314 0.369-0.397 0.452-0.97 1.054-1.676 1.655-1.432 1.217-3.32 2.351-5.34 2.351s-3.909-1.134-5.34-2.351c-0.706-0.601-1.28-1.203-1.676-1.655zM18.125 10c0.505-0.368 0.505-0.368 0.505-0.368l-0.505 0.368z"></path>
</svg>
