<!-- Generated by IcoMoon.io -->
<svg version="1.1" xmlns="http://www.w3.org/2000/svg" width="32" height="32" viewBox="0 0 32 32">
<title>fence</title>
<path d="M5.875 2l3.875 4v5.414h2.25v-5.414l3.875-4 3.875 4v5.414h2.25v-5.414l3.875-4 3.875 4v24.414h-7.75v-5h-2.25v5h-7.75v-5h-2.25v5h-7.75v-24.414l3.875-4zM22 13.414h-2.25v10h2.25v-10zM9.75 23.414h2.25v-10h-2.25v10zM3.938 6.828v21.586h3.875v-21.586l-1.938-2-1.938 2zM13.938 6.828v21.586h3.875v-21.586l-1.938-2-1.938 2zM23.938 28.414h3.875v-21.586l-1.938-2-1.938 2v21.586z"></path>
</svg>
