<!-- Generated by IcoMoon.io -->
<svg version="1.1" xmlns="http://www.w3.org/2000/svg" width="20" height="20" viewBox="0 0 20 20">
<title>fence</title>
<path d="M3.672 1.25l2.422 2.5v3.384h1.406v-3.384l2.422-2.5 2.422 2.5v3.384h1.406v-3.384l2.422-2.5 2.422 2.5v15.259h-4.844v-3.125h-1.406v3.125h-4.844v-3.125h-1.406v3.125h-4.844v-15.259l2.422-2.5zM13.75 8.384h-1.406v6.25h1.406v-6.25zM6.094 14.634h1.406v-6.25h-1.406v6.25zM2.461 4.268v13.491h2.422v-13.491l-1.211-1.25-1.211 1.25zM8.711 4.268v13.491h2.422v-13.491l-1.211-1.25-1.211 1.25zM14.961 17.759h2.422v-13.491l-1.211-1.25-1.211 1.25v13.491z"></path>
</svg>
