<!-- Generated by IcoMoon.io -->
<svg version="1.1" xmlns="http://www.w3.org/2000/svg" width="32" height="32" viewBox="0 0 32 32">
<title>ferry</title>
<path d="M17 3c-0.552 0-1 0.448-1 1v3h-2c-0.552 0-1 0.448-1 1v4h-1.219l-2-8h-4.781v8h-0.5c-0.552 0-1 0.448-1 1v3h-0.5c-0.552 0-1 0.448-1 1v6c0 3.314 2.686 6 6 6h16c0.392 0 0.748-0.229 0.91-0.586l5-11c0.141-0.309 0.114-0.669-0.070-0.955s-0.501-0.459-0.841-0.459h-3.882l-4.224-8.447c-0.169-0.339-0.516-0.553-0.894-0.553h-2v-3c0-0.552-0.448-1-1-1zM15 13v-4h4.382l0.5 1h-1.882c-0.552 0-1 0.448-1 1v3c0 0.552 0.448 1 1 1h4.382l0.5 1h-17.382v-2h8.5c0.552 0 1-0.448 1-1zM21.382 13h-2.382v-1h1.882l0.5 1zM8.969 9l0.75 3h-2.719v-3h1.969zM8.469 7h-1.469v-1h1.219l0.25 1zM4 22h13.5c0.552 0 1-0.448 1-1s-0.448-1-1-1h-13.5v-2h23.447l-4.091 9h-15.356c-2.209 0-4-1.791-4-4v-1z"></path>
</svg>
