<!-- Generated by IcoMoon.io -->
<svg version="1.1" xmlns="http://www.w3.org/2000/svg" width="20" height="20" viewBox="0 0 20 20">
<title>ferry</title>
<path d="M10.625 1.875c-0.345 0-0.625 0.28-0.625 0.625v1.875h-1.25c-0.345 0-0.625 0.28-0.625 0.625v2.5h-0.762l-1.25-5h-2.988v5h-0.313c-0.345 0-0.625 0.28-0.625 0.625v1.875h-0.313c-0.345 0-0.625 0.28-0.625 0.625v3.75c0 2.071 1.679 3.75 3.75 3.75h10c0.245 0 0.468-0.143 0.569-0.366l3.125-6.875c0.088-0.193 0.072-0.418-0.043-0.597s-0.313-0.287-0.526-0.287h-2.426l-2.64-5.28c-0.106-0.212-0.322-0.345-0.559-0.345h-1.25v-1.875c0-0.345-0.28-0.625-0.625-0.625zM9.375 8.125v-2.5h2.739l0.313 0.625h-1.176c-0.345 0-0.625 0.28-0.625 0.625v1.875c0 0.345 0.28 0.625 0.625 0.625h2.739l0.313 0.625h-10.864v-1.25h5.313c0.345 0 0.625-0.28 0.625-0.625zM13.364 8.125h-1.489v-0.625h1.176l0.313 0.625zM5.606 5.625l0.469 1.875h-1.7v-1.875h1.231zM5.293 4.375h-0.918v-0.625h0.762l0.156 0.625zM2.5 13.75h8.438c0.345 0 0.625-0.28 0.625-0.625s-0.28-0.625-0.625-0.625h-8.438v-1.25h14.654l-2.557 5.625h-9.598c-1.381 0-2.5-1.119-2.5-2.5v-0.625z"></path>
</svg>
