<!-- Generated by IcoMoon.io -->
<svg version="1.1" xmlns="http://www.w3.org/2000/svg" width="20" height="20" viewBox="0 0 20 20">
<title>file-up</title>
<path d="M4.375 3.75v12.5c0 0.717 0.533 1.25 1.25 1.25h3.75c0.345 0 0.625 0.28 0.625 0.625s-0.28 0.625-0.625 0.625h-3.75c-1.408 0-2.5-1.092-2.5-2.5v-12.5c0-1.408 1.092-2.5 2.5-2.5h6.509l4.741 4.741v2.134c0 0.345-0.28 0.625-0.625 0.625s-0.625-0.28-0.625-0.625v-1.25h-4.375v-4.375h-5.625c-0.717 0-1.25 0.533-1.25 1.25zM14.741 5.625l-2.241-2.241v2.241h2.241z"></path>
<path d="M14.375 11.616l2.317 2.317c0.244 0.244 0.244 0.64 0 0.884s-0.64 0.244-0.884 0l-0.808-0.808v2.241c0 0.345-0.28 0.625-0.625 0.625s-0.625-0.28-0.625-0.625v-2.241l-0.808 0.808c-0.244 0.244-0.64 0.244-0.884 0s-0.244-0.64 0-0.884l2.317-2.317z"></path>
<path d="M9.375 14.375c0-2.783 2.217-5 5-5s5 2.217 5 5c0 2.783-2.217 5-5 5s-5-2.217-5-5zM18.125 14.375c0-2.092-1.658-3.75-3.75-3.75s-3.75 1.658-3.75 3.75c0 2.092 1.658 3.75 3.75 3.75s3.75-1.658 3.75-3.75z"></path>
</svg>
