<!-- Generated by IcoMoon.io -->
<svg version="1.1" xmlns="http://www.w3.org/2000/svg" width="20" height="20" viewBox="0 0 20 20">
<title>file-text</title>
<path d="M6.875 8.75c-0.345 0-0.625 0.28-0.625 0.625s0.28 0.625 0.625 0.625h6.25c0.345 0 0.625-0.28 0.625-0.625s-0.28-0.625-0.625-0.625h-6.25z"></path>
<path d="M6.25 11.875c0-0.345 0.28-0.625 0.625-0.625h6.25c0.345 0 0.625 0.28 0.625 0.625s-0.28 0.625-0.625 0.625h-6.25c-0.345 0-0.625-0.28-0.625-0.625z"></path>
<path d="M6.25 14.375c0-0.345 0.28-0.625 0.625-0.625h2.5c0.345 0 0.625 0.28 0.625 0.625s-0.28 0.625-0.625 0.625h-2.5c-0.345 0-0.625-0.28-0.625-0.625z"></path>
<path d="M3.125 3.75c0-1.408 1.092-2.5 2.5-2.5h6.509l4.741 4.741v10.259c0 1.408-1.092 2.5-2.5 2.5h-8.75c-1.408 0-2.5-1.092-2.5-2.5v-12.5zM5.625 2.5c-0.717 0-1.25 0.533-1.25 1.25v12.5c0 0.717 0.533 1.25 1.25 1.25h8.75c0.717 0 1.25-0.533 1.25-1.25v-9.375h-4.375v-4.375h-5.625zM12.5 3.384v2.241h2.241l-2.241-2.241z"></path>
</svg>
