<!-- Generated by IcoMoon.io -->
<svg version="1.1" xmlns="http://www.w3.org/2000/svg" width="20" height="20" viewBox="0 0 20 20">
<title>files-down</title>
<path d="M7.655 3.125h1.354l4.558 4.558c0.244 0.244 0.244 0.64 0 0.884-0.162 0.162-0.391 0.217-0.598 0.163-0.050 0.013-0.102 0.020-0.156 0.020h-4.688v-4.375h-4.375c-0.717 0-1.25 0.533-1.25 1.25v10.625c0 0.717 0.533 1.25 1.25 1.25h5.625c0.345 0 0.625 0.28 0.625 0.625s-0.28 0.625-0.625 0.625h-5.625c-1.408 0-2.5-1.092-2.5-2.5v-10.625c0-1.408 1.092-2.5 2.5-2.5h2.575c0.269-1.093 1.234-1.875 2.425-1.875h5.259l4.741 4.741v3.384c0 0.345-0.28 0.625-0.625 0.625s-0.625-0.28-0.625-0.625v-2.5h-4.375v-4.375h-4.375c-0.486 0-0.887 0.244-1.095 0.625zM9.375 7.5h2.241l-2.241-2.241v2.241zM14.375 3.384v2.241h2.241l-2.241-2.241z"></path>
<path d="M12.058 13.933c0.244-0.244 0.64-0.244 0.884 0l0.808 0.808v-2.241c0-0.345 0.28-0.625 0.625-0.625s0.625 0.28 0.625 0.625v2.241l0.808-0.808c0.244-0.244 0.64-0.244 0.884 0s0.244 0.64 0 0.884l-2.317 2.317-2.317-2.317c-0.244-0.244-0.244-0.64 0-0.884z"></path>
<path d="M9.375 14.375c0-2.761 2.239-5 5-5s5 2.239 5 5c0 2.761-2.239 5-5 5s-5-2.239-5-5zM14.375 10.625c-2.071 0-3.75 1.679-3.75 3.75s1.679 3.75 3.75 3.75c2.071 0 3.75-1.679 3.75-3.75s-1.679-3.75-3.75-3.75z"></path>
</svg>
