<!-- Generated by IcoMoon.io -->
<svg version="1.1" xmlns="http://www.w3.org/2000/svg" width="20" height="20" viewBox="0 0 20 20">
<title>file-code</title>
<path d="M4.336 3.75c0-0.717 0.516-1.25 1.211-1.25h5.703v4.375h3.984v9.375c0 0.717-0.516 1.25-1.211 1.25h-8.477c-0.695 0-1.211-0.533-1.211-1.25v-12.5zM16.094 5.628v-0.003h-0.003l-4.238-4.375h-6.306c-1.364 0-2.422 1.092-2.422 2.5v12.5c0 1.408 1.058 2.5 2.422 2.5h8.477c1.364 0 2.422-1.092 2.422-2.5v-10.259l-0.352-0.363zM12.461 3.646l1.917 1.979h-1.917v-1.979zM8.369 8.75c-0.15 0-0.303 0.158-0.303 0.313v1.875c0 0.354-0.122 0.685-0.323 0.951 0.19 0.261 0.304 0.582 0.304 0.924v1.875c0 0.155 0.153 0.313 0.303 0.313h0.908v1.25h-0.908c-0.819 0-1.514-0.717-1.514-1.563v-1.875c0-0.155-0.153-0.313-0.303-0.313h-0.908v-1.25h0.928c0.15 0 0.303-0.158 0.303-0.313v-1.875c0-0.845 0.695-1.563 1.514-1.563h0.908v1.25h-0.908zM10.625 7.5h0.908c0.819 0 1.514 0.717 1.514 1.563v1.875c0 0.155 0.153 0.313 0.303 0.313h0.908v1.25h-0.908c-0.15 0-0.303 0.158-0.303 0.313v1.875c0 0.845-0.695 1.563-1.514 1.563h-0.908v-1.25h0.908c0.15 0 0.303-0.158 0.303-0.313v-1.875c0-0.348 0.118-0.674 0.313-0.938-0.196-0.263-0.313-0.59-0.313-0.938v-1.875c0-0.155-0.153-0.313-0.303-0.313h-0.908v-1.25z"></path>
</svg>
