<!-- Generated by IcoMoon.io -->
<svg version="1.1" xmlns="http://www.w3.org/2000/svg" width="32" height="32" viewBox="0 0 32 32">
<title>file-down</title>
<path d="M9 4h9v7h7v2c0 0.552 0.448 1 1 1s1-0.448 1-1v-3.414l-7.586-7.586h-10.414c-2.252 0-4 1.748-4 4v20c0 2.252 1.748 4 4 4h6c0.552 0 1-0.448 1-1s-0.448-1-1-1h-6c-1.148 0-2-0.852-2-2v-20c0-1.148 0.852-2 2-2zM20 5.414l3.586 3.586h-3.586v-3.586z"></path>
<path d="M22 23.586l-1.293-1.293c-0.39-0.39-1.024-0.39-1.414 0s-0.39 1.024 0 1.414l3.707 3.707 3.707-3.707c0.39-0.39 0.39-1.024 0-1.414s-1.024-0.39-1.414 0l-1.293 1.293v-3.586c0-0.552-0.448-1-1-1s-1 0.448-1 1v3.586z"></path>
<path d="M23 15c-4.418 0-8 3.582-8 8s3.582 8 8 8c4.418 0 8-3.582 8-8s-3.582-8-8-8zM17 23c0-3.314 2.686-6 6-6s6 2.686 6 6c0 3.314-2.686 6-6 6s-6-2.686-6-6z"></path>
</svg>
