<!-- Generated by IcoMoon.io -->
<svg version="1.1" xmlns="http://www.w3.org/2000/svg" width="20" height="20" viewBox="0 0 20 20">
<title>file-archive</title>
<path d="M5.547 2.5c-0.695 0-1.211 0.533-1.211 1.25v12.5c0 0.717 0.516 1.25 1.211 1.25h8.477c0.695 0 1.211-0.533 1.211-1.25v-9.375h-3.418c0 0.345-0.271 0.625-0.605 0.625h-0.605c-0.334 0-0.606-0.28-0.606-0.625s0.271-0.625 0.606-0.625h0.605c0.013 0 0.026 0 0.039 0.001v-1.253c-0.013 0.001-0.026 0.001-0.039 0.001h-0.605c-0.334 0-0.606-0.28-0.606-0.625s0.271-0.625 0.606-0.625h0.605c0.013 0 0.026 0 0.039 0.001v-1.251h-1.914c0.334 0 0.605 0.28 0.605 0.625s-0.271 0.625-0.605 0.625h-0.605c-0.334 0-0.606-0.28-0.606-0.625s0.271-0.625 0.606-0.625h-3.184zM16.094 5.625v0.003l0.352 0.363v10.259c0 1.408-1.058 2.5-2.422 2.5h-8.477c-1.364 0-2.422-1.092-2.422-2.5v-12.5c0-1.408 1.058-2.5 2.422-2.5h6.306l0.605 0.625h0.003v0.003l3.633 3.747zM14.378 5.625l-1.917-1.979v1.979h1.917zM9.922 11.25c0.448-0.42 0.448-0.421 0.448-0.42l-0.448 0.42zM9.474 10.83l-0.007 0.008-0.017 0.019c-0.015 0.017-0.035 0.041-0.062 0.072-0.052 0.062-0.126 0.15-0.215 0.259-0.176 0.217-0.413 0.521-0.651 0.86-0.236 0.337-0.483 0.723-0.673 1.105-0.18 0.363-0.351 0.802-0.351 1.222 0 1.408 1.058 2.5 2.422 2.5s2.422-1.092 2.422-2.5c0-0.42-0.17-0.858-0.351-1.222-0.19-0.382-0.436-0.768-0.672-1.105-0.238-0.34-0.474-0.643-0.651-0.86-0.088-0.109-0.162-0.197-0.215-0.259-0.026-0.031-0.047-0.055-0.062-0.072l-0.472-0.536-0.448 0.509zM9.922 11.25c-0.448-0.42-0.448-0.421-0.448-0.42l0.448 0.42zM9.504 12.78c0.144-0.206 0.288-0.398 0.418-0.563 0.129 0.165 0.274 0.358 0.418 0.563 0.218 0.311 0.426 0.64 0.576 0.943 0.16 0.322 0.217 0.54 0.217 0.651 0 0.717-0.516 1.25-1.211 1.25s-1.211-0.533-1.211-1.25c0-0.111 0.057-0.329 0.217-0.651 0.151-0.304 0.358-0.633 0.576-0.943zM8.125 5.625c0-0.345 0.271-0.625 0.606-0.625h0.605c0.334 0 0.605 0.28 0.605 0.625s-0.271 0.625-0.605 0.625h-0.605c-0.334 0-0.606-0.28-0.606-0.625zM8.125 8.125c0-0.345 0.271-0.625 0.606-0.625h0.605c0.334 0 0.605 0.28 0.605 0.625s-0.271 0.625-0.605 0.625h-0.605c-0.334 0-0.606-0.28-0.606-0.625zM10.606 8.75c-0.334 0-0.606 0.28-0.606 0.625s0.271 0.625 0.606 0.625h0.605c0.334 0 0.605-0.28 0.605-0.625s-0.271-0.625-0.605-0.625h-0.605z"></path>
</svg>
