<!-- Generated by IcoMoon.io -->
<svg version="1.1" xmlns="http://www.w3.org/2000/svg" width="32" height="32" viewBox="0 0 32 32">
<title>file-hash</title>
<path d="M10 21c0-0.552 0.448-1 1-1h1.78l0.4-2h-2.18c-0.552 0-1-0.448-1-1s0.448-1 1-1h2.58l0.439-2.196c0.108-0.542 0.635-0.893 1.177-0.784s0.893 0.635 0.784 1.177l-0.361 1.804h1.96l0.439-2.196c0.108-0.542 0.635-0.893 1.177-0.784s0.893 0.635 0.785 1.177l-0.361 1.804h1.38c0.552 0 1 0.448 1 1s-0.448 1-1 1h-1.78l-0.4 2h2.18c0.552 0 1 0.448 1 1s-0.448 1-1 1h-2.58l-0.439 2.196c-0.108 0.542-0.635 0.893-1.177 0.785s-0.893-0.635-0.785-1.177l0.361-1.804h-1.96l-0.439 2.196c-0.108 0.542-0.635 0.893-1.177 0.785s-0.893-0.635-0.784-1.177l0.361-1.804h-1.38c-0.552 0-1-0.448-1-1zM16.78 20l0.4-2h-1.96l-0.4 2h1.96z"></path>
<path d="M9 2c-2.252 0-4 1.748-4 4v20c0 2.252 1.748 4 4 4h14c2.252 0 4-1.748 4-4v-16.414l-7.586-7.586h-10.414zM7 6c0-1.148 0.852-2 2-2h9v7h7v15c0 1.148-0.852 2-2 2h-14c-1.148 0-2-0.852-2-2v-20zM23.586 9h-3.586v-3.586l3.586 3.586z"></path>
</svg>
