<!-- Generated by IcoMoon.io -->
<svg version="1.1" xmlns="http://www.w3.org/2000/svg" width="32" height="32" viewBox="0 0 32 32">
<title>file-sql</title>
<path d="M16 11.69c1.734 0 3.346 0.233 4.559 0.637 0.601 0.2 1.16 0.461 1.589 0.799 0.244 0.192 0.493 0.45 0.659 0.772 0.122 0.166 0.194 0.37 0.194 0.591v8.4c0 0.223-0.073 0.429-0.197 0.596-0.167 0.322-0.417 0.577-0.659 0.767-0.429 0.337-0.988 0.597-1.59 0.798-1.214 0.405-2.825 0.639-4.554 0.639s-3.34-0.234-4.554-0.639c-0.602-0.201-1.161-0.461-1.59-0.798-0.242-0.19-0.493-0.446-0.659-0.767-0.124-0.166-0.197-0.373-0.197-0.596v-8.4c0-0.221 0.072-0.426 0.194-0.591 0.166-0.323 0.415-0.58 0.659-0.772 0.429-0.338 0.987-0.599 1.589-0.799 1.213-0.404 2.825-0.637 4.559-0.637zM12.074 14.225c-0.477 0.159-0.794 0.326-0.974 0.466 0.18 0.139 0.498 0.307 0.974 0.466 0.959 0.32 2.347 0.534 3.926 0.534s2.968-0.215 3.926-0.534c0.477-0.159 0.794-0.326 0.974-0.466-0.18-0.139-0.497-0.307-0.974-0.466-0.959-0.32-2.347-0.534-3.926-0.534s-2.967 0.215-3.926 0.534zM21 18.599v-1.708c-0.143 0.058-0.291 0.112-0.441 0.162-1.213 0.404-2.825 0.637-4.559 0.637s-3.346-0.233-4.559-0.637c-0.15-0.050-0.298-0.104-0.441-0.162v1.708c0.018 0.019 0.047 0.046 0.091 0.080 0.18 0.141 0.502 0.312 0.988 0.474 0.961 0.32 2.35 0.536 3.921 0.536s2.96-0.216 3.921-0.536c0.486-0.162 0.808-0.333 0.988-0.474 0.044-0.035 0.073-0.061 0.091-0.080zM11 20.887v1.712c0.018 0.019 0.047 0.046 0.091 0.080 0.18 0.141 0.502 0.312 0.988 0.474 0.961 0.32 2.35 0.536 3.921 0.536s2.96-0.216 3.921-0.536c0.486-0.162 0.808-0.333 0.988-0.474 0.044-0.035 0.073-0.061 0.091-0.080v-1.712c-0.145 0.059-0.294 0.113-0.446 0.164-1.214 0.405-2.825 0.639-4.554 0.639s-3.34-0.234-4.554-0.639c-0.152-0.051-0.301-0.105-0.446-0.164z"></path>
<path d="M5 5.69c0-2.252 1.748-4 4-4h10.414l7.586 7.586v16.414c0 2.252-1.748 4-4 4h-14c-2.252 0-4-1.748-4-4v-20zM9 3.69c-1.148 0-2 0.852-2 2v20c0 1.148 0.852 2 2 2h14c1.148 0 2-0.852 2-2v-15h-7v-7h-9zM20 5.104v3.586h3.586l-3.586-3.586z"></path>
</svg>
