<!-- Generated by IcoMoon.io -->
<svg version="1.1" xmlns="http://www.w3.org/2000/svg" width="32" height="32" viewBox="0 0 32 32">
<title>files-down</title>
<path d="M12.248 5h2.167l7.293 7.293c0.39 0.39 0.39 1.024 0 1.414-0.259 0.259-0.626 0.347-0.957 0.261-0.080 0.021-0.164 0.031-0.25 0.031h-7.5v-7h-7c-1.148 0-2 0.852-2 2v17c0 1.148 0.852 2 2 2h9c0.552 0 1 0.448 1 1s-0.448 1-1 1h-9c-2.252 0-4-1.748-4-4v-17c0-2.252 1.748-4 4-4h4.12c0.43-1.749 1.975-3 3.88-3h8.414l7.586 7.586v5.414c0 0.552-0.448 1-1 1s-1-0.448-1-1v-4h-7v-7h-7c-0.777 0-1.419 0.391-1.752 1zM15 12h3.586l-3.586-3.586v3.586zM23 5.414v3.586h3.586l-3.586-3.586z"></path>
<path d="M19.293 22.293c0.39-0.39 1.024-0.39 1.414 0l1.293 1.293v-3.586c0-0.552 0.448-1 1-1s1 0.448 1 1v3.586l1.293-1.293c0.39-0.39 1.024-0.39 1.414 0s0.39 1.024 0 1.414l-3.707 3.707-3.707-3.707c-0.39-0.39-0.39-1.024 0-1.414z"></path>
<path d="M15 23c0-4.418 3.582-8 8-8s8 3.582 8 8c0 4.418-3.582 8-8 8s-8-3.582-8-8zM23 17c-3.314 0-6 2.686-6 6s2.686 6 6 6c3.314 0 6-2.686 6-6s-2.686-6-6-6z"></path>
</svg>
