<!-- Generated by IcoMoon.io -->
<svg version="1.1" xmlns="http://www.w3.org/2000/svg" width="20" height="20" viewBox="0 0 20 20">
<title>files-ok</title>
<path d="M7.655 3.125h1.354l4.558 4.558c0.244 0.244 0.244 0.64 0 0.884-0.162 0.162-0.391 0.217-0.598 0.163-0.050 0.013-0.102 0.020-0.156 0.020h-4.688v-4.375h-4.375c-0.717 0-1.25 0.533-1.25 1.25v10.625c0 0.717 0.533 1.25 1.25 1.25h5.625c0.345 0 0.625 0.28 0.625 0.625s-0.28 0.625-0.625 0.625h-5.625c-1.408 0-2.5-1.092-2.5-2.5v-10.625c0-1.408 1.092-2.5 2.5-2.5h2.575c0.269-1.093 1.234-1.875 2.425-1.875h5.259l4.741 4.741v3.384c0 0.345-0.28 0.625-0.625 0.625s-0.625-0.28-0.625-0.625v-2.5h-4.375v-4.375h-4.375c-0.486 0-0.887 0.244-1.095 0.625zM9.375 7.5h2.241l-2.241-2.241v2.241zM14.375 3.384v2.241h2.241l-2.241-2.241z"></path>
<path d="M16.692 13.567c0.244-0.244 0.244-0.64 0-0.884s-0.64-0.244-0.884 0l-2.058 2.058-0.808-0.808c-0.244-0.244-0.64-0.244-0.884 0s-0.244 0.64 0 0.884l1.692 1.692 2.942-2.942z"></path>
<path d="M14.375 9.375c-2.761 0-5 2.239-5 5s2.239 5 5 5c2.761 0 5-2.239 5-5s-2.239-5-5-5zM10.625 14.375c0-2.071 1.679-3.75 3.75-3.75s3.75 1.679 3.75 3.75c0 2.071-1.679 3.75-3.75 3.75s-3.75-1.679-3.75-3.75z"></path>
</svg>
