<!-- Generated by IcoMoon.io -->
<svg version="1.1" xmlns="http://www.w3.org/2000/svg" width="20" height="20" viewBox="0 0 20 20">
<title>files</title>
<path d="M8.75 1.25c-1.191 0-2.156 0.782-2.425 1.875h-2.575c-1.408 0-2.5 1.092-2.5 2.5v10.625c0 1.408 1.092 2.5 2.5 2.5h7.5c1.191 0 2.156-0.782 2.425-1.875h2.575c1.408 0 2.5-1.092 2.5-2.5v-8.384l-4.741-4.741h-5.259zM8.75 2.5h4.375v4.375h4.375v7.5c0 0.717-0.533 1.25-1.25 1.25h-2.5v-7.759l-4.741-4.741h-1.354c0.208-0.381 0.609-0.625 1.095-0.625zM14.375 3.384l2.241 2.241h-2.241v-2.241zM2.5 5.625c0-0.717 0.533-1.25 1.25-1.25h4.375v4.375h4.375v7.5c0 0.717-0.533 1.25-1.25 1.25h-7.5c-0.717 0-1.25-0.533-1.25-1.25v-10.625zM11.616 7.5h-2.241v-2.241l2.241 2.241z"></path>
</svg>
