<!-- Generated by IcoMoon.io -->
<svg version="1.1" xmlns="http://www.w3.org/2000/svg" width="32" height="32" viewBox="0 0 32 32">
<title>file-up</title>
<path d="M7 6v20c0 1.148 0.852 2 2 2h6c0.552 0 1 0.448 1 1s-0.448 1-1 1h-6c-2.252 0-4-1.748-4-4v-20c0-2.252 1.748-4 4-4h10.414l7.586 7.586v3.414c0 0.552-0.448 1-1 1s-1-0.448-1-1v-2h-7v-7h-9c-1.148 0-2 0.852-2 2zM23.586 9l-3.586-3.586v3.586h3.586z"></path>
<path d="M23 18.586l3.707 3.707c0.39 0.39 0.39 1.024 0 1.414s-1.024 0.391-1.414 0l-1.293-1.293v3.586c0 0.552-0.448 1-1 1s-1-0.448-1-1v-3.586l-1.293 1.293c-0.39 0.391-1.024 0.391-1.414 0s-0.39-1.024 0-1.414l3.707-3.707z"></path>
<path d="M15 23c0-4.452 3.548-8 8-8s8 3.548 8 8c0 4.452-3.548 8-8 8s-8-3.548-8-8zM29 23c0-3.348-2.652-6-6-6s-6 2.652-6 6c0 3.348 2.652 6 6 6s6-2.652 6-6z"></path>
</svg>
