<!-- Generated by IcoMoon.io -->
<svg version="1.1" xmlns="http://www.w3.org/2000/svg" width="32" height="32" viewBox="0 0 32 32">
<title>file-add</title>
<path d="M8.875 4c-1.112 0-1.938 0.852-1.938 2v20c0 1.148 0.826 2 1.938 2h5.813c0.535 0 0.969 0.448 0.969 1s-0.434 1-0.969 1h-5.813c-2.182 0-3.875-1.748-3.875-4v-20c0-2.252 1.693-4 3.875-4h10.089l0.969 1h0.005v0.005l6.375 6.581v3.414c0 0.552-0.434 1-0.969 1s-0.969-0.448-0.969-1v-2h-6.375v-7h-9.125zM19.938 5.834v3.166h3.067l-3.067-3.166zM22.75 17c-3.21 0-5.813 2.686-5.813 6s2.602 6 5.813 6c3.21 0 5.813-2.686 5.813-6s-2.602-6-5.813-6zM15 23c0-4.418 3.47-8 7.75-8s7.75 3.582 7.75 8c0 4.418-3.47 8-7.75 8s-7.75-3.582-7.75-8zM19 23c0-0.552 0.434-1 0.969-1h2.031v-2c0-0.552 0.434-1 0.969-1s0.969 0.448 0.969 1v2h1.844c0.535 0 0.969 0.448 0.969 1s-0.434 1-0.969 1h-1.844v2c0 0.552-0.434 1-0.969 1s-0.969-0.448-0.969-1v-2h-2.031c-0.535 0-0.969-0.448-0.969-1z"></path>
</svg>
