<!-- Generated by IcoMoon.io -->
<svg version="1.1" xmlns="http://www.w3.org/2000/svg" width="20" height="20" viewBox="0 0 20 20">
<title>file-add</title>
<path d="M5.547 2.5c-0.695 0-1.211 0.533-1.211 1.25v12.5c0 0.717 0.516 1.25 1.211 1.25h3.633c0.334 0 0.605 0.28 0.605 0.625s-0.271 0.625-0.605 0.625h-3.633c-1.364 0-2.422-1.092-2.422-2.5v-12.5c0-1.408 1.058-2.5 2.422-2.5h6.306l0.605 0.625h0.003v0.003l3.984 4.113v2.134c0 0.345-0.271 0.625-0.605 0.625s-0.606-0.28-0.606-0.625v-1.25h-3.984v-4.375h-5.703zM12.461 3.646v1.979h1.917l-1.917-1.979zM14.219 10.625c-2.006 0-3.633 1.679-3.633 3.75s1.626 3.75 3.633 3.75c2.006 0 3.633-1.679 3.633-3.75s-1.626-3.75-3.633-3.75zM9.375 14.375c0-2.761 2.169-5 4.844-5s4.844 2.239 4.844 5c0 2.761-2.169 5-4.844 5s-4.844-2.239-4.844-5zM11.875 14.375c0-0.345 0.271-0.625 0.606-0.625h1.269v-1.25c0-0.345 0.271-0.625 0.606-0.625s0.605 0.28 0.605 0.625v1.25h1.152c0.334 0 0.606 0.28 0.606 0.625s-0.271 0.625-0.606 0.625h-1.152v1.25c0 0.345-0.271 0.625-0.605 0.625s-0.606-0.28-0.606-0.625v-1.25h-1.269c-0.334 0-0.606-0.28-0.606-0.625z"></path>
</svg>
