<!-- Generated by IcoMoon.io -->
<svg version="1.1" xmlns="http://www.w3.org/2000/svg" width="20" height="20" viewBox="0 0 20 20">
<title>file-ok</title>
<path d="M4.375 3.75v12.5c0 0.717 0.533 1.25 1.25 1.25h3.75c0.345 0 0.625 0.28 0.625 0.625s-0.28 0.625-0.625 0.625h-3.75c-1.408 0-2.5-1.092-2.5-2.5v-12.5c0-1.408 1.092-2.5 2.5-2.5h6.509l4.741 4.741v2.134c0 0.345-0.28 0.625-0.625 0.625s-0.625-0.28-0.625-0.625v-1.25h-4.375v-4.375h-5.625c-0.717 0-1.25 0.533-1.25 1.25zM14.741 5.625l-2.241-2.241v2.241h2.241z"></path>
<path d="M16.692 13.567c0.244-0.244 0.244-0.64 0-0.884s-0.64-0.244-0.884 0l-2.058 2.058-0.808-0.808c-0.244-0.244-0.64-0.244-0.884 0s-0.244 0.64 0 0.884l1.692 1.692 2.942-2.942z"></path>
<path d="M9.375 14.375c0-2.761 2.239-5 5-5s5 2.239 5 5c0 2.761-2.239 5-5 5s-5-2.239-5-5zM14.375 10.625c-2.071 0-3.75 1.679-3.75 3.75s1.679 3.75 3.75 3.75c2.071 0 3.75-1.679 3.75-3.75s-1.679-3.75-3.75-3.75z"></path>
</svg>
