<!-- Generated by IcoMoon.io -->
<svg version="1.1" xmlns="http://www.w3.org/2000/svg" width="20" height="20" viewBox="0 0 20 20">
<title>file-signed</title>
<path d="M6.25 11.25c0-0.345 0.28-0.625 0.625-0.625h6.25c0.345 0 0.625 0.28 0.625 0.625s-0.28 0.625-0.625 0.625h-6.25c-0.345 0-0.625-0.28-0.625-0.625z"></path>
<path d="M6.875 8.125c-0.345 0-0.625 0.28-0.625 0.625s0.28 0.625 0.625 0.625h6.25c0.345 0 0.625-0.28 0.625-0.625s-0.28-0.625-0.625-0.625h-6.25z"></path>
<path d="M6.25 6.25c0-0.345 0.28-0.625 0.625-0.625h1.875c0.345 0 0.625 0.28 0.625 0.625s-0.28 0.625-0.625 0.625h-1.875c-0.345 0-0.625-0.28-0.625-0.625z"></path>
<path d="M10.099 13.902c0.205-0.019 0.296 0.002 0.387 0.056 0.116 0.068 0.178 0.177 0.369 0.522 0.21 0.38 0.431 0.713 0.696 0.904 0.15 0.108 0.351 0.198 0.59 0.187 0.235-0.011 0.417-0.115 0.538-0.212 0.199-0.159 0.362-0.408 0.474-0.578l0.032-0.049c0.131-0.2 0.258-0.392 0.415-0.576 0.224-0.262 0.193-0.657-0.069-0.881s-0.657-0.193-0.881 0.069c-0.21 0.245-0.375 0.498-0.501 0.688l-0.023 0.035-0.034 0.052c-0.043-0.067-0.090-0.148-0.143-0.244-0.012-0.022-0.026-0.047-0.040-0.073-0.135-0.251-0.359-0.667-0.788-0.92-0.399-0.235-0.785-0.258-1.141-0.224-0.267 0.025-0.586 0.075-0.89 0.189-0.284 0.107-0.658 0.311-0.848 0.415l-0.005 0.003c-0.381 0.208-0.67 0.428-0.93 0.634-0.036 0.028-0.071 0.057-0.106 0.084-0.219 0.174-0.417 0.332-0.666 0.492-0.29 0.187-0.374 0.574-0.187 0.864s0.574 0.374 0.864 0.187c0.304-0.196 0.553-0.394 0.771-0.568l0.001-0.001c0.033-0.027 0.066-0.052 0.098-0.078 0.245-0.194 0.468-0.361 0.754-0.517 0.213-0.116 0.507-0.275 0.694-0.345 0.154-0.058 0.349-0.094 0.567-0.114z"></path>
<path d="M5.625 1.25c-1.408 0-2.5 1.092-2.5 2.5v12.5c0 1.408 1.092 2.5 2.5 2.5h8.75c1.408 0 2.5-1.092 2.5-2.5v-10.259l-4.741-4.741h-6.509zM4.375 3.75c0-0.717 0.533-1.25 1.25-1.25h5.625v4.375h4.375v9.375c0 0.717-0.533 1.25-1.25 1.25h-8.75c-0.717 0-1.25-0.533-1.25-1.25v-12.5zM14.741 5.625h-2.241v-2.241l2.241 2.241z"></path>
</svg>
