<!-- Generated by IcoMoon.io -->
<svg version="1.1" xmlns="http://www.w3.org/2000/svg" width="20" height="20" viewBox="0 0 20 20">
<title>file-image</title>
<path d="M9.063 10c-0.863 0-1.563 0.7-1.563 1.563s0.7 1.563 1.563 1.563c0.863 0 1.563-0.7 1.563-1.563s-0.7-1.563-1.563-1.563zM8.75 11.563c0-0.173 0.14-0.313 0.313-0.313s0.313 0.14 0.313 0.313c0 0.173-0.14 0.313-0.313 0.313s-0.313-0.14-0.313-0.313z"></path>
<path d="M5.625 8.125h8.75v8.125h-8.75v-8.125zM6.875 9.375v5.625h2.084l2.797-3.33 1.369 0.913v-3.207h-6.25zM13.125 15v-0.916l-1.131-0.754-1.402 1.67h2.534z"></path>
<path d="M5.625 1.25c-1.408 0-2.5 1.092-2.5 2.5v12.5c0 1.408 1.092 2.5 2.5 2.5h8.75c1.408 0 2.5-1.092 2.5-2.5v-10.259l-4.741-4.741h-6.509zM4.375 3.75c0-0.717 0.533-1.25 1.25-1.25h5.625v4.375h4.375v9.375c0 0.717-0.533 1.25-1.25 1.25h-8.75c-0.717 0-1.25-0.533-1.25-1.25v-12.5zM12.5 5.625v-2.241l2.241 2.241h-2.241z"></path>
</svg>
