<!-- Generated by IcoMoon.io -->
<svg version="1.1" xmlns="http://www.w3.org/2000/svg" width="20" height="20" viewBox="0 0 20 20">
<title>file-markup</title>
<path d="M7.942 11.067c0.244-0.244 0.244-0.64 0-0.884s-0.64-0.244-0.884 0l-2.317 2.317 2.317 2.317c0.244 0.244 0.64 0.244 0.884 0s0.244-0.64 0-0.884l-1.433-1.433 1.433-1.433z"></path>
<path d="M12.942 10.183l2.317 2.317-2.317 2.317c-0.244 0.244-0.64 0.244-0.884 0s-0.244-0.64 0-0.884l1.433-1.433-1.433-1.433c-0.244-0.244-0.244-0.64 0-0.884s0.64-0.244 0.884 0z"></path>
<path d="M11.238 9.498c0.068-0.338-0.152-0.668-0.49-0.735s-0.668 0.152-0.735 0.49l-1.25 6.25c-0.068 0.338 0.152 0.668 0.49 0.735s0.668-0.152 0.735-0.49l1.25-6.25z"></path>
<path d="M3.125 3.75c0-1.408 1.092-2.5 2.5-2.5h6.509l4.741 4.741v10.259c0 1.408-1.092 2.5-2.5 2.5h-8.75c-1.408 0-2.5-1.092-2.5-2.5v-12.5zM5.625 2.5c-0.717 0-1.25 0.533-1.25 1.25v12.5c0 0.717 0.533 1.25 1.25 1.25h8.75c0.717 0 1.25-0.533 1.25-1.25v-9.375h-4.375v-4.375h-5.625zM12.5 3.384v2.241h2.241l-2.241-2.241z"></path>
</svg>
