<!-- Generated by IcoMoon.io -->
<svg version="1.1" xmlns="http://www.w3.org/2000/svg" width="32" height="32" viewBox="0 0 32 32">
<title>file-markup</title>
<path d="M12.707 17.707c0.39-0.39 0.39-1.024 0-1.414s-1.024-0.39-1.414 0l-3.707 3.707 3.707 3.707c0.39 0.39 1.024 0.39 1.414 0s0.39-1.024 0-1.414l-2.293-2.293 2.293-2.293z"></path>
<path d="M20.707 16.293l3.707 3.707-3.707 3.707c-0.39 0.39-1.024 0.39-1.414 0s-0.39-1.024 0-1.414l2.293-2.293-2.293-2.293c-0.39-0.39-0.39-1.024 0-1.414s1.024-0.39 1.414 0z"></path>
<path d="M17.981 15.196c0.108-0.541-0.243-1.068-0.785-1.177s-1.068 0.243-1.177 0.784l-2 10c-0.108 0.542 0.243 1.068 0.784 1.177s1.068-0.243 1.177-0.785l2-10z"></path>
<path d="M5 6c0-2.252 1.748-4 4-4h10.414l7.586 7.586v16.414c0 2.252-1.748 4-4 4h-14c-2.252 0-4-1.748-4-4v-20zM9 4c-1.148 0-2 0.852-2 2v20c0 1.148 0.852 2 2 2h14c1.148 0 2-0.852 2-2v-15h-7v-7h-9zM20 5.414v3.586h3.586l-3.586-3.586z"></path>
</svg>
