<!-- Generated by IcoMoon.io -->
<svg version="1.1" xmlns="http://www.w3.org/2000/svg" width="32" height="32" viewBox="0 0 32 32">
<title>file-ok</title>
<path d="M7 6v20c0 1.148 0.852 2 2 2h6c0.552 0 1 0.448 1 1s-0.448 1-1 1h-6c-2.252 0-4-1.748-4-4v-20c0-2.252 1.748-4 4-4h10.414l7.586 7.586v3.414c0 0.552-0.448 1-1 1s-1-0.448-1-1v-2h-7v-7h-9c-1.148 0-2 0.852-2 2zM23.586 9l-3.586-3.586v3.586h3.586z"></path>
<path d="M26.707 21.707c0.39-0.39 0.39-1.024 0-1.414s-1.024-0.39-1.414 0l-3.293 3.293-1.293-1.293c-0.39-0.39-1.024-0.39-1.414 0s-0.39 1.024 0 1.414l2.707 2.707 4.707-4.707z"></path>
<path d="M15 23c0-4.418 3.582-8 8-8s8 3.582 8 8c0 4.418-3.582 8-8 8s-8-3.582-8-8zM23 17c-3.314 0-6 2.686-6 6s2.686 6 6 6c3.314 0 6-2.686 6-6s-2.686-6-6-6z"></path>
</svg>
