<!-- Generated by IcoMoon.io -->
<svg version="1.1" xmlns="http://www.w3.org/2000/svg" width="20" height="20" viewBox="0 0 20 20">
<title>file-down</title>
<path d="M5.625 2.5h5.625v4.375h4.375v1.25c0 0.345 0.28 0.625 0.625 0.625s0.625-0.28 0.625-0.625v-2.134l-4.741-4.741h-6.509c-1.408 0-2.5 1.092-2.5 2.5v12.5c0 1.408 1.092 2.5 2.5 2.5h3.75c0.345 0 0.625-0.28 0.625-0.625s-0.28-0.625-0.625-0.625h-3.75c-0.717 0-1.25-0.533-1.25-1.25v-12.5c0-0.717 0.533-1.25 1.25-1.25zM12.5 3.384l2.241 2.241h-2.241v-2.241z"></path>
<path d="M13.75 14.741l-0.808-0.808c-0.244-0.244-0.64-0.244-0.884 0s-0.244 0.64 0 0.884l2.317 2.317 2.317-2.317c0.244-0.244 0.244-0.64 0-0.884s-0.64-0.244-0.884 0l-0.808 0.808v-2.241c0-0.345-0.28-0.625-0.625-0.625s-0.625 0.28-0.625 0.625v2.241z"></path>
<path d="M14.375 9.375c-2.761 0-5 2.239-5 5s2.239 5 5 5c2.761 0 5-2.239 5-5s-2.239-5-5-5zM10.625 14.375c0-2.071 1.679-3.75 3.75-3.75s3.75 1.679 3.75 3.75c0 2.071-1.679 3.75-3.75 3.75s-3.75-1.679-3.75-3.75z"></path>
</svg>
