<!-- Generated by IcoMoon.io -->
<svg version="1.1" xmlns="http://www.w3.org/2000/svg" width="20" height="20" viewBox="0 0 20 20">
<title>file-pdf</title>
<path d="M10.019 10.489c0.22 0.314 0.461 0.633 0.715 0.943 0.307 0.376 0.623 0.729 0.931 1.042 0.322-0.007 0.629 0.002 0.909 0.029 0.444 0.043 0.905 0.141 1.253 0.364 0.184 0.118 0.361 0.288 0.468 0.526 0.11 0.244 0.12 0.503 0.062 0.749-0.053 0.226-0.166 0.464-0.386 0.635-0.224 0.175-0.482 0.22-0.705 0.207-0.404-0.024-0.816-0.246-1.163-0.483-0.292-0.2-0.605-0.457-0.923-0.754-0.503 0.036-1.048 0.106-1.587 0.203-0.254 0.045-0.502 0.096-0.739 0.149-0.044 0.076-0.088 0.15-0.134 0.222-0.252 0.394-0.561 0.759-0.939 0.99-0.398 0.243-0.875 0.335-1.369 0.151-0.18-0.062-0.389-0.158-0.547-0.324-0.087-0.091-0.169-0.215-0.209-0.372-0.040-0.161-0.026-0.316 0.020-0.45 0.082-0.242 0.259-0.405 0.384-0.501 0.139-0.107 0.304-0.201 0.474-0.282 0.382-0.183 0.895-0.358 1.468-0.511 0.255-0.556 0.472-1.23 0.629-1.926 0.025-0.109 0.048-0.218 0.069-0.326-0.311-0.48-0.576-0.956-0.764-1.393-0.186-0.434-0.325-0.896-0.312-1.316 0.007-0.218 0.057-0.456 0.191-0.672 0.14-0.224 0.345-0.384 0.589-0.475 0.215-0.080 0.457-0.114 0.705-0.052 0.251 0.063 0.443 0.21 0.582 0.38 0.256 0.313 0.362 0.747 0.409 1.142 0.071 0.595 0.033 1.338-0.083 2.105zM9.666 12.1c-0.058 0.203-0.122 0.405-0.191 0.603 0.203-0.035 0.408-0.067 0.614-0.095-0.109-0.126-0.217-0.254-0.323-0.384-0.034-0.041-0.067-0.082-0.1-0.124zM6.801 14.827c0 0 0.001-0.002 0.005-0.005-0.003 0.003-0.005 0.005-0.005 0.005z"></path>
<path d="M3.125 3.75c0-1.408 1.092-2.5 2.5-2.5h6.509l4.741 4.741v10.259c0 1.408-1.092 2.5-2.5 2.5h-8.75c-1.408 0-2.5-1.092-2.5-2.5v-12.5zM5.625 2.5c-0.717 0-1.25 0.533-1.25 1.25v12.5c0 0.717 0.533 1.25 1.25 1.25h8.75c0.717 0 1.25-0.533 1.25-1.25v-9.375h-4.375v-4.375h-5.625zM12.5 3.384v2.241h2.241l-2.241-2.241z"></path>
</svg>
