<!-- Generated by IcoMoon.io -->
<svg version="1.1" xmlns="http://www.w3.org/2000/svg" width="32" height="32" viewBox="0 0 32 32">
<title>file-delete</title>
<path d="M8.875 4h9.125v7h6.375v2c0 0.552 0.434 1 0.969 1s0.969-0.448 0.969-1v-3.414l-7.349-7.586h-10.089c-2.182 0-3.875 1.748-3.875 4v20c0 2.252 1.693 4 3.875 4h5.813c0.535 0 0.969-0.448 0.969-1s-0.434-1-0.969-1h-5.813c-1.112 0-1.938-0.852-1.938-2v-20c0-1.148 0.826-2 1.938-2zM19.938 9v-3.166l3.067 3.166h-3.067zM16.938 23c0-3.314 2.602-6 5.813-6s5.813 2.686 5.813 6c0 3.314-2.602 6-5.813 6s-5.813-2.686-5.813-6zM22.75 15c-4.28 0-7.75 3.582-7.75 8s3.47 8 7.75 8c4.28 0 7.75-3.582 7.75-8s-3.47-8-7.75-8zM25.529 20.293c0.378 0.39 0.378 1.024 0 1.414l-1.253 1.293 1.253 1.293c0.378 0.39 0.378 1.024 0 1.414s-0.992 0.39-1.37 0l-1.253-1.293-1.252 1.293c-0.378 0.39-0.992 0.39-1.37 0s-0.378-1.024 0-1.414l1.253-1.293-1.253-1.293c-0.378-0.39-0.378-1.024 0-1.414s0.992-0.39 1.37 0l1.252 1.293 1.253-1.293c0.378-0.39 0.992-0.39 1.37 0z"></path>
</svg>
