<!-- Generated by IcoMoon.io -->
<svg version="1.1" xmlns="http://www.w3.org/2000/svg" width="32" height="32" viewBox="0 0 32 32">
<title>file-image</title>
<path d="M14.5 16c-1.381 0-2.5 1.119-2.5 2.5s1.119 2.5 2.5 2.5c1.381 0 2.5-1.119 2.5-2.5s-1.119-2.5-2.5-2.5zM14 18.5c0-0.276 0.224-0.5 0.5-0.5s0.5 0.224 0.5 0.5c0 0.276-0.224 0.5-0.5 0.5s-0.5-0.224-0.5-0.5z"></path>
<path d="M9 13h14v13h-14v-13zM11 15v9h3.334l4.476-5.329 2.19 1.46v-5.131h-10zM21 24v-1.465l-1.81-1.207-2.244 2.672h4.054z"></path>
<path d="M9 2c-2.252 0-4 1.748-4 4v20c0 2.252 1.748 4 4 4h14c2.252 0 4-1.748 4-4v-16.414l-7.586-7.586h-10.414zM7 6c0-1.148 0.852-2 2-2h9v7h7v15c0 1.148-0.852 2-2 2h-14c-1.148 0-2-0.852-2-2v-20zM20 9v-3.586l3.586 3.586h-3.586z"></path>
</svg>
