<!-- Generated by IcoMoon.io -->
<svg version="1.1" xmlns="http://www.w3.org/2000/svg" width="20" height="20" viewBox="0 0 20 20">
<title>file-hash</title>
<path d="M6.25 13.125c0-0.345 0.28-0.625 0.625-0.625h1.113l0.25-1.25h-1.363c-0.345 0-0.625-0.28-0.625-0.625s0.28-0.625 0.625-0.625h1.613l0.274-1.373c0.068-0.338 0.397-0.558 0.735-0.49s0.558 0.397 0.49 0.735l-0.226 1.127h1.225l0.274-1.373c0.068-0.338 0.397-0.558 0.735-0.49s0.558 0.397 0.49 0.735l-0.226 1.127h0.863c0.345 0 0.625 0.28 0.625 0.625s-0.28 0.625-0.625 0.625h-1.113l-0.25 1.25h1.363c0.345 0 0.625 0.28 0.625 0.625s-0.28 0.625-0.625 0.625h-1.613l-0.274 1.373c-0.068 0.338-0.397 0.558-0.735 0.49s-0.558-0.397-0.49-0.735l0.226-1.127h-1.225l-0.274 1.373c-0.068 0.338-0.397 0.558-0.735 0.49s-0.558-0.397-0.49-0.735l0.226-1.127h-0.863c-0.345 0-0.625-0.28-0.625-0.625zM10.488 12.5l0.25-1.25h-1.225l-0.25 1.25h1.225z"></path>
<path d="M5.625 1.25c-1.408 0-2.5 1.092-2.5 2.5v12.5c0 1.408 1.092 2.5 2.5 2.5h8.75c1.408 0 2.5-1.092 2.5-2.5v-10.259l-4.741-4.741h-6.509zM4.375 3.75c0-0.717 0.533-1.25 1.25-1.25h5.625v4.375h4.375v9.375c0 0.717-0.533 1.25-1.25 1.25h-8.75c-0.717 0-1.25-0.533-1.25-1.25v-12.5zM14.741 5.625h-2.241v-2.241l2.241 2.241z"></path>
</svg>
