<!-- Generated by IcoMoon.io -->
<svg version="1.1" xmlns="http://www.w3.org/2000/svg" width="32" height="32" viewBox="0 0 32 32">
<title>files</title>
<path d="M14 2c-1.905 0-3.45 1.251-3.88 3h-4.12c-2.252 0-4 1.748-4 4v17c0 2.252 1.748 4 4 4h12c1.905 0 3.45-1.251 3.88-3h4.12c2.252 0 4-1.748 4-4v-13.414l-7.586-7.586h-8.414zM14 4h7v7h7v12c0 1.148-0.852 2-2 2h-4v-12.414l-7.586-7.586h-2.167c0.333-0.609 0.975-1 1.752-1zM23 5.414l3.586 3.586h-3.586v-3.586zM4 9c0-1.148 0.852-2 2-2h7v7h7v12c0 1.148-0.852 2-2 2h-12c-1.148 0-2-0.852-2-2v-17zM18.586 12h-3.586v-3.586l3.586 3.586z"></path>
</svg>
