<!-- Generated by IcoMoon.io -->
<svg version="1.1" xmlns="http://www.w3.org/2000/svg" width="20" height="20" viewBox="0 0 20 20">
<title>file-delete</title>
<path d="M5.547 2.5h5.703v4.375h3.984v1.25c0 0.345 0.271 0.625 0.606 0.625s0.605-0.28 0.605-0.625v-2.134l-4.593-4.741h-6.306c-1.364 0-2.422 1.092-2.422 2.5v12.5c0 1.408 1.058 2.5 2.422 2.5h3.633c0.334 0 0.605-0.28 0.605-0.625s-0.271-0.625-0.605-0.625h-3.633c-0.695 0-1.211-0.533-1.211-1.25v-12.5c0-0.717 0.516-1.25 1.211-1.25zM12.461 5.625v-1.979l1.917 1.979h-1.917zM10.586 14.375c0-2.071 1.626-3.75 3.633-3.75s3.633 1.679 3.633 3.75c0 2.071-1.626 3.75-3.633 3.75s-3.633-1.679-3.633-3.75zM14.219 9.375c-2.675 0-4.844 2.239-4.844 5s2.169 5 4.844 5c2.675 0 4.844-2.239 4.844-5s-2.169-5-4.844-5zM15.956 12.683c0.236 0.244 0.236 0.64 0 0.884l-0.783 0.808 0.783 0.808c0.236 0.244 0.236 0.64 0 0.884s-0.62 0.244-0.856 0l-0.783-0.808-0.783 0.808c-0.237 0.244-0.62 0.244-0.856 0s-0.236-0.64 0-0.884l0.783-0.808-0.783-0.808c-0.236-0.244-0.236-0.64 0-0.884s0.62-0.244 0.856 0l0.783 0.808 0.783-0.808c0.237-0.244 0.62-0.244 0.856 0z"></path>
</svg>
