<!-- Generated by IcoMoon.io -->
<svg version="1.1" xmlns="http://www.w3.org/2000/svg" width="20" height="20" viewBox="0 0 20 20">
<title>file-diff</title>
<path d="M5.547 2.5c-0.695 0-1.211 0.533-1.211 1.25v12.5c0 0.717 0.516 1.25 1.211 1.25h8.477c0.695 0 1.211-0.533 1.211-1.25v-9.375h-3.984v-4.375h-5.703zM16.094 5.625v0.003l0.352 0.363v10.259c0 1.408-1.058 2.5-2.422 2.5h-8.477c-1.364 0-2.422-1.092-2.422-2.5v-12.5c0-1.408 1.058-2.5 2.422-2.5h6.306l0.605 0.625h0.003v0.003l3.633 3.747zM14.378 5.625l-1.917-1.979v1.979h1.917zM8.106 14.375c-0.334 0-0.606 0.28-0.606 0.625s0.271 0.625 0.606 0.625h3.633c0.334 0 0.606-0.28 0.606-0.625s-0.271-0.625-0.606-0.625h-3.633zM9.981 8.75c0.334 0 0.605 0.28 0.605 0.625v1.25h1.152c0.334 0 0.606 0.28 0.606 0.625s-0.271 0.625-0.606 0.625h-1.152v1.25c0 0.345-0.271 0.625-0.605 0.625s-0.606-0.28-0.606-0.625v-1.25h-1.269c-0.334 0-0.606-0.28-0.606-0.625s0.271-0.625 0.606-0.625h1.269v-1.25c0-0.345 0.271-0.625 0.606-0.625z"></path>
</svg>
