<!-- Generated by IcoMoon.io -->
<svg version="1.1" xmlns="http://www.w3.org/2000/svg" width="32" height="32" viewBox="0 0 32 32">
<title>file-pdf</title>
<path d="M16.030 16.783c0.352 0.503 0.738 1.012 1.144 1.509 0.491 0.601 0.997 1.167 1.49 1.668 0.516-0.011 1.006 0.003 1.455 0.046 0.71 0.069 1.448 0.225 2.006 0.583 0.294 0.189 0.578 0.46 0.75 0.842 0.176 0.391 0.192 0.805 0.099 1.198-0.085 0.361-0.265 0.742-0.618 1.016-0.359 0.28-0.771 0.353-1.129 0.331-0.647-0.039-1.306-0.394-1.86-0.773-0.468-0.32-0.968-0.732-1.477-1.206-0.805 0.057-1.676 0.17-2.539 0.324-0.406 0.073-0.803 0.153-1.183 0.239-0.070 0.122-0.141 0.24-0.214 0.355-0.402 0.631-0.898 1.215-1.502 1.583-0.637 0.389-1.4 0.535-2.19 0.242-0.288-0.1-0.622-0.253-0.875-0.518-0.139-0.146-0.271-0.344-0.334-0.596-0.065-0.258-0.041-0.506 0.031-0.721 0.131-0.387 0.415-0.648 0.614-0.801 0.222-0.171 0.487-0.321 0.759-0.452 0.611-0.293 1.432-0.573 2.348-0.817 0.407-0.89 0.756-1.968 1.006-3.081 0.039-0.175 0.076-0.349 0.11-0.522-0.498-0.768-0.922-1.529-1.222-2.23-0.298-0.694-0.52-1.433-0.498-2.105 0.011-0.349 0.090-0.729 0.306-1.075 0.223-0.359 0.552-0.614 0.942-0.76 0.343-0.129 0.732-0.183 1.128-0.083 0.401 0.101 0.709 0.335 0.931 0.607 0.409 0.502 0.579 1.195 0.655 1.827 0.114 0.953 0.053 2.141-0.133 3.368zM15.465 19.36c-0.094 0.326-0.196 0.649-0.305 0.965 0.324-0.056 0.653-0.107 0.983-0.153-0.175-0.202-0.348-0.407-0.517-0.614-0.054-0.066-0.107-0.132-0.161-0.198zM10.881 23.723c0 0 0.002-0.003 0.008-0.008-0.005 0.006-0.008 0.008-0.008 0.008z"></path>
<path d="M5 6c0-2.252 1.748-4 4-4h10.414l7.586 7.586v16.414c0 2.252-1.748 4-4 4h-14c-2.252 0-4-1.748-4-4v-20zM9 4c-1.148 0-2 0.852-2 2v20c0 1.148 0.852 2 2 2h14c1.148 0 2-0.852 2-2v-15h-7v-7h-9zM20 5.414v3.586h3.586l-3.586-3.586z"></path>
</svg>
