<!-- Generated by IcoMoon.io -->
<svg version="1.1" xmlns="http://www.w3.org/2000/svg" width="20" height="20" viewBox="0 0 20 20">
<title>files-pending</title>
<path d="M14.375 15.431c0.345 0 0.625-0.28 0.625-0.625s-0.28-0.625-0.625-0.625c-0.345 0-0.625 0.28-0.625 0.625s0.28 0.625 0.625 0.625z"></path>
<path d="M12.5 15.431c0.345 0 0.625-0.28 0.625-0.625s-0.28-0.625-0.625-0.625c-0.345 0-0.625 0.28-0.625 0.625s0.28 0.625 0.625 0.625z"></path>
<path d="M16.25 15.431c0.345 0 0.625-0.28 0.625-0.625s-0.28-0.625-0.625-0.625c-0.345 0-0.625 0.28-0.625 0.625s0.28 0.625 0.625 0.625z"></path>
<path d="M9.375 14.806c0-2.761 2.239-5 5-5s5 2.239 5 5c0 2.761-2.239 5-5 5s-5-2.239-5-5zM14.375 11.056c-2.071 0-3.75 1.679-3.75 3.75s1.679 3.75 3.75 3.75c2.071 0 3.75-1.679 3.75-3.75s-1.679-3.75-3.75-3.75z"></path>
<path d="M8.75 2.5h4.375v4.375h4.375v2.5c0 0.345 0.28 0.625 0.625 0.625s0.625-0.28 0.625-0.625v-3.384l-4.741-4.741h-5.259c-1.191 0-2.156 0.782-2.425 1.875h-2.575c-1.408 0-2.5 1.092-2.5 2.5v10.625c0 1.408 1.092 2.5 2.5 2.5h5.625c0.345 0 0.625-0.28 0.625-0.625s-0.28-0.625-0.625-0.625h-5.625c-0.717 0-1.25-0.533-1.25-1.25v-10.625c0-0.717 0.533-1.25 1.25-1.25h4.375v4.375h4.688c0.054 0 0.106-0.007 0.156-0.020 0.207 0.053 0.436-0.001 0.598-0.163 0.244-0.244 0.244-0.64 0-0.884l-4.558-4.558h-1.354c0.208-0.381 0.609-0.625 1.095-0.625zM9.375 5.259l2.241 2.241h-2.241v-2.241zM14.375 5.625v-2.241l2.241 2.241h-2.241z"></path>
</svg>
