<!-- Generated by IcoMoon.io -->
<svg version="1.1" xmlns="http://www.w3.org/2000/svg" width="20" height="20" viewBox="0 0 20 20">
<title>filter</title>
<path d="M1.934 2.235c0.103-0.22 0.323-0.36 0.566-0.36h15c0.242 0 0.463 0.14 0.566 0.36s0.069 0.479-0.086 0.665l-6.105 7.326v7.899c0 0.253-0.152 0.481-0.386 0.577s-0.502 0.043-0.681-0.136l-2.5-2.5c-0.117-0.117-0.183-0.276-0.183-0.442v-5.399l-6.105-7.326c-0.155-0.186-0.189-0.446-0.086-0.665zM3.834 3.125l5.396 6.475c0.094 0.112 0.145 0.254 0.145 0.4v5.366l1.25 1.25v-6.616c0-0.146 0.051-0.288 0.145-0.4l5.396-6.475h-12.331z"></path>
</svg>
