<!-- Generated by IcoMoon.io -->
<svg version="1.1" xmlns="http://www.w3.org/2000/svg" width="32" height="32" viewBox="0 0 32 32">
<title>fish-carp</title>
<path d="M25 18c0 0.552-0.448 1-1 1s-1-0.448-1-1c0-0.552 0.448-1 1-1s1 0.448 1 1z"></path>
<path d="M27 19c0.552 0 1-0.448 1-1s-0.448-1-1-1c-0.552 0-1 0.448-1 1s0.448 1 1 1z"></path>
<path d="M9.423 12.885c-0.305 0.389-0.583 0.757-0.833 1.088-0.116 0.153-0.226 0.299-0.33 0.436-0.343 0.449-0.602 0.772-0.808 0.98l-0.024 0.024c-0.025-0.026-0.055-0.059-0.089-0.1-0.105-0.126-0.216-0.282-0.364-0.494l-0.020-0.029c-0.136-0.195-0.298-0.425-0.48-0.658-0.389-0.496-0.907-1.042-1.649-1.458-0.749-0.42-1.67-0.674-2.825-0.674-0.321 0-0.623 0.155-0.811 0.415s-0.239 0.596-0.137 0.901c0.927 2.781 0.94 6.073-0.013 9.409-0.086 0.302-0.026 0.626 0.163 0.877s0.485 0.398 0.798 0.398c1.056 0 1.898-0.268 2.586-0.7 0.671-0.42 1.147-0.966 1.513-1.433 0.13-0.166 0.24-0.311 0.338-0.441 0.209-0.277 0.365-0.483 0.551-0.665 0.168-0.164 0.289-0.231 0.406-0.253 0.026 0.021 0.062 0.052 0.108 0.097 0.097 0.094 0.192 0.198 0.3 0.322-0.081 0.196-0.175 0.398-0.278 0.607-0.078 0.158-0.172 0.34-0.268 0.528-0.148 0.287-0.302 0.586-0.415 0.831-0.186 0.403-0.418 0.966-0.387 1.528 0.017 0.319 0.119 0.662 0.366 0.961 0.239 0.29 0.553 0.463 0.863 0.567l0.083 0.028c0.685 0.229 1.568 0.524 2.358 0.524 0.441 0 0.935-0.088 1.383-0.387 0.222-0.148 0.407-0.33 0.56-0.541 0.129 0.050 0.262 0.090 0.399 0.118 0.861 0.176 1.605-0.164 2.155-0.581 0.211-0.16 0.411-0.343 0.6-0.539 0.304 0.077 0.646 0.184 1.056 0.312 0.316 0.099 0.673 0.21 1.082 0.33 0.534 0.156 1.123 0.314 1.767 0.45-0.175 0.768-0.207 1.697 0.153 2.68 0.19 0.519 0.764 0.785 1.283 0.595s0.785-0.764 0.595-1.283c-0.218-0.596-0.186-1.177-0.047-1.686 0.103 0.010 0.207 0.019 0.313 0.027 3.216 0.247 5.542-0.026 7.058-0.86 0.034 0.070 0.069 0.146 0.103 0.225 0.229 0.522 0.416 1.123 0.416 1.638 0 0.552 0.448 1 1 1s1-0.448 1-1c0-0.924-0.313-1.824-0.584-2.442-0.14-0.32-0.28-0.588-0.385-0.778l-0.030-0.053c0.097-0.158 0.181-0.324 0.252-0.498 0.311-0.752 0.352-1.566 0.237-2.372l-0.014-0.096c-0.49-3.428-1.005-7.035-2.182-9.782-0.601-1.403-1.404-2.655-2.527-3.558-1.004-0.806-2.216-1.295-3.656-1.401l-0.073-0.137c-0.186-0.352-0.375-0.708-0.552-1.016-0.295-0.513-0.637-1.039-1.067-1.452-0.45-0.431-1.018-0.76-1.736-0.823-0.694-0.061-1.407 0.138-2.14 0.516-1.873 0.963-4.009 2.745-5.534 4.504-0.763 0.88-1.417 1.805-1.803 2.668-0.356 0.794-0.633 1.877-0.037 2.771l0.255-0.17zM17.457 4.889c0.536-0.276 0.862-0.318 1.052-0.302 0.165 0.014 0.326 0.082 0.526 0.273 0.219 0.21 0.447 0.534 0.718 1.005 0.044 0.077 0.087 0.154 0.13 0.231-3.909 0.479-6.731 2.642-8.739 4.77 0.293-0.568 0.765-1.237 1.377-1.943 1.396-1.611 3.338-3.213 4.937-4.035zM10.374 24.055c0.048 0.072 0.097 0.142 0.147 0.211-0.059 0.141-0.112 0.177-0.122 0.184-0.021 0.014-0.090 0.051-0.274 0.051-0.394 0-0.915-0.153-1.623-0.387 0.034-0.103 0.086-0.228 0.156-0.381 0.105-0.228 0.214-0.438 0.337-0.675 0.092-0.177 0.191-0.369 0.303-0.595 0.214 0.173 0.449 0.34 0.706 0.491 0.020 0.37 0.133 0.746 0.371 1.103zM22.271 24.049c-0.090-0.005-0.18-0.010-0.272-0.016 0.009-0.296-0.113-0.594-0.358-0.799-0.424-0.355-1.054-0.299-1.409 0.125l0.693 0.58c-0.693-0.58-0.693-0.581-0.693-0.58l-0.001 0.001-0.001 0.001-0.003 0.003-0.008 0.009-0.021 0.027c-0.017 0.021-0.039 0.050-0.066 0.086-0.053 0.072-0.125 0.172-0.206 0.297-0.728-0.136-1.395-0.31-2.007-0.489-0.293-0.086-0.59-0.178-0.881-0.269-0.175-0.054-0.348-0.108-0.518-0.16 0.137-0.21 0.267-0.415 0.385-0.603l0.001-0.001 0.001-0.001c0.049-0.078 0.096-0.152 0.142-0.223 0.297-0.466 0.159-1.084-0.307-1.381s-1.084-0.159-1.38 0.307c-0.052 0.081-0.103 0.163-0.155 0.245-0.254 0.402-0.518 0.818-0.804 1.214-0.348 0.481-0.68 0.86-0.988 1.093-0.304 0.23-0.466 0.233-0.548 0.216-0.103-0.021-0.398-0.14-0.829-0.786-0.036-0.054-0.059-0.112-0.013-0.256 0.056-0.176 0.206-0.422 0.477-0.694 0.563-0.564 1.347-0.95 1.814-1.002 0.549-0.061 0.944-0.555 0.883-1.104s-0.555-0.945-1.104-0.884c-1.032 0.115-2.214 0.781-3.008 1.576-0.134 0.134-0.265 0.28-0.387 0.436-0.338-0.25-0.644-0.56-0.947-0.898-0.073-0.081-0.151-0.171-0.232-0.264-0.205-0.236-0.429-0.492-0.627-0.685-0.255-0.248-0.736-0.671-1.395-0.671-0.845 0-1.457 0.389-1.91 0.831-0.301 0.294-0.596 0.684-0.842 1.011-0.079 0.105-0.154 0.203-0.222 0.29-0.321 0.409-0.626 0.738-1.003 0.974-0.056 0.035-0.115 0.069-0.178 0.101 0.528-2.578 0.542-5.141 0.022-7.502 0.18 0.062 0.339 0.135 0.48 0.214 0.429 0.24 0.756 0.569 1.054 0.948 0.148 0.188 0.281 0.378 0.424 0.582l0.011 0.016c0.139 0.199 0.298 0.425 0.466 0.627 0.329 0.395 0.866 0.907 1.698 0.907 0.355 0 0.644-0.138 0.839-0.261 0.2-0.127 0.38-0.287 0.535-0.444 0.308-0.311 0.639-0.731 0.975-1.173 0.113-0.148 0.229-0.302 0.349-0.46 0.621-0.822 1.341-1.776 2.225-2.735 2.096-2.276 4.974-4.428 9.077-4.428 1.288 0 2.25 0.369 3.014 0.983 0.782 0.629 1.418 1.564 1.942 2.786 1.062 2.477 1.548 5.829 2.054 9.373 0.010 0.067 0.017 0.133 0.023 0.197-0.685-0.319-1.504-0.4-2.292-0.294-1.519 0.205-3.189 1.151-3.97 3.005zM24.59 24.055c0.517-0.606 1.231-0.936 1.918-1.029 0.535-0.072 0.971 0.013 1.229 0.149 0.021 0.011 0.041 0.022 0.059 0.034-0.066 0.048-0.138 0.095-0.216 0.14-0.606 0.354-1.561 0.62-2.99 0.706zM7.267 15.55l0.004-0.002c-0.003 0.002-0.004 0.002-0.004 0.002zM7.531 15.504c0.008 0.002 0.011 0.005 0.012 0.005s-0.004-0-0.012-0.005z"></path>
</svg>
