<!-- Generated by IcoMoon.io -->
<svg version="1.1" xmlns="http://www.w3.org/2000/svg" width="20" height="20" viewBox="0 0 20 20">
<title>fish</title>
<path d="M14.375 5c0.345 0 0.625-0.28 0.625-0.625s-0.28-0.625-0.625-0.625c-0.345 0-0.625 0.28-0.625 0.625s0.28 0.625 0.625 0.625z"></path>
<path d="M18.681 3.819h-1.25v-2.356l-0.487-0.061c-0.44-0.055-0.883-0.083-1.319-0.083-2.426 0-4.663 0.824-6.448 2.204-1.449-0.309-3.107 0.52-4.025 0.979-0.553 0.276-0.883 0.751-0.926 1.335-0.063 0.825 0.47 1.755 1.439 2.542-0.333 0.945-0.534 1.951-0.583 2.997-0.167-0.028-0.336-0.046-0.506-0.053-1.299-0.059-2.541 0.462-3.407 1.428-0.249 0.278-0.309 0.661-0.157 1 0.151 0.336 0.486 0.553 0.854 0.553h0.009c2.106 0 3.819 1.713 3.819 3.819v0.007c-0.001 0.37 0.216 0.706 0.553 0.857 0.124 0.056 0.254 0.083 0.383 0.083 0.223 0 0.442-0.082 0.617-0.24 0.967-0.867 1.488-2.108 1.429-3.407-0.008-0.169-0.026-0.339-0.053-0.506 1.099-0.051 2.155-0.272 3.142-0.635 0.715 0.819 1.517 1.272 2.26 1.272 0.056 0 0.111-0.003 0.167-0.008 0.571-0.053 1.035-0.381 1.306-0.924 0.465-0.93 1.224-2.448 1.013-3.844 1.361-1.778 2.171-3.999 2.171-6.405v-0.556zM5.333 5.922c0.009-0.119 0.051-0.294 0.316-0.426 0.567-0.283 1.465-0.732 2.319-0.881-0.749 0.79-1.377 1.694-1.856 2.685-0.599-0.558-0.803-1.070-0.78-1.378zM14.503 14.126c-0.13 0.26-0.299 0.304-0.415 0.315-0.274 0.026-0.73-0.137-1.24-0.628 0.908-0.456 1.741-1.040 2.476-1.727-0.185 0.769-0.571 1.541-0.822 2.041zM16.67 8.396c-1.965-0.632-3.644-1.932-4.757-3.693l-0.94 0.594c1.214 1.921 3.028 3.356 5.153 4.090-1.672 2.661-4.634 4.433-8.002 4.433-0.069 0-0.137-0.001-0.205-0.003l-0.807-0.017 0.272 0.76c0.106 0.297 0.167 0.605 0.181 0.917 0.037 0.828-0.242 1.626-0.777 2.242-0.197-2.394-2.112-4.309-4.506-4.506 0.616-0.535 1.412-0.815 2.242-0.777 0.312 0.014 0.62 0.075 0.917 0.181l0.76 0.272-0.017-0.807c-0.001-0.068-0.003-0.136-0.003-0.205 0-5.208 4.237-9.444 9.444-9.444 0.23 0 0.462 0.008 0.694 0.026v2.474h1.234c-0.072 1.233-0.382 2.403-0.883 3.465z"></path>
</svg>
