<!-- Generated by IcoMoon.io -->
<svg version="1.1" xmlns="http://www.w3.org/2000/svg" width="20" height="20" viewBox="0 0 20 20">
<title>fish-carp</title>
<path d="M15.625 11.25c0 0.345-0.28 0.625-0.625 0.625s-0.625-0.28-0.625-0.625c0-0.345 0.28-0.625 0.625-0.625s0.625 0.28 0.625 0.625z"></path>
<path d="M16.875 11.875c0.345 0 0.625-0.28 0.625-0.625s-0.28-0.625-0.625-0.625c-0.345 0-0.625 0.28-0.625 0.625s0.28 0.625 0.625 0.625z"></path>
<path d="M5.889 8.053c-0.191 0.243-0.364 0.473-0.521 0.68-0.072 0.096-0.141 0.187-0.206 0.272-0.214 0.281-0.376 0.482-0.505 0.612l-0.015 0.015c-0.016-0.016-0.034-0.037-0.056-0.063-0.066-0.079-0.135-0.176-0.228-0.309l-0.013-0.018c-0.085-0.122-0.186-0.266-0.3-0.411-0.243-0.31-0.567-0.651-1.031-0.911-0.468-0.262-1.044-0.422-1.765-0.422-0.201 0-0.39 0.097-0.507 0.26s-0.149 0.373-0.086 0.563c0.579 1.738 0.588 3.795-0.008 5.881-0.054 0.189-0.016 0.392 0.102 0.548s0.303 0.249 0.499 0.249c0.66 0 1.186-0.168 1.616-0.437 0.419-0.263 0.717-0.604 0.946-0.895 0.081-0.103 0.15-0.194 0.211-0.275 0.131-0.173 0.228-0.302 0.344-0.416 0.105-0.103 0.18-0.144 0.254-0.158 0.016 0.013 0.039 0.033 0.068 0.061 0.061 0.059 0.12 0.124 0.188 0.201-0.051 0.122-0.109 0.249-0.174 0.38-0.049 0.099-0.107 0.213-0.168 0.33-0.092 0.179-0.189 0.366-0.259 0.519-0.116 0.252-0.261 0.604-0.242 0.955 0.011 0.199 0.074 0.413 0.229 0.6 0.15 0.181 0.345 0.29 0.539 0.354l0.052 0.017c0.428 0.143 0.98 0.327 1.474 0.327 0.276 0 0.584-0.055 0.864-0.242 0.138-0.092 0.254-0.207 0.35-0.338 0.081 0.032 0.164 0.056 0.249 0.074 0.538 0.11 1.003-0.103 1.347-0.363 0.132-0.1 0.257-0.214 0.375-0.337 0.19 0.048 0.404 0.115 0.66 0.195 0.198 0.062 0.42 0.131 0.676 0.206 0.334 0.098 0.702 0.197 1.105 0.281-0.109 0.48-0.129 1.060 0.096 1.675 0.119 0.324 0.478 0.491 0.802 0.372s0.491-0.478 0.372-0.802c-0.137-0.373-0.116-0.735-0.029-1.054 0.064 0.006 0.13 0.012 0.195 0.017 2.010 0.155 3.464-0.016 4.411-0.538 0.021 0.044 0.043 0.091 0.064 0.141 0.143 0.327 0.26 0.702 0.26 1.024 0 0.345 0.28 0.625 0.625 0.625s0.625-0.28 0.625-0.625c0-0.578-0.196-1.14-0.365-1.526-0.088-0.2-0.175-0.367-0.241-0.486l-0.018-0.033c0.060-0.099 0.113-0.203 0.158-0.311 0.194-0.47 0.22-0.979 0.148-1.482l-0.009-0.060c-0.306-2.143-0.628-4.397-1.364-6.114-0.376-0.877-0.877-1.659-1.58-2.223-0.627-0.504-1.385-0.809-2.285-0.876l-0.045-0.086c-0.117-0.22-0.234-0.442-0.345-0.635-0.184-0.321-0.398-0.649-0.667-0.907-0.281-0.27-0.636-0.475-1.085-0.514-0.434-0.038-0.879 0.087-1.338 0.322-1.171 0.602-2.506 1.716-3.459 2.815-0.477 0.55-0.886 1.128-1.127 1.668-0.222 0.496-0.396 1.173-0.023 1.732l0.159-0.106zM10.911 3.056c0.335-0.172 0.539-0.199 0.657-0.189 0.103 0.009 0.204 0.051 0.328 0.171 0.137 0.131 0.279 0.334 0.449 0.628 0.028 0.048 0.055 0.096 0.081 0.145-2.443 0.299-4.207 1.651-5.462 2.981 0.183-0.355 0.478-0.773 0.861-1.214 0.873-1.007 2.086-2.008 3.086-2.522zM6.484 15.034c0.030 0.045 0.061 0.089 0.092 0.132-0.037 0.088-0.070 0.11-0.077 0.115-0.013 0.009-0.056 0.032-0.171 0.032-0.246 0-0.572-0.096-1.015-0.242 0.022-0.064 0.053-0.143 0.098-0.238 0.066-0.142 0.134-0.274 0.211-0.422 0.057-0.111 0.12-0.231 0.189-0.372 0.134 0.108 0.281 0.213 0.441 0.307 0.013 0.231 0.083 0.466 0.232 0.689zM13.92 15.030c-0.056-0.003-0.113-0.006-0.17-0.010 0.006-0.185-0.070-0.371-0.223-0.5-0.265-0.222-0.659-0.187-0.88 0.078l0.433 0.363c-0.433-0.363-0.433-0.363-0.433-0.363l-0.001 0.001-0.001 0.001-0.002 0.002-0.005 0.006-0.013 0.017c-0.011 0.013-0.025 0.031-0.041 0.054-0.033 0.045-0.078 0.107-0.128 0.186-0.455-0.085-0.872-0.194-1.254-0.306-0.183-0.054-0.368-0.111-0.551-0.168-0.109-0.034-0.218-0.068-0.324-0.1 0.086-0.132 0.167-0.259 0.241-0.377l0-0.001 0-0.001c0.031-0.048 0.060-0.095 0.088-0.14 0.185-0.291 0.099-0.678-0.192-0.863s-0.678-0.099-0.863 0.192c-0.032 0.051-0.064 0.102-0.097 0.153-0.159 0.251-0.323 0.511-0.502 0.759-0.218 0.301-0.425 0.537-0.618 0.683-0.19 0.144-0.292 0.146-0.343 0.135-0.064-0.013-0.249-0.087-0.518-0.491-0.022-0.034-0.037-0.070-0.008-0.16 0.035-0.11 0.128-0.263 0.298-0.434 0.352-0.353 0.842-0.594 1.134-0.626 0.343-0.038 0.59-0.347 0.552-0.69s-0.347-0.59-0.69-0.552c-0.645 0.072-1.384 0.488-1.88 0.985-0.084 0.084-0.166 0.175-0.242 0.272-0.211-0.156-0.403-0.35-0.592-0.561-0.045-0.051-0.094-0.107-0.145-0.165-0.128-0.147-0.268-0.308-0.392-0.428-0.16-0.155-0.46-0.42-0.872-0.42-0.528 0-0.91 0.243-1.194 0.52-0.188 0.184-0.372 0.428-0.527 0.632-0.050 0.066-0.096 0.127-0.139 0.181-0.201 0.255-0.392 0.461-0.627 0.608-0.035 0.022-0.072 0.043-0.111 0.063 0.33-1.611 0.339-3.213 0.014-4.689 0.113 0.039 0.212 0.084 0.3 0.134 0.268 0.15 0.472 0.356 0.659 0.593 0.092 0.118 0.176 0.237 0.265 0.364l0.007 0.010c0.087 0.124 0.186 0.266 0.291 0.392 0.206 0.247 0.541 0.567 1.061 0.567 0.222 0 0.403-0.086 0.525-0.163 0.125-0.079 0.237-0.18 0.334-0.277 0.192-0.195 0.399-0.457 0.61-0.733 0.071-0.092 0.143-0.188 0.218-0.288 0.388-0.514 0.838-1.11 1.39-1.709 1.31-1.422 3.109-2.767 5.673-2.767 0.805 0 1.407 0.231 1.884 0.614 0.489 0.393 0.886 0.977 1.213 1.741 0.664 1.548 0.968 3.643 1.284 5.858 0.006 0.042 0.011 0.083 0.015 0.123-0.428-0.199-0.94-0.25-1.433-0.184-0.949 0.128-1.993 0.719-2.481 1.878zM15.369 15.034c0.323-0.379 0.769-0.585 1.199-0.643 0.334-0.045 0.607 0.008 0.768 0.093 0.013 0.007 0.026 0.014 0.037 0.021-0.041 0.030-0.086 0.059-0.135 0.088-0.379 0.221-0.976 0.387-1.869 0.441zM4.542 9.719l0.002-0.001c-0.002 0.001-0.002 0.001-0.002 0.001zM4.707 9.69c0.005 0.001 0.007 0.003 0.007 0.003s-0.002-0-0.007-0.003z"></path>
</svg>
