<!-- Generated by IcoMoon.io -->
<svg version="1.1" xmlns="http://www.w3.org/2000/svg" width="20" height="20" viewBox="0 0 20 20">
<title>fish-catfish</title>
<path d="M13.125 10c0.345 0 0.625-0.28 0.625-0.625s-0.28-0.625-0.625-0.625c-0.345 0-0.625 0.28-0.625 0.625s0.28 0.625 0.625 0.625z"></path>
<path d="M16.25 9.375c0 0.345-0.28 0.625-0.625 0.625s-0.625-0.28-0.625-0.625c0-0.345 0.28-0.625 0.625-0.625s0.625 0.28 0.625 0.625z"></path>
<path d="M8.898 5.642c0.221-0.581 0.71-1.010 1.303-1.199 1.17-0.372 2.591 0.18 3.612 1.834 1.213 0.097 2.32 0.446 3.179 0.983 1.010 0.631 1.758 1.583 1.758 2.74 0 0.7-0.274 1.325-0.715 1.849 0.826 0.796 1.34 1.913 1.34 3.151 0 0.345-0.28 0.625-0.625 0.625s-0.625-0.28-0.625-0.625c0-0.922-0.399-1.751-1.035-2.323-0.032 0.021-0.065 0.042-0.098 0.063-0.11 0.069-0.223 0.134-0.341 0.196 0.261 0.332 0.537 0.825 0.537 1.439 0 0.345-0.28 0.625-0.625 0.625s-0.625-0.28-0.625-0.625c0-0.258-0.131-0.508-0.318-0.726-0.075-0.087-0.15-0.16-0.213-0.214-0.511 0.149-1.060 0.248-1.632 0.291-0.012 0.023-0.024 0.048-0.036 0.075-0.070 0.163-0.119 0.394-0.021 0.689 0.109 0.327-0.068 0.681-0.395 0.791s-0.681-0.068-0.791-0.395c-0.151-0.453-0.142-0.86-0.066-1.196-0.092-0.014-0.186-0.031-0.28-0.049-0.199 0.411-0.31 0.872-0.31 1.36 0 0.345-0.28 0.625-0.625 0.625s-0.625-0.28-0.625-0.625c0-0.582 0.113-1.137 0.319-1.644l-0.025-0.006c-0.193-0.048-0.376-0.093-0.545-0.132-0.182 0.22-0.386 0.432-0.61 0.602-0.344 0.26-0.809 0.473-1.347 0.363-0.418-0.086-0.774-0.345-1.082-0.717-0.031 0.035-0.063 0.069-0.096 0.102-0.437 0.437-1.065 0.712-1.811 0.463-0.255-0.085-0.52-0.198-0.721-0.389-0.24-0.228-0.331-0.509-0.331-0.79 0-0.2 0.047-0.407 0.095-0.589-0.031 0.023-0.065 0.052-0.103 0.089-0.116 0.114-0.214 0.243-0.344 0.416-0.061 0.081-0.13 0.172-0.211 0.275-0.229 0.292-0.526 0.633-0.946 0.895-0.43 0.27-0.956 0.437-1.616 0.437-0.196 0-0.381-0.092-0.499-0.249s-0.156-0.359-0.102-0.548c0.596-2.085 0.587-4.143 0.008-5.881-0.064-0.191-0.032-0.4 0.086-0.563s0.306-0.26 0.507-0.26c0.721 0 1.297 0.159 1.765 0.422 0.464 0.26 0.787 0.601 1.031 0.911 0.114 0.145 0.215 0.29 0.3 0.411l0.013 0.018c0.093 0.132 0.162 0.23 0.228 0.309 0.054 0.065 0.089 0.097 0.109 0.112 0.020-0.007 0.055-0.020 0.111-0.048 0.054-0.027 0.115-0.062 0.185-0.105-0.221-0.326-0.359-0.655-0.393-0.983-0.061-0.587 0.221-1.070 0.691-1.323 0.431-0.232 0.964-0.248 1.464-0.118 0.433 0.112 0.876 0.34 1.283 0.689 0.257-0.104 0.529-0.204 0.819-0.297-0.121-0.419-0.105-0.842 0.042-1.23zM10.067 6.086c-0.046 0.12-0.062 0.278-0.002 0.466 0.656-0.138 1.382-0.238 2.188-0.28-0.661-0.702-1.309-0.753-1.673-0.638-0.266 0.085-0.441 0.261-0.513 0.452zM6.645 12.283c-0.309-0.043-0.597-0.067-0.859-0.080-0.013 0.045-0.025 0.087-0.037 0.128-0.019 0.065-0.036 0.124-0.050 0.176-0.036 0.127-0.055 0.21-0.065 0.265 0.039 0.018 0.099 0.043 0.188 0.073 0.191 0.064 0.344 0.027 0.532-0.162 0.102-0.102 0.201-0.239 0.29-0.4zM6.44 7.69c-0.292-0.076-0.481-0.032-0.558 0.009-0.017 0.009-0.027 0.017-0.031 0.022s-0.006 0.007-0.006 0.007c-0 0.001-0.002 0.004-0.003 0.011s-0.003 0.025-0 0.053c0.008 0.078 0.053 0.222 0.193 0.425 0.211-0.135 0.443-0.277 0.698-0.419-0.102-0.048-0.2-0.083-0.293-0.107zM5.371 10.124c-0.182 0.092-0.419 0.188-0.683 0.188-0.52 0-0.855-0.32-1.061-0.567-0.105-0.126-0.204-0.268-0.291-0.392l-0.007-0.010c-0.089-0.127-0.172-0.246-0.265-0.364-0.186-0.237-0.39-0.443-0.659-0.593-0.088-0.049-0.187-0.095-0.3-0.134 0.325 1.476 0.317 3.077-0.014 4.689 0.039-0.020 0.076-0.041 0.111-0.063 0.235-0.147 0.426-0.353 0.627-0.608 0.043-0.054 0.089-0.116 0.139-0.181 0.154-0.204 0.338-0.448 0.527-0.632 0.283-0.277 0.666-0.52 1.194-0.52 0.050 0 0.104-0 0.164-0.001 0.53-0.003 1.453-0.009 2.558 0.207 0.047-0.054 0.095-0.106 0.145-0.155 0.496-0.497 1.235-0.914 1.88-0.985 0.343-0.038 0.652 0.209 0.69 0.552s-0.209 0.652-0.552 0.69c-0.292 0.032-0.782 0.273-1.134 0.626-0.17 0.17-0.264 0.324-0.298 0.434-0.028 0.090-0.014 0.126 0.008 0.16 0.269 0.404 0.454 0.478 0.518 0.491 0.051 0.010 0.153 0.008 0.343-0.135 0.193-0.146 0.4-0.382 0.618-0.683 0.179-0.247 0.343-0.507 0.502-0.758 0.033-0.052 0.065-0.103 0.097-0.153 0.185-0.291 0.572-0.377 0.863-0.192s0.377 0.572 0.192 0.863c-0.028 0.044-0.057 0.091-0.088 0.139l-0.051 0.080 0.125 0.031c0.116 0.029 0.231 0.057 0.344 0.084 0.502-0.614 1.168-1.089 1.93-1.358 0.325-0.115 0.682 0.056 0.797 0.381s-0.056 0.682-0.381 0.798c-0.302 0.107-0.583 0.259-0.834 0.447 1.040 0 1.982-0.215 2.722-0.559-0.192-0.163-0.275-0.434-0.186-0.686 0.115-0.325 0.472-0.496 0.797-0.381 0.193 0.068 0.38 0.149 0.559 0.243 0.327-0.362 0.483-0.748 0.483-1.117 0-0.57-0.371-1.18-1.171-1.68-0.791-0.494-1.922-0.82-3.204-0.82-2.697 0-4.47 0.672-5.677 1.33-0.514 0.28-0.925 0.558-1.286 0.801-0.070 0.047-0.138 0.093-0.205 0.138-0.198 0.132-0.397 0.261-0.586 0.356zM4.714 9.068c0 0-0.002-0-0.007-0.003 0.005 0.001 0.007 0.003 0.007 0.003z"></path>
</svg>
