<!-- Generated by IcoMoon.io -->
<svg version="1.1" xmlns="http://www.w3.org/2000/svg" width="32" height="32" viewBox="0 0 32 32">
<title>fish-catfish</title>
<path d="M21 16c0.552 0 1-0.448 1-1s-0.448-1-1-1c-0.552 0-1 0.448-1 1s0.448 1 1 1z"></path>
<path d="M26 15c0 0.552-0.448 1-1 1s-1-0.448-1-1c0-0.552 0.448-1 1-1s1 0.448 1 1z"></path>
<path d="M14.237 9.028c0.353-0.929 1.135-1.616 2.085-1.918 1.872-0.596 4.146 0.288 5.779 2.934 1.94 0.155 3.712 0.714 5.086 1.573 1.616 1.010 2.813 2.534 2.813 4.383 0 1.12-0.439 2.12-1.143 2.959 1.321 1.273 2.143 3.060 2.143 5.041 0 0.552-0.448 1-1 1s-1-0.448-1-1c0-1.475-0.639-2.802-1.656-3.717-0.052 0.034-0.105 0.068-0.157 0.101-0.175 0.11-0.358 0.215-0.546 0.314 0.418 0.531 0.859 1.319 0.859 2.302 0 0.552-0.448 1-1 1s-1-0.448-1-1c0-0.412-0.21-0.812-0.509-1.162-0.119-0.139-0.24-0.255-0.34-0.343-0.818 0.238-1.696 0.397-2.611 0.465-0.020 0.037-0.039 0.077-0.058 0.12-0.112 0.261-0.19 0.63-0.033 1.102 0.175 0.524-0.108 1.090-0.633 1.265s-1.090-0.108-1.265-0.633c-0.242-0.725-0.228-1.376-0.106-1.913-0.148-0.023-0.298-0.050-0.449-0.079-0.318 0.658-0.497 1.396-0.497 2.175 0 0.552-0.448 1-1 1s-1-0.448-1-1c0-0.931 0.182-1.819 0.511-2.631l-0.041-0.010c-0.309-0.076-0.601-0.149-0.872-0.212-0.291 0.352-0.617 0.691-0.976 0.963-0.55 0.416-1.294 0.757-2.155 0.581-0.669-0.137-1.239-0.552-1.731-1.147-0.050 0.056-0.101 0.11-0.154 0.163-0.699 0.699-1.705 1.139-2.898 0.742-0.407-0.136-0.832-0.317-1.154-0.622-0.384-0.365-0.53-0.814-0.53-1.264 0-0.32 0.075-0.651 0.153-0.942-0.050 0.036-0.104 0.083-0.165 0.142-0.186 0.182-0.342 0.388-0.551 0.665-0.098 0.13-0.208 0.275-0.338 0.441-0.366 0.466-0.842 1.012-1.513 1.433-0.688 0.431-1.53 0.7-2.586 0.7-0.314 0-0.609-0.147-0.798-0.398s-0.249-0.575-0.163-0.877c0.953-3.336 0.94-6.628 0.013-9.409-0.102-0.305-0.050-0.64 0.137-0.901s0.49-0.415 0.811-0.415c1.154 0 2.075 0.255 2.825 0.674 0.743 0.416 1.26 0.962 1.649 1.458 0.183 0.233 0.344 0.463 0.48 0.658l0.020 0.029c0.148 0.211 0.259 0.368 0.364 0.494 0.087 0.104 0.143 0.155 0.174 0.179 0.031-0.010 0.089-0.032 0.177-0.077 0.087-0.044 0.184-0.099 0.295-0.168-0.354-0.521-0.574-1.048-0.628-1.572-0.098-0.939 0.354-1.712 1.106-2.117 0.69-0.372 1.543-0.396 2.342-0.189 0.692 0.18 1.402 0.545 2.053 1.102 0.411-0.167 0.847-0.327 1.31-0.475-0.193-0.671-0.167-1.348 0.068-1.967zM16.107 9.738c-0.073 0.193-0.1 0.445-0.003 0.746 1.049-0.221 2.212-0.381 3.501-0.448-1.057-1.123-2.095-1.205-2.676-1.021-0.425 0.135-0.706 0.417-0.822 0.722zM10.633 19.653c-0.494-0.068-0.955-0.107-1.374-0.128-0.020 0.072-0.040 0.14-0.059 0.205-0.030 0.104-0.057 0.198-0.081 0.282-0.057 0.204-0.088 0.336-0.104 0.424 0.063 0.029 0.159 0.069 0.301 0.116 0.306 0.102 0.55 0.043 0.852-0.258 0.164-0.164 0.321-0.383 0.465-0.64zM10.304 12.304c-0.467-0.121-0.77-0.052-0.892 0.014-0.027 0.015-0.043 0.027-0.050 0.035s-0.009 0.010-0.009 0.011c-0 0.001-0.003 0.006-0.005 0.018s-0.005 0.040-0.001 0.085c0.013 0.126 0.085 0.355 0.309 0.679 0.337-0.215 0.709-0.443 1.117-0.671-0.163-0.076-0.321-0.133-0.469-0.171zM8.593 16.199c-0.292 0.148-0.671 0.301-1.093 0.301-0.832 0-1.369-0.511-1.698-0.907-0.168-0.202-0.327-0.429-0.466-0.627l-0.011-0.016c-0.143-0.204-0.276-0.394-0.424-0.582-0.298-0.379-0.625-0.708-1.054-0.948-0.141-0.079-0.3-0.152-0.48-0.214 0.52 2.361 0.507 4.924-0.022 7.502 0.062-0.032 0.121-0.066 0.178-0.101 0.376-0.236 0.682-0.565 1.003-0.974 0.068-0.087 0.142-0.185 0.222-0.29 0.247-0.326 0.541-0.716 0.842-1.011 0.453-0.442 1.065-0.831 1.91-0.831 0.079 0 0.167-0.001 0.263-0.001 0.848-0.006 2.325-0.015 4.093 0.331 0.075-0.086 0.153-0.169 0.231-0.248 0.794-0.795 1.976-1.462 3.008-1.576 0.549-0.061 1.043 0.334 1.104 0.884s-0.335 1.043-0.883 1.104c-0.468 0.052-1.251 0.438-1.814 1.002-0.272 0.272-0.422 0.518-0.477 0.694-0.046 0.144-0.023 0.202 0.013 0.256 0.431 0.646 0.726 0.765 0.829 0.786 0.082 0.017 0.244 0.013 0.548-0.216 0.308-0.233 0.64-0.611 0.988-1.093 0.286-0.396 0.549-0.811 0.803-1.214 0.052-0.082 0.104-0.164 0.155-0.245 0.297-0.466 0.915-0.603 1.381-0.307s0.603 0.915 0.307 1.381c-0.045 0.071-0.092 0.145-0.14 0.222l-0.081 0.128 0.2 0.049c0.185 0.046 0.369 0.091 0.55 0.135 0.803-0.982 1.869-1.742 3.088-2.173 0.521-0.184 1.092 0.089 1.276 0.61s-0.089 1.092-0.61 1.276c-0.483 0.171-0.932 0.414-1.334 0.716 1.664 0 3.171-0.343 4.355-0.895-0.308-0.261-0.439-0.694-0.297-1.097 0.184-0.521 0.755-0.794 1.276-0.61 0.309 0.109 0.607 0.239 0.895 0.389 0.523-0.579 0.772-1.197 0.772-1.787 0-0.912-0.594-1.888-1.873-2.688-1.265-0.791-3.075-1.313-5.127-1.313-4.316 0-7.152 1.074-9.084 2.128-0.822 0.448-1.481 0.892-2.057 1.281-0.112 0.076-0.221 0.149-0.328 0.22-0.316 0.211-0.636 0.417-0.938 0.57zM7.543 14.509c0 0.001-0.004-0-0.012-0.005 0.008 0.002 0.012 0.005 0.012 0.005z"></path>
</svg>
