<!-- Generated by IcoMoon.io -->
<svg version="1.1" xmlns="http://www.w3.org/2000/svg" width="32" height="32" viewBox="0 0 32 32">
<title>fish</title>
<path d="M23 8c0.552 0 1-0.448 1-1s-0.448-1-1-1c-0.552 0-1 0.448-1 1s0.448 1 1 1z"></path>
<path d="M29.889 6.111h-2v-3.77l-0.779-0.098c-0.703-0.088-1.413-0.132-2.11-0.132-3.882 0-7.461 1.318-10.317 3.527-2.318-0.494-4.971 0.832-6.44 1.567-0.886 0.442-1.412 1.201-1.482 2.137-0.1 1.32 0.752 2.808 2.302 4.067-0.532 1.512-0.854 3.122-0.932 4.795-0.268-0.044-0.538-0.073-0.81-0.085-2.079-0.095-4.066 0.739-5.451 2.285-0.398 0.445-0.494 1.058-0.251 1.6 0.241 0.538 0.778 0.884 1.367 0.884h0.014c3.37 0 6.111 2.741 6.111 6.111v0.011c-0.001 0.592 0.346 1.13 0.884 1.371 0.199 0.089 0.407 0.132 0.612 0.132 0.357 0 0.707-0.131 0.988-0.383 1.548-1.387 2.381-3.373 2.287-5.451-0.012-0.271-0.041-0.542-0.085-0.809 1.759-0.082 3.448-0.436 5.027-1.017 1.145 1.31 2.427 2.036 3.617 2.036 0.089 0 0.178-0.005 0.267-0.012 0.913-0.085 1.655-0.61 2.089-1.479 0.744-1.488 1.959-3.917 1.62-6.15 2.178-2.845 3.473-6.398 3.473-10.248v-0.889zM8.533 9.476c0.014-0.191 0.082-0.47 0.506-0.681 0.908-0.453 2.344-1.171 3.711-1.41-1.199 1.263-2.203 2.711-2.969 4.297-0.959-0.893-1.286-1.712-1.248-2.206zM23.204 22.602c-0.208 0.416-0.479 0.487-0.665 0.503-0.439 0.041-1.168-0.22-1.983-1.006 1.452-0.73 2.785-1.663 3.962-2.763-0.297 1.231-0.913 2.466-1.314 3.266zM26.672 13.433c-3.143-1.011-5.831-3.091-7.611-5.909l-1.503 0.95c1.942 3.073 4.844 5.369 8.245 6.543-2.675 4.258-7.414 7.093-12.803 7.093-0.11 0-0.219-0.002-0.328-0.005l-1.291-0.028 0.434 1.215c0.17 0.474 0.267 0.968 0.29 1.467 0.060 1.326-0.388 2.601-1.243 3.587-0.316-3.831-3.379-6.895-7.21-7.21 0.986-0.856 2.26-1.305 3.587-1.243 0.499 0.022 0.992 0.12 1.467 0.29l1.216 0.434-0.028-1.291c-0.002-0.109-0.004-0.218-0.004-0.328 0-8.332 6.779-15.111 15.111-15.111 0.368 0 0.739 0.013 1.111 0.041v3.959h1.974c-0.116 1.973-0.611 3.846-1.413 5.544z"></path>
</svg>
