<!-- Generated by IcoMoon.io -->
<svg version="1.1" xmlns="http://www.w3.org/2000/svg" width="20" height="20" viewBox="0 0 20 20">
<title>flag</title>
<path d="M17.119 3.099c-0.003 0.002-0.009 0.007-0.019 0.014-0.018 0.013-0.048 0.034-0.088 0.060-0.081 0.053-0.203 0.13-0.363 0.216-0.321 0.173-0.785 0.381-1.352 0.52-1.121 0.274-2.655 0.281-4.329-0.836-2.014-1.344-3.917-1.351-5.312-1.010-0.691 0.169-1.254 0.422-1.646 0.633-0.197 0.106-0.352 0.202-0.46 0.274-0.054 0.036-0.097 0.066-0.127 0.087-0.015 0.011-0.027 0.020-0.036 0.027l-0.011 0.008-0.005 0.004-0.001 0c-0.003 0.002-0.001 0-0.001 0-0.155 0.119-0.245 0.305-0.245 0.501v14.519c0 0.348 0.28 0.631 0.625 0.631s0.625-0.282 0.625-0.631v-4.084c0.064-0.039 0.139-0.082 0.225-0.129 0.321-0.173 0.785-0.382 1.352-0.52 1.121-0.274 2.655-0.281 4.329 0.836 2.014 1.344 3.917 1.351 5.312 1.010 0.691-0.169 1.254-0.422 1.646-0.633 0.197-0.106 0.352-0.202 0.46-0.274 0.054-0.036 0.097-0.066 0.127-0.087 0.007-0.005 0.013-0.009 0.019-0.013 0.007-0.005 0.013-0.009 0.018-0.013l0.011-0.008 0.004-0.003 0.001-0.001 0.001-0c0 0 0.001-0-0.379-0.502l0.38 0.501c0.155-0.119 0.245-0.305 0.245-0.501v-10.096c0-0.24-0.135-0.459-0.348-0.566s-0.466-0.082-0.655 0.063l-0.001 0.001-0.001 0.001zM4.375 12.611v-8.672c0.064-0.039 0.139-0.082 0.225-0.129 0.321-0.173 0.785-0.381 1.352-0.52 1.121-0.274 2.655-0.281 4.329 0.836 2.014 1.344 3.917 1.351 5.312 1.010 0.5-0.122 0.933-0.288 1.283-0.451v8.672c-0.064 0.039-0.139 0.082-0.225 0.129-0.321 0.173-0.785 0.381-1.352 0.52-1.121 0.274-2.655 0.281-4.329-0.836-2.014-1.344-3.917-1.351-5.312-1.010-0.5 0.122-0.933 0.288-1.283 0.451z"></path>
</svg>
