<!-- Generated by IcoMoon.io -->
<svg version="1.1" xmlns="http://www.w3.org/2000/svg" width="32" height="32" viewBox="0 0 32 32">
<title>flame</title>
<path d="M8.1 13.4c0-6.252 5.048-11.4 11.5-11.4h0.7c0.394 0 0.751 0.231 0.912 0.59s0.097 0.78-0.165 1.074c-1.435 1.615-2.247 3.678-2.247 6.036 0 0.108 0.002 0.217 0.006 0.325 0.594-1.118 1.375-2.13 2.332-2.975 0.295-0.26 0.715-0.323 1.073-0.162s0.589 0.518 0.589 0.912v0.7c0 2.463 1.114 5 2.307 6.193l0.015 0.015c2.631 2.745 2.289 5.954 2.054 7.009-0.004 0.017-0.008 0.035-0.013 0.052-1.319 4.727-5.709 8.231-10.963 8.231-6.252 0-11.4-5.148-11.4-11.4 0-1.446 0.332-2.863 0.76-4.042 0.135-0.372 0.477-0.629 0.872-0.656s0.768 0.182 0.953 0.532c0.284 0.54 0.624 1.046 1.011 1.515-0.193-0.816-0.296-1.668-0.296-2.549zM18.281 4.088c-4.696 0.632-8.181 4.596-8.181 9.312 0 1.979 0.627 3.78 1.717 5.323 0.267 0.378 0.239 0.889-0.065 1.236s-0.808 0.441-1.217 0.225c-1.38-0.726-2.624-1.702-3.628-2.898-0.068 0.435-0.107 0.876-0.107 1.314 0 5.148 4.252 9.4 9.4 9.4 4.336 0 7.939-2.883 9.029-6.742 0.165-0.771 0.396-3.128-1.544-5.159-1.273-1.278-2.344-3.471-2.731-5.788-0.678 1.053-1.144 2.266-1.369 3.56-0.076 0.438-0.432 0.773-0.874 0.822s-0.863-0.199-1.034-0.609c-0.549-1.317-0.877-2.848-0.877-4.385 0-2.063 0.52-3.965 1.481-5.612z"></path>
</svg>
