<!-- Generated by IcoMoon.io -->
<svg version="1.1" xmlns="http://www.w3.org/2000/svg" width="20" height="20" viewBox="0 0 20 20">
<title>flame</title>
<path d="M5.063 8.375c0-3.908 3.155-7.125 7.188-7.125h0.438c0.246 0 0.469 0.144 0.57 0.369s0.061 0.487-0.103 0.671c-0.897 1.009-1.405 2.298-1.405 3.772 0 0.068 0.001 0.135 0.004 0.203 0.371-0.699 0.859-1.331 1.458-1.859 0.184-0.163 0.447-0.202 0.671-0.101s0.368 0.324 0.368 0.57v0.438c0 1.54 0.696 3.125 1.442 3.871l0.009 0.009c1.644 1.716 1.43 3.721 1.284 4.381-0.002 0.011-0.005 0.022-0.008 0.032-0.824 2.954-3.568 5.144-6.852 5.144-3.908 0-7.125-3.217-7.125-7.125 0-0.904 0.207-1.79 0.475-2.526 0.085-0.232 0.298-0.393 0.545-0.41s0.48 0.114 0.595 0.332c0.178 0.338 0.39 0.654 0.632 0.947-0.121-0.51-0.185-1.043-0.185-1.593zM11.425 2.555c-2.935 0.395-5.113 2.873-5.113 5.82 0 1.237 0.392 2.362 1.073 3.327 0.167 0.236 0.15 0.556-0.041 0.773s-0.505 0.275-0.761 0.141c-0.862-0.454-1.64-1.064-2.267-1.812-0.043 0.272-0.067 0.548-0.067 0.821 0 3.217 2.658 5.875 5.875 5.875 2.71 0 4.962-1.802 5.643-4.214 0.103-0.482 0.247-1.955-0.965-3.224-0.796-0.799-1.465-2.169-1.707-3.617-0.424 0.658-0.715 1.416-0.856 2.225-0.048 0.274-0.27 0.483-0.546 0.514s-0.539-0.124-0.646-0.381c-0.343-0.823-0.548-1.78-0.548-2.74 0-1.289 0.325-2.478 0.925-3.508z"></path>
</svg>
