<!-- Generated by IcoMoon.io -->
<svg version="1.1" xmlns="http://www.w3.org/2000/svg" width="32" height="32" viewBox="0 0 32 32">
<title>floppy</title>
<path d="M6 30c-2.252 0-4-1.748-4-4v-20c0-2.252 1.748-4 4-4h18.414l5.586 5.586v18.414c0 2.252-1.748 4-4 4h-20zM6 4c-1.148 0-2 0.852-2 2v20c0 1.148 0.852 2 2 2v-10c0-0.552 0.448-1 1-1h18c0.552 0 1 0.448 1 1v10c1.148 0 2-0.852 2-2v-17.586l-4-4v8.586c0 0.552-0.448 1-1 1h-14c-0.552 0-1-0.448-1-1v-9h-2zM24 28v-9h-16v9h16zM20 10h-3v-6h-7v8h12v-8h-2v6z"></path>
</svg>
