<!-- Generated by IcoMoon.io -->
<svg version="1.1" xmlns="http://www.w3.org/2000/svg" width="20" height="20" viewBox="0 0 20 20">
<title>floppy</title>
<path d="M3.75 18.75c-1.408 0-2.5-1.092-2.5-2.5v-12.5c0-1.408 1.092-2.5 2.5-2.5h11.509l3.491 3.491v11.509c0 1.408-1.092 2.5-2.5 2.5h-12.5zM3.75 2.5c-0.717 0-1.25 0.533-1.25 1.25v12.5c0 0.717 0.533 1.25 1.25 1.25v-6.25c0-0.345 0.28-0.625 0.625-0.625h11.25c0.345 0 0.625 0.28 0.625 0.625v6.25c0.717 0 1.25-0.533 1.25-1.25v-10.991l-2.5-2.5v5.366c0 0.345-0.28 0.625-0.625 0.625h-8.75c-0.345 0-0.625-0.28-0.625-0.625v-5.625h-1.25zM15 17.5v-5.625h-10v5.625h10zM12.5 6.25h-1.875v-3.75h-4.375v5h7.5v-5h-1.25v3.75z"></path>
</svg>
