<!-- Generated by IcoMoon.io -->
<svg version="1.1" xmlns="http://www.w3.org/2000/svg" width="32" height="32" viewBox="0 0 32 32">
<title>focus</title>
<path d="M7 3c-2.252 0-4 1.748-4 4v4c0 0.552 0.448 1 1 1s1-0.448 1-1v-4c0-1.148 0.852-2 2-2h4c0.552 0 1-0.448 1-1s-0.448-1-1-1h-4z"></path>
<path d="M21 3c-0.552 0-1 0.448-1 1s0.448 1 1 1h4c1.148 0 2 0.852 2 2v4c0 0.552 0.448 1 1 1s1-0.448 1-1v-4c0-2.252-1.748-4-4-4h-4z"></path>
<path d="M28 20c0.552 0 1 0.448 1 1v4c0 2.252-1.748 4-4 4h-4c-0.552 0-1-0.448-1-1s0.448-1 1-1h4c1.148 0 2-0.852 2-2v-4c0-0.552 0.448-1 1-1z"></path>
<path d="M5 21c0-0.552-0.448-1-1-1s-1 0.448-1 1v4c0 2.252 1.748 4 4 4h4c0.552 0 1-0.448 1-1s-0.448-1-1-1h-4c-1.148 0-2-0.852-2-2v-4z"></path>
<path d="M9 16c0 3.866 3.134 7 7 7s7-3.134 7-7c0-3.866-3.134-7-7-7s-7 3.134-7 7zM20.9 17c-0.463 2.282-2.481 4-4.9 4s-4.437-1.718-4.9-4h9.8zM20.9 15h-9.8c0.463-2.282 2.481-4 4.9-4s4.437 1.718 4.9 4z"></path>
</svg>
