<!-- Generated by IcoMoon.io -->
<svg version="1.1" xmlns="http://www.w3.org/2000/svg" width="32" height="32" viewBox="0 0 32 32">
<title>folder-symlink</title>
<path d="M11 22c0-2.252 1.748-4 4-4h3.586l-1.293-1.293c-0.39-0.39-0.39-1.024 0-1.414s1.024-0.39 1.414 0l3.707 3.707-3.707 3.707c-0.39 0.39-1.024 0.39-1.414 0s-0.39-1.024 0-1.414l1.293-1.293h-3.586c-1.148 0-2 0.852-2 2 0 0.552-0.448 1-1 1s-1-0.448-1-1z"></path>
<path d="M30 23v-12c0-2.752-2.248-5-5-5h-10.586l-2-2h-5.414c-2.752 0-5 2.248-5 5v14c0 2.752 2.248 5 5 5h18c2.752 0 5-2.248 5-5zM4 9c0-1.648 1.352-3 3-3h4.586l6 6h7.414c1.648 0 3 1.352 3 3v8c0 1.648-1.352 3-3 3h-18c-1.648 0-3-1.352-3-3v-14zM28 11.005c-0.837-0.631-1.876-1.005-3-1.005h-6.586l-2-2h8.586c1.648 0 3 1.352 3 3v0.005z"></path>
</svg>
