<!-- Generated by IcoMoon.io -->
<svg version="1.1" xmlns="http://www.w3.org/2000/svg" width="20" height="20" viewBox="0 0 20 20">
<title>folder-share</title>
<path d="M4.375 3.75h2.866l3.75 3.75h4.634c1.030 0 1.875 0.845 1.875 1.875 0 0.345 0.28 0.625 0.625 0.625s0.625-0.28 0.625-0.625v-2.5c0-1.72-1.405-3.125-3.125-3.125h-6.616l-1.25-1.25h-3.384c-1.72 0-3.125 1.405-3.125 3.125v8.75c0 1.72 1.405 3.125 3.125 3.125h4.375c0.345 0 0.625-0.28 0.625-0.625s-0.28-0.625-0.625-0.625h-4.375c-1.030 0-1.875-0.845-1.875-1.875v-8.75c0-1.030 0.845-1.875 1.875-1.875zM11.509 6.25l-1.25-1.25h5.366c1.030 0 1.875 0.845 1.875 1.875v0.003c-0.523-0.394-1.173-0.628-1.875-0.628h-4.116z"></path>
<path d="M12.438 13.063c0-0.345 0.28-0.625 0.625-0.625h3.25v3.25c0 0.345-0.28 0.625-0.625 0.625s-0.625-0.28-0.625-0.625v-1.116l-0.308 0.308c-0.266 0.266-0.379 0.547-0.379 0.871v0.5c0 0.345-0.28 0.625-0.625 0.625s-0.625-0.28-0.625-0.625v-0.5c0-0.677 0.261-1.27 0.746-1.754l0.308-0.308h-1.116c-0.345 0-0.625-0.28-0.625-0.625z"></path>
<path d="M14.375 9.375c-2.761 0-5 2.239-5 5s2.239 5 5 5c2.761 0 5-2.239 5-5s-2.239-5-5-5zM10.625 14.375c0-2.071 1.679-3.75 3.75-3.75s3.75 1.679 3.75 3.75c0 2.071-1.679 3.75-3.75 3.75s-3.75-1.679-3.75-3.75z"></path>
</svg>
