<!-- Generated by IcoMoon.io -->
<svg version="1.1" xmlns="http://www.w3.org/2000/svg" width="20" height="20" viewBox="0 0 20 20">
<title>folder</title>
<path d="M18.75 14.375v-7.5c0-1.72-1.405-3.125-3.125-3.125h-6.616l-1.25-1.25h-3.384c-1.72 0-3.125 1.405-3.125 3.125v8.75c0 1.72 1.405 3.125 3.125 3.125h11.25c1.72 0 3.125-1.405 3.125-3.125zM2.5 5.625c0-1.030 0.845-1.875 1.875-1.875h2.866l3.75 3.75h4.634c1.030 0 1.875 0.845 1.875 1.875v5c0 1.030-0.845 1.875-1.875 1.875h-11.25c-1.030 0-1.875-0.845-1.875-1.875v-8.75zM17.5 6.878c-0.523-0.394-1.173-0.628-1.875-0.628h-4.116l-1.25-1.25h5.366c1.030 0 1.875 0.845 1.875 1.875v0.003z"></path>
</svg>
