<!-- Generated by IcoMoon.io -->
<svg version="1.1" xmlns="http://www.w3.org/2000/svg" width="20" height="20" viewBox="0 0 20 20">
<title>frame</title>
<path d="M4.375 1.875c-1.408 0-2.5 1.092-2.5 2.5v2.5c0 0.345 0.28 0.625 0.625 0.625s0.625-0.28 0.625-0.625v-2.5c0-0.717 0.533-1.25 1.25-1.25h2.5c0.345 0 0.625-0.28 0.625-0.625s-0.28-0.625-0.625-0.625h-2.5z"></path>
<path d="M13.125 1.875c-0.345 0-0.625 0.28-0.625 0.625s0.28 0.625 0.625 0.625h2.5c0.717 0 1.25 0.533 1.25 1.25v2.5c0 0.345 0.28 0.625 0.625 0.625s0.625-0.28 0.625-0.625v-2.5c0-1.408-1.092-2.5-2.5-2.5h-2.5z"></path>
<path d="M17.5 12.5c0.345 0 0.625 0.28 0.625 0.625v2.5c0 1.408-1.092 2.5-2.5 2.5h-2.5c-0.345 0-0.625-0.28-0.625-0.625s0.28-0.625 0.625-0.625h2.5c0.717 0 1.25-0.533 1.25-1.25v-2.5c0-0.345 0.28-0.625 0.625-0.625z"></path>
<path d="M3.125 13.125c0-0.345-0.28-0.625-0.625-0.625s-0.625 0.28-0.625 0.625v2.5c0 1.408 1.092 2.5 2.5 2.5h2.5c0.345 0 0.625-0.28 0.625-0.625s-0.28-0.625-0.625-0.625h-2.5c-0.717 0-1.25-0.533-1.25-1.25v-2.5z"></path>
</svg>
