<!-- Generated by IcoMoon.io -->
<svg version="1.1" xmlns="http://www.w3.org/2000/svg" width="20" height="20" viewBox="0 0 20 20">
<title>frontapp</title>
<path d="M0.9 7.269c0.225-1.814 1.002-3.516 2.225-4.875 0.073-0.096 0.167-0.174 0.276-0.226s0.228-0.078 0.349-0.074c1.138 0 2.281 0.056 3.419 0 0.142-0.010 0.283-0.010 0.425 0 0.782 0.006 1.534 0.305 2.106 0.838 0.068 0.067 0.16 0.106 0.256 0.106 0.096-0.002 0.187-0.040 0.256-0.106 0.25-0.194 0.519-0.363 0.762-0.556 0.21-0.149 0.461-0.23 0.719-0.231h4.556c0.115-0 0.228 0.026 0.331 0.077s0.193 0.125 0.262 0.217c1.487 1.642 2.309 3.779 2.306 5.994 0 0.281 0 0.55-0.038 0.819v-0.069c-0.198 2.197-1.181 4.248-2.769 5.779s-3.674 2.437-5.877 2.554c-2.202 0.117-4.373-0.564-6.114-1.918s-2.936-3.29-3.365-5.453v-0.056c-0.108-0.571-0.162-1.15-0.162-1.731-0-0.385 0.025-0.769 0.075-1.15v0.062zM15.856 2.931c-0.063-0.031-0.134-0.038-0.202-0.021s-0.127 0.058-0.167 0.115c-1.667 1.2-3.333 2.408-5 3.625-0.438 0.313-0.494 0.313-0.925 0l-4.975-3.588c-0.106-0.087-0.212-0.237-0.438-0.131 0.362 0.362 0.7 0.694 1.063 1.044s0.337 0.344 0.037 0.738c-0.852 1.045-1.316 2.352-1.312 3.7-0.001 0.382 0.037 0.763 0.113 1.137v-0.037c0.219 1.206 0.8 2.316 1.664 3.185s1.973 1.454 3.177 1.679 2.449 0.079 3.569-0.419c1.12-0.498 2.062-1.324 2.702-2.37 0.635-1.057 0.929-2.285 0.84-3.516s-0.554-2.404-1.334-3.359c-0.219-0.269-0.2-0.444 0.044-0.625 0.388-0.356 0.744-0.731 1.119-1.1l0.025-0.056z"></path>
</svg>
