<!-- Generated by IcoMoon.io -->
<svg version="1.1" xmlns="http://www.w3.org/2000/svg" width="20" height="20" viewBox="0 0 20 20">
<title>gauge</title>
<path d="M10 4.993c0.313 0 0.579 0.001 0.897 0.054 0.341 0.057 0.662-0.173 0.719-0.514s-0.173-0.662-0.514-0.719c-0.426-0.071-0.782-0.071-1.091-0.071h-0.012c-0.345 0-0.625 0.28-0.625 0.625s0.28 0.625 0.625 0.625z"></path>
<path d="M14.504 6.372c0.244-0.244 0.244-0.64 0-0.884s-0.64-0.244-0.884 0l-2.812 2.812c-0.245-0.117-0.519-0.183-0.808-0.183-1.036 0-1.875 0.839-1.875 1.875s0.839 1.875 1.875 1.875 1.875-0.839 1.875-1.875c0-0.289-0.066-0.564-0.183-0.808l2.812-2.812zM9.375 9.993c0-0.345 0.28-0.625 0.625-0.625s0.625 0.28 0.625 0.625c0 0.345-0.28 0.625-0.625 0.625s-0.625-0.28-0.625-0.625z"></path>
<path d="M15.625 9.368c0.345 0 0.625 0.28 0.625 0.625 0 1.601-0.626 3.191-1.796 4.429-0.237 0.251-0.633 0.262-0.883 0.025s-0.262-0.633-0.025-0.884c0.955-1.012 1.454-2.297 1.454-3.571 0-0.345 0.28-0.625 0.625-0.625z"></path>
<path d="M7.25 4.993c0.207 0.276 0.151 0.668-0.125 0.875-0.253 0.189-0.469 0.353-0.683 0.567-0.244 0.244-0.64 0.244-0.884 0s-0.244-0.64 0-0.884c0.282-0.282 0.562-0.492 0.806-0.675l0.011-0.008c0.276-0.207 0.668-0.151 0.875 0.125z"></path>
<path d="M5.054 9.096c0.057-0.341-0.173-0.663-0.514-0.719s-0.662 0.173-0.719 0.514c-0.071 0.426-0.071 0.782-0.071 1.091v0.012c0 0.345 0.28 0.625 0.625 0.625s0.625-0.28 0.625-0.625c0-0.314 0.001-0.579 0.054-0.897z"></path>
<path d="M5 12.743c0.276-0.207 0.668-0.151 0.875 0.125 0.19 0.253 0.353 0.469 0.567 0.683 0.244 0.244 0.244 0.64 0 0.884s-0.64 0.244-0.884 0c-0.282-0.282-0.492-0.562-0.675-0.806l-0.008-0.011c-0.207-0.276-0.151-0.668 0.125-0.875z"></path>
<path d="M18.75 9.993c0-5.179-4.443-9.287-9.755-8.684-3.916 0.407-7.071 3.506-7.675 7.4l-0.001 0.007c-0.539 3.77 1.351 7.133 4.301 8.877l0.004 0.002 0.004 0.002c0.884 0.505 1.873-0.16 1.873-1.105v-0.25h5v0.25c0 0.945 0.988 1.61 1.873 1.105l0.007-0.004c2.618-1.544 4.37-4.368 4.37-7.601zM9.133 2.551c4.561-0.52 8.367 2.997 8.367 7.442 0 2.765-1.495 5.188-3.748 6.52-0.001-0.004-0.002-0.010-0.002-0.020v-0.25c0-0.33-0.113-0.653-0.355-0.895s-0.566-0.355-0.895-0.355h-5c-0.329 0-0.653 0.113-0.895 0.355s-0.355 0.566-0.355 0.895v0.25c0 0.009-0.001 0.016-0.002 0.020-2.545-1.507-4.151-4.39-3.692-7.615 0.522-3.353 3.24-6.001 6.571-6.345l0.006-0.001z"></path>
</svg>
