<!-- Generated by IcoMoon.io -->
<svg version="1.1" xmlns="http://www.w3.org/2000/svg" width="32" height="32" viewBox="0 0 32 32">
<title>gauge</title>
<path d="M16 7.988c0.502 0 0.926 0.002 1.436 0.086 0.545 0.091 1.060-0.277 1.151-0.822s-0.277-1.060-0.822-1.151c-0.682-0.114-1.251-0.114-1.745-0.114h-0.019c-0.552 0-1 0.448-1 1s0.448 1 1 1z"></path>
<path d="M23.207 10.196c0.39-0.391 0.39-1.024 0-1.414s-1.024-0.391-1.414 0l-4.5 4.499c-0.392-0.187-0.83-0.292-1.293-0.292-1.657 0-3 1.343-3 3s1.343 3 3 3 3-1.343 3-3c0-0.463-0.105-0.902-0.292-1.293l4.5-4.499zM15 15.989c0-0.552 0.448-1 1-1s1 0.448 1 1c0 0.552-0.448 1-1 1s-1-0.448-1-1z"></path>
<path d="M25 14.989c0.552 0 1 0.448 1 1 0 2.561-1.002 5.105-2.873 7.087-0.379 0.401-1.012 0.42-1.414 0.040s-0.42-1.012-0.040-1.414c1.529-1.619 2.327-3.675 2.327-5.713 0-0.552 0.448-1 1-1z"></path>
<path d="M11.6 7.988c0.331 0.442 0.242 1.069-0.2 1.4-0.404 0.303-0.75 0.564-1.093 0.907-0.39 0.391-1.024 0.391-1.414 0s-0.391-1.024 0-1.414c0.45-0.45 0.898-0.786 1.29-1.080l0.017-0.013c0.442-0.331 1.069-0.242 1.4 0.2z"></path>
<path d="M8.086 14.553c0.091-0.545-0.277-1.060-0.822-1.151s-1.060 0.277-1.151 0.822c-0.114 0.682-0.114 1.251-0.114 1.745v0.019c0 0.552 0.448 1 1 1s1-0.448 1-1c0-0.502 0.002-0.926 0.086-1.436z"></path>
<path d="M8 20.389c0.442-0.331 1.069-0.242 1.4 0.2 0.303 0.404 0.564 0.75 0.907 1.093 0.39 0.39 0.39 1.024 0 1.414s-1.024 0.39-1.414 0c-0.45-0.451-0.786-0.898-1.080-1.29l-0.013-0.017c-0.331-0.442-0.242-1.069 0.2-1.4z"></path>
<path d="M30 15.989c0-8.287-7.108-14.86-15.608-13.894-6.266 0.651-11.313 5.61-12.28 11.841l-0.002 0.012c-0.862 6.033 2.161 11.413 6.881 14.202l0.006 0.004 0.006 0.004c1.415 0.808 2.996-0.256 2.996-1.768v-0.4h8v0.4c0 1.512 1.581 2.577 2.996 1.768l0.012-0.007c4.189-2.47 6.992-6.989 6.992-12.161zM14.613 4.082c7.298-0.831 13.387 4.795 13.387 11.906 0 4.423-2.392 8.301-5.997 10.432-0.002-0.006-0.003-0.017-0.003-0.032v-0.4c0-0.527-0.18-1.044-0.568-1.432s-0.905-0.568-1.432-0.568h-8c-0.527 0-1.044 0.18-1.432 0.568s-0.568 0.905-0.568 1.432v0.4c0 0.015-0.002 0.026-0.003 0.032-4.072-2.412-6.642-7.025-5.908-12.184 0.835-5.364 5.184-9.601 10.514-10.153l0.010-0.001z"></path>
</svg>
