<!-- Generated by IcoMoon.io -->
<svg version="1.1" xmlns="http://www.w3.org/2000/svg" width="20" height="20" viewBox="0 0 20 20">
<title>gears</title>
<path d="M15.5 5.447c0 0.375-0.25 0.625-0.625 0.625s-0.625-0.25-0.625-0.625c0-0.375 0.25-0.625 0.625-0.625s0.625 0.25 0.625 0.625zM13.5 10.947c0.25 0.25 0.25 0.5 0.25 1.25s0 1-0.25 1.25c-0.125 0.125-0.25 0.25-1.438 0.5l-0.063 0.25c0.625 1.063 0.625 1.25 0.625 1.375 0 0.313-0.188 0.563-0.688 1.063s-0.688 0.688-1.062 0.688c-0.125 0-0.313 0-1.375-0.625l-0.25 0.063c-0.313 1.188-0.438 1.313-0.5 1.438-0.25 0.25-0.5 0.25-1.25 0.25s-1 0-1.25-0.25c-0.125-0.125-0.25-0.25-0.5-1.438l-0.25-0.063c-1.063 0.625-1.25 0.625-1.375 0.625-0.313 0-0.563-0.188-1.063-0.688s-0.688-0.688-0.688-1.063c0-0.125 0-0.313 0.625-1.375l-0.063-0.25c-1.187-0.313-1.312-0.437-1.437-0.5-0.25-0.25-0.25-0.5-0.25-1.25s0-1 0.25-1.25c0.125-0.125 0.25-0.25 1.437-0.5l0.063-0.25c-0.625-1.062-0.625-1.25-0.625-1.375 0-0.313 0.188-0.563 0.688-1.063s0.687-0.688 1.063-0.688c0.125 0 0.313 0 1.375 0.625l0.25-0.063c0.313-1.188 0.438-1.312 0.5-1.437 0.25-0.25 0.5-0.25 1.25-0.25s1 0 1.25 0.25c0.125 0.125 0.25 0.25 0.5 1.437l0.25 0.063c1.063-0.625 1.25-0.625 1.375-0.625 0.313 0 0.562 0.188 1.062 0.688s0.688 0.688 0.688 1.063c0 0.125 0 0.313-0.625 1.375l0.063 0.25c1.188 0.25 1.313 0.375 1.438 0.5zM12.5 12.197c0-0.125 0-0.25 0-0.375-0.25-0.063-0.688-0.188-1-0.25-0.188-0.063-0.375-0.188-0.438-0.375l-0.313-0.813c-0.063-0.188-0.063-0.375 0.063-0.563 0.188-0.313 0.375-0.687 0.5-0.938-0.063-0.062-0.125-0.125-0.25-0.25s-0.188-0.188-0.25-0.25c-0.25 0.125-0.625 0.313-0.938 0.5-0.188 0.125-0.375 0.125-0.563 0.063l-0.813-0.313c-0.188-0.063-0.313-0.25-0.375-0.437-0.063-0.375-0.188-0.75-0.25-1-0.188 0-0.5 0-0.75 0-0.063 0.25-0.188 0.688-0.25 1-0.062 0.188-0.188 0.375-0.375 0.437l-0.813 0.313c-0.188 0.063-0.375 0.063-0.563-0.063-0.313-0.188-0.688-0.375-0.938-0.5-0.063 0.063-0.188 0.125-0.25 0.25-0.125 0.125-0.188 0.188-0.25 0.25 0.125 0.25 0.313 0.625 0.5 0.938 0.125 0.188 0.125 0.375 0.063 0.563l-0.313 0.813c-0.062 0.188-0.188 0.313-0.438 0.375-0.375 0.063-0.75 0.188-1 0.25 0 0.125 0 0.25 0 0.375s0 0.25 0 0.375c0.25 0.063 0.688 0.188 1 0.25 0.188 0.063 0.375 0.188 0.438 0.375l0.313 0.813c0.063 0.188 0.063 0.375-0.063 0.562-0.187 0.313-0.375 0.688-0.5 0.938 0.062 0.063 0.125 0.188 0.25 0.25 0.125 0.125 0.188 0.188 0.25 0.25 0.25-0.125 0.625-0.313 0.938-0.5 0.188-0.125 0.375-0.125 0.563-0.063l0.813 0.313c0.188 0.063 0.313 0.25 0.375 0.437 0.063 0.375 0.188 0.75 0.25 1 0.188 0 0.5 0 0.75 0 0.063-0.25 0.188-0.688 0.25-1 0.063-0.188 0.188-0.375 0.375-0.437l0.813-0.313c0.188-0.063 0.375-0.063 0.563 0.063 0.313 0.188 0.688 0.375 0.938 0.5 0.063-0.063 0.188-0.125 0.25-0.25 0.125-0.125 0.188-0.188 0.25-0.25-0.125-0.25-0.313-0.625-0.5-0.938-0.125-0.188-0.125-0.375-0.063-0.562l0.313-0.813c0.063-0.188 0.25-0.313 0.438-0.375 0.375-0.063 0.75-0.188 1-0.25 0-0.125 0-0.25 0-0.375zM10 12.197c0 1.375-1.125 2.5-2.5 2.5s-2.5-1.125-2.5-2.5c0-1.375 1.125-2.5 2.5-2.5s2.5 1.125 2.5 2.5zM8.75 12.197c0-0.688-0.563-1.25-1.25-1.25s-1.25 0.563-1.25 1.25c0 0.688 0.563 1.25 1.25 1.25s1.25-0.562 1.25-1.25zM19 6.947c-0.125 0.375-0.313 0.625-0.5 0.938l-0.063 0.062c-0.5 0.5-0.938 0.313-1.125 0.25l-0.938-0.375c-0.125 0.063-0.25 0.125-0.375 0.188l-0.313 1.125c0 0.063 0 0.063-0.063 0.125-0.188 0.313-0.5 0.563-0.875 0.563-0.063 0-0.063 0-0.125 0-0.188-0.063-0.313-0.063-0.438-0.125-0.125 0-0.25-0.063-0.437-0.063-0.063 0-0.125 0-0.125-0.063-0.313-0.188-0.562-0.5-0.562-0.875l0.125-1.25-0.25-0.25h-1.25c-0.438 0-0.75-0.313-0.875-0.625 0-0.063-0.063-0.063-0.063-0.125v-0.063c-0.063-0.25-0.125-0.5-0.125-0.875 0-0.438 0.313-0.813 0.813-0.938l1.125-0.313 0.063-0.125c0.063-0.063 0.063-0.125 0.125-0.188l-0.375-1.125c-0.188-0.5 0-0.938 0.438-1.125 0.25-0.125 0.5-0.25 0.875-0.375 0.375-0.188 0.875 0 1.125 0.437l0.562 0.938c0 0 0.063 0 0.063 0.062h0.063c0.063 0 0.063 0 0.125 0l0.938-0.75c0 0 0.063-0.063 0.125-0.063 0.313-0.125 0.625-0.125 0.938 0 0.063 0 0.063 0.063 0.125 0.063 0.313 0.187 0.5 0.438 0.75 0.75s0.313 0.625 0.063 1.063c0 0.063-0.063 0.125-0.063 0.125l-0.75 0.875c0 0.125 0.063 0.25 0.063 0.375l1 0.625c0.063 0 0.063 0.063 0.125 0.063 0.313 0.5 0.125 0.937 0.063 1.062zM17.75 6.697l-0.938-0.625c-0.063 0-0.063-0.063-0.125-0.063-0.063-0.062-0.25-0.313-0.25-0.687 0-0.125 0-0.25 0-0.375 0-0.063-0.063-0.125-0.063-0.188 0-0.188 0-0.438 0.25-0.688l0.688-0.75c-0.063-0.062-0.125-0.125-0.188-0.187l-0.813 0.625c-0.125 0.062-0.188 0.125-0.313 0.187-0.25 0.125-0.437 0.125-0.625 0-0.063 0-0.063 0-0.125 0s-0.188-0.062-0.313-0.062c-0.313-0.063-0.438-0.188-0.563-0.313 0 0 0-0.063-0.063-0.125l-0.5-0.875c-0.063 0-0.125 0.062-0.188 0.062l0.438 1.188c0.063 0.187 0.063 0.312 0 0.5-0.063 0.125-0.125 0.188-0.188 0.313-0.063 0.063-0.125 0.063-0.125 0.125l-0.188 0.375c-0.063 0.188-0.25 0.25-0.375 0.313l-1.25 0.313c0 0.063 0 0.063 0 0.125h1.125c0.375 0 0.625 0.188 0.688 0.313l0.375 0.375c0.063 0.063 0.313 0.313 0.313 0.688l-0.125 1.125c0.063 0 0.063 0 0.125 0s0.063 0 0.125 0l0.25-0.937c0.063-0.313 0.313-0.563 0.625-0.625 0.125-0.063 0.188-0.063 0.25-0.125 0.375-0.313 0.688-0.25 0.875-0.125l1 0.375c0.125-0.063 0.125-0.125 0.188-0.25z"></path>
</svg>
