<!-- Generated by IcoMoon.io -->
<svg version="1.1" xmlns="http://www.w3.org/2000/svg" width="20" height="20" viewBox="0 0 20 20">
<title>gear</title>
<path d="M9.375 1.25h1.25v0.645c0.837 0.053 1.661 0.211 2.442 0.47 0.975 0.324 1.869 0.802 2.627 1.41s1.37 1.339 1.79 2.153c0.421 0.815 0.641 1.696 0.641 2.59v1.043l-0.922-0.493c-0.004-0.002-0.011-0.006-0.021-0.011-0.020-0.010-0.051-0.025-0.091-0.043-0.081-0.037-0.2-0.088-0.342-0.139-0.292-0.104-0.648-0.195-0.98-0.195-0.281 0-0.606 0.118-0.895 0.273-0.137 0.074-0.253 0.148-0.333 0.203-0.040 0.027-0.070 0.049-0.089 0.064l-0.011 0.009-0.009 0.007-0.353 0.283-0.381-0.245c-0.006-0.004-0.018-0.011-0.036-0.021-0.034-0.020-0.090-0.050-0.167-0.088-0.153-0.076-0.389-0.18-0.703-0.287-0.516-0.174-1.245-0.353-2.168-0.411v5.907h3.168l0.089-1.25h-2.007c-0.345 0-0.625-0.28-0.625-0.625s0.28-0.625 0.625-0.625h2.097l0.092-1.294c0.025-0.344 0.324-0.603 0.668-0.579s0.603 0.324 0.579 0.668l-0.302 4.232 1.197 2.992c0.128 0.321-0.028 0.684-0.348 0.812s-0.684-0.028-0.812-0.348l-1.093-2.732h-3.327v2.5c0 0.345-0.28 0.625-0.625 0.625s-0.625-0.28-0.625-0.625v-2.5h-1.176l-1.39 2.779c-0.154 0.309-0.53 0.434-0.839 0.279s-0.434-0.53-0.28-0.838l1.563-3.125c0.106-0.212 0.322-0.346 0.559-0.346h1.563v-5.907c-0.923 0.058-1.651 0.236-2.168 0.411-0.314 0.106-0.55 0.211-0.703 0.287-0.077 0.038-0.132 0.068-0.167 0.088-0.017 0.010-0.029 0.017-0.036 0.021l-0.381 0.245-0.353-0.283c-0.004-0.003-0.011-0.008-0.020-0.015-0.019-0.014-0.050-0.037-0.089-0.064-0.080-0.055-0.195-0.129-0.333-0.203-0.289-0.155-0.614-0.273-0.895-0.273-0.332 0-0.688 0.091-0.98 0.195-0.142 0.051-0.26 0.101-0.342 0.139-0.041 0.019-0.071 0.034-0.091 0.043-0.010 0.005-0.017 0.008-0.021 0.011l-0.922 0.493v-1.043c0-0.894 0.22-1.775 0.641-2.59s1.031-1.545 1.79-2.153c0.758-0.609 1.652-1.086 2.627-1.41 0.781-0.26 1.605-0.418 2.442-0.47v-0.645zM7.812 3.407c-0.164 0.043-0.325 0.091-0.485 0.144-0.845 0.281-1.605 0.69-2.239 1.199s-1.128 1.106-1.462 1.752c-0.179 0.347-0.311 0.706-0.394 1.071 0.297-0.080 0.642-0.142 0.999-0.142 0.568 0 1.096 0.217 1.456 0.406 0.218-1.642 1.005-3.231 2.126-4.429zM6.985 7.637c0.733-0.229 1.748-0.438 3.015-0.438s2.283 0.209 3.015 0.438c-0.354-1.814-1.526-3.523-3.015-4.421-1.489 0.898-2.661 2.607-3.015 4.421zM15.769 7.431c0.357 0 0.702 0.063 0.999 0.142-0.083-0.364-0.215-0.723-0.394-1.071-0.333-0.646-0.827-1.243-1.462-1.752s-1.394-0.918-2.239-1.199c-0.159-0.053-0.321-0.101-0.485-0.144 1.121 1.199 1.907 2.788 2.126 4.429 0.359-0.189 0.887-0.406 1.456-0.406z"></path>
</svg>
