<!-- Generated by IcoMoon.io -->
<svg version="1.1" xmlns="http://www.w3.org/2000/svg" width="32" height="32" viewBox="0 0 32 32">
<title>gears</title>
<path d="M24.8 8.716c0 0.6-0.4 1-1 1s-1-0.4-1-1c0-0.6 0.4-1 1-1s1 0.4 1 1zM21.6 17.516c0.4 0.4 0.4 0.8 0.4 2s0 1.6-0.4 2c-0.2 0.2-0.4 0.4-2.3 0.8l-0.1 0.4c1 1.7 1 2 1 2.2 0 0.5-0.3 0.9-1.1 1.7s-1.1 1.1-1.7 1.1c-0.2 0-0.5 0-2.2-1l-0.4 0.1c-0.5 1.9-0.7 2.1-0.8 2.3-0.4 0.4-0.8 0.4-2 0.4s-1.6 0-2-0.4c-0.2-0.2-0.4-0.4-0.8-2.3l-0.4-0.1c-1.7 1-2 1-2.2 1-0.5 0-0.9-0.3-1.7-1.1s-1.1-1.1-1.1-1.7c0-0.2 0-0.5 1-2.2l-0.1-0.4c-1.9-0.5-2.1-0.7-2.3-0.8-0.4-0.4-0.4-0.8-0.4-2s0-1.6 0.4-2c0.2-0.2 0.4-0.4 2.3-0.8l0.1-0.4c-1-1.7-1-2-1-2.2 0-0.5 0.3-0.9 1.1-1.7s1.1-1.1 1.7-1.1c0.2 0 0.5 0 2.2 1l0.4-0.1c0.5-1.9 0.7-2.1 0.8-2.3 0.4-0.4 0.8-0.4 2-0.4s1.6 0 2 0.4c0.2 0.2 0.4 0.4 0.8 2.3l0.4 0.1c1.7-1 2-1 2.2-1 0.5 0 0.9 0.3 1.7 1.1s1.1 1.1 1.1 1.7c0 0.2 0 0.5-1 2.2l0.1 0.4c1.9 0.4 2.1 0.6 2.3 0.8zM20 19.516c0-0.2 0-0.4 0-0.6-0.4-0.1-1.1-0.3-1.6-0.4-0.3-0.1-0.6-0.3-0.7-0.6l-0.5-1.3c-0.1-0.3-0.1-0.6 0.1-0.9 0.3-0.5 0.6-1.1 0.8-1.5-0.1-0.1-0.2-0.2-0.4-0.4s-0.3-0.3-0.4-0.4c-0.4 0.2-1 0.5-1.5 0.8-0.3 0.2-0.6 0.2-0.9 0.1l-1.3-0.5c-0.3-0.1-0.5-0.4-0.6-0.7-0.1-0.6-0.3-1.2-0.4-1.6-0.3 0-0.8 0-1.2 0-0.1 0.4-0.3 1.1-0.4 1.6-0.1 0.3-0.3 0.6-0.6 0.7l-1.3 0.5c-0.3 0.1-0.6 0.1-0.9-0.1-0.5-0.3-1.1-0.6-1.5-0.8-0.1 0.1-0.3 0.2-0.4 0.4-0.2 0.2-0.3 0.3-0.4 0.4 0.2 0.4 0.5 1 0.8 1.5 0.2 0.3 0.2 0.6 0.1 0.9l-0.5 1.3c-0.1 0.3-0.3 0.5-0.7 0.6-0.6 0.1-1.2 0.3-1.6 0.4 0 0.2 0 0.4 0 0.6s0 0.4 0 0.6c0.4 0.1 1.1 0.3 1.6 0.4 0.3 0.1 0.6 0.3 0.7 0.6l0.5 1.3c0.1 0.3 0.1 0.6-0.1 0.9-0.3 0.5-0.6 1.1-0.8 1.5 0.1 0.1 0.2 0.3 0.4 0.4 0.2 0.2 0.3 0.3 0.4 0.4 0.4-0.2 1-0.5 1.5-0.8 0.3-0.2 0.6-0.2 0.9-0.1l1.3 0.5c0.3 0.1 0.5 0.4 0.6 0.7 0.1 0.6 0.3 1.2 0.4 1.6 0.3 0 0.8 0 1.2 0 0.1-0.4 0.3-1.1 0.4-1.6 0.1-0.3 0.3-0.6 0.6-0.7l1.3-0.5c0.3-0.1 0.6-0.1 0.9 0.1 0.5 0.3 1.1 0.6 1.5 0.8 0.1-0.1 0.3-0.2 0.4-0.4 0.2-0.2 0.3-0.3 0.4-0.4-0.2-0.4-0.5-1-0.8-1.5-0.2-0.3-0.2-0.6-0.1-0.9l0.5-1.3c0.1-0.3 0.4-0.5 0.7-0.6 0.6-0.1 1.2-0.3 1.6-0.4 0-0.2 0-0.4 0-0.6zM16 19.516c0 2.2-1.8 4-4 4s-4-1.8-4-4c0-2.2 1.8-4 4-4s4 1.8 4 4zM14 19.516c0-1.1-0.9-2-2-2s-2 0.9-2 2c0 1.1 0.9 2 2 2s2-0.9 2-2zM30.4 11.116c-0.2 0.6-0.5 1-0.8 1.5l-0.1 0.1c-0.8 0.8-1.5 0.5-1.8 0.4l-1.5-0.6c-0.2 0.1-0.4 0.2-0.6 0.3l-0.5 1.8c0 0.1 0 0.1-0.1 0.2-0.3 0.5-0.8 0.9-1.4 0.9-0.1 0-0.1 0-0.2 0-0.3-0.1-0.5-0.1-0.7-0.2-0.2 0-0.4-0.1-0.7-0.1-0.1 0-0.2 0-0.2-0.1-0.5-0.3-0.9-0.8-0.9-1.4l0.2-2-0.4-0.4h-2c-0.7 0-1.2-0.5-1.4-1 0-0.1-0.1-0.1-0.1-0.2v-0.1c-0.1-0.4-0.2-0.8-0.2-1.4 0-0.7 0.5-1.3 1.3-1.5l1.8-0.5 0.1-0.2c0.1-0.1 0.1-0.2 0.2-0.3l-0.6-1.8c-0.3-0.8 0-1.5 0.7-1.8 0.4-0.2 0.8-0.4 1.4-0.6 0.6-0.3 1.4 0 1.8 0.7l0.9 1.5c0 0 0.1 0 0.1 0.1h0.1c0.1 0 0.1 0 0.2 0l1.5-1.2c0 0 0.1-0.1 0.2-0.1 0.5-0.2 1-0.2 1.5 0 0.1 0 0.1 0.1 0.2 0.1 0.5 0.3 0.8 0.7 1.2 1.2s0.5 1 0.1 1.7c0 0.1-0.1 0.2-0.1 0.2l-1.2 1.4c0 0.2 0.1 0.4 0.1 0.6l1.6 1c0.1 0 0.1 0.1 0.2 0.1 0.5 0.8 0.2 1.5 0.1 1.7zM28.4 10.716l-1.5-1c-0.1 0-0.1-0.1-0.2-0.1-0.1-0.1-0.4-0.5-0.4-1.1 0-0.2 0-0.4 0-0.6 0-0.1-0.1-0.2-0.1-0.3 0-0.3 0-0.7 0.4-1.1l1.1-1.2c-0.1-0.1-0.2-0.2-0.3-0.3l-1.3 1c-0.2 0.1-0.3 0.2-0.5 0.3-0.4 0.2-0.7 0.2-1 0-0.1 0-0.1 0-0.2 0s-0.3-0.1-0.5-0.1c-0.5-0.1-0.7-0.3-0.9-0.5 0 0 0-0.1-0.1-0.2l-0.8-1.4c-0.1 0-0.2 0.1-0.3 0.1l0.7 1.9c0.1 0.3 0.1 0.5 0 0.8-0.1 0.2-0.2 0.3-0.3 0.5-0.1 0.1-0.2 0.1-0.2 0.2l-0.3 0.6c-0.1 0.3-0.4 0.4-0.6 0.5l-2 0.5c0 0.1 0 0.1 0 0.2h1.8c0.6 0 1 0.3 1.1 0.5l0.6 0.6c0.1 0.1 0.5 0.5 0.5 1.1l-0.2 1.8c0.1 0 0.1 0 0.2 0s0.1 0 0.2 0l0.4-1.5c0.1-0.5 0.5-0.9 1-1 0.2-0.1 0.3-0.1 0.4-0.2 0.6-0.5 1.1-0.4 1.4-0.2l1.6 0.6c0.2-0.1 0.2-0.2 0.3-0.4z"></path>
</svg>
