<!-- Generated by IcoMoon.io -->
<svg version="1.1" xmlns="http://www.w3.org/2000/svg" width="20" height="20" viewBox="0 0 20 20">
<title>genders</title>
<path d="M5.625 1.875c-1.381 0-2.5 1.119-2.5 2.5s1.119 2.5 2.5 2.5c1.381 0 2.5-1.119 2.5-2.5s-1.119-2.5-2.5-2.5zM4.375 4.375c0-0.69 0.56-1.25 1.25-1.25s1.25 0.56 1.25 1.25c0 0.69-0.56 1.25-1.25 1.25s-1.25-0.56-1.25-1.25z"></path>
<path d="M4.375 7.5c-1.408 0-2.5 1.092-2.5 2.5v3.125c0 0.345 0.28 0.625 0.625 0.625h1.25v4.375c0 0.345 0.28 0.625 0.625 0.625h2.5c0.345 0 0.625-0.28 0.625-0.625v-4.375h1.25c0.345 0 0.625-0.28 0.625-0.625v-3.125c0-1.408-1.092-2.5-2.5-2.5h-2.5zM3.125 10c0-0.717 0.533-1.25 1.25-1.25h2.5c0.717 0 1.25 0.533 1.25 1.25v2.5h-1.25c-0.345 0-0.625 0.28-0.625 0.625v4.375h-1.25v-4.375c0-0.345-0.28-0.625-0.625-0.625h-1.25v-2.5z"></path>
<path d="M11.963 9.199c0.685-2.449 4.089-2.369 4.822-0.009l1.938 6.25c0.059 0.19 0.024 0.396-0.094 0.556s-0.305 0.254-0.503 0.254h-1.875v1.875c0 0.345-0.28 0.625-0.625 0.625h-2.5c-0.345 0-0.625-0.28-0.625-0.625v-1.875h-1.875c-0.199 0-0.385-0.094-0.503-0.254s-0.153-0.366-0.094-0.556l1.935-6.241zM15.591 9.56c-0.391-1.261-2.104-1.185-2.426-0.019-0.002 0.006-0.004 0.013-0.006 0.019l-1.686 5.44h1.652c0.345 0 0.625 0.28 0.625 0.625v1.875h1.25v-1.875c0-0.345 0.28-0.625 0.625-0.625h1.652l-1.686-5.44z"></path>
<path d="M14.375 1.875c-1.408 0-2.5 1.092-2.5 2.5v1.875c0 0.345 0.28 0.625 0.625 0.625h3.75c0.345 0 0.625-0.28 0.625-0.625v-1.875c0-1.408-1.092-2.5-2.5-2.5zM13.125 4.375c0-0.717 0.533-1.25 1.25-1.25s1.25 0.533 1.25 1.25v1.25h-2.5v-1.25z"></path>
</svg>
