<!-- Generated by IcoMoon.io -->
<svg version="1.1" xmlns="http://www.w3.org/2000/svg" width="32" height="32" viewBox="0 0 32 32">
<title>git-merged</title>
<path d="M6 7c1.864 0 3.43 1.275 3.874 3h12.252c0.444-1.725 2.010-3 3.874-3 2.209 0 4 1.791 4 4s-1.791 4-4 4c-0.474 0-0.929-0.083-1.352-0.234l-4.841 4.841c-1.488 1.488-3.642 2.393-5.807 2.393h-4.126c-0.444 1.725-2.010 3-3.874 3-2.209 0-4-1.791-4-4s1.791-4 4-4c1.864 0 3.43 1.275 3.874 3h4.126c1.635 0 3.28-0.695 4.393-1.807l4.579-4.579c-0.396-0.459-0.69-1.009-0.846-1.614h-12.252c-0.444 1.725-2.010 3-3.874 3-2.209 0-4-1.791-4-4s1.791-4 4-4zM6 9c-1.105 0-2 0.895-2 2s0.895 2 2 2c1.105 0 2-0.895 2-2s-0.895-2-2-2zM8 21c0-1.105-0.895-2-2-2s-2 0.895-2 2c0 1.105 0.895 2 2 2s2-0.895 2-2zM26 13c1.105 0 2-0.895 2-2s-0.895-2-2-2c-1.105 0-2 0.895-2 2s0.895 2 2 2z"></path>
</svg>
