<!-- Generated by IcoMoon.io -->
<svg version="1.1" xmlns="http://www.w3.org/2000/svg" width="20" height="20" viewBox="0 0 20 20">
<title>git-branch</title>
<path d="M3.75 4.375c1.165 0 2.144 0.797 2.421 1.875h7.658c0.278-1.078 1.256-1.875 2.421-1.875 1.381 0 2.5 1.119 2.5 2.5s-1.119 2.5-2.5 2.5c-1.165 0-2.144-0.797-2.421-1.875h-7.658c-0.097 0.378-0.281 0.722-0.529 1.009l2.862 2.862c0.695 0.695 1.724 1.129 2.746 1.129h2.579c0.278-1.078 1.256-1.875 2.421-1.875 1.381 0 2.5 1.119 2.5 2.5s-1.119 2.5-2.5 2.5c-1.165 0-2.144-0.797-2.421-1.875h-2.579c-1.353 0-2.7-0.566-3.629-1.496l-3.026-3.026c-0.264 0.095-0.548 0.146-0.845 0.146-1.381 0-2.5-1.119-2.5-2.5s1.119-2.5 2.5-2.5zM2.5 6.875c0 0.69 0.56 1.25 1.25 1.25s1.25-0.56 1.25-1.25c0-0.69-0.56-1.25-1.25-1.25s-1.25 0.56-1.25 1.25zM16.25 5.625c-0.69 0-1.25 0.56-1.25 1.25s0.56 1.25 1.25 1.25c0.69 0 1.25-0.56 1.25-1.25s-0.56-1.25-1.25-1.25zM16.25 11.875c-0.69 0-1.25 0.56-1.25 1.25s0.56 1.25 1.25 1.25c0.69 0 1.25-0.56 1.25-1.25s-0.56-1.25-1.25-1.25z"></path>
</svg>
