<!-- Generated by IcoMoon.io -->
<svg version="1.1" xmlns="http://www.w3.org/2000/svg" width="20" height="20" viewBox="0 0 20 20">
<title>git-compare</title>
<path d="M3.75 4.375c-1.381 0-2.5 1.119-2.5 2.5s1.119 2.5 2.5 2.5c1.165 0 2.144-0.797 2.421-1.875h7.658c0.278 1.078 1.256 1.875 2.421 1.875 1.381 0 2.5-1.119 2.5-2.5s-1.119-2.5-2.5-2.5c-1.165 0-2.144 0.797-2.421 1.875h-7.658c-0.278-1.078-1.256-1.875-2.421-1.875zM2.5 6.875c0-0.69 0.56-1.25 1.25-1.25s1.25 0.56 1.25 1.25c0 0.69-0.56 1.25-1.25 1.25s-1.25-0.56-1.25-1.25zM15 6.875c0-0.69 0.56-1.25 1.25-1.25s1.25 0.56 1.25 1.25c0 0.69-0.56 1.25-1.25 1.25s-1.25-0.56-1.25-1.25z"></path>
<path d="M13.829 13.75h-7.658c-0.278 1.078-1.256 1.875-2.421 1.875-1.381 0-2.5-1.119-2.5-2.5s1.119-2.5 2.5-2.5c1.165 0 2.144 0.797 2.421 1.875h7.658c0.278-1.078 1.256-1.875 2.421-1.875 1.381 0 2.5 1.119 2.5 2.5s-1.119 2.5-2.5 2.5c-1.165 0-2.144-0.797-2.421-1.875zM15 13.125c0 0.69 0.56 1.25 1.25 1.25s1.25-0.56 1.25-1.25c0-0.69-0.56-1.25-1.25-1.25s-1.25 0.56-1.25 1.25zM3.75 11.875c-0.69 0-1.25 0.56-1.25 1.25s0.56 1.25 1.25 1.25c0.69 0 1.25-0.56 1.25-1.25s-0.56-1.25-1.25-1.25z"></path>
</svg>
