<!-- Generated by IcoMoon.io -->
<svg version="1.1" xmlns="http://www.w3.org/2000/svg" width="32" height="32" viewBox="0 0 32 32">
<title>git-pull</title>
<path d="M7 3c-2.209 0-4 1.791-4 4 0 1.864 1.275 3.43 3 3.874v10.252c-1.725 0.444-3 2.010-3 3.874 0 2.209 1.791 4 4 4s4-1.791 4-4c0-1.864-1.275-3.43-3-3.874v-10.252c1.725-0.444 3-2.010 3-3.874 0-2.209-1.791-4-4-4zM5 7c0-1.105 0.895-2 2-2s2 0.895 2 2c0 1.105-0.895 2-2 2s-2-0.895-2-2zM5 25c0-1.105 0.895-2 2-2s2 0.895 2 2c0 1.105-0.895 2-2 2s-2-0.895-2-2z"></path>
<path d="M25 3c2.209 0 4 1.791 4 4 0 1.864-1.275 3.43-3 3.874v10.252c1.725 0.444 3 2.010 3 3.874 0 2.209-1.791 4-4 4s-4-1.791-4-4c0-1.864 1.275-3.43 3-3.874v-10.252c-1.725-0.444-3-2.010-3-3.874 0-2.209 1.791-4 4-4zM23 7c0 1.105 0.895 2 2 2s2-0.895 2-2c0-1.105-0.895-2-2-2s-2 0.895-2 2zM25 23c-1.105 0-2 0.895-2 2s0.895 2 2 2c1.105 0 2-0.895 2-2s-0.895-2-2-2z"></path>
<path d="M16.707 12.293c0.39 0.39 0.39 1.024 0 1.414l-1.293 1.293h3.586c0.552 0 1 0.448 1 1s-0.448 1-1 1h-3.586l1.293 1.293c0.39 0.39 0.39 1.024 0 1.414s-1.024 0.39-1.414 0l-3.707-3.707 3.707-3.707c0.39-0.39 1.024-0.39 1.414 0z"></path>
</svg>
