<!-- Generated by IcoMoon.io -->
<svg version="1.1" xmlns="http://www.w3.org/2000/svg" width="20" height="20" viewBox="0 0 20 20">
<title>git-fetch</title>
<path d="M4.375 1.25c-1.381 0-2.5 1.119-2.5 2.5 0 1.165 0.797 2.144 1.875 2.421v7.658c-1.078 0.278-1.875 1.256-1.875 2.421 0 1.381 1.119 2.5 2.5 2.5s2.5-1.119 2.5-2.5c0-1.165-0.797-2.144-1.875-2.421v-7.658c1.078-0.278 1.875-1.256 1.875-2.421 0-1.381-1.119-2.5-2.5-2.5zM3.125 3.75c0-0.69 0.56-1.25 1.25-1.25s1.25 0.56 1.25 1.25c0 0.69-0.56 1.25-1.25 1.25s-1.25-0.56-1.25-1.25zM3.125 16.25c0-0.69 0.56-1.25 1.25-1.25s1.25 0.56 1.25 1.25c0 0.69-0.56 1.25-1.25 1.25s-1.25-0.56-1.25-1.25z"></path>
<path d="M15.625 1.25c1.381 0 2.5 1.119 2.5 2.5 0 1.165-0.797 2.144-1.875 2.421v7.658c1.078 0.278 1.875 1.256 1.875 2.421 0 1.381-1.119 2.5-2.5 2.5s-2.5-1.119-2.5-2.5c0-1.165 0.797-2.144 1.875-2.421v-7.658c-1.078-0.278-1.875-1.256-1.875-2.421 0-1.381 1.119-2.5 2.5-2.5zM14.375 3.75c0 0.69 0.56 1.25 1.25 1.25s1.25-0.56 1.25-1.25c0-0.69-0.56-1.25-1.25-1.25s-1.25 0.56-1.25 1.25zM15.625 15c-0.69 0-1.25 0.56-1.25 1.25s0.56 1.25 1.25 1.25c0.69 0 1.25-0.56 1.25-1.25s-0.56-1.25-1.25-1.25z"></path>
<path d="M10.808 9.558c0.244-0.244 0.64-0.244 0.884 0l2.317 2.317-2.317 2.317c-0.244 0.244-0.64 0.244-0.884 0s-0.244-0.64 0-0.884l0.808-0.808h-2.241c-0.345 0-0.625-0.28-0.625-0.625s0.28-0.625 0.625-0.625h2.241l-0.808-0.808c-0.244-0.244-0.244-0.64 0-0.884z"></path>
<path d="M9.192 5.808c0.244 0.244 0.244 0.64 0 0.884l-0.808 0.808h2.241c0.345 0 0.625 0.28 0.625 0.625s-0.28 0.625-0.625 0.625h-2.241l0.808 0.808c0.244 0.244 0.244 0.64 0 0.884s-0.64 0.244-0.884 0l-2.317-2.317 2.317-2.317c0.244-0.244 0.64-0.244 0.884 0z"></path>
</svg>
