<!-- Generated by IcoMoon.io -->
<svg version="1.1" xmlns="http://www.w3.org/2000/svg" width="20" height="20" viewBox="0 0 20 20">
<title>git-merge</title>
<path d="M6.171 6.25h7.658c0.278-1.078 1.256-1.875 2.421-1.875 1.381 0 2.5 1.119 2.5 2.5s-1.119 2.5-2.5 2.5c-1.165 0-2.144-0.797-2.421-1.875h-7.658c-0.278 1.078-1.256 1.875-2.421 1.875-1.381 0-2.5-1.119-2.5-2.5s1.119-2.5 2.5-2.5c1.165 0 2.144 0.797 2.421 1.875zM2.5 6.875c0 0.69 0.56 1.25 1.25 1.25s1.25-0.56 1.25-1.25c0-0.69-0.56-1.25-1.25-1.25s-1.25 0.56-1.25 1.25zM15 6.875c0 0.69 0.56 1.25 1.25 1.25s1.25-0.56 1.25-1.25c0-0.69-0.56-1.25-1.25-1.25s-1.25 0.56-1.25 1.25z"></path>
<path d="M3.75 10.625c-1.381 0-2.5 1.119-2.5 2.5s1.119 2.5 2.5 2.5c1.165 0 2.144-0.797 2.421-1.875h2.579c1.353 0 2.7-0.566 3.629-1.496l0.746-0.746v0.991c0 0.345 0.28 0.625 0.625 0.625s0.625-0.28 0.625-0.625v-3.125h-3.125c-0.345 0-0.625 0.28-0.625 0.625s0.28 0.625 0.625 0.625h0.991l-0.746 0.746c-0.695 0.695-1.724 1.129-2.746 1.129h-2.579c-0.278-1.078-1.256-1.875-2.421-1.875zM2.5 13.125c0-0.69 0.56-1.25 1.25-1.25s1.25 0.56 1.25 1.25c0 0.69-0.56 1.25-1.25 1.25s-1.25-0.56-1.25-1.25z"></path>
</svg>
