<!-- Generated by IcoMoon.io -->
<svg version="1.1" xmlns="http://www.w3.org/2000/svg" width="20" height="20" viewBox="0 0 20 20">
<title>git-merged-alt</title>
<path d="M1.25 5.625c0-1.381 1.119-2.5 2.5-2.5 1.165 0 2.144 0.797 2.421 1.875h1.954c1.408 0 2.5 1.092 2.5 2.5v0.625c0 0.717 0.533 1.25 1.25 1.25h1.954c0.278-1.078 1.256-1.875 2.421-1.875 1.381 0 2.5 1.119 2.5 2.5s-1.119 2.5-2.5 2.5c-1.165 0-2.144-0.797-2.421-1.875h-1.954c-0.717 0-1.25 0.533-1.25 1.25v0.625c0 1.408-1.092 2.5-2.5 2.5h-1.954c-0.278 1.078-1.256 1.875-2.421 1.875-1.381 0-2.5-1.119-2.5-2.5s1.119-2.5 2.5-2.5c1.165 0 2.144 0.797 2.421 1.875h1.954c0.717 0 1.25-0.533 1.25-1.25v-0.625c0-0.756 0.315-1.421 0.825-1.875-0.51-0.454-0.825-1.119-0.825-1.875v-0.625c0-0.717-0.533-1.25-1.25-1.25h-1.954c-0.278 1.078-1.256 1.875-2.421 1.875-1.381 0-2.5-1.119-2.5-2.5zM3.75 4.375c-0.69 0-1.25 0.56-1.25 1.25s0.56 1.25 1.25 1.25c0.69 0 1.25-0.56 1.25-1.25s-0.56-1.25-1.25-1.25zM3.75 13.125c-0.69 0-1.25 0.56-1.25 1.25s0.56 1.25 1.25 1.25c0.69 0 1.25-0.56 1.25-1.25s-0.56-1.25-1.25-1.25zM15 10c0 0.69 0.56 1.25 1.25 1.25s1.25-0.56 1.25-1.25c0-0.69-0.56-1.25-1.25-1.25s-1.25 0.56-1.25 1.25z"></path>
</svg>
