<!-- Generated by IcoMoon.io -->
<svg version="1.1" xmlns="http://www.w3.org/2000/svg" width="20" height="20" viewBox="0 0 20 20">
<title>git-tree</title>
<path d="M7.5 6.25c0-1.381 1.119-2.5 2.5-2.5s2.5 1.119 2.5 2.5c0 1.165-0.797 2.144-1.875 2.421v2.658c0.878 0.226 1.57 0.918 1.796 1.796h1.408c0.278-1.078 1.256-1.875 2.421-1.875 1.381 0 2.5 1.119 2.5 2.5s-1.119 2.5-2.5 2.5c-1.165 0-2.144-0.797-2.421-1.875h-1.408c-0.278 1.078-1.256 1.875-2.421 1.875s-2.144-0.797-2.421-1.875h-1.408c-0.278 1.078-1.256 1.875-2.421 1.875-1.381 0-2.5-1.119-2.5-2.5s1.119-2.5 2.5-2.5c1.165 0 2.144 0.797 2.421 1.875h1.408c0.226-0.878 0.918-1.57 1.796-1.796v-2.658c-1.078-0.278-1.875-1.256-1.875-2.421zM10 5c-0.69 0-1.25 0.56-1.25 1.25s0.56 1.25 1.25 1.25c0.69 0 1.25-0.56 1.25-1.25s-0.56-1.25-1.25-1.25zM10 12.5c-0.69 0-1.25 0.56-1.25 1.25s0.56 1.25 1.25 1.25c0.69 0 1.25-0.56 1.25-1.25s-0.56-1.25-1.25-1.25zM2.5 13.75c0 0.69 0.56 1.25 1.25 1.25s1.25-0.56 1.25-1.25c0-0.69-0.56-1.25-1.25-1.25s-1.25 0.56-1.25 1.25zM16.25 12.5c-0.69 0-1.25 0.56-1.25 1.25s0.56 1.25 1.25 1.25c0.69 0 1.25-0.56 1.25-1.25s-0.56-1.25-1.25-1.25z"></path>
</svg>
