<!-- Generated by IcoMoon.io -->
<svg version="1.1" xmlns="http://www.w3.org/2000/svg" width="32" height="32" viewBox="0 0 32 32">
<title>git-rebase</title>
<path d="M6 7c-2.209 0-4 1.791-4 4s1.791 4 4 4c0.474 0 0.929-0.083 1.352-0.234l4.841 4.841c1.395 1.395 3.376 2.278 5.403 2.383l-1.303 1.303c-0.39 0.39-0.39 1.024 0 1.414s1.024 0.39 1.414 0l3.707-3.707-3.707-3.707c-0.39-0.39-1.024-0.39-1.414 0s-0.39 1.024 0 1.414l1.277 1.277c-1.489-0.109-2.948-0.776-3.963-1.791l-4.579-4.579c0.396-0.459 0.69-1.009 0.846-1.614h12.252c0.444 1.725 2.010 3 3.874 3 2.209 0 4-1.791 4-4s-1.791-4-4-4c-1.864 0-3.43 1.275-3.874 3h-12.252c-0.444-1.725-2.010-3-3.874-3zM4 11c0-1.105 0.895-2 2-2s2 0.895 2 2c0 1.105-0.895 2-2 2s-2-0.895-2-2zM26 13c-1.105 0-2-0.895-2-2s0.895-2 2-2c1.105 0 2 0.895 2 2s-0.895 2-2 2z"></path>
<path d="M22 21c0-2.209 1.791-4 4-4s4 1.791 4 4c0 2.209-1.791 4-4 4s-4-1.791-4-4zM26 19c-1.105 0-2 0.895-2 2s0.895 2 2 2c1.105 0 2-0.895 2-2s-0.895-2-2-2z"></path>
</svg>
