<!-- Generated by IcoMoon.io -->
<svg version="1.1" xmlns="http://www.w3.org/2000/svg" width="32" height="32" viewBox="0 0 32 32">
<title>git-compare</title>
<path d="M6 7c-2.209 0-4 1.791-4 4s1.791 4 4 4c1.864 0 3.43-1.275 3.874-3h12.252c0.444 1.725 2.010 3 3.874 3 2.209 0 4-1.791 4-4s-1.791-4-4-4c-1.864 0-3.43 1.275-3.874 3h-12.252c-0.444-1.725-2.010-3-3.874-3zM4 11c0-1.105 0.895-2 2-2s2 0.895 2 2c0 1.105-0.895 2-2 2s-2-0.895-2-2zM24 11c0-1.105 0.895-2 2-2s2 0.895 2 2c0 1.105-0.895 2-2 2s-2-0.895-2-2z"></path>
<path d="M22.126 22h-12.252c-0.444 1.725-2.010 3-3.874 3-2.209 0-4-1.791-4-4s1.791-4 4-4c1.864 0 3.43 1.275 3.874 3h12.252c0.444-1.725 2.010-3 3.874-3 2.209 0 4 1.791 4 4s-1.791 4-4 4c-1.864 0-3.43-1.275-3.874-3zM24 21c0 1.105 0.895 2 2 2s2-0.895 2-2c0-1.105-0.895-2-2-2s-2 0.895-2 2zM6 19c-1.105 0-2 0.895-2 2s0.895 2 2 2c1.105 0 2-0.895 2-2s-0.895-2-2-2z"></path>
</svg>
