<!-- Generated by IcoMoon.io -->
<svg version="1.1" xmlns="http://www.w3.org/2000/svg" width="20" height="20" viewBox="0 0 20 20">
<title>git-rebase</title>
<path d="M3.75 4.375c-1.381 0-2.5 1.119-2.5 2.5s1.119 2.5 2.5 2.5c0.296 0 0.581-0.052 0.845-0.146l3.026 3.026c0.872 0.872 2.11 1.424 3.377 1.489l-0.815 0.815c-0.244 0.244-0.244 0.64 0 0.884s0.64 0.244 0.884 0l2.317-2.317-2.317-2.317c-0.244-0.244-0.64-0.244-0.884 0s-0.244 0.64 0 0.884l0.798 0.798c-0.931-0.068-1.842-0.485-2.477-1.12l-2.862-2.862c0.248-0.287 0.431-0.63 0.529-1.009h7.658c0.278 1.078 1.256 1.875 2.421 1.875 1.381 0 2.5-1.119 2.5-2.5s-1.119-2.5-2.5-2.5c-1.165 0-2.144 0.797-2.421 1.875h-7.658c-0.278-1.078-1.256-1.875-2.421-1.875zM2.5 6.875c0-0.69 0.56-1.25 1.25-1.25s1.25 0.56 1.25 1.25c0 0.69-0.56 1.25-1.25 1.25s-1.25-0.56-1.25-1.25zM16.25 8.125c-0.69 0-1.25-0.56-1.25-1.25s0.56-1.25 1.25-1.25c0.69 0 1.25 0.56 1.25 1.25s-0.56 1.25-1.25 1.25z"></path>
<path d="M13.75 13.125c0-1.381 1.119-2.5 2.5-2.5s2.5 1.119 2.5 2.5c0 1.381-1.119 2.5-2.5 2.5s-2.5-1.119-2.5-2.5zM16.25 11.875c-0.69 0-1.25 0.56-1.25 1.25s0.56 1.25 1.25 1.25c0.69 0 1.25-0.56 1.25-1.25s-0.56-1.25-1.25-1.25z"></path>
</svg>
