<!-- Generated by IcoMoon.io -->
<svg version="1.1" xmlns="http://www.w3.org/2000/svg" width="20" height="20" viewBox="0 0 20 20">
<title>git-merged</title>
<path d="M3.75 4.375c1.165 0 2.144 0.797 2.421 1.875h7.658c0.278-1.078 1.256-1.875 2.421-1.875 1.381 0 2.5 1.119 2.5 2.5s-1.119 2.5-2.5 2.5c-0.297 0-0.581-0.052-0.845-0.146l-3.026 3.026c-0.93 0.93-2.276 1.496-3.629 1.496h-2.579c-0.278 1.078-1.256 1.875-2.421 1.875-1.381 0-2.5-1.119-2.5-2.5s1.119-2.5 2.5-2.5c1.165 0 2.144 0.797 2.421 1.875h2.579c1.022 0 2.050-0.434 2.746-1.129l2.862-2.862c-0.248-0.287-0.431-0.63-0.529-1.009h-7.658c-0.278 1.078-1.256 1.875-2.421 1.875-1.381 0-2.5-1.119-2.5-2.5s1.119-2.5 2.5-2.5zM3.75 5.625c-0.69 0-1.25 0.56-1.25 1.25s0.56 1.25 1.25 1.25c0.69 0 1.25-0.56 1.25-1.25s-0.56-1.25-1.25-1.25zM5 13.125c0-0.69-0.56-1.25-1.25-1.25s-1.25 0.56-1.25 1.25c0 0.69 0.56 1.25 1.25 1.25s1.25-0.56 1.25-1.25zM16.25 8.125c0.69 0 1.25-0.56 1.25-1.25s-0.56-1.25-1.25-1.25c-0.69 0-1.25 0.56-1.25 1.25s0.56 1.25 1.25 1.25z"></path>
</svg>
