<!-- Generated by IcoMoon.io -->
<svg version="1.1" xmlns="http://www.w3.org/2000/svg" width="32" height="32" viewBox="0 0 32 32">
<title>git</title>
<path d="M30.11 14.38l-12.8-12.8c-0.356-0.354-0.838-0.553-1.34-0.553s-0.984 0.199-1.34 0.553l-2.63 2.66 3.37 3.37c0.398-0.136 0.826-0.158 1.235-0.062s0.784 0.305 1.080 0.603c0.296 0.298 0.503 0.674 0.595 1.084s0.068 0.838-0.071 1.235l3.23 3.22c0.38-0.132 0.788-0.159 1.183-0.080s0.76 0.263 1.059 0.532c0.299 0.269 0.521 0.613 0.642 0.997s0.137 0.793 0.046 1.185c-0.091 0.392-0.285 0.752-0.562 1.044s-0.628 0.503-1.015 0.613c-0.387 0.11-0.796 0.114-1.185 0.012s-0.744-0.306-1.027-0.592c-0.313-0.313-0.526-0.712-0.612-1.147s-0.040-0.885 0.132-1.293l-3-3v8c0.224 0.102 0.428 0.244 0.6 0.42 0.315 0.314 0.529 0.715 0.617 1.152s0.043 0.889-0.128 1.3c-0.17 0.411-0.459 0.763-0.829 1.010s-0.805 0.379-1.25 0.379-0.88-0.132-1.25-0.379c-0.37-0.247-0.659-0.599-0.829-1.010s-0.215-0.864-0.128-1.3c0.087-0.437 0.302-0.837 0.617-1.152 0.21-0.213 0.462-0.381 0.74-0.49v-8c-0.277-0.112-0.529-0.278-0.74-0.49-0.336-0.317-0.566-0.73-0.659-1.183s-0.044-0.923 0.139-1.347l-3.33-3.33-8.78 8.78c-0.354 0.356-0.553 0.838-0.553 1.34s0.199 0.984 0.553 1.34l12.8 12.8c0.356 0.354 0.838 0.553 1.34 0.553s0.984-0.199 1.34-0.553l12.74-12.74c0.354-0.356 0.553-0.838 0.553-1.34s-0.199-0.984-0.553-1.34z"></path>
</svg>
