<!-- Generated by IcoMoon.io -->
<svg version="1.1" xmlns="http://www.w3.org/2000/svg" width="20" height="20" viewBox="0 0 20 20">
<title>git</title>
<path d="M18.819 8.988l-8-8c-0.223-0.221-0.524-0.346-0.838-0.346s-0.615 0.124-0.838 0.346l-1.644 1.663 2.106 2.106c0.249-0.085 0.516-0.099 0.772-0.039s0.49 0.19 0.675 0.377c0.185 0.186 0.314 0.421 0.372 0.678s0.043 0.524-0.044 0.772l2.019 2.013c0.237-0.082 0.493-0.1 0.739-0.050s0.475 0.165 0.662 0.333c0.187 0.168 0.325 0.383 0.401 0.623s0.086 0.495 0.029 0.74c-0.057 0.245-0.178 0.47-0.352 0.652s-0.392 0.314-0.634 0.383c-0.242 0.069-0.498 0.071-0.741 0.008s-0.465-0.192-0.642-0.37c-0.196-0.196-0.329-0.445-0.382-0.717s-0.025-0.553 0.082-0.808l-1.875-1.875v5c0.14 0.064 0.267 0.153 0.375 0.262 0.197 0.197 0.331 0.447 0.385 0.72s0.027 0.556-0.080 0.813c-0.106 0.257-0.287 0.477-0.518 0.631s-0.503 0.237-0.781 0.237-0.55-0.083-0.781-0.237c-0.231-0.155-0.412-0.374-0.518-0.631s-0.134-0.54-0.080-0.813c0.054-0.273 0.189-0.523 0.385-0.72 0.131-0.133 0.289-0.238 0.463-0.306v-5c-0.173-0.070-0.331-0.174-0.463-0.306-0.21-0.198-0.354-0.456-0.412-0.739s-0.028-0.577 0.087-0.842l-2.081-2.081-5.487 5.488c-0.221 0.223-0.346 0.524-0.346 0.837s0.124 0.615 0.346 0.838l8 8c0.223 0.221 0.524 0.346 0.838 0.346s0.615-0.124 0.838-0.346l7.962-7.963c0.221-0.223 0.346-0.524 0.346-0.838s-0.124-0.615-0.346-0.838z"></path>
</svg>
