<!-- Generated by IcoMoon.io -->
<svg version="1.1" xmlns="http://www.w3.org/2000/svg" width="32" height="32" viewBox="0 0 32 32">
<title>gitea</title>
<path d="M23.36 24.76h-8.81c-0.476-0.086-0.922-0.289-1.3-0.59-1.496-1.172-2.687-2.689-3.47-4.42v-0.080c-0.037-0.107-0.106-0.199-0.197-0.265s-0.201-0.103-0.313-0.105h-0.070c-1.158-0.026-2.305-0.231-3.4-0.61h0.070c-1.228-0.384-2.311-1.131-3.106-2.144s-1.263-2.242-1.344-3.526c-0.015-0.225-0.045-0.449-0.090-0.67v-0.51c0.013-0.31 0.057-0.618 0.13-0.92 0.155-1.034 0.63-1.993 1.358-2.743s1.673-1.252 2.702-1.437l0.78-0.12h0.58l1.48 0.070 2.91 0.16c1.35 0.070 2.69 0.15 4 0.2 1.1 0 2.2 0 3.3 0.070h0.15v4.93c0 0.080 0 0.19 0.050 0.21 0.21 0.12 0.46 0.25 0.71 0.37v-5.5h0.23c0.65 0 1.3 0 1.95-0.050 1.37 0 2.74-0.1 4.090-0.16l1.8-0.090 1.94-0.090h0.050c0.097 0 0.192 0.023 0.279 0.067s0.162 0.106 0.221 0.184c0.121 0.14 0.219 0.299 0.29 0.47 0.171 0.464 0.259 0.955 0.26 1.45v0.11c-0.009 1.153-0.136 2.303-0.38 3.43v-0.11c-0.394 2.383-1.065 4.713-2 6.94l0.070-0.2c-0.531 1.373-1.251 2.666-2.14 3.84-0.518 0.704-1.206 1.265-2 1.63-0.25 0.099-0.507 0.175-0.77 0.23l-0.010-0.020zM8.83 16.76c-0.007-0.087-0.031-0.172-0.070-0.25-0.28-0.82-0.56-1.64-0.76-2.47-0.461-1.549-0.763-3.14-0.9-4.75v-0.1c0-0.12 0-0.17-0.17-0.16-0.337 0.005-0.672 0.045-1 0.12-0.486 0.082-0.936 0.308-1.292 0.649s-0.603 0.78-0.708 1.261c-0.073 0.291-0.11 0.59-0.11 0.89 0 0.31 0.037 0.619 0.11 0.92 0.095 0.691 0.365 1.346 0.785 1.903s0.976 0.996 1.615 1.277c0.46 0.201 0.934 0.365 1.42 0.49h0.080c0.347 0.098 0.702 0.168 1.060 0.21l-0.060 0.010zM17.83 12.22c-0.191-0.113-0.408-0.172-0.63-0.17-0.255 0.001-0.505 0.075-0.718 0.216s-0.381 0.34-0.482 0.574c-0.8 1.64-1.59 3.27-2.38 4.91-0.113 0.191-0.172 0.408-0.17 0.63-0 0.252 0.073 0.498 0.212 0.707s0.336 0.374 0.568 0.473l1.1 0.53 3.81 1.85c0.192 0.108 0.409 0.167 0.63 0.17 0.258 0.009 0.513-0.060 0.732-0.197s0.392-0.337 0.498-0.573c0.090-0.2 0.19-0.41 0.3-0.61 0.69-1.43 1.38-2.85 2-4.28 0.113-0.198 0.172-0.422 0.17-0.65 0.005-0.050 0.005-0.1 0-0.15-0.035-0.218-0.123-0.423-0.258-0.598s-0.311-0.313-0.512-0.402l-2.48-1.21-2.39-1.22z"></path>
</svg>
