<!-- Generated by IcoMoon.io -->
<svg version="1.1" xmlns="http://www.w3.org/2000/svg" width="20" height="20" viewBox="0 0 20 20">
<title>gitea</title>
<path d="M14.6 15.475h-5.506c-0.297-0.054-0.576-0.181-0.813-0.369-0.935-0.733-1.679-1.68-2.169-2.763v-0.050c-0.023-0.067-0.066-0.124-0.123-0.166s-0.125-0.064-0.196-0.065h-0.044c-0.724-0.016-1.441-0.145-2.125-0.381h0.044c-0.768-0.24-1.445-0.707-1.941-1.34s-0.79-1.401-0.84-2.204c-0.010-0.141-0.028-0.281-0.056-0.419v-0.319c0.008-0.194 0.035-0.386 0.081-0.575 0.097-0.646 0.394-1.246 0.849-1.714s1.046-0.783 1.689-0.898l0.488-0.075h0.363l0.925 0.044 1.819 0.1c0.844 0.044 1.681 0.094 2.5 0.125 0.688 0 1.375 0 2.063 0.044h0.094v3.081c0 0.050 0 0.119 0.031 0.131 0.131 0.075 0.287 0.156 0.444 0.231v-3.438h0.144c0.406 0 0.813 0 1.219-0.031 0.856 0 1.713-0.062 2.556-0.1l1.125-0.056 1.212-0.056h0.031c0.061 0 0.12 0.014 0.174 0.042s0.101 0.066 0.138 0.115c0.076 0.088 0.137 0.187 0.181 0.294 0.107 0.29 0.162 0.597 0.163 0.906v0.069c-0.006 0.721-0.085 1.439-0.237 2.144v-0.069c-0.246 1.49-0.666 2.945-1.25 4.337l0.044-0.125c-0.332 0.858-0.782 1.666-1.338 2.4-0.324 0.44-0.754 0.791-1.25 1.019-0.156 0.062-0.317 0.11-0.481 0.144l-0.006-0.012zM5.519 10.475c-0.004-0.054-0.019-0.107-0.044-0.156-0.175-0.513-0.35-1.025-0.475-1.544-0.288-0.968-0.477-1.963-0.563-2.969v-0.063c0-0.075 0-0.106-0.106-0.1-0.21 0.003-0.42 0.028-0.625 0.075-0.304 0.052-0.585 0.193-0.808 0.406s-0.377 0.487-0.442 0.788c-0.046 0.182-0.069 0.369-0.069 0.556 0 0.194 0.023 0.387 0.069 0.575 0.059 0.432 0.228 0.841 0.491 1.189s0.61 0.623 1.009 0.798c0.287 0.126 0.584 0.228 0.887 0.306h0.050c0.217 0.061 0.439 0.105 0.662 0.131l-0.038 0.006zM11.144 7.638c-0.119-0.071-0.255-0.108-0.394-0.106-0.159 0-0.316 0.047-0.449 0.135s-0.238 0.212-0.301 0.359c-0.5 1.025-0.994 2.044-1.487 3.069-0.071 0.119-0.108 0.255-0.106 0.394-0 0.157 0.046 0.311 0.133 0.442s0.21 0.234 0.355 0.295l0.688 0.331 2.381 1.156c0.12 0.068 0.256 0.104 0.394 0.106 0.161 0.005 0.321-0.038 0.458-0.123s0.245-0.21 0.311-0.358c0.056-0.125 0.119-0.256 0.188-0.381 0.431-0.894 0.863-1.781 1.25-2.675 0.071-0.124 0.107-0.264 0.106-0.406 0.003-0.031 0.003-0.063 0-0.094-0.022-0.136-0.077-0.265-0.161-0.374s-0.194-0.196-0.32-0.251l-1.55-0.756-1.494-0.763z"></path>
</svg>
