<!-- Generated by IcoMoon.io -->
<svg version="1.1" xmlns="http://www.w3.org/2000/svg" width="20" height="20" viewBox="0 0 20 20">
<title>gitfs</title>
<path d="M18.044 13.994l-2.9-10.625c-0.135-0.493-0.429-0.928-0.835-1.239s-0.903-0.479-1.415-0.48h-7.063c-0.177 0-0.347 0.070-0.473 0.196s-0.196 0.296-0.196 0.473c0 0.177 0.070 0.347 0.196 0.473s0.296 0.196 0.473 0.196h7.063c0.219-0 0.432 0.071 0.607 0.203s0.302 0.317 0.362 0.528l2.225 8.125c-0.347-0.133-0.716-0.203-1.087-0.206h-10c-0.37 0.004-0.736 0.074-1.081 0.206l1.55-5.625c0.058-0.213 0.185-0.4 0.36-0.534s0.389-0.208 0.609-0.209h5.231c0.177 0 0.347-0.070 0.473-0.196s0.196-0.296 0.196-0.473c0-0.177-0.070-0.347-0.196-0.473s-0.296-0.196-0.473-0.196h-5.231c-0.511 0.001-1.007 0.168-1.413 0.477s-0.7 0.743-0.837 1.235c0.131 0-2.244 8.181-2.244 8.181-0.127 0.467-0.143 0.957-0.049 1.431s0.298 0.92 0.594 1.302 0.677 0.691 1.113 0.901c0.436 0.21 0.914 0.316 1.398 0.31h10c0.84-0.002 1.645-0.336 2.239-0.93s0.928-1.399 0.93-2.239c-0.003-0.275-0.045-0.549-0.125-0.813zM15 16.637h-10c-0.486 0-0.951-0.193-1.295-0.536s-0.536-0.809-0.536-1.295 0.193-0.951 0.536-1.295c0.343-0.343 0.809-0.536 1.295-0.536h10c0.486 0 0.951 0.193 1.295 0.536s0.536 0.809 0.536 1.295c0 0.486-0.193 0.952-0.536 1.295s-0.809 0.536-1.295 0.536z"></path>
</svg>
