<!-- Generated by IcoMoon.io -->
<svg version="1.1" xmlns="http://www.w3.org/2000/svg" width="32" height="32" viewBox="0 0 32 32">
<title>gitfs</title>
<path d="M28.87 22.39l-4.64-17c-0.217-0.789-0.686-1.485-1.336-1.982s-1.445-0.766-2.264-0.768h-11.3c-0.284 0-0.556 0.113-0.757 0.313s-0.313 0.473-0.313 0.757c0 0.284 0.113 0.556 0.313 0.757s0.473 0.313 0.757 0.313h11.3c0.351-0 0.692 0.114 0.971 0.325s0.483 0.508 0.579 0.845l3.56 13c-0.556-0.213-1.145-0.324-1.74-0.33h-16c-0.592 0.007-1.177 0.119-1.73 0.33l2.48-9c0.094-0.34 0.296-0.64 0.575-0.855s0.622-0.332 0.975-0.335h8.37c0.284 0 0.556-0.113 0.757-0.313s0.313-0.473 0.313-0.757c0-0.284-0.113-0.556-0.313-0.757s-0.473-0.313-0.757-0.313h-8.37c-0.817 0.001-1.611 0.269-2.261 0.764s-1.12 1.189-1.339 1.976c0.21 0-3.59 13.090-3.59 13.090-0.203 0.747-0.23 1.53-0.078 2.289s0.477 1.472 0.951 2.084 1.084 1.105 1.781 1.441c0.697 0.336 1.463 0.506 2.236 0.496h16c1.344-0.003 2.632-0.538 3.582-1.488s1.485-2.238 1.488-3.582c-0.005-0.441-0.073-0.878-0.2-1.3zM24 26.62h-16c-0.777 0-1.522-0.309-2.072-0.858s-0.858-1.295-0.858-2.072 0.309-1.522 0.858-2.072c0.549-0.549 1.295-0.858 2.072-0.858h16c0.777 0 1.522 0.309 2.072 0.858s0.858 1.295 0.858 2.072c0 0.777-0.309 1.522-0.858 2.072s-1.295 0.858-2.072 0.858z"></path>
</svg>
