<!-- Generated by IcoMoon.io -->
<svg version="1.1" xmlns="http://www.w3.org/2000/svg" width="20" height="20" viewBox="0 0 20 20">
<title>github</title>
<path d="M10 0.638c1.257-0.008 2.502 0.246 3.656 0.744 1.115 0.476 2.132 1.154 3 2 0.859 0.849 1.546 1.854 2.025 2.962 0.494 1.143 0.753 2.374 0.763 3.619-0.006 1.009-0.17 2.011-0.488 2.969-0.302 0.92-0.747 1.787-1.319 2.569-0.569 0.776-1.247 1.467-2.012 2.050-0.78 0.588-1.652 1.042-2.581 1.344-0.086 0.023-0.177 0.024-0.264 0.005s-0.168-0.060-0.236-0.117c-0.089-0.086-0.142-0.202-0.15-0.325v-2.619c0.010-0.367-0.051-0.732-0.181-1.075-0.1-0.238-0.252-0.452-0.444-0.625 1.035-0.121 2.029-0.476 2.906-1.037 0.9-0.569 1.35-1.769 1.35-3.588 0.004-0.483-0.085-0.963-0.263-1.412-0.165-0.409-0.404-0.784-0.706-1.106 0.031-0.125 0.088-0.412 0.163-0.856 0.061-0.555-0.034-1.115-0.275-1.619-0.937 0.081-1.833 0.416-2.594 0.969-0.38-0.096-0.767-0.165-1.156-0.206-0.396-0.049-0.795-0.076-1.194-0.081-0.417 0-0.817 0.019-1.2 0.056-0.391 0.037-0.778 0.11-1.156 0.219-0.775-0.56-1.69-0.896-2.644-0.969-0.241 0.504-0.344 1.062-0.3 1.619 0.026 0.292 0.089 0.58 0.188 0.856-0.319 0.325-0.571 0.71-0.744 1.131-0.174 0.442-0.261 0.913-0.256 1.387 0 1.819 0.456 3.025 1.356 3.619 0.879 0.595 1.893 0.961 2.95 1.062-0.136 0.149-0.256 0.312-0.356 0.488-0.123 0.237-0.198 0.496-0.219 0.762-0.403 0.135-0.825 0.209-1.25 0.219-0.558 0.037-1.052-0.306-1.481-1.031-0.167-0.252-0.382-0.467-0.633-0.635s-0.533-0.283-0.83-0.34c-0.463 0.094-0.475 0.287-0.044 0.581 0.477 0.349 0.84 0.832 1.044 1.387 0.325 0.52 0.808 0.923 1.378 1.148s1.198 0.261 1.791 0.102v1.619c-0.009 0.127-0.062 0.246-0.15 0.337-0.067 0.061-0.147 0.104-0.234 0.126s-0.179 0.022-0.266-0.001c-0.91-0.324-1.768-0.781-2.544-1.356-0.78-0.568-1.467-1.253-2.038-2.031-0.563-0.783-1.003-1.647-1.306-2.563-0.317-0.955-0.478-1.956-0.475-2.963-0.006-1.257 0.247-2.502 0.744-3.656 0.956-2.251 2.749-4.044 5-5 1.161-0.497 2.412-0.748 3.675-0.738z"></path>
</svg>
