<!-- Generated by IcoMoon.io -->
<svg version="1.1" xmlns="http://www.w3.org/2000/svg" width="20" height="20" viewBox="0 0 20 20">
<title>gitium</title>
<path d="M5.375 8.413c-0.122-0.006-0.24-0.048-0.338-0.12s-0.174-0.172-0.216-0.287c-0.043-0.115-0.051-0.239-0.023-0.358s0.089-0.228 0.178-0.312 0.2-0.141 0.32-0.162c0.12-0.022 0.244-0.008 0.357 0.041s0.208 0.128 0.276 0.23 0.103 0.222 0.104 0.344c0 0.085-0.017 0.169-0.050 0.247s-0.082 0.148-0.144 0.207c-0.061 0.058-0.134 0.104-0.213 0.133s-0.164 0.043-0.249 0.038zM14.544 13.65c0.13 0 0.257 0.038 0.365 0.111s0.192 0.175 0.242 0.294c0.050 0.12 0.063 0.252 0.037 0.379s-0.088 0.244-0.18 0.336c-0.092 0.092-0.209 0.154-0.336 0.18s-0.259 0.012-0.379-0.037c-0.12-0.050-0.222-0.134-0.294-0.242s-0.111-0.235-0.111-0.365c-0.004-0.087 0.009-0.175 0.041-0.256s0.080-0.156 0.141-0.218c0.062-0.062 0.136-0.11 0.218-0.141s0.169-0.045 0.256-0.041zM5.375 14.963c-0.13 0-0.257-0.038-0.365-0.111s-0.192-0.175-0.242-0.295c-0.050-0.12-0.063-0.252-0.037-0.379s0.088-0.244 0.18-0.336c0.092-0.092 0.209-0.154 0.336-0.18s0.259-0.012 0.379 0.037c0.12 0.050 0.222 0.134 0.295 0.242s0.111 0.235 0.111 0.365c0.004 0.087-0.009 0.175-0.041 0.256s-0.080 0.156-0.141 0.218c-0.062 0.062-0.136 0.11-0.218 0.141s-0.169 0.045-0.256 0.041zM5.375 12.344c-0.36 0.003-0.713 0.105-1.020 0.295s-0.555 0.46-0.718 0.781c-0.163 0.321-0.235 0.681-0.208 1.041s0.153 0.705 0.362 0.998 0.496 0.523 0.828 0.664c0.332 0.142 0.696 0.189 1.052 0.138s0.693-0.199 0.971-0.428c0.278-0.229 0.489-0.53 0.608-0.87h5.437c0.151 0.435 0.449 0.803 0.843 1.040s0.859 0.329 1.314 0.26c0.455-0.069 0.871-0.296 1.176-0.64s0.48-0.785 0.494-1.244-0.133-0.91-0.416-1.273c-0.283-0.363-0.684-0.615-1.134-0.712s-0.919-0.035-1.327 0.178c-0.408 0.213-0.729 0.561-0.906 0.986-0.438-0.225-0.625-0.831-0.956-1.969-0.215-1.055-0.651-2.052-1.281-2.925-0.404-0.47-0.903-0.85-1.464-1.112s-1.172-0.403-1.792-0.413c-0.155-0.438-0.459-0.807-0.86-1.042s-0.871-0.321-1.329-0.242c-0.458 0.079-0.873 0.316-1.172 0.671s-0.464 0.804-0.464 1.269 0.164 0.914 0.464 1.269c0.299 0.355 0.715 0.593 1.172 0.671s0.928-0.007 1.329-0.242c0.401-0.235 0.705-0.604 0.86-1.042 2.394 0.2 2.831 1.8 3.294 3.481 0.146 0.598 0.356 1.178 0.625 1.731h-3.931c-0.133-0.385-0.382-0.719-0.714-0.955s-0.729-0.363-1.136-0.363zM17.2 0.638h-15.713c-0.173 0-0.339 0.069-0.462 0.191s-0.191 0.289-0.191 0.462c0 0.173 0.069 0.339 0.191 0.462s0.289 0.191 0.462 0.191h15.713c0.087-0.004 0.175 0.009 0.256 0.041s0.156 0.080 0.218 0.141c0.062 0.062 0.11 0.136 0.141 0.218s0.045 0.169 0.041 0.256v14.375c0.004 0.087-0.009 0.175-0.041 0.256s-0.080 0.156-0.141 0.218c-0.062 0.062-0.136 0.11-0.218 0.141s-0.169 0.045-0.256 0.041h-14.375c-0.087 0.004-0.175-0.009-0.256-0.041s-0.156-0.080-0.218-0.141c-0.062-0.062-0.11-0.136-0.141-0.218s-0.045-0.169-0.041-0.256v-11.75c-0-0.085 0.017-0.169 0.050-0.247s0.082-0.148 0.144-0.207c0.061-0.058 0.134-0.104 0.213-0.133s0.164-0.043 0.249-0.038h5.863c0.174 0 0.341-0.069 0.464-0.192s0.192-0.29 0.192-0.464c0-0.174-0.069-0.341-0.192-0.464s-0.29-0.192-0.464-0.192h-5.888c-0.517-0-1.013 0.203-1.381 0.566s-0.579 0.855-0.588 1.372v11.781c0 0.522 0.207 1.023 0.577 1.392s0.87 0.577 1.392 0.577h14.375c0.522 0 1.023-0.207 1.392-0.577s0.577-0.87 0.577-1.392v-14.375c0-0.522-0.207-1.023-0.577-1.392s-0.87-0.577-1.392-0.577l0.025-0.025z"></path>
</svg>
