<!-- Generated by IcoMoon.io -->
<svg version="1.1" xmlns="http://www.w3.org/2000/svg" width="20" height="20" viewBox="0 0 20 20">
<title>gitolite</title>
<path d="M7.106 7.987c-0.057-0.3-0.187-0.581-0.377-0.82s-0.437-0.427-0.717-0.549c-0.341-0.157-0.712-0.24-1.088-0.244h-0.056c-0.36-0.003-0.716 0.076-1.041 0.23s-0.61 0.382-0.834 0.663c-0.488 0.684-0.75 1.503-0.75 2.344 0 0.113 0 0.219 0 0.325-0.007 0.114-0.007 0.229 0 0.344-0 0.802 0.291 1.577 0.819 2.181 0.494 0.472 1.154 0.731 1.837 0.719h0.1c0.571 0.001 1.123-0.208 1.55-0.588 0.439-0.403 0.725-0.947 0.806-1.537h-2.225v-1.606h3.975v5.169h-1.325l-0.2-1.206c-0.283 0.376-0.62 0.709-1 0.987-0.552 0.328-1.183 0.501-1.825 0.5h-0.25c-0.563-0.001-1.119-0.121-1.632-0.353s-0.971-0.569-1.343-0.991c-0.832-0.93-1.293-2.133-1.294-3.381 0-0.1 0-0.194 0-0.281 0-0.075 0-0.162 0-0.25-0-1.289 0.453-2.537 1.281-3.525 0.405-0.446 0.899-0.801 1.451-1.045s1.147-0.369 1.749-0.368h0.356c0.999-0.001 1.967 0.346 2.738 0.981 0.701 0.579 1.15 1.409 1.25 2.313l-1.956-0.012zM15 4.712h2.288v3.75h2.462v2.225h-2.45v3.75h-2.3v-3.75h-2.456v-2.206h2.456v-3.769zM10 14.475v-9.763h2.125v9.763h-2.125z"></path>
</svg>
