<!-- Generated by IcoMoon.io -->
<svg version="1.1" xmlns="http://www.w3.org/2000/svg" width="32" height="32" viewBox="0 0 32 32">
<title>give-usd</title>
<path d="M16 2c0.552 0 1 0.448 1 1v0.423c0.473 0.119 0.912 0.323 1.284 0.599 0.623 0.463 1.116 1.185 1.116 2.078 0 0.552-0.448 1-1 1s-1-0.448-1-1c0-0.107-0.057-0.285-0.309-0.472s-0.638-0.328-1.091-0.328c-0.483 0-0.869 0.132-1.106 0.301-0.219 0.157-0.294 0.323-0.294 0.499 0 0.196 0.077 0.389 0.4 0.653 0.354 0.291 0.854 0.543 1.498 0.865l0.024 0.012c0.583 0.292 1.299 0.649 1.859 1.124 0.602 0.51 1.119 1.234 1.119 2.246 0 0.893-0.493 1.615-1.116 2.078-0.398 0.296-0.872 0.508-1.384 0.623v0.299c0 0.552-0.448 1-1 1s-1-0.448-1-1v-0.35c-0.435-0.122-0.838-0.316-1.184-0.572-0.623-0.463-1.116-1.185-1.116-2.078 0-0.552 0.448-1 1-1s1 0.448 1 1c0 0.107 0.057 0.285 0.309 0.472s0.638 0.328 1.091 0.328 0.84-0.141 1.091-0.328c0.252-0.187 0.309-0.365 0.309-0.472 0-0.238-0.095-0.451-0.412-0.72-0.351-0.297-0.848-0.555-1.485-0.873l-0.079-0.039c-0.567-0.283-1.253-0.626-1.792-1.068-0.596-0.489-1.132-1.196-1.132-2.2 0-0.924 0.476-1.658 1.131-2.126 0.374-0.267 0.809-0.453 1.269-0.56v-0.413c0-0.552 0.448-1 1-1z"></path>
<path d="M9.946 4.467c0.294 0.467 0.154 1.085-0.313 1.379-2.486 1.566-4.339 4.060-5.172 6.933-0.154 0.53-0.709 0.835-1.239 0.682s-0.836-0.709-0.682-1.239c0.966-3.328 3.114-6.233 6.028-8.067 0.467-0.294 1.085-0.154 1.379 0.313z"></path>
<path d="M24.625 5.019c-0.431-0.345-1.061-0.275-1.406 0.156s-0.275 1.061 0.156 1.406c2.785 2.228 4.625 5.65 4.625 9.419 0 0.622-0.090 1.36-0.19 2.059-0.078 0.547 0.302 1.053 0.849 1.131s1.053-0.302 1.131-0.849c0.1-0.701 0.21-1.563 0.21-2.341 0-4.431-2.16-8.409-5.375-10.981z"></path>
<path d="M20 19.5c-0.040 0-0.079 0.002-0.118 0.007-0.428-1.753-1.974-3.007-3.882-3.007h-3.764l-3.772-1.886c-0.069-0.036-0.142-0.064-0.219-0.084-0.088-0.022-0.178-0.032-0.266-0.030h-4.979c-0.552 0-1 0.448-1 1v11c0 0.552 0.448 1 1 1h4.82l4.935 1.838c2.087 0.769 4.315 0.888 6.445 0.216l0.002-0 8.015-2.505c1.592-0.531 2.684-2.001 2.684-3.649 0-2.152-1.748-3.9-3.9-3.9h-6zM9 25.805v-8.687l2.553 1.276c0.139 0.069 0.292 0.106 0.447 0.106h4c1.148 0 2 0.852 2 2s-0.852 2-2 2h-3c-0.552 0-1 0.448-1 1s0.448 1 1 1h3c1.908 0 3.454-1.254 3.882-3.007 0.039 0.005 0.078 0.007 0.118 0.007h6c1.048 0 1.9 0.852 1.9 1.9 0 0.75-0.505 1.477-1.308 1.749l-7.993 2.498c-1.669 0.527-3.44 0.446-5.152-0.184l-0.002-0.001-4.446-1.656zM4 25.5v-9h3v9h-3z"></path>
</svg>
