<!-- Generated by IcoMoon.io -->
<svg version="1.1" xmlns="http://www.w3.org/2000/svg" width="20" height="20" viewBox="0 0 20 20">
<title>give-euro</title>
<path d="M8.89 3.315c1.053-1.103 2.711-1.072 3.793 0.010 0.244 0.244 0.64 0.244 0.884 0s0.244-0.64 0-0.884c-1.543-1.543-4.010-1.636-5.582 0.010-0.371 0.389-0.653 0.833-0.846 1.307h-0.014c-0.345 0-0.625 0.28-0.625 0.625 0 0.246 0.142 0.458 0.347 0.56-0.022 0.23-0.025 0.46-0.010 0.69h-0.588c-0.345 0-0.625 0.28-0.625 0.625s0.28 0.625 0.625 0.625h0.874c0.194 0.481 0.484 0.93 0.871 1.317 1.557 1.557 4.015 1.557 5.571 0 0.244-0.244 0.244-0.64 0-0.884s-0.64-0.244-0.884 0c-1.068 1.068-2.735 1.068-3.804 0-0.134-0.134-0.251-0.279-0.351-0.433h1.347c0.345 0 0.625-0.28 0.625-0.625s-0.28-0.625-0.625-0.625h-1.782c-0.021-0.207-0.019-0.417 0.004-0.625h2.653c0.345 0 0.625-0.28 0.625-0.625s-0.28-0.625-0.625-0.625h-2.209c0.1-0.156 0.216-0.305 0.349-0.443z"></path>
<path d="M6.216 2.8c0.184 0.292 0.096 0.678-0.196 0.862-1.554 0.978-2.712 2.538-3.233 4.333-0.096 0.332-0.443 0.522-0.774 0.426s-0.522-0.443-0.426-0.774c0.604-2.080 1.946-3.896 3.767-5.042 0.292-0.184 0.678-0.096 0.862 0.196z"></path>
<path d="M15.39 3.145c-0.27-0.216-0.663-0.172-0.878 0.098s-0.172 0.663 0.098 0.878c1.74 1.392 2.89 3.531 2.89 5.887 0 0.389-0.056 0.85-0.119 1.287-0.049 0.342 0.189 0.658 0.53 0.707s0.658-0.189 0.707-0.53c0.063-0.438 0.131-0.977 0.131-1.463 0-2.769-1.35-5.255-3.36-6.863z"></path>
<path d="M12.5 12.196c-0.025 0-0.050 0.001-0.074 0.004-0.268-1.095-1.234-1.879-2.426-1.879h-2.352l-2.357-1.179c-0.043-0.023-0.089-0.040-0.137-0.052-0.055-0.014-0.111-0.020-0.166-0.019h-3.112c-0.345 0-0.625 0.28-0.625 0.625v6.875c0 0.345 0.28 0.625 0.625 0.625h3.012l3.084 1.149c1.305 0.481 2.697 0.555 4.028 0.135l0.001-0 5.009-1.566c0.995-0.332 1.677-1.251 1.677-2.28 0-1.345-1.092-2.438-2.438-2.438h-3.75zM5.625 16.136v-5.43l1.596 0.798c0.087 0.043 0.183 0.066 0.279 0.066h2.5c0.717 0 1.25 0.533 1.25 1.25s-0.533 1.25-1.25 1.25h-1.875c-0.345 0-0.625 0.28-0.625 0.625s0.28 0.625 0.625 0.625h1.875c1.193 0 2.159-0.784 2.426-1.879 0.024 0.003 0.049 0.004 0.074 0.004h3.75c0.655 0 1.188 0.533 1.188 1.187 0 0.469-0.315 0.923-0.818 1.093l-4.996 1.561c-1.043 0.329-2.15 0.279-3.22-0.115l-0.001-0-2.779-1.035zM2.5 15.946v-5.625h1.875v5.625h-1.875z"></path>
</svg>
