<!-- Generated by IcoMoon.io -->
<svg version="1.1" xmlns="http://www.w3.org/2000/svg" width="20" height="20" viewBox="0 0 20 20">
<title>give-usd</title>
<path d="M10 1.25c0.345 0 0.625 0.28 0.625 0.625v0.265c0.296 0.075 0.57 0.202 0.802 0.374 0.39 0.289 0.698 0.741 0.698 1.299 0 0.345-0.28 0.625-0.625 0.625s-0.625-0.28-0.625-0.625c0-0.067-0.036-0.178-0.193-0.295s-0.399-0.205-0.682-0.205c-0.302 0-0.543 0.082-0.691 0.188-0.137 0.098-0.184 0.202-0.184 0.312 0 0.123 0.048 0.243 0.25 0.408 0.222 0.182 0.533 0.339 0.936 0.541l0.015 0.008c0.364 0.182 0.812 0.406 1.162 0.702 0.376 0.318 0.7 0.771 0.7 1.404 0 0.558-0.308 1.009-0.698 1.299-0.249 0.185-0.545 0.317-0.865 0.389v0.187c0 0.345-0.28 0.625-0.625 0.625s-0.625-0.28-0.625-0.625v-0.219c-0.272-0.076-0.524-0.197-0.74-0.358-0.39-0.289-0.698-0.741-0.698-1.299 0-0.345 0.28-0.625 0.625-0.625s0.625 0.28 0.625 0.625c0 0.067 0.036 0.178 0.193 0.295s0.399 0.205 0.682 0.205 0.525-0.088 0.682-0.205c0.157-0.117 0.193-0.228 0.193-0.295 0-0.149-0.059-0.282-0.257-0.45-0.219-0.186-0.53-0.347-0.928-0.546l-0.049-0.025c-0.354-0.177-0.783-0.391-1.12-0.667-0.373-0.306-0.707-0.748-0.707-1.375 0-0.578 0.297-1.036 0.707-1.329 0.234-0.167 0.505-0.283 0.793-0.35v-0.258c0-0.345 0.28-0.625 0.625-0.625z"></path>
<path d="M6.216 2.792c0.184 0.292 0.096 0.678-0.196 0.862-1.554 0.978-2.712 2.538-3.233 4.333-0.096 0.332-0.443 0.522-0.774 0.426s-0.522-0.443-0.426-0.774c0.604-2.080 1.946-3.896 3.767-5.042 0.292-0.184 0.678-0.096 0.862 0.196z"></path>
<path d="M15.39 3.137c-0.27-0.216-0.663-0.172-0.878 0.098s-0.172 0.663 0.098 0.878c1.74 1.392 2.89 3.531 2.89 5.887 0 0.389-0.056 0.85-0.119 1.287-0.049 0.342 0.189 0.658 0.53 0.707s0.658-0.189 0.707-0.53c0.063-0.438 0.131-0.977 0.131-1.463 0-2.769-1.35-5.255-3.36-6.863z"></path>
<path d="M12.5 12.188c-0.025 0-0.050 0.001-0.074 0.004-0.268-1.095-1.234-1.879-2.426-1.879h-2.352l-2.357-1.179c-0.043-0.023-0.089-0.040-0.137-0.052-0.055-0.014-0.111-0.020-0.166-0.019h-3.112c-0.345 0-0.625 0.28-0.625 0.625v6.875c0 0.345 0.28 0.625 0.625 0.625h3.012l3.084 1.149c1.305 0.481 2.697 0.555 4.028 0.135l0.001-0 5.009-1.566c0.995-0.332 1.677-1.251 1.677-2.28 0-1.345-1.092-2.437-2.438-2.437h-3.75zM5.625 16.128v-5.43l1.596 0.798c0.087 0.043 0.183 0.066 0.279 0.066h2.5c0.717 0 1.25 0.533 1.25 1.25s-0.533 1.25-1.25 1.25h-1.875c-0.345 0-0.625 0.28-0.625 0.625s0.28 0.625 0.625 0.625h1.875c1.193 0 2.159-0.784 2.426-1.879 0.024 0.003 0.049 0.004 0.074 0.004h3.75c0.655 0 1.188 0.533 1.188 1.188 0 0.469-0.315 0.923-0.818 1.093l-4.996 1.561c-1.043 0.329-2.15 0.279-3.22-0.115l-0.001-0-2.779-1.035zM2.5 15.938v-5.625h1.875v5.625h-1.875z"></path>
</svg>
