<!-- Generated by IcoMoon.io -->
<svg version="1.1" xmlns="http://www.w3.org/2000/svg" width="20" height="20" viewBox="0 0 20 20">
<title>glasses</title>
<path d="M6.313 3.75h1.813c0.345 0 0.625 0.28 0.625 0.625s-0.28 0.625-0.625 0.625h-1.813c-0.555 0-1.004 0.341-1.163 0.776l-1.211 3.126c0.336-0.099 0.692-0.152 1.061-0.152 1.407 0 2.633 0.775 3.275 1.921 0.445-0.419 1.049-0.671 1.725-0.671s1.281 0.252 1.725 0.671c0.642-1.146 1.868-1.921 3.275-1.921 0.368 0 0.725 0.053 1.061 0.152l-1.211-3.126c-0.158-0.435-0.607-0.776-1.163-0.776h-1.813c-0.345 0-0.625-0.28-0.625-0.625s0.28-0.625 0.625-0.625h1.813c1.067 0 1.991 0.656 2.335 1.592l1.829 4.723c0.557 0.651 0.894 1.496 0.898 2.419 0 0.011 0 0.021 0 0.032-0.008 2.064-1.684 3.734-3.75 3.734-2.071 0-3.75-1.679-3.75-3.75 0-0.717-0.533-1.25-1.25-1.25s-1.25 0.533-1.25 1.25c0 2.071-1.679 3.75-3.75 3.75-2.066 0-3.742-1.671-3.75-3.734-0-0.011-0-0.021 0-0.032 0.004-0.923 0.341-1.768 0.898-2.419l1.829-4.723c0.344-0.936 1.268-1.592 2.335-1.592zM2.502 12.611c0.058 1.329 1.154 2.389 2.498 2.389 1.381 0 2.5-1.119 2.5-2.5s-1.119-2.5-2.5-2.5c-0.692 0-1.319 0.281-1.771 0.736l-0.726 1.875zM17.498 12.611l-0.726-1.875c-0.453-0.454-1.079-0.736-1.771-0.736-1.381 0-2.5 1.119-2.5 2.5s1.119 2.5 2.5 2.5c1.344 0 2.44-1.060 2.498-2.389z"></path>
</svg>
