<!-- Generated by IcoMoon.io -->
<svg version="1.1" xmlns="http://www.w3.org/2000/svg" width="20" height="20" viewBox="0 0 20 20">
<title>globe-alt</title>
<path d="M15.567 1.433c-0.244-0.244-0.64-0.244-0.884 0s-0.244 0.64 0 0.884c2.943 2.943 2.943 7.673 0 10.616-1.437 1.437-3.301 2.173-5.174 2.206-0.043-0.009-0.088-0.014-0.134-0.014s-0.091 0.005-0.134 0.014c-1.873-0.033-3.737-0.769-5.174-2.206-0.244-0.244-0.64-0.244-0.884 0s-0.244 0.64 0 0.884c1.556 1.556 3.541 2.406 5.567 2.551v1.257h-2.5c-0.345 0-0.625 0.28-0.625 0.625s0.28 0.625 0.625 0.625h6.25c0.345 0 0.625-0.28 0.625-0.625s-0.28-0.625-0.625-0.625h-2.5v-1.257c2.026-0.145 4.011-0.995 5.567-2.551 3.432-3.432 3.432-8.952 0-12.384z"></path>
<path d="M9.375 1.375c-3.452 0-6.25 2.798-6.25 6.25s2.798 6.25 6.25 6.25c3.452 0 6.25-2.798 6.25-6.25s-2.798-6.25-6.25-6.25zM4.375 7.625c0-2.761 2.239-5 5-5s5 2.239 5 5c0 2.761-2.239 5-5 5s-5-2.239-5-5z"></path>
</svg>
