<!-- Generated by IcoMoon.io -->
<svg version="1.1" xmlns="http://www.w3.org/2000/svg" width="20" height="20" viewBox="0 0 20 20">
<title>globe</title>
<path d="M1.25 10c0 4.832 3.918 8.75 8.75 8.75s8.75-3.918 8.75-8.75c0-4.832-3.918-8.75-8.75-8.75s-8.75 3.918-8.75 8.75zM3.089 7.081c0.686 0.211 1.385 0.392 2.093 0.541-0.119 0.758-0.182 1.557-0.182 2.378s0.063 1.62 0.182 2.378c-0.708 0.149-1.407 0.33-2.093 0.541-0.379-0.897-0.589-1.884-0.589-2.919s0.21-2.022 0.589-2.919zM3.684 14.046c0.575-0.17 1.158-0.318 1.748-0.442 0.229 0.904 0.542 1.728 0.924 2.438 0.142 0.263 0.296 0.515 0.461 0.751-1.286-0.603-2.372-1.561-3.133-2.747zM13.644 16.042c0.383-0.711 0.696-1.535 0.924-2.438 0.59 0.124 1.174 0.272 1.748 0.442-0.761 1.186-1.848 2.144-3.133 2.747 0.165-0.237 0.319-0.488 0.461-0.751zM12.543 15.449c-0.57 1.059-1.245 1.696-1.918 1.938v-4.253c0.915 0.026 1.82 0.109 2.71 0.245-0.203 0.778-0.473 1.477-0.792 2.070zM9.375 17.387c-0.673-0.243-1.348-0.88-1.918-1.938-0.319-0.592-0.589-1.291-0.792-2.070 0.891-0.136 1.795-0.219 2.71-0.245v4.253zM10.625 11.883v-3.767c1.001-0.027 1.99-0.118 2.963-0.27 0.105 0.68 0.162 1.402 0.162 2.153s-0.057 1.473-0.162 2.153c-0.973-0.151-1.962-0.243-2.963-0.27zM9.375 8.117v3.767c-1.001 0.027-1.99 0.118-2.963 0.27-0.105-0.68-0.162-1.402-0.162-2.153s0.057-1.473 0.162-2.153c0.973 0.151 1.962 0.243 2.963 0.27zM10.625 6.866v-4.253c0.673 0.243 1.348 0.88 1.918 1.938 0.319 0.593 0.589 1.291 0.792 2.070-0.891 0.136-1.795 0.219-2.71 0.245zM9.375 2.613v4.253c-0.915-0.026-1.82-0.109-2.71-0.245 0.203-0.778 0.473-1.477 0.792-2.070 0.57-1.059 1.245-1.695 1.918-1.938zM16.911 12.919c-0.686-0.211-1.385-0.392-2.093-0.541 0.119-0.758 0.182-1.557 0.182-2.378s-0.063-1.62-0.182-2.378c0.708-0.149 1.407-0.33 2.093-0.541 0.379 0.897 0.589 1.884 0.589 2.919s-0.21 2.022-0.589 2.919zM16.316 5.954c-0.575 0.17-1.158 0.318-1.748 0.442-0.228-0.904-0.542-1.728-0.924-2.438-0.142-0.263-0.296-0.515-0.461-0.751 1.286 0.603 2.372 1.561 3.133 2.747zM6.356 3.958c-0.383 0.711-0.696 1.535-0.924 2.438-0.59-0.124-1.174-0.272-1.748-0.442 0.761-1.186 1.848-2.144 3.133-2.747-0.165 0.237-0.319 0.488-0.461 0.751z"></path>
</svg>
