<!-- Generated by IcoMoon.io -->
<svg version="1.1" xmlns="http://www.w3.org/2000/svg" width="32" height="32" viewBox="0 0 32 32">
<title>golang</title>
<path d="M16.35 7.070c0.176 0.039 0.339 0.126 0.47 0.25 0.058 0.042 0.106 0.097 0.137 0.162s0.046 0.136 0.043 0.208c0 0.082-0.022 0.163-0.064 0.234s-0.103 0.128-0.176 0.166c-0.298 0.125-0.606 0.226-0.92 0.3-0.226-0.019-0.45-0.056-0.67-0.11-0.12-0.017-0.23-0.077-0.309-0.169s-0.122-0.21-0.121-0.331c-0.005-0.093 0.017-0.187 0.063-0.268s0.114-0.148 0.197-0.192c0.257-0.218 0.583-0.339 0.92-0.34 0.148 0.003 0.293 0.034 0.43 0.090zM11.17 5.94l0.2-0.21-0.23-0.18c0 0.070-0.13 0.14-0.13 0.2s0.1 0.13 0.16 0.19zM18.11 5.69c-0.050 0-0.11-0.090-0.11-0.17s0.060-0.13 0.14-0.27c0.080 0.14 0.15 0.21 0.15 0.27s-0.18 0.17-0.18 0.17zM10.77 4.69c0.226 0.015 0.439 0.115 0.595 0.28s0.243 0.383 0.245 0.61c0 0.22-0.088 0.431-0.243 0.587s-0.367 0.243-0.587 0.243-0.431-0.087-0.587-0.243c-0.156-0.156-0.243-0.367-0.243-0.587-0.001-0.224 0.083-0.441 0.236-0.606s0.361-0.267 0.585-0.284zM17.68 4.47c-0.216 0.025-0.415 0.128-0.559 0.291s-0.223 0.372-0.221 0.589v0.060c-0 0.216 0.083 0.424 0.232 0.58s0.352 0.249 0.568 0.26c0.218-0.013 0.422-0.107 0.573-0.265s0.235-0.367 0.237-0.585c0 0 0 0 0-0.060 0.003-0.222-0.081-0.436-0.235-0.597s-0.363-0.255-0.585-0.263l-0.010-0.010zM21.75 5.9c-0.146 0.484-0.436 0.912-0.83 1.228s-0.876 0.505-1.38 0.542c-0.16 0.011-0.32 0.011-0.48 0-0.3-0.001-0.599-0.038-0.89-0.11-0.466-0.094-0.892-0.329-1.221-0.672s-0.545-0.779-0.619-1.248c-0.011-0.146-0.011-0.294 0-0.44 0.005-0.375 0.098-0.743 0.271-1.075s0.423-0.618 0.729-0.835c0.532-0.445 1.206-0.686 1.9-0.68h0.15c0.332-0.001 0.66 0.063 0.967 0.189s0.586 0.311 0.821 0.546c0.235 0.234 0.422 0.512 0.549 0.819s0.193 0.635 0.193 0.967c-0.001 0.254-0.038 0.506-0.11 0.75l-0.050 0.020zM18 9.42c-0.058 0.097-0.14 0.177-0.238 0.233s-0.209 0.086-0.322 0.087c-0.063 0.010-0.127 0.010-0.19 0-0.21-0.060-0.41-0.15-0.62-0.23-0.198-0.089-0.413-0.137-0.63-0.14-0.205-0-0.408 0.037-0.6 0.11-0.22 0.082-0.443 0.152-0.67 0.21h-0.050c-0.48 0.090-0.79-0.18-0.79-0.73 0.016-0.163 0.072-0.319 0.163-0.455s0.213-0.248 0.357-0.325c0.080 0 0.19-0.17 0.17-0.24-0.080-0.36 0.17-0.56 0.39-0.74 0.293-0.203 0.643-0.308 1-0.3 0.286-0.002 0.567 0.066 0.82 0.2 0.124 0.054 0.23 0.143 0.303 0.257s0.11 0.247 0.107 0.383c0.005 0.047 0.005 0.093 0 0.14 0 0.16 0 0.24 0.14 0.32 0.218 0.148 0.419 0.319 0.6 0.51 0.050 0.052 0.088 0.113 0.114 0.18s0.038 0.138 0.036 0.21c0.004 0.115-0.032 0.228-0.1 0.32h0.010zM16.78 11.24c-0.076 0.044-0.162 0.068-0.25 0.070-0.111-0-0.219-0.039-0.305-0.111s-0.144-0.17-0.165-0.279c-0.011-0.207-0.011-0.413 0-0.62 0-0.22 0-0.44 0-0.65 0 0 0.12-0.13 0.16-0.12 0.233 0.057 0.46 0.134 0.68 0.23 0.060 0 0.090 0.12 0.1 0.18 0.002 0.204 0.018 0.408 0.050 0.61 0.035 0.127 0.026 0.262-0.025 0.383s-0.141 0.222-0.255 0.287l0.010 0.020zM15.78 9.95v0.83c0 0.28-0.2 0.4-0.42 0.48-0.039 0.010-0.081 0.010-0.12 0-0.078 0-0.153-0.025-0.214-0.072s-0.106-0.113-0.126-0.188c-0.078-0.312-0.131-0.63-0.16-0.95 0-0.060 0.11-0.17 0.19-0.22s0.34-0.1 0.51-0.16c0.36-0.12 0.39-0.1 0.34 0.29v-0.010zM9.57 4.95c0.107-0.558 0.422-1.054 0.88-1.39 0.534-0.408 1.188-0.629 1.86-0.63 0.413-0 0.822 0.085 1.2 0.25 0.402 0.144 0.755 0.399 1.019 0.735s0.427 0.74 0.471 1.165c0.010 0.116 0.010 0.234 0 0.35 0 0.378-0.091 0.751-0.265 1.087s-0.426 0.625-0.735 0.843c-0.501 0.372-1.106 0.578-1.73 0.59h-0.27c-0.338 0.001-0.673-0.065-0.986-0.194s-0.596-0.32-0.834-0.56c-0.238-0.24-0.426-0.525-0.553-0.839s-0.19-0.649-0.186-0.987c-0.015-0.16-0.015-0.32 0-0.48l0.13 0.060zM26.71 16.17c-0.157-0.205-0.354-0.375-0.579-0.501s-0.474-0.204-0.73-0.229c-0.41-0.070-0.43-0.060-0.45-0.47v-3.15c0.005-0.1 0.005-0.2 0-0.3 0-1.598-0.154-3.192-0.46-4.76v0.16c0-0.23-0.17-0.49-0.1-0.67s0.35-0.25 0.53-0.38c0.253-0.155 0.462-0.373 0.608-0.632s0.222-0.551 0.222-0.848c0.002-0.216-0.039-0.43-0.12-0.63-0.091-0.296-0.247-0.569-0.456-0.797s-0.467-0.408-0.754-0.525c-0.287-0.117-0.597-0.168-0.906-0.151s-0.611 0.104-0.883 0.253c-0.088 0.061-0.193 0.092-0.3 0.090-0.124-0.012-0.24-0.065-0.33-0.15-1.036-0.738-2.245-1.197-3.51-1.33-0.47-0.074-0.944-0.118-1.42-0.13h-1.73c-0.69 0.11-1.38 0.19-2.090 0.32-1.393 0.201-2.712 0.755-3.83 1.61-0.16 0.13-0.27 0-0.4 0-0.313-0.171-0.664-0.26-1.020-0.26-0.386-0.006-0.767 0.095-1.099 0.293s-0.602 0.484-0.781 0.827c-0.155 0.268-0.237 0.571-0.24 0.88-0.002 0.33 0.092 0.654 0.269 0.932s0.431 0.5 0.731 0.638c0.38 0.2 0.38 0.2 0.29 0.62-0.178 0.95-0.265 1.914-0.26 2.88 0.004 0.508 0.034 1.015 0.090 1.52v-0.060c0.1 1.32 0.19 2.64 0.3 4 0 0.21-0.070 0.29-0.28 0.29h-0.020c-0.446-0.003-0.881 0.13-1.25 0.38-0.169 0.134-0.318 0.292-0.44 0.47-0.22 0.37 0.15 0.61 0.27 0.9s0.36 0.2 0.56 0.13c0.2-0.070 0.45-0.2 0.65-0.3l0.51-0.23v0.83c-0.080 1.3-0.19 2.61-0.24 3.91 0 0.14 0 0.32 0 0.49 0.001 1.099 0.17 2.192 0.5 3.24v-0.070c0.274 0.916 0.768 1.75 1.44 2.43l0.16 0.18c-0.29 0.2-0.54 0.4-0.79 0.61-0.193 0.146-0.359 0.326-0.49 0.53-0.057 0.083-0.096 0.177-0.115 0.276s-0.018 0.2 0.004 0.299 0.063 0.191 0.122 0.273c0.059 0.082 0.133 0.151 0.219 0.203 0.13 0.1 0.24 0.22 0.37 0.33h0.39c0.37-0.28 0.73-0.57 1.11-0.82 0.287-0.189 0.588-0.356 0.9-0.5h0.13c0.043-0.010 0.087-0.010 0.13 0 1.492 0.577 3.080 0.869 4.68 0.86 0.51 0 1 0 1.53-0.080h-0.050c1.426-0.117 2.815-0.511 4.090-1.16h-0.070c0.060-0.026 0.125-0.040 0.19-0.040s0.13 0.014 0.19 0.040c0.152 0.105 0.29 0.229 0.41 0.37 0.19 0.19 0.35 0.4 0.53 0.59 0.55 0.54 0.88 0.46 1.39 0 0.062-0.060 0.112-0.131 0.146-0.21s0.053-0.164 0.054-0.25c0-0.122-0.038-0.241-0.11-0.34-0.23-0.353-0.488-0.687-0.77-1-0.11-0.1-0.22-0.2-0.34-0.29 0.025-0.061 0.059-0.118 0.1-0.17 1.004-1.119 1.651-2.511 1.86-4 0.194-1.16 0.291-2.334 0.29-3.51 0-0.667-0.030-1.333-0.090-2v0.090c0.009-0.351-0.008-0.702-0.050-1.050v-0.090l0.25 0.12c0.171 0.1 0.352 0.18 0.54 0.24 0.13 0.040 0.27 0.040 0.4 0 0.125-0.091 0.227-0.21 0.298-0.347s0.11-0.289 0.112-0.443c0.015-0.096 0.015-0.194 0-0.29l-0.010 0.060z"></path>
</svg>
