<!-- Generated by IcoMoon.io -->
<svg version="1.1" xmlns="http://www.w3.org/2000/svg" width="20" height="20" viewBox="0 0 20 20">
<title>golang</title>
<path d="M10.219 4.419c0.11 0.025 0.212 0.079 0.294 0.156 0.037 0.026 0.066 0.061 0.086 0.101s0.029 0.085 0.027 0.13c0 0.051-0.014 0.102-0.040 0.146s-0.064 0.080-0.11 0.104c-0.186 0.078-0.378 0.141-0.575 0.188-0.141-0.012-0.281-0.035-0.419-0.069-0.075-0.011-0.144-0.048-0.193-0.106s-0.076-0.131-0.076-0.207c-0.003-0.058 0.010-0.117 0.039-0.168s0.072-0.093 0.123-0.12c0.161-0.136 0.364-0.212 0.575-0.212 0.092 0.002 0.183 0.021 0.269 0.056zM6.981 3.713l0.125-0.131-0.144-0.112c0 0.044-0.081 0.087-0.081 0.125s0.063 0.081 0.1 0.119zM11.319 3.556c-0.031 0-0.069-0.056-0.069-0.106s0.037-0.081 0.088-0.169c0.050 0.087 0.094 0.131 0.094 0.169s-0.112 0.106-0.112 0.106zM6.731 2.931c0.142 0.009 0.274 0.072 0.372 0.175s0.152 0.239 0.153 0.381c0 0.138-0.055 0.27-0.152 0.367s-0.229 0.152-0.367 0.152-0.269-0.055-0.367-0.152c-0.097-0.097-0.152-0.229-0.152-0.367-0-0.14 0.052-0.275 0.147-0.379s0.226-0.167 0.365-0.178zM11.050 2.794c-0.135 0.015-0.259 0.080-0.349 0.182s-0.139 0.233-0.138 0.368v0.037c-0 0.135 0.052 0.265 0.145 0.363s0.22 0.156 0.355 0.162c0.136-0.008 0.264-0.067 0.358-0.166s0.147-0.229 0.148-0.365c0 0 0 0 0-0.037 0.002-0.139-0.051-0.273-0.147-0.373s-0.227-0.159-0.366-0.164l-0.006-0.006zM13.594 3.688c-0.091 0.302-0.272 0.57-0.519 0.768s-0.547 0.316-0.862 0.339c-0.1 0.007-0.2 0.007-0.3 0-0.188-0.001-0.374-0.024-0.556-0.069-0.291-0.059-0.557-0.205-0.763-0.42s-0.341-0.487-0.387-0.78c-0.007-0.092-0.007-0.183 0-0.275 0.003-0.234 0.061-0.464 0.17-0.672s0.265-0.386 0.455-0.522c0.333-0.278 0.754-0.429 1.187-0.425h0.094c0.207-0.001 0.413 0.039 0.605 0.118s0.366 0.195 0.513 0.341c0.147 0.146 0.263 0.32 0.343 0.512s0.121 0.397 0.121 0.604c-0.001 0.159-0.024 0.317-0.069 0.469l-0.031 0.012zM11.25 5.888c-0.036 0.060-0.088 0.111-0.149 0.146s-0.131 0.054-0.201 0.054c-0.039 0.007-0.079 0.007-0.119 0-0.131-0.038-0.256-0.094-0.388-0.144-0.124-0.056-0.258-0.086-0.394-0.088-0.128-0-0.255 0.023-0.375 0.069-0.137 0.051-0.277 0.095-0.419 0.131h-0.031c-0.3 0.056-0.494-0.112-0.494-0.456 0.010-0.102 0.045-0.199 0.102-0.284s0.133-0.155 0.223-0.203c0.050 0 0.119-0.106 0.106-0.15-0.050-0.225 0.106-0.35 0.244-0.463 0.183-0.127 0.402-0.193 0.625-0.187 0.179-0.002 0.355 0.041 0.512 0.125 0.078 0.034 0.144 0.090 0.189 0.161s0.069 0.155 0.067 0.239c0.003 0.029 0.003 0.058 0 0.088 0 0.1 0 0.15 0.088 0.2 0.136 0.093 0.262 0.199 0.375 0.319 0.031 0.032 0.055 0.071 0.071 0.112s0.024 0.086 0.022 0.131c0.002 0.072-0.020 0.142-0.063 0.2h0.006zM10.488 7.025c-0.048 0.028-0.101 0.043-0.156 0.044-0.070-0-0.137-0.025-0.191-0.069s-0.090-0.106-0.103-0.175c-0.007-0.129-0.007-0.258 0-0.387 0-0.138 0-0.275 0-0.406 0 0 0.075-0.081 0.1-0.075 0.146 0.036 0.288 0.084 0.425 0.144 0.037 0 0.056 0.075 0.063 0.112 0.001 0.128 0.012 0.255 0.031 0.381 0.022 0.079 0.016 0.164-0.015 0.239s-0.088 0.139-0.16 0.179l0.006 0.012zM9.862 6.219v0.519c0 0.175-0.125 0.25-0.262 0.3-0.025 0.006-0.050 0.006-0.075 0-0.048 0-0.096-0.016-0.134-0.045s-0.066-0.071-0.078-0.118c-0.049-0.195-0.082-0.394-0.1-0.594 0-0.037 0.069-0.106 0.119-0.137s0.212-0.063 0.319-0.1c0.225-0.075 0.244-0.063 0.212 0.181v-0.006zM5.981 3.094c0.067-0.349 0.264-0.659 0.55-0.869 0.334-0.255 0.742-0.393 1.162-0.394 0.258-0 0.513 0.053 0.75 0.156 0.251 0.090 0.472 0.25 0.637 0.46s0.267 0.462 0.295 0.728c0.006 0.073 0.006 0.146 0 0.219 0 0.236-0.057 0.469-0.165 0.679s-0.266 0.391-0.46 0.527c-0.313 0.232-0.691 0.361-1.081 0.369h-0.169c-0.211 0.001-0.421-0.040-0.616-0.121s-0.373-0.2-0.522-0.35c-0.149-0.15-0.266-0.328-0.346-0.524s-0.119-0.406-0.116-0.617c-0.009-0.1-0.009-0.2 0-0.3l0.081 0.038zM16.694 10.106c-0.098-0.128-0.221-0.234-0.362-0.313s-0.296-0.127-0.457-0.143c-0.256-0.044-0.269-0.037-0.281-0.294v-1.969c0.003-0.062 0.003-0.125 0-0.188 0-0.999-0.096-1.995-0.287-2.975v0.1c0-0.144-0.106-0.306-0.063-0.419s0.219-0.156 0.331-0.237c0.158-0.097 0.289-0.233 0.38-0.395s0.139-0.344 0.139-0.53c0.001-0.135-0.024-0.269-0.075-0.394-0.057-0.185-0.154-0.355-0.285-0.498s-0.292-0.255-0.471-0.328c-0.179-0.073-0.373-0.105-0.566-0.094s-0.382 0.065-0.552 0.158c-0.055 0.038-0.121 0.058-0.188 0.056-0.077-0.008-0.15-0.041-0.206-0.094-0.647-0.462-1.403-0.748-2.194-0.831-0.294-0.047-0.59-0.074-0.888-0.081h-1.081c-0.431 0.069-0.862 0.119-1.306 0.2-0.871 0.125-1.695 0.472-2.394 1.006-0.1 0.081-0.169 0-0.25 0-0.196-0.107-0.415-0.163-0.637-0.162-0.242-0.004-0.479 0.059-0.687 0.183s-0.377 0.303-0.488 0.517c-0.097 0.167-0.148 0.357-0.15 0.55-0.001 0.206 0.057 0.408 0.168 0.582s0.269 0.312 0.457 0.399c0.237 0.125 0.237 0.125 0.181 0.388-0.111 0.593-0.166 1.196-0.163 1.8 0.003 0.317 0.021 0.634 0.056 0.95v-0.038c0.063 0.825 0.119 1.65 0.188 2.5 0 0.131-0.044 0.181-0.175 0.181h-0.012c-0.278-0.002-0.551 0.081-0.781 0.238-0.106 0.084-0.199 0.183-0.275 0.294-0.137 0.231 0.094 0.381 0.169 0.562s0.225 0.125 0.35 0.081c0.125-0.044 0.281-0.125 0.406-0.188l0.319-0.144v0.519c-0.050 0.813-0.119 1.631-0.15 2.444 0 0.088 0 0.2 0 0.306 0.001 0.687 0.106 1.37 0.313 2.025v-0.044c0.171 0.572 0.48 1.094 0.9 1.519l0.1 0.113c-0.181 0.125-0.337 0.25-0.494 0.381-0.121 0.091-0.225 0.204-0.306 0.331-0.035 0.052-0.060 0.111-0.072 0.172s-0.011 0.125 0.002 0.187 0.039 0.119 0.076 0.171c0.037 0.051 0.083 0.094 0.137 0.127 0.081 0.063 0.15 0.137 0.231 0.206h0.244c0.231-0.175 0.456-0.356 0.694-0.512 0.18-0.118 0.368-0.222 0.563-0.313h0.081c0.027-0.006 0.055-0.006 0.081 0 0.933 0.361 1.925 0.543 2.925 0.538 0.319 0 0.625 0 0.956-0.050h-0.031c0.891-0.073 1.759-0.319 2.556-0.725h-0.044c0.037-0.017 0.078-0.025 0.119-0.025s0.081 0.009 0.119 0.025c0.095 0.065 0.182 0.143 0.256 0.231 0.119 0.119 0.219 0.25 0.331 0.369 0.344 0.337 0.55 0.288 0.869 0 0.039-0.037 0.070-0.082 0.091-0.131s0.033-0.102 0.034-0.156c0-0.076-0.024-0.151-0.069-0.212-0.144-0.221-0.305-0.429-0.481-0.625-0.069-0.063-0.137-0.125-0.213-0.181 0.016-0.038 0.037-0.074 0.063-0.106 0.627-0.699 1.032-1.57 1.162-2.5 0.121-0.725 0.182-1.459 0.181-2.194 0-0.417-0.019-0.833-0.056-1.25v0.056c0.005-0.219-0.005-0.438-0.031-0.656v-0.056l0.156 0.075c0.107 0.062 0.22 0.113 0.337 0.15 0.081 0.025 0.169 0.025 0.25 0 0.078-0.057 0.142-0.131 0.186-0.217s0.068-0.18 0.070-0.277c0.010-0.060 0.010-0.121 0-0.181l-0.006 0.037z"></path>
</svg>
