<!-- Generated by IcoMoon.io -->
<svg version="1.1" xmlns="http://www.w3.org/2000/svg" width="20" height="20" viewBox="0 0 20 20">
<title>google-plus</title>
<path d="M19.375 10.569h-1.981v2h-1.544v-1.963h-1.956v-1.563h1.875v-1.956h1.563v1.919h1.981l0.063 1.563zM6.875 8.644h5.844c0.050 0.206 0.085 0.414 0.106 0.625 0.023 0.224 0.033 0.45 0.031 0.675 0.010 0.836-0.136 1.667-0.431 2.45-0.27 0.715-0.682 1.368-1.213 1.919-0.53 0.545-1.169 0.971-1.875 1.25-0.781 0.324-1.617 0.491-2.462 0.494-0.834 0.005-1.66-0.163-2.425-0.494-0.752-0.313-1.436-0.769-2.013-1.344-0.579-0.579-1.038-1.267-1.349-2.024s-0.469-1.569-0.463-2.388c-0.006-1.227 0.352-2.428 1.028-3.451s1.641-1.823 2.772-2.299c1.092-0.471 2.298-0.611 3.469-0.403s2.255 0.754 3.119 1.572l-1.744 1.719c-0.318-0.307-0.694-0.547-1.106-0.706-0.418-0.166-0.863-0.251-1.313-0.25-0.501-0.004-0.998 0.092-1.461 0.283s-0.883 0.473-1.236 0.829c-0.352 0.356-0.63 0.779-0.816 1.244s-0.278 0.963-0.268 1.463c-0.007 0.497 0.087 0.99 0.277 1.449s0.472 0.874 0.829 1.22c0.351 0.356 0.773 0.636 1.237 0.822s0.963 0.274 1.463 0.259c0.82 0.036 1.628-0.211 2.288-0.7 0.567-0.446 0.948-1.088 1.069-1.8h-3.356v-2.412z"></path>
</svg>
