<!-- Generated by IcoMoon.io -->
<svg version="1.1" xmlns="http://www.w3.org/2000/svg" width="20" height="20" viewBox="0 0 20 20">
<title>google-cloud-platform</title>
<path d="M17.044 7.681c-0.376-1.379-1.145-2.619-2.212-3.569-0.721-0.641-1.562-1.133-2.474-1.448s-1.877-0.448-2.84-0.39-1.905 0.305-2.773 0.728c-0.867 0.423-1.643 1.012-2.282 1.735-0.751 0.864-1.294 1.888-1.588 2.994-0.68 0.477-1.238 1.108-1.629 1.841s-0.604 1.548-0.621 2.378c-0.018 0.831 0.16 1.654 0.52 2.403s0.89 1.403 1.549 1.909c0.918 0.7 2.040 1.079 3.194 1.081h8.125c1.139 0.018 2.252-0.333 3.176-0.999s1.606-1.614 1.947-2.7c0.341-1.087 0.321-2.254-0.055-3.329s-1.091-1.998-2.036-2.634zM14.038 14.081h-8.125c-0.287-0.001-0.57-0.062-0.831-0.181-0.475-0.233-0.841-0.642-1.020-1.139s-0.158-1.046 0.060-1.528c0.218-0.482 0.614-0.861 1.106-1.056s1.040-0.191 1.529 0.011c0.451 0.207 0.812 0.568 1.019 1.019l2.363-2.363c-0.781-1.018-1.905-1.717-3.162-1.969 0.697-0.77 1.662-1.246 2.697-1.331s2.065 0.228 2.878 0.875c0.477 0.389 0.859 0.882 1.118 1.441s0.387 1.169 0.376 1.784v0.406c0.54 0 1.059 0.215 1.441 0.597s0.597 0.9 0.597 1.441c-0.003 0.265-0.059 0.527-0.163 0.771s-0.256 0.464-0.446 0.649c-0.19 0.185-0.414 0.331-0.66 0.429s-0.509 0.147-0.774 0.144z"></path>
</svg>
