<!-- Generated by IcoMoon.io -->
<svg version="1.1" xmlns="http://www.w3.org/2000/svg" width="32" height="32" viewBox="0 0 32 32">
<title>grafana</title>
<path d="M20.89 11.21c1.512 0.139 2.928 0.804 4 1.88 0.796 0.7 1.433 1.561 1.869 2.527s0.662 2.013 0.661 3.073v0.1c0 0.060 0 0.13 0 0.19-0.003 0.27 0.049 0.537 0.152 0.786s0.256 0.475 0.448 0.664c0.542 0.57 0.886 1.299 0.98 2.080-0 0.076-0.017 0.15-0.048 0.219s-0.076 0.131-0.132 0.181c-0.688 0.54-1.526 0.854-2.4 0.9-0.184 0.025-0.351 0.117-0.47 0.26-0.618 0.881-1.362 1.667-2.21 2.33-0.13 0.105-0.216 0.255-0.24 0.42-0.081 0.931-0.405 1.824-0.94 2.59l-0.22 0.3c-0.19 0.22-0.37 0.6-0.57 0.61-0.401-0.027-0.79-0.144-1.14-0.34-0.776-0.367-1.459-0.904-2-1.57-0.070-0.090-0.29-0.11-0.44-0.11h-0.16c-1.166 0.002-2.326-0.173-3.44-0.52h0.080c-0.080-0.011-0.16-0.011-0.24 0-0.156 0.002-0.307 0.055-0.43 0.15-1.186 0.786-2.578 1.203-4 1.2h-0.15c-0.115 0.001-0.226-0.040-0.313-0.116s-0.143-0.18-0.157-0.294c-0.219-0.644-0.33-1.32-0.33-2-0.002-0.582 0.079-1.161 0.24-1.72 0.010-0.066 0.010-0.134 0-0.2-0-0.088-0.018-0.174-0.053-0.255s-0.084-0.154-0.147-0.215c-0.46-0.57-0.87-1.2-1.34-1.79-0.13-0.173-0.312-0.299-0.52-0.36-1.762-0.427-3.352-1.379-4.56-2.73-0.033-0.072-0.050-0.151-0.050-0.23s0.017-0.158 0.050-0.23c0.579-1.535 1.656-2.831 3.060-3.68 0.128-0.055 0.24-0.14 0.327-0.248s0.147-0.236 0.173-0.372c0.16-0.88 0.39-1.74 0.59-2.61v-0.050c-0.013-0.121-0.054-0.238-0.12-0.34-0.897-1.399-1.369-3.028-1.36-4.69 0-0.15 0-0.3 0-0.44 0.001-0.112 0.038-0.221 0.107-0.309s0.165-0.152 0.273-0.181c0.895-0.367 1.853-0.554 2.82-0.55 0.812 0.001 1.619 0.133 2.39 0.39 0.081 0.038 0.171 0.055 0.26 0.050 0.158 0.003 0.313-0.046 0.44-0.14 0.804-0.548 1.674-0.992 2.59-1.32h0.080c0.067-0.029 0.127-0.073 0.176-0.129s0.084-0.121 0.104-0.191c0.426-1.209 1.216-2.257 2.26-3 0.087-0.073 0.197-0.112 0.31-0.11 0.11-0 0.216 0.039 0.3 0.11 0.949 0.598 1.689 1.474 2.12 2.51 0.039 0.111 0.109 0.208 0.201 0.28s0.203 0.118 0.319 0.13c0.74 0.18 1.48 0.41 2.23 0.61 0.099 0.016 0.201 0.016 0.3 0 0.099 0.015 0.201 0.015 0.3 0 0.713-0.391 1.507-0.611 2.32-0.64h0.080c0.099-0.001 0.197 0.030 0.276 0.090s0.137 0.144 0.164 0.24c0.284 0.628 0.428 1.311 0.42 2 0.010 0.197 0.010 0.393 0 0.59-0.006 0.043-0.006 0.087 0 0.13 0.002 0.081 0.019 0.16 0.052 0.234s0.080 0.14 0.138 0.196c1.87 1.917 2.943 4.473 3 7.15v0.2c-0.057 0.135-0.124 0.265-0.2 0.39-0.11-0.1-0.25-0.19-0.3-0.31-0.21-0.57-0.35-1.15-0.59-1.7-0.749-1.776-1.999-3.296-3.597-4.374s-3.476-1.667-5.403-1.696h-0.28c-1.674 0-3.318 0.438-4.77 1.27h0.050c-1.828 1.125-3.145 2.919-3.67 5v0.060c-0.304 0.95-0.456 1.942-0.45 2.94 0 0.3 0 0.6 0 0.9 0.129 1.25 0.55 2.453 1.23 3.51 0.693 1.18 1.682 2.159 2.87 2.839s2.532 1.039 3.901 1.041h0.31c0.946 0.001 1.877-0.235 2.708-0.685s1.537-1.102 2.052-1.895c0.483-0.67 0.821-1.432 0.993-2.24s0.174-1.642 0.007-2.45c-0.208-1.067-0.778-2.030-1.615-2.724s-1.888-1.078-2.975-1.086c-0.336 0.002-0.671 0.039-1 0.11-0.51 0.136-0.985 0.38-1.393 0.715s-0.74 0.753-0.974 1.226-0.364 0.991-0.382 1.519c-0.018 0.527 0.077 1.053 0.279 1.541 0.255 0.516 0.65 0.951 1.14 1.255s1.054 0.465 1.63 0.465c0.408 0.001 0.812-0.077 1.19-0.23 0.162-0.039 0.332-0.017 0.48 0.060-0.060 0.15-0.080 0.39-0.21 0.48-0.649 0.41-1.409 0.611-2.177 0.575s-1.505-0.306-2.113-0.775c-0.862-0.644-1.476-1.565-1.739-2.609s-0.157-2.146 0.299-3.121c0.91-2.33 2.95-3.69 6.27-3.68l-0.050-0.010z"></path>
</svg>
