<!-- Generated by IcoMoon.io -->
<svg version="1.1" xmlns="http://www.w3.org/2000/svg" width="20" height="20" viewBox="0 0 20 20">
<title>grafana</title>
<path d="M13.056 7.006c0.945 0.087 1.83 0.502 2.5 1.175 0.497 0.437 0.896 0.976 1.168 1.579s0.413 1.258 0.413 1.921v0.063c0 0.037 0 0.081 0 0.119-0.002 0.169 0.030 0.336 0.095 0.491s0.16 0.297 0.28 0.415c0.339 0.356 0.554 0.812 0.613 1.3-0 0.047-0.010 0.094-0.030 0.137s-0.048 0.082-0.083 0.113c-0.43 0.337-0.954 0.534-1.5 0.563-0.115 0.016-0.22 0.073-0.294 0.163-0.386 0.551-0.851 1.042-1.381 1.456-0.081 0.065-0.135 0.159-0.15 0.262-0.051 0.582-0.253 1.14-0.588 1.619l-0.137 0.188c-0.119 0.137-0.231 0.375-0.356 0.381-0.25-0.017-0.494-0.090-0.713-0.212-0.485-0.229-0.912-0.565-1.25-0.981-0.044-0.056-0.181-0.069-0.275-0.069h-0.1c-0.729 0.001-1.454-0.108-2.15-0.325h0.050c-0.050-0.007-0.1-0.007-0.15 0-0.097 0.001-0.192 0.034-0.269 0.094-0.741 0.491-1.611 0.752-2.5 0.75h-0.094c-0.072 0.001-0.141-0.025-0.196-0.072s-0.089-0.113-0.098-0.184c-0.137-0.402-0.207-0.825-0.206-1.25-0.001-0.364 0.049-0.726 0.15-1.075 0.007-0.041 0.007-0.084 0-0.125-0-0.055-0.011-0.109-0.033-0.159s-0.053-0.096-0.092-0.134c-0.288-0.356-0.544-0.75-0.838-1.119-0.081-0.108-0.195-0.187-0.325-0.225-1.101-0.267-2.095-0.862-2.85-1.706-0.021-0.045-0.032-0.094-0.032-0.144s0.011-0.099 0.032-0.144c0.362-0.959 1.035-1.769 1.912-2.3 0.080-0.034 0.15-0.087 0.204-0.155s0.092-0.147 0.108-0.233c0.1-0.55 0.244-1.088 0.369-1.631v-0.031c-0.008-0.076-0.034-0.148-0.075-0.212-0.561-0.874-0.856-1.893-0.85-2.931 0-0.094 0-0.188 0-0.275 0-0.070 0.024-0.138 0.067-0.193s0.103-0.095 0.171-0.113c0.559-0.23 1.158-0.346 1.763-0.344 0.508 0.001 1.012 0.083 1.494 0.244 0.051 0.023 0.107 0.034 0.162 0.031 0.099 0.002 0.195-0.029 0.275-0.087 0.502-0.343 1.046-0.62 1.619-0.825h0.050c0.042-0.018 0.080-0.046 0.11-0.080s0.052-0.075 0.065-0.12c0.266-0.756 0.76-1.41 1.412-1.875 0.054-0.046 0.123-0.070 0.194-0.069 0.069-0 0.135 0.024 0.188 0.069 0.593 0.374 1.056 0.922 1.325 1.569 0.024 0.069 0.068 0.13 0.125 0.175s0.127 0.073 0.2 0.081c0.462 0.112 0.925 0.256 1.394 0.381 0.062 0.010 0.125 0.010 0.188 0 0.062 0.009 0.125 0.009 0.188 0 0.446-0.245 0.942-0.382 1.45-0.4h0.050c0.062-0.001 0.123 0.019 0.173 0.056s0.086 0.090 0.102 0.15c0.178 0.393 0.267 0.819 0.263 1.25 0.006 0.123 0.006 0.246 0 0.369-0.003 0.027-0.003 0.054 0 0.081 0.001 0.050 0.012 0.1 0.032 0.146s0.050 0.088 0.086 0.122c1.169 1.198 1.839 2.795 1.875 4.469v0.125c-0.036 0.084-0.077 0.166-0.125 0.244-0.069-0.063-0.156-0.119-0.188-0.194-0.131-0.356-0.219-0.719-0.369-1.063-0.468-1.11-1.249-2.060-2.248-2.734s-2.172-1.042-3.377-1.060h-0.175c-1.046 0-2.074 0.274-2.981 0.794h0.031c-1.142 0.703-1.965 1.824-2.294 3.125v0.037c-0.19 0.594-0.285 1.214-0.281 1.838 0 0.188 0 0.375 0 0.562 0.080 0.782 0.344 1.533 0.769 2.194 0.433 0.738 1.051 1.349 1.793 1.775s1.582 0.649 2.438 0.65h0.194c0.591 0.001 1.173-0.147 1.692-0.428s0.961-0.689 1.283-1.184c0.302-0.418 0.513-0.895 0.621-1.4s0.109-1.026 0.004-1.531c-0.13-0.667-0.486-1.269-1.009-1.703s-1.18-0.674-1.859-0.679c-0.21 0.002-0.42 0.025-0.625 0.069-0.319 0.085-0.616 0.238-0.871 0.447s-0.463 0.47-0.609 0.766-0.227 0.619-0.238 0.949c-0.011 0.33 0.048 0.658 0.174 0.963 0.16 0.323 0.406 0.594 0.712 0.784s0.659 0.291 1.019 0.291c0.255 0.001 0.508-0.048 0.744-0.144 0.101-0.024 0.208-0.011 0.3 0.037-0.037 0.094-0.050 0.244-0.131 0.3-0.406 0.256-0.881 0.382-1.36 0.359s-0.941-0.191-1.321-0.484c-0.539-0.402-0.923-0.978-1.087-1.631s-0.098-1.341 0.187-1.951c0.569-1.456 1.844-2.306 3.919-2.3l-0.031-0.006z"></path>
</svg>
