<!-- Generated by IcoMoon.io -->
<svg version="1.1" xmlns="http://www.w3.org/2000/svg" width="32" height="32" viewBox="0 0 32 32">
<title>graphite</title>
<path d="M14.7 17.11l1.42-0.86c-0.23-0.65 0.55-1 0.55-1l-0.22-1c-0.9-0.13-0.81-0.62-0.81-0.62l-1.41-0.3c-0.14 0.109-0.301 0.188-0.473 0.231s-0.352 0.050-0.527 0.019c-0.49 0-0.84-0.31-0.72-0.7 0.059-0.126 0.144-0.238 0.249-0.329s0.228-0.16 0.361-0.201l-0.070-0.77c-0.68 0-0.62-0.5-0.62-0.5l-1.21-0.23c-0.248 0.101-0.512 0.159-0.78 0.17-0.38 0-0.8-0.16-0.7-0.48s0.62-0.48 0.62-0.48v-0.62c0 0-0.35 0-0.44-0.17s0-0.35 0.24-0.5c0.345-0.154 0.725-0.212 1.1-0.17l1-0.39c0 0 0-0.29 0.48-0.43v-0.47c0 0-0.34 0-0.47-0.2s0-0.34 0.41-0.44c0.241-0.050 0.489-0.050 0.73 0l0.9-0.31c-0.004-0.069 0.017-0.138 0.059-0.193s0.103-0.093 0.171-0.107c0.242-0.091 0.504-0.119 0.76-0.080 0.44 0 0.44 0.28 0.44 0.28l0.93 0.13c0.28-0.134 0.597-0.169 0.9-0.1l0.77-0.3c0 0-0.090-0.18 0.18-0.29 0.223-0.084 0.465-0.108 0.7-0.070 0.4 0.060 0.48 0.25 0.48 0.25l1 0.13c0.251-0.137 0.544-0.172 0.82-0.1l0.64-0.27c-0.019-0.026-0.031-0.057-0.036-0.089s-0.001-0.065 0.009-0.095c0.011-0.030 0.029-0.058 0.053-0.080s0.052-0.038 0.084-0.046c0.248-0.072 0.512-0.072 0.76 0 0.36 0.050 0.42 0.2 0.42 0.2l1 0.13c0.162-0.065 0.335-0.099 0.51-0.1 0.241-0.007 0.48 0.052 0.69 0.17 0.29 0.21-0.060 0.38-0.060 0.38l0.38 0.39c0 0 0.53 0 0.74 0.26l1.11 0.15c0.201-0.144 0.443-0.221 0.69-0.22 0.256 0.011 0.503 0.098 0.71 0.25 0.035 0.021 0.064 0.052 0.084 0.087s0.031 0.076 0.031 0.118c0 0.041-0.011 0.082-0.031 0.118s-0.049 0.066-0.084 0.087l0.54 0.49c0.31 0.006 0.609 0.115 0.85 0.31 0.2 0.21 0.12 0.44-0.28 0.5-0.273 0.026-0.547 0.026-0.82 0l-0.61 0.39c0.044 0.026 0.080 0.062 0.105 0.106s0.038 0.094 0.038 0.144c0 0.051-0.013 0.1-0.038 0.144s-0.061 0.080-0.105 0.106c-0.133 0.084-0.28 0.14-0.435 0.165s-0.313 0.020-0.465-0.015c-0.268-0.048-0.514-0.181-0.7-0.38l-1.3-0.19c0 0-0.22 0.19-1 0.11l-0.78 0.41c0 0 0.28 0.3-0.15 0.54l0.47 0.69c0.281-0.004 0.554 0.091 0.77 0.27 0.36 0.3 0.25 0.64-0.13 0.79-0.303 0.114-0.637 0.114-0.94 0l-0.91 0.56c0.043 0.060 0.071 0.13 0.082 0.203s0.004 0.148-0.019 0.218c-0.023 0.070-0.063 0.134-0.116 0.186s-0.117 0.091-0.187 0.113l0.52 1c0.346 0.038 0.669 0.189 0.92 0.43 0.075 0.072 0.132 0.161 0.165 0.26s0.043 0.204 0.027 0.307c-0.016 0.103-0.056 0.2-0.117 0.285s-0.142 0.152-0.235 0.199c-0.174 0.080-0.363 0.121-0.555 0.121s-0.381-0.041-0.555-0.121l-1.13 0.81c0.093 0.185 0.11 0.399 0.049 0.597s-0.197 0.364-0.379 0.463l0.55 1.38c0.232 0.031 0.455 0.11 0.655 0.232s0.372 0.285 0.505 0.478c0.090 0.141 0.144 0.302 0.156 0.469s-0.018 0.334-0.088 0.487-0.177 0.285-0.311 0.385c-0.134 0.1-0.291 0.165-0.457 0.189-0.335 0.062-0.681 0.031-1-0.090l-1.48 1.25c0.093 0.22 0.126 0.461 0.096 0.698s-0.122 0.462-0.266 0.652c-0.251 0.286-0.59 0.479-0.964 0.548s-0.76 0.010-1.096-0.168c-0.204-0.111-0.376-0.274-0.497-0.472s-0.188-0.425-0.193-0.658l-2.050-0.61c-0.244 0.219-0.543 0.369-0.865 0.434s-0.655 0.043-0.965-0.064l-1.94 1.39c0.031 0.282-0.006 0.568-0.108 0.832s-0.268 0.501-0.482 0.688c-0.27 0.273-0.618 0.455-0.996 0.521s-0.767 0.013-1.114-0.151c-0.211-0.134-0.375-0.33-0.47-0.561s-0.116-0.486-0.060-0.729l-1.94-0.66c-0.407 0.317-0.904 0.499-1.42 0.52-0.173 0.015-0.347-0.016-0.504-0.088s-0.294-0.185-0.394-0.327c-0.101-0.141-0.163-0.306-0.181-0.479s0.010-0.347 0.080-0.506c0.256-0.538 0.686-0.975 1.22-1.24l0.35-1.69c-0.114-0.011-0.225-0.047-0.323-0.106s-0.182-0.14-0.244-0.236c-0.063-0.096-0.103-0.205-0.117-0.319s-0.003-0.23 0.034-0.338l-1.52-0.48c-0.376 0.228-0.801 0.362-1.24 0.39-0.68 0-1-0.47-0.71-1 0.271-0.407 0.663-0.718 1.12-0.89l0.43-1.21c0 0-0.42 0-0.52-0.35s0.15-0.7 0.8-1c0.21-0.118 0.442-0.189 0.682-0.21s0.481 0.010 0.708 0.090l1.6-0.71c0 0 0-0.66 1.17-0.86s1.080 0.56 1.080 0.56l1.34 0.32c0.277-0.168 0.595-0.258 0.92-0.26 0.35 0 0.81 0.32 0.81 0.64-0.029 0.194-0.115 0.376-0.246 0.521s-0.303 0.25-0.493 0.299v1.090c0 0 0.78 0.12 0.73 0.82l1.59 0.4c0.214-0.165 0.466-0.276 0.732-0.323s0.54-0.029 0.798 0.052zM4.1 18l1.56 0.45c0.244-0.164 0.521-0.272 0.811-0.317s0.587-0.025 0.869 0.057l1.78-1c0 0-0.060-0.66 0.85-1l0.030-1.15c-0.87-0.080-0.64-0.68-0.64-0.68l-1.36-0.33c-1.070 0.46-1.43 0.18-1.43 0.18l-1.57 0.73c0 0 0 0.57-1 0.94l-0.39 1.25c0 0 0.82 0.080 0.49 0.87zM7.21 23l1.89 0.62c0.264-0.244 0.592-0.41 0.946-0.477s0.719-0.034 1.055 0.097l1.9-1.33c-0.059-0.306-0.007-0.624 0.147-0.895s0.4-0.479 0.693-0.585l-0.13-1.58c0 0-1.050-0.18-0.9-0.94l-1.65-0.43c-0.223 0.176-0.487 0.291-0.767 0.335s-0.567 0.015-0.833-0.085l-1.8 1c0 0.77-1 1.28-1 1.28l-0.34 1.68c0 0 1.020 0.060 0.79 1.3v0.010zM14.69 18.69l0.17 1.57c0 0 1.1 0.2 1.050 1.11l2 0.57c0.227-0.231 0.52-0.386 0.838-0.445s0.647-0.019 0.942 0.115l1.49-1.2c-0.114-0.232-0.134-0.498-0.056-0.744s0.249-0.452 0.476-0.576l-0.54-1.4c0 0-1-0.17-1.1-0.87l-1.69-0.39c-0.209 0.155-0.453 0.259-0.711 0.3s-0.521 0.021-0.769-0.060l-1.44 0.89c0 0 0.33 0.58-0.66 1.13zM18.54 15.8l1.67 0.38c0.198-0.156 0.433-0.258 0.682-0.294s0.504-0.008 0.738 0.085l1.15-0.81c0 0-0.43-0.55 0.29-0.89l-0.51-1c0 0-0.84-0.090-0.93-0.58l-1.46-0.28c0 0-0.25 0.38-1.22 0.16l-1.15 0.62c0 0 0.32 0.44-0.45 0.82l0.27 1.060c0.211 0.009 0.413 0.085 0.578 0.216s0.285 0.311 0.342 0.514zM19.21 10.69l0.31 0.77c0 0 0.69 0 0.85 0.5l1.42 0.26c0 0 0.34-0.38 1.19-0.15l0.94-0.56c-0.043-0.049-0.073-0.108-0.088-0.172s-0.014-0.13 0.003-0.193c0.017-0.063 0.049-0.121 0.093-0.169s0.1-0.084 0.162-0.106l-0.47-0.73c0 0-0.66 0-0.85-0.43l-1.26-0.2c-0.149 0.089-0.314 0.147-0.486 0.169s-0.347 0.009-0.514-0.039l-0.94 0.46c0 0 0.27 0.36-0.36 0.59zM17.78 10.31l-1.24-0.22c-0.337 0.182-0.732 0.225-1.1 0.12l-1.11 0.51c0 0 0.22 0.34-0.52 0.61l0.1 0.83c0 0 0.72 0 0.73 0.55l1.4 0.29c0.182-0.126 0.392-0.205 0.611-0.231s0.442 0.002 0.649 0.081l1.13-0.62c0 0-0.31-0.39 0.39-0.7l-0.29-0.78c0 0-0.66 0.050-0.75-0.41v-0.030zM15.48 9.39l-0.14-0.62c0 0-0.58 0-0.58-0.36l-1.080-0.18c-0.315 0.134-0.662 0.175-1 0.12l-1 0.38c0 0 0.15 0.32-0.55 0.53v0.65c0 0 0.6-0.050 0.58 0.43l1.15 0.18c0.17-0.101 0.36-0.165 0.556-0.187s0.396-0.003 0.584 0.057l1.1-0.48c0 0-0.23-0.31 0.38-0.49v-0.030zM14 7.97l1 0.18c0.309-0.154 0.662-0.199 1-0.13l0.93-0.33c0 0-0.21-0.24 0.33-0.43l-0.17-0.47c0 0-0.54 0-0.55-0.28l-1-0.14c-0.28 0.121-0.59 0.156-0.89 0.1l-0.88 0.32c0 0 0.12 0.24-0.43 0.37l0.060 0.5c0 0 0.6 0.030 0.6 0.31zM16.85 9.77l1.2 0.21c0.162-0.098 0.343-0.16 0.532-0.181s0.379-0 0.558 0.061l0.9-0.44c0 0-0.21-0.35 0.28-0.53l-0.32-0.54c0 0-0.57 0-0.66-0.36l-1.1-0.17c-0.305 0.168-0.664 0.211-1 0.12l-0.94 0.38c0 0 0.14 0.31-0.38 0.47l0.14 0.56c0 0 0.72-0.010 0.75 0.42h0.040zM17.85 7.22c0 0 0.5 0 0.63 0.31l1.070 0.16c0 0 0.21-0.22 0.93-0.13l0.79-0.34c0 0-0.26-0.26 0.22-0.42l-0.3-0.45c0 0-0.51 0-0.62-0.27l-1-0.12c-0.265 0.125-0.563 0.16-0.85 0.1l-0.79 0.3c0 0 0.19 0.19-0.31 0.37l0.23 0.49zM22 6.82c0.129-0.006 0.257 0.018 0.375 0.070s0.222 0.131 0.305 0.23l1.090 0.15c0 0 0.16-0.17 0.89-0.1l0.69-0.33c0 0-0.29-0.22 0.11-0.37l-0.4-0.44c-0.58 0-0.68-0.26-0.68-0.26l-0.98-0.080c-0.258 0.099-0.537 0.13-0.81 0.090l-0.69 0.27c0 0 0.24 0.2-0.19 0.37l0.29 0.4zM21 8.83c0.144-0.005 0.286 0.029 0.413 0.097s0.233 0.17 0.307 0.293l1.24 0.2c0.15-0.087 0.316-0.142 0.488-0.162s0.346-0.006 0.512 0.043l0.79-0.42c0 0-0.34-0.26 0.19-0.51l-0.46-0.57c-0.145 0.007-0.291-0.019-0.425-0.074s-0.256-0.139-0.355-0.246l-1.12-0.16c0 0-0.2 0.2-0.9 0.13l-0.77 0.35c0 0 0.28 0.24-0.25 0.45l0.34 0.58zM25.060 7.83l0.45 0.54c0.152-0.002 0.303 0.028 0.442 0.088s0.265 0.149 0.368 0.261l1.25 0.19c0 0 0.2-0.25 1-0.11l0.65-0.4c0 0-0.47-0.3 0-0.48l-0.55-0.52c-0.146 0.005-0.291-0.020-0.427-0.073s-0.259-0.134-0.363-0.237l-1.12-0.15c0 0-0.13 0.15-0.85 0.1l-0.68 0.34c0.19 0.31-0.23 0.43-0.23 0.43l0.060 0.020z"></path>
</svg>
