<!-- Generated by IcoMoon.io -->
<svg version="1.1" xmlns="http://www.w3.org/2000/svg" width="20" height="20" viewBox="0 0 20 20">
<title>graphite</title>
<path d="M9.188 10.694l0.887-0.537c-0.144-0.406 0.344-0.625 0.344-0.625l-0.137-0.625c-0.563-0.081-0.506-0.387-0.506-0.387l-0.881-0.188c-0.088 0.068-0.188 0.117-0.296 0.144s-0.22 0.031-0.329 0.012c-0.306 0-0.525-0.194-0.45-0.438 0.037-0.079 0.090-0.149 0.156-0.206s0.142-0.1 0.226-0.125l-0.044-0.481c-0.425 0-0.387-0.313-0.387-0.313l-0.756-0.144c-0.155 0.063-0.32 0.099-0.487 0.106-0.237 0-0.5-0.1-0.437-0.3s0.387-0.3 0.387-0.3v-0.388c0 0-0.219 0-0.275-0.106s0-0.219 0.15-0.313c0.216-0.096 0.453-0.133 0.688-0.106l0.625-0.244c0 0 0-0.181 0.3-0.269v-0.294c0 0-0.213 0-0.294-0.125s0-0.212 0.256-0.275c0.151-0.031 0.306-0.031 0.456 0l0.563-0.194c-0.002-0.043 0.011-0.086 0.037-0.12s0.064-0.058 0.107-0.067c0.152-0.057 0.315-0.074 0.475-0.050 0.275 0 0.275 0.175 0.275 0.175l0.581 0.081c0.175-0.084 0.373-0.106 0.562-0.062l0.481-0.188c0 0-0.056-0.112 0.112-0.181 0.14-0.052 0.29-0.067 0.438-0.044 0.25 0.037 0.3 0.156 0.3 0.156l0.625 0.081c0.157-0.085 0.34-0.108 0.512-0.062l0.4-0.169c-0.012-0.016-0.019-0.035-0.022-0.055s-0.001-0.040 0.006-0.059c0.007-0.019 0.018-0.036 0.033-0.050s0.033-0.024 0.052-0.029c0.155-0.045 0.32-0.045 0.475 0 0.225 0.031 0.263 0.125 0.263 0.125l0.625 0.081c0.101-0.041 0.209-0.062 0.319-0.063 0.151-0.004 0.3 0.032 0.431 0.106 0.181 0.131-0.037 0.237-0.037 0.237l0.238 0.244c0 0 0.331 0 0.462 0.162l0.694 0.094c0.126-0.090 0.277-0.138 0.431-0.137 0.16 0.007 0.315 0.061 0.444 0.156 0.022 0.013 0.040 0.032 0.053 0.055s0.019 0.048 0.019 0.073c0 0.026-0.007 0.051-0.019 0.073s-0.031 0.041-0.053 0.055l0.337 0.306c0.194 0.004 0.381 0.072 0.531 0.194 0.125 0.131 0.075 0.275-0.175 0.313-0.17 0.016-0.342 0.016-0.512 0l-0.381 0.244c0.027 0.016 0.050 0.039 0.065 0.066s0.024 0.058 0.024 0.090c0 0.032-0.008 0.063-0.024 0.090s-0.038 0.050-0.065 0.066c-0.083 0.052-0.175 0.087-0.272 0.103s-0.195 0.013-0.291-0.010c-0.168-0.030-0.321-0.113-0.438-0.238l-0.813-0.119c0 0-0.137 0.119-0.625 0.069l-0.488 0.256c0 0 0.175 0.188-0.094 0.338l0.294 0.431c0.175-0.003 0.346 0.057 0.481 0.169 0.225 0.188 0.156 0.4-0.081 0.494-0.189 0.071-0.398 0.071-0.588 0l-0.569 0.35c0.027 0.038 0.044 0.081 0.051 0.127s0.003 0.092-0.012 0.136c-0.015 0.044-0.039 0.084-0.072 0.116s-0.073 0.057-0.117 0.071l0.325 0.625c0.216 0.024 0.418 0.118 0.575 0.269 0.047 0.045 0.082 0.101 0.103 0.162s0.027 0.127 0.017 0.192c-0.010 0.064-0.035 0.125-0.073 0.178s-0.089 0.095-0.147 0.124c-0.109 0.050-0.227 0.076-0.347 0.076s-0.238-0.026-0.347-0.076l-0.706 0.506c0.058 0.116 0.069 0.249 0.031 0.373s-0.123 0.227-0.237 0.29l0.344 0.862c0.145 0.019 0.285 0.069 0.409 0.145s0.232 0.178 0.316 0.298c0.057 0.088 0.090 0.189 0.097 0.293s-0.012 0.209-0.055 0.304-0.11 0.178-0.194 0.241c-0.084 0.063-0.182 0.103-0.286 0.118-0.21 0.039-0.426 0.019-0.625-0.056l-0.925 0.781c0.058 0.138 0.079 0.288 0.060 0.436s-0.076 0.289-0.166 0.408c-0.157 0.179-0.369 0.299-0.602 0.342s-0.475 0.006-0.685-0.105c-0.128-0.069-0.235-0.171-0.311-0.295s-0.117-0.266-0.121-0.411l-1.281-0.381c-0.153 0.137-0.339 0.231-0.54 0.271s-0.409 0.027-0.603-0.040l-1.213 0.869c0.020 0.176-0.003 0.355-0.068 0.52s-0.168 0.313-0.301 0.43c-0.169 0.171-0.386 0.284-0.623 0.326s-0.48 0.008-0.696-0.095c-0.132-0.084-0.234-0.206-0.293-0.351s-0.072-0.303-0.038-0.456l-1.213-0.412c-0.255 0.198-0.565 0.312-0.887 0.325-0.108 0.009-0.217-0.010-0.315-0.055s-0.183-0.116-0.247-0.204c-0.063-0.088-0.102-0.192-0.113-0.299s0.006-0.217 0.050-0.316c0.16-0.337 0.429-0.609 0.763-0.775l0.219-1.056c-0.071-0.007-0.14-0.029-0.202-0.066s-0.114-0.088-0.153-0.148c-0.039-0.060-0.064-0.128-0.073-0.199s-0.002-0.143 0.021-0.211l-0.95-0.3c-0.235 0.143-0.501 0.226-0.775 0.244-0.425 0-0.625-0.294-0.444-0.625 0.169-0.254 0.414-0.449 0.7-0.556l0.269-0.756c0 0-0.262 0-0.325-0.219s0.094-0.438 0.5-0.625c0.131-0.074 0.276-0.118 0.426-0.131s0.301 0.006 0.442 0.056l1-0.444c0 0 0-0.412 0.731-0.537s0.675 0.35 0.675 0.35l0.837 0.2c0.173-0.105 0.372-0.161 0.575-0.162 0.219 0 0.506 0.2 0.506 0.4-0.018 0.121-0.072 0.235-0.154 0.326s-0.19 0.156-0.308 0.187v0.681c0 0 0.487 0.075 0.456 0.513l0.994 0.25c0.134-0.103 0.291-0.172 0.457-0.202s0.338-0.018 0.499 0.033zM2.563 11.25l0.975 0.281c0.152-0.103 0.325-0.17 0.507-0.198s0.367-0.016 0.543 0.036l1.112-0.625c0 0-0.037-0.412 0.531-0.625l0.019-0.719c-0.544-0.050-0.4-0.425-0.4-0.425l-0.85-0.206c-0.669 0.287-0.894 0.112-0.894 0.112l-0.981 0.456c0 0 0 0.356-0.625 0.588l-0.244 0.781c0 0 0.512 0.050 0.306 0.544zM4.506 14.375l1.181 0.388c0.165-0.153 0.37-0.256 0.591-0.298s0.449-0.021 0.659 0.061l1.188-0.831c-0.037-0.191-0.004-0.39 0.092-0.559s0.25-0.299 0.433-0.366l-0.081-0.988c0 0-0.656-0.112-0.563-0.588l-1.031-0.269c-0.139 0.11-0.304 0.182-0.479 0.209s-0.354 0.009-0.521-0.053l-1.125 0.625c0 0.481-0.625 0.8-0.625 0.8l-0.213 1.050c0 0 0.638 0.037 0.494 0.813v0.006zM9.181 11.681l0.106 0.981c0 0 0.688 0.125 0.656 0.694l1.25 0.356c0.142-0.144 0.325-0.241 0.524-0.278s0.404-0.012 0.589 0.072l0.931-0.75c-0.071-0.145-0.084-0.312-0.035-0.465s0.155-0.283 0.297-0.36l-0.337-0.875c0 0-0.625-0.106-0.688-0.544l-1.056-0.244c-0.131 0.097-0.283 0.162-0.444 0.188s-0.326 0.013-0.481-0.038l-0.9 0.556c0 0 0.206 0.362-0.412 0.706zM11.587 9.875l1.044 0.238c0.123-0.098 0.271-0.161 0.426-0.184s0.315-0.005 0.461 0.053l0.719-0.506c0 0-0.269-0.344 0.181-0.556l-0.319-0.625c0 0-0.525-0.056-0.581-0.362l-0.913-0.175c0 0-0.156 0.238-0.762 0.1l-0.719 0.388c0 0 0.2 0.275-0.281 0.512l0.169 0.662c0.132 0.006 0.258 0.053 0.362 0.135s0.178 0.194 0.213 0.321zM12.006 6.681l0.194 0.481c0 0 0.431 0 0.531 0.313l0.887 0.162c0 0 0.213-0.238 0.744-0.094l0.588-0.35c-0.027-0.031-0.046-0.068-0.055-0.108s-0.009-0.081 0.002-0.121c0.011-0.039 0.031-0.076 0.058-0.106s0.062-0.053 0.101-0.066l-0.294-0.456c0 0-0.412 0-0.531-0.269l-0.788-0.125c-0.093 0.056-0.197 0.092-0.304 0.106s-0.217 0.006-0.321-0.025l-0.588 0.287c0 0 0.169 0.225-0.225 0.369zM11.113 6.444l-0.775-0.138c-0.211 0.114-0.457 0.141-0.688 0.075l-0.694 0.319c0 0 0.138 0.213-0.325 0.381l0.062 0.519c0 0 0.45 0 0.456 0.344l0.875 0.181c0.114-0.078 0.245-0.128 0.382-0.144s0.276 0.001 0.405 0.051l0.706-0.387c0 0-0.194-0.244 0.244-0.437l-0.181-0.487c0 0-0.412 0.031-0.469-0.256v-0.019zM9.675 5.869l-0.088-0.387c0 0-0.363 0-0.363-0.225l-0.675-0.112c-0.197 0.084-0.414 0.11-0.625 0.075l-0.625 0.238c0 0 0.094 0.2-0.344 0.331v0.406c0 0 0.375-0.031 0.363 0.269l0.719 0.112c0.106-0.063 0.225-0.103 0.348-0.117s0.247-0.002 0.365 0.036l0.688-0.3c0 0-0.144-0.194 0.238-0.306v-0.019zM8.75 4.981l0.625 0.112c0.193-0.096 0.413-0.125 0.625-0.081l0.581-0.206c0 0-0.131-0.15 0.206-0.269l-0.106-0.294c0 0-0.338 0-0.344-0.175l-0.625-0.087c-0.175 0.076-0.369 0.098-0.556 0.063l-0.55 0.2c0 0 0.075 0.15-0.269 0.231l0.037 0.313c0 0 0.375 0.019 0.375 0.194zM10.531 6.106l0.75 0.131c0.101-0.061 0.215-0.1 0.332-0.113s0.237-0 0.349 0.038l0.562-0.275c0 0-0.131-0.219 0.175-0.331l-0.2-0.337c0 0-0.356 0-0.412-0.225l-0.688-0.106c-0.191 0.105-0.415 0.132-0.625 0.075l-0.588 0.238c0 0 0.088 0.194-0.238 0.294l0.088 0.35c0 0 0.45-0.006 0.469 0.263h0.025zM11.156 4.513c0 0 0.313 0 0.394 0.194l0.669 0.1c0 0 0.131-0.137 0.581-0.081l0.494-0.212c0 0-0.163-0.163 0.137-0.263l-0.188-0.281c0 0-0.319 0-0.388-0.169l-0.625-0.075c-0.166 0.078-0.352 0.1-0.531 0.062l-0.494 0.188c0 0 0.119 0.119-0.194 0.231l0.144 0.306zM13.75 4.263c0.081-0.004 0.161 0.011 0.235 0.044s0.139 0.082 0.19 0.144l0.681 0.094c0 0 0.1-0.106 0.556-0.063l0.431-0.206c0 0-0.181-0.138 0.069-0.231l-0.25-0.275c-0.362 0-0.425-0.162-0.425-0.162l-0.612-0.050c-0.161 0.062-0.336 0.081-0.506 0.056l-0.431 0.169c0 0 0.15 0.125-0.119 0.231l0.181 0.25zM13.125 5.519c0.090-0.003 0.179 0.018 0.258 0.061s0.145 0.106 0.192 0.183l0.775 0.125c0.094-0.054 0.197-0.089 0.305-0.102s0.216-0.004 0.32 0.027l0.494-0.263c0 0-0.213-0.162 0.119-0.319l-0.288-0.356c-0.091 0.004-0.182-0.012-0.266-0.046s-0.16-0.087-0.222-0.154l-0.7-0.1c0 0-0.125 0.125-0.563 0.081l-0.481 0.219c0 0 0.175 0.15-0.156 0.281l0.213 0.362zM15.662 4.894l0.281 0.338c0.095-0.001 0.189 0.018 0.277 0.055s0.166 0.093 0.23 0.163l0.781 0.119c0 0 0.125-0.156 0.625-0.069l0.406-0.25c0 0-0.294-0.188 0-0.3l-0.344-0.325c-0.091 0.003-0.182-0.013-0.267-0.046s-0.162-0.084-0.227-0.148l-0.7-0.094c0 0-0.081 0.094-0.531 0.063l-0.425 0.212c0.119 0.194-0.144 0.269-0.144 0.269l0.037 0.012z"></path>
</svg>
