<!-- Generated by IcoMoon.io -->
<svg version="1.1" xmlns="http://www.w3.org/2000/svg" width="20" height="20" viewBox="0 0 20 20">
<title>green</title>
<path d="M10 4.688c0-1.908 1.53-3.438 3.438-3.438h3.438v3.438c0 1.908-1.53 3.438-3.438 3.438-0.717 0-1.38-0.216-1.929-0.587-0.567 0.712-0.883 1.599-0.883 2.524v0.325c0.896 0.22 1.582 0.908 1.801 1.804 0.024-0.003 0.049-0.004 0.074-0.004h3.75c1.345 0 2.438 1.092 2.438 2.438 0 1.030-0.682 1.949-1.677 2.28l-5.010 1.566c-1.332 0.42-2.724 0.346-4.028-0.135l-3.084-1.149h-3.637v-8.125h3.737c0.009-0 0.018-0 0.028 0h0.611v0.239l2.023 1.011h1.652c-0.055-0.549-0.293-1.046-0.679-1.433l-0.567-0.567c-0.434 0.277-0.947 0.438-1.491 0.438-1.533 0-2.813-1.28-2.813-2.812v-2.813h2.813c1.533 0 2.812 1.28 2.812 2.813 0 0.544-0.161 1.056-0.438 1.491l0.567 0.567c0.071 0.071 0.139 0.144 0.203 0.22 0.21-0.566 0.517-1.093 0.907-1.559-0.387-0.557-0.614-1.235-0.614-1.969zM13.438 2.5c-1.217 0-2.188 0.97-2.188 2.188 0 0.379 0.094 0.734 0.26 1.043l1.798-1.798c0.244-0.244 0.64-0.244 0.884 0s0.244 0.64 0 0.884l-1.798 1.798c0.309 0.166 0.664 0.26 1.043 0.26 1.217 0 2.188-0.97 2.188-2.188v-2.188h-2.188zM8.013 6.504c0.072-0.177 0.112-0.368 0.112-0.567 0-0.842-0.72-1.563-1.563-1.563h-1.563v1.563c0 0.842 0.72 1.563 1.563 1.563 0.198 0 0.39-0.040 0.567-0.112l-1.321-1.321c-0.244-0.244-0.244-0.64 0-0.884s0.64-0.244 0.884 0l1.321 1.321zM5.625 10.699v5.43l2.78 1.036c1.070 0.394 2.177 0.444 3.22 0.115l0.002-0.001 4.994-1.561c0.502-0.17 0.818-0.624 0.818-1.093 0-0.655-0.533-1.187-1.188-1.187h-3.75c-0.025 0-0.050-0.001-0.074-0.004-0.268 1.095-1.234 1.879-2.426 1.879h-1.875c-0.345 0-0.625-0.28-0.625-0.625s0.28-0.625 0.625-0.625h1.875c0.717 0 1.25-0.533 1.25-1.25s-0.533-1.25-1.25-1.25h-2.648l-1.727-0.864zM2.5 15.938h1.875v-5.625h-1.875v5.625z"></path>
</svg>
