<!-- Generated by IcoMoon.io -->
<svg version="1.1" xmlns="http://www.w3.org/2000/svg" width="20" height="20" viewBox="0 0 20 20">
<title>growth-alt</title>
<path d="M17.334 2.299c0.234-0.254 0.218-0.649-0.035-0.883s-0.649-0.218-0.883 0.035l-7.007 7.591-2.046-2.557c-0.119-0.148-0.298-0.235-0.488-0.235s-0.369 0.086-0.488 0.235l-2.5 3.125c-0.216 0.27-0.172 0.663 0.098 0.878s0.663 0.172 0.878-0.098l2.012-2.515 2.012 2.515c0.114 0.142 0.284 0.228 0.466 0.234s0.358-0.067 0.481-0.201l7.5-8.125z"></path>
<path d="M2.5 1.875c0-0.345-0.28-0.625-0.625-0.625s-0.625 0.28-0.625 0.625v14.375c0 1.408 1.092 2.5 2.5 2.5h14.375c0.345 0 0.625-0.28 0.625-0.625s-0.28-0.625-0.625-0.625h-14.375c-0.717 0-1.25-0.533-1.25-1.25v-14.375z"></path>
<path d="M5 12.5c0-0.345-0.28-0.625-0.625-0.625s-0.625 0.28-0.625 0.625v3.125c0 0.345 0.28 0.625 0.625 0.625s0.625-0.28 0.625-0.625v-3.125z"></path>
<path d="M6.875 10c0.345 0 0.625 0.28 0.625 0.625v5c0 0.345-0.28 0.625-0.625 0.625s-0.625-0.28-0.625-0.625v-5c0-0.345 0.28-0.625 0.625-0.625z"></path>
<path d="M10 12.5c0-0.345-0.28-0.625-0.625-0.625s-0.625 0.28-0.625 0.625v3.125c0 0.345 0.28 0.625 0.625 0.625s0.625-0.28 0.625-0.625v-3.125z"></path>
<path d="M11.875 10c0.345 0 0.625 0.28 0.625 0.625v5c0 0.345-0.28 0.625-0.625 0.625s-0.625-0.28-0.625-0.625v-5c0-0.345 0.28-0.625 0.625-0.625z"></path>
<path d="M15 8.125c0-0.345-0.28-0.625-0.625-0.625s-0.625 0.28-0.625 0.625v7.5c0 0.345 0.28 0.625 0.625 0.625s0.625-0.28 0.625-0.625v-7.5z"></path>
<path d="M16.875 5c0.345 0 0.625 0.28 0.625 0.625v10c0 0.345-0.28 0.625-0.625 0.625s-0.625-0.28-0.625-0.625v-10c0-0.345 0.28-0.625 0.625-0.625z"></path>
</svg>
