<!-- Generated by IcoMoon.io -->
<svg version="1.1" xmlns="http://www.w3.org/2000/svg" width="32" height="32" viewBox="0 0 32 32">
<title>growth</title>
<path d="M30 2h-7c-0.552 0-1 0.448-1 1s0.448 1 1 1h3.586l-7.586 7.586-5-5-11.707 11.707c-0.391 0.39-0.391 1.024 0 1.414s1.024 0.39 1.414 0l10.293-10.293 5 5 9-9v3.586c0 0.552 0.448 1 1 1s1-0.448 1-1v-7z"></path>
<path d="M27 14c0-0.404-0.244-0.769-0.617-0.924s-0.804-0.069-1.090 0.217l-6.293 6.293-4.293-4.293c-0.39-0.39-1.024-0.39-1.414 0l-8 8c-0.188 0.188-0.293 0.442-0.293 0.707v5c0 0.552 0.448 1 1 1h17c2.252 0 4-1.748 4-4v-12zM19.707 21.707l5.293-5.293v9.586c0 1.148-0.852 2-2 2h-16v-3.586l7-7 4.293 4.293c0.39 0.391 1.024 0.391 1.414 0z"></path>
</svg>
