<!-- Generated by IcoMoon.io -->
<svg version="1.1" xmlns="http://www.w3.org/2000/svg" width="32" height="32" viewBox="0 0 32 32">
<title>growth-alt</title>
<path d="M27.735 3.678c0.375-0.406 0.349-1.038-0.056-1.413s-1.038-0.349-1.413 0.057l-11.211 12.145-3.273-4.092c-0.19-0.237-0.477-0.375-0.781-0.375s-0.591 0.138-0.781 0.375l-4 5c-0.345 0.431-0.275 1.061 0.156 1.406s1.061 0.275 1.406-0.156l3.219-4.024 3.219 4.024c0.182 0.228 0.454 0.364 0.746 0.375s0.572-0.107 0.77-0.321l12-13z"></path>
<path d="M4 3c0-0.552-0.448-1-1-1s-1 0.448-1 1v23c0 2.252 1.748 4 4 4h23c0.552 0 1-0.448 1-1s-0.448-1-1-1h-23c-1.148 0-2-0.852-2-2v-23z"></path>
<path d="M8 20c0-0.552-0.448-1-1-1s-1 0.448-1 1v5c0 0.552 0.448 1 1 1s1-0.448 1-1v-5z"></path>
<path d="M11 16c0.552 0 1 0.448 1 1v8c0 0.552-0.448 1-1 1s-1-0.448-1-1v-8c0-0.552 0.448-1 1-1z"></path>
<path d="M16 20c0-0.552-0.448-1-1-1s-1 0.448-1 1v5c0 0.552 0.448 1 1 1s1-0.448 1-1v-5z"></path>
<path d="M19 16c0.552 0 1 0.448 1 1v8c0 0.552-0.448 1-1 1s-1-0.448-1-1v-8c0-0.552 0.448-1 1-1z"></path>
<path d="M24 13c0-0.552-0.448-1-1-1s-1 0.448-1 1v12c0 0.552 0.448 1 1 1s1-0.448 1-1v-12z"></path>
<path d="M27 8c0.552 0 1 0.448 1 1v16c0 0.552-0.448 1-1 1s-1-0.448-1-1v-16c0-0.552 0.448-1 1-1z"></path>
</svg>
