<!-- Generated by IcoMoon.io -->
<svg version="1.1" xmlns="http://www.w3.org/2000/svg" width="20" height="20" viewBox="0 0 20 20">
<title>growth</title>
<path d="M18.75 1.25h-4.375c-0.345 0-0.625 0.28-0.625 0.625s0.28 0.625 0.625 0.625h2.241l-4.741 4.741-3.125-3.125-7.317 7.317c-0.244 0.244-0.244 0.64 0 0.884s0.64 0.244 0.884 0l6.433-6.433 3.125 3.125 5.625-5.625v2.241c0 0.345 0.28 0.625 0.625 0.625s0.625-0.28 0.625-0.625v-4.375z"></path>
<path d="M16.875 8.75c0-0.253-0.152-0.481-0.386-0.577s-0.502-0.043-0.681 0.136l-3.933 3.933-2.683-2.683c-0.244-0.244-0.64-0.244-0.884 0l-5 5c-0.117 0.117-0.183 0.276-0.183 0.442v3.125c0 0.345 0.28 0.625 0.625 0.625h10.625c1.408 0 2.5-1.092 2.5-2.5v-7.5zM12.317 13.567l3.308-3.308v5.991c0 0.717-0.533 1.25-1.25 1.25h-10v-2.241l4.375-4.375 2.683 2.683c0.244 0.244 0.64 0.244 0.884 0z"></path>
</svg>
