<!-- Generated by IcoMoon.io -->
<svg version="1.1" xmlns="http://www.w3.org/2000/svg" width="20" height="20" viewBox="0 0 20 20">
<title>gunicorn</title>
<path d="M8.881 11.381v0.156c0.002 0.213 0.040 0.425 0.112 0.625l0.7 2.219c0.044 0.131 0.075 0.269 0.106 0.406 0.003 0.021 0.003 0.042 0 0.063 0.003 0.023 0.003 0.046 0 0.069-0.106 0.306-0.2 0.625-0.319 0.925s-0.188 0.388-0.475 0.344h-0.431c-0.144 0-0.169-0.1-0.125-0.231s0.131-0.438 0.188-0.688v-0.050c0.026-0.104 0.039-0.211 0.037-0.319-0.002-0.336-0.116-0.662-0.325-0.925-0.27-0.321-0.481-0.687-0.625-1.081-0.108-0.302-0.184-0.614-0.225-0.931-0.038-0.3-0.238-0.369-0.481-0.275-0.428 0.171-0.845 0.367-1.25 0.588l0.056-0.031c-0.173 0.118-0.302 0.29-0.366 0.489s-0.061 0.414 0.010 0.611c0.041 0.153 0.102 0.3 0.181 0.438 0.064 0.083 0.143 0.155 0.231 0.213l0.387 0.325c0.003 0.023 0.003 0.046 0 0.069 0.003 0.023 0.003 0.046 0 0.069-0.086 0.285-0.259 0.536-0.494 0.719-0.033 0.007-0.067 0.007-0.1 0-0.035 0.006-0.071 0.006-0.106 0-0.182-0.116-0.356-0.246-0.519-0.388-0.162-0.144-0.306-0.3-0.462-0.444-0.17-0.166-0.275-0.388-0.294-0.625-0.040-0.26-0.055-0.524-0.044-0.787-0.002-0.26 0.021-0.52 0.069-0.775 0.125-0.421 0.36-0.801 0.681-1.1 0.288-0.294 0.594-0.556 0.888-0.838 0.144-0.131 0.281-0.25 0.419-0.387 0.032-0.034 0.052-0.078 0.056-0.125v-1.381c-0.020-0.321-0.058-0.64-0.112-0.956v0.050c-0.024-0.129-0.074-0.251-0.149-0.359s-0.171-0.198-0.283-0.266c-0.046-0.042-0.106-0.065-0.169-0.062-0.049-0.001-0.097 0.012-0.139 0.038s-0.076 0.062-0.098 0.106c-0.106 0.169-0.175 0.35-0.275 0.531-0.056 0.131-0.12 0.259-0.194 0.381-0.051 0.065-0.115 0.117-0.189 0.154s-0.154 0.057-0.236 0.059c-0.051-0.015-0.1-0.038-0.144-0.069-0.113-0.034-0.213-0.099-0.291-0.187s-0.128-0.197-0.147-0.313c0-0.419-0.044-0.825-0.056-1.25 0.002-0.251 0.017-0.501 0.044-0.75v0.038c0 0 0-0.038 0-0.063-0.001-0.074-0.022-0.147-0.062-0.21s-0.096-0.114-0.163-0.146c-0.425-0.244-0.856-0.481-1.294-0.713-0.262-0.156-0.531-0.275-0.781-0.425-0.277-0.151-0.542-0.322-0.794-0.513 0.269 0.075 0.481 0.15 0.694 0.231h-0.044c0.775 0.325 1.581 0.563 2.381 0.825 0.263 0.081 0.294 0 0.306-0.237s0-0.469 0-0.706h0.044c0.481 0.202 0.997 0.304 1.519 0.3h0.175c0.475 0.049 0.947 0.128 1.413 0.238h-0.081c0.334 0.11 0.62 0.331 0.813 0.625 0.213 0.287 0.406 0.581 0.594 0.875s0.369 0.625 0.569 0.938c0.131 0.23 0.322 0.422 0.551 0.554s0.49 0.202 0.755 0.202c0.109 0 0.218-0.012 0.325-0.037 0.737-0.1 1.462-0.25 2.2-0.363 0.291-0.049 0.586-0.074 0.881-0.075 0.308 0.001 0.615 0.029 0.919 0.081h-0.031c0.295 0.069 0.577 0.182 0.838 0.338 0.517 0.279 0.989 0.635 1.4 1.056 0.228 0.271 0.425 0.566 0.588 0.881 0.141 0.245 0.265 0.5 0.369 0.762v0.044c0.256 0.625 0.488 1.294 0.731 1.981l0.294 0.713c0.169 0.381 0.169 0.412-0.237 0.4-0.145-0.002-0.289-0.017-0.431-0.044-0.184-0.051-0.354-0.143-0.497-0.27s-0.255-0.285-0.328-0.462c-0.181-0.419-0.306-0.856-0.481-1.3-0.125-0.294-0.281-0.581-0.431-0.863-0.034-0.038-0.081-0.063-0.131-0.069-0.031 0.027-0.055 0.061-0.069 0.1-0.069 0.219-0.131 0.444-0.188 0.625-0.010 0.068-0.010 0.138 0 0.206-0 0.156 0.041 0.309 0.119 0.444 0.162 0.306 0.325 0.625 0.494 0.912 0.306 0.562 0.517 1.17 0.625 1.8v0.075c0.047 0.291 0.070 0.586 0.069 0.881 0.007 0.305-0.007 0.61-0.044 0.912v-0.031c0 0.031-0.056 0.081-0.087 0.081h-0.625c-0.156 0-0.219-0.088-0.225-0.287 0.006-0.359-0.006-0.718-0.037-1.075 0.003-0.021 0.003-0.042 0-0.063 0-0.179-0.036-0.357-0.105-0.523s-0.172-0.315-0.301-0.44c-0.121-0.115-0.236-0.236-0.344-0.362l-0.869-1.069c-0.112-0.144-0.231-0.281-0.356-0.425s-0.175-0.088-0.206 0.050c-0.044 0.244-0.075 0.506-0.1 0.756-0.016 0.152-0.016 0.305 0 0.456 0.003 0.153-0.050 0.302-0.15 0.419-0.311 0.411-0.525 0.888-0.625 1.394-0.063 0.269-0.113 0.531-0.156 0.794s-0.069 0.263-0.269 0.287c-0.242 0.013-0.483 0.013-0.725 0-0.106 0-0.106-0.075-0.1-0.15 0.037-0.319 0.069-0.625 0.106-0.962 0.161-0.769 0.245-1.552 0.25-2.337-0.024-0.271-0.065-0.541-0.125-0.806-0.037-0.275-0.106-0.244-0.325-0.25h-2.125c-0.317 0.009-0.635-0.008-0.95-0.050h-0.169z"></path>
</svg>
