<!-- Generated by IcoMoon.io -->
<svg version="1.1" xmlns="http://www.w3.org/2000/svg" width="20" height="20" viewBox="0 0 20 20">
<title>handshake</title>
<path d="M16.067 2.058l2.5 2.5c0.244 0.244 0.244 0.64 0 0.884s-0.64 0.244-0.884 0l-2.058-2.058-0.991 0.991 3.933 3.933c0.244 0.244 0.244 0.64 0 0.884l-2.754 2.754c0.524 0.951 0.396 2.164-0.442 2.942l-2.429 2.429c-0.796 0.796-2.022 0.912-2.943 0.348-0.94 0.565-2.185 0.408-3.003-0.41l-2.366-2.366c-0.575-0.534-0.816-1.273-0.741-1.991l-2.455-2.455c-0.244-0.244-0.244-0.64 0-0.884l3.933-3.933-0.991-0.991-2.058 2.058c-0.244 0.244-0.64 0.244-0.884 0s-0.244-0.64 0-0.884l2.5-2.5c0.244-0.244 0.64-0.244 0.884 0l1.692 1.692h3.232l1.067-1.067c0.117-0.117 0.276-0.183 0.442-0.183h2.241l1.692-1.692c0.244-0.244 0.64-0.244 0.884 0zM15 10.991l2.241-2.241-3.75-3.75h-1.982l-3.192 3.192c-0.256 0.256-0.256 0.735 0 0.991s0.735 0.256 0.991 0l1.5-1.5c0.001-0.001 0.003-0.003 0.004-0.004 0.113-0.111 0.259-0.171 0.406-0.178 0.011-0.001 0.021-0.001 0.032-0.001-0 0 0 0 0 0h2.5c0.345 0 0.625 0.28 0.625 0.625s-0.28 0.625-0.625 0.625h-0.991l2.241 2.241zM11.25 9.009l-1.058 1.058c-0.744 0.744-2.015 0.744-2.759 0s-0.744-2.015 0-2.759l1.058-1.058h-1.982l-3.75 3.75 1.633 1.633c0.069-0.091 0.146-0.179 0.229-0.262 0.932-0.932 2.327-0.932 3.259 0l2.625 2.625c0.007 0.007 0.014 0.014 0.021 0.022 0.676 0.744 0.821 1.839 0.377 2.695 0.395 0.125 0.846 0.032 1.156-0.279l2.437-2.437c0.006-0.006 0.013-0.013 0.020-0.019 0.469-0.429 0.497-1.205-0.020-1.722l-3.246-3.246zM9.588 16.405c0.005-0.005 0.009-0.010 0.014-0.015 0.006-0.007 0.012-0.013 0.019-0.020 0.367-0.367 0.398-1.042-0.012-1.503l-2.613-2.613c-0.443-0.443-1.048-0.443-1.491 0-0.517 0.517-0.488 1.293-0.020 1.722 0.007 0.006 0.013 0.012 0.020 0.019l2.375 2.375c0.492 0.492 1.218 0.49 1.658 0.085 0.007-0.007 0.014-0.015 0.021-0.022 0.010-0.010 0.019-0.019 0.030-0.028z"></path>
</svg>
