<!-- Generated by IcoMoon.io -->
<svg version="1.1" xmlns="http://www.w3.org/2000/svg" width="32" height="32" viewBox="0 0 32 32">
<title>handshake</title>
<path d="M25.707 3.293l4 4c0.39 0.391 0.39 1.024 0 1.414s-1.024 0.391-1.414 0l-3.293-3.293-1.586 1.586 6.293 6.293c0.39 0.39 0.39 1.024 0 1.414l-4.407 4.407c0.839 1.522 0.634 3.463-0.707 4.707l-3.886 3.886c-1.273 1.273-3.235 1.459-4.709 0.556-1.504 0.904-3.496 0.653-4.805-0.656l-3.786-3.786c-0.921-0.854-1.306-2.036-1.186-3.186l-3.928-3.928c-0.391-0.39-0.391-1.024 0-1.414l6.293-6.293-1.586-1.586-3.293 3.293c-0.391 0.39-1.024 0.39-1.414 0s-0.391-1.024 0-1.414l4-4c0.391-0.391 1.024-0.391 1.414 0l2.707 2.707h5.172l1.707-1.707c0.188-0.188 0.442-0.293 0.707-0.293h3.586l2.707-2.707c0.39-0.391 1.024-0.391 1.414 0zM24 17.586l3.586-3.586-6-6h-3.172l-5.107 5.107c-0.409 0.409-0.409 1.176 0 1.586s1.176 0.409 1.586 0l2.4-2.4c0.002-0.002 0.005-0.004 0.007-0.007 0.181-0.178 0.414-0.273 0.65-0.285 0.017-0.001 0.034-0.001 0.051-0.001-0 0 0 0 0 0h4c0.552 0 1 0.448 1 1s-0.448 1-1 1h-1.586l3.586 3.586zM18 14.414l-1.693 1.693c-1.191 1.191-3.224 1.191-4.414 0s-1.191-3.224 0-4.414l1.693-1.693h-3.172l-6 6 2.612 2.612c0.111-0.146 0.233-0.286 0.366-0.419 1.491-1.491 3.724-1.491 5.214 0l4.2 4.2c0.011 0.011 0.022 0.023 0.033 0.034 1.082 1.19 1.314 2.942 0.603 4.312 0.631 0.199 1.353 0.050 1.85-0.447l3.9-3.9c0.010-0.010 0.021-0.020 0.031-0.030 0.75-0.687 0.796-1.928-0.031-2.756l-5.193-5.193zM15.34 26.248c0.008-0.008 0.015-0.016 0.023-0.024 0.010-0.011 0.020-0.021 0.030-0.031 0.588-0.588 0.637-1.667-0.019-2.404l-4.181-4.181c-0.71-0.709-1.676-0.709-2.386 0-0.827 0.827-0.781 2.069-0.031 2.756 0.011 0.010 0.021 0.020 0.031 0.030l3.8 3.8c0.787 0.787 1.949 0.784 2.652 0.135 0.011-0.012 0.022-0.024 0.034-0.035 0.015-0.015 0.031-0.030 0.047-0.044z"></path>
</svg>
