<!-- Generated by IcoMoon.io -->
<svg version="1.1" xmlns="http://www.w3.org/2000/svg" width="20" height="20" viewBox="0 0 20 20">
<title>headphones</title>
<path d="M10 4.806c-3.092 0-5.625 2.533-5.625 5.625v0.625h-0.625c-0.717 0-1.25 0.533-1.25 1.25v1.25c0 0.717 0.533 1.25 1.25 1.25h0.625v-1.875c0-0.345 0.28-0.625 0.625-0.625s0.625 0.28 0.625 0.625v3.125h-1.875c-1.408 0-2.5-1.092-2.5-2.5v-1.25c0-1.199 0.792-2.169 1.897-2.431 0.285-3.525 3.257-6.319 6.853-6.319s6.568 2.794 6.853 6.319c1.105 0.261 1.897 1.232 1.897 2.431v1.25c0 1.408-1.092 2.5-2.5 2.5h-1.875v-3.125c0-0.345 0.28-0.625 0.625-0.625s0.625 0.28 0.625 0.625v1.875h0.625c0.717 0 1.25-0.533 1.25-1.25v-1.25c0-0.717-0.533-1.25-1.25-1.25h-0.625v-0.625c0-3.092-2.533-5.625-5.625-5.625z"></path>
</svg>
