<!-- Generated by IcoMoon.io -->
<svg version="1.1" xmlns="http://www.w3.org/2000/svg" width="20" height="20" viewBox="0 0 20 20">
<title>headphones-alt</title>
<path d="M4.375 8.75c0-3.092 2.533-5.625 5.625-5.625s5.625 2.533 5.625 5.625v0.625h0.625c0.717 0 1.25 0.533 1.25 1.25v1.25c0 0.717-0.533 1.25-1.25 1.25h-0.625v-1.875c0-0.345-0.28-0.625-0.625-0.625s-0.625 0.28-0.625 0.625v4.375c0 0.717-0.533 1.25-1.25 1.25h-0.991l-0.625-0.625h-1.509c-0.345 0-0.625 0.28-0.625 0.625s0.28 0.625 0.625 0.625h0.991l0.625 0.625h1.509c1.408 0 2.5-1.092 2.5-2.5v-1.25h0.625c1.408 0 2.5-1.092 2.5-2.5v-1.25c0-1.199-0.793-2.169-1.897-2.431-0.285-3.525-3.257-6.319-6.853-6.319s-6.568 2.794-6.853 6.319c-1.105 0.261-1.897 1.232-1.897 2.431v1.25c0 1.408 1.092 2.5 2.5 2.5h1.875v-3.125c0-0.345-0.28-0.625-0.625-0.625s-0.625 0.28-0.625 0.625v1.875h-0.625c-0.717 0-1.25-0.533-1.25-1.25v-1.25c0-0.717 0.533-1.25 1.25-1.25h0.625v-0.625z"></path>
</svg>
