<!-- Generated by IcoMoon.io -->
<svg version="1.1" xmlns="http://www.w3.org/2000/svg" width="20" height="20" viewBox="0 0 20 20">
<title>heart</title>
<path d="M10 3.382c1.070-1.212 2.726-1.932 4.54-1.63 2.144 0.357 3.779 2.067 4.137 4.13 0.287 1.518-0.22 3.016-1.14 4.080l-5.626 6.688c-0.999 1.166-2.825 1.166-3.824 0l-5.626-6.689c-0.935-1.080-1.354-2.511-1.144-4.053l0.001-0.009 0.002-0.009c0.356-2.138 2-3.782 4.139-4.139 1.815-0.302 3.47 0.418 4.54 1.63zM9.466 4.756c-0.756-1.242-2.203-2.037-3.801-1.771-1.609 0.268-2.838 1.495-3.11 3.102-0.162 1.203 0.168 2.267 0.854 3.060l0.003 0.003 5.626 6.689c0.5 0.581 1.422 0.581 1.923 0l5.629-6.692c0.702-0.81 1.069-1.933 0.858-3.036l-0.001-0.005-0.001-0.005c-0.269-1.56-1.508-2.847-3.112-3.115-1.598-0.266-3.045 0.529-3.801 1.771l-0.534 0.877-0.534-0.877z"></path>
</svg>
