<!-- Generated by IcoMoon.io -->
<svg version="1.1" xmlns="http://www.w3.org/2000/svg" width="32" height="32" viewBox="0 0 32 32">
<title>heart</title>
<path d="M16 5.412c1.713-1.939 4.361-3.092 7.264-2.608 3.431 0.572 6.047 3.307 6.62 6.608 0.46 2.429-0.352 4.826-1.823 6.528l-9.001 10.702c-1.599 1.866-4.52 1.866-6.119 0l-9.001-10.702c-1.495-1.729-2.166-4.018-1.83-6.484l0.002-0.015 0.002-0.015c0.57-3.421 3.201-6.052 6.622-6.622 2.903-0.484 5.552 0.669 7.264 2.608zM15.146 7.61c-1.21-1.988-3.525-3.26-6.081-2.834-2.574 0.429-4.541 2.392-4.976 4.963-0.259 1.925 0.268 3.628 1.367 4.895l0.005 0.005 9.001 10.702c0.801 0.93 2.275 0.93 3.076 0l9.006-10.707c1.123-1.296 1.71-3.092 1.373-4.858l-0.002-0.009-0.002-0.009c-0.43-2.495-2.413-4.556-4.979-4.984-2.557-0.426-4.872 0.846-6.081 2.834l-0.854 1.403-0.854-1.403z"></path>
</svg>
