<!-- Generated by IcoMoon.io -->
<svg version="1.1" xmlns="http://www.w3.org/2000/svg" width="20" height="20" viewBox="0 0 20 20">
<title>helm</title>
<path d="M14.038 14.606c0.383 0.218 0.712 0.519 0.962 0.881 0.531 0.713 0.738 1.462 0.45 1.675s-0.95-0.194-1.481-0.906c-0.28-0.346-0.475-0.752-0.569-1.188-0.891 0.594-1.92 0.949-2.988 1.031 0.169 0.395 0.252 0.821 0.244 1.25 0 0.887-0.294 1.613-0.625 1.613s-0.625-0.725-0.625-1.613c-0.011-0.429 0.070-0.855 0.238-1.25-1.083-0.049-2.136-0.376-3.056-0.95-0.106 0.399-0.293 0.771-0.55 1.094-0.531 0.713-1.194 1.119-1.481 0.906s-0.081-0.962 0.45-1.675c0.236-0.333 0.535-0.615 0.881-0.831-0.458-0.364-0.862-0.791-1.2-1.269l0.719-0.444c0.506 0.73 1.182 1.326 1.969 1.738s1.662 0.627 2.55 0.627 1.763-0.215 2.55-0.627c0.787-0.412 1.462-1.008 1.969-1.738l0.713 0.488c-0.322 0.441-0.698 0.84-1.119 1.188zM5.787 4.906c-0.307-0.211-0.574-0.476-0.787-0.781-0.531-0.712-0.737-1.462-0.45-1.675s0.95 0.194 1.481 0.906c0.236 0.298 0.414 0.637 0.525 1 0.897-0.566 1.922-0.897 2.981-0.962-0.135-0.366-0.201-0.754-0.194-1.144 0-0.888 0.294-1.613 0.625-1.613s0.625 0.725 0.625 1.613c0.008 0.392-0.058 0.782-0.194 1.15 1.085 0.082 2.131 0.441 3.037 1.044 0.11-0.395 0.297-0.765 0.55-1.088 0.531-0.712 1.194-1.119 1.481-0.906s0.081 0.962-0.45 1.675c-0.24 0.337-0.546 0.622-0.9 0.837 0.492 0.446 0.914 0.965 1.25 1.537l-0.725 0.469c-0.472-0.808-1.142-1.483-1.948-1.959s-1.719-0.74-2.655-0.765-1.862 0.189-2.692 0.622c-0.83 0.433-1.535 1.071-2.050 1.852l-0.712-0.487c0.338-0.494 0.742-0.94 1.2-1.325zM17.181 7.488h1.45v4.681h-0.969v-3.319l-1.144 3.319h-0.806l-1.15-3.281v3.281h-0.975v-4.681h1.444l1.1 3.219 1.050-3.219zM10.987 7.488v3.819h2.281v0.862h-3.313v-4.681h1.031zM9.475 7.488v0.869h-2.5v1h2.269v0.8h-2.244v1.15h2.5v0.862h-3.531v-4.681h3.506zM4.3 7.488h1.025v4.681h-1.025v-2.019h-1.875v2.019h-1.056v-4.681h1.031v1.8h1.875l0.025-1.8z"></path>
</svg>
