<!-- Generated by IcoMoon.io -->
<svg version="1.1" xmlns="http://www.w3.org/2000/svg" width="20" height="20" viewBox="0 0 20 20">
<title>help</title>
<path d="M10 15.313c0.518 0 0.938-0.42 0.938-0.938s-0.42-0.938-0.938-0.938c-0.518 0-0.938 0.42-0.938 0.938s0.42 0.938 0.938 0.938z"></path>
<path d="M8.125 7.5c0-1.030 0.845-1.875 1.875-1.875s1.875 0.845 1.875 1.875c0 0.638-0.406 1.085-1.067 1.746l-0.054 0.054c-0.585 0.584-1.379 1.376-1.379 2.575 0 0.345 0.28 0.625 0.625 0.625s0.625-0.28 0.625-0.625c0-0.638 0.406-1.085 1.067-1.746l0.054-0.054c0.585-0.584 1.379-1.376 1.379-2.575 0-1.72-1.405-3.125-3.125-3.125s-3.125 1.405-3.125 3.125c0 0.345 0.28 0.625 0.625 0.625s0.625-0.28 0.625-0.625z"></path>
<path d="M1.25 10c0-4.832 3.918-8.75 8.75-8.75s8.75 3.918 8.75 8.75c0 4.832-3.918 8.75-8.75 8.75s-8.75-3.918-8.75-8.75zM10 2.5c-4.142 0-7.5 3.358-7.5 7.5s3.358 7.5 7.5 7.5c4.142 0 7.5-3.358 7.5-7.5s-3.358-7.5-7.5-7.5z"></path>
</svg>
