<!-- Generated by IcoMoon.io -->
<svg version="1.1" xmlns="http://www.w3.org/2000/svg" width="20" height="20" viewBox="0 0 20 20">
<title>help-alt</title>
<path d="M10 1.25c-4.832 0-8.75 3.918-8.75 8.75s3.918 8.75 8.75 8.75c4.832 0 8.75-3.918 8.75-8.75s-3.918-8.75-8.75-8.75zM5.157 4.273c1.307-1.106 2.997-1.773 4.843-1.773s3.536 0.667 4.843 1.773l-1.777 1.777c-0.847-0.658-1.911-1.050-3.066-1.050s-2.219 0.392-3.066 1.050l-1.777-1.777zM13.95 6.934l1.777-1.777c1.106 1.307 1.773 2.997 1.773 4.843s-0.667 3.536-1.773 4.843l-1.777-1.777c0.658-0.847 1.050-1.911 1.050-3.066s-0.392-2.219-1.050-3.066zM4.273 5.157l1.777 1.777c-0.658 0.847-1.050 1.911-1.050 3.066s0.392 2.219 1.050 3.066l-1.777 1.777c-1.106-1.307-1.773-2.997-1.773-4.843s0.667-3.536 1.773-4.843zM10 17.5c-1.846 0-3.536-0.667-4.843-1.773l1.777-1.777c0.847 0.658 1.911 1.050 3.066 1.050s2.219-0.392 3.066-1.050l1.777 1.777c-1.307 1.106-2.997 1.773-4.843 1.773zM6.25 10c0-2.071 1.679-3.75 3.75-3.75s3.75 1.679 3.75 3.75c0 2.071-1.679 3.75-3.75 3.75s-3.75-1.679-3.75-3.75z"></path>
</svg>
