<!-- Generated by IcoMoon.io -->
<svg version="1.1" xmlns="http://www.w3.org/2000/svg" width="20" height="20" viewBox="0 0 20 20">
<title>hetzner</title>
<path d="M18.2 1.412h-1.919c-0.256 0.002-0.501 0.104-0.681 0.286s-0.282 0.427-0.282 0.683v5.506h-10.625v-5.525c0-0.252-0.099-0.494-0.275-0.674s-0.416-0.284-0.668-0.288h-1.95c-0.256 0-0.501 0.101-0.683 0.282s-0.284 0.425-0.286 0.681v14.887c0.002 0.256 0.104 0.501 0.286 0.681s0.427 0.282 0.683 0.282h1.95c0.255 0 0.5-0.101 0.681-0.282s0.282-0.425 0.282-0.681v-5.569h10.625v5.587c0 0.255 0.101 0.5 0.282 0.681s0.425 0.282 0.681 0.282h1.919c0.256-0.002 0.502-0.104 0.683-0.286s0.284-0.427 0.286-0.683v-14.881c-0.002-0.256-0.104-0.502-0.286-0.683s-0.427-0.284-0.683-0.286z"></path>
</svg>
