<!-- Generated by IcoMoon.io -->
<svg version="1.1" xmlns="http://www.w3.org/2000/svg" width="20" height="20" viewBox="0 0 20 20">
<title>highway-alt</title>
<path d="M10.625 1.25h2.323l1.207 3.549c0.111 0.327-0.064 0.682-0.391 0.793s-0.682-0.064-0.793-0.391l-0.918-2.701h-0.177v2.5c0 0.345-0.28 0.625-0.625 0.625s-0.625-0.28-0.625-0.625v-3.75z"></path>
<path d="M1.25 7.5c0-0.345 0.28-0.625 0.625-0.625h16.25c0.345 0 0.625 0.28 0.625 0.625s-0.28 0.625-0.625 0.625h-1.875v1.875c0 0.345-0.28 0.625-0.625 0.625s-0.625-0.28-0.625-0.625v-1.875h-10v1.875c0 0.345-0.28 0.625-0.625 0.625s-0.625-0.28-0.625-0.625v-1.875h-1.875c-0.345 0-0.625-0.28-0.625-0.625z"></path>
<path d="M11.875 10c0-0.345-0.28-0.625-0.625-0.625s-0.625 0.28-0.625 0.625v8.75h4.875c1.751 0 2.915-1.682 2.341-3.329l-0.999-2.935c-0.111-0.327-0.466-0.501-0.793-0.39s-0.501 0.466-0.39 0.793l1.002 2.943c0.298 0.852-0.287 1.668-1.16 1.668h-3.625v-7.5z"></path>
<path d="M7.052 1.25h2.323v3.75c0 0.345-0.28 0.625-0.625 0.625s-0.625-0.28-0.625-0.625v-2.5h-0.177l-0.918 2.701c-0.111 0.327-0.466 0.502-0.793 0.391s-0.502-0.466-0.391-0.793l1.207-3.549z"></path>
<path d="M9.375 10c0-0.345-0.28-0.625-0.625-0.625s-0.625 0.28-0.625 0.625v7.5h-3.625c-0.873 0-1.458-0.816-1.16-1.668l1.002-2.943c0.111-0.327-0.063-0.682-0.39-0.793s-0.682 0.063-0.793 0.39l-0.999 2.935c-0.575 1.647 0.59 3.329 2.341 3.329h4.875v-8.75z"></path>
</svg>
