<!-- Generated by IcoMoon.io -->
<svg version="1.1" xmlns="http://www.w3.org/2000/svg" width="20" height="20" viewBox="0 0 20 20">
<title>highway</title>
<path d="M10.625 1.875c0-0.345 0.28-0.625 0.625-0.625h1.25c0.268 0 0.506 0.17 0.592 0.424l1.063 3.125c0.111 0.327-0.064 0.682-0.391 0.793s-0.682-0.064-0.793-0.391l-0.918-2.701h-0.177v2.5c0 0.345-0.28 0.625-0.625 0.625s-0.625-0.28-0.625-0.625v-3.125z"></path>
<path d="M1.25 7.5c0-0.345 0.28-0.625 0.625-0.625h16.25c0.345 0 0.625 0.28 0.625 0.625s-0.28 0.625-0.625 0.625h-1.875v1.875c0 0.345-0.28 0.625-0.625 0.625s-0.625-0.28-0.625-0.625v-1.875h-10v1.875c0 0.345-0.28 0.625-0.625 0.625s-0.625-0.28-0.625-0.625v-1.875h-1.875c-0.345 0-0.625-0.28-0.625-0.625z"></path>
<path d="M11.875 10c0-0.345-0.28-0.625-0.625-0.625s-0.625 0.28-0.625 0.625v8.125c0 0.345 0.28 0.625 0.625 0.625h6.875c0.202 0 0.392-0.098 0.509-0.262s0.148-0.376 0.082-0.567l-1.875-5.438c-0.113-0.326-0.468-0.5-0.795-0.387s-0.5 0.468-0.387 0.795l1.589 4.609h-5.373v-7.5z"></path>
<path d="M6.908 1.674c0.086-0.253 0.324-0.424 0.592-0.424h1.25c0.345 0 0.625 0.28 0.625 0.625v3.125c0 0.345-0.28 0.625-0.625 0.625s-0.625-0.28-0.625-0.625v-2.5h-0.177l-0.918 2.701c-0.111 0.327-0.466 0.502-0.793 0.391s-0.502-0.466-0.391-0.793l1.062-3.125z"></path>
<path d="M9.375 10c0-0.345-0.28-0.625-0.625-0.625s-0.625 0.28-0.625 0.625v7.5h-5.373l1.589-4.609c0.113-0.326-0.061-0.682-0.387-0.795s-0.682 0.061-0.795 0.387l-1.875 5.438c-0.066 0.191-0.035 0.402 0.082 0.567s0.307 0.262 0.509 0.262h6.875c0.345 0 0.625-0.28 0.625-0.625v-8.125z"></path>
</svg>
