<!-- Generated by IcoMoon.io -->
<svg version="1.1" xmlns="http://www.w3.org/2000/svg" width="32" height="32" viewBox="0 0 32 32">
<title>highway</title>
<path d="M17 3c0-0.552 0.448-1 1-1h2c0.428 0 0.809 0.273 0.947 0.678l1.7 5c0.178 0.523-0.102 1.091-0.625 1.269s-1.091-0.102-1.269-0.625l-1.469-4.322h-0.284v4c0 0.552-0.448 1-1 1s-1-0.448-1-1v-5z"></path>
<path d="M2 12c0-0.552 0.448-1 1-1h26c0.552 0 1 0.448 1 1s-0.448 1-1 1h-3v3c0 0.552-0.448 1-1 1s-1-0.448-1-1v-3h-16v3c0 0.552-0.448 1-1 1s-1-0.448-1-1v-3h-3c-0.552 0-1-0.448-1-1z"></path>
<path d="M19 16c0-0.552-0.448-1-1-1s-1 0.448-1 1v13c0 0.552 0.448 1 1 1h11c0.323 0 0.627-0.156 0.814-0.419s0.237-0.601 0.131-0.907l-3-8.7c-0.18-0.522-0.749-0.799-1.271-0.619s-0.799 0.749-0.619 1.271l2.543 7.374h-8.597v-12z"></path>
<path d="M11.053 2.678c0.138-0.405 0.519-0.678 0.947-0.678h2c0.552 0 1 0.448 1 1v5c0 0.552-0.448 1-1 1s-1-0.448-1-1v-4h-0.284l-1.469 4.322c-0.178 0.523-0.746 0.803-1.269 0.625s-0.803-0.746-0.625-1.269l1.7-5z"></path>
<path d="M15 16c0-0.552-0.448-1-1-1s-1 0.448-1 1v12h-8.597l2.543-7.374c0.18-0.522-0.097-1.091-0.619-1.271s-1.091 0.097-1.271 0.619l-3 8.7c-0.105 0.306-0.057 0.643 0.131 0.907s0.491 0.419 0.814 0.419h11c0.552 0 1-0.448 1-1v-13z"></path>
</svg>
