<!-- Generated by IcoMoon.io -->
<svg version="1.1" xmlns="http://www.w3.org/2000/svg" width="20" height="20" viewBox="0 0 20 20">
<title>history-back</title>
<path d="M6.067 3.308c0.244 0.244 0.244 0.64 0 0.884l-2.058 2.058h5.991c0.345 0 0.625 0.28 0.625 0.625s-0.28 0.625-0.625 0.625h-5.991l2.058 2.058c0.244 0.244 0.244 0.64 0 0.884s-0.64 0.244-0.884 0l-3.567-3.567 3.567-3.567c0.244-0.244 0.64-0.244 0.884 0z"></path>
<path d="M6.768 13.75h1.463c0.257-0.728 0.952-1.25 1.768-1.25s1.511 0.522 1.768 1.25h1.463c0.257-0.728 0.952-1.25 1.768-1.25s1.511 0.522 1.768 1.25h1.357c0.345 0 0.625 0.28 0.625 0.625s-0.28 0.625-0.625 0.625h-1.357c-0.257 0.728-0.952 1.25-1.768 1.25s-1.511-0.522-1.768-1.25h-1.463c-0.257 0.728-0.952 1.25-1.768 1.25s-1.511-0.522-1.768-1.25h-1.463c-0.257 0.728-0.952 1.25-1.768 1.25s-1.511-0.522-1.768-1.25h-1.357c-0.345 0-0.625-0.28-0.625-0.625s0.28-0.625 0.625-0.625h1.357c0.257-0.728 0.952-1.25 1.768-1.25s1.511 0.522 1.768 1.25zM5 13.75c-0.345 0-0.625 0.28-0.625 0.625s0.28 0.625 0.625 0.625c0.345 0 0.625-0.28 0.625-0.625s-0.28-0.625-0.625-0.625zM15.625 14.375c0-0.345-0.28-0.625-0.625-0.625s-0.625 0.28-0.625 0.625c0 0.345 0.28 0.625 0.625 0.625s0.625-0.28 0.625-0.625zM10 13.75c-0.345 0-0.625 0.28-0.625 0.625s0.28 0.625 0.625 0.625c0.345 0 0.625-0.28 0.625-0.625s-0.28-0.625-0.625-0.625z"></path>
<path d="M11.875 6.875c0-0.345 0.28-0.625 0.625-0.625h1.25c0.345 0 0.625 0.28 0.625 0.625s-0.28 0.625-0.625 0.625h-1.25c-0.345 0-0.625-0.28-0.625-0.625z"></path>
<path d="M16.25 6.25c-0.345 0-0.625 0.28-0.625 0.625s0.28 0.625 0.625 0.625h0.625c0.345 0 0.625-0.28 0.625-0.625s-0.28-0.625-0.625-0.625h-0.625z"></path>
</svg>
