<!-- Generated by IcoMoon.io -->
<svg version="1.1" xmlns="http://www.w3.org/2000/svg" width="20" height="20" viewBox="0 0 20 20">
<title>home</title>
<path d="M17.5 7.386v9.046c0 1.408-1.092 2.5-2.5 2.5h-2.563c-0.345 0-0.625-0.28-0.625-0.625v-7.5h-3.625v7.5c0 0.302-0.214 0.554-0.499 0.612-0.041 0.008-0.083 0.013-0.126 0.013h-2.562c-1.408 0-2.5-1.092-2.5-2.5v-9.046l7.5-6.136 7.5 6.136zM13.063 17.683h1.938c0.717 0 1.25-0.533 1.25-1.25v-8.454l-6.25-5.114-6.25 5.114v8.454c0 0.717 0.533 1.25 1.25 1.25h1.938v-8.125h6.125v8.125z"></path>
</svg>
