<!-- Generated by IcoMoon.io -->
<svg version="1.1" xmlns="http://www.w3.org/2000/svg" width="20" height="20" viewBox="0 0 20 20">
<title>hourglass</title>
<path d="M4.931 1.256c0.017-0.004 0.037-0.006 0.059-0.006h9.687c0.061 0 0.111 0.030 0.152 0.081 0.183 0.107 0.307 0.311 0.307 0.544v3.125c0 1.497-0.739 2.595-1.732 3.449-0.686 0.59-1.525 1.091-2.379 1.551 0.854 0.46 1.693 0.961 2.379 1.551 0.993 0.854 1.732 1.952 1.732 3.449v3.125c0 0.241-0.132 0.449-0.324 0.554-0.034 0.045-0.078 0.071-0.135 0.071h-9.687c-0.018 0-0.035-0.003-0.051-0.008-0.031 0.005-0.063 0.008-0.095 0.008-0.334 0-0.605-0.28-0.605-0.625v-3.125c0-1.497 0.739-2.595 1.732-3.449 0.686-0.59 1.525-1.091 2.379-1.551-0.854-0.46-1.693-0.961-2.379-1.551-0.993-0.854-1.732-1.952-1.732-3.449v-3.125c0-0.345 0.271-0.625 0.605-0.625 0.030 0 0.059 0.002 0.087 0.006zM13.926 2.5h-8.477v2.5c0 1.003 0.472 1.78 1.296 2.489 0.781 0.672 1.818 1.23 2.942 1.812 1.124-0.582 2.161-1.141 2.942-1.812 0.824-0.708 1.296-1.486 1.296-2.489v-2.5zM13.926 17.5v-2.5c0-1.003-0.472-1.78-1.296-2.489-0.781-0.672-1.818-1.23-2.942-1.812-1.124 0.582-2.161 1.141-2.942 1.812-0.824 0.708-1.296 1.486-1.296 2.489v2.5h8.477z"></path>
</svg>
