<!-- Generated by IcoMoon.io -->
<svg version="1.1" xmlns="http://www.w3.org/2000/svg" width="32" height="32" viewBox="0 0 32 32">
<title>hourglass</title>
<path d="M7.889 2.010c0.027-0.007 0.059-0.010 0.095-0.010h15.5c0.098 0 0.178 0.048 0.244 0.13 0.293 0.172 0.491 0.497 0.491 0.87v5c0 2.395-1.182 4.152-2.77 5.518-1.098 0.944-2.44 1.746-3.806 2.482 1.366 0.736 2.709 1.537 3.806 2.482 1.588 1.366 2.77 3.123 2.77 5.518v5c0 0.385-0.211 0.719-0.519 0.886-0.054 0.072-0.124 0.114-0.215 0.114h-15.5c-0.029 0-0.056-0.004-0.082-0.012-0.050 0.008-0.101 0.012-0.153 0.012-0.535 0-0.969-0.448-0.969-1v-5c0-2.395 1.182-4.152 2.77-5.518 1.098-0.944 2.44-1.746 3.806-2.482-1.366-0.736-2.708-1.537-3.806-2.482-1.589-1.367-2.77-3.123-2.77-5.518v-5c0-0.552 0.434-1 0.969-1 0.047 0 0.094 0.003 0.139 0.010zM22.281 4h-13.562v4c0 1.605 0.756 2.848 2.073 3.982 1.25 1.075 2.909 1.968 4.708 2.9 1.799-0.932 3.458-1.825 4.708-2.9 1.318-1.133 2.073-2.377 2.073-3.982v-4zM22.281 28v-4c0-1.605-0.756-2.848-2.073-3.982-1.25-1.075-2.909-1.968-4.708-2.9-1.799 0.932-3.458 1.825-4.708 2.9-1.318 1.134-2.073 2.377-2.073 3.982v4h13.562z"></path>
</svg>
