<!-- Generated by IcoMoon.io -->
<svg version="1.1" xmlns="http://www.w3.org/2000/svg" width="20" height="20" viewBox="0 0 20 20">
<title>hourglass-alt</title>
<path d="M3.125 1.25h13.75c0.345 0 0.625 0.28 0.625 0.625s-0.28 0.625-0.625 0.625h-1.25v2.5c0 1.497-0.762 2.595-1.787 3.449-0.708 0.59-1.574 1.091-2.456 1.551 0.881 0.46 1.747 0.961 2.456 1.551 1.025 0.854 1.787 1.952 1.787 3.449v2.5h1.25c0.345 0 0.625 0.28 0.625 0.625s-0.28 0.625-0.625 0.625h-13.75c-0.345 0-0.625-0.28-0.625-0.625s0.28-0.625 0.625-0.625h1.25v-2.5c0-1.497 0.763-2.595 1.787-3.449 0.708-0.59 1.574-1.091 2.456-1.551-0.881-0.46-1.747-0.961-2.456-1.551-1.025-0.854-1.787-1.952-1.787-3.449v-2.5h-1.25c-0.345 0-0.625-0.28-0.625-0.625s0.28-0.625 0.625-0.625zM14.375 2.5h-8.75v2.5c0 1.003 0.487 1.78 1.338 2.489 0.806 0.672 1.877 1.23 3.037 1.812 1.161-0.582 2.231-1.141 3.037-1.812 0.85-0.708 1.338-1.486 1.338-2.489v-2.5zM10 10.699c-1.161 0.582-2.231 1.141-3.037 1.812-0.85 0.708-1.338 1.486-1.338 2.489v2.5h8.75v-2.5c0-1.003-0.488-1.78-1.338-2.489-0.806-0.672-1.877-1.23-3.037-1.812z"></path>
</svg>
