<!-- Generated by IcoMoon.io -->
<svg version="1.1" xmlns="http://www.w3.org/2000/svg" width="32" height="32" viewBox="0 0 32 32">
<title>hugo</title>
<path d="M10 23.53v-15.68h3.28v5.71h5.43v-5.71h3.29v15.68h-3.29v-6.86h-5.43v6.86h-3.28z"></path>
<path d="M16 30.11c-0.832 0.001-1.649-0.216-2.37-0.63l-8.38-4.79c-0.721-0.417-1.319-1.017-1.735-1.738s-0.635-1.539-0.635-2.372v-9.73c0-0.833 0.219-1.651 0.635-2.372s1.014-1.321 1.735-1.738l8.38-4.84c0.722-0.413 1.539-0.63 2.37-0.63s1.648 0.217 2.37 0.63l8.38 4.84c0.721 0.417 1.319 1.017 1.735 1.738s0.635 1.539 0.635 2.372v9.68c0.009 0.841-0.206 1.67-0.622 2.401s-1.020 1.338-1.747 1.759l-8.38 4.84c-0.726 0.396-1.543 0.596-2.37 0.58zM16 3.27c-0.486 0.014-0.96 0.159-1.37 0.42l-8.38 4.79c-0.417 0.239-0.764 0.584-1.005 1s-0.367 0.889-0.365 1.37v9.68c-0.002 0.481 0.124 0.954 0.365 1.37s0.587 0.762 1.005 1l8.38 4.84c0.416 0.241 0.889 0.367 1.37 0.367s0.953-0.127 1.37-0.367l8.38-4.84c0.418-0.239 0.764-0.584 1.005-1s0.367-0.889 0.365-1.37v-9.68c0.002-0.481-0.125-0.954-0.365-1.37s-0.587-0.761-1.005-1l-8.38-4.79c-0.41-0.261-0.884-0.406-1.37-0.42z"></path>
</svg>
