<!-- Generated by IcoMoon.io -->
<svg version="1.1" xmlns="http://www.w3.org/2000/svg" width="20" height="20" viewBox="0 0 20 20">
<title>hugo</title>
<path d="M6.25 14.706v-9.8h2.050v3.569h3.394v-3.569h2.056v9.8h-2.056v-4.287h-3.394v4.287h-2.050z"></path>
<path d="M10 18.819c-0.52 0.001-1.031-0.135-1.481-0.394l-5.237-2.994c-0.45-0.261-0.824-0.635-1.084-1.086s-0.397-0.962-0.397-1.483v-6.081c0-0.52 0.137-1.032 0.397-1.483s0.634-0.825 1.084-1.086l5.237-3.025c0.451-0.258 0.962-0.394 1.481-0.394s1.030 0.136 1.481 0.394l5.237 3.025c0.45 0.261 0.824 0.635 1.084 1.086s0.397 0.962 0.397 1.483v6.050c0.005 0.526-0.129 1.043-0.389 1.5s-0.637 0.836-1.092 1.1l-5.238 3.025c-0.454 0.248-0.964 0.373-1.481 0.363zM10 2.044c-0.304 0.008-0.6 0.099-0.856 0.262l-5.237 2.994c-0.261 0.149-0.478 0.365-0.628 0.625s-0.229 0.556-0.228 0.856v6.050c-0.001 0.301 0.078 0.596 0.228 0.856s0.367 0.476 0.628 0.625l5.237 3.025c0.26 0.15 0.556 0.229 0.856 0.229s0.596-0.079 0.856-0.229l5.237-3.025c0.261-0.149 0.478-0.365 0.628-0.625s0.229-0.556 0.228-0.856v-6.050c0.001-0.301-0.078-0.596-0.228-0.856s-0.367-0.476-0.628-0.625l-5.238-2.994c-0.256-0.163-0.552-0.254-0.856-0.262z"></path>
</svg>
