<!-- Generated by IcoMoon.io -->
<svg version="1.1" xmlns="http://www.w3.org/2000/svg" width="20" height="20" viewBox="0 0 20 20">
<title>human</title>
<path d="M6.875 4.375c0-1.726 1.399-3.125 3.125-3.125s3.125 1.399 3.125 3.125c0 1.726-1.399 3.125-3.125 3.125s-3.125-1.399-3.125-3.125zM10 2.5c-1.036 0-1.875 0.839-1.875 1.875s0.839 1.875 1.875 1.875c1.036 0 1.875-0.839 1.875-1.875s-0.839-1.875-1.875-1.875z"></path>
<path d="M2.016 6.891c-0.336-0.078-0.672 0.132-0.75 0.468s0.132 0.672 0.468 0.75l7.641 1.763v1.8l-4.88 6.711c-0.203 0.279-0.141 0.67 0.138 0.873s0.67 0.141 0.873-0.138l4.495-6.18 4.495 6.18c0.203 0.279 0.594 0.341 0.873 0.138s0.341-0.594 0.138-0.873l-4.88-6.711v-1.8l7.641-1.763c0.336-0.078 0.546-0.413 0.468-0.75s-0.413-0.546-0.75-0.468l-7.984 1.843-7.984-1.843z"></path>
</svg>
