<!-- Generated by IcoMoon.io -->
<svg version="1.1" xmlns="http://www.w3.org/2000/svg" width="32" height="32" viewBox="0 0 32 32">
<title>hyperdb</title>
<path d="M13.36 21.1c0.327-0.006 0.647-0.092 0.933-0.251s0.528-0.385 0.707-0.659l4.42-6.91c0.2-0.329 0.307-0.705 0.31-1.090 0.004-0.334-0.075-0.663-0.23-0.958s-0.382-0.547-0.66-0.732c-0.301-0.187-0.646-0.29-1-0.3-0.328 0.003-0.65 0.087-0.937 0.244s-0.532 0.382-0.713 0.656l-4.43 6.9c-0.277 0.449-0.372 0.986-0.266 1.503s0.405 0.973 0.836 1.277c0.307 0.199 0.664 0.31 1.030 0.32zM16 30.36c-2.902 0-5.738-0.86-8.15-2.472s-4.293-3.903-5.403-6.584-1.401-5.63-0.835-8.476c0.566-2.846 1.963-5.46 4.015-7.511s4.666-3.449 7.511-4.015c2.846-0.566 5.795-0.276 8.476 0.835s4.972 2.991 6.584 5.403c1.612 2.412 2.472 5.249 2.472 8.15-0.016 3.883-1.567 7.602-4.316 10.345s-6.471 4.287-10.354 4.295v0.030zM16 4.36c-2.243 0-4.436 0.665-6.301 1.912s-3.319 3.018-4.177 5.091-1.082 4.353-0.644 6.553c0.438 2.2 1.519 4.221 3.106 5.806s3.608 2.665 5.809 3.101c2.2 0.436 4.481 0.21 6.553-0.649s3.842-2.315 5.087-4.181c1.245-1.866 1.908-4.060 1.906-6.303 0.004-1.492-0.287-2.97-0.855-4.349s-1.403-2.633-2.456-3.689c-1.053-1.056-2.305-1.894-3.683-2.466s-2.855-0.866-4.347-0.866v0.040z"></path>
</svg>
