<!-- Generated by IcoMoon.io -->
<svg version="1.1" xmlns="http://www.w3.org/2000/svg" width="20" height="20" viewBox="0 0 20 20">
<title>hyperdb</title>
<path d="M8.35 13.188c0.204-0.004 0.405-0.058 0.583-0.157s0.33-0.241 0.442-0.412l2.763-4.319c0.125-0.205 0.192-0.441 0.194-0.681 0.003-0.208-0.047-0.414-0.144-0.599s-0.239-0.342-0.412-0.457c-0.188-0.117-0.404-0.181-0.625-0.188-0.205 0.002-0.406 0.054-0.586 0.153s-0.333 0.239-0.445 0.41l-2.769 4.313c-0.173 0.281-0.233 0.617-0.167 0.939s0.253 0.608 0.523 0.798c0.192 0.124 0.415 0.194 0.644 0.2zM10 18.975c-1.813 0-3.586-0.538-5.094-1.545s-2.683-2.439-3.377-4.115-0.876-3.519-0.522-5.297c0.354-1.779 1.227-3.412 2.509-4.695s2.916-2.156 4.695-2.509c1.779-0.354 3.622-0.172 5.298 0.522s3.107 1.869 4.115 3.377c1.008 1.508 1.545 3.28 1.545 5.094-0.010 2.427-0.98 4.751-2.698 6.466s-4.044 2.679-6.471 2.684v0.019zM10 2.725c-1.402 0-2.773 0.416-3.938 1.195s-2.074 1.886-2.61 3.182-0.676 2.721-0.402 4.096c0.274 1.375 0.95 2.638 1.941 3.629s2.255 1.665 3.631 1.938c1.375 0.273 2.801 0.132 4.096-0.406s2.401-1.447 3.179-2.613c0.778-1.166 1.193-2.537 1.191-3.939 0.002-0.932-0.179-1.856-0.534-2.718s-0.877-1.646-1.535-2.306c-0.658-0.66-1.441-1.184-2.302-1.541s-1.784-0.541-2.717-0.541v0.025z"></path>
</svg>
