<!-- Generated by IcoMoon.io -->
<svg version="1.1" xmlns="http://www.w3.org/2000/svg" width="20" height="20" viewBox="0 0 20 20">
<title>images</title>
<path d="M13.464 2.534c0.62-0.155 1.31 0.27 1.49 0.976l0.498 2.241c0.075 0.337 0.409 0.549 0.746 0.475s0.549-0.409 0.475-0.746l-0.502-2.258-0.002-0.008c-0.322-1.287-1.625-2.233-3-1.894l-9.733 2.184c-1.374 0.265-2.178 1.692-1.857 3.002l0.435 2.052c0.072 0.338 0.403 0.553 0.741 0.482s0.553-0.403 0.482-0.741l-0.44-2.073-0.003-0.011c-0.171-0.683 0.269-1.369 0.884-1.484l0.011-0.002 9.776-2.193z"></path>
<path d="M8.125 9.365c-1.036 0-1.875 0.839-1.875 1.875s0.839 1.875 1.875 1.875 1.875-0.839 1.875-1.875c0-1.036-0.839-1.875-1.875-1.875zM7.5 11.24c0-0.345 0.28-0.625 0.625-0.625s0.625 0.28 0.625 0.625c0 0.345-0.28 0.625-0.625 0.625s-0.625-0.28-0.625-0.625z"></path>
<path d="M18.75 16.24c0 1.408-1.092 2.5-2.5 2.5h-10c-1.408 0-2.5-1.092-2.5-2.5v-6.875c0-1.408 1.092-2.5 2.5-2.5h10c1.408 0 2.5 1.092 2.5 2.5v6.875zM6.25 8.115c-0.717 0-1.25 0.533-1.25 1.25v6.875c0 0.717 0.533 1.25 1.25 1.25h0.988l6.952-7.080 3.311 2.51v-3.554c0-0.717-0.533-1.25-1.25-1.25h-10zM16.25 17.49c0.717 0 1.25-0.533 1.25-1.25v-1.752l-3.189-2.418-5.321 5.42h7.261z"></path>
</svg>
