<!-- Generated by IcoMoon.io -->
<svg version="1.1" xmlns="http://www.w3.org/2000/svg" width="20" height="20" viewBox="0 0 20 20">
<title>image</title>
<path d="M4.375 6.875c0-1.381 1.119-2.5 2.5-2.5s2.5 1.119 2.5 2.5c0 1.381-1.119 2.5-2.5 2.5s-2.5-1.119-2.5-2.5zM6.875 5.625c-0.69 0-1.25 0.56-1.25 1.25s0.56 1.25 1.25 1.25c0.69 0 1.25-0.56 1.25-1.25s-0.56-1.25-1.25-1.25z"></path>
<path d="M3.75 18.75h12.5c1.408 0 2.5-1.092 2.5-2.5v-3.118c0-0.004 0-0.009 0-0.014v-9.369c0-1.408-1.092-2.5-2.5-2.5h-12.5c-1.408 0-2.5 1.092-2.5 2.5v12.5c0 1.408 1.092 2.5 2.5 2.5zM2.5 3.75c0-0.717 0.533-1.25 1.25-1.25h12.5c0.717 0 1.25 0.533 1.25 1.25v8.125l-4.434-3.325-8.95 8.95h-0.366c-0.717 0-1.25-0.533-1.25-1.25v-12.5zM17.5 13.438v2.813c0 0.717-0.533 1.25-1.25 1.25h-10.366l7.3-7.3 4.316 3.237z"></path>
</svg>
