<!-- Generated by IcoMoon.io -->
<svg version="1.1" xmlns="http://www.w3.org/2000/svg" width="32" height="32" viewBox="0 0 32 32">
<title>images</title>
<path d="M21.543 4.054c0.991-0.248 2.096 0.431 2.384 1.561l0.797 3.586c0.12 0.539 0.654 0.879 1.193 0.759s0.879-0.654 0.759-1.193l-0.803-3.613-0.003-0.013c-0.515-2.060-2.599-3.573-4.8-3.031l-15.573 3.494c-2.199 0.424-3.485 2.707-2.972 4.803l0.697 3.284c0.115 0.54 0.645 0.885 1.186 0.771s0.885-0.646 0.771-1.186l-0.704-3.318-0.004-0.017c-0.273-1.093 0.431-2.19 1.414-2.375l0.017-0.003 15.641-3.509z"></path>
<path d="M13 14.984c-1.657 0-3 1.343-3 3s1.343 3 3 3 3-1.343 3-3c0-1.657-1.343-3-3-3zM12 17.984c0-0.552 0.448-1 1-1s1 0.448 1 1c0 0.552-0.448 1-1 1s-1-0.448-1-1z"></path>
<path d="M30 25.984c0 2.252-1.748 4-4 4h-16c-2.252 0-4-1.748-4-4v-11c0-2.252 1.748-4 4-4h16c2.252 0 4 1.748 4 4v11zM10 12.984c-1.148 0-2 0.852-2 2v11c0 1.148 0.852 2 2 2h1.58l11.122-11.328 5.297 4.016v-5.687c0-1.148-0.852-2-2-2h-16zM26 27.984c1.148 0 2-0.852 2-2v-2.803l-5.103-3.868-8.514 8.672h11.617z"></path>
</svg>
