<!-- Generated by IcoMoon.io -->
<svg version="1.1" xmlns="http://www.w3.org/2000/svg" width="32" height="32" viewBox="0 0 32 32">
<title>image</title>
<path d="M7 11c0-2.209 1.791-4 4-4s4 1.791 4 4c0 2.209-1.791 4-4 4s-4-1.791-4-4zM11 9c-1.105 0-2 0.895-2 2s0.895 2 2 2c1.105 0 2-0.895 2-2s-0.895-2-2-2z"></path>
<path d="M6 30h20c2.252 0 4-1.748 4-4v-4.988c0-0.007 0-0.014 0-0.022v-14.99c0-2.252-1.748-4-4-4h-20c-2.252 0-4 1.748-4 4v20c0 2.252 1.748 4 4 4zM4 6c0-1.148 0.852-2 2-2h20c1.148 0 2 0.852 2 2v13l-7.094-5.32-14.32 14.32h-0.586c-1.148 0-2-0.852-2-2v-20zM28 21.5v4.5c0 1.148-0.852 2-2 2h-16.586l11.68-11.68 6.906 5.18z"></path>
</svg>
