<!-- Generated by IcoMoon.io -->
<svg version="1.1" xmlns="http://www.w3.org/2000/svg" width="20" height="20" viewBox="0 0 20 20">
<title>import</title>
<path d="M2.5 3.75c0-0.717 0.533-1.25 1.25-1.25h6.875c0.717 0 1.25 0.533 1.25 1.25v3.125c0 0.345 0.28 0.625 0.625 0.625s0.625-0.28 0.625-0.625v-3.125c0-1.408-1.092-2.5-2.5-2.5h-6.875c-1.408 0-2.5 1.092-2.5 2.5v12.5c0 1.408 1.092 2.5 2.5 2.5h6.875c1.408 0 2.5-1.092 2.5-2.5v-3.125c0-0.345-0.28-0.625-0.625-0.625s-0.625 0.28-0.625 0.625v3.125c0 0.717-0.533 1.25-1.25 1.25h-6.875c-0.717 0-1.25-0.533-1.25-1.25v-12.5z"></path>
<path d="M9.192 7.317c0.244-0.244 0.244-0.64 0-0.884s-0.64-0.244-0.884 0l-3.567 3.567 3.567 3.567c0.244 0.244 0.64 0.244 0.884 0s0.244-0.64 0-0.884l-2.058-2.058h7.866c0.345 0 0.625-0.28 0.625-0.625s-0.28-0.625-0.625-0.625h-7.866l2.058-2.058z"></path>
<path d="M13.75 1.25c-0.345 0-0.625 0.28-0.625 0.625s0.28 0.625 0.625 0.625h0.625c0.345 0 0.625-0.28 0.625-0.625s-0.28-0.625-0.625-0.625h-0.625z"></path>
<path d="M16.25 1.25c-0.345 0-0.625 0.28-0.625 0.625s0.28 0.625 0.625 0.625c0.717 0 1.25 0.533 1.25 1.25 0 0.345 0.28 0.625 0.625 0.625s0.625-0.28 0.625-0.625c0-1.408-1.092-2.5-2.5-2.5z"></path>
<path d="M18.75 5.625c0-0.345-0.28-0.625-0.625-0.625s-0.625 0.28-0.625 0.625v0.625c0 0.345 0.28 0.625 0.625 0.625s0.625-0.28 0.625-0.625v-0.625z"></path>
<path d="M18.75 8.125c0-0.345-0.28-0.625-0.625-0.625s-0.625 0.28-0.625 0.625v0.625c0 0.345 0.28 0.625 0.625 0.625s0.625-0.28 0.625-0.625v-0.625z"></path>
<path d="M18.75 11.25c0-0.345-0.28-0.625-0.625-0.625s-0.625 0.28-0.625 0.625v0.625c0 0.345 0.28 0.625 0.625 0.625s0.625-0.28 0.625-0.625v-0.625z"></path>
<path d="M18.75 13.75c0-0.345-0.28-0.625-0.625-0.625s-0.625 0.28-0.625 0.625v0.625c0 0.345 0.28 0.625 0.625 0.625s0.625-0.28 0.625-0.625v-0.625z"></path>
<path d="M18.75 16.25c0-0.345-0.28-0.625-0.625-0.625s-0.625 0.28-0.625 0.625c0 0.717-0.533 1.25-1.25 1.25-0.345 0-0.625 0.28-0.625 0.625s0.28 0.625 0.625 0.625c1.408 0 2.5-1.092 2.5-2.5z"></path>
<path d="M13.75 17.5c-0.345 0-0.625 0.28-0.625 0.625s0.28 0.625 0.625 0.625h0.625c0.345 0 0.625-0.28 0.625-0.625s-0.28-0.625-0.625-0.625h-0.625z"></path>
</svg>
