<!-- Generated by IcoMoon.io -->
<svg version="1.1" xmlns="http://www.w3.org/2000/svg" width="20" height="20" viewBox="0 0 20 20">
<title>import-alt</title>
<path d="M2.5 3.75c0-0.717 0.533-1.25 1.25-1.25h7.5c0.717 0 1.25 0.533 1.25 1.25 0 0.345 0.28 0.625 0.625 0.625s0.625-0.28 0.625-0.625c0-1.408-1.092-2.5-2.5-2.5h-7.5c-1.408 0-2.5 1.092-2.5 2.5v7.5c0 1.408 1.092 2.5 2.5 2.5 0.345 0 0.625-0.28 0.625-0.625s-0.28-0.625-0.625-0.625c-0.717 0-1.25-0.533-1.25-1.25v-7.5z"></path>
<path d="M11.875 6.25c-0.345 0-0.625 0.28-0.625 0.625s0.28 0.625 0.625 0.625h4.375c0.717 0 1.25 0.533 1.25 1.25v7.5c0 0.717-0.533 1.25-1.25 1.25h-7.5c-0.717 0-1.25-0.533-1.25-1.25v-4.375c0-0.345-0.28-0.625-0.625-0.625s-0.625 0.28-0.625 0.625v4.375c0 1.408 1.092 2.5 2.5 2.5h7.5c1.408 0 2.5-1.092 2.5-2.5v-7.5c0-1.408-1.092-2.5-2.5-2.5h-4.375z"></path>
<path d="M14.375 11.25c0-0.345 0.28-0.625 0.625-0.625s0.625 0.28 0.625 0.625v4.375h-4.375c-0.345 0-0.625-0.28-0.625-0.625s0.28-0.625 0.625-0.625h2.241l-3.308-3.308c-0.244-0.244-0.244-0.64 0-0.884s0.64-0.244 0.884 0l3.308 3.308v-2.241z"></path>
<path d="M7.058 7.058c0.244-0.244 0.64-0.244 0.884 0l1.25 1.25c0.244 0.244 0.244 0.64 0 0.884s-0.64 0.244-0.884 0l-1.25-1.25c-0.244-0.244-0.244-0.64 0-0.884z"></path>
<path d="M5.442 4.558c-0.244-0.244-0.64-0.244-0.884 0s-0.244 0.64 0 0.884l0.625 0.625c0.244 0.244 0.64 0.244 0.884 0s0.244-0.64 0-0.884l-0.625-0.625z"></path>
</svg>
