<!-- Generated by IcoMoon.io -->
<svg version="1.1" xmlns="http://www.w3.org/2000/svg" width="32" height="32" viewBox="0 0 32 32">
<title>import-alt</title>
<path d="M4 6c0-1.148 0.852-2 2-2h12c1.148 0 2 0.852 2 2 0 0.552 0.448 1 1 1s1-0.448 1-1c0-2.252-1.748-4-4-4h-12c-2.252 0-4 1.748-4 4v12c0 2.252 1.748 4 4 4 0.552 0 1-0.448 1-1s-0.448-1-1-1c-1.148 0-2-0.852-2-2v-12z"></path>
<path d="M19 10c-0.552 0-1 0.448-1 1s0.448 1 1 1h7c1.148 0 2 0.852 2 2v12c0 1.148-0.852 2-2 2h-12c-1.148 0-2-0.852-2-2v-7c0-0.552-0.448-1-1-1s-1 0.448-1 1v7c0 2.252 1.748 4 4 4h12c2.252 0 4-1.748 4-4v-12c0-2.252-1.748-4-4-4h-7z"></path>
<path d="M23 18c0-0.552 0.448-1 1-1s1 0.448 1 1v7h-7c-0.552 0-1-0.448-1-1s0.448-1 1-1h3.586l-5.293-5.293c-0.39-0.39-0.39-1.024 0-1.414s1.024-0.39 1.414 0l5.293 5.293v-3.586z"></path>
<path d="M11.293 11.293c0.39-0.39 1.024-0.39 1.414 0l2 2c0.39 0.39 0.39 1.024 0 1.414s-1.024 0.39-1.414 0l-2-2c-0.39-0.39-0.39-1.024 0-1.414z"></path>
<path d="M8.707 7.293c-0.391-0.391-1.024-0.391-1.414 0s-0.391 1.024 0 1.414l1 1c0.391 0.39 1.024 0.39 1.414 0s0.39-1.024 0-1.414l-1-1z"></path>
</svg>
