<!-- Generated by IcoMoon.io -->
<svg version="1.1" xmlns="http://www.w3.org/2000/svg" width="20" height="20" viewBox="0 0 20 20">
<title>inbox</title>
<path d="M1.262 10.505c-0.009 0.045-0.013 0.090-0.012 0.134v4.361c0 1.408 1.092 2.5 2.5 2.5h12.5c1.408 0 2.5-1.092 2.5-2.5v-4.361c0.001-0.046-0.003-0.092-0.012-0.137-0.009-0.044-0.023-0.087-0.040-0.128l-2.62-6.362c-0.003-0.007-0.006-0.014-0.009-0.021-0.415-0.912-1.326-1.491-2.319-1.491h-7.5c-0.993 0-1.904 0.579-2.319 1.491-0.003 0.007-0.006 0.014-0.009 0.021l-2.62 6.362c-0.018 0.041-0.032 0.085-0.041 0.131zM2.808 10l2.265-5.501c0.212-0.457 0.673-0.749 1.177-0.749h7.5c0.504 0 0.965 0.292 1.177 0.749l2.265 5.501h-3.442c-0.209 0-0.404 0.104-0.52 0.278l-1.064 1.597h-4.331l-1.064-1.597c-0.116-0.174-0.311-0.278-0.52-0.278h-3.442zM2.5 15v-3.75h3.416l1.064 1.597c0.116 0.174 0.311 0.278 0.52 0.278h5c0.209 0 0.404-0.104 0.52-0.278l1.064-1.597h3.416v3.75c0 0.717-0.533 1.25-1.25 1.25h-12.5c-0.717 0-1.25-0.533-1.25-1.25z"></path>
</svg>
