<!-- Generated by IcoMoon.io -->
<svg version="1.1" xmlns="http://www.w3.org/2000/svg" width="20" height="20" viewBox="0 0 20 20">
<title>inbox-full</title>
<path d="M3.75 1.25c-0.345 0-0.625 0.28-0.625 0.625v5.375l-1.822 4.372c-0.018 0.042-0.033 0.086-0.042 0.131s-0.013 0.091-0.012 0.136v4.361c0 1.408 1.092 2.5 2.5 2.5h12.5c1.408 0 2.5-1.092 2.5-2.5v-4.361c0.001-0.045-0.003-0.091-0.012-0.137s-0.023-0.089-0.041-0.131l-1.822-4.372v-1c0-0.166-0.066-0.325-0.183-0.442l-4.375-4.375c-0.117-0.117-0.276-0.183-0.442-0.183h-8.125zM15.625 7.361c-0 0.009-0 0.019 0 0.028v3.861h-1.875c-0.209 0-0.404 0.104-0.52 0.278l-1.064 1.597h-4.331l-1.064-1.597c-0.116-0.174-0.311-0.278-0.52-0.278h-1.875v-3.86c0-0.010 0-0.019 0-0.029v-4.861h6.875v4.375h4.375v0.486zM14.741 5.625h-2.241v-2.241l2.241 2.241zM3.125 10.5v0.75h-0.313l0.313-0.75zM16.875 11.25v-0.75l0.313 0.75h-0.313zM2.5 12.5h3.416l1.064 1.597c0.116 0.174 0.311 0.278 0.52 0.278h5c0.209 0 0.404-0.104 0.52-0.278l1.064-1.597h3.416v3.75c0 0.717-0.533 1.25-1.25 1.25h-12.5c-0.717 0-1.25-0.533-1.25-1.25v-3.75z"></path>
</svg>
