<!-- Generated by IcoMoon.io -->
<svg version="1.1" xmlns="http://www.w3.org/2000/svg" width="20" height="20" viewBox="0 0 20 20">
<title>industrial</title>
<path d="M6.25 14.062c0 0.518-0.42 0.938-0.938 0.938s-0.938-0.42-0.938-0.938c0-0.518 0.42-0.938 0.938-0.938s0.938 0.42 0.938 0.938z"></path>
<path d="M9.375 14.062c0 0.518-0.42 0.938-0.938 0.938s-0.938-0.42-0.938-0.938c0-0.518 0.42-0.938 0.938-0.938s0.938 0.42 0.938 0.938z"></path>
<path d="M11.563 15c0.518 0 0.938-0.42 0.938-0.938s-0.42-0.938-0.938-0.938-0.938 0.42-0.938 0.938c0 0.518 0.42 0.938 0.938 0.938z"></path>
<path d="M15.625 14.062c0 0.518-0.42 0.938-0.938 0.938s-0.938-0.42-0.938-0.938c0-0.518 0.42-0.938 0.938-0.938s0.938 0.42 0.938 0.938z"></path>
<path d="M18.75 1.875v5.613c0 0.008 0 0.016 0 0.024v8.114c0 1.408-1.092 2.5-2.5 2.5h-12.5c-1.408 0-2.5-1.092-2.5-2.5v-5.386l6.25-3.125v2.549l5.625-2.5v2.4l4.375-2.431v-5.257c0-0.345 0.28-0.625 0.625-0.625s0.625 0.28 0.625 0.625zM17.5 8.562l-5.625 3.125v-2.6l-5.625 2.5v-2.451l-3.75 1.875v4.614c0 0.717 0.533 1.25 1.25 1.25h12.5c0.717 0 1.25-0.533 1.25-1.25v-7.063z"></path>
</svg>
