<!-- Generated by IcoMoon.io -->
<svg version="1.1" xmlns="http://www.w3.org/2000/svg" width="20" height="20" viewBox="0 0 20 20">
<title>info</title>
<path d="M8.125 14.375c-0.345 0-0.625 0.28-0.625 0.625s0.28 0.625 0.625 0.625h3.75c0.345 0 0.625-0.28 0.625-0.625s-0.28-0.625-0.625-0.625h-1.25v-6.25h-2.5c-0.345 0-0.625 0.28-0.625 0.625s0.28 0.625 0.625 0.625h1.25v5h-1.25z"></path>
<path d="M10.938 5.625c0 0.518-0.42 0.938-0.938 0.938s-0.938-0.42-0.938-0.938c0-0.518 0.42-0.938 0.938-0.938s0.938 0.42 0.938 0.938z"></path>
<path d="M10 1.25c-4.832 0-8.75 3.918-8.75 8.75s3.918 8.75 8.75 8.75c4.832 0 8.75-3.918 8.75-8.75s-3.918-8.75-8.75-8.75zM2.5 10c0-4.142 3.358-7.5 7.5-7.5s7.5 3.358 7.5 7.5c0 4.142-3.358 7.5-7.5 7.5s-7.5-3.358-7.5-7.5z"></path>
</svg>
