<!-- Generated by IcoMoon.io -->
<svg version="1.1" xmlns="http://www.w3.org/2000/svg" width="20" height="20" viewBox="0 0 20 20">
<title>instagram</title>
<path d="M17.356 4.744c0.005 0.061-0.004 0.123-0.025 0.181s-0.055 0.11-0.098 0.154c-0.043 0.044-0.095 0.078-0.153 0.1s-0.119 0.031-0.18 0.028h-1.838c-0.062 0.005-0.124-0.004-0.182-0.026s-0.111-0.056-0.155-0.099c-0.044-0.044-0.078-0.097-0.099-0.155s-0.030-0.12-0.026-0.182v-1.812c-0.004-0.062 0.006-0.123 0.028-0.181s0.056-0.11 0.1-0.154 0.096-0.078 0.154-0.1c0.058-0.022 0.119-0.031 0.181-0.028h1.812c0.061-0.003 0.122 0.007 0.179 0.030s0.109 0.056 0.152 0.1c0.043 0.044 0.076 0.096 0.098 0.153s0.031 0.119 0.027 0.18l0.025 1.813zM3.125 17.163c-0.065 0.008-0.132 0.001-0.194-0.020s-0.119-0.056-0.166-0.103c-0.047-0.046-0.083-0.103-0.105-0.165s-0.030-0.128-0.023-0.194v-7.794h1.931c-0.072 0.301-0.102 0.61-0.088 0.919 0 1.464 0.581 2.867 1.616 3.902s2.439 1.616 3.902 1.616 2.867-0.581 3.902-1.616c1.035-1.035 1.616-2.439 1.616-3.902 0.015-0.309-0.016-0.619-0.094-0.919h1.931v7.794c0.004 0.061-0.006 0.122-0.027 0.179s-0.055 0.109-0.098 0.152c-0.043 0.043-0.095 0.077-0.152 0.098s-0.118 0.031-0.179 0.027l-13.775 0.025zM10 6.125c0.728 0 1.44 0.216 2.045 0.62s1.077 0.979 1.356 1.652c0.279 0.673 0.352 1.413 0.209 2.127s-0.493 1.37-1.007 1.885c-0.515 0.515-1.171 0.865-1.885 1.008s-1.454 0.069-2.127-0.209-1.248-0.751-1.652-1.356c-0.404-0.605-0.62-1.317-0.62-2.045 0.003-0.975 0.392-1.91 1.082-2.599s1.624-1.079 2.599-1.082zM17.2 0.638h-14.375c-0.261-0.003-0.519 0.045-0.761 0.143s-0.462 0.242-0.647 0.425c-0.185 0.183-0.333 0.401-0.433 0.642s-0.152 0.499-0.152 0.759v14.375c0 0.522 0.207 1.023 0.577 1.392s0.87 0.577 1.392 0.577h14.375c0.522 0 1.023-0.207 1.392-0.577s0.577-0.87 0.577-1.392v-14.375c0-0.518-0.204-1.015-0.568-1.383s-0.858-0.579-1.376-0.585z"></path>
</svg>
