<!-- Generated by IcoMoon.io -->
<svg version="1.1" xmlns="http://www.w3.org/2000/svg" width="20" height="20" viewBox="0 0 20 20">
<title>internet</title>
<path d="M3.75 10.035c0-3.452 2.798-6.25 6.25-6.25s6.25 2.798 6.25 6.25c0 3.452-2.798 6.25-6.25 6.25s-6.25-2.798-6.25-6.25zM5.339 8.22c-0.219 0.563-0.339 1.174-0.339 1.815s0.12 1.252 0.339 1.815c0.717-0.222 1.457-0.391 2.21-0.505-0.032-0.423-0.049-0.861-0.049-1.309 0-0.447 0.017-0.884 0.049-1.306-0.754-0.115-1.489-0.284-2.21-0.509zM5.952 12.971c0.578 0.796 1.386 1.415 2.326 1.76-0.071-0.165-0.137-0.34-0.197-0.521-0.159-0.477-0.289-1.025-0.386-1.623-0.593 0.092-1.176 0.22-1.743 0.384zM9.99 15.033l0.001 0.002h0.018l0.001-0.002c0.007-0.002 0.021-0.007 0.041-0.020 0.043-0.027 0.108-0.081 0.188-0.182 0.163-0.206 0.336-0.544 0.494-1.016 0.131-0.393 0.243-0.855 0.329-1.369-0.348-0.024-0.702-0.035-1.061-0.035-0.354 0-0.709 0.012-1.061 0.037 0.086 0.514 0.198 0.976 0.328 1.368 0.158 0.473 0.331 0.81 0.494 1.016 0.080 0.101 0.145 0.155 0.188 0.182 0.021 0.013 0.034 0.018 0.041 0.020zM11.919 14.21c-0.060 0.181-0.126 0.355-0.197 0.521 0.94-0.345 1.748-0.964 2.326-1.76-0.569-0.166-1.148-0.295-1.743-0.387-0.097 0.6-0.228 1.149-0.387 1.627zM14.661 11.849c0.219-0.562 0.339-1.174 0.339-1.814s-0.12-1.252-0.339-1.815c-0.717 0.222-1.457 0.391-2.21 0.505 0.032 0.423 0.049 0.861 0.049 1.31 0 0.447-0.017 0.884-0.049 1.306 0.754 0.115 1.489 0.284 2.209 0.509zM14.048 7.099c-0.578-0.796-1.386-1.415-2.326-1.76 0.071 0.165 0.137 0.34 0.197 0.521 0.159 0.477 0.289 1.025 0.386 1.623 0.593-0.092 1.176-0.22 1.743-0.384zM10.010 5.037l-0.001-0.002h-0.018l-0.001 0.002c-0.007 0.002-0.021 0.007-0.041 0.020-0.043 0.027-0.108 0.081-0.188 0.182-0.163 0.206-0.336 0.544-0.494 1.016-0.131 0.393-0.243 0.855-0.329 1.369 0.348 0.024 0.702 0.035 1.061 0.035 0.354 0 0.709-0.012 1.061-0.037-0.086-0.514-0.198-0.976-0.328-1.368-0.157-0.473-0.331-0.81-0.494-1.016-0.080-0.101-0.145-0.155-0.188-0.182-0.021-0.013-0.034-0.018-0.041-0.020zM8.081 5.86c0.060-0.181 0.126-0.355 0.197-0.521-0.94 0.345-1.748 0.964-2.326 1.76 0.569 0.166 1.148 0.295 1.743 0.387 0.097-0.6 0.228-1.149 0.387-1.627zM10 8.91c-0.409 0-0.811-0.014-1.208-0.043-0.027 0.374-0.042 0.765-0.042 1.168s0.015 0.795 0.042 1.169c0.402-0.030 0.805-0.044 1.208-0.044 0.409 0 0.811 0.014 1.208 0.043 0.027-0.374 0.042-0.765 0.042-1.168s-0.015-0.795-0.042-1.169c-0.402 0.030-0.805 0.044-1.208 0.044z"></path>
<path d="M17.008 3.691l-7.003-2.441-7.042 2.327c-1.029 0.396-1.713 1.299-1.713 2.396v8.125c0 1.087 0.678 2.012 1.745 2.344l7.003 2.377 7.013-2.316c0.987-0.329 1.74-1.305 1.74-2.343v-8.125c0-1.086-0.677-2.011-1.742-2.344zM2.5 5.972c0-0.525 0.312-0.993 0.899-1.224l6.596-2.178 6.634 2.312c0.553 0.17 0.871 0.618 0.871 1.153v8.125c0 0.462-0.371 0.985-0.884 1.157l-0.001 0-6.612 2.184-6.631-2.251c-0.553-0.17-0.871-0.618-0.871-1.153v-8.125z"></path>
</svg>
