<!-- Generated by IcoMoon.io -->
<svg version="1.1" xmlns="http://www.w3.org/2000/svg" width="32" height="32" viewBox="0 0 32 32">
<title>internet</title>
<path d="M6 16.056c0-5.523 4.477-10 10-10s10 4.477 10 10c0 5.523-4.477 10-10 10s-10-4.477-10-10zM8.543 13.153c-0.351 0.9-0.543 1.879-0.543 2.903s0.192 2.003 0.543 2.904c1.147-0.355 2.332-0.625 3.536-0.808-0.052-0.677-0.079-1.378-0.079-2.095 0-0.715 0.027-1.415 0.078-2.090-1.207-0.184-2.382-0.455-3.535-0.814zM9.524 20.753c0.925 1.274 2.218 2.264 3.721 2.816-0.114-0.265-0.219-0.544-0.315-0.833-0.254-0.762-0.463-1.639-0.618-2.597-0.949 0.147-1.882 0.352-2.788 0.615zM15.985 24.053l0.001 0.003h0.029l0.001-0.003c0.011-0.003 0.033-0.012 0.066-0.032 0.069-0.043 0.173-0.129 0.301-0.291 0.26-0.33 0.538-0.87 0.79-1.626 0.209-0.628 0.388-1.367 0.526-2.191-0.557-0.038-1.122-0.056-1.698-0.056-0.567 0-1.134 0.020-1.698 0.059 0.137 0.823 0.316 1.561 0.525 2.188 0.252 0.756 0.53 1.296 0.79 1.626 0.128 0.162 0.232 0.249 0.301 0.291 0.033 0.020 0.055 0.029 0.066 0.032zM19.070 22.736c-0.096 0.289-0.201 0.568-0.315 0.833 1.504-0.552 2.797-1.542 3.722-2.816-0.91-0.265-1.837-0.472-2.788-0.619-0.155 0.96-0.364 1.839-0.619 2.603zM23.457 18.959c0.351-0.9 0.543-1.879 0.543-2.903s-0.192-2.003-0.543-2.904c-1.147 0.356-2.332 0.625-3.535 0.808 0.052 0.677 0.079 1.378 0.079 2.095 0 0.715-0.027 1.415-0.078 2.089 1.207 0.184 2.382 0.455 3.535 0.814zM22.476 11.358c-0.925-1.274-2.218-2.264-3.721-2.815 0.114 0.265 0.219 0.544 0.315 0.833 0.254 0.763 0.463 1.639 0.618 2.597 0.949-0.148 1.882-0.352 2.788-0.615zM16.015 8.059l-0.001-0.003h-0.029l-0.001 0.003c-0.011 0.003-0.033 0.012-0.066 0.032-0.069 0.042-0.173 0.129-0.301 0.291-0.26 0.33-0.538 0.87-0.79 1.626-0.209 0.628-0.388 1.367-0.526 2.191 0.557 0.038 1.123 0.057 1.698 0.057 0.567 0 1.134-0.020 1.698-0.059-0.137-0.823-0.316-1.561-0.525-2.188-0.252-0.756-0.53-1.296-0.79-1.626-0.128-0.162-0.232-0.249-0.301-0.291-0.033-0.020-0.055-0.029-0.066-0.032zM12.93 9.376c0.096-0.289 0.201-0.568 0.315-0.833-1.504 0.552-2.796 1.542-3.722 2.816 0.91 0.265 1.837 0.472 2.788 0.62 0.155-0.96 0.364-1.839 0.619-2.603zM16 14.256c-0.655 0-1.298-0.023-1.933-0.068-0.044 0.599-0.067 1.224-0.067 1.868 0 0.645 0.024 1.271 0.068 1.871 0.643-0.047 1.288-0.071 1.932-0.071 0.654 0 1.298 0.023 1.933 0.068 0.044-0.599 0.067-1.224 0.067-1.868 0-0.645-0.023-1.271-0.067-1.871-0.643 0.047-1.288 0.071-1.933 0.071z"></path>
<path d="M27.213 5.906l-11.204-3.906-11.268 3.723c-1.647 0.633-2.741 2.079-2.741 3.833v13c0 1.739 1.085 3.22 2.791 3.751l11.204 3.803 11.22-3.706c1.578-0.526 2.784-2.087 2.784-3.749v-13c0-1.738-1.084-3.217-2.787-3.75zM4 9.556c0-0.84 0.499-1.589 1.438-1.959l10.553-3.485 10.615 3.7c0.886 0.272 1.394 0.989 1.394 1.844v13c0 0.738-0.594 1.576-1.415 1.851l-0.001 0-10.579 3.494-10.61-3.601c-0.886-0.273-1.394-0.989-1.394-1.844v-13z"></path>
</svg>
