<!-- Generated by IcoMoon.io -->
<svg version="1.1" xmlns="http://www.w3.org/2000/svg" width="20" height="20" viewBox="0 0 20 20">
<title>ios</title>
<path d="M1.384 14.234h1.062v-6.103h-1.062c0 0 0 0.205 0 0.616s0 0.919 0 1.526c0 0.606 0 1.213 0 1.819s0 1.115 0 1.526c0 0.411 0 0.616 0 0.616zM1.916 7.045c0.187 0 0.344-0.063 0.47-0.188 0.13-0.125 0.195-0.276 0.195-0.452 0-0.18-0.065-0.331-0.195-0.452-0.126-0.125-0.283-0.188-0.47-0.188-0.183 0-0.34 0.063-0.47 0.188-0.13 0.121-0.195 0.272-0.195 0.452 0 0.176 0.065 0.327 0.195 0.452s0.287 0.188 0.47 0.188z"></path>
<path d="M7.884 5.625c-1.25 0-2.239 0.393-2.967 1.18s-1.093 1.853-1.093 3.198c0 1.342 0.364 2.406 1.093 3.193s1.718 1.18 2.967 1.18c1.25 0 2.239-0.393 2.967-1.18s1.093-1.851 1.093-3.193c0-1.346-0.364-2.412-1.093-3.198s-1.718-1.18-2.967-1.18zM7.884 6.599c0.9 0 1.612 0.307 2.137 0.921 0.529 0.61 0.794 1.438 0.794 2.482 0 1.041-0.265 1.868-0.794 2.482-0.525 0.61-1.238 0.916-2.137 0.916s-1.614-0.305-2.143-0.916c-0.525-0.614-0.788-1.442-0.788-2.482 0-1.045 0.263-1.872 0.788-2.482 0.529-0.614 1.244-0.921 2.143-0.921z"></path>
<path d="M12.186 11.963c0.053 0.732 0.377 1.317 0.971 1.755 0.598 0.438 1.378 0.657 2.338 0.657 0.985 0 1.773-0.229 2.363-0.687 0.594-0.458 0.891-1.078 0.891-1.86 0-0.599-0.197-1.082-0.592-1.45s-1.052-0.647-1.972-0.839l-0.977-0.205c-0.602-0.125-1.032-0.303-1.288-0.534s-0.385-0.512-0.385-0.845c0-0.43 0.187-0.767 0.562-1.009 0.374-0.247 0.837-0.37 1.386-0.37 0.574 0 1.040 0.133 1.398 0.399s0.562 0.632 0.611 1.097h1.099c-0.024-0.72-0.324-1.307-0.898-1.761-0.574-0.458-1.301-0.687-2.18-0.687-0.912 0-1.659 0.221-2.241 0.663-0.578 0.442-0.867 1.013-0.867 1.714 0 0.602 0.199 1.097 0.598 1.485 0.403 0.387 1.046 0.673 1.929 0.857l0.977 0.205c0.611 0.129 1.048 0.313 1.313 0.552 0.265 0.235 0.397 0.53 0.397 0.886 0 0.415-0.195 0.759-0.586 1.033-0.387 0.27-0.879 0.405-1.478 0.405-0.631 0-1.152-0.129-1.563-0.387-0.407-0.262-0.643-0.62-0.708-1.074 0 0-0.055 0-0.165 0s-0.238 0-0.385 0c-0.147 0-0.275 0-0.385 0s-0.165 0-0.165 0z"></path>
</svg>
