<!-- Generated by IcoMoon.io -->
<svg version="1.1" xmlns="http://www.w3.org/2000/svg" width="20" height="20" viewBox="0 0 20 20">
<title>issue-delete</title>
<path d="M10 2.5c-4.155 0-7.5 3.345-7.5 7.5s3.345 7.5 7.5 7.5c0.345 0 0.625 0.28 0.625 0.625s-0.28 0.625-0.625 0.625c-4.845 0-8.75-3.905-8.75-8.75s3.905-8.75 8.75-8.75c4.845 0 8.75 3.905 8.75 8.75 0 0.345-0.28 0.625-0.625 0.625s-0.625-0.28-0.625-0.625c0-4.155-3.345-7.5-7.5-7.5z"></path>
<path d="M10 15.313c0.518 0 0.938-0.42 0.938-0.938s-0.42-0.938-0.938-0.938c-0.518 0-0.938 0.42-0.938 0.938s0.42 0.938 0.938 0.938z"></path>
<path d="M10.625 5c0-0.345-0.28-0.625-0.625-0.625s-0.625 0.28-0.625 0.625v6.25c0 0.345 0.28 0.625 0.625 0.625s0.625-0.28 0.625-0.625v-6.25z"></path>
<path d="M18.567 13.308c0.244 0.244 0.244 0.64 0 0.884l-1.746 1.746 1.746 1.746c0.244 0.244 0.244 0.64 0 0.884s-0.64 0.244-0.884 0l-1.746-1.746-1.746 1.746c-0.244 0.244-0.64 0.244-0.884 0s-0.244-0.64 0-0.884l1.746-1.746-1.746-1.746c-0.244-0.244-0.244-0.64 0-0.884s0.64-0.244 0.884 0l1.746 1.746 1.746-1.746c0.244-0.244 0.64-0.244 0.884 0z"></path>
</svg>
