<!-- Generated by IcoMoon.io -->
<svg version="1.1" xmlns="http://www.w3.org/2000/svg" width="32" height="32" viewBox="0 0 32 32">
<title>issue-recycle-ccw</title>
<path d="M25.907 6.118c-5.491-5.491-14.324-5.491-19.814 0l-1.093 1.093v-3.186c0-0.552-0.448-1-1-1s-1 0.448-1 1v6.6h0.986c0.009 0 0.019 0 0.028 0h5.586c0.552 0 1-0.448 1-1s-0.448-1-1-1h-3.186l1.093-1.093c4.71-4.709 12.276-4.709 16.986 0 2.304 2.304 3.507 5.446 3.507 8.493 0 0.552 0.448 1 1 1s1-0.448 1-1c0-3.553-1.397-7.211-4.093-9.907z"></path>
<path d="M17 8.025c0-0.552-0.448-1-1-1s-1 0.448-1 1v10c0 0.552 0.448 1 1 1s1-0.448 1-1v-10z"></path>
<path d="M17.5 23.025c0 0.828-0.672 1.5-1.5 1.5s-1.5-0.672-1.5-1.5c0-0.828 0.672-1.5 1.5-1.5s1.5 0.672 1.5 1.5z"></path>
<path d="M21.4 22.425c0-0.552 0.448-1 1-1h5.583c0.012-0 0.023-0 0.034 0h0.983v6.6c0 0.552-0.448 1-1 1s-1-0.448-1-1v-3.186l-1.093 1.093c-5.491 5.491-14.324 5.491-19.814 0-2.696-2.696-4.093-6.354-4.093-9.907 0-0.552 0.448-1 1-1s1 0.448 1 1c0 3.047 1.203 6.189 3.507 8.493 4.71 4.71 12.276 4.71 16.986 0l1.093-1.093h-3.186c-0.552 0-1-0.448-1-1z"></path>
</svg>
