<!-- Generated by IcoMoon.io -->
<svg version="1.1" xmlns="http://www.w3.org/2000/svg" width="20" height="20" viewBox="0 0 20 20">
<title>issue-ok</title>
<path d="M2.5 10c0-4.155 3.345-7.5 7.5-7.5s7.5 3.345 7.5 7.5c0 0.345 0.28 0.625 0.625 0.625s0.625-0.28 0.625-0.625c0-4.845-3.905-8.75-8.75-8.75s-8.75 3.905-8.75 8.75c0 4.845 3.905 8.75 8.75 8.75 0.345 0 0.625-0.28 0.625-0.625s-0.28-0.625-0.625-0.625c-4.155 0-7.5-3.345-7.5-7.5z"></path>
<path d="M10.938 14.375c0 0.518-0.42 0.938-0.938 0.938s-0.938-0.42-0.938-0.938c0-0.518 0.42-0.938 0.938-0.938s0.938 0.42 0.938 0.938z"></path>
<path d="M10 4.375c0.345 0 0.625 0.28 0.625 0.625v6.25c0 0.345-0.28 0.625-0.625 0.625s-0.625-0.28-0.625-0.625v-6.25c0-0.345 0.28-0.625 0.625-0.625z"></path>
<path d="M18.567 14.192c0.244-0.244 0.244-0.64 0-0.884s-0.64-0.244-0.884 0l-3.308 3.308-1.433-1.433c-0.244-0.244-0.64-0.244-0.884 0s-0.244 0.64 0 0.884l2.317 2.317 4.192-4.192z"></path>
</svg>
