<!-- Generated by IcoMoon.io -->
<svg version="1.1" xmlns="http://www.w3.org/2000/svg" width="32" height="32" viewBox="0 0 32 32">
<title>issue-delete</title>
<path d="M16 4c-6.648 0-12 5.352-12 12s5.352 12 12 12c0.552 0 1 0.448 1 1s-0.448 1-1 1c-7.752 0-14-6.248-14-14s6.248-14 14-14c7.752 0 14 6.248 14 14 0 0.552-0.448 1-1 1s-1-0.448-1-1c0-6.648-5.352-12-12-12z"></path>
<path d="M16 24.5c0.828 0 1.5-0.672 1.5-1.5s-0.672-1.5-1.5-1.5c-0.828 0-1.5 0.672-1.5 1.5s0.672 1.5 1.5 1.5z"></path>
<path d="M17 8c0-0.552-0.448-1-1-1s-1 0.448-1 1v10c0 0.552 0.448 1 1 1s1-0.448 1-1v-10z"></path>
<path d="M29.707 21.293c0.39 0.39 0.39 1.024 0 1.414l-2.793 2.793 2.793 2.793c0.39 0.39 0.39 1.024 0 1.414s-1.024 0.39-1.414 0l-2.793-2.793-2.793 2.793c-0.39 0.39-1.024 0.39-1.414 0s-0.39-1.024 0-1.414l2.793-2.793-2.793-2.793c-0.39-0.39-0.39-1.024 0-1.414s1.024-0.39 1.414 0l2.793 2.793 2.793-2.793c0.39-0.39 1.024-0.39 1.414 0z"></path>
</svg>
