<!-- Generated by IcoMoon.io -->
<svg version="1.1" xmlns="http://www.w3.org/2000/svg" width="20" height="20" viewBox="0 0 20 20">
<title>issue</title>
<path d="M10 15.313c0.518 0 0.938-0.42 0.938-0.938s-0.42-0.938-0.938-0.938c-0.518 0-0.938 0.42-0.938 0.938s0.42 0.938 0.938 0.938z"></path>
<path d="M10.625 5c0-0.345-0.28-0.625-0.625-0.625s-0.625 0.28-0.625 0.625v6.25c0 0.345 0.28 0.625 0.625 0.625s0.625-0.28 0.625-0.625v-6.25z"></path>
<path d="M1.25 10c0-4.832 3.918-8.75 8.75-8.75s8.75 3.918 8.75 8.75c0 4.832-3.918 8.75-8.75 8.75s-8.75-3.918-8.75-8.75zM10 2.5c-4.142 0-7.5 3.358-7.5 7.5s3.358 7.5 7.5 7.5c4.142 0 7.5-3.358 7.5-7.5s-3.358-7.5-7.5-7.5z"></path>
</svg>
