<!-- Generated by IcoMoon.io -->
<svg version="1.1" xmlns="http://www.w3.org/2000/svg" width="20" height="20" viewBox="0 0 20 20">
<title>issue-cycle-ccw</title>
<path d="M16.192 3.824c-3.432-3.432-8.952-3.432-12.384 0l-0.683 0.683v-1.991c0-0.345-0.28-0.625-0.625-0.625s-0.625 0.28-0.625 0.625v4.125h4.125c0.345 0 0.625-0.28 0.625-0.625s-0.28-0.625-0.625-0.625h-1.991l0.683-0.683c2.943-2.943 7.673-2.943 10.616 0s2.943 7.673 0 10.616c-2.943 2.943-7.673 2.943-10.616 0-1.559-1.559-2.308-3.635-2.193-5.711 0.019-0.345-0.245-0.64-0.589-0.659s-0.64 0.245-0.659 0.589c-0.135 2.424 0.741 4.848 2.557 6.664 3.432 3.432 8.952 3.432 12.384 0s3.432-8.952 0-12.384z"></path>
<path d="M10.625 5.016c0-0.345-0.28-0.625-0.625-0.625s-0.625 0.28-0.625 0.625v6.25c0 0.345 0.28 0.625 0.625 0.625s0.625-0.28 0.625-0.625v-6.25z"></path>
<path d="M10.938 14.391c0 0.518-0.42 0.938-0.938 0.938s-0.938-0.42-0.938-0.938c0-0.518 0.42-0.938 0.938-0.938s0.938 0.42 0.938 0.938z"></path>
</svg>
