<!-- Generated by IcoMoon.io -->
<svg version="1.1" xmlns="http://www.w3.org/2000/svg" width="20" height="20" viewBox="0 0 20 20">
<title>javascript</title>
<path d="M14.875 17.556h-0.206c-0.599 0-1.188-0.162-1.702-0.471s-0.935-0.751-1.217-1.279l1.375-0.85c0.154 0.312 0.392 0.574 0.686 0.758s0.635 0.283 0.982 0.285c0.719 0 1.169-0.356 1.169-0.844s-0.462-0.806-1.25-1.15l-0.425-0.188c-1.25-0.519-2.025-1.162-2.025-2.581-0.001-0.301 0.058-0.6 0.172-0.878s0.283-0.532 0.495-0.746c0.212-0.214 0.465-0.383 0.743-0.499s0.576-0.176 0.877-0.177h0.45c0.465 0 0.922 0.128 1.319 0.369s0.722 0.587 0.937 1l-1.375 0.881c-0.084-0.223-0.235-0.415-0.431-0.551s-0.43-0.207-0.669-0.206h-0.069c-0.202 0-0.396 0.080-0.539 0.223s-0.223 0.337-0.223 0.539c0 0.519 0.319 0.725 1.056 1.050l0.425 0.181c1.456 0.625 2.294 1.25 2.294 2.706s-1.25 2.4-2.85 2.4v0.025zM10.819 14.956c0 0.081 0 0.169 0 0.262 0.001 0.308-0.059 0.613-0.176 0.897s-0.289 0.544-0.506 0.762c-0.217 0.218-0.475 0.392-0.759 0.51s-0.589 0.18-0.896 0.181h-0.356c-0.513 0.001-1.014-0.147-1.445-0.424s-0.773-0.672-0.986-1.139l1.4-0.85c0.269 0.481 0.513 0.887 1.1 0.887s0.925-0.219 0.925-1.081v-5.906h1.719l-0.019 5.9zM16.444 0.638h-12.9c-0.357 0.001-0.71 0.072-1.040 0.209s-0.629 0.338-0.881 0.591c-0.252 0.253-0.451 0.553-0.587 0.883s-0.205 0.684-0.205 1.041v12.887c-0.001 0.357 0.069 0.711 0.205 1.041s0.335 0.63 0.587 0.883c0.252 0.253 0.551 0.454 0.881 0.591s0.683 0.208 1.040 0.209h12.912c0.357-0.001 0.71-0.072 1.040-0.209s0.629-0.338 0.881-0.591c0.252-0.253 0.451-0.553 0.587-0.883s0.205-0.684 0.205-1.041v-12.887c0.001-0.357-0.069-0.711-0.205-1.041s-0.335-0.63-0.587-0.883c-0.252-0.253-0.551-0.454-0.881-0.591s-0.683-0.209-1.040-0.209h-0.012z"></path>
</svg>
