<!-- Generated by IcoMoon.io -->
<svg version="1.1" xmlns="http://www.w3.org/2000/svg" width="20" height="20" viewBox="0 0 20 20">
<title>key-alt</title>
<path d="M6.25 11.25c-1.381 0-2.5 1.119-2.5 2.5s1.119 2.5 2.5 2.5c1.381 0 2.5-1.119 2.5-2.5s-1.119-2.5-2.5-2.5zM5 13.75c0-0.69 0.56-1.25 1.25-1.25s1.25 0.56 1.25 1.25c0 0.69-0.56 1.25-1.25 1.25s-1.25-0.56-1.25-1.25z"></path>
<path d="M18.75 1.25h-4.634l-5.166 5.166c-0.481-0.125-0.979-0.166-1.451-0.166-3.47 0-6.25 2.78-6.25 6.25s2.78 6.25 6.25 6.25c3.47 0 6.25-2.78 6.25-6.25 0-0.441-0.046-0.858-0.125-1.25h0.75v-2.5h2.5v-2.5h1.875v-5zM13.125 7.5v2.5h-1.18l0.274 0.823c0.17 0.509 0.28 1.067 0.28 1.677 0 2.78-2.22 5-5 5s-5-2.22-5-5c0-2.78 2.22-5 5-5 0.523 0 1.002 0.059 1.406 0.21l0.377 0.141 5.352-5.352h2.866v2.5h-1.875v2.5h-2.5z"></path>
</svg>
