<!-- Generated by IcoMoon.io -->
<svg version="1.1" xmlns="http://www.w3.org/2000/svg" width="20" height="20" viewBox="0 0 20 20">
<title>key-command</title>
<path d="M7.5 6.25h5v-1.875c0-1.72 1.405-3.125 3.125-3.125s3.125 1.405 3.125 3.125c0 1.72-1.405 3.125-3.125 3.125h-1.875v5h1.875c1.72 0 3.125 1.405 3.125 3.125s-1.405 3.125-3.125 3.125c-1.72 0-3.125-1.405-3.125-3.125v-1.875h-5v1.875c0 1.72-1.405 3.125-3.125 3.125s-3.125-1.405-3.125-3.125c0-1.72 1.405-3.125 3.125-3.125h1.875v-5h-1.875c-1.72 0-3.125-1.405-3.125-3.125s1.405-3.125 3.125-3.125c1.72 0 3.125 1.405 3.125 3.125v1.875zM4.375 2.5c-1.030 0-1.875 0.845-1.875 1.875s0.845 1.875 1.875 1.875h1.875v-1.875c0-1.030-0.845-1.875-1.875-1.875zM7.5 7.5v5h5v-5h-5zM13.75 6.25h1.875c1.030 0 1.875-0.845 1.875-1.875s-0.845-1.875-1.875-1.875c-1.030 0-1.875 0.845-1.875 1.875v1.875zM13.75 13.75v1.875c0 1.030 0.845 1.875 1.875 1.875s1.875-0.845 1.875-1.875c0-1.030-0.845-1.875-1.875-1.875h-1.875zM6.25 13.75h-1.875c-1.030 0-1.875 0.845-1.875 1.875s0.845 1.875 1.875 1.875c1.030 0 1.875-0.845 1.875-1.875v-1.875z"></path>
</svg>
