<!-- Generated by IcoMoon.io -->
<svg version="1.1" xmlns="http://www.w3.org/2000/svg" width="32" height="32" viewBox="0 0 32 32">
<title>key-command</title>
<path d="M12 10h8v-3c0-2.752 2.248-5 5-5s5 2.248 5 5c0 2.752-2.248 5-5 5h-3v8h3c2.752 0 5 2.248 5 5s-2.248 5-5 5c-2.752 0-5-2.248-5-5v-3h-8v3c0 2.752-2.248 5-5 5s-5-2.248-5-5c0-2.752 2.248-5 5-5h3v-8h-3c-2.752 0-5-2.248-5-5s2.248-5 5-5c2.752 0 5 2.248 5 5v3zM7 4c-1.648 0-3 1.352-3 3s1.352 3 3 3h3v-3c0-1.648-1.352-3-3-3zM12 12v8h8v-8h-8zM22 10h3c1.648 0 3-1.352 3-3s-1.352-3-3-3c-1.648 0-3 1.352-3 3v3zM22 22v3c0 1.648 1.352 3 3 3s3-1.352 3-3c0-1.648-1.352-3-3-3h-3zM10 22h-3c-1.648 0-3 1.352-3 3s1.352 3 3 3c1.648 0 3-1.352 3-3v-3z"></path>
</svg>
