<!-- Generated by IcoMoon.io -->
<svg version="1.1" xmlns="http://www.w3.org/2000/svg" width="20" height="20" viewBox="0 0 20 20">
<title>key</title>
<path d="M6.563 14.375c0 0.518-0.42 0.938-0.938 0.938s-0.938-0.42-0.938-0.938c0-0.518 0.42-0.938 0.938-0.938s0.938 0.42 0.938 0.938z"></path>
<path d="M18.125 1.875h-2.759l-6.109 6.109c-0.738-0.34-1.525-0.484-2.382-0.484-3.095 0-5.625 2.53-5.625 5.625s2.53 5.625 5.625 5.625c3.095 0 5.625-2.53 5.625-5.625 0-0.694-0.141-1.331-0.337-1.904l1.221-1.221h0.991v-1.25h1.25v-1.25h1.25v-1.25h0.259l0.991-0.991v-3.384zM16.875 4.741l-0.259 0.259h-0.991v1.25h-1.25v1.25h-1.25v1.25h-0.259l-2.162 2.162 0.153 0.383c0.232 0.58 0.393 1.186 0.393 1.83 0 2.405-1.97 4.375-4.375 4.375s-4.375-1.97-4.375-4.375c0-2.405 1.97-4.375 4.375-4.375 0.848 0 1.547 0.168 2.185 0.54l0.416 0.243 6.408-6.408h0.991v1.616z"></path>
</svg>
