<!-- Generated by IcoMoon.io -->
<svg version="1.1" xmlns="http://www.w3.org/2000/svg" width="20" height="20" viewBox="0 0 20 20">
<title>keyboard-alt</title>
<path d="M16.25 1.25c1.408 0 2.5 1.092 2.5 2.5v12.5c0 1.408-1.092 2.5-2.5 2.5h-12.5c-1.408 0-2.5-1.092-2.5-2.5v-12.5c0-1.408 1.092-2.5 2.5-2.5h12.5zM3.75 2.5c-0.717 0-1.25 0.533-1.25 1.25v12.5c0 0.717 0.533 1.25 1.25 1.25h2.5v-6.875h-1.25v-8.125h-1.25zM12.5 10.625h-1.25v-8.125h-2.5v8.125h-1.25v6.875h5v-6.875zM13.75 17.5h2.5c0.717 0 1.25-0.533 1.25-1.25v-12.5c0-0.717-0.533-1.25-1.25-1.25h-1.25v8.125h-1.25v6.875z"></path>
</svg>
