<!-- Generated by IcoMoon.io -->
<svg version="1.1" xmlns="http://www.w3.org/2000/svg" width="20" height="20" viewBox="0 0 20 20">
<title>keyboard</title>
<path d="M7.5 13.75c-0.345 0-0.625 0.28-0.625 0.625s0.28 0.625 0.625 0.625h4.375c0.345 0 0.625-0.28 0.625-0.625s-0.28-0.625-0.625-0.625h-4.375z"></path>
<path d="M3.75 14.375c0-0.345 0.28-0.625 0.625-0.625h0.625c0.345 0 0.625 0.28 0.625 0.625s-0.28 0.625-0.625 0.625h-0.625c-0.345 0-0.625-0.28-0.625-0.625z"></path>
<path d="M4.375 8.75c-0.345 0-0.625 0.28-0.625 0.625s0.28 0.625 0.625 0.625h0.625c0.345 0 0.625-0.28 0.625-0.625s-0.28-0.625-0.625-0.625h-0.625z"></path>
<path d="M6.875 9.375c0-0.345 0.28-0.625 0.625-0.625h0.625c0.345 0 0.625 0.28 0.625 0.625s-0.28 0.625-0.625 0.625h-0.625c-0.345 0-0.625-0.28-0.625-0.625z"></path>
<path d="M8.75 11.25c-0.345 0-0.625 0.28-0.625 0.625s0.28 0.625 0.625 0.625h0.625c0.345 0 0.625-0.28 0.625-0.625s-0.28-0.625-0.625-0.625h-0.625z"></path>
<path d="M11.25 11.875c0-0.345 0.28-0.625 0.625-0.625h0.625c0.345 0 0.625 0.28 0.625 0.625s-0.28 0.625-0.625 0.625h-0.625c-0.345 0-0.625-0.28-0.625-0.625z"></path>
<path d="M15 11.25c-0.345 0-0.625 0.28-0.625 0.625s0.28 0.625 0.625 0.625h0.625c0.345 0 0.625-0.28 0.625-0.625s-0.28-0.625-0.625-0.625h-0.625z"></path>
<path d="M10 9.375c0-0.345 0.28-0.625 0.625-0.625h0.625c0.345 0 0.625 0.28 0.625 0.625s-0.28 0.625-0.625 0.625h-0.625c-0.345 0-0.625-0.28-0.625-0.625z"></path>
<path d="M13.75 8.75c-0.345 0-0.625 0.28-0.625 0.625s0.28 0.625 0.625 0.625h1.875c0.345 0 0.625-0.28 0.625-0.625s-0.28-0.625-0.625-0.625h-1.875z"></path>
<path d="M3.75 11.875c0-0.345 0.28-0.625 0.625-0.625h1.875c0.345 0 0.625 0.28 0.625 0.625s-0.28 0.625-0.625 0.625h-1.875c-0.345 0-0.625-0.28-0.625-0.625z"></path>
<path d="M14.375 13.75c-0.345 0-0.625 0.28-0.625 0.625s0.28 0.625 0.625 0.625h1.25c0.345 0 0.625-0.28 0.625-0.625s-0.28-0.625-0.625-0.625h-1.25z"></path>
<path d="M11.875 3.75h0.625c0.345 0 0.625-0.28 0.625-0.625s-0.28-0.625-0.625-0.625h-0.625c-1.408 0-2.5 1.092-2.5 2.5v1.25h-5.625c-1.408 0-2.5 1.092-2.5 2.5v6.25c0 1.408 1.092 2.5 2.5 2.5h12.5c1.408 0 2.5-1.092 2.5-2.5v-6.25c0-1.408-1.092-2.5-2.5-2.5h-5.625v-1.25c0-0.717 0.533-1.25 1.25-1.25zM3.75 7.5h12.5c0.717 0 1.25 0.533 1.25 1.25v6.25c0 0.717-0.533 1.25-1.25 1.25h-12.5c-0.717 0-1.25-0.533-1.25-1.25v-6.25c0-0.717 0.533-1.25 1.25-1.25z"></path>
</svg>
