<!-- Generated by IcoMoon.io -->
<svg version="1.1" xmlns="http://www.w3.org/2000/svg" width="32" height="32" viewBox="0 0 32 32">
<title>keynote</title>
<path d="M8 8c0-0.552 0.448-1 1-1h6c0.552 0 1 0.448 1 1v6c0 0.552-0.448 1-1 1h-6c-0.552 0-1-0.448-1-1v-6zM10 9v4h4v-4h-4z"></path>
<path d="M19 8c-0.552 0-1 0.448-1 1s0.448 1 1 1h4c0.552 0 1-0.448 1-1s-0.448-1-1-1h-4z"></path>
<path d="M18 13c0-0.552 0.448-1 1-1h4c0.552 0 1 0.448 1 1s-0.448 1-1 1h-4c-0.552 0-1-0.448-1-1z"></path>
<path d="M9 17c-0.552 0-1 0.448-1 1s0.448 1 1 1h14c0.552 0 1-0.448 1-1s-0.448-1-1-1h-14z"></path>
<path d="M3 3h26c0.552 0 1 0.448 1 1s-0.448 1-1 1h-1v18h-11v4h5c0.552 0 1 0.448 1 1s-0.448 1-1 1h-12c-0.552 0-1-0.448-1-1s0.448-1 1-1h5v-4h-11v-18h-1c-0.552 0-1-0.448-1-1s0.448-1 1-1zM26 21v-16h-20v16h20z"></path>
</svg>
