<!-- Generated by IcoMoon.io -->
<svg version="1.1" xmlns="http://www.w3.org/2000/svg" width="20" height="20" viewBox="0 0 20 20">
<title>keynote</title>
<path d="M5 5c0-0.345 0.28-0.625 0.625-0.625h3.75c0.345 0 0.625 0.28 0.625 0.625v3.75c0 0.345-0.28 0.625-0.625 0.625h-3.75c-0.345 0-0.625-0.28-0.625-0.625v-3.75zM6.25 5.625v2.5h2.5v-2.5h-2.5z"></path>
<path d="M11.875 5c-0.345 0-0.625 0.28-0.625 0.625s0.28 0.625 0.625 0.625h2.5c0.345 0 0.625-0.28 0.625-0.625s-0.28-0.625-0.625-0.625h-2.5z"></path>
<path d="M11.25 8.125c0-0.345 0.28-0.625 0.625-0.625h2.5c0.345 0 0.625 0.28 0.625 0.625s-0.28 0.625-0.625 0.625h-2.5c-0.345 0-0.625-0.28-0.625-0.625z"></path>
<path d="M5.625 10.625c-0.345 0-0.625 0.28-0.625 0.625s0.28 0.625 0.625 0.625h8.75c0.345 0 0.625-0.28 0.625-0.625s-0.28-0.625-0.625-0.625h-8.75z"></path>
<path d="M1.875 1.875h16.25c0.345 0 0.625 0.28 0.625 0.625s-0.28 0.625-0.625 0.625h-0.625v11.25h-6.875v2.5h3.125c0.345 0 0.625 0.28 0.625 0.625s-0.28 0.625-0.625 0.625h-7.5c-0.345 0-0.625-0.28-0.625-0.625s0.28-0.625 0.625-0.625h3.125v-2.5h-6.875v-11.25h-0.625c-0.345 0-0.625-0.28-0.625-0.625s0.28-0.625 0.625-0.625zM16.25 13.125v-10h-12.5v10h12.5z"></path>
</svg>
