<!-- Generated by IcoMoon.io -->
<svg version="1.1" xmlns="http://www.w3.org/2000/svg" width="32" height="32" viewBox="0 0 32 32">
<title>kubernetes</title>
<path d="M18.44 18.29c-0.099 0.040-0.183 0.11-0.242 0.199s-0.090 0.194-0.088 0.301c-0.004 0.047-0.004 0.093 0 0.14l1.31 3.15c0.807-0.509 1.491-1.193 2-2 0.241-0.373 0.433-0.777 0.57-1.2l-3.34-0.57c-0.108 0.005-0.213 0.032-0.31 0.080l0.1-0.1zM21.44 13.15l-2.44 2.28c-0.064 0.063-0.109 0.143-0.13 0.23-0.006 0.046-0.006 0.094 0 0.14 0.003 0.122 0.045 0.24 0.121 0.336s0.181 0.164 0.299 0.194l3.19 0.9c0.069-0.72 0.019-1.447-0.15-2.15-0.158-0.708-0.435-1.385-0.82-2l-0.070 0.070zM16.12 19.69c-0.078-0.049-0.168-0.073-0.26-0.070-0.079 0.001-0.157 0.019-0.228 0.054s-0.133 0.085-0.182 0.146l-1.64 3c0.648 0.206 1.321 0.32 2 0.34 0.502-0.006 1.002-0.070 1.49-0.19h-0.050l0.6-0.13-1.61-2.92c-0.062-0.084-0.132-0.161-0.21-0.23h0.090zM14.35 13.96h0.060c0.144 0 0.283-0.056 0.385-0.158s0.162-0.238 0.165-0.383l0.17-3.36-0.67 0.14c-1.166 0.28-2.234 0.871-3.090 1.71l2.78 2c0.059 0.037 0.123 0.064 0.19 0.080l0.010-0.030zM17 13.69c0.052 0.068 0.118 0.123 0.195 0.161s0.16 0.058 0.245 0.059c0.104-0.001 0.204-0.032 0.29-0.090l2.75-1.94c-1.011-1.017-2.343-1.653-3.77-1.8l0.2 3.38c-0.004 0.043 0.002 0.086 0.017 0.126s0.041 0.076 0.073 0.104zM15 17.28l0.9 0.44 0.9-0.44 0.24-1-0.64-0.81h-1l-0.64 0.81 0.24 1zM13.050 18.21l-3.32 0.54c0.481 1.333 1.374 2.479 2.55 3.27l1.27-3.090c0.033-0.050 0.051-0.11 0.051-0.17s-0.018-0.119-0.051-0.17c-0.027-0.117-0.094-0.222-0.188-0.296s-0.212-0.115-0.332-0.114l0.020 0.030zM12.88 16.1c0.073-0.087 0.116-0.196 0.12-0.31-0.001-0.080-0.019-0.16-0.053-0.232s-0.085-0.137-0.147-0.188l-2.48-2.22c-0.655 1.090-1.001 2.338-1 3.61 0 0.18 0 0.36 0 0.54l3.25-0.94c0.058-0.012 0.113-0.037 0.159-0.074s0.085-0.083 0.111-0.136l0.040-0.050zM26.42 19.49h-0.36c-0.131-0.038-0.256-0.096-0.37-0.17-0.074-0.010-0.145-0.033-0.21-0.070-0.325-0.127-0.659-0.227-1-0.3h-0.050c-0.049-0-0.097 0.010-0.141 0.029s-0.085 0.047-0.119 0.081h-0.27c-0.607 1.895-1.879 3.507-3.58 4.54l0.11 0.27c-0.010 0.056-0.010 0.114 0 0.17-0.010 0.053-0.010 0.107 0 0.16 0.129 0.359 0.311 0.696 0.54 1v0.060c0.057 0.051 0.105 0.112 0.14 0.18 0.093 0.094 0.171 0.202 0.23 0.32 0 0 0.080 0.070 0.080 0.1 0.011 0.083 0.011 0.167 0 0.25 0.015 0.086 0.015 0.174 0 0.26-0.023 0.079-0.061 0.152-0.112 0.215s-0.115 0.116-0.188 0.154c-0.087 0.032-0.178 0.052-0.27 0.060-0.132-0.005-0.261-0.045-0.373-0.115s-0.204-0.168-0.267-0.285c0-0.023-0.006-0.046-0.019-0.065s-0.030-0.035-0.051-0.045c-0.066-0.11-0.11-0.233-0.13-0.36l-0.070-0.19c-0.11-0.369-0.261-0.725-0.45-1.060-0.059-0.098-0.151-0.173-0.26-0.21l-0.13-0.24c-0.326 0.121-0.66 0.218-1 0.29h-0.060c-0.566 0.16-1.152 0.241-1.74 0.24h-0.14c-0.997-0-1.984-0.19-2.91-0.56h0.060l-0.14 0.27c-0.109 0.037-0.201 0.112-0.26 0.21-0.181 0.317-0.328 0.652-0.44 1l-0.060 0.19c0 0.14-0.1 0.24-0.13 0.37s-0.070 0.080-0.070 0.11c-0.064 0.115-0.156 0.213-0.268 0.283s-0.24 0.11-0.372 0.117c-0.079-0.008-0.157-0.028-0.23-0.060-0.105-0.058-0.193-0.144-0.255-0.248s-0.094-0.222-0.095-0.342c-0.001-0.112 0.027-0.222 0.080-0.32 0.001-0.020 0.007-0.040 0.017-0.058s0.025-0.032 0.043-0.042c0.070 0 0.18-0.27 0.24-0.34 0.057-0.041 0.101-0.096 0.13-0.16 0.219-0.309 0.397-0.645 0.53-1 0.011-0.053 0.011-0.107 0-0.16 0.010-0.056 0.010-0.114 0-0.17l0.17-0.23c-0.33-0.17-0.639-0.378-0.92-0.62-1.276-0.987-2.229-2.33-2.74-3.86v-0.060h-0.3c-0.072-0.063-0.164-0.099-0.26-0.1h0.020c-0.39 0.062-0.772 0.166-1.14 0.31-0.075 0.002-0.149 0.026-0.21 0.070l-0.37 0.13h-0.34c-0.137 0-0.27-0.045-0.378-0.128s-0.186-0.2-0.222-0.332c-0.005-0.043-0.005-0.087 0-0.13 0-0.153 0.054-0.301 0.153-0.419s0.236-0.196 0.387-0.221h0.81c0.402-0.039 0.8-0.112 1.19-0.22-0.005-0.087-0.032-0.172-0.077-0.247s-0.108-0.138-0.183-0.183l0.22 0.080c-0.066-0.4-0.099-0.805-0.1-1.21-0.008-1.535 0.43-3.039 1.26-4.33 0-0.070 0.060-0.1 0.090-0.16l-0.19-0.21c0.001-0.046-0.008-0.091-0.027-0.133s-0.047-0.078-0.083-0.107c-0.278-0.254-0.583-0.475-0.91-0.66l-0.21-0.11c-0.115-0.062-0.225-0.132-0.33-0.21l-0.1-0.080c-0.082-0.071-0.147-0.161-0.189-0.262s-0.059-0.21-0.051-0.318c-0.001-0.141 0.037-0.279 0.11-0.4 0.045-0.074 0.108-0.135 0.183-0.177s0.16-0.064 0.247-0.063c0.168 0.014 0.327 0.077 0.46 0.18 0.021 0.002 0.042 0.009 0.060 0.021s0.032 0.029 0.040 0.049l0.27 0.3c0.051 0.035 0.095 0.079 0.13 0.13 0.251 0.276 0.525 0.531 0.82 0.76 0.058 0.042 0.128 0.067 0.2 0.070h0.14l0.19 0.14c1.114-1.183 2.561-2 4.15-2.34 0.4-0.070 0.77-0.14 1.13-0.17v-0.38c0.080-0.067 0.136-0.158 0.16-0.26 0.006-0.067 0.006-0.133 0-0.2 0.001-0.335-0.026-0.669-0.080-1 0.005-0.033 0.005-0.067 0-0.1 0.004-0.033 0.004-0.067 0-0.1-0.030-0.135-0.050-0.272-0.060-0.41v-0.14c0.015-0.086 0.048-0.167 0.096-0.239s0.111-0.134 0.184-0.181c0.064-0.091 0.149-0.164 0.249-0.213s0.21-0.072 0.321-0.067c0.159 0.022 0.305 0.101 0.41 0.222s0.162 0.277 0.16 0.438v0.2c0.011 0.14-0.013 0.281-0.070 0.41-0.070 0.13 0 0.13 0 0.19-0.052 0.331-0.076 0.665-0.070 1v0.18c0.026 0.106 0.085 0.201 0.17 0.27v0.27c1.603 0.154 3.129 0.761 4.4 1.75l0.84 0.81 0.27-0.17h0.13c0.069-0.009 0.137-0.030 0.2-0.060 0.305-0.217 0.586-0.465 0.84-0.74 0.051-0.039 0.095-0.086 0.13-0.14 0.076-0.109 0.163-0.21 0.26-0.3 0.021-0.002 0.042-0.009 0.060-0.021s0.032-0.029 0.040-0.049c0.13-0.106 0.293-0.163 0.46-0.16 0.164 0.010 0.317 0.082 0.431 0.2s0.177 0.276 0.179 0.44c-0 0.103-0.025 0.205-0.072 0.297s-0.115 0.172-0.198 0.233v0.060c0 0.060-0.070 0-0.1 0.070l-0.57 0.3c-0.354 0.194-0.689 0.422-1 0.68-0.061 0.088-0.092 0.193-0.090 0.3l-0.21 0.2c0.541 0.828 0.94 1.74 1.18 2.7v0.070c0.19 0.711 0.284 1.444 0.28 2.18 0 0.3 0 0.6 0 0.9l0.27 0.070c0.047 0.107 0.133 0.193 0.24 0.24 0.365 0.088 0.736 0.151 1.11 0.19h0.43c0.070-0.010 0.14-0.010 0.21 0h0.2c0.16 0.042 0.304 0.133 0.41 0.26s0.169 0.285 0.18 0.45c-0.030 0.148-0.108 0.282-0.222 0.381s-0.257 0.159-0.408 0.169l-0.060-0.11zM30.62 18.75l-2.55-11c-0.161-0.527-0.52-0.971-1-1.24l-10.28-4.82c-0.248-0.112-0.518-0.17-0.79-0.17h-0.16c-0.242-0.002-0.483 0.021-0.72 0.070l-10.23 4.93c-0.25 0.112-0.471 0.28-0.644 0.492s-0.295 0.461-0.356 0.728l-2.5 11c-0.010 0.116-0.010 0.234 0 0.35-0.004 0.456 0.14 0.902 0.41 1.27l7 8.75c0.413 0.404 0.954 0.652 1.53 0.7h11.52c0.266 0.001 0.528-0.064 0.763-0.187s0.437-0.303 0.587-0.523l7.080-8.75c0.245-0.375 0.377-0.812 0.38-1.26 0.015-0.123 0.015-0.247 0-0.37l-0.040 0.030z"></path>
</svg>
