<!-- Generated by IcoMoon.io -->
<svg version="1.1" xmlns="http://www.w3.org/2000/svg" width="20" height="20" viewBox="0 0 20 20">
<title>kubernetes</title>
<path d="M11.525 11.431c-0.062 0.025-0.115 0.069-0.152 0.124s-0.056 0.121-0.055 0.188c-0.003 0.029-0.003 0.058 0 0.088l0.819 1.969c0.505-0.318 0.932-0.745 1.25-1.25 0.151-0.233 0.271-0.486 0.356-0.75l-2.088-0.356c-0.067 0.003-0.133 0.020-0.194 0.050l0.063-0.063zM13.4 8.219l-1.525 1.425c-0.040 0.039-0.068 0.089-0.081 0.144-0.003 0.029-0.003 0.058 0 0.088 0.002 0.076 0.028 0.15 0.076 0.21s0.113 0.102 0.187 0.122l1.994 0.563c0.043-0.45 0.012-0.904-0.094-1.344-0.098-0.443-0.272-0.866-0.512-1.25l-0.044 0.044zM10.075 12.306c-0.049-0.030-0.105-0.046-0.162-0.044-0.049 0-0.098 0.012-0.142 0.033s-0.083 0.053-0.114 0.092l-1.025 1.875c0.405 0.128 0.826 0.2 1.25 0.213 0.314-0.004 0.626-0.044 0.931-0.119h-0.031l0.375-0.081-1.006-1.825c-0.039-0.052-0.083-0.101-0.131-0.144h0.056zM8.969 8.725h0.037c0.090 0 0.177-0.035 0.241-0.098s0.101-0.149 0.103-0.239l0.106-2.1-0.419 0.088c-0.729 0.175-1.396 0.544-1.931 1.069l1.737 1.25c0.037 0.023 0.077 0.040 0.119 0.050l0.006-0.019zM10.625 8.556c0.032 0.042 0.074 0.077 0.122 0.101s0.1 0.037 0.153 0.037c0.065-0 0.128-0.020 0.181-0.056l1.719-1.212c-0.632-0.636-1.464-1.033-2.356-1.125l0.125 2.113c-0.003 0.027 0.001 0.054 0.011 0.079s0.025 0.047 0.046 0.065zM9.375 10.8l0.563 0.275 0.563-0.275 0.15-0.625-0.4-0.506h-0.625l-0.4 0.506 0.15 0.625zM8.156 11.381l-2.075 0.337c0.301 0.833 0.859 1.549 1.594 2.044l0.794-1.931c0.021-0.032 0.032-0.068 0.032-0.106s-0.011-0.075-0.032-0.106c-0.017-0.073-0.058-0.139-0.118-0.185s-0.132-0.072-0.207-0.071l0.012 0.019zM8.050 10.063c0.046-0.054 0.072-0.123 0.075-0.194-0-0.050-0.012-0.1-0.033-0.145s-0.053-0.085-0.092-0.117l-1.55-1.388c-0.409 0.681-0.626 1.461-0.625 2.256 0 0.112 0 0.225 0 0.337l2.031-0.588c0.036-0.008 0.070-0.023 0.099-0.046s0.053-0.052 0.069-0.085l0.025-0.031zM16.513 12.181h-0.225c-0.082-0.024-0.16-0.060-0.231-0.106-0.046-0.006-0.091-0.021-0.131-0.044-0.203-0.079-0.412-0.142-0.625-0.188h-0.031c-0.030-0-0.060 0.006-0.088 0.018s-0.053 0.029-0.074 0.051h-0.169c-0.38 1.184-1.174 2.192-2.238 2.837l0.069 0.169c-0.006 0.035-0.006 0.071 0 0.106-0.006 0.033-0.006 0.067 0 0.1 0.080 0.224 0.194 0.435 0.337 0.625v0.037c0.036 0.032 0.066 0.070 0.088 0.113 0.058 0.059 0.107 0.126 0.144 0.2 0 0 0.050 0.044 0.050 0.063 0.007 0.052 0.007 0.104 0 0.156 0.009 0.054 0.009 0.109 0 0.163-0.014 0.049-0.038 0.095-0.070 0.135s-0.072 0.073-0.117 0.097c-0.054 0.020-0.111 0.032-0.169 0.037-0.083-0.003-0.163-0.028-0.233-0.072s-0.128-0.105-0.167-0.178c0-0.014-0.004-0.029-0.012-0.041s-0.019-0.022-0.032-0.028c-0.041-0.069-0.069-0.145-0.081-0.225l-0.044-0.119c-0.069-0.231-0.163-0.453-0.281-0.662-0.037-0.061-0.095-0.108-0.163-0.131l-0.081-0.15c-0.204 0.076-0.412 0.136-0.625 0.181h-0.037c-0.354 0.1-0.72 0.151-1.087 0.15h-0.088c-0.623-0-1.24-0.119-1.819-0.35h0.037l-0.088 0.169c-0.068 0.023-0.125 0.070-0.162 0.131-0.113 0.198-0.205 0.408-0.275 0.625l-0.038 0.119c0 0.088-0.062 0.15-0.081 0.231s-0.044 0.050-0.044 0.069c-0.040 0.072-0.098 0.133-0.168 0.177s-0.15 0.069-0.232 0.073c-0.050-0.005-0.098-0.018-0.144-0.038-0.066-0.037-0.121-0.090-0.159-0.155s-0.059-0.139-0.059-0.214c-0.001-0.070 0.017-0.139 0.050-0.2 0-0.013 0.004-0.025 0.011-0.036s0.016-0.020 0.027-0.026c0.044 0 0.112-0.169 0.15-0.213 0.035-0.026 0.063-0.060 0.081-0.1 0.137-0.193 0.248-0.403 0.331-0.625 0.007-0.033 0.007-0.067 0-0.1 0.006-0.035 0.006-0.071 0-0.106l0.106-0.144c-0.206-0.106-0.399-0.236-0.575-0.388-0.797-0.617-1.393-1.456-1.713-2.412v-0.037h-0.188c-0.045-0.040-0.103-0.062-0.162-0.063h0.013c-0.244 0.038-0.483 0.103-0.713 0.194-0.047 0.001-0.093 0.017-0.131 0.044l-0.231 0.081h-0.212c-0.085 0-0.169-0.028-0.236-0.080s-0.117-0.125-0.139-0.208c-0.003-0.027-0.003-0.054 0-0.081 0-0.096 0.034-0.188 0.096-0.262s0.147-0.122 0.242-0.138h0.506c0.251-0.024 0.5-0.070 0.744-0.137-0.003-0.055-0.020-0.108-0.048-0.154s-0.068-0.086-0.114-0.114l0.137 0.050c-0.041-0.25-0.062-0.503-0.062-0.756-0.005-0.959 0.269-1.899 0.788-2.706 0-0.044 0.037-0.063 0.056-0.1l-0.119-0.131c0.001-0.029-0.005-0.057-0.017-0.083s-0.030-0.049-0.052-0.067c-0.173-0.158-0.364-0.297-0.569-0.413l-0.131-0.069c-0.072-0.039-0.141-0.082-0.206-0.131l-0.063-0.050c-0.051-0.045-0.092-0.101-0.118-0.163s-0.037-0.131-0.032-0.199c-0-0.088 0.023-0.175 0.069-0.25 0.028-0.046 0.068-0.084 0.115-0.11s0.1-0.040 0.154-0.040c0.105 0.009 0.205 0.048 0.288 0.112 0.013 0.001 0.026 0.006 0.037 0.013s0.020 0.018 0.025 0.030l0.169 0.188c0.032 0.022 0.059 0.049 0.081 0.081 0.157 0.173 0.328 0.332 0.513 0.475 0.037 0.026 0.080 0.042 0.125 0.044h0.088l0.119 0.088c0.696-0.74 1.601-1.25 2.594-1.462 0.25-0.044 0.481-0.088 0.706-0.106v-0.238c0.050-0.042 0.085-0.099 0.1-0.162 0.004-0.042 0.004-0.083 0-0.125 0-0.209-0.016-0.418-0.050-0.625 0.003-0.021 0.003-0.042 0-0.063 0.003-0.021 0.003-0.042 0-0.062-0.019-0.084-0.032-0.17-0.037-0.256v-0.087c0.009-0.053 0.030-0.104 0.060-0.15s0.069-0.084 0.115-0.113c0.040-0.057 0.093-0.103 0.156-0.133s0.131-0.045 0.201-0.042c0.099 0.014 0.19 0.063 0.256 0.139s0.101 0.173 0.1 0.273v0.125c0.007 0.088-0.008 0.176-0.044 0.256-0.044 0.081 0 0.081 0 0.119-0.033 0.207-0.047 0.416-0.044 0.625v0.112c0.016 0.066 0.053 0.126 0.106 0.169v0.169c1.002 0.096 1.956 0.476 2.75 1.094l0.525 0.506 0.169-0.106h0.081c0.043-0.006 0.086-0.018 0.125-0.038 0.19-0.136 0.366-0.291 0.525-0.462 0.032-0.024 0.059-0.054 0.081-0.088 0.047-0.068 0.102-0.131 0.162-0.188 0.013-0.001 0.026-0.006 0.037-0.013s0.020-0.018 0.025-0.030c0.081-0.066 0.183-0.102 0.287-0.1 0.102 0.006 0.198 0.051 0.269 0.125s0.111 0.172 0.112 0.275c-0 0.065-0.016 0.128-0.045 0.186s-0.072 0.107-0.124 0.146v0.038c0 0.038-0.044 0-0.063 0.044l-0.356 0.188c-0.221 0.121-0.431 0.264-0.625 0.425-0.038 0.055-0.058 0.121-0.056 0.188l-0.131 0.125c0.338 0.517 0.588 1.088 0.737 1.688v0.044c0.119 0.444 0.177 0.903 0.175 1.362 0 0.188 0 0.375 0 0.563l0.169 0.044c0.030 0.067 0.083 0.12 0.15 0.15 0.228 0.055 0.46 0.094 0.694 0.119h0.269c0.043-0.006 0.088-0.006 0.131 0h0.125c0.1 0.026 0.19 0.083 0.256 0.162s0.106 0.178 0.113 0.281c-0.019 0.092-0.068 0.176-0.139 0.238s-0.161 0.099-0.255 0.105l-0.037-0.069zM19.137 11.719l-1.594-6.875c-0.101-0.329-0.325-0.607-0.625-0.775l-6.425-3.013c-0.155-0.070-0.323-0.106-0.494-0.106h-0.1c-0.151-0.002-0.302 0.013-0.45 0.044l-6.394 3.081c-0.156 0.070-0.294 0.175-0.403 0.307s-0.185 0.288-0.222 0.455l-1.563 6.875c-0.006 0.073-0.006 0.146 0 0.219-0.002 0.285 0.088 0.564 0.256 0.794l4.375 5.469c0.258 0.253 0.596 0.408 0.956 0.438h7.2c0.166 0 0.33-0.040 0.477-0.117s0.273-0.189 0.367-0.327l4.425-5.469c0.153-0.234 0.235-0.508 0.238-0.787 0.010-0.077 0.010-0.154 0-0.231l-0.025 0.019z"></path>
</svg>
