<!-- Generated by IcoMoon.io -->
<svg version="1.1" xmlns="http://www.w3.org/2000/svg" width="20" height="20" viewBox="0 0 20 20">
<title>lab</title>
<path d="M13.125 1.25h-6.25c-0.345 0-0.625 0.28-0.625 0.625s0.28 0.625 0.625 0.625h0.625v6.676l-2.914 4.106c-0.072 0.063-0.129 0.143-0.165 0.233l-0.922 1.299c-1.277 1.639 0.039 3.936 2.001 3.936h9c2.016 0 3.171-2.265 2.012-3.921l-0.933-1.315c-0.037-0.090-0.094-0.169-0.165-0.233l-2.914-4.106v-6.676h0.625c0.345 0 0.625-0.28 0.625-0.625s-0.28-0.625-0.625-0.625zM8.75 7.5v-1.25h1.25c0.345 0 0.625-0.28 0.625-0.625s-0.28-0.625-0.625-0.625h-1.25v-2.5h2.5v6.875c0 0.13 0.040 0.256 0.115 0.362l2.405 3.388h-7.54l1.331-1.875h2.439c0.345 0 0.625-0.28 0.625-0.625s-0.28-0.625-0.625-0.625h-1.552l0.187-0.263c0.075-0.106 0.115-0.232 0.115-0.362v-0.625h1.25c0.345 0 0.625-0.28 0.625-0.625s-0.28-0.625-0.625-0.625h-1.25zM4.51 15.549l0.833-1.174h9.314l0.832 1.173c0.589 0.844-0.006 1.952-0.989 1.952h-9c-1.032 0-1.59-1.19-1.009-1.925 0.007-0.008 0.013-0.017 0.019-0.026z"></path>
</svg>
