<!-- Generated by IcoMoon.io -->
<svg version="1.1" xmlns="http://www.w3.org/2000/svg" width="32" height="32" viewBox="0 0 32 32">
<title>lab</title>
<path d="M21 2h-10c-0.552 0-1 0.448-1 1s0.448 1 1 1h1v10.681l-4.662 6.569c-0.115 0.101-0.206 0.229-0.264 0.373l-1.475 2.079c-2.043 2.622 0.062 6.298 3.202 6.298h14.4c3.225 0 5.074-3.624 3.219-6.274l-1.493-2.103c-0.059-0.144-0.15-0.271-0.264-0.373l-4.662-6.569v-10.681h1c0.552 0 1-0.448 1-1s-0.448-1-1-1zM14 12v-2h2c0.552 0 1-0.448 1-1s-0.448-1-1-1h-2v-4h4v11c0 0.207 0.064 0.41 0.184 0.579l3.847 5.421h-12.064l2.129-3h3.903c0.552 0 1-0.448 1-1s-0.448-1-1-1h-2.483l0.299-0.421c0.12-0.169 0.184-0.371 0.184-0.579v-1h2c0.552 0 1-0.448 1-1s-0.448-1-1-1h-2zM7.215 24.879l1.333-1.879h14.902l1.331 1.876c0.942 1.35-0.009 3.124-1.583 3.124h-14.4c-1.652 0-2.544-1.904-1.615-3.080 0.011-0.013 0.021-0.027 0.031-0.041z"></path>
</svg>
