<!-- Generated by IcoMoon.io -->
<svg version="1.1" xmlns="http://www.w3.org/2000/svg" width="20" height="20" viewBox="0 0 20 20">
<title>languages-alt</title>
<path d="M14.375 5c0-0.345-0.28-0.625-0.625-0.625s-0.625 0.28-0.625 0.625v1.25h-3.125c-0.345 0-0.625 0.28-0.625 0.625s0.28 0.625 0.625 0.625h5.588c-0.116 0.977-0.504 1.944-1.163 2.849-0.228 0.314-0.487 0.618-0.775 0.91-0.485-0.482-0.901-1.011-1.238-1.578-0.176-0.297-0.56-0.394-0.857-0.218s-0.394 0.56-0.218 0.857c0.379 0.638 0.842 1.231 1.374 1.769-0.522 0.404-1.107 0.775-1.748 1.107-0.307 0.158-0.427 0.535-0.269 0.842s0.535 0.427 0.842 0.269c0.777-0.401 1.49-0.862 2.124-1.374 0.701 0.548 1.487 1.017 2.338 1.391 0.316 0.139 0.685-0.004 0.824-0.32s-0.004-0.685-0.32-0.824c-0.692-0.304-1.329-0.675-1.902-1.102 0.306-0.316 0.586-0.647 0.837-0.991 0.804-1.106 1.288-2.325 1.409-3.584h1.28c0.345 0 0.625-0.28 0.625-0.625s-0.28-0.625-0.625-0.625h-3.75v-1.25z"></path>
<path d="M5.888 5.381l3.438 8.125c0.134 0.318-0.014 0.685-0.332 0.819s-0.685-0.014-0.819-0.332l-0.632-1.493h-4.46l-0.632 1.493c-0.134 0.318-0.501 0.467-0.819 0.332s-0.467-0.501-0.332-0.819l3.438-8.125c0.098-0.231 0.325-0.381 0.576-0.381s0.478 0.15 0.576 0.381zM7.014 11.25l-1.701-4.021-1.701 4.021h3.402z"></path>
</svg>
