<!-- Generated by IcoMoon.io -->
<svg version="1.1" xmlns="http://www.w3.org/2000/svg" width="20" height="20" viewBox="0 0 20 20">
<title>languages</title>
<path d="M6.25 6.25c-0.247 0-0.471 0.145-0.571 0.371l-2.5 5.625c-0.14 0.315 0.002 0.685 0.317 0.825s0.685-0.002 0.825-0.317l0.391-0.879h3.077l0.391 0.879c0.14 0.315 0.51 0.457 0.825 0.317s0.457-0.51 0.317-0.825l-2.5-5.625c-0.1-0.226-0.324-0.371-0.571-0.371zM6.25 8.414l0.983 2.211h-1.965l0.983-2.211z"></path>
<path d="M9.375 7.5c0-0.345 0.28-0.625 0.625-0.625h1.875v-0.625c0-0.345 0.28-0.625 0.625-0.625s0.625 0.28 0.625 0.625v0.625h2.5c0.345 0 0.625 0.28 0.625 0.625s-0.28 0.625-0.625 0.625h-0.666c-0.118 0.898-0.487 1.762-1.074 2.544-0.155 0.207-0.324 0.406-0.507 0.599 0.374 0.25 0.787 0.471 1.234 0.654 0.319 0.131 0.472 0.496 0.341 0.816s-0.496 0.472-0.816 0.341c-0.623-0.256-1.201-0.577-1.717-0.956-0.458 0.348-0.967 0.662-1.516 0.937-0.309 0.154-0.684 0.030-0.839-0.279s-0.030-0.684 0.279-0.839c0.404-0.202 0.776-0.425 1.114-0.664-0.277-0.293-0.524-0.608-0.737-0.942-0.185-0.291-0.1-0.678 0.191-0.863s0.677-0.1 0.863 0.191c0.18 0.282 0.393 0.551 0.637 0.803 0.173-0.178 0.33-0.361 0.471-0.548 0.432-0.577 0.701-1.183 0.809-1.794h-3.695c-0.345 0-0.625-0.28-0.625-0.625z"></path>
<path d="M3.75 1.25c-1.381 0-2.5 1.119-2.5 2.5v12.5c0 1.381 1.119 2.5 2.5 2.5h12.5c1.381 0 2.5-1.119 2.5-2.5v-12.5c0-1.381-1.119-2.5-2.5-2.5h-12.5zM2.5 3.75c0-0.69 0.56-1.25 1.25-1.25h12.5c0.69 0 1.25 0.56 1.25 1.25v12.5c0 0.69-0.56 1.25-1.25 1.25h-12.5c-0.69 0-1.25-0.56-1.25-1.25v-12.5z"></path>
</svg>
