<!-- Generated by IcoMoon.io -->
<svg version="1.1" xmlns="http://www.w3.org/2000/svg" width="20" height="20" viewBox="0 0 20 20">
<title>laptop</title>
<path d="M10 6.875c0.345 0 0.625-0.28 0.625-0.625s-0.28-0.625-0.625-0.625c-0.345 0-0.625 0.28-0.625 0.625s0.28 0.625 0.625 0.625z"></path>
<path d="M3.125 6.25v6.25h-1.875v1.875c0 1.033 0.842 1.875 1.875 1.875h13.75c1.033 0 1.875-0.842 1.875-1.875v-1.875h-1.875v-6.25c0-1.408-1.092-2.5-2.5-2.5h-8.75c-1.408 0-2.5 1.092-2.5 2.5zM2.5 13.75h5.153c0.053 0.097 0.12 0.188 0.202 0.27 0.242 0.242 0.566 0.355 0.895 0.355h2.5c0.329 0 0.653-0.113 0.895-0.355 0.082-0.082 0.149-0.173 0.202-0.27h5.153v0.625c0 0.342-0.283 0.625-0.625 0.625h-13.75c-0.342 0-0.625-0.283-0.625-0.625v-0.625zM15.625 12.5h-4.375v0.625h-2.5v-0.625h-4.375v-6.25c0-0.717 0.533-1.25 1.25-1.25h8.75c0.717 0 1.25 0.533 1.25 1.25v6.25z"></path>
</svg>
