<!-- Generated by IcoMoon.io -->
<svg version="1.1" xmlns="http://www.w3.org/2000/svg" width="32" height="32" viewBox="0 0 32 32">
<title>laptop</title>
<path d="M16 11c0.552 0 1-0.448 1-1s-0.448-1-1-1c-0.552 0-1 0.448-1 1s0.448 1 1 1z"></path>
<path d="M5 10v10h-3v3c0 1.652 1.348 3 3 3h22c1.652 0 3-1.348 3-3v-3h-3v-10c0-2.252-1.748-4-4-4h-14c-2.252 0-4 1.748-4 4zM4 22h8.245c0.085 0.156 0.192 0.301 0.323 0.432 0.388 0.388 0.905 0.568 1.432 0.568h4c0.527 0 1.044-0.18 1.432-0.568 0.131-0.131 0.238-0.276 0.323-0.432h8.245v1c0 0.548-0.452 1-1 1h-22c-0.548 0-1-0.452-1-1v-1zM25 20h-7v1h-4v-1h-7v-10c0-1.148 0.852-2 2-2h14c1.148 0 2 0.852 2 2v10z"></path>
</svg>
