<!-- Generated by IcoMoon.io -->
<svg version="1.1" xmlns="http://www.w3.org/2000/svg" width="20" height="20" viewBox="0 0 20 20">
<title>launch</title>
<path d="M17.694 2.050c0.581-0.175 0.581-0.175 0.581-0.174l-0.095-0.337-0.328-0.092c0 0 0.001 0-0.158 0.603zM11.972 14.151c0.19 0.652 0.187 1.346 0.116 1.95-0.091 0.775-0.303 1.483-0.467 1.923l-0.334 0.898-10.036-10.36 0.87-0.345c0.472-0.188 1.175-0.319 1.896-0.368 0.631-0.043 1.326-0.026 1.949 0.096 0.054-0.097 0.11-0.195 0.167-0.293 1.077-1.861 2.681-4.077 4.695-5.1 1.936-0.983 3.674-1.265 4.937-1.298 0.631-0.017 1.142 0.029 1.501 0.080 0.179 0.025 0.321 0.052 0.42 0.074 0.050 0.011 0.089 0.020 0.117 0.027 0.014 0.003 0.025 0.006 0.034 0.009l0.011 0.003 0.006 0.002-0.158 0.603 0.581-0.174 0 0.001 0 0.002 0.001 0.004 0.003 0.011c0.002 0.009 0.005 0.021 0.009 0.035 0.007 0.029 0.017 0.070 0.028 0.121 0.022 0.103 0.051 0.25 0.078 0.435 0.055 0.372 0.105 0.901 0.093 1.554-0.024 1.307-0.298 3.105-1.284 5.107-1.020 2.073-3.163 3.726-4.958 4.839-0.092 0.057-0.183 0.113-0.274 0.167zM10.873 14.776c-0.376 0.202-0.718 0.374-1.011 0.515-0.092 0.044-0.179 0.086-0.261 0.124l1.169 1.207c0.047-0.212 0.088-0.439 0.115-0.67 0.049-0.416 0.050-0.819-0.013-1.176zM8.683 14.468c0.164-0.073 0.392-0.176 0.666-0.309 0.595-0.287 1.406-0.709 2.273-1.246 1.761-1.091 3.645-2.593 4.502-4.333 0.891-1.811 1.132-3.419 1.153-4.565 0.011-0.574-0.034-1.032-0.079-1.342-0.004-0.031-0.009-0.060-0.014-0.088-0.027-0.004-0.055-0.008-0.085-0.013-0.302-0.043-0.747-0.083-1.305-0.069-1.114 0.029-2.676 0.278-4.433 1.17-1.679 0.853-3.133 2.792-4.19 4.619-0.52 0.899-0.929 1.742-1.207 2.361-0.129 0.287-0.23 0.525-0.301 0.697l3.020 3.117zM4.744 10.401c0.037-0.086 0.078-0.178 0.122-0.274 0.132-0.294 0.293-0.637 0.48-1.013-0.395-0.043-0.827-0.047-1.251-0.018-0.196 0.013-0.384 0.033-0.559 0.058l1.209 1.248zM15.876 5.175c0 0.518-0.407 0.938-0.908 0.938s-0.908-0.42-0.908-0.938c0-0.518 0.407-0.938 0.908-0.938s0.908 0.42 0.908 0.938zM4.057 13.393l1.234 1.274c0.027 0.020 0.052 0.042 0.076 0.066s0.045 0.051 0.064 0.078l1.223 1.262-2.672 0.919c-0.041 0.019-0.083 0.034-0.127 0.044l-1.096 0.377 1.298-4.020z"></path>
</svg>
