<!-- Generated by IcoMoon.io -->
<svg version="1.1" xmlns="http://www.w3.org/2000/svg" width="20" height="20" viewBox="0 0 20 20">
<title>layout-simple</title>
<path d="M3.75 18.75h12.5c1.408 0 2.5-1.092 2.5-2.5v-12.5c0-1.408-1.092-2.5-2.5-2.5h-12.5c-1.408 0-2.5 1.092-2.5 2.5v12.5c0 1.408 1.092 2.5 2.5 2.5zM2.5 3.75c0-0.717 0.533-1.25 1.25-1.25h2.5v15h-2.5c-0.717 0-1.25-0.533-1.25-1.25v-12.5zM7.5 17.5v-15h8.75c0.717 0 1.25 0.533 1.25 1.25v12.5c0 0.717-0.533 1.25-1.25 1.25h-8.75z"></path>
</svg>
