<!-- Generated by IcoMoon.io -->
<svg version="1.1" xmlns="http://www.w3.org/2000/svg" width="20" height="20" viewBox="0 0 20 20">
<title>layout-alt</title>
<path d="M1.25 3.75v12.5c0 1.408 1.092 2.5 2.5 2.5h12.5c1.408 0 2.5-1.092 2.5-2.5v-12.5c0-1.408-1.092-2.5-2.5-2.5h-12.5c-1.408 0-2.5 1.092-2.5 2.5zM2.5 3.75c0-0.717 0.533-1.25 1.25-1.25h12.5c0.717 0 1.25 0.533 1.25 1.25v2.5h-15v-2.5zM7.5 7.5v6.875h-5v-6.875h5zM8.75 14.375v-6.875h8.75v6.875h-8.75zM2.5 15.625h15v0.625c0 0.717-0.533 1.25-1.25 1.25h-12.5c-0.717 0-1.25-0.533-1.25-1.25v-0.625z"></path>
</svg>
