<!-- Generated by IcoMoon.io -->
<svg version="1.1" xmlns="http://www.w3.org/2000/svg" width="20" height="20" viewBox="0 0 20 20">
<title>leaf</title>
<path d="M18.75 1.25h-8.125c-0.054 0-0.106 0.007-0.156 0.020-0.050-0.013-0.102-0.020-0.156-0.020-4.658 0-8.438 3.78-8.438 8.438 0 2.104 0.771 4.029 2.046 5.507l-2.488 2.488c-0.244 0.244-0.244 0.64 0 0.884s0.64 0.244 0.884 0l2.488-2.488c1.478 1.275 3.403 2.046 5.507 2.046 4.658 0 8.438-3.78 8.438-8.438 0-0.054-0.007-0.106-0.020-0.156 0.013-0.050 0.020-0.102 0.020-0.156v-8.125zM5.692 15.192l2.067-2.067h5.991c0.345 0 0.625-0.28 0.625-0.625s-0.28-0.625-0.625-0.625h-4.741l3.125-3.125h2.866c0.345 0 0.625-0.28 0.625-0.625s-0.28-0.625-0.625-0.625h-1.616l4.116-4.116v5.991c0 0.054 0.007 0.106 0.020 0.156-0.013 0.050-0.020 0.102-0.020 0.156 0 3.967-3.22 7.188-7.188 7.188-1.759 0-3.371-0.633-4.62-1.683zM11.25 7.866l-3.125 3.125v-4.741c0-0.345-0.28-0.625-0.625-0.625s-0.625 0.28-0.625 0.625v5.991l-2.067 2.067c-1.050-1.25-1.683-2.862-1.683-4.62 0-3.967 3.22-7.188 7.188-7.188 0.054 0 0.106-0.007 0.156-0.020 0.050 0.013 0.102 0.020 0.156 0.020h5.991l-4.116 4.116v-1.616c0-0.345-0.28-0.625-0.625-0.625s-0.625 0.28-0.625 0.625v2.866z"></path>
</svg>
