<!-- Generated by IcoMoon.io -->
<svg version="1.1" xmlns="http://www.w3.org/2000/svg" width="32" height="32" viewBox="0 0 32 32">
<title>leaf</title>
<path d="M30 2h-13c-0.086 0-0.17 0.011-0.25 0.031-0.080-0.021-0.164-0.032-0.25-0.032-7.452 0-13.5 6.048-13.5 13.5 0 3.366 1.234 6.446 3.274 8.812l-3.981 3.981c-0.391 0.39-0.391 1.024 0 1.414s1.024 0.39 1.414 0l3.981-3.981c2.365 2.040 5.445 3.274 8.811 3.274 7.452 0 13.5-6.048 13.5-13.5 0-0.086-0.011-0.17-0.032-0.25 0.021-0.080 0.032-0.164 0.032-0.25v-13zM9.107 24.307l3.307-3.307h9.586c0.552 0 1-0.448 1-1s-0.448-1-1-1h-7.586l5-5h4.586c0.552 0 1-0.448 1-1s-0.448-1-1-1h-2.586l6.586-6.586v9.586c0 0.086 0.011 0.17 0.032 0.25-0.021 0.080-0.032 0.164-0.032 0.25 0 6.348-5.152 11.5-11.5 11.5-2.814 0-5.393-1.013-7.393-2.693zM18 12.586l-5 5v-7.586c0-0.552-0.448-1-1-1s-1 0.448-1 1v9.586l-3.307 3.307c-1.68-1.999-2.693-4.579-2.693-7.393 0-6.348 5.152-11.5 11.5-11.5 0.086 0 0.17-0.011 0.25-0.031 0.080 0.021 0.164 0.031 0.25 0.031h9.586l-6.586 6.586v-2.586c0-0.552-0.448-1-1-1s-1 0.448-1 1v4.586z"></path>
</svg>
