<!-- Generated by IcoMoon.io -->
<svg version="1.1" xmlns="http://www.w3.org/2000/svg" width="20" height="20" viewBox="0 0 20 20">
<title>leaseweb</title>
<path d="M9.756 6.45l-8.037 1.806c-0.109 0.023-0.221 0.020-0.328-0.006s-0.208-0.078-0.293-0.148c-0.085-0.071-0.153-0.16-0.2-0.261s-0.069-0.211-0.066-0.322v-0.256c0-0.14 0.040-0.278 0.114-0.397s0.18-0.216 0.305-0.278l8.031-4.050c0.113-0.055 0.239-0.080 0.364-0.072s0.247 0.048 0.353 0.116c0.106 0.069 0.192 0.163 0.25 0.275s0.087 0.236 0.083 0.362v2.5c0.002 0.169-0.055 0.334-0.159 0.467s-0.251 0.226-0.416 0.265zM10.331 11.1v-2.588c0.002-0.106-0.019-0.211-0.062-0.308s-0.105-0.184-0.184-0.255c-0.079-0.071-0.172-0.124-0.273-0.157s-0.208-0.042-0.313-0.030l-8.037 1.156c-0.176 0.031-0.335 0.123-0.45 0.261s-0.176 0.311-0.175 0.489v0.344c-0.002 0.179 0.059 0.353 0.174 0.491s0.275 0.23 0.451 0.259l8.037 1.081c0.105 0.015 0.212 0.006 0.314-0.025s0.195-0.084 0.274-0.154c0.079-0.071 0.142-0.158 0.184-0.255s0.062-0.203 0.059-0.309zM10.331 13.894c0.003-0.171-0.054-0.338-0.159-0.472s-0.255-0.228-0.422-0.265l-8.037-1.738c-0.108-0.020-0.219-0.016-0.325 0.011s-0.205 0.079-0.289 0.149c-0.084 0.071-0.152 0.159-0.198 0.259s-0.069 0.208-0.068 0.318v0.269c-0 0.14 0.039 0.278 0.113 0.397s0.18 0.216 0.306 0.277l8.031 3.975c0.113 0.053 0.238 0.076 0.363 0.068s0.246-0.049 0.351-0.117c0.105-0.068 0.191-0.162 0.25-0.273s0.088-0.234 0.086-0.359v-2.5zM11.95 6.394l6.375 0.969c0.106 0.015 0.214 0.008 0.317-0.023s0.197-0.083 0.278-0.154c0.080-0.071 0.144-0.158 0.187-0.256s0.064-0.204 0.062-0.311v-1.338c0.001-0.156-0.046-0.308-0.136-0.436s-0.217-0.224-0.364-0.276l-6.375-2.225c-0.112-0.037-0.232-0.047-0.349-0.028s-0.227 0.065-0.322 0.136c-0.095 0.070-0.172 0.163-0.223 0.269s-0.077 0.224-0.074 0.342v2.612c-0.001 0.178 0.061 0.35 0.176 0.487s0.274 0.227 0.449 0.257v-0.025zM18.506 11.231c0.183-0.022 0.352-0.11 0.475-0.248s0.189-0.317 0.188-0.502v-1.3c0-0.183-0.066-0.36-0.187-0.498s-0.287-0.227-0.469-0.252l-6.375-0.694c-0.104-0.009-0.208 0.004-0.306 0.038s-0.189 0.088-0.265 0.158c-0.076 0.071-0.137 0.156-0.179 0.252s-0.063 0.198-0.062 0.302v2.65c-0.001 0.104 0.019 0.207 0.060 0.302s0.101 0.181 0.177 0.252 0.166 0.125 0.264 0.158c0.098 0.034 0.202 0.047 0.305 0.038l6.375-0.656zM18.663 15.088c0.148-0.051 0.277-0.147 0.368-0.275s0.139-0.281 0.139-0.438v-1.344c-0.001-0.104-0.024-0.207-0.067-0.302s-0.107-0.179-0.185-0.248c-0.079-0.068-0.171-0.12-0.27-0.15s-0.205-0.039-0.308-0.026l-6.381 0.888c-0.176 0.030-0.335 0.121-0.449 0.257s-0.177 0.309-0.176 0.487v2.612c-0.003 0.117 0.023 0.234 0.074 0.34s0.128 0.197 0.222 0.268 0.204 0.117 0.32 0.137c0.116 0.019 0.235 0.011 0.347-0.025l6.369-2.181z"></path>
</svg>
