<!-- Generated by IcoMoon.io -->
<svg version="1.1" xmlns="http://www.w3.org/2000/svg" width="20" height="20" viewBox="0 0 20 20">
<title>leaves</title>
<path d="M8.75 6.25c0-2.783 2.217-5 5-5h5v5c0 2.783-2.217 5-5 5-0.993 0-1.915-0.283-2.689-0.772-0.285 0.672-0.436 1.396-0.436 2.148v6.125c0 0.345-0.28 0.625-0.625 0.625s-0.625-0.28-0.625-0.625v-2.375c0-0.72-0.254-1.37-0.754-1.871l-1.439-1.439c-0.612 0.433-1.363 0.685-2.181 0.685-2.095 0-3.75-1.655-3.75-3.75v-3.75h3.75c2.095 0 3.75 1.655 3.75 3.75 0 0.818-0.252 1.569-0.685 2.181l1.31 1.31v-0.866c0-1.056 0.244-2.065 0.692-2.977-0.819-0.889-1.317-2.080-1.317-3.398zM13.75 2.5c-2.092 0-3.75 1.658-3.75 3.75 0 0.86 0.28 1.647 0.756 2.276 0.206-0.274 0.432-0.534 0.677-0.78l1.875-1.875c0.244-0.244 0.64-0.244 0.884 0s0.244 0.64 0 0.884l-1.875 1.875c-0.237 0.237-0.452 0.49-0.642 0.756 0.592 0.389 1.304 0.614 2.075 0.614 2.092 0 3.75-1.658 3.75-3.75v-3.75h-3.75zM7.161 11.277c0.216-0.371 0.339-0.807 0.339-1.277 0-1.405-1.095-2.5-2.5-2.5h-2.5v2.5c0 1.405 1.095 2.5 2.5 2.5 0.47 0 0.906-0.123 1.277-0.339l-1.719-1.719c-0.244-0.244-0.244-0.64 0-0.884s0.64-0.244 0.884 0l1.719 1.719z"></path>
</svg>
