<!-- Generated by IcoMoon.io -->
<svg version="1.1" xmlns="http://www.w3.org/2000/svg" width="32" height="32" viewBox="0 0 32 32">
<title>letsencrypt</title>
<path d="M28.8 12.98h0.2c0.265 0 0.52 0.105 0.707 0.293s0.293 0.442 0.293 0.707v0.070c0 0.265-0.105 0.52-0.293 0.707s-0.442 0.293-0.707 0.293h-3.88c-0.265 0-0.52-0.105-0.707-0.293s-0.293-0.442-0.293-0.707v-0.060c0.023-0.271 0.146-0.525 0.346-0.71s0.462-0.289 0.734-0.29h3.6v-0.010zM6.4 7.24l-0.58-0.49c-0.124-0.098-0.224-0.222-0.294-0.364s-0.106-0.298-0.106-0.456c-0.005-0.25 0.085-0.493 0.25-0.68 0.095-0.121 0.217-0.218 0.356-0.283s0.291-0.099 0.444-0.097c0.238-0 0.469 0.085 0.65 0.24 1 0.8 2 1.62 3 2.47 0.184 0.215 0.326 0.463 0.42 0.73h-0.090c0.005 0.026 0.005 0.054 0 0.080 0.017 0.21-0.032 0.42-0.141 0.6s-0.272 0.321-0.466 0.403c-0.194 0.082-0.409 0.101-0.614 0.053s-0.39-0.158-0.529-0.317c-0.78-0.67-1.53-1.26-2.3-1.89zM7.87 14.050c0 0.265-0.105 0.52-0.293 0.707s-0.442 0.293-0.707 0.293h-3.87c-0.265 0-0.52-0.105-0.707-0.293s-0.293-0.442-0.293-0.707c0-0.265 0.105-0.52 0.293-0.707s0.442-0.293 0.707-0.293h3.8c0.265 0 0.52 0.105 0.707 0.293s0.293 0.442 0.293 0.707h0.070zM16 6.82c-0.265 0-0.52-0.105-0.707-0.293s-0.293-0.442-0.293-0.707v-3.76c0-0.265 0.105-0.52 0.293-0.707s0.442-0.293 0.707-0.293h0.070c0.265 0 0.52 0.105 0.707 0.293s0.293 0.442 0.293 0.707v3.73c0 0.265-0.105 0.52-0.293 0.707s-0.442 0.293-0.707 0.293l-0.070 0.030zM22.1 9.24c-0.173-0.082-0.319-0.213-0.42-0.376s-0.153-0.352-0.15-0.544c0.005-0.156 0.042-0.31 0.109-0.451s0.163-0.267 0.281-0.369c1-0.79 1.93-1.6 2.91-2.38 0.103-0.099 0.226-0.175 0.36-0.222s0.277-0.066 0.419-0.053 0.28 0.055 0.404 0.125c0.124 0.070 0.232 0.166 0.316 0.281 0.168 0.19 0.257 0.437 0.25 0.69 0.002 0.159-0.034 0.317-0.105 0.46s-0.176 0.266-0.305 0.36c-1 0.81-2 1.61-2.94 2.4-0.18 0.149-0.406 0.23-0.64 0.23-0.184-0.001-0.364-0.053-0.52-0.15h0.030zM13.37 16.8v-1.87c0.018-0.649 0.277-1.269 0.726-1.738s1.056-0.755 1.704-0.802h0.2c0.635 0.001 1.247 0.236 1.719 0.661s0.772 1.008 0.84 1.639v2l-5.19 0.11zM17 24.020c-0.070 0.054-0.126 0.124-0.164 0.204s-0.057 0.168-0.056 0.256c0 0.19 0 0.42 0 0.65s0 0.46 0 0.69c-0.020 0.183-0.106 0.352-0.242 0.476s-0.314 0.193-0.498 0.194c-0.191-0.012-0.372-0.094-0.506-0.231s-0.214-0.318-0.224-0.509v-1.17c0.005-0.043 0.005-0.087 0-0.13-0.001-0.105-0.029-0.208-0.082-0.299s-0.128-0.167-0.218-0.221c-0.244-0.196-0.419-0.464-0.5-0.766s-0.063-0.622 0.050-0.914c0.116-0.293 0.317-0.545 0.577-0.724s0.568-0.274 0.883-0.276c0.316-0.002 0.626 0.092 0.887 0.271s0.461 0.433 0.573 0.729c0.074 0.184 0.111 0.381 0.11 0.58-0.006 0.224-0.063 0.443-0.165 0.642s-0.247 0.373-0.425 0.508v0.040zM23.59 16.8h-1.41v-1.64c0.001-1.091-0.284-2.164-0.826-3.111s-1.322-1.737-2.263-2.289c-0.941-0.553-2.010-0.85-3.101-0.862s-2.167 0.261-3.12 0.793c-0.783 0.402-1.462 0.981-1.983 1.691s-0.869 1.531-1.017 2.399c-0.107 0.889-0.161 1.784-0.16 2.68 0 0.1 0 0.21 0 0.32h-1.36c-0.155-0.001-0.308 0.028-0.451 0.086s-0.273 0.144-0.383 0.253c-0.11 0.109-0.197 0.238-0.256 0.381s-0.090 0.296-0.090 0.45c-0.005 0.043-0.005 0.087 0 0.13v10.85c-0.005 0.056-0.005 0.113 0 0.17-0.005 0.057-0.005 0.113 0 0.17 0.005 0.294 0.126 0.573 0.335 0.779s0.491 0.321 0.785 0.321h15.35c0.306-0.003 0.598-0.126 0.814-0.343s0.336-0.511 0.336-0.817v-11.24c0.001-0.153-0.028-0.305-0.085-0.447s-0.143-0.271-0.251-0.38c-0.108-0.109-0.236-0.195-0.378-0.254s-0.293-0.089-0.446-0.089h-0.040z"></path>
</svg>
