<!-- Generated by IcoMoon.io -->
<svg version="1.1" xmlns="http://www.w3.org/2000/svg" width="20" height="20" viewBox="0 0 20 20">
<title>letsencrypt</title>
<path d="M18 8.113h0.125c0.166 0 0.325 0.066 0.442 0.183s0.183 0.276 0.183 0.442v0.044c0 0.166-0.066 0.325-0.183 0.442s-0.276 0.183-0.442 0.183h-2.425c-0.166 0-0.325-0.066-0.442-0.183s-0.183-0.276-0.183-0.442v-0.037c0.014-0.17 0.091-0.328 0.216-0.444s0.289-0.18 0.459-0.181h2.25v-0.006zM4 4.525l-0.362-0.306c-0.078-0.061-0.14-0.139-0.184-0.228s-0.066-0.186-0.066-0.285c-0.003-0.156 0.053-0.308 0.156-0.425 0.060-0.075 0.136-0.136 0.222-0.177s0.182-0.062 0.278-0.060c0.149-0 0.293 0.053 0.406 0.15 0.625 0.5 1.25 1.013 1.875 1.544 0.115 0.135 0.204 0.289 0.262 0.456h-0.056c0.003 0.017 0.003 0.033 0 0.050 0.011 0.131-0.020 0.262-0.088 0.375s-0.17 0.201-0.291 0.252c-0.121 0.051-0.256 0.063-0.384 0.033s-0.244-0.099-0.33-0.198c-0.488-0.419-0.956-0.787-1.438-1.181zM4.919 8.781c0 0.166-0.066 0.325-0.183 0.442s-0.276 0.183-0.442 0.183h-2.419c-0.166 0-0.325-0.066-0.442-0.183s-0.183-0.276-0.183-0.442c0-0.166 0.066-0.325 0.183-0.442s0.276-0.183 0.442-0.183h2.375c0.166 0 0.325 0.066 0.442 0.183s0.183 0.276 0.183 0.442h0.044zM10 4.263c-0.166 0-0.325-0.066-0.442-0.183s-0.183-0.276-0.183-0.442v-2.35c0-0.166 0.066-0.325 0.183-0.442s0.276-0.183 0.442-0.183h0.044c0.166 0 0.325 0.066 0.442 0.183s0.183 0.276 0.183 0.442v2.331c0 0.166-0.066 0.325-0.183 0.442s-0.276 0.183-0.442 0.183l-0.044 0.019zM13.813 5.775c-0.108-0.052-0.199-0.133-0.263-0.235s-0.096-0.22-0.094-0.34c0.003-0.098 0.026-0.194 0.068-0.282s0.102-0.167 0.176-0.231c0.625-0.494 1.206-1 1.819-1.487 0.064-0.062 0.141-0.109 0.225-0.139s0.173-0.041 0.262-0.033 0.175 0.034 0.253 0.078c0.078 0.044 0.145 0.104 0.198 0.175 0.105 0.119 0.161 0.273 0.156 0.431 0.001 0.1-0.021 0.198-0.066 0.287s-0.11 0.166-0.19 0.225c-0.625 0.506-1.25 1.006-1.838 1.5-0.112 0.093-0.254 0.144-0.4 0.144-0.115-0.001-0.227-0.033-0.325-0.094h0.019zM8.356 10.5v-1.169c0.011-0.406 0.173-0.793 0.454-1.086s0.66-0.472 1.065-0.501h0.125c0.397 0.001 0.779 0.148 1.075 0.413s0.482 0.63 0.525 1.024v1.25l-3.244 0.069zM10.625 15.012c-0.044 0.034-0.079 0.078-0.103 0.128s-0.036 0.105-0.035 0.16c0 0.119 0 0.263 0 0.406s0 0.288 0 0.431c-0.012 0.114-0.066 0.22-0.151 0.297s-0.196 0.12-0.311 0.121c-0.12-0.008-0.232-0.059-0.316-0.144s-0.134-0.199-0.14-0.318v-0.731c0.003-0.027 0.003-0.054 0-0.081-0.001-0.066-0.018-0.13-0.051-0.187s-0.080-0.104-0.137-0.138c-0.152-0.122-0.262-0.29-0.313-0.479s-0.040-0.389 0.031-0.571c0.072-0.183 0.198-0.341 0.361-0.452s0.355-0.172 0.552-0.173c0.198-0.001 0.391 0.058 0.554 0.169s0.288 0.271 0.358 0.456c0.046 0.115 0.069 0.238 0.069 0.362-0.004 0.14-0.039 0.277-0.103 0.401s-0.155 0.233-0.266 0.318v0.025zM14.744 10.5h-0.881v-1.025c0-0.682-0.178-1.352-0.516-1.944s-0.826-1.085-1.414-1.431c-0.588-0.346-1.256-0.531-1.938-0.539s-1.354 0.163-1.95 0.496c-0.49 0.251-0.914 0.613-1.239 1.057s-0.543 0.957-0.636 1.499c-0.067 0.556-0.1 1.115-0.1 1.675 0 0.063 0 0.131 0 0.2h-0.85c-0.097-0.001-0.192 0.017-0.282 0.054s-0.171 0.090-0.239 0.158c-0.069 0.068-0.123 0.149-0.16 0.238s-0.056 0.185-0.056 0.281c-0.003 0.027-0.003 0.054 0 0.081v6.781c-0.003 0.035-0.003 0.071 0 0.106-0.003 0.035-0.003 0.071 0 0.106 0.003 0.183 0.078 0.358 0.209 0.487s0.307 0.201 0.491 0.201h9.594c0.191-0.002 0.374-0.079 0.509-0.215s0.21-0.319 0.21-0.51v-7.025c0.001-0.096-0.017-0.191-0.053-0.279s-0.089-0.169-0.157-0.237c-0.067-0.068-0.148-0.122-0.236-0.159s-0.183-0.056-0.279-0.056h-0.025z"></path>
</svg>
