<!-- Generated by IcoMoon.io -->
<svg version="1.1" xmlns="http://www.w3.org/2000/svg" width="20" height="20" viewBox="0 0 20 20">
<title>letter</title>
<path d="M10 5c0.345 0 0.625 0.28 0.625 0.625v8.75c0 0.345-0.28 0.625-0.625 0.625s-0.625-0.28-0.625-0.625v-8.75c0-0.345 0.28-0.625 0.625-0.625z"></path>
<path d="M4.375 10c-0.345 0-0.625 0.28-0.625 0.625s0.28 0.625 0.625 0.625h3.125c0.345 0 0.625-0.28 0.625-0.625s-0.28-0.625-0.625-0.625h-3.125z"></path>
<path d="M3.75 13.125c0-0.345 0.28-0.625 0.625-0.625h1.875c0.345 0 0.625 0.28 0.625 0.625s-0.28 0.625-0.625 0.625h-1.875c-0.345 0-0.625-0.28-0.625-0.625z"></path>
<path d="M14.375 5c-0.345 0-0.625 0.28-0.625 0.625s0.28 0.625 0.625 0.625h1.25c0.345 0 0.625-0.28 0.625-0.625s-0.28-0.625-0.625-0.625h-1.25z"></path>
<path d="M1.25 5c0-1.408 1.092-2.5 2.5-2.5h12.5c1.408 0 2.5 1.092 2.5 2.5v10c0 1.408-1.092 2.5-2.5 2.5h-12.5c-1.408 0-2.5-1.092-2.5-2.5v-10zM3.75 3.75c-0.717 0-1.25 0.533-1.25 1.25v10c0 0.717 0.533 1.25 1.25 1.25h12.5c0.717 0 1.25-0.533 1.25-1.25v-10c0-0.717-0.533-1.25-1.25-1.25h-12.5z"></path>
</svg>
