<!-- Generated by IcoMoon.io -->
<svg version="1.1" xmlns="http://www.w3.org/2000/svg" width="32" height="32" viewBox="0 0 32 32">
<title>letter</title>
<path d="M16 8c0.552 0 1 0.448 1 1v14c0 0.552-0.448 1-1 1s-1-0.448-1-1v-14c0-0.552 0.448-1 1-1z"></path>
<path d="M7 16c-0.552 0-1 0.448-1 1s0.448 1 1 1h5c0.552 0 1-0.448 1-1s-0.448-1-1-1h-5z"></path>
<path d="M6 21c0-0.552 0.448-1 1-1h3c0.552 0 1 0.448 1 1s-0.448 1-1 1h-3c-0.552 0-1-0.448-1-1z"></path>
<path d="M23 8c-0.552 0-1 0.448-1 1s0.448 1 1 1h2c0.552 0 1-0.448 1-1s-0.448-1-1-1h-2z"></path>
<path d="M2 8c0-2.252 1.748-4 4-4h20c2.252 0 4 1.748 4 4v16c0 2.252-1.748 4-4 4h-20c-2.252 0-4-1.748-4-4v-16zM6 6c-1.148 0-2 0.852-2 2v16c0 1.148 0.852 2 2 2h20c1.148 0 2-0.852 2-2v-16c0-1.148-0.852-2-2-2h-20z"></path>
</svg>
