<!-- Generated by IcoMoon.io -->
<svg version="1.1" xmlns="http://www.w3.org/2000/svg" width="20" height="20" viewBox="0 0 20 20">
<title>lighthouse</title>
<path d="M17.043 2.19c0.171 0.3 0.067 0.681-0.233 0.853l-2.187 1.25c-0.3 0.171-0.682 0.067-0.853-0.233s-0.067-0.681 0.233-0.853l2.187-1.25c0.3-0.171 0.681-0.067 0.853 0.233z"></path>
<path d="M3.81 1.957c-0.3-0.171-0.681-0.067-0.853 0.233s-0.067 0.681 0.233 0.853l2.188 1.25c0.3 0.171 0.681 0.067 0.853-0.233s0.067-0.681-0.233-0.853l-2.188-1.25z"></path>
<path d="M13.125 4.614v4.095l0.253 1.901c0.027 0.057 0.045 0.118 0.054 0.184s0.007 0.129-0.004 0.19l0.295 2.209c0.011 0.035 0.018 0.072 0.023 0.11 0.004 0.031 0.005 0.062 0.004 0.092l0.547 4.106h0.703c0.345 0 0.625 0.28 0.625 0.625s-0.28 0.625-0.625 0.625h-1.237c-0.009 0-0.018 0-0.027 0h-7.472c-0.009 0-0.018 0-0.027 0h-1.237c-0.345 0-0.625-0.28-0.625-0.625s0.28-0.625 0.625-0.625h0.703l0.434-3.254c-0.003-0.016-0.006-0.032-0.007-0.048-0.015-0.125 0.009-0.245 0.061-0.35l0.685-5.139v-4.095l3.125-1.563 3.125 1.563zM12.413 12.829l-0.167-1.249-4.574 0.603-0.163 1.223 4.904-0.577zM7.339 14.685l-0.375 2.815h6.072l-0.457-3.431-5.239 0.616zM11.953 9.375h-3.906l-0.203 1.525 4.238-0.559-0.129-0.966zM8.125 8.125h3.75v-2.739l-1.875-0.938-1.875 0.938v2.739z"></path>
<path d="M14.375 6.25c0-0.345 0.28-0.625 0.625-0.625h2.5c0.345 0 0.625 0.28 0.625 0.625s-0.28 0.625-0.625 0.625h-2.5c-0.345 0-0.625-0.28-0.625-0.625z"></path>
<path d="M2.5 5.625c-0.345 0-0.625 0.28-0.625 0.625s0.28 0.625 0.625 0.625h2.5c0.345 0 0.625-0.28 0.625-0.625s-0.28-0.625-0.625-0.625h-2.5z"></path>
<path d="M13.77 8.44c0.171-0.3 0.553-0.404 0.853-0.233l2.188 1.25c0.3 0.171 0.404 0.553 0.233 0.853s-0.553 0.404-0.853 0.233l-2.188-1.25c-0.3-0.171-0.404-0.553-0.233-0.853z"></path>
<path d="M5.998 9.293c0.3-0.171 0.404-0.553 0.233-0.853s-0.553-0.404-0.853-0.233l-2.188 1.25c-0.3 0.171-0.404 0.553-0.233 0.853s0.553 0.404 0.853 0.233l2.188-1.25z"></path>
</svg>
