<!-- Generated by IcoMoon.io -->
<svg version="1.1" xmlns="http://www.w3.org/2000/svg" width="20" height="20" viewBox="0 0 20 20">
<title>lightbulb-off</title>
<path d="M2.317 1.433l16.25 16.25c0.244 0.244 0.244 0.64 0 0.884s-0.64 0.244-0.884 0l-4.626-4.626c-0.176 0.144-0.364 0.273-0.557 0.382v1.927c0 1.408-1.092 2.5-2.5 2.5s-2.5-1.092-2.5-2.5v-1.93c-1.516-0.854-2.5-2.469-2.5-4.32 0-1.129 0.394-2.213 1.069-3.047l-4.636-4.636c-0.244-0.244-0.244-0.64 0-0.884s0.64-0.244 0.884 0zM11.25 14.375v-0.85l0.379-0.162c0.184-0.079 0.369-0.186 0.538-0.312l-5.207-5.207c-0.444 0.595-0.71 1.357-0.71 2.156 0 1.504 0.856 2.783 2.135 3.369l0.365 0.167v0.838h2.5zM8.75 15.625v0.625c0 0.717 0.533 1.25 1.25 1.25s1.25-0.533 1.25-1.25v-0.625h-2.5z"></path>
<path d="M8.794 5.13c0.361-0.060 0.779-0.13 1.206-0.13 2.783 0 5 2.217 5 5 0 0.427-0.070 0.845-0.13 1.206l-0.004 0.021c-0.057 0.341-0.379 0.571-0.719 0.514s-0.571-0.379-0.514-0.719c0.064-0.384 0.117-0.708 0.117-1.022 0-2.092-1.658-3.75-3.75-3.75-0.314 0-0.638 0.052-1.022 0.117-0.341 0.057-0.662-0.173-0.719-0.514s0.173-0.662 0.514-0.719l0.021-0.004z"></path>
</svg>
