<!-- Generated by IcoMoon.io -->
<svg version="1.1" xmlns="http://www.w3.org/2000/svg" width="32" height="32" viewBox="0 0 32 32">
<title>lightbulb-off</title>
<path d="M3.707 2.293l26 26c0.39 0.39 0.39 1.024 0 1.414s-1.024 0.39-1.414 0l-7.401-7.401c-0.282 0.231-0.583 0.436-0.892 0.612v3.082c0 2.252-1.748 4-4 4s-4-1.748-4-4v-3.088c-2.426-1.366-4-3.95-4-6.912 0-1.807 0.631-3.541 1.711-4.875l-7.418-7.418c-0.391-0.391-0.391-1.024 0-1.414s1.024-0.391 1.414 0zM18 23v-1.359l0.606-0.26c0.295-0.127 0.591-0.298 0.861-0.5l-8.332-8.332c-0.711 0.952-1.136 2.172-1.136 3.45 0 2.407 1.37 4.453 3.417 5.391l0.583 0.267v1.342h4zM14 25v1c0 1.148 0.852 2 2 2s2-0.852 2-2v-1h-4z"></path>
<path d="M14.070 8.208c0.578-0.096 1.247-0.208 1.93-0.208 4.452 0 8 3.548 8 8 0 0.683-0.112 1.353-0.208 1.93l-0.006 0.034c-0.091 0.545-0.606 0.913-1.151 0.822s-0.913-0.606-0.822-1.151c0.102-0.615 0.186-1.133 0.186-1.636 0-3.348-2.652-6-6-6-0.503 0-1.021 0.084-1.636 0.186-0.545 0.091-1.060-0.277-1.151-0.822s0.277-1.060 0.822-1.151l0.034-0.006z"></path>
</svg>
