<!-- Generated by IcoMoon.io -->
<svg version="1.1" xmlns="http://www.w3.org/2000/svg" width="20" height="20" viewBox="0 0 20 20">
<title>lightbulb-on</title>
<path d="M10.625 1.875c0-0.345-0.28-0.625-0.625-0.625s-0.625 0.28-0.625 0.625v1.875c0 0.345 0.28 0.625 0.625 0.625s0.625-0.28 0.625-0.625v-1.875z"></path>
<path d="M5 10c0 1.851 0.984 3.466 2.5 4.32v1.93c0 1.408 1.092 2.5 2.5 2.5s2.5-1.092 2.5-2.5v-1.93c1.516-0.854 2.5-2.469 2.5-4.32 0-2.783-2.217-5-5-5s-5 2.217-5 5zM11.25 13.536v0.839h-2.5v-0.839l-0.365-0.167c-1.279-0.586-2.135-1.865-2.135-3.369 0-2.092 1.658-3.75 3.75-3.75s3.75 1.658 3.75 3.75c0 1.504-0.856 2.783-2.135 3.369l-0.365 0.167zM11.25 16.25c0 0.717-0.533 1.25-1.25 1.25s-1.25-0.533-1.25-1.25v-0.625h2.5v0.625z"></path>
<path d="M16.25 9.375c-0.345 0-0.625 0.28-0.625 0.625s0.28 0.625 0.625 0.625h1.875c0.345 0 0.625-0.28 0.625-0.625s-0.28-0.625-0.625-0.625h-1.875z"></path>
<path d="M1.25 10c0-0.345 0.28-0.625 0.625-0.625h1.875c0.345 0 0.625 0.28 0.625 0.625s-0.28 0.625-0.625 0.625h-1.875c-0.345 0-0.625-0.28-0.625-0.625z"></path>
<path d="M13.996 13.996c0.244-0.244 0.64-0.244 0.884 0l1.313 1.313c0.244 0.244 0.244 0.64 0 0.884s-0.64 0.244-0.884 0l-1.313-1.313c-0.244-0.244-0.244-0.64 0-0.884z"></path>
<path d="M4.692 3.808c-0.244-0.244-0.64-0.244-0.884 0s-0.244 0.64 0 0.884l1.313 1.313c0.244 0.244 0.64 0.244 0.884 0s0.244-0.64 0-0.884l-1.312-1.313z"></path>
<path d="M6.004 13.996c0.244 0.244 0.244 0.64 0 0.884l-1.312 1.313c-0.244 0.244-0.64 0.244-0.884 0s-0.244-0.64 0-0.884l1.313-1.313c0.244-0.244 0.64-0.244 0.884 0z"></path>
<path d="M16.192 4.692c0.244-0.244 0.244-0.64 0-0.884s-0.64-0.244-0.884 0l-1.313 1.313c-0.244 0.244-0.244 0.64 0 0.884s0.64 0.244 0.884 0l1.313-1.313z"></path>
</svg>
