<!-- Generated by IcoMoon.io -->
<svg version="1.1" xmlns="http://www.w3.org/2000/svg" width="20" height="20" viewBox="0 0 20 20">
<title>lightbulb</title>
<path d="M10 1.25c-3.47 0-6.25 2.78-6.25 6.25 0 2.292 1.236 4.337 3.125 5.435v2.69c0 1.72 1.405 3.125 3.125 3.125s3.125-1.405 3.125-3.125v-2.69c1.889-1.098 3.125-3.143 3.125-5.435 0-3.47-2.78-6.25-6.25-6.25zM5 7.5c0-2.78 2.22-5 5-5s5 2.22 5 5c0 1.946-1.112 3.67-2.779 4.503l-0.346 0.173v1.574h-3.75v-1.574l-0.346-0.173c-1.668-0.834-2.779-2.558-2.779-4.503zM8.125 15h3.75v0.625c0 1.030-0.845 1.875-1.875 1.875s-1.875-0.845-1.875-1.875v-0.625z"></path>
</svg>
