<!-- Generated by IcoMoon.io -->
<svg version="1.1" xmlns="http://www.w3.org/2000/svg" width="32" height="32" viewBox="0 0 32 32">
<title>limit-alt</title>
<path d="M20.414 13l8.293-8.293c0.39-0.391 0.39-1.024 0-1.414s-1.024-0.391-1.414 0l-8.293 8.293v-7.586c0-0.552-0.448-1-1-1s-1 0.448-1 1v11h11c0.552 0 1-0.448 1-1s-0.448-1-1-1h-7.586z"></path>
<path d="M15 17v11c0 0.552-0.448 1-1 1s-1-0.448-1-1v-7.586l-8.293 8.293c-0.391 0.39-1.024 0.39-1.414 0s-0.391-1.024 0-1.414l8.293-8.293h-7.586c-0.552 0-1-0.448-1-1s0.448-1 1-1h11z"></path>
</svg>
