<!-- Generated by IcoMoon.io -->
<svg version="1.1" xmlns="http://www.w3.org/2000/svg" width="20" height="20" viewBox="0 0 20 20">
<title>limit-alt</title>
<path d="M12.759 8.125l5.183-5.183c0.244-0.244 0.244-0.64 0-0.884s-0.64-0.244-0.884 0l-5.183 5.183v-4.741c0-0.345-0.28-0.625-0.625-0.625s-0.625 0.28-0.625 0.625v6.875h6.875c0.345 0 0.625-0.28 0.625-0.625s-0.28-0.625-0.625-0.625h-4.741z"></path>
<path d="M9.375 10.625v6.875c0 0.345-0.28 0.625-0.625 0.625s-0.625-0.28-0.625-0.625v-4.741l-5.183 5.183c-0.244 0.244-0.64 0.244-0.884 0s-0.244-0.64 0-0.884l5.183-5.183h-4.741c-0.345 0-0.625-0.28-0.625-0.625s0.28-0.625 0.625-0.625h6.875z"></path>
</svg>
