<!-- Generated by IcoMoon.io -->
<svg version="1.1" xmlns="http://www.w3.org/2000/svg" width="32" height="32" viewBox="0 0 32 32">
<title>limit</title>
<path d="M17 3c0-0.552-0.448-1-1-1s-1 0.448-1 1v26c0 0.552 0.448 1 1 1s1-0.448 1-1v-26z"></path>
<path d="M24.707 7.707c0.39-0.391 0.39-1.024 0-1.414s-1.024-0.391-1.414 0l-5.707 5.707 5.707 5.707c0.39 0.39 1.024 0.39 1.414 0s0.39-1.024 0-1.414l-3.293-3.293h7.586c0.552 0 1-0.448 1-1s-0.448-1-1-1h-7.586l3.293-3.293z"></path>
<path d="M7.293 14.293c0.391-0.39 1.024-0.39 1.414 0l5.707 5.707-5.707 5.707c-0.391 0.39-1.024 0.39-1.414 0s-0.391-1.024 0-1.414l3.293-3.293h-7.586c-0.552 0-1-0.448-1-1s0.448-1 1-1h7.586l-3.293-3.293c-0.391-0.39-0.391-1.024 0-1.414z"></path>
</svg>
