<!-- Generated by IcoMoon.io -->
<svg version="1.1" xmlns="http://www.w3.org/2000/svg" width="32" height="32" viewBox="0 0 32 32">
<title>linkedin</title>
<path d="M30.67 18.85c0-2.907-0.69-5.050-2.070-6.43-0.672-0.678-1.475-1.211-2.361-1.567s-1.835-0.527-2.789-0.503c-1.347-0.099-2.685 0.28-3.78 1.070-0.723 0.576-1.362 1.249-1.9 2v0.080c-0.006-0.013-0.008-0.026-0.008-0.040s0.003-0.027 0.008-0.040v-2.62h-6.28c0 0.43 0 1.65 0 3.69s0 4.17 0 6.43c0 2.26 0 5.19 0 8.8h6.28v-10.57c-0.015-0.276-0.015-0.553 0-0.83 0.014-0.243 0.064-0.482 0.15-0.71 0.256-0.6 0.646-1.134 1.14-1.56 0.577-0.505 1.324-0.769 2.090-0.74 0.479-0.042 0.961 0.047 1.394 0.256s0.801 0.532 1.066 0.934c0.531 0.944 0.787 2.018 0.74 3.1v10.090h6.28l0.040-10.84zM1.71 29.69v-18.89h6.29v18.89h-6.29zM7.43 2.6c0.628 0.614 0.988 1.452 1 2.33 0.002 0.435-0.086 0.865-0.258 1.264s-0.425 0.759-0.742 1.056c-0.343 0.337-0.752 0.599-1.201 0.771s-0.928 0.25-1.409 0.229c-0.466 0.016-0.931-0.064-1.365-0.236s-0.827-0.432-1.155-0.764c-0.304-0.304-0.543-0.666-0.705-1.065s-0.241-0.825-0.235-1.255c-0.004-0.436 0.083-0.869 0.255-1.27s0.426-0.762 0.745-1.060c0.687-0.617 1.587-0.944 2.51-0.91 0.466-0.027 0.932 0.039 1.372 0.196s0.844 0.399 1.188 0.714z"></path>
</svg>
