<!-- Generated by IcoMoon.io -->
<svg version="1.1" xmlns="http://www.w3.org/2000/svg" width="20" height="20" viewBox="0 0 20 20">
<title>link-alt</title>
<path d="M15.75 4.025c-1.264-1.206-3.246-1.192-4.433-0.005l-1.332 1.331c-0.469 0.43-0.497 1.205 0.020 1.722 0.244 0.244 0.244 0.64 0 0.884s-0.64 0.244-0.884 0c-0.979-0.979-1.012-2.571 0.009-3.518l1.304-1.304c1.687-1.687 4.45-1.673 6.187-0.009l0.005 0.005 0.005 0.005c1.687 1.687 1.673 4.45 0.009 6.187l-0.005 0.005-1.317 1.317c-0.983 0.983-2.582 1.012-3.528-0.020-0.233-0.254-0.216-0.65 0.038-0.883s0.65-0.216 0.883 0.038c0.429 0.469 1.205 0.497 1.722-0.020l1.308-1.308c1.205-1.262 1.192-3.241 0.010-4.429z"></path>
<path d="M7.289 9.625c-0.429-0.469-1.205-0.498-1.722 0.020l-1.308 1.308c-1.205 1.262-1.192 3.241-0.010 4.429 1.264 1.206 3.246 1.192 4.433 0.005l1.332-1.331c0.469-0.43 0.497-1.205-0.020-1.722-0.244-0.244-0.244-0.64 0-0.884s0.64-0.244 0.884 0c0.979 0.979 1.012 2.571-0.009 3.518l-1.304 1.304c-1.687 1.687-4.45 1.673-6.187 0.009l-0.005-0.005-0.005-0.005c-1.687-1.687-1.673-4.45-0.009-6.187l0.005-0.005 1.317-1.317c0.983-0.983 2.582-1.012 3.528 0.020 0.233 0.254 0.216 0.65-0.038 0.883s-0.65 0.216-0.883-0.038z"></path>
<path d="M12.942 7.645c0.244-0.244 0.244-0.64 0-0.884s-0.64-0.244-0.884 0l-5 5c-0.244 0.244-0.244 0.64 0 0.884s0.64 0.244 0.884 0l5-5z"></path>
</svg>
