<!-- Generated by IcoMoon.io -->
<svg version="1.1" xmlns="http://www.w3.org/2000/svg" width="20" height="20" viewBox="0 0 20 20">
<title>linkedin</title>
<path d="M19.169 11.781c0-1.817-0.431-3.156-1.294-4.019-0.42-0.424-0.922-0.757-1.476-0.979s-1.147-0.329-1.743-0.314c-0.842-0.062-1.678 0.175-2.363 0.669-0.452 0.36-0.851 0.781-1.188 1.25v0.050c-0.003-0.008-0.005-0.016-0.005-0.025s0.002-0.017 0.005-0.025v-1.638h-3.925c0 0.269 0 1.031 0 2.306s0 2.606 0 4.019c0 1.412 0 3.244 0 5.5h3.925v-6.606c-0.009-0.173-0.009-0.346 0-0.519 0.009-0.152 0.040-0.301 0.094-0.444 0.16-0.375 0.404-0.709 0.713-0.975 0.36-0.315 0.828-0.481 1.306-0.463 0.299-0.026 0.601 0.029 0.871 0.16s0.501 0.333 0.666 0.583c0.332 0.59 0.492 1.261 0.462 1.938v6.306h3.925l0.025-6.775zM1.069 18.556v-11.806h3.931v11.806h-3.931zM4.644 1.625c0.393 0.384 0.618 0.907 0.625 1.456 0.001 0.272-0.054 0.541-0.161 0.79s-0.265 0.474-0.464 0.66c-0.215 0.21-0.47 0.374-0.751 0.482s-0.58 0.156-0.881 0.143c-0.291 0.010-0.582-0.040-0.853-0.148s-0.517-0.27-0.722-0.477c-0.19-0.19-0.34-0.417-0.44-0.666s-0.151-0.516-0.147-0.784c-0.002-0.273 0.052-0.543 0.16-0.794s0.266-0.476 0.465-0.662c0.429-0.386 0.992-0.59 1.569-0.569 0.291-0.017 0.583 0.025 0.858 0.122s0.527 0.25 0.742 0.446z"></path>
</svg>
