<!-- Generated by IcoMoon.io -->
<svg version="1.1" xmlns="http://www.w3.org/2000/svg" width="32" height="32" viewBox="0 0 32 32">
<title>link</title>
<path d="M9 11c-2.748 0-5 2.252-5 5s2.252 5 5 5h3c0.552 0 1 0.448 1 1s-0.448 1-1 1h-3c-3.852 0-7-3.148-7-7s3.148-7 7-7h3c0.552 0 1 0.448 1 1s-0.448 1-1 1h-3z"></path>
<path d="M19 10c0-0.552 0.448-1 1-1h3c3.852 0 7 3.148 7 7s-3.148 7-7 7h-3c-0.552 0-1-0.448-1-1s0.448-1 1-1h3c2.748 0 5-2.252 5-5s-2.252-5-5-5h-3c-0.552 0-1-0.448-1-1z"></path>
<path d="M10 15c-0.552 0-1 0.448-1 1s0.448 1 1 1h12c0.552 0 1-0.448 1-1s-0.448-1-1-1h-12z"></path>
</svg>
