<!-- Generated by IcoMoon.io -->
<svg version="1.1" xmlns="http://www.w3.org/2000/svg" width="20" height="20" viewBox="0 0 20 20">
<title>link</title>
<path d="M5.625 6.875c-1.717 0-3.125 1.408-3.125 3.125s1.408 3.125 3.125 3.125h1.875c0.345 0 0.625 0.28 0.625 0.625s-0.28 0.625-0.625 0.625h-1.875c-2.408 0-4.375-1.967-4.375-4.375s1.967-4.375 4.375-4.375h1.875c0.345 0 0.625 0.28 0.625 0.625s-0.28 0.625-0.625 0.625h-1.875z"></path>
<path d="M11.875 6.25c0-0.345 0.28-0.625 0.625-0.625h1.875c2.408 0 4.375 1.967 4.375 4.375s-1.967 4.375-4.375 4.375h-1.875c-0.345 0-0.625-0.28-0.625-0.625s0.28-0.625 0.625-0.625h1.875c1.717 0 3.125-1.408 3.125-3.125s-1.408-3.125-3.125-3.125h-1.875c-0.345 0-0.625-0.28-0.625-0.625z"></path>
<path d="M6.25 9.375c-0.345 0-0.625 0.28-0.625 0.625s0.28 0.625 0.625 0.625h7.5c0.345 0 0.625-0.28 0.625-0.625s-0.28-0.625-0.625-0.625h-7.5z"></path>
</svg>
