<!-- Generated by IcoMoon.io -->
<svg version="1.1" xmlns="http://www.w3.org/2000/svg" width="20" height="20" viewBox="0 0 20 20">
<title>linux</title>
<path d="M14.944 9.712c0.507 0.728 0.846 1.558 0.996 2.432s0.104 1.77-0.133 2.624c-0.678-0.4-1.202-1.016-1.487-1.75-0.245-0.734-0.439-1.483-0.581-2.244-0.027-0.12-0.075-0.235-0.144-0.338-0.657-1.041-1.232-2.132-1.719-3.262-0.031-0.067-0.056-0.136-0.075-0.206l-0.406-1.312c-0.031-0.056-0.076-0.103-0.131-0.135s-0.118-0.050-0.182-0.050c-0.064 0-0.127 0.017-0.182 0.050s-0.1 0.079-0.131 0.135c-0.144 0.212-0.438 0.712-0.769 0.712s-0.625-0.469-0.738-0.744c-0.023-0.065-0.065-0.121-0.121-0.16s-0.123-0.061-0.192-0.061-0.136 0.021-0.192 0.061c-0.056 0.040-0.098 0.096-0.121 0.16l-0.406 1.312c0 0.069-0.050 0.138-0.081 0.206-0.474 1.138-1.036 2.237-1.681 3.288-0.066 0.104-0.114 0.218-0.144 0.337-0.144 0.732-0.353 1.449-0.625 2.144-0.276 0.77-0.796 1.428-1.481 1.875-0.247-0.893-0.285-1.831-0.112-2.742s0.554-1.769 1.112-2.508c0.964-1.398 1.479-3.058 1.475-4.756 0-0.256 0-0.756 0-0.756s0-0.15 0-0.225c0-0.44 0.087-0.876 0.255-1.282s0.415-0.776 0.726-1.087c0.311-0.311 0.68-0.558 1.087-0.726s0.842-0.255 1.282-0.255c0.44 0 0.876 0.087 1.282 0.255s0.776 0.415 1.087 0.726c0.311 0.311 0.558 0.68 0.726 1.087s0.255 0.842 0.255 1.282c0 0.075 0 0.725 0 0.981-0.004 1.779 0.558 3.513 1.606 4.95l-0.056-0.019zM10.838 14.712l0.037-0.125c0.023-0.108 0.067-0.21 0.13-0.301s0.143-0.167 0.237-0.226c0.093-0.059 0.197-0.098 0.306-0.116s0.22-0.014 0.327 0.012c0.164 0.047 0.311 0.143 0.419 0.275 0.015 0.015 0.034 0.026 0.054 0.031s0.042 0.006 0.063 0.001 0.040-0.015 0.055-0.030c0.016-0.014 0.027-0.032 0.034-0.053 0.080-0.19 0.228-0.343 0.416-0.428s0.401-0.097 0.596-0.032 0.36 0.201 0.459 0.381c0.1 0.18 0.128 0.392 0.078 0.592-0.002 0.014-0.001 0.028 0.004 0.041s0.013 0.024 0.024 0.033c0.011 0.008 0.024 0.014 0.038 0.015s0.028-0.001 0.040-0.007c0.18-0.091 0.387-0.111 0.581-0.056 0.21 0.056 0.388 0.192 0.497 0.38s0.139 0.411 0.084 0.62c-0.003 0.025-0.003 0.050 0 0.075v0.063c-0.362 1.362-2.219 3.569-3.262 3.287s-1.581-3.088-1.219-4.463v0.031zM9.175 14.588c0 0.031 0 0.075 0.037 0.119 0.362 1.356-0.144 4.194-1.188 4.475s-2.9-1.95-3.263-3.313c-0.003-0.021-0.003-0.042 0-0.063-0.003-0.025-0.003-0.050 0-0.075-0.031-0.146-0.022-0.298 0.028-0.44s0.136-0.266 0.252-0.362c0.115-0.095 0.255-0.157 0.403-0.179s0.299-0.003 0.437 0.056c0.012 0.006 0.026 0.008 0.040 0.007s0.027-0.007 0.038-0.015 0.019-0.020 0.024-0.033c0.005-0.013 0.006-0.027 0.004-0.041-0.029-0.105-0.037-0.215-0.022-0.323s0.050-0.212 0.106-0.306c0.055-0.094 0.129-0.176 0.217-0.24s0.188-0.111 0.293-0.137c0.192-0.044 0.394-0.019 0.569 0.071s0.313 0.24 0.387 0.422c0.011 0.018 0.027 0.033 0.045 0.043s0.040 0.016 0.061 0.016c0.021 0 0.042-0.005 0.061-0.016s0.034-0.025 0.045-0.043c0.096-0.115 0.222-0.201 0.364-0.249s0.294-0.057 0.441-0.026c0.146 0.031 0.282 0.102 0.391 0.205s0.189 0.233 0.229 0.377v0.069z"></path>
</svg>
