<!-- Generated by IcoMoon.io -->
<svg version="1.1" xmlns="http://www.w3.org/2000/svg" width="32" height="32" viewBox="0 0 32 32">
<title>linux</title>
<path d="M23.91 15.54c0.811 1.164 1.354 2.493 1.593 3.891s0.166 2.832-0.213 4.199c-1.085-0.64-1.923-1.626-2.38-2.8-0.392-1.174-0.703-2.373-0.93-3.59-0.043-0.193-0.121-0.376-0.23-0.54-1.051-1.666-1.971-3.411-2.75-5.22-0.049-0.107-0.089-0.217-0.12-0.33l-0.65-2.1c-0.049-0.090-0.121-0.165-0.209-0.217s-0.188-0.080-0.291-0.080c-0.102 0-0.203 0.027-0.291 0.080s-0.16 0.127-0.209 0.217c-0.23 0.34-0.7 1.14-1.23 1.14s-1-0.75-1.18-1.19c-0.036-0.104-0.104-0.193-0.194-0.257s-0.197-0.098-0.306-0.098-0.217 0.034-0.306 0.098c-0.089 0.063-0.157 0.153-0.194 0.257l-0.65 2.1c0 0.11-0.080 0.22-0.13 0.33-0.758 1.821-1.658 3.579-2.69 5.26-0.105 0.166-0.183 0.349-0.23 0.54-0.23 1.171-0.565 2.319-1 3.43-0.442 1.232-1.274 2.285-2.37 3-0.395-1.429-0.456-2.93-0.179-4.386s0.886-2.83 1.779-4.014c1.543-2.237 2.366-4.892 2.36-7.61 0-0.41 0-1.21 0-1.21s0-0.24 0-0.36c0-0.704 0.139-1.401 0.408-2.051s0.664-1.241 1.162-1.739c0.498-0.498 1.089-0.893 1.739-1.162s1.347-0.408 2.051-0.408c0.704 0 1.401 0.139 2.051 0.408s1.241 0.664 1.739 1.162c0.498 0.498 0.892 1.089 1.162 1.739s0.408 1.347 0.408 2.051c0 0.12 0 1.16 0 1.57-0.007 2.846 0.893 5.62 2.57 7.92l-0.090-0.030zM17.34 23.54l0.060-0.2c0.037-0.172 0.107-0.336 0.208-0.481s0.23-0.268 0.379-0.362c0.149-0.094 0.316-0.157 0.49-0.186s0.352-0.022 0.523 0.019c0.263 0.075 0.497 0.228 0.67 0.44 0.024 0.024 0.054 0.041 0.087 0.050s0.067 0.010 0.1 0.002 0.064-0.024 0.088-0.047c0.025-0.023 0.044-0.052 0.054-0.084 0.128-0.304 0.365-0.549 0.665-0.686s0.641-0.155 0.954-0.051 0.576 0.321 0.735 0.61c0.16 0.289 0.204 0.627 0.126 0.947-0.004 0.022-0.002 0.044 0.006 0.065s0.021 0.039 0.039 0.052c0.018 0.014 0.039 0.022 0.061 0.024s0.044-0.002 0.064-0.011c0.288-0.145 0.62-0.177 0.93-0.090 0.335 0.089 0.622 0.308 0.796 0.608s0.223 0.657 0.134 0.992c-0.004 0.040-0.004 0.080 0 0.12v0.1c-0.58 2.18-3.55 5.71-5.22 5.26s-2.53-4.94-1.95-7.14v0.050zM14.68 23.34c0 0.050 0 0.12 0.060 0.19 0.58 2.17-0.23 6.71-1.9 7.16s-4.64-3.12-5.22-5.3c-0.005-0.033-0.005-0.067 0-0.1-0.004-0.040-0.004-0.080 0-0.12-0.050-0.234-0.035-0.477 0.044-0.704s0.218-0.426 0.402-0.579c0.184-0.152 0.407-0.252 0.644-0.286s0.479-0.004 0.699 0.089c0.020 0.010 0.042 0.014 0.064 0.011s0.043-0.011 0.061-0.024 0.031-0.032 0.039-0.052c0.008-0.021 0.010-0.043 0.006-0.065-0.046-0.168-0.059-0.344-0.036-0.517s0.080-0.339 0.169-0.49c0.089-0.15 0.207-0.281 0.347-0.385s0.3-0.178 0.47-0.219c0.307-0.071 0.63-0.031 0.91 0.114s0.5 0.384 0.62 0.676c0.018 0.029 0.043 0.053 0.073 0.069s0.063 0.025 0.097 0.025c0.034 0 0.068-0.009 0.097-0.025s0.055-0.040 0.073-0.069c0.154-0.183 0.356-0.321 0.582-0.399s0.47-0.092 0.705-0.042c0.234 0.050 0.451 0.164 0.625 0.328s0.302 0.372 0.367 0.603v0.11z"></path>
</svg>
