<!-- Generated by IcoMoon.io -->
<svg version="1.1" xmlns="http://www.w3.org/2000/svg" width="20" height="20" viewBox="0 0 20 20">
<title>list</title>
<path d="M4.375 6.25c0.69 0 1.25-0.56 1.25-1.25s-0.56-1.25-1.25-1.25c-0.69 0-1.25 0.56-1.25 1.25s0.56 1.25 1.25 1.25z"></path>
<path d="M8.75 4.375c-0.345 0-0.625 0.28-0.625 0.625s0.28 0.625 0.625 0.625h7.5c0.345 0 0.625-0.28 0.625-0.625s-0.28-0.625-0.625-0.625h-7.5z"></path>
<path d="M8.75 9.375c-0.345 0-0.625 0.28-0.625 0.625s0.28 0.625 0.625 0.625h7.5c0.345 0 0.625-0.28 0.625-0.625s-0.28-0.625-0.625-0.625h-7.5z"></path>
<path d="M8.75 14.375c-0.345 0-0.625 0.28-0.625 0.625s0.28 0.625 0.625 0.625h7.5c0.345 0 0.625-0.28 0.625-0.625s-0.28-0.625-0.625-0.625h-7.5z"></path>
<path d="M5.625 10c0 0.69-0.56 1.25-1.25 1.25s-1.25-0.56-1.25-1.25c0-0.69 0.56-1.25 1.25-1.25s1.25 0.56 1.25 1.25z"></path>
<path d="M4.375 16.25c0.69 0 1.25-0.56 1.25-1.25s-0.56-1.25-1.25-1.25c-0.69 0-1.25 0.56-1.25 1.25s0.56 1.25 1.25 1.25z"></path>
</svg>
