<!-- Generated by IcoMoon.io -->
<svg version="1.1" xmlns="http://www.w3.org/2000/svg" width="32" height="32" viewBox="0 0 32 32">
<title>location-area</title>
<path d="M12 10c0-2.209 1.791-4 4-4s4 1.791 4 4c0 2.209-1.791 4-4 4s-4-1.791-4-4zM16 8c-1.105 0-2 0.895-2 2s0.895 2 2 2c1.105 0 2-0.895 2-2s-0.895-2-2-2z"></path>
<path d="M16 24l0.743 0.669-0.743 0.824-0.768-0.852c-0.015-0.017-0.037-0.041-0.065-0.073-0.056-0.064-0.137-0.157-0.24-0.276-0.205-0.239-0.497-0.585-0.846-1.017-0.697-0.863-1.629-2.075-2.563-3.469-0.932-1.391-1.877-2.981-2.593-4.599-0.71-1.605-1.226-3.309-1.226-4.908 0-4.552 3.748-8.3 8.3-8.3s8.3 3.748 8.3 8.3c0 1.599-0.516 3.302-1.226 4.908-0.716 1.618-1.661 3.208-2.593 4.599-0.933 1.394-1.865 2.606-2.563 3.469-0.349 0.432-0.641 0.778-0.846 1.017-0.103 0.12-0.184 0.212-0.24 0.276l-0.026 0.030-0.038 0.043-0.024 0.027c0 0-0.001 0.001-0.744-0.669zM16 4c-3.448 0-6.3 2.852-6.3 6.3 0 1.201 0.397 2.61 1.055 4.098 0.653 1.476 1.532 2.961 2.426 4.295 0.892 1.331 1.785 2.494 2.456 3.325 0.13 0.161 0.251 0.309 0.363 0.443 0.111-0.134 0.233-0.282 0.363-0.443 0.671-0.831 1.565-1.994 2.456-3.325 0.893-1.334 1.773-2.819 2.426-4.295 0.658-1.488 1.055-2.897 1.055-4.098 0-3.448-2.852-6.3-6.3-6.3zM15.257 24.669c0 0 0 0 0.743-0.669l-0.743 0.669z"></path>
<path d="M8 18h-2.744l-3.6 12h28.688l-3.6-12h-2.744c-0.552 0-1 0.448-1 1s0.448 1 1 1h1.256l2.4 8h-23.312l2.4-8h1.256c0.552 0 1-0.448 1-1s-0.448-1-1-1z"></path>
</svg>
