<!-- Generated by IcoMoon.io -->
<svg version="1.1" xmlns="http://www.w3.org/2000/svg" width="20" height="20" viewBox="0 0 20 20">
<title>location</title>
<path d="M9.535 18.543c0 0 0 0 0.465-0.418l0.465 0.418-0.465 0.516-0.465-0.516z"></path>
<path d="M10 5c-1.381 0-2.5 1.119-2.5 2.5s1.119 2.5 2.5 2.5 2.5-1.119 2.5-2.5c0-1.381-1.119-2.5-2.5-2.5zM8.75 7.5c0-0.69 0.56-1.25 1.25-1.25s1.25 0.56 1.25 1.25c0 0.69-0.56 1.25-1.25 1.25s-1.25-0.56-1.25-1.25z"></path>
<path d="M9.535 18.543l0.465-0.418c0.465 0.418 0.465 0.418 0.465 0.418l0.005-0.005 0.013-0.015c0.011-0.013 0.028-0.032 0.049-0.056 0.043-0.049 0.105-0.12 0.184-0.212 0.157-0.184 0.381-0.45 0.649-0.782 0.536-0.665 1.251-1.598 1.967-2.672 0.715-1.073 1.439-2.297 1.986-3.543 0.544-1.238 0.932-2.541 0.932-3.757 0-3.47-2.78-6.25-6.25-6.25s-6.25 2.78-6.25 6.25c0 1.217 0.388 2.519 0.932 3.757 0.547 1.246 1.271 2.47 1.986 3.543 0.716 1.074 1.431 2.008 1.967 2.672 0.268 0.333 0.492 0.599 0.649 0.782 0.079 0.092 0.141 0.163 0.184 0.212 0.021 0.024 0.038 0.043 0.049 0.056l0.013 0.015 0.005 0.006zM5 7.5c0-2.78 2.22-5 5-5s5 2.22 5 5c0 0.971-0.315 2.091-0.826 3.255-0.508 1.157-1.19 2.315-1.881 3.352-0.69 1.035-1.381 1.937-1.9 2.581-0.146 0.181-0.278 0.341-0.392 0.478-0.114-0.137-0.246-0.297-0.392-0.478-0.519-0.644-1.21-1.547-1.9-2.581-0.691-1.037-1.374-2.195-1.881-3.352-0.511-1.164-0.826-2.284-0.826-3.255z"></path>
</svg>
