<!-- Generated by IcoMoon.io -->
<svg version="1.1" xmlns="http://www.w3.org/2000/svg" width="32" height="32" viewBox="0 0 32 32">
<title>location</title>
<path d="M15.256 29.669c0 0 0 0 0.744-0.669l0.743 0.669-0.743 0.826-0.744-0.826z"></path>
<path d="M16 8c-2.209 0-4 1.791-4 4s1.791 4 4 4 4-1.791 4-4c0-2.209-1.791-4-4-4zM14 12c0-1.105 0.895-2 2-2s2 0.895 2 2c0 1.105-0.895 2-2 2s-2-0.895-2-2z"></path>
<path d="M15.256 29.669l0.744-0.669c0.743 0.669 0.744 0.668 0.744 0.668l0.008-0.008 0.021-0.024c0.018-0.021 0.045-0.050 0.079-0.090 0.069-0.078 0.168-0.192 0.294-0.339 0.252-0.294 0.61-0.72 1.039-1.252 0.857-1.063 2.001-2.557 3.147-4.276 1.144-1.716 2.302-3.675 3.177-5.668 0.87-1.981 1.491-4.065 1.491-6.011 0-5.552-4.448-10-10-10s-10 4.448-10 10c0 1.947 0.621 4.030 1.491 6.011 0.875 1.993 2.033 3.952 3.177 5.668 1.146 1.719 2.29 3.213 3.147 4.276 0.429 0.532 0.787 0.958 1.039 1.252 0.126 0.147 0.226 0.261 0.294 0.339 0.034 0.039 0.061 0.069 0.079 0.090l0.021 0.024 0.008 0.009zM8 12c0-4.448 3.552-8 8-8s8 3.552 8 8c0 1.553-0.504 3.345-1.322 5.207-0.813 1.851-1.904 3.704-3.010 5.363-1.104 1.656-2.21 3.1-3.040 4.13-0.233 0.29-0.445 0.546-0.628 0.765-0.183-0.219-0.394-0.475-0.628-0.765-0.831-1.030-1.936-2.474-3.040-4.13-1.106-1.659-2.198-3.512-3.010-5.363-0.818-1.862-1.322-3.654-1.322-5.207z"></path>
</svg>
