<!-- Generated by IcoMoon.io -->
<svg version="1.1" xmlns="http://www.w3.org/2000/svg" width="20" height="20" viewBox="0 0 20 20">
<title>location-spot</title>
<path d="M7.5 6.25c0-1.381 1.119-2.5 2.5-2.5s2.5 1.119 2.5 2.5c0 1.381-1.119 2.5-2.5 2.5s-2.5-1.119-2.5-2.5zM10 5c-0.69 0-1.25 0.56-1.25 1.25s0.56 1.25 1.25 1.25c0.69 0 1.25-0.56 1.25-1.25s-0.56-1.25-1.25-1.25z"></path>
<path d="M10 15l0.464 0.418-0.464 0.515-0.52-0.578c-0.035-0.040-0.086-0.098-0.15-0.173-0.128-0.149-0.311-0.366-0.529-0.636-0.436-0.539-1.018-1.297-1.602-2.168-0.582-0.869-1.173-1.863-1.621-2.874-0.444-1.003-0.766-2.068-0.766-3.067 0-2.845 2.342-5.188 5.188-5.188s5.188 2.342 5.188 5.188c0 0.999-0.322 2.064-0.766 3.067-0.447 1.011-1.038 2.005-1.621 2.874-0.583 0.871-1.166 1.629-1.602 2.168-0.218 0.27-0.401 0.486-0.529 0.636-0.064 0.075-0.115 0.133-0.15 0.173-0.017 0.020-0.031 0.035-0.041 0.046l-0.015 0.017c0 0-0.001 0.001-0.465-0.418zM10 2.5c-2.155 0-3.938 1.783-3.938 3.938 0 0.751 0.248 1.631 0.659 2.562 0.408 0.923 0.958 1.851 1.516 2.684 0.557 0.832 1.116 1.559 1.535 2.078 0.081 0.101 0.157 0.193 0.227 0.277 0.070-0.084 0.146-0.177 0.227-0.277 0.42-0.519 0.978-1.246 1.535-2.078 0.558-0.834 1.108-1.762 1.516-2.684 0.412-0.93 0.659-1.811 0.659-2.562 0-2.155-1.783-3.937-3.938-3.937zM9.536 15.418c0 0 0 0 0.464-0.418l-0.464 0.418z"></path>
<path d="M14.46 11.768c-0.335-0.082-0.673 0.124-0.755 0.46s0.124 0.673 0.46 0.755c1.112 0.271 1.988 0.637 2.569 1.034 0.603 0.411 0.766 0.763 0.766 0.984 0 0.204-0.103 0.463-0.433 0.765-0.332 0.304-0.848 0.605-1.54 0.87-1.38 0.528-3.332 0.865-5.527 0.865s-4.147-0.336-5.526-0.865c-0.692-0.265-1.208-0.566-1.54-0.87-0.331-0.303-0.433-0.561-0.433-0.765 0-0.262 0.177-0.629 0.766-1.031 0.576-0.393 1.445-0.744 2.553-0.983 0.337-0.073 0.552-0.406 0.479-0.743s-0.406-0.552-0.743-0.479c-1.204 0.26-2.241 0.659-2.994 1.173-0.739 0.504-1.312 1.2-1.312 2.063 0 0.671 0.351 1.24 0.84 1.688 0.488 0.446 1.16 0.817 1.936 1.115 1.558 0.597 3.668 0.948 5.974 0.948s4.416-0.351 5.973-0.948c0.777-0.297 1.448-0.668 1.937-1.115 0.489-0.447 0.84-1.017 0.84-1.688 0-0.842-0.586-1.521-1.312-2.016-0.747-0.51-1.778-0.924-2.978-1.216z"></path>
</svg>
