<!-- Generated by IcoMoon.io -->
<svg version="1.1" xmlns="http://www.w3.org/2000/svg" width="32" height="32" viewBox="0 0 32 32">
<title>location-spot</title>
<path d="M12 10c0-2.209 1.791-4 4-4s4 1.791 4 4c0 2.209-1.791 4-4 4s-4-1.791-4-4zM16 8c-1.105 0-2 0.895-2 2s0.895 2 2 2c1.105 0 2-0.895 2-2s-0.895-2-2-2z"></path>
<path d="M16 24l0.743 0.669-0.743 0.824-0.832-0.925c-0.056-0.064-0.137-0.157-0.24-0.276-0.205-0.239-0.497-0.585-0.846-1.017-0.697-0.863-1.629-2.075-2.563-3.469-0.932-1.391-1.877-2.981-2.593-4.599-0.71-1.605-1.226-3.309-1.226-4.908 0-4.552 3.748-8.3 8.3-8.3s8.3 3.748 8.3 8.3c0 1.599-0.516 3.302-1.226 4.908-0.716 1.618-1.661 3.208-2.593 4.599-0.933 1.394-1.865 2.606-2.563 3.469-0.349 0.432-0.641 0.778-0.846 1.017-0.103 0.12-0.184 0.212-0.24 0.276-0.028 0.032-0.050 0.056-0.065 0.073l-0.024 0.027c0 0-0.001 0.001-0.744-0.669zM16 4c-3.448 0-6.3 2.852-6.3 6.3 0 1.201 0.397 2.61 1.055 4.098 0.653 1.476 1.532 2.961 2.426 4.295 0.892 1.331 1.785 2.494 2.456 3.325 0.13 0.161 0.251 0.309 0.363 0.443 0.111-0.134 0.233-0.282 0.363-0.443 0.671-0.831 1.565-1.994 2.456-3.325 0.893-1.334 1.773-2.819 2.426-4.295 0.658-1.488 1.055-2.897 1.055-4.098 0-3.448-2.852-6.3-6.3-6.3zM15.257 24.669c0 0 0 0 0.743-0.669l-0.743 0.669z"></path>
<path d="M23.136 18.828c-0.537-0.131-1.078 0.199-1.208 0.735s0.199 1.078 0.735 1.208c1.78 0.433 3.18 1.020 4.11 1.654 0.964 0.658 1.226 1.221 1.226 1.574 0 0.326-0.164 0.741-0.694 1.224-0.532 0.486-1.357 0.968-2.464 1.392-2.208 0.846-5.331 1.384-8.842 1.384s-6.634-0.538-8.842-1.384c-1.107-0.424-1.933-0.906-2.464-1.392-0.529-0.484-0.694-0.898-0.694-1.224 0-0.419 0.283-1.006 1.226-1.649 0.921-0.628 2.312-1.19 4.085-1.574 0.54-0.117 0.883-0.649 0.766-1.189s-0.649-0.883-1.189-0.766c-1.927 0.417-3.586 1.055-4.79 1.876-1.182 0.807-2.099 1.921-2.099 3.301 0 1.074 0.561 1.985 1.344 2.701 0.781 0.714 1.856 1.307 3.098 1.783 2.492 0.954 5.869 1.516 9.558 1.516s7.066-0.562 9.558-1.516c1.243-0.476 2.317-1.069 3.098-1.783 0.783-0.716 1.344-1.627 1.344-2.701 0-1.347-0.938-2.434-2.099-3.226-1.195-0.815-2.844-1.479-4.765-1.946z"></path>
</svg>
