<!-- Generated by IcoMoon.io -->
<svg version="1.1" xmlns="http://www.w3.org/2000/svg" width="20" height="20" viewBox="0 0 20 20">
<title>location-area</title>
<path d="M7.5 6.25c0-1.381 1.119-2.5 2.5-2.5s2.5 1.119 2.5 2.5c0 1.381-1.119 2.5-2.5 2.5s-2.5-1.119-2.5-2.5zM10 5c-0.69 0-1.25 0.56-1.25 1.25s0.56 1.25 1.25 1.25c0.69 0 1.25-0.56 1.25-1.25s-0.56-1.25-1.25-1.25z"></path>
<path d="M10 15l0.464 0.418-0.464 0.515-0.48-0.532c-0.009-0.011-0.023-0.026-0.041-0.046-0.035-0.040-0.086-0.098-0.15-0.173-0.128-0.149-0.311-0.366-0.529-0.636-0.436-0.539-1.018-1.297-1.602-2.168-0.582-0.869-1.173-1.863-1.621-2.874-0.444-1.003-0.766-2.068-0.766-3.067 0-2.845 2.342-5.188 5.188-5.188s5.188 2.342 5.188 5.188c0 0.999-0.322 2.064-0.766 3.067-0.447 1.011-1.038 2.005-1.621 2.874-0.583 0.871-1.166 1.629-1.602 2.168-0.218 0.27-0.401 0.486-0.529 0.636-0.064 0.075-0.115 0.133-0.15 0.173l-0.017 0.019-0.024 0.027-0.015 0.017c0 0-0.001 0.001-0.465-0.418zM10 2.5c-2.155 0-3.938 1.783-3.938 3.938 0 0.751 0.248 1.631 0.659 2.562 0.408 0.923 0.958 1.851 1.516 2.684 0.557 0.832 1.116 1.559 1.535 2.078 0.081 0.101 0.157 0.193 0.227 0.277 0.070-0.084 0.146-0.177 0.227-0.277 0.42-0.519 0.978-1.246 1.535-2.078 0.558-0.834 1.108-1.762 1.516-2.684 0.412-0.93 0.659-1.811 0.659-2.562 0-2.155-1.783-3.937-3.938-3.937zM9.536 15.418c0 0 0 0 0.464-0.418l-0.464 0.418z"></path>
<path d="M5 11.25h-1.715l-2.25 7.5h17.93l-2.25-7.5h-1.715c-0.345 0-0.625 0.28-0.625 0.625s0.28 0.625 0.625 0.625h0.785l1.5 5h-14.57l1.5-5h0.785c0.345 0 0.625-0.28 0.625-0.625s-0.28-0.625-0.625-0.625z"></path>
</svg>
