<!-- Generated by IcoMoon.io -->
<svg version="1.1" xmlns="http://www.w3.org/2000/svg" width="32" height="32" viewBox="0 0 32 32">
<title>lock</title>
<path d="M14 19.7c0-1.105 0.895-2 2-2s2 0.895 2 2c0 0.74-0.402 1.387-1 1.732v3.268c0 0.552-0.448 1-1 1s-1-0.448-1-1v-3.268c-0.598-0.346-1-0.992-1-1.732z"></path>
<path d="M9.3 13.758c-1.904 0.32-3.3 1.929-3.3 3.942v8c0 2.252 1.748 4 4 4h12c2.252 0 4-1.748 4-4v-8c0-2.013-1.396-3.623-3.3-3.942v-5.058c0-3.641-2.936-6.7-6.7-6.7-3.641 0-6.7 2.936-6.7 6.7v5.058zM11.3 8.7c0-2.636 2.141-4.7 4.7-4.7 2.636 0 4.7 2.141 4.7 4.7v5h-9.4v-5zM10.29 15.7h11.71c1.148 0 2 0.852 2 2v8c0 1.148-0.852 2-2 2h-12c-1.148 0-2-0.852-2-2v-8c0-1.148 0.852-2 2-2h0.29z"></path>
</svg>
