<!-- Generated by IcoMoon.io -->
<svg version="1.1" xmlns="http://www.w3.org/2000/svg" width="20" height="20" viewBox="0 0 20 20">
<title>lock</title>
<path d="M8.75 12.313c0-0.69 0.56-1.25 1.25-1.25s1.25 0.56 1.25 1.25c0 0.463-0.251 0.867-0.625 1.083v2.042c0 0.345-0.28 0.625-0.625 0.625s-0.625-0.28-0.625-0.625v-2.042c-0.374-0.216-0.625-0.62-0.625-1.083z"></path>
<path d="M5.813 8.599c-1.19 0.2-2.062 1.206-2.062 2.464v5c0 1.408 1.092 2.5 2.5 2.5h7.5c1.408 0 2.5-1.092 2.5-2.5v-5c0-1.258-0.872-2.264-2.063-2.464v-3.161c0-2.276-1.835-4.188-4.188-4.188-2.276 0-4.188 1.835-4.188 4.188v3.161zM7.063 5.438c0-1.648 1.338-2.938 2.938-2.938 1.648 0 2.938 1.338 2.938 2.938v3.125h-5.875v-3.125zM6.431 9.813h7.319c0.717 0 1.25 0.533 1.25 1.25v5c0 0.717-0.533 1.25-1.25 1.25h-7.5c-0.717 0-1.25-0.533-1.25-1.25v-5c0-0.717 0.533-1.25 1.25-1.25h0.181z"></path>
</svg>
