<!-- Generated by IcoMoon.io -->
<svg version="1.1" xmlns="http://www.w3.org/2000/svg" width="20" height="20" viewBox="0 0 20 20">
<title>logs</title>
<path d="M8.75 5c0-0.345 0.28-0.625 0.625-0.625h3.125c0.345 0 0.625 0.28 0.625 0.625s-0.28 0.625-0.625 0.625h-3.125c-0.345 0-0.625-0.28-0.625-0.625z"></path>
<path d="M9.375 6.875c-0.345 0-0.625 0.28-0.625 0.625s0.28 0.625 0.625 0.625h2.5c0.345 0 0.625-0.28 0.625-0.625s-0.28-0.625-0.625-0.625h-2.5z"></path>
<path d="M8.75 10c0-0.345 0.28-0.625 0.625-0.625h1.25c0.345 0 0.625 0.28 0.625 0.625s-0.28 0.625-0.625 0.625h-1.25c-0.345 0-0.625-0.28-0.625-0.625z"></path>
<path d="M9.375 11.875c-0.345 0-0.625 0.28-0.625 0.625s0.28 0.625 0.625 0.625h3.125c0.345 0 0.625-0.28 0.625-0.625s-0.28-0.625-0.625-0.625h-3.125z"></path>
<path d="M8.75 15c0-0.345 0.28-0.625 0.625-0.625h1.25c0.345 0 0.625 0.28 0.625 0.625s-0.28 0.625-0.625 0.625h-1.25c-0.345 0-0.625-0.28-0.625-0.625z"></path>
<path d="M7.5 5.625c0.345 0 0.625-0.28 0.625-0.625s-0.28-0.625-0.625-0.625c-0.345 0-0.625 0.28-0.625 0.625s0.28 0.625 0.625 0.625z"></path>
<path d="M8.125 7.5c0 0.345-0.28 0.625-0.625 0.625s-0.625-0.28-0.625-0.625c0-0.345 0.28-0.625 0.625-0.625s0.625 0.28 0.625 0.625z"></path>
<path d="M7.5 10.625c0.345 0 0.625-0.28 0.625-0.625s-0.28-0.625-0.625-0.625c-0.345 0-0.625 0.28-0.625 0.625s0.28 0.625 0.625 0.625z"></path>
<path d="M8.125 12.5c0 0.345-0.28 0.625-0.625 0.625s-0.625-0.28-0.625-0.625c0-0.345 0.28-0.625 0.625-0.625s0.625 0.28 0.625 0.625z"></path>
<path d="M7.5 15.625c0.345 0 0.625-0.28 0.625-0.625s-0.28-0.625-0.625-0.625c-0.345 0-0.625 0.28-0.625 0.625s0.28 0.625 0.625 0.625z"></path>
<path d="M16.875 1.25v0.022c1.060 0.152 1.875 1.063 1.875 2.165v4.688h-3.125v8.125c0 1.381-1.119 2.5-2.5 2.5h-9.375v-0.022c-0.102 0.015-0.206 0.022-0.313 0.022-1.208 0-2.188-0.979-2.188-2.188v-4.688h3.125v-8.125c0-1.381 1.119-2.5 2.5-2.5h10zM14.586 2.5h-7.711c-0.69 0-1.25 0.56-1.25 1.25v12.813c0 0.336-0.076 0.653-0.211 0.938h7.711c0.69 0 1.25-0.56 1.25-1.25v-12.813c0-0.336 0.076-0.653 0.211-0.938zM16.563 2.5h-0.002c-0.517 0.001-0.937 0.42-0.937 0.938v3.438h1.875v-3.438c0-0.517-0.419-0.937-0.937-0.938zM3.438 17.5c0.518 0 0.938-0.42 0.938-0.938v-3.438h-1.875v3.438c0 0.518 0.42 0.938 0.938 0.938z"></path>
</svg>
