<!-- Generated by IcoMoon.io -->
<svg version="1.1" xmlns="http://www.w3.org/2000/svg" width="20" height="20" viewBox="0 0 20 20">
<title>loop</title>
<path d="M1.25 9.688c0-2.205 1.765-4.063 4-4.063 1.116 0 2.084 0.45 2.817 1.183 0.244 0.244 0.244 0.64 0 0.884s-0.64 0.244-0.884 0c-0.517-0.517-1.174-0.817-1.933-0.817-1.515 0-2.75 1.268-2.75 2.813s1.235 2.813 2.75 2.813c0.757 0 1.412-0.298 1.929-0.813l4.692-4.879c0.733-0.733 1.701-1.183 2.817-1.183 2.235 0 4 1.857 4 4.063 0 2.19-1.688 4.063-3.938 4.063-1.116 0-2.084-0.45-2.817-1.183-0.244-0.244-0.244-0.64 0-0.884s0.64-0.244 0.884 0c0.517 0.517 1.174 0.817 1.933 0.817 1.5 0 2.688-1.252 2.688-2.813 0-1.545-1.235-2.813-2.75-2.813-0.757 0-1.412 0.298-1.929 0.813l-4.692 4.879c-0.733 0.733-1.701 1.183-2.817 1.183-2.235 0-4-1.857-4-4.063z"></path>
</svg>
