<!-- Generated by IcoMoon.io -->
<svg version="1.1" xmlns="http://www.w3.org/2000/svg" width="32" height="32" viewBox="0 0 32 32">
<title>magnet</title>
<path d="M15.593 2.293l-3.288 3.288c-0.113 0.049-0.219 0.119-0.312 0.212s-0.163 0.198-0.212 0.312l-6.088 6.088c-3.891 3.89-3.891 10.224 0 14.114s10.224 3.891 14.114 0l5.91-6.031c0.179-0.040 0.35-0.13 0.49-0.269 0.145-0.145 0.236-0.323 0.273-0.509l3.134-3.198c0.384-0.392 0.381-1.019-0.007-1.407l-4.2-4.2c-0.188-0.188-0.442-0.293-0.707-0.293s-0.52 0.105-0.707 0.293l-9.9 9.9c-0.010 0.010-0.020 0.021-0.030 0.031-0.687 0.75-1.928 0.796-2.756-0.031-0.010-0.010-0.021-0.020-0.031-0.030-0.75-0.687-0.796-1.928 0.031-2.756l6.088-6.088c0.113-0.049 0.219-0.119 0.312-0.212s0.163-0.198 0.212-0.312l3.288-3.288c0.188-0.188 0.293-0.442 0.293-0.707s-0.105-0.52-0.293-0.707l-4.2-4.2c-0.39-0.391-1.024-0.391-1.414 0zM25.379 17.765l-2.814-2.814 2.136-2.136 2.793 2.793-2.114 2.157zM21.15 16.364l2.829 2.829-5.589 5.703c-3.11 3.106-8.174 3.105-11.282-0.003-3.109-3.11-3.109-8.176 0-11.286l5.643-5.643 2.786 2.786-5.643 5.643c-1.568 1.567-1.619 4.115 0.015 5.629 1.568 1.552 4.103 1.598 5.613-0.029l5.629-5.629zM19.086 7.2l-2.136 2.136-2.786-2.786 2.136-2.136 2.786 2.786z"></path>
</svg>
