<!-- Generated by IcoMoon.io -->
<svg version="1.1" xmlns="http://www.w3.org/2000/svg" width="20" height="20" viewBox="0 0 20 20">
<title>magnet</title>
<path d="M9.746 1.433l-2.055 2.055c-0.071 0.030-0.137 0.075-0.195 0.132s-0.102 0.124-0.132 0.195l-3.805 3.805c-2.432 2.432-2.432 6.39 0 8.821s6.39 2.432 8.821 0l3.694-3.769c0.112-0.025 0.219-0.081 0.306-0.168 0.090-0.090 0.147-0.202 0.171-0.318l1.959-1.999c0.24-0.245 0.238-0.637-0.004-0.879l-2.625-2.625c-0.117-0.117-0.276-0.183-0.442-0.183s-0.325 0.066-0.442 0.183l-6.188 6.188c-0.006 0.006-0.013 0.013-0.019 0.020-0.429 0.469-1.205 0.497-1.722-0.020-0.006-0.006-0.013-0.013-0.020-0.019-0.469-0.429-0.497-1.205 0.020-1.722l3.805-3.805c0.071-0.030 0.137-0.074 0.195-0.132s0.102-0.124 0.132-0.195l2.055-2.055c0.117-0.117 0.183-0.276 0.183-0.442s-0.066-0.325-0.183-0.442l-2.625-2.625c-0.244-0.244-0.64-0.244-0.884 0zM15.862 11.103l-1.759-1.759 1.335-1.335 1.746 1.746-1.321 1.348zM13.219 10.228l1.768 1.768-3.493 3.565c-1.944 1.941-5.109 1.941-7.051-0.002s-1.943-5.11 0-7.054l3.527-3.527 1.741 1.741-3.527 3.527c-0.98 0.98-1.012 2.572 0.010 3.518 0.98 0.97 2.565 0.999 3.508-0.018l3.518-3.518zM11.929 4.5l-1.335 1.335-1.741-1.741 1.335-1.335 1.741 1.741z"></path>
</svg>
