<!-- Generated by IcoMoon.io -->
<svg version="1.1" xmlns="http://www.w3.org/2000/svg" width="20" height="20" viewBox="0 0 20 20">
<title>mail-read</title>
<path d="M18.483 6.448c0.074 0.052 0.134 0.117 0.178 0.191s0.075 0.16 0.085 0.251c0.003 0.028 0.004 0.056 0.004 0.084v1.849c0 0.008 0 0.017 0 0.025v6.863c0 1.408-1.092 2.5-2.5 2.5h-12.5c-1.408 0-2.5-1.092-2.5-2.5v-6.863c-0-0.008-0-0.016 0-0.024v-1.849c-0.001-0.027 0.001-0.054 0.004-0.081 0.010-0.092 0.040-0.179 0.086-0.255 0.044-0.073 0.103-0.137 0.176-0.188 0.024-0.017 0.049-0.032 0.075-0.045l8.41-4.528 8.41 4.528c0.026 0.013 0.050 0.028 0.073 0.044zM17.5 7.333l-7.5-4.038-7.5 4.038v1.128l7.5 4.038 7.5-4.038v-1.128zM17.5 9.881l-7.5 4.038-7.5-4.038v5.829c0 0.717 0.533 1.25 1.25 1.25h12.5c0.717 0 1.25-0.533 1.25-1.25v-5.829z"></path>
</svg>
