<!-- Generated by IcoMoon.io -->
<svg version="1.1" xmlns="http://www.w3.org/2000/svg" width="20" height="20" viewBox="0 0 20 20">
<title>mailgun</title>
<path d="M0.875 9.019c0.081-0.419 0.156-0.838 0.256-1.25 0.488-2.188 1.766-4.118 3.59-5.423s4.063-1.89 6.291-1.645c2.228 0.245 4.288 1.302 5.785 2.971s2.326 3.83 2.328 6.072c0 0.175 0 0.344 0 0.512-0.014 0.724-0.222 1.432-0.6 2.050-0.296 0.476-0.739 0.843-1.263 1.045s-1.098 0.228-1.637 0.074c-0.406-0.173-0.79-0.393-1.144-0.656l-0.219 0.281c-0.751 0.994-1.823 1.697-3.033 1.99s-2.485 0.159-3.608-0.381c-1.123-0.54-2.024-1.451-2.55-2.58s-0.647-2.405-0.339-3.612 1.023-2.27 2.025-3.010c1.002-0.739 2.23-1.109 3.474-1.046s2.428 0.554 3.351 1.391c0.923 0.836 1.528 1.967 1.712 3.198 0 0.2 0 0.431 0 0.663s0 0.469 0 0.7c0 0 0 0.044 0 0.069-0 0.212 0.075 0.416 0.213 0.577s0.329 0.266 0.538 0.297c0.209 0.031 0.423-0.014 0.602-0.128s0.311-0.287 0.372-0.49c0.111-0.407 0.166-0.828 0.162-1.25-0-0.536-0.089-1.068-0.262-1.575v0.038c-0.353-1.291-1.057-2.459-2.035-3.374s-2.19-1.539-3.502-1.805c-1.312-0.266-2.672-0.161-3.928 0.301s-2.359 1.264-3.186 2.317c-0.827 1.053-1.345 2.314-1.497 3.644s0.069 2.676 0.638 3.888c0.569 1.212 1.463 2.242 2.583 2.975s2.421 1.141 3.76 1.178h0.269c1.854 0.028 3.645-0.677 4.981-1.963 0.119-0.106 0.225-0.213 0.362-0.344l1.431 1.2c-0.1 0.112-0.188 0.225-0.281 0.319-2.675 2.537-5.781 3.362-9.313 2.231s-5.556-3.631-6.2-7.244c-0.031-0.2-0.069-0.388-0.106-0.575l-0.019-1.631zM10 13.319c0.689 0.002 1.364-0.199 1.938-0.58s1.024-0.923 1.29-1.558c0.267-0.636 0.339-1.336 0.208-2.013s-0.46-1.299-0.945-1.789c-0.485-0.49-1.104-0.825-1.779-0.964s-1.376-0.074-2.015 0.186c-0.638 0.26-1.186 0.703-1.572 1.273s-0.596 1.243-0.601 1.932c-0.008 0.46 0.077 0.917 0.248 1.344s0.427 0.816 0.75 1.143c0.324 0.327 0.709 0.586 1.135 0.762s0.881 0.265 1.342 0.263zM11.575 9.85c-0.001-0.31-0.094-0.612-0.267-0.869s-0.418-0.457-0.704-0.575c-0.286-0.118-0.601-0.148-0.905-0.088s-0.583 0.21-0.802 0.429c-0.219 0.219-0.368 0.498-0.429 0.802s-0.030 0.619 0.088 0.905c0.118 0.286 0.318 0.532 0.575 0.704s0.559 0.266 0.869 0.267c0.411 0 0.805-0.163 1.096-0.454s0.454-0.685 0.454-1.096l0.025-0.025z"></path>
</svg>
