<!-- Generated by IcoMoon.io -->
<svg version="1.1" xmlns="http://www.w3.org/2000/svg" width="32" height="32" viewBox="0 0 32 32">
<title>mail-read</title>
<path d="M29.573 10.316c0.118 0.082 0.214 0.187 0.285 0.305 0.072 0.12 0.12 0.256 0.136 0.401 0.005 0.044 0.007 0.089 0.006 0.134v2.958c0 0.013 0 0.027 0 0.040v10.981c0 2.252-1.748 4-4 4h-20c-2.252 0-4-1.748-4-4v-10.981c-0-0.013-0-0.026 0-0.039v-2.959c-0.001-0.044 0.001-0.087 0.006-0.13 0.016-0.148 0.065-0.286 0.138-0.407 0.070-0.116 0.165-0.22 0.281-0.301 0.038-0.027 0.078-0.051 0.119-0.072l13.455-7.245 13.456 7.245c0.041 0.021 0.080 0.045 0.117 0.071zM28 11.733l-12-6.462-12 6.462v1.805l12 6.461 12-6.462v-1.805zM28 15.81l-12 6.461-12-6.462v9.326c0 1.148 0.852 2 2 2h20c1.148 0 2-0.852 2-2v-9.326z"></path>
</svg>
