<!-- Generated by IcoMoon.io -->
<svg version="1.1" xmlns="http://www.w3.org/2000/svg" width="20" height="20" viewBox="0 0 20 20">
<title>mail-read-alt</title>
<path d="M14.783 4.46h2.092v1.125l1.53 0.816c0.033 0.017 0.065 0.036 0.094 0.058 0.061 0.046 0.112 0.101 0.152 0.163 0.067 0.104 0.101 0.226 0.099 0.35v1.224c0 0.008 0 0.017 0 0.025v7.488c0 1.408-1.092 2.5-2.5 2.5h-12.5c-1.408 0-2.5-1.092-2.5-2.5v-7.488c-0-0.008-0-0.017 0-0.025v-1.224c-0.001-0.027 0.001-0.054 0.004-0.081 0.011-0.098 0.044-0.189 0.094-0.268 0.040-0.063 0.091-0.118 0.153-0.165 0.029-0.022 0.061-0.042 0.094-0.058l1.53-0.816v-1.125h2.092l4.783-2.585 4.783 2.585zM14.611 5.71h-9.223c-0.009 0-0.017 0-0.026 0h-0.988v0.237c0 0.008 0 0.017 0 0.025v2.865l5.625 3.037 5.625-3.037v-2.865c-0-0.008-0-0.017 0-0.025v-0.237h-0.988c-0.009 0-0.017 0-0.026 0zM12.154 4.46l-2.154-1.165-2.154 1.165h4.309zM3.125 7.002l-0.625 0.333v0.5l0.625 0.333v-1.167zM3.444 9.756l-0.944-0.504v6.458c0 0.717 0.533 1.25 1.25 1.25h12.5c0.717 0 1.25-0.533 1.25-1.25v-6.458l-0.944 0.503c-0.007 0.004-0.014 0.008-0.022 0.012l-6.534 3.528-6.534-3.529c-0.007-0.004-0.014-0.008-0.021-0.011zM16.875 8.169l0.625-0.333v-0.5l-0.625-0.333v1.167z"></path>
</svg>
