<!-- Generated by IcoMoon.io -->
<svg version="1.1" xmlns="http://www.w3.org/2000/svg" width="20" height="20" viewBox="0 0 20 20">
<title>mail</title>
<path d="M1.25 6.862c-0 0.008-0 0.017 0 0.025v7.488c0 1.408 1.092 2.5 2.5 2.5h12.5c1.408 0 2.5-1.092 2.5-2.5v-7.488c0-0.008 0-0.016 0-0.024v-1.237c0-1.408-1.092-2.5-2.5-2.5h-12.5c-1.408 0-2.5 1.092-2.5 2.5v1.237zM2.5 5.625c0-0.717 0.533-1.25 1.25-1.25h12.5c0.717 0 1.25 0.533 1.25 1.25v0.877l-7.5 4.038-7.5-4.038v-0.877zM17.5 7.921v6.454c0 0.717-0.533 1.25-1.25 1.25h-12.5c-0.717 0-1.25-0.533-1.25-1.25v-6.454l7.5 4.038 7.5-4.038z"></path>
</svg>
