<!-- Generated by IcoMoon.io -->
<svg version="1.1" xmlns="http://www.w3.org/2000/svg" width="20" height="20" viewBox="0 0 20 20">
<title>mail-send</title>
<path d="M5.7 6.875c0.269-1.093 1.234-1.875 2.425-1.875h8.125c1.403 0 2.492 1.085 2.5 2.485 0 0.009 0 0.017 0 0.026v4.988c0 1.408-1.092 2.5-2.5 2.5h-8.125c-1.191 0-2.156-0.782-2.425-1.875h-1.325c-0.345 0-0.625-0.28-0.625-0.625s0.28-0.625 0.625-0.625h1.25v-1.25h-2.5c-0.345 0-0.625-0.28-0.625-0.625s0.28-0.625 0.625-0.625h2.5v-1.25h-3.75c-0.345 0-0.625-0.28-0.625-0.625s0.28-0.625 0.625-0.625h3.825zM6.919 7.154l5.268 2.884 5.268-2.884c-0.141-0.536-0.61-0.904-1.206-0.904h-8.125c-0.596 0-1.065 0.368-1.206 0.904zM6.875 12.5c0 0.717 0.533 1.25 1.25 1.25h8.125c0.717 0 1.25-0.533 1.25-1.25v-3.945l-5.313 2.908-5.313-2.908v3.945z"></path>
</svg>
