<!-- Generated by IcoMoon.io -->
<svg version="1.1" xmlns="http://www.w3.org/2000/svg" width="32" height="32" viewBox="0 0 32 32">
<title>map-off</title>
<path d="M2.293 2.293c0.391-0.391 1.024-0.391 1.414 0l2.986 2.986c0.010 0.009 0.019 0.019 0.028 0.028l19.972 19.972c0.009 0.009 0.019 0.018 0.028 0.028l2.985 2.986c0.39 0.39 0.39 1.024 0 1.414s-1.024 0.39-1.414 0l-2.563-2.563-5.414 1.805c-0.23 0.077-0.468 0.065-0.677-0.016l-7.659-2.872-8.664 2.888c-0.305 0.102-0.64 0.050-0.901-0.137s-0.415-0.49-0.415-0.811v-21c0-0.43 0.275-0.813 0.684-0.949l1.465-0.488-1.856-1.856c-0.391-0.391-0.391-1.024 0-1.414zM11 24.279v-11.865l-5.27-5.27-1.73 0.577v18.892l7-2.333zM13 14.414v9.893l6 2.25v-6.143l-6-6zM21 22.414v4.198l3.149-1.050-3.149-3.149z"></path>
<path d="M9.497 3.747l2.193-0.698c0.020-0.006 0.040-0.012 0.059-0.017 0.208-0.054 0.419-0.038 0.608 0.034l7.663 2.874 8.664-2.888c0.305-0.102 0.64-0.050 0.901 0.137s0.415 0.49 0.415 0.811v19.9c0 0.552-0.448 1-1 1s-1-0.448-1-1v-18.513l-7 2.333v7.179c0 0.552-0.448 1-1 1s-1-0.448-1-1v-7.207l-6-2.25v1.457c0 0.552-0.448 1-1 1s-1-0.448-1-1v-1.532l-0.897 0.285c-0.526 0.167-1.089-0.123-1.256-0.65s0.123-1.089 0.65-1.256z"></path>
</svg>
