<!-- Generated by IcoMoon.io -->
<svg version="1.1" xmlns="http://www.w3.org/2000/svg" width="20" height="20" viewBox="0 0 20 20">
<title>map-off</title>
<path d="M1.433 1.433c0.244-0.244 0.64-0.244 0.884 0l1.867 1.867c0.006 0.006 0.012 0.012 0.018 0.018l12.482 12.482c0.006 0.006 0.012 0.012 0.017 0.017l1.866 1.866c0.244 0.244 0.244 0.64 0 0.884s-0.64 0.244-0.884 0l-1.602-1.602-3.384 1.128c-0.144 0.048-0.292 0.041-0.423-0.010l-4.787-1.795-5.415 1.805c-0.191 0.064-0.4 0.032-0.563-0.086s-0.26-0.306-0.26-0.507v-13.125c0-0.269 0.172-0.508 0.427-0.593l0.916-0.305-1.16-1.16c-0.244-0.244-0.244-0.64 0-0.884zM6.875 15.175v-7.416l-3.294-3.294-1.081 0.36v11.807l4.375-1.458zM8.125 9.009v6.183l3.75 1.406v-3.839l-3.75-3.75zM13.125 14.009v2.624l1.968-0.656-1.968-1.968z"></path>
<path d="M5.935 2.342l1.371-0.436c0.012-0.004 0.025-0.008 0.037-0.011 0.13-0.034 0.262-0.024 0.38 0.021l4.789 1.796 5.415-1.805c0.191-0.064 0.4-0.032 0.563 0.086s0.26 0.306 0.26 0.507v12.438c0 0.345-0.28 0.625-0.625 0.625s-0.625-0.28-0.625-0.625v-11.57l-4.375 1.458v4.487c0 0.345-0.28 0.625-0.625 0.625s-0.625-0.28-0.625-0.625v-4.504l-3.75-1.406v0.911c0 0.345-0.28 0.625-0.625 0.625s-0.625-0.28-0.625-0.625v-0.958l-0.561 0.178c-0.329 0.105-0.68-0.077-0.785-0.406s0.077-0.68 0.406-0.785z"></path>
</svg>
