<!-- Generated by IcoMoon.io -->
<svg version="1.1" xmlns="http://www.w3.org/2000/svg" width="20" height="20" viewBox="0 0 20 20">
<title>map</title>
<path d="M12.281 18.085l-4.793-1.797-5.415 1.805c-0.191 0.063-0.4 0.032-0.563-0.086s-0.26-0.306-0.26-0.507v-13.125c0-0.269 0.172-0.508 0.427-0.593l5.622-1.874c0.065-0.022 0.133-0.033 0.201-0.033 0.061 0 0.122 0.009 0.181 0.027 0.014 0.004 0.027 0.009 0.041 0.014l4.79 1.796 5.415-1.805c0.191-0.064 0.4-0.032 0.563 0.086s0.26 0.306 0.26 0.507v13.125c0 0.269-0.172 0.508-0.427 0.593l-5.622 1.874zM8.125 3.402v11.79l3.75 1.406v-11.79l-3.75-1.406zM13.125 4.825v11.807l4.375-1.458v-11.807l-4.375 1.458zM6.875 15.174v-11.807l-4.375 1.458v11.807l4.375-1.458z"></path>
<path d="M12.7 18.092v0z"></path>
<path d="M12.281 18.085c0.133 0.050 0.28 0.054 0.417 0.008l-0.417-0.008z"></path>
</svg>
