<!-- Generated by IcoMoon.io -->
<svg version="1.1" xmlns="http://www.w3.org/2000/svg" width="20" height="20" viewBox="0 0 20 20">
<title>markup</title>
<path d="M13.702 2.741c0.133-0.319-0.018-0.685-0.337-0.817s-0.685 0.018-0.817 0.337l-6.25 15c-0.133 0.319 0.018 0.685 0.337 0.817s0.684-0.018 0.817-0.337l6.25-15z"></path>
<path d="M5.4 5.77c0.265 0.221 0.301 0.615 0.080 0.88l-2.792 3.35 2.792 3.35c0.221 0.265 0.185 0.659-0.080 0.88s-0.659 0.185-0.88-0.080l-3.125-3.75c-0.193-0.232-0.193-0.568 0-0.8l3.125-3.75c0.221-0.265 0.615-0.301 0.88-0.080z"></path>
<path d="M14.6 5.77c0.265-0.221 0.659-0.185 0.88 0.080l3.125 3.75c0.193 0.232 0.193 0.568 0 0.8l-3.125 3.75c-0.221 0.265-0.615 0.301-0.88 0.080s-0.301-0.615-0.080-0.88l2.792-3.35-2.792-3.35c-0.221-0.265-0.185-0.659 0.080-0.88z"></path>
</svg>
