<!-- Generated by IcoMoon.io -->
<svg version="1.1" xmlns="http://www.w3.org/2000/svg" width="20" height="20" viewBox="0 0 20 20">
<title>memcache</title>
<path d="M7.338 9.044h2.569v0.625c0.114-0.12 0.237-0.231 0.369-0.331 0.488-0.328 1.062-0.502 1.65-0.5h0.125c0.209 0.001 0.418 0.017 0.625 0.050v-6.056h-5.337v6.213zM14.338 9.956c0.243-0.31 0.55-0.564 0.9-0.744 0.482-0.231 1.009-0.351 1.544-0.35h0.094c0.403-0.001 0.802 0.078 1.175 0.231 0.414 0.161 0.782 0.423 1.069 0.762l0.1 0.119v-2.131c0-1.326-0.527-2.598-1.464-3.536s-2.209-1.464-3.536-1.464h-0.3v6.575c0.176 0.155 0.33 0.334 0.456 0.531h0.037l-0.075 0.006zM0.831 16.781h5.294v-13.95h-0.5c-1.266 0-2.481 0.503-3.376 1.399s-1.399 2.11-1.399 3.376l-0.019 9.175zM14.787 16.781h2.137v-4.756c0.001-0.19-0.042-0.379-0.125-0.55-0.076-0.128-0.183-0.234-0.313-0.308s-0.276-0.112-0.425-0.111h-0.219c-0.188 0-0.372 0.052-0.531 0.151s-0.29 0.239-0.375 0.406c-0.099 0.233-0.15 0.484-0.15 0.737v4.431zM11.994 11.513c-0.069-0.138-0.175-0.254-0.307-0.334s-0.283-0.123-0.437-0.122h-0.119c-0.195-0.030-0.394-0.005-0.576 0.071s-0.339 0.201-0.455 0.36c-0.086 0.238-0.12 0.492-0.1 0.744v4.556h2.125v-4.481c0.002-0.27-0.043-0.539-0.131-0.794z"></path>
</svg>
