<!-- Generated by IcoMoon.io -->
<svg version="1.1" xmlns="http://www.w3.org/2000/svg" width="32" height="32" viewBox="0 0 32 32">
<title>memcache</title>
<path d="M11.74 14.47h4.11v1c0.182-0.192 0.38-0.369 0.59-0.53 0.78-0.525 1.7-0.803 2.64-0.8h0.2c0.335 0.001 0.669 0.028 1 0.080v-9.69h-8.54v9.94zM22.94 15.93c0.388-0.496 0.88-0.902 1.44-1.19 0.771-0.37 1.615-0.562 2.47-0.56h0.15c0.645-0.001 1.284 0.125 1.88 0.37 0.663 0.257 1.251 0.677 1.71 1.22l0.16 0.19v-3.41c0-2.122-0.843-4.157-2.343-5.657s-3.535-2.343-5.657-2.343h-0.48v10.52c0.282 0.248 0.528 0.534 0.73 0.85h0.060l-0.12 0.010zM1.33 26.85h8.47v-22.32h-0.8c-2.026 0-3.97 0.805-5.402 2.238s-2.238 3.376-2.238 5.402l-0.030 14.68zM23.66 26.85h3.42v-7.61c0.001-0.305-0.067-0.606-0.2-0.88-0.121-0.205-0.293-0.375-0.5-0.493s-0.441-0.179-0.68-0.177h-0.35c-0.3 0-0.595 0.084-0.85 0.241s-0.463 0.382-0.6 0.649c-0.159 0.373-0.241 0.774-0.24 1.18v7.090zM19.19 18.42c-0.11-0.221-0.28-0.406-0.491-0.535s-0.453-0.197-0.699-0.195h-0.19c-0.312-0.047-0.631-0.008-0.922 0.114s-0.543 0.321-0.728 0.576c-0.138 0.381-0.192 0.787-0.16 1.19v7.29h3.4v-7.17c0.003-0.432-0.068-0.862-0.21-1.27z"></path>
</svg>
