<!-- Generated by IcoMoon.io -->
<svg version="1.1" xmlns="http://www.w3.org/2000/svg" width="20" height="20" viewBox="0 0 20 20">
<title>memory</title>
<path d="M5 6.875c-0.345 0-0.625 0.28-0.625 0.625v3.125c0 0.345 0.28 0.625 0.625 0.625h0.625c0.345 0 0.625-0.28 0.625-0.625v-3.125c0-0.345-0.28-0.625-0.625-0.625h-0.625z"></path>
<path d="M7.5 7.5c0-0.345 0.28-0.625 0.625-0.625h0.625c0.345 0 0.625 0.28 0.625 0.625v3.125c0 0.345-0.28 0.625-0.625 0.625h-0.625c-0.345 0-0.625-0.28-0.625-0.625v-3.125z"></path>
<path d="M14.375 6.875c-0.345 0-0.625 0.28-0.625 0.625v3.125c0 0.345 0.28 0.625 0.625 0.625h0.625c0.345 0 0.625-0.28 0.625-0.625v-3.125c0-0.345-0.28-0.625-0.625-0.625h-0.625z"></path>
<path d="M10.625 7.5c0-0.345 0.28-0.625 0.625-0.625h0.625c0.345 0 0.625 0.28 0.625 0.625v3.125c0 0.345-0.28 0.625-0.625 0.625h-0.625c-0.345 0-0.625-0.28-0.625-0.625v-3.125z"></path>
<path d="M0.625 6.875v2.5h0.625c0.342 0 0.625 0.283 0.625 0.625s-0.283 0.625-0.625 0.625h-0.625v4.375h11.25v-0.938c0-0.345 0.28-0.625 0.625-0.625s0.625 0.28 0.625 0.625v0.938h6.25v-4.375h-0.625c-0.342 0-0.625-0.283-0.625-0.625s0.283-0.625 0.625-0.625h0.625v-2.5c0-1.408-1.092-2.5-2.5-2.5h-13.75c-1.408 0-2.5 1.092-2.5 2.5zM16.875 13.125c0-0.345-0.28-0.625-0.625-0.625s-0.625 0.28-0.625 0.625v0.625h-1.276c-0.149-0.887-0.92-1.563-1.849-1.563s-1.7 0.676-1.849 1.563h-1.276v-0.625c0-0.345-0.28-0.625-0.625-0.625s-0.625 0.28-0.625 0.625v0.625h-1.25v-0.625c0-0.345-0.28-0.625-0.625-0.625s-0.625 0.28-0.625 0.625v0.625h-1.25v-0.625c0-0.345-0.28-0.625-0.625-0.625s-0.625 0.28-0.625 0.625v0.625h-1.25v-1.982c0.727-0.258 1.25-0.954 1.25-1.768s-0.523-1.509-1.25-1.768v-1.357c0-0.717 0.533-1.25 1.25-1.25h13.75c0.717 0 1.25 0.533 1.25 1.25v1.357c-0.727 0.258-1.25 0.954-1.25 1.768s0.523 1.509 1.25 1.768v1.982h-1.25v-0.625z"></path>
</svg>
