<!-- Generated by IcoMoon.io -->
<svg version="1.1" xmlns="http://www.w3.org/2000/svg" width="20" height="20" viewBox="0 0 20 20">
<title>memory</title>
<path d="M5 5.625c-0.33 0-0.653 0.113-0.895 0.355s-0.355 0.566-0.355 0.895v1.875c0 0.329 0.113 0.653 0.355 0.895s0.566 0.355 0.895 0.355h0.625c0.33 0 0.653-0.113 0.895-0.355s0.355-0.566 0.355-0.895v-1.875c0-0.329-0.113-0.653-0.355-0.895s-0.566-0.355-0.895-0.355h-0.625zM5 8.75v-1.875h0.625v1.875h-0.625z"></path>
<path d="M8.48 5.98c0.242-0.242 0.566-0.355 0.895-0.355h1.25c0.329 0 0.653 0.113 0.895 0.355s0.355 0.566 0.355 0.895v1.875c0 0.329-0.113 0.653-0.355 0.895s-0.566 0.355-0.895 0.355h-1.25c-0.329 0-0.653-0.113-0.895-0.355s-0.355-0.566-0.355-0.895v-1.875c0-0.329 0.113-0.653 0.355-0.895zM9.375 6.875v1.875h1.25v-1.875h-1.25z"></path>
<path d="M14.375 5.625c-0.329 0-0.653 0.113-0.895 0.355s-0.355 0.566-0.355 0.895v1.875c0 0.329 0.113 0.653 0.355 0.895s0.566 0.355 0.895 0.355h0.625c0.329 0 0.653-0.113 0.895-0.355s0.355-0.566 0.355-0.895v-1.875c0-0.329-0.113-0.653-0.355-0.895s-0.566-0.355-0.895-0.355h-0.625zM14.375 8.75v-1.875h0.625v1.875h-0.625z"></path>
<path d="M1.25 5.625c0-1.408 1.092-2.5 2.5-2.5h12.5c1.408 0 2.5 1.092 2.5 2.5v6.25h-0.625c-0.342 0-0.625 0.283-0.625 0.625s0.283 0.625 0.625 0.625h0.625v3.75h-17.5v-3.75h0.625c0.342 0 0.625-0.283 0.625-0.625s-0.283-0.625-0.625-0.625h-0.625v-6.25zM16.25 15v0.625h1.25v-1.357c-0.727-0.258-1.25-0.954-1.25-1.768s0.523-1.509 1.25-1.768v-5.107c0-0.717-0.533-1.25-1.25-1.25h-12.5c-0.717 0-1.25 0.533-1.25 1.25v5.107c0.727 0.258 1.25 0.954 1.25 1.768s-0.523 1.509-1.25 1.768v1.357h1.25v-0.625c0-0.345 0.28-0.625 0.625-0.625s0.625 0.28 0.625 0.625v0.625h1.25v-0.625c0-0.345 0.28-0.625 0.625-0.625s0.625 0.28 0.625 0.625v0.625h1.25v-0.625c0-0.345 0.28-0.625 0.625-0.625s0.625 0.28 0.625 0.625v0.625h2.5v-0.625c0-0.345 0.28-0.625 0.625-0.625s0.625 0.28 0.625 0.625v0.625h1.25v-0.625c0-0.345 0.28-0.625 0.625-0.625s0.625 0.28 0.625 0.625z"></path>
</svg>
