<!-- Generated by IcoMoon.io -->
<svg version="1.1" xmlns="http://www.w3.org/2000/svg" width="20" height="20" viewBox="0 0 20 20">
<title>memory-card</title>
<path d="M5.625 3.75v3.491l-2.5 2.5v6.509c0 1.408 1.092 2.5 2.5 2.5h8.75c1.408 0 2.5-1.092 2.5-2.5v-12.5c0-1.408-1.092-2.5-2.5-2.5h-6.25c-1.408 0-2.5 1.092-2.5 2.5zM13.125 2.5v1.875c0 0.345 0.28 0.625 0.625 0.625s0.625-0.28 0.625-0.625v-1.875c0.717 0 1.25 0.533 1.25 1.25v12.5c0 0.717-0.533 1.25-1.25 1.25v-5h-8.75v5c-0.717 0-1.25-0.533-1.25-1.25v-5.991l2.5-2.5v-4.009c0-0.717 0.533-1.25 1.25-1.25v1.875c0 0.345 0.28 0.625 0.625 0.625s0.625-0.28 0.625-0.625v-1.875h1.25v1.875c0 0.345 0.28 0.625 0.625 0.625s0.625-0.28 0.625-0.625v-1.875h1.25zM13.125 17.5h-6.25v-3.75h6.25v3.75z"></path>
</svg>
