<!-- Generated by IcoMoon.io -->
<svg version="1.1" xmlns="http://www.w3.org/2000/svg" width="20" height="20" viewBox="0 0 20 20">
<title>menu</title>
<path d="M2.5 5c0-0.345 0.28-0.625 0.625-0.625h13.75c0.345 0 0.625 0.28 0.625 0.625s-0.28 0.625-0.625 0.625h-13.75c-0.345 0-0.625-0.28-0.625-0.625z"></path>
<path d="M2.5 10c0-0.345 0.28-0.625 0.625-0.625h13.75c0.345 0 0.625 0.28 0.625 0.625s-0.28 0.625-0.625 0.625h-13.75c-0.345 0-0.625-0.28-0.625-0.625z"></path>
<path d="M3.125 14.375c-0.345 0-0.625 0.28-0.625 0.625s0.28 0.625 0.625 0.625h13.75c0.345 0 0.625-0.28 0.625-0.625s-0.28-0.625-0.625-0.625h-13.75z"></path>
</svg>
