<!-- Generated by IcoMoon.io -->
<svg version="1.1" xmlns="http://www.w3.org/2000/svg" width="32" height="32" viewBox="0 0 32 32">
<title>mesh-alt</title>
<path d="M22.667 7.495c0.804-0.538 1.333-1.455 1.333-2.495 0-1.657-1.343-3-3-3-1.464 0-2.683 1.048-2.947 2.435l-7.406 1.152c-0.505-0.945-1.501-1.587-2.647-1.587-1.657 0-3 1.343-3 3 0 1.195 0.699 2.227 1.71 2.709l-1.204 10.321c-1.976 0.243-3.506 1.928-3.506 3.97 0 2.209 1.791 4 4 4 1.724 0 3.193-1.090 3.755-2.619l12.291 1.229c0.294 1.92 1.952 3.39 3.954 3.39 2.209 0 4-1.791 4-4 0-1.77-1.149-3.271-2.742-3.798l0.582-8.321c1.248-0.364 2.159-1.516 2.159-2.881 0-1.657-1.343-3-3-3s-3 1.343-3 3c0 0.233 0.026 0.459 0.077 0.677l-0.375 0.23-1.035-4.412zM21 4c0.552 0 1 0.448 1 1 0 0.398-0.232 0.741-0.568 0.902-0.053 0.004-0.107 0.012-0.16 0.024-0.071 0.017-0.139 0.041-0.203 0.071-0.023 0.002-0.046 0.002-0.069 0.002-0.552 0-1-0.448-1-1s0.448-1 1-1zM20.728 7.988l1.178 5.020-4.336 2.658-2.006-2.117 4.517-5.693c0.207 0.067 0.424 0.111 0.648 0.132zM22.387 15.059l1.738 7.407c-0.024 0.013-0.049 0.026-0.073 0.040l-5.075-5.356 3.411-2.091zM25.384 24.097c0.048-0.004 0.096-0.012 0.145-0.023 0.052-0.012 0.103-0.028 0.151-0.048 0.105-0.017 0.212-0.026 0.321-0.026 1.105 0 2 0.895 2 2s-0.895 2-2 2c-1.105 0-2-0.895-2-2 0-0.89 0.581-1.643 1.384-1.903zM25.452 19.368l-1.269-5.41 0.97-0.594c0.21 0.164 0.442 0.301 0.692 0.405l-0.392 5.599zM18.489 6.643l-4.316 5.44-3.509-3.703c0.131-0.253 0.228-0.527 0.283-0.816l7.406-1.152c0.042 0.079 0.088 0.156 0.137 0.23zM12.918 13.666l-5.297 6.676c-0.043-0.019-0.087-0.038-0.131-0.056l1.21-10.369c0.175-0.042 0.344-0.099 0.505-0.17l3.713 3.918zM15.827 16.735l-5.433 3.331 3.914-4.934 1.519 1.603zM9.808 22.771l7.425-4.552 5.371 5.667c-0.143 0.23-0.264 0.476-0.359 0.734l-12.291-1.229c-0.032-0.212-0.082-0.419-0.146-0.619zM7.565 22.754c0.022 0.058 0.049 0.114 0.083 0.169 0.041 0.066 0.088 0.126 0.14 0.179 0.136 0.27 0.212 0.575 0.212 0.898 0 1.105-0.895 2-2 2s-2-0.895-2-2c0-1.105 0.895-2 2-2 0.633 0 1.198 0.294 1.565 0.754zM7 7c0-0.552 0.448-1 1-1s1 0.448 1 1c0 0.552-0.448 1-1 1s-1-0.448-1-1zM26 11c0-0.552 0.448-1 1-1s1 0.448 1 1c0 0.552-0.448 1-1 1s-1-0.448-1-1z"></path>
</svg>
