<!-- Generated by IcoMoon.io -->
<svg version="1.1" xmlns="http://www.w3.org/2000/svg" width="20" height="20" viewBox="0 0 20 20">
<title>mesh</title>
<path d="M11.832 4.483l-0.864 1.893c-0.309-0.082-0.633-0.126-0.967-0.126-0.734 0-1.418 0.211-1.996 0.575l-1.369-1.531c0.153-0.272 0.24-0.585 0.24-0.919 0-1.036-0.839-1.875-1.875-1.875s-1.875 0.839-1.875 1.875c0 1.036 0.839 1.875 1.875 1.875 0.245 0 0.479-0.047 0.694-0.133l1.378 1.54c-0.514 0.642-0.822 1.456-0.822 2.343 0 0.657 0.169 1.274 0.465 1.81l-1.487 1.174c-0.414-0.304-0.925-0.484-1.479-0.484-1.381 0-2.5 1.119-2.5 2.5s1.119 2.5 2.5 2.5c1.381 0 2.5-1.119 2.5-2.5 0-0.374-0.082-0.73-0.23-1.048l1.473-1.163c0.664 0.598 1.543 0.961 2.507 0.961 0.81 0 1.56-0.257 2.173-0.693l1.923 1.923c-0.22 0.372-0.346 0.806-0.346 1.27 0 1.381 1.119 2.5 2.5 2.5s2.5-1.119 2.5-2.5c0-1.381-1.119-2.5-2.5-2.5-0.464 0-0.898 0.126-1.27 0.346l-1.923-1.923c0.437-0.613 0.693-1.363 0.693-2.173 0-0.334-0.044-0.659-0.126-0.967l1.893-0.864c0.342 0.358 0.823 0.582 1.358 0.582 1.036 0 1.875-0.839 1.875-1.875s-0.839-1.875-1.875-1.875-1.875 0.839-1.875 1.875c0 0.051 0.002 0.102 0.006 0.153l-1.902 0.868c-0.267-0.393-0.607-0.733-1-1l0.868-1.902c0.050 0.004 0.101 0.006 0.153 0.006 1.036 0 1.875-0.839 1.875-1.875s-0.839-1.875-1.875-1.875c-1.036 0-1.875 0.839-1.875 1.875 0 0.534 0.223 1.016 0.582 1.358zM12.5 3.125c0-0.345 0.28-0.625 0.625-0.625s0.625 0.28 0.625 0.625c0 0.345-0.28 0.625-0.625 0.625-0.052 0-0.102-0.006-0.151-0.018-0.028-0.019-0.058-0.036-0.090-0.050-0.036-0.016-0.072-0.029-0.109-0.038-0.166-0.112-0.276-0.303-0.276-0.518zM16.357 7.224c-0.009-0.037-0.022-0.073-0.038-0.109-0.015-0.032-0.031-0.062-0.050-0.090-0.012-0.048-0.018-0.099-0.018-0.151 0-0.345 0.28-0.625 0.625-0.625s0.625 0.28 0.625 0.625c0 0.345-0.28 0.625-0.625 0.625-0.216 0-0.406-0.109-0.518-0.276zM10 12.5c-0.754 0-1.431-0.334-1.889-0.863-0.017-0.030-0.036-0.059-0.058-0.087-0.023-0.029-0.048-0.056-0.075-0.080-0.301-0.413-0.478-0.921-0.478-1.471 0-0.683 0.274-1.303 0.719-1.754 0.048-0.024 0.094-0.055 0.136-0.092s0.077-0.079 0.106-0.123c0.424-0.332 0.959-0.53 1.54-0.53 1.381 0 2.5 1.119 2.5 2.5 0 0.627-0.231 1.2-0.612 1.639-0.051 0.028-0.099 0.064-0.143 0.107s-0.079 0.091-0.107 0.143c-0.439 0.381-1.012 0.612-1.639 0.612zM4.697 14.2c0.023 0.029 0.048 0.055 0.074 0.079 0.144 0.204 0.229 0.453 0.229 0.721 0 0.69-0.56 1.25-1.25 1.25s-1.25-0.56-1.25-1.25c0-0.69 0.56-1.25 1.25-1.25 0.354 0 0.674 0.147 0.901 0.384 0.014 0.023 0.029 0.045 0.046 0.066zM15.282 15.459c0.034-0.023 0.067-0.049 0.098-0.080s0.057-0.063 0.080-0.098c0.215-0.176 0.491-0.282 0.791-0.282 0.69 0 1.25 0.56 1.25 1.25s-0.56 1.25-1.25 1.25c-0.69 0-1.25-0.56-1.25-1.25 0-0.3 0.106-0.575 0.282-0.791zM5.396 4.847c-0.017 0.015-0.033 0.031-0.048 0.047-0.099 0.067-0.219 0.106-0.348 0.106-0.345 0-0.625-0.28-0.625-0.625s0.28-0.625 0.625-0.625c0.345 0 0.625 0.28 0.625 0.625 0 0.161-0.061 0.308-0.161 0.418-0.024 0.016-0.047 0.034-0.069 0.053z"></path>
</svg>
