<!-- Generated by IcoMoon.io -->
<svg version="1.1" xmlns="http://www.w3.org/2000/svg" width="20" height="20" viewBox="0 0 20 20">
<title>mesh-globe</title>
<path d="M16.493 15.891c-0.026 0.025-0.055 0.048-0.085 0.068-1.598 1.717-3.877 2.791-6.408 2.791-2.189 0-4.19-0.804-5.724-2.132-0.096-0.049-0.176-0.122-0.234-0.21-1.717-1.598-2.791-3.877-2.791-6.408 0-2.309 0.895-4.41 2.356-5.973 0.040-0.060 0.091-0.113 0.149-0.156 1.588-1.618 3.799-2.621 6.245-2.621 2.309 0 4.41 0.895 5.973 2.356 0.060 0.040 0.113 0.090 0.156 0.149 1.618 1.588 2.621 3.799 2.621 6.245 0 0.199-0.007 0.397-0.020 0.593 0.021 0.082 0.026 0.17 0.011 0.259-0.009 0.057-0.026 0.111-0.050 0.161-0.207 1.791-0.954 3.417-2.074 4.711-0.032 0.063-0.075 0.119-0.125 0.167zM6.076 3.607c-0.458 0.282-0.884 0.611-1.269 0.982 0.335 1.537 0.937 2.97 1.754 4.25 0.081-0.017 0.166-0.027 0.252-0.027 0.017 0 0.034 0 0.051 0.001 0.945-1.218 2.083-2.28 3.369-3.14-1.232-0.922-2.634-1.63-4.156-2.067zM7.726 2.851c1.144 0.454 2.213 1.052 3.185 1.771 0.050-0.025 0.103-0.046 0.157-0.064 0.103-0.076 0.231-0.12 0.369-0.12 0.238 0 0.459 0.069 0.645 0.189 0.691-0.326 1.412-0.599 2.159-0.813-1.206-0.829-2.667-1.313-4.241-1.313-0.793 0-1.556 0.123-2.274 0.351zM12.551 6.039c0.975 0.982 1.807 2.106 2.465 3.338 0.395 0.026 0.737 0.243 0.933 0.561 0.504 0.005 1.032 0.036 1.551 0.094l0-0.033c0-2.016-0.795-3.846-2.089-5.193-0.977 0.213-1.913 0.534-2.793 0.949-0.011 0.099-0.033 0.193-0.067 0.283zM15.868 11.302c0.28 0.783 0.494 1.598 0.636 2.436 0.431-0.748 0.737-1.578 0.888-2.46-0.481-0.055-0.973-0.085-1.444-0.090-0.024 0.039-0.051 0.078-0.080 0.114zM14.715 11.792c-0.307-0.058-0.572-0.233-0.746-0.478-1.292 0.18-2.521 0.547-3.659 1.074-0.006 0.089-0.021 0.175-0.045 0.258 1.508 1.021 3.241 1.737 5.111 2.062-0.111-1.011-0.336-1.987-0.662-2.916zM13.89 10.064c0.012-0.023 0.025-0.045 0.039-0.067-0.617-1.164-1.405-2.223-2.331-3.142-0.051 0.014-0.105 0.021-0.161 0.021-0.199 0-0.387-0.049-0.551-0.135-1.136 0.766-2.144 1.704-2.987 2.778 0.065 0.147 0.101 0.31 0.101 0.481 0 0.2-0.049 0.388-0.136 0.553 0.222 0.247 0.453 0.485 0.694 0.715 0.168-0.091 0.362-0.143 0.567-0.143 0.217 0 0.421 0.058 0.596 0.159 1.294-0.607 2.694-1.025 4.17-1.22zM9.125 13.5c-0.2 0-0.388-0.049-0.554-0.136-1.118 0.747-2.115 1.665-2.957 2.72 1.233 0.891 2.748 1.415 4.386 1.415 1.777 0 3.409-0.618 4.694-1.65-1.983-0.412-3.816-1.228-5.406-2.361-0.053 0.007-0.108 0.011-0.163 0.011zM7.865 12.333c-0.384-0.355-0.749-0.731-1.092-1.127-0.538 0.959-0.959 1.993-1.244 3.082 0.707-0.733 1.49-1.389 2.336-1.956zM5.625 10c0-0.090 0.010-0.178 0.029-0.263-0.803-1.208-1.429-2.546-1.84-3.979-0.829 1.206-1.313 2.667-1.313 4.241 0 1.777 0.618 3.409 1.65 4.694 0.311-1.496 0.852-2.907 1.585-4.192-0.071-0.152-0.11-0.322-0.11-0.502z"></path>
</svg>
