<!-- Generated by IcoMoon.io -->
<svg version="1.1" xmlns="http://www.w3.org/2000/svg" width="20" height="20" viewBox="0 0 20 20">
<title>mesh-alt</title>
<path d="M14.167 4.684c0.502-0.336 0.833-0.909 0.833-1.559 0-1.036-0.839-1.875-1.875-1.875-0.915 0-1.677 0.655-1.842 1.522l-4.629 0.72c-0.316-0.59-0.938-0.992-1.654-0.992-1.036 0-1.875 0.839-1.875 1.875 0 0.747 0.437 1.392 1.069 1.693l-0.753 6.45c-1.235 0.152-2.191 1.205-2.191 2.481 0 1.381 1.119 2.5 2.5 2.5 1.077 0 1.996-0.682 2.347-1.637l7.682 0.768c0.183 1.2 1.22 2.119 2.471 2.119 1.381 0 2.5-1.119 2.5-2.5 0-1.106-0.718-2.044-1.714-2.374l0.364-5.201c0.78-0.227 1.349-0.947 1.349-1.8 0-1.036-0.839-1.875-1.875-1.875s-1.875 0.839-1.875 1.875c0 0.146 0.017 0.287 0.048 0.423l-0.234 0.144-0.647-2.758zM13.125 2.5c0.345 0 0.625 0.28 0.625 0.625 0 0.249-0.145 0.463-0.355 0.564-0.033 0.002-0.067 0.007-0.1 0.015-0.045 0.010-0.087 0.025-0.127 0.044-0.014 0.001-0.028 0.001-0.043 0.001-0.345 0-0.625-0.28-0.625-0.625s0.28-0.625 0.625-0.625zM12.955 4.992l0.736 3.138-2.71 1.662-1.254-1.323 2.823-3.558c0.129 0.042 0.265 0.070 0.405 0.082zM13.992 9.412l1.086 4.629c-0.015 0.008-0.030 0.016-0.046 0.025l-3.172-3.347 2.132-1.307zM15.865 15.060c0.030-0.003 0.060-0.007 0.090-0.014 0.033-0.008 0.064-0.018 0.094-0.030 0.065-0.011 0.132-0.016 0.201-0.016 0.69 0 1.25 0.56 1.25 1.25s-0.56 1.25-1.25 1.25c-0.69 0-1.25-0.56-1.25-1.25 0-0.556 0.363-1.027 0.865-1.19zM15.907 12.105l-0.793-3.381 0.606-0.372c0.131 0.103 0.276 0.188 0.432 0.253l-0.245 3.499zM11.556 4.152l-2.697 3.4-2.193-2.314c0.082-0.158 0.142-0.329 0.177-0.51l4.629-0.72c0.026 0.049 0.055 0.097 0.086 0.144zM8.074 8.541l-3.31 4.173c-0.027-0.012-0.055-0.024-0.082-0.035l0.756-6.48c0.109-0.026 0.215-0.062 0.316-0.106l2.321 2.449zM9.892 10.459l-3.396 2.082 2.446-3.084 0.949 1.002zM6.13 14.232l4.641-2.845 3.357 3.542c-0.090 0.144-0.165 0.297-0.224 0.459l-7.682-0.768c-0.020-0.133-0.051-0.262-0.091-0.387zM4.728 14.221c0.014 0.036 0.031 0.071 0.052 0.105 0.025 0.041 0.055 0.079 0.088 0.112 0.085 0.169 0.133 0.359 0.133 0.561 0 0.69-0.56 1.25-1.25 1.25s-1.25-0.56-1.25-1.25c0-0.69 0.56-1.25 1.25-1.25 0.396 0 0.749 0.184 0.978 0.471zM4.375 4.375c0-0.345 0.28-0.625 0.625-0.625s0.625 0.28 0.625 0.625c0 0.345-0.28 0.625-0.625 0.625s-0.625-0.28-0.625-0.625zM16.25 6.875c0-0.345 0.28-0.625 0.625-0.625s0.625 0.28 0.625 0.625c0 0.345-0.28 0.625-0.625 0.625s-0.625-0.28-0.625-0.625z"></path>
</svg>
