<!-- Generated by IcoMoon.io -->
<svg version="1.1" xmlns="http://www.w3.org/2000/svg" width="32" height="32" viewBox="0 0 32 32">
<title>microphone</title>
<path d="M16 2c-3.352 0-6 2.648-6 6v8c0 3.352 2.648 6 6 6s6-2.648 6-6v-8c0-3.352-2.648-6-6-6zM12 8c0-2.248 1.752-4 4-4s4 1.752 4 4v8c0 2.248-1.752 4-4 4s-4-1.752-4-4v-8z"></path>
<path d="M7 15c0.552 0 1 0.448 1 1 0 4.448 3.552 8 8 8s8-3.552 8-8c0-0.552 0.448-1 1-1s1 0.448 1 1c0 5.215-3.923 9.455-9 9.951v2.049h2c0.552 0 1 0.448 1 1s-0.448 1-1 1h-6c-0.552 0-1-0.448-1-1s0.448-1 1-1h2v-2.049c-5.077-0.497-9-4.737-9-9.951 0-0.552 0.448-1 1-1z"></path>
</svg>
