<!-- Generated by IcoMoon.io -->
<svg version="1.1" xmlns="http://www.w3.org/2000/svg" width="20" height="20" viewBox="0 0 20 20">
<title>microphone</title>
<path d="M10 1.25c-2.095 0-3.75 1.655-3.75 3.75v5c0 2.095 1.655 3.75 3.75 3.75s3.75-1.655 3.75-3.75v-5c0-2.095-1.655-3.75-3.75-3.75zM7.5 5c0-1.405 1.095-2.5 2.5-2.5s2.5 1.095 2.5 2.5v5c0 1.405-1.095 2.5-2.5 2.5s-2.5-1.095-2.5-2.5v-5z"></path>
<path d="M4.375 9.375c0.345 0 0.625 0.28 0.625 0.625 0 2.78 2.22 5 5 5s5-2.22 5-5c0-0.345 0.28-0.625 0.625-0.625s0.625 0.28 0.625 0.625c0 3.259-2.452 5.909-5.625 6.22v1.28h1.25c0.345 0 0.625 0.28 0.625 0.625s-0.28 0.625-0.625 0.625h-3.75c-0.345 0-0.625-0.28-0.625-0.625s0.28-0.625 0.625-0.625h1.25v-1.28c-3.173-0.31-5.625-2.961-5.625-6.22 0-0.345 0.28-0.625 0.625-0.625z"></path>
</svg>
