<!-- Generated by IcoMoon.io -->
<svg version="1.1" xmlns="http://www.w3.org/2000/svg" width="20" height="20" viewBox="0 0 20 20">
<title>mobile-theme</title>
<path d="M11.912 12.419h3.325c0.087 0.004 0.175-0.009 0.256-0.041s0.156-0.080 0.218-0.141c0.062-0.062 0.11-0.136 0.141-0.218s0.045-0.169 0.041-0.256v-5.238c0.004-0.087-0.009-0.175-0.041-0.256s-0.080-0.156-0.141-0.218c-0.062-0.062-0.136-0.11-0.218-0.141s-0.169-0.045-0.256-0.041h-3.325c-0.174 0-0.341 0.069-0.464 0.192s-0.192 0.29-0.192 0.464 0.069 0.341 0.192 0.464c0.123 0.123 0.29 0.192 0.464 0.192h2.669v3.925h-2.669c-0.174 0-0.341 0.069-0.464 0.192s-0.192 0.29-0.192 0.464 0.069 0.341 0.192 0.464c0.123 0.123 0.29 0.192 0.464 0.192zM9.375 15.037h-3.963v-7.856h3.963v7.856zM10 5.869h-5.238c-0.085-0-0.169 0.017-0.247 0.050s-0.148 0.082-0.207 0.144c-0.058 0.061-0.104 0.134-0.133 0.213s-0.043 0.164-0.038 0.249v9.169c0 0.166 0.066 0.325 0.183 0.442s0.276 0.183 0.442 0.183h5.238c0.085 0.004 0.169-0.009 0.249-0.038s0.152-0.075 0.213-0.133c0.061-0.058 0.11-0.129 0.144-0.207s0.051-0.162 0.050-0.247v-9.169c0.004-0.087-0.009-0.175-0.041-0.256s-0.080-0.156-0.141-0.218c-0.062-0.062-0.136-0.11-0.218-0.141s-0.169-0.045-0.256-0.041zM19.163 2.594v14.406c0.001 0.258-0.049 0.513-0.148 0.752s-0.243 0.455-0.425 0.637c-0.182 0.182-0.399 0.327-0.638 0.425s-0.494 0.149-0.752 0.148h-14.375c-0.52 0-1.020-0.207-1.388-0.575s-0.575-0.867-0.575-1.388v-11.781c-0-0.516 0.202-1.011 0.563-1.379s0.852-0.58 1.368-0.59h5.894c0.174 0 0.341 0.069 0.464 0.192s0.192 0.29 0.192 0.464c0 0.174-0.069 0.341-0.192 0.464s-0.29 0.192-0.464 0.192h-5.894c-0.166 0-0.325 0.066-0.442 0.183s-0.183 0.276-0.183 0.442v11.813c0 0.166 0.066 0.325 0.183 0.442s0.276 0.183 0.442 0.183h14.406c0.085 0.004 0.169-0.009 0.249-0.038s0.152-0.075 0.213-0.133c0.061-0.058 0.11-0.129 0.144-0.207s0.051-0.162 0.050-0.247v-14.375c0-0.085-0.017-0.169-0.050-0.247s-0.082-0.148-0.144-0.207c-0.061-0.058-0.134-0.104-0.213-0.133s-0.164-0.043-0.249-0.038h-15.713c-0.174 0-0.341-0.069-0.464-0.192s-0.192-0.29-0.192-0.464c0-0.174 0.069-0.341 0.192-0.464s0.29-0.192 0.464-0.192h15.713c0.258 0 0.514 0.051 0.752 0.15s0.455 0.244 0.637 0.427 0.327 0.4 0.425 0.639c0.098 0.239 0.148 0.495 0.148 0.753v-0.062z"></path>
</svg>
