<!-- Generated by IcoMoon.io -->
<svg version="1.1" xmlns="http://www.w3.org/2000/svg" width="20" height="20" viewBox="0 0 20 20">
<title>moon</title>
<path d="M9.428 1.488c0.153 0.194 0.177 0.46 0.062 0.678-0.58 1.102-0.928 2.377-0.928 3.771 0 4.467 3.658 8.125 8.125 8.125 0.329 0 0.499-0.003 0.661-0.044 0.258-0.065 0.529 0.042 0.675 0.265s0.134 0.514-0.029 0.724c-1.611 2.081-4.101 3.43-6.932 3.43-4.845 0-8.75-3.905-8.75-8.75 0-4.036 2.757-7.473 6.471-8.418 0.239-0.061 0.492 0.025 0.645 0.219zM7.8 2.947c-2.493 1.182-4.238 3.768-4.238 6.741 0 4.155 3.345 7.5 7.5 7.5 1.908 0 3.639-0.715 4.967-1.898-4.853-0.341-8.717-4.416-8.717-9.352 0-1.061 0.175-2.065 0.488-2.991z"></path>
</svg>
