<!-- Generated by IcoMoon.io -->
<svg version="1.1" xmlns="http://www.w3.org/2000/svg" width="20" height="20" viewBox="0 0 20 20">
<title>moped</title>
<path d="M11.25 4.375c-0.345 0-0.625 0.28-0.625 0.625s0.28 0.625 0.625 0.625h1.387l1.014 4.055c-0.87 0.417-1.516 1.224-1.713 2.195h-2.176l-1.636-3.273v-0.477c0-1.381-1.119-2.5-2.5-2.5h-1.25c-1.381 0-2.5 1.119-2.5 2.5v1.25h3.125c-1.726 0-3.125 1.399-3.125 3.125s1.399 3.125 3.125 3.125c1.512 0 2.773-1.074 3.063-2.5h3.875c0.29 1.426 1.551 2.5 3.063 2.5 1.726 0 3.125-1.399 3.125-3.125s-1.399-3.125-3.125-3.125c-0.046 0-0.091 0.001-0.136 0.003l-1.251-5.003h-2.363zM13.965 10.936l0.429 1.715c0.084 0.335 0.423 0.538 0.758 0.455s0.538-0.423 0.455-0.758l-0.429-1.715c0.952 0.089 1.697 0.891 1.697 1.867 0 1.036-0.839 1.875-1.875 1.875s-1.875-0.839-1.875-1.875c0-0.653 0.334-1.228 0.84-1.564zM6.768 11.875h-1.768c-0.345 0-0.625 0.28-0.625 0.625s0.28 0.625 0.625 0.625h1.768c-0.257 0.728-0.952 1.25-1.768 1.25-1.036 0-1.875-0.839-1.875-1.875s0.839-1.875 1.875-1.875c0.816 0 1.511 0.522 1.768 1.25zM8.063 11.875c-0.29-1.426-1.551-2.5-3.063-2.5h2.114l1.25 2.5h-0.301zM5.625 6.875c0.69 0 1.25 0.56 1.25 1.25h-3.75c0-0.69 0.56-1.25 1.25-1.25h1.25z"></path>
</svg>
