<!-- Generated by IcoMoon.io -->
<svg version="1.1" xmlns="http://www.w3.org/2000/svg" width="20" height="20" viewBox="0 0 20 20">
<title>motobike</title>
<path d="M10.625 3.75c-0.345 0-0.625 0.28-0.625 0.625s0.28 0.625 0.625 0.625h1.413l0.262 0.852c-0.612-0.010-1.275 0.124-1.955 0.464-0.526 0.263-0.953 0.516-1.276 0.707-0.144 0.085-0.268 0.158-0.37 0.215-0.341 0.188-0.559 0.263-0.887 0.263-0.106 0-0.266-0.038-0.516-0.145-0.184-0.079-0.372-0.175-0.592-0.286-0.080-0.041-0.164-0.084-0.254-0.128-0.63-0.315-1.448-0.691-2.389-0.691h-1.563c-0.691 0-1.25 0.56-1.25 1.25s0.56 1.25 1.25 1.25h1.25c0.303 0 1.025 0.161 1.701 0.657-0.147-0.021-0.298-0.032-0.451-0.032-1.726 0-3.125 1.399-3.125 3.125s1.399 3.125 3.125 3.125c1.512 0 2.773-1.074 3.063-2.5h1.313c0.699 0 1.248-0.355 1.639-0.796 0.387-0.435 0.656-0.988 0.829-1.507 0.132-0.396 0.393-0.913 0.871-1.327 0.163-0.142 0.357-0.276 0.588-0.39l0.2 0.651c-0.969 0.531-1.627 1.56-1.627 2.743 0 1.726 1.399 3.125 3.125 3.125s3.125-1.399 3.125-3.125c0-1.726-1.399-3.125-3.125-3.125-0.102 0-0.203 0.005-0.303 0.014l-0.189-0.615c0.155-0.016 0.319-0.024 0.493-0.024h0.867l-0.274-0.823c-0.228-0.683-0.935-1.383-1.833-1.764-0.021-0.009-0.043-0.018-0.064-0.027l-0.734-2.386h-2.337zM13.883 10.994l0.52 1.69c0.102 0.33 0.451 0.515 0.781 0.414s0.515-0.451 0.414-0.781l-0.52-1.69c1 0.041 1.798 0.864 1.798 1.873 0 1.036-0.839 1.875-1.875 1.875s-1.875-0.839-1.875-1.875c0-0.617 0.298-1.164 0.758-1.506zM6.768 11.875h-1.768c-0.345 0-0.625 0.28-0.625 0.625s0.28 0.625 0.625 0.625h1.768c-0.257 0.728-0.952 1.25-1.768 1.25-1.036 0-1.875-0.839-1.875-1.875s0.839-1.875 1.875-1.875c0.816 0 1.511 0.522 1.768 1.25zM10.904 7.434c0.659-0.329 1.269-0.385 1.793-0.292l0.233 0.757c-0.401 0.175-0.744 0.398-1.035 0.651-0.694 0.602-1.058 1.335-1.238 1.876-0.139 0.418-0.339 0.803-0.577 1.072-0.234 0.263-0.467 0.376-0.705 0.376h-1.28c-0.152-1.571-0.873-2.647-1.726-3.337-0.929-0.752-2.004-1.037-2.619-1.038h0.312c0.622 0 1.21 0.249 1.83 0.559 0.070 0.035 0.142 0.072 0.216 0.109 0.23 0.117 0.472 0.24 0.697 0.336 0.297 0.127 0.645 0.246 1.008 0.246 0.61 0 1.038-0.17 1.489-0.417 0.161-0.089 0.313-0.179 0.475-0.275 0.301-0.178 0.635-0.377 1.129-0.624z"></path>
</svg>
