<!-- Generated by IcoMoon.io -->
<svg version="1.1" xmlns="http://www.w3.org/2000/svg" width="32" height="32" viewBox="0 0 32 32">
<title>motobike</title>
<path d="M17 6c-0.552 0-1 0.448-1 1s0.448 1 1 1h2.261l0.42 1.364c-0.98-0.016-2.040 0.198-3.128 0.742-0.842 0.421-1.525 0.825-2.042 1.131-0.231 0.137-0.429 0.254-0.592 0.343-0.546 0.3-0.895 0.42-1.419 0.42-0.169 0-0.425-0.060-0.825-0.232-0.294-0.126-0.596-0.279-0.947-0.457-0.128-0.065-0.263-0.134-0.406-0.205-1.008-0.504-2.317-1.106-3.822-1.106h-2.5c-1.105 0-2 0.896-2 2s0.895 2 2 2h2c0.484 0 1.64 0.258 2.722 1.052-0.236-0.034-0.477-0.052-0.722-0.052-2.761 0-5 2.239-5 5s2.239 5 5 5c2.419 0 4.437-1.718 4.9-4h2.1c1.119 0 1.996-0.569 2.622-1.273 0.618-0.696 1.049-1.58 1.326-2.411 0.211-0.634 0.629-1.46 1.394-2.123 0.262-0.227 0.572-0.441 0.94-0.624l0.32 1.042c-1.551 0.849-2.603 2.496-2.603 4.389 0 2.761 2.239 5 5 5s5-2.239 5-5c0-2.761-2.239-5-5-5-0.164 0-0.325 0.008-0.485 0.023l-0.303-0.985c0.248-0.025 0.51-0.039 0.788-0.039h1.387l-0.439-1.316c-0.364-1.093-1.497-2.213-2.933-2.823-0.034-0.014-0.068-0.029-0.103-0.043l-1.175-3.818h-3.739zM22.212 17.59l0.832 2.704c0.162 0.528 0.722 0.824 1.25 0.662s0.824-0.722 0.662-1.25l-0.832-2.703c1.599 0.065 2.876 1.382 2.876 2.997 0 1.657-1.343 3-3 3s-3-1.343-3-3c0-0.987 0.477-1.863 1.212-2.41zM10.829 19h-2.829c-0.552 0-1 0.448-1 1s0.448 1 1 1h2.829c-0.412 1.165-1.523 2-2.829 2-1.657 0-3-1.343-3-3s1.343-3 3-3c1.306 0 2.417 0.835 2.829 2zM17.447 11.894c1.054-0.527 2.031-0.616 2.869-0.467l0.373 1.212c-0.641 0.28-1.19 0.638-1.656 1.042-1.11 0.963-1.693 2.136-1.981 3.002-0.223 0.669-0.542 1.285-0.924 1.714-0.374 0.421-0.747 0.602-1.128 0.602h-2.047c-0.243-2.513-1.397-4.236-2.761-5.34-1.486-1.203-3.206-1.66-4.191-1.66h0.499c0.995 0 1.936 0.398 2.928 0.894 0.112 0.056 0.228 0.115 0.345 0.174 0.369 0.187 0.755 0.384 1.115 0.538 0.475 0.204 1.032 0.393 1.613 0.393 0.976 0 1.661-0.271 2.382-0.667 0.258-0.142 0.501-0.286 0.759-0.44 0.481-0.286 1.016-0.604 1.806-0.999z"></path>
</svg>
