<!-- Generated by IcoMoon.io -->
<svg version="1.1" xmlns="http://www.w3.org/2000/svg" width="32" height="32" viewBox="0 0 32 32">
<title>mouse</title>
<path d="M16 16c1.105 0 2-0.895 2-2s-0.895-2-2-2c-1.105 0-2 0.895-2 2s0.895 2 2 2z"></path>
<path d="M19 4c-1.148 0-2 0.852-2 2v1.056c4.486 0.501 8 4.33 8 8.944v5c0 4.952-4.048 9-9 9s-9-4.048-9-9v-5c0-4.614 3.514-8.443 8-8.944v-1.056c0-2.252 1.748-4 4-4h3c0.552 0 1 0.448 1 1s-0.448 1-1 1h-3zM16 9c-3.848 0-7 3.152-7 7v5c0 3.848 3.152 7 7 7s7-3.152 7-7v-5c0-3.848-3.152-7-7-7z"></path>
</svg>
