<!-- Generated by IcoMoon.io -->
<svg version="1.1" xmlns="http://www.w3.org/2000/svg" width="20" height="20" viewBox="0 0 20 20">
<title>mouse</title>
<path d="M10 10c0.69 0 1.25-0.56 1.25-1.25s-0.56-1.25-1.25-1.25c-0.69 0-1.25 0.56-1.25 1.25s0.56 1.25 1.25 1.25z"></path>
<path d="M11.875 2.5c-0.717 0-1.25 0.533-1.25 1.25v0.66c2.804 0.313 5 2.706 5 5.59v3.125c0 3.095-2.53 5.625-5.625 5.625s-5.625-2.53-5.625-5.625v-3.125c0-2.884 2.196-5.277 5-5.59v-0.66c0-1.408 1.092-2.5 2.5-2.5h1.875c0.345 0 0.625 0.28 0.625 0.625s-0.28 0.625-0.625 0.625h-1.875zM10 5.625c-2.405 0-4.375 1.97-4.375 4.375v3.125c0 2.405 1.97 4.375 4.375 4.375s4.375-1.97 4.375-4.375v-3.125c0-2.405-1.97-4.375-4.375-4.375z"></path>
</svg>
