<!-- Generated by IcoMoon.io -->
<svg version="1.1" xmlns="http://www.w3.org/2000/svg" width="20" height="20" viewBox="0 0 20 20">
<title>music</title>
<path d="M18.75 5.212c0-0.009 0-0.019 0-0.028v-3.934l-12.5 3.472v3.586c-0 0.009-0 0.019 0 0.028v4.986c-0.522-0.392-1.171-0.625-1.875-0.625-1.726 0-3.125 1.399-3.125 3.125s1.399 3.125 3.125 3.125c1.726 0 3.125-1.399 3.125-3.125v-7.025l10-2.778v4.177c-0.522-0.392-1.172-0.625-1.875-0.625-1.726 0-3.125 1.399-3.125 3.125s1.399 3.125 3.125 3.125 3.125-1.399 3.125-3.125v-7.486zM17.5 4.722l-10 2.778v-1.828l10-2.778v1.828zM13.75 12.697c0-1.036 0.839-1.875 1.875-1.875s1.875 0.839 1.875 1.875c0 1.036-0.839 1.875-1.875 1.875s-1.875-0.839-1.875-1.875zM2.5 15.822c0-1.036 0.839-1.875 1.875-1.875s1.875 0.839 1.875 1.875c0 1.036-0.839 1.875-1.875 1.875s-1.875-0.839-1.875-1.875z"></path>
</svg>
