<!-- Generated by IcoMoon.io -->
<svg version="1.1" xmlns="http://www.w3.org/2000/svg" width="20" height="20" viewBox="0 0 20 20">
<title>needle</title>
<path d="M12.5 1.25c-1.381 0-2.5 1.119-2.5 2.5 0 1.165 0.797 2.144 1.875 2.421v8.204c0 1.726-1.399 3.125-3.125 3.125s-3.125-1.399-3.125-3.125c0 0 0 0 0 0v-2.241l0.808 0.808 0.884-0.884-1.875-1.875c-0.179-0.179-0.448-0.232-0.681-0.136s-0.386 0.325-0.386 0.577v3.75c0 0 0 0 0 0 0 2.416 1.959 4.375 4.375 4.375s4.375-1.959 4.375-4.375v-8.204c1.078-0.278 1.875-1.256 1.875-2.421 0-1.381-1.119-2.5-2.5-2.5zM11.25 3.75c0-0.69 0.56-1.25 1.25-1.25s1.25 0.56 1.25 1.25c0 0.69-0.56 1.25-1.25 1.25s-1.25-0.56-1.25-1.25z"></path>
</svg>
