<!-- Generated by IcoMoon.io -->
<svg version="1.1" xmlns="http://www.w3.org/2000/svg" width="32" height="32" viewBox="0 0 32 32">
<title>needle</title>
<path d="M20 2c-2.209 0-4 1.791-4 4 0 1.864 1.275 3.43 3 3.874v13.126c0 2.761-2.239 5-5 5s-5-2.239-5-5c0 0 0 0 0 0v-3.586l1.293 1.293 1.414-1.414-3-3c-0.286-0.286-0.716-0.371-1.090-0.217s-0.617 0.52-0.617 0.924v6c0 0 0 0 0 0 0 3.866 3.134 7 7 7s7-3.134 7-7v-13.126c1.725-0.444 3-2.010 3-3.874 0-2.209-1.791-4-4-4zM18 6c0-1.105 0.895-2 2-2s2 0.895 2 2c0 1.105-0.895 2-2 2s-2-0.895-2-2z"></path>
</svg>
