<!-- Generated by IcoMoon.io -->
<svg version="1.1" xmlns="http://www.w3.org/2000/svg" width="20" height="20" viewBox="0 0 20 20">
<title>newspaper</title>
<path d="M3.75 3.75h8.125v5.625h-8.125v-5.625zM5 5v3.125h5.625v-3.125h-5.625z"></path>
<path d="M4.375 10.625c-0.345 0-0.625 0.28-0.625 0.625s0.28 0.625 0.625 0.625h6.875c0.345 0 0.625-0.28 0.625-0.625s-0.28-0.625-0.625-0.625h-6.875z"></path>
<path d="M3.75 13.75c0-0.345 0.28-0.625 0.625-0.625h2.5c0.345 0 0.625 0.28 0.625 0.625s-0.28 0.625-0.625 0.625h-2.5c-0.345 0-0.625-0.28-0.625-0.625z"></path>
<path d="M4.375 15c-0.345 0-0.625 0.28-0.625 0.625s0.28 0.625 0.625 0.625h2.5c0.345 0 0.625-0.28 0.625-0.625s-0.28-0.625-0.625-0.625h-2.5z"></path>
<path d="M8.125 13.75c0-0.345 0.28-0.625 0.625-0.625h2.5c0.345 0 0.625 0.28 0.625 0.625s-0.28 0.625-0.625 0.625h-2.5c-0.345 0-0.625-0.28-0.625-0.625z"></path>
<path d="M8.75 15c-0.345 0-0.625 0.28-0.625 0.625s0.28 0.625 0.625 0.625h2.5c0.345 0 0.625-0.28 0.625-0.625s-0.28-0.625-0.625-0.625h-2.5z"></path>
<path d="M14.375 1.25v5h4.375v10c0 1.408-1.092 2.5-2.5 2.5h-12.5c-1.408 0-2.5-1.092-2.5-2.5v-15h13.125zM13.125 2.5h-10.625v13.75c0 0.717 0.533 1.25 1.25 1.25h9.697c-0.206-0.365-0.322-0.791-0.322-1.25v-13.75zM15.625 17.5h0.625c0.717 0 1.25-0.533 1.25-1.25v-8.75h-3.125v8.75c0 0.717 0.533 1.25 1.25 1.25z"></path>
</svg>
