<!-- Generated by IcoMoon.io -->
<svg version="1.1" xmlns="http://www.w3.org/2000/svg" width="20" height="20" viewBox="0 0 20 20">
<title>nginx-ingress_1</title>
<path d="M18.631 7.837c-0.296-1.297-0.88-2.511-1.709-3.552s-1.881-1.882-3.079-2.461c-1.199-0.577-2.513-0.876-3.844-0.876s-2.644 0.299-3.844 0.876c-1.196 0.578-2.248 1.417-3.077 2.455s-1.413 2.25-1.711 3.545c-0.299 1.298-0.3 2.647-0.005 3.945s0.88 2.514 1.711 3.555c0.829 1.041 1.882 1.882 3.081 2.46s2.513 0.878 3.844 0.878c1.33 0.002 2.643-0.296 3.842-0.872s2.253-1.414 3.083-2.453c0.831-1.041 1.416-2.256 1.711-3.555s0.294-2.647-0.005-3.945zM10 3.8c1.505-0.002 2.955 0.562 4.063 1.581-0.138-0.011-0.277 0.008-0.408 0.054s-0.25 0.12-0.351 0.215c-0.101 0.095-0.18 0.211-0.234 0.339s-0.079 0.266-0.076 0.404c-0.044 1.444 1.725 1.75 0.769 4.65l-0.788 2.4-2.144-6.325c0-0.094 0-0.15 0.125-0.15h0.625c0.016-0.002 0.030-0.009 0.040-0.020s0.016-0.027 0.016-0.042v-0.356c0.001-0.008 0-0.016-0.002-0.023s-0.006-0.015-0.012-0.020c-0.005-0.006-0.012-0.011-0.019-0.014s-0.015-0.005-0.023-0.005c-1.15 0.050-2.294 0.050-3.425 0-0.017 0-0.033 0.007-0.044 0.018s-0.018 0.028-0.018 0.044v0.356c0.001 0.016 0.008 0.031 0.020 0.043s0.027 0.018 0.043 0.020h0.625c0.137 0 0.175 0.044 0.206 0.131l0.881 2.412-1.325 4.006-2.219-6.425c0-0.081 0-0.125 0.081-0.125h0.7c0.016-0.002 0.030-0.009 0.040-0.020s0.016-0.027 0.016-0.042v-0.356c0.001-0.008 0-0.016-0.002-0.023s-0.006-0.015-0.012-0.020c-0.005-0.006-0.012-0.011-0.019-0.014s-0.015-0.005-0.023-0.005c-0.731 0.037-1.463 0.044-2.15 0.056 0.545-0.842 1.292-1.534 2.173-2.013s1.868-0.73 2.871-0.731zM15.281 6.925c0.755 1.397 0.926 3.035 0.477 4.558s-1.484 2.805-2.877 3.567l1.875-5.306c0.334-0.905 0.512-1.86 0.525-2.825v0.006zM12.012 15.469c-1.209 0.425-2.522 0.456-3.75 0.088l1.875-5.306 1.875 5.219zM7.431 15.237c-1.429-0.676-2.534-1.887-3.077-3.371s-0.479-3.123 0.177-4.56l2.9 7.919v0.012zM10 2.931c1.36 0 2.689 0.403 3.82 1.159s2.012 1.829 2.532 3.085c0.52 1.256 0.657 2.639 0.391 3.972s-0.92 2.559-1.882 3.52c-0.962 0.961-2.187 1.616-3.52 1.882s-2.716 0.129-3.972-0.391c-1.256-0.52-2.33-1.402-3.085-2.532s-1.159-2.46-1.159-3.82c0-1.823 0.724-3.572 2.014-4.861s3.038-2.014 4.861-2.014z"></path>
</svg>
