<!-- Generated by IcoMoon.io -->
<svg version="1.1" xmlns="http://www.w3.org/2000/svg" width="20" height="20" viewBox="0 0 20 20">
<title>nginx</title>
<path d="M1.994 9.806v-4.338c-0.001-0.093 0.026-0.185 0.077-0.263s0.125-0.139 0.211-0.175c2.5-1.425 4.983-2.858 7.45-4.3 0.078-0.059 0.172-0.092 0.269-0.094 0.101-0.001 0.199 0.030 0.281 0.088l7.462 4.319c0.079 0.039 0.146 0.099 0.193 0.175s0.071 0.162 0.070 0.25v8.712c0 0.088-0.024 0.173-0.071 0.247s-0.113 0.134-0.192 0.171l-7.412 4.275c-0.093 0.060-0.202 0.092-0.313 0.092s-0.219-0.032-0.313-0.092l-7.425-4.281c-0.077-0.038-0.143-0.097-0.189-0.169s-0.072-0.157-0.073-0.243v-0.037c0-1.438 0-2.879 0-4.325l-0.025-0.012zM12.5 11.363l-0.163-0.194c-1.475-1.763-2.944-3.506-4.412-5.269-0.164-0.208-0.369-0.38-0.602-0.504s-0.49-0.2-0.754-0.221h-0.175c-0.308 0-0.604 0.122-0.822 0.34s-0.34 0.514-0.34 0.822v6.95c0 0.123 0.017 0.244 0.050 0.363 0.071 0.24 0.227 0.447 0.437 0.583s0.463 0.192 0.711 0.158c0.248-0.034 0.476-0.156 0.643-0.343s0.26-0.428 0.265-0.679v-5.162l0.162 0.194 4.444 5.319c0.174 0.198 0.388 0.357 0.629 0.465s0.502 0.163 0.765 0.16h0.156c0.293 0 0.575-0.117 0.782-0.324s0.324-0.489 0.324-0.782c0.003-0.025 0.003-0.050 0-0.075-0.031-0.506 0-1.006 0-1.513v-5.275c0.003-0.044 0.003-0.088 0-0.131 0.003-0.044 0.003-0.088 0-0.131-0.009-0.19-0.073-0.373-0.184-0.527s-0.264-0.273-0.441-0.342c-0.126-0.056-0.262-0.084-0.4-0.081-0.14-0.004-0.28 0.020-0.411 0.071s-0.25 0.128-0.35 0.226c-0.1 0.098-0.18 0.215-0.234 0.345s-0.081 0.268-0.081 0.409v5.15z"></path>
</svg>
