<!-- Generated by IcoMoon.io -->
<svg version="1.1" xmlns="http://www.w3.org/2000/svg" width="20" height="20" viewBox="0 0 20 20">
<title>nginx-ingress</title>
<path d="M18.006 5.494c0.001-0.088-0.023-0.175-0.070-0.25s-0.113-0.136-0.193-0.175l-7.463-4.344c-0.082-0.058-0.181-0.088-0.281-0.088-0.099-0.001-0.195 0.030-0.275 0.088-2.483 1.438-4.965 2.871-7.444 4.3-0.086 0.036-0.159 0.097-0.211 0.175s-0.078 0.169-0.077 0.263v4.344c0 1.442 0 2.883 0 4.325v0.050c-0.001 0.088 0.023 0.175 0.070 0.25s0.113 0.136 0.193 0.175l7.431 4.269c0.093 0.066 0.205 0.101 0.319 0.1 0.116-0.001 0.229-0.035 0.325-0.1l7.406-4.294c0.079-0.038 0.145-0.097 0.192-0.171s0.071-0.16 0.071-0.247v-8.669h0.006zM9.881 12.2c0.003 0.019 0.003 0.038 0 0.056 0 0.207-0.082 0.406-0.229 0.552s-0.345 0.229-0.552 0.229h-0.112c-0.188 0.003-0.375-0.036-0.546-0.115s-0.322-0.196-0.442-0.341l-3.125-3.75c-0.042-0.042-0.080-0.088-0.112-0.137v3.612c0 0.197-0.078 0.386-0.218 0.526s-0.329 0.218-0.526 0.218c-0.162-0.002-0.32-0.055-0.449-0.153s-0.224-0.235-0.27-0.391c-0.026-0.085-0.038-0.174-0.037-0.262v-4.938c0.002-0.218 0.089-0.426 0.244-0.579s0.363-0.239 0.581-0.239h0.125c0.187 0.016 0.368 0.069 0.534 0.157s0.311 0.209 0.429 0.355l3.125 3.75 0.119 0.137v-3.619c-0.001-0.097 0.018-0.194 0.054-0.284s0.091-0.172 0.159-0.241c0.069-0.069 0.15-0.124 0.24-0.161s0.186-0.057 0.284-0.057c0.096 0.002 0.192 0.021 0.281 0.056 0.129 0.047 0.241 0.132 0.321 0.244s0.125 0.244 0.129 0.381c0.003 0.031 0.003 0.063 0 0.094 0.004 0.031 0.004 0.063 0 0.094v3.75c-0.012 0.344-0.031 0.7-0.012 1.056h0.006zM16.756 9.806c0 0.082-0.016 0.163-0.048 0.239s-0.077 0.145-0.136 0.203-0.127 0.104-0.203 0.136c-0.076 0.031-0.157 0.048-0.239 0.048h-1.875v1.875c0 0.166-0.066 0.325-0.183 0.442s-0.276 0.183-0.442 0.183c-0.166 0-0.325-0.066-0.442-0.183s-0.183-0.276-0.183-0.442v-1.875h-1.875c-0.166 0-0.325-0.066-0.442-0.183s-0.183-0.276-0.183-0.442 0.066-0.325 0.183-0.442c0.117-0.117 0.276-0.183 0.442-0.183h1.875v-1.875c0-0.166 0.066-0.325 0.183-0.442s0.276-0.183 0.442-0.183 0.325 0.066 0.442 0.183c0.117 0.117 0.183 0.276 0.183 0.442v1.875h1.875c0.166 0 0.325 0.066 0.442 0.183s0.183 0.276 0.183 0.442z"></path>
</svg>
