<!-- Generated by IcoMoon.io -->
<svg version="1.1" xmlns="http://www.w3.org/2000/svg" width="32" height="32" viewBox="0 0 32 32">
<title>nginx</title>
<path d="M3.19 15.69v-6.94c-0.002-0.149 0.041-0.296 0.123-0.42s0.199-0.222 0.337-0.28c4-2.28 7.973-4.573 11.92-6.88 0.124-0.094 0.274-0.146 0.43-0.15 0.161-0.002 0.318 0.047 0.45 0.14l11.94 6.91c0.127 0.062 0.234 0.159 0.308 0.279s0.113 0.259 0.112 0.401v13.94c0 0.14-0.039 0.277-0.113 0.396s-0.181 0.214-0.307 0.274l-11.86 6.84c-0.149 0.096-0.323 0.148-0.5 0.148s-0.351-0.051-0.5-0.148l-11.88-6.85c-0.124-0.061-0.229-0.154-0.303-0.271s-0.115-0.251-0.117-0.389v-0.060c0-2.3 0-4.607 0-6.92l-0.040-0.020zM20 18.18l-0.26-0.31c-2.36-2.82-4.71-5.61-7.060-8.43-0.262-0.333-0.59-0.607-0.964-0.807s-0.784-0.32-1.206-0.353h-0.28c-0.493 0-0.966 0.196-1.315 0.545s-0.545 0.822-0.545 1.315v11.12c0.001 0.196 0.028 0.391 0.080 0.58 0.114 0.384 0.363 0.715 0.7 0.933s0.741 0.307 1.138 0.253c0.397-0.054 0.762-0.249 1.029-0.549s0.417-0.685 0.424-1.086v-8.26l0.26 0.31 7.11 8.51c0.278 0.317 0.621 0.571 1.006 0.744s0.802 0.26 1.224 0.256h0.25c0.469 0 0.92-0.186 1.252-0.518s0.518-0.782 0.518-1.252c0.005-0.040 0.005-0.080 0-0.12-0.050-0.81 0-1.61 0-2.42v-8.44c0.006-0.070 0.006-0.14 0-0.21 0.005-0.070 0.005-0.14 0-0.21-0.014-0.304-0.116-0.597-0.294-0.843s-0.423-0.437-0.706-0.547c-0.201-0.090-0.42-0.134-0.64-0.13-0.224-0.007-0.448 0.032-0.657 0.113s-0.4 0.204-0.56 0.361c-0.161 0.157-0.288 0.344-0.374 0.552s-0.13 0.43-0.129 0.654v8.24z"></path>
</svg>
