<!-- Generated by IcoMoon.io -->
<svg version="1.1" xmlns="http://www.w3.org/2000/svg" width="32" height="32" viewBox="0 0 32 32">
<title>nginx-ingress_1</title>
<path d="M29.81 12.54c-0.474-2.075-1.408-4.018-2.734-5.683s-3.010-3.011-4.926-3.937c-1.919-0.923-4.021-1.402-6.15-1.402s-4.231 0.479-6.15 1.402c-1.914 0.924-3.597 2.267-4.922 3.928s-2.261 3.6-2.738 5.672c-0.478 2.077-0.481 4.234-0.008 6.312s1.409 4.022 2.738 5.688c1.326 1.666 3.012 3.011 4.93 3.936s4.021 1.404 6.15 1.404c2.128 0.003 4.229-0.474 6.147-1.395s3.604-2.262 4.933-3.925c1.329-1.666 2.265-3.61 2.738-5.688s0.47-4.236-0.008-6.312zM16 6.080c2.408-0.003 4.728 0.9 6.5 2.53-0.221-0.017-0.444 0.013-0.653 0.087s-0.4 0.191-0.561 0.344c-0.161 0.153-0.288 0.337-0.374 0.542s-0.127 0.425-0.122 0.647c-0.070 2.31 2.76 2.8 1.23 7.44l-1.26 3.84-3.43-10.12c0-0.15 0-0.24 0.2-0.24h1c0.025-0.002 0.048-0.014 0.064-0.033s0.026-0.043 0.026-0.067v-0.57c0.001-0.013 0-0.025-0.004-0.037s-0.010-0.023-0.019-0.033c-0.009-0.009-0.019-0.017-0.031-0.022s-0.024-0.008-0.037-0.008c-1.84 0.080-3.67 0.080-5.48 0-0.027 0-0.052 0.011-0.071 0.029s-0.029 0.044-0.029 0.071v0.57c0.002 0.026 0.014 0.050 0.032 0.068s0.042 0.030 0.068 0.032h1c0.22 0 0.28 0.070 0.33 0.21l1.41 3.86-2.12 6.41-3.55-10.28c0-0.13 0-0.2 0.13-0.2h1.12c0.025-0.002 0.048-0.014 0.064-0.033s0.026-0.043 0.026-0.067v-0.57c0.001-0.013 0-0.025-0.004-0.037s-0.010-0.023-0.019-0.033c-0.008-0.009-0.019-0.017-0.031-0.022s-0.024-0.008-0.037-0.008c-1.17 0.060-2.34 0.070-3.44 0.090 0.872-1.347 2.068-2.454 3.477-3.221s2.988-1.169 4.593-1.169zM24.45 11.080c1.208 2.235 1.482 4.856 0.762 7.292s-2.374 4.488-4.602 5.708l3-8.49c0.535-1.448 0.819-2.976 0.84-4.52v0.010zM19.22 24.75c-1.935 0.68-4.035 0.729-6 0.14l3-8.49 3 8.35zM11.89 24.38c-2.286-1.081-4.055-3.018-4.923-5.393s-0.767-4.996 0.283-7.297l4.64 12.67v0.020zM16 4.69c2.176 0 4.302 0.645 6.111 1.854s3.219 2.927 4.051 4.937c0.832 2.010 1.050 4.222 0.626 6.355s-1.472 4.094-3.010 5.632c-1.538 1.538-3.498 2.586-5.632 3.010s-4.346 0.207-6.355-0.626c-2.010-0.833-3.728-2.242-4.937-4.051s-1.854-3.936-1.854-6.111c0-2.917 1.159-5.715 3.222-7.778s4.861-3.222 7.778-3.222z"></path>
</svg>
