<!-- Generated by IcoMoon.io -->
<svg version="1.1" xmlns="http://www.w3.org/2000/svg" width="20" height="20" viewBox="0 0 20 20">
<title>non-stop</title>
<path d="M4.692 4.708c2.943-2.943 7.673-2.943 10.616 0l0.683 0.683h-1.991c-0.345 0-0.625 0.28-0.625 0.625s0.28 0.625 0.625 0.625h3.491c0.006 0 0.012 0 0.018 0h0.616v-4.125c0-0.345-0.28-0.625-0.625-0.625s-0.625 0.28-0.625 0.625v1.991l-0.683-0.683c-3.432-3.432-8.952-3.432-12.384 0s-3.432 8.952 0 12.384c3.432 3.432 8.952 3.432 12.384 0 1.816-1.816 2.692-4.24 2.557-6.664-0.019-0.345-0.314-0.608-0.659-0.589s-0.608 0.314-0.589 0.659c0.115 2.076-0.633 4.152-2.193 5.711-2.943 2.943-7.673 2.943-10.616 0s-2.943-7.673 0-10.616z"></path>
<path d="M12.047 6.29c0.332 0.095 0.524 0.441 0.429 0.773l-1.022 3.578h1.046v-0.625c0-0.345 0.28-0.625 0.625-0.625s0.625 0.28 0.625 0.625v0.625h0.625c0.345 0 0.625 0.28 0.625 0.625s-0.28 0.625-0.625 0.625h-0.625v1.25c0 0.345-0.28 0.625-0.625 0.625s-0.625-0.28-0.625-0.625v-1.25h-2.704l1.478-5.172c0.095-0.332 0.441-0.524 0.773-0.429z"></path>
<path d="M6.25 8.766c0-0.778 0.519-1.25 0.938-1.25s0.938 0.472 0.938 1.25c0 0.289-0.119 0.595-0.37 0.941-0.252 0.349-0.6 0.689-0.988 1.042-0.080 0.073-0.163 0.147-0.247 0.222-0.302 0.271-0.618 0.555-0.868 0.826-0.301 0.328-0.653 0.789-0.653 1.343v0.625h3.75c0.345 0 0.625-0.28 0.625-0.625s-0.28-0.625-0.625-0.625h-2.056c0.18-0.183 0.392-0.373 0.629-0.585 0.091-0.082 0.186-0.167 0.285-0.257 0.393-0.358 0.826-0.772 1.16-1.234 0.336-0.464 0.607-1.025 0.607-1.674 0-1.222-0.856-2.5-2.188-2.5s-2.188 1.278-2.188 2.5c0 0.345 0.28 0.625 0.625 0.625s0.625-0.28 0.625-0.625z"></path>
</svg>
