<!-- Generated by IcoMoon.io -->
<svg version="1.1" xmlns="http://www.w3.org/2000/svg" width="32" height="32" viewBox="0 0 32 32">
<title>non-stop</title>
<path d="M7.507 7.532c4.71-4.709 12.276-4.709 16.986 0l1.093 1.093h-3.186c-0.552 0-1 0.448-1 1s0.448 1 1 1h5.586c0.009 0 0.019 0 0.028 0h0.986v-6.6c0-0.552-0.448-1-1-1s-1 0.448-1 1v3.186l-1.093-1.093c-5.491-5.491-14.324-5.491-19.814 0s-5.491 14.324 0 19.814c5.491 5.491 14.324 5.491 19.814 0 2.905-2.905 4.307-6.784 4.091-10.663-0.031-0.551-0.503-0.974-1.054-0.943s-0.974 0.502-0.943 1.054c0.185 3.321-1.014 6.642-3.509 9.137-4.71 4.709-12.276 4.709-16.986 0s-4.709-12.276 0-16.986z"></path>
<path d="M19.275 10.063c0.531 0.152 0.838 0.705 0.687 1.236l-1.636 5.725h1.674v-1c0-0.552 0.448-1 1-1s1 0.448 1 1v1h1c0.552 0 1 0.448 1 1s-0.448 1-1 1h-1v2c0 0.552-0.448 1-1 1s-1-0.448-1-1v-2h-4.326l2.364-8.275c0.152-0.531 0.705-0.839 1.236-0.687z"></path>
<path d="M10 14.025c0-1.245 0.831-2 1.5-2s1.5 0.755 1.5 2c0 0.462-0.191 0.952-0.592 1.506-0.403 0.558-0.961 1.102-1.581 1.667-0.128 0.116-0.26 0.235-0.395 0.356-0.483 0.433-0.99 0.888-1.388 1.322-0.482 0.525-1.044 1.263-1.044 2.149v1h6c0.552 0 1-0.448 1-1s-0.448-1-1-1h-3.289c0.288-0.292 0.627-0.596 1.006-0.936 0.146-0.131 0.298-0.268 0.456-0.411 0.629-0.573 1.322-1.235 1.856-1.974 0.537-0.743 0.971-1.64 0.971-2.678 0-1.955-1.369-4-3.5-4s-3.5 2.045-3.5 4c0 0.552 0.448 1 1 1s1-0.448 1-1z"></path>
</svg>
