<!-- Generated by IcoMoon.io -->
<svg version="1.1" xmlns="http://www.w3.org/2000/svg" width="32" height="32" viewBox="0 0 32 32">
<title>north</title>
<path d="M16 2c0.414 0 0.785 0.255 0.933 0.641l10 26c0.148 0.385 0.044 0.822-0.261 1.099s-0.75 0.339-1.119 0.154l-9.553-4.776-9.553 4.776c-0.369 0.185-0.814 0.123-1.119-0.154s-0.409-0.714-0.261-1.099l10-26c0.149-0.386 0.52-0.641 0.933-0.641zM7.859 26.953l7.694-3.847c0.281-0.141 0.613-0.141 0.894 0l7.694 3.847-8.141-21.167-8.141 21.167z"></path>
</svg>
