<!-- Generated by IcoMoon.io -->
<svg version="1.1" xmlns="http://www.w3.org/2000/svg" width="20" height="20" viewBox="0 0 20 20">
<title>north</title>
<path d="M10 1.25c0.259 0 0.491 0.159 0.583 0.401l6.25 16.25c0.093 0.241 0.028 0.514-0.163 0.687s-0.469 0.212-0.7 0.096l-5.971-2.985-5.97 2.985c-0.231 0.115-0.509 0.077-0.7-0.096s-0.256-0.446-0.163-0.687l6.25-16.25c0.093-0.241 0.325-0.401 0.583-0.401zM4.912 16.845l4.809-2.404c0.176-0.088 0.383-0.088 0.559 0l4.809 2.404-5.088-13.229-5.088 13.229z"></path>
</svg>
