<!-- Generated by IcoMoon.io -->
<svg version="1.1" xmlns="http://www.w3.org/2000/svg" width="20" height="20" viewBox="0 0 20 20">
<title>notebook</title>
<path d="M10.625 3.75c0 0.345-0.28 0.625-0.625 0.625s-0.625-0.28-0.625-0.625c0-0.345 0.28-0.625 0.625-0.625s0.625 0.28 0.625 0.625z"></path>
<path d="M5 12.5c-0.345 0-0.625 0.28-0.625 0.625s0.28 0.625 0.625 0.625h10c0.345 0 0.625-0.28 0.625-0.625s-0.28-0.625-0.625-0.625h-10z"></path>
<path d="M8.125 15.625c0-0.345 0.28-0.625 0.625-0.625h2.5c0.345 0 0.625 0.28 0.625 0.625s-0.28 0.625-0.625 0.625h-2.5c-0.345 0-0.625-0.28-0.625-0.625z"></path>
<path d="M2.5 3.75c0-1.408 1.092-2.5 2.5-2.5h10c1.408 0 2.5 1.092 2.5 2.5v6.806l1.106 4.975c0.472 1.626-0.677 3.219-2.356 3.219h-12.5c-1.649 0-2.9-1.566-2.417-3.223l1.167-4.975v-6.803zM5 2.5c-0.717 0-1.25 0.533-1.25 1.25v6.25h12.5v-6.25c0-0.717-0.533-1.25-1.25-1.25h-10zM3.62 11.25l-1.079 4.599-0.005 0.018c-0.251 0.837 0.369 1.633 1.214 1.633h12.5c0.813 0 1.411-0.767 1.151-1.633l-0.007-0.022-1.021-4.595h-12.753z"></path>
</svg>
