<!-- Generated by IcoMoon.io -->
<svg version="1.1" xmlns="http://www.w3.org/2000/svg" width="32" height="32" viewBox="0 0 32 32">
<title>notebook</title>
<path d="M17 6c0 0.552-0.448 1-1 1s-1-0.448-1-1c0-0.552 0.448-1 1-1s1 0.448 1 1z"></path>
<path d="M8 20c-0.552 0-1 0.448-1 1s0.448 1 1 1h16c0.552 0 1-0.448 1-1s-0.448-1-1-1h-16z"></path>
<path d="M13 25c0-0.552 0.448-1 1-1h4c0.552 0 1 0.448 1 1s-0.448 1-1 1h-4c-0.552 0-1-0.448-1-1z"></path>
<path d="M4 6c0-2.252 1.748-4 4-4h16c2.252 0 4 1.748 4 4v10.89l1.769 7.96c0.756 2.601-1.083 5.15-3.769 5.15h-20c-2.639 0-4.641-2.506-3.867-5.156l1.867-7.959v-10.884zM8 4c-1.148 0-2 0.852-2 2v10h20v-10c0-1.148-0.852-2-2-2h-16zM5.793 18l-1.726 7.358-0.009 0.029c-0.402 1.338 0.591 2.613 1.942 2.613h20c1.301 0 2.258-1.227 1.842-2.613l-0.011-0.035-1.634-7.352h-20.405z"></path>
</svg>
