<!-- Generated by IcoMoon.io -->
<svg version="1.1" xmlns="http://www.w3.org/2000/svg" width="20" height="20" viewBox="0 0 20 20">
<title>ok-circle</title>
<path d="M14.192 7.942c0.244-0.244 0.244-0.64 0-0.884s-0.64-0.244-0.884 0l-5.183 5.183-2.058-2.058c-0.244-0.244-0.64-0.244-0.884 0s-0.244 0.64 0 0.884l2.942 2.942 6.067-6.067z"></path>
<path d="M10 1.25c-4.832 0-8.75 3.918-8.75 8.75s3.918 8.75 8.75 8.75c4.832 0 8.75-3.918 8.75-8.75s-3.918-8.75-8.75-8.75zM2.5 10c0-4.142 3.358-7.5 7.5-7.5s7.5 3.358 7.5 7.5c0 4.142-3.358 7.5-7.5 7.5s-7.5-3.358-7.5-7.5z"></path>
</svg>
