<!-- Generated by IcoMoon.io -->
<svg version="1.1" xmlns="http://www.w3.org/2000/svg" width="20" height="20" viewBox="0 0 20 20">
<title>ok-square</title>
<path d="M15.444 7.315c0.243-0.245 0.241-0.641-0.004-0.884s-0.641-0.241-0.884 0.004l-6.366 6.425-2.744-2.797c-0.242-0.246-0.637-0.25-0.884-0.009s-0.25 0.637-0.009 0.884l3.631 3.703 7.259-7.325z"></path>
<path d="M3.75 1.25c-1.408 0-2.5 1.092-2.5 2.5v12.5c0 1.408 1.092 2.5 2.5 2.5h12.5c1.408 0 2.5-1.092 2.5-2.5v-12.5c0-1.408-1.092-2.5-2.5-2.5h-12.5zM2.5 3.75c0-0.717 0.533-1.25 1.25-1.25h12.5c0.717 0 1.25 0.533 1.25 1.25v12.5c0 0.717-0.533 1.25-1.25 1.25h-12.5c-0.717 0-1.25-0.533-1.25-1.25v-12.5z"></path>
</svg>
