<!-- Generated by IcoMoon.io -->
<svg version="1.1" xmlns="http://www.w3.org/2000/svg" width="32" height="32" viewBox="0 0 32 32">
<title>opsgenie</title>
<path d="M15.97 15.67c3.861 0 6.99-3.13 6.99-6.99s-3.13-6.99-6.99-6.99c-3.861 0-6.99 3.13-6.99 6.99s3.13 6.99 6.99 6.99z"></path>
<path d="M27.33 16.89l-5.33-2.62c-0.177-0.078-0.377-0.089-0.561-0.030s-0.341 0.184-0.439 0.35c-1.349 2.274-3.035 4.331-5 6.1-1.965-1.758-3.651-3.805-5-6.070-0.097-0.168-0.253-0.294-0.438-0.353s-0.385-0.047-0.562 0.033l-5.29 2.6c-0.178 0.103-0.309 0.271-0.365 0.469s-0.033 0.41 0.065 0.591c2.678 4.673 6.436 8.637 10.96 11.56 0.178 0.113 0.384 0.173 0.595 0.173s0.417-0.060 0.595-0.173c4.566-2.911 8.364-6.88 11.070-11.57 0.098-0.181 0.121-0.393 0.065-0.591s-0.187-0.366-0.365-0.469z"></path>
</svg>
