<!-- Generated by IcoMoon.io -->
<svg version="1.1" xmlns="http://www.w3.org/2000/svg" width="20" height="20" viewBox="0 0 20 20">
<title>opsgenie</title>
<path d="M9.981 9.794c2.413 0 4.369-1.956 4.369-4.369s-1.956-4.369-4.369-4.369c-2.413 0-4.369 1.956-4.369 4.369s1.956 4.369 4.369 4.369z"></path>
<path d="M17.081 10.556l-3.331-1.638c-0.111-0.049-0.235-0.056-0.351-0.019s-0.213 0.115-0.274 0.219c-0.843 1.421-1.897 2.707-3.125 3.813-1.228-1.099-2.282-2.378-3.125-3.794-0.061-0.105-0.158-0.184-0.274-0.221s-0.241-0.030-0.351 0.021l-3.306 1.625c-0.111 0.064-0.193 0.169-0.228 0.293s-0.020 0.256 0.041 0.369c1.674 2.921 4.023 5.398 6.85 7.225 0.111 0.071 0.24 0.108 0.372 0.108s0.261-0.038 0.372-0.108c2.854-1.819 5.227-4.3 6.919-7.231 0.061-0.113 0.076-0.246 0.041-0.369s-0.117-0.229-0.228-0.293z"></path>
</svg>
