<!-- Generated by IcoMoon.io -->
<svg version="1.1" xmlns="http://www.w3.org/2000/svg" width="32" height="32" viewBox="0 0 32 32">
<title>orchestrator</title>
<path d="M27.090 17.26c0.002 2.548-0.752 5.039-2.166 7.159s-3.425 3.772-5.778 4.748c-2.353 0.976-4.943 1.233-7.442 0.737s-4.795-1.722-6.597-3.523-3.030-4.096-3.528-6.595c-0.498-2.499-0.243-5.089 0.731-7.443s2.625-4.366 4.744-5.782c2.118-1.416 4.609-2.171 7.157-2.171 3.416 0 6.692 1.357 9.107 3.772s3.773 5.692 3.773 9.108v-0.010zM14.21 10.11c-1.414 0-2.796 0.419-3.972 1.205s-2.092 1.902-2.633 3.209-0.683 2.744-0.407 4.131c0.276 1.387 0.957 2.661 1.957 3.661s2.274 1.681 3.661 1.957 2.825 0.134 4.131-0.407c1.306-0.541 2.423-1.458 3.209-2.633s1.205-2.558 1.205-3.972c0-1.896-0.753-3.715-2.094-5.056s-3.16-2.094-5.056-2.094zM27.27 1.23c-0.67 0.002-1.325 0.202-1.881 0.576s-0.989 0.904-1.244 1.523c-0.255 0.62-0.321 1.301-0.189 1.958s0.456 1.26 0.93 1.733 1.079 0.795 1.736 0.925c0.657 0.13 1.338 0.062 1.957-0.195s1.148-0.691 1.52-1.249c0.372-0.557 0.571-1.212 0.571-1.882 0-0.899-0.357-1.761-0.993-2.397s-1.498-0.993-2.397-0.993h-0.010z"></path>
</svg>
