<!-- Generated by IcoMoon.io -->
<svg version="1.1" xmlns="http://www.w3.org/2000/svg" width="20" height="20" viewBox="0 0 20 20">
<title>orchestrator</title>
<path d="M16.931 10.788c0.001 1.592-0.47 3.149-1.354 4.474s-2.141 2.357-3.611 2.968c-1.471 0.61-3.090 0.771-4.652 0.461s-2.997-1.076-4.123-2.202-1.894-2.56-2.205-4.122c-0.311-1.562-0.152-3.181 0.457-4.652s1.641-2.729 2.965-3.614c1.324-0.885 2.881-1.357 4.473-1.357 2.135 0 4.183 0.848 5.692 2.358s2.358 3.557 2.358 5.692v-0.006zM8.881 6.319c-0.884 0-1.748 0.262-2.483 0.753s-1.308 1.189-1.646 2.006-0.427 1.715-0.254 2.582c0.172 0.867 0.598 1.663 1.223 2.288s1.421 1.051 2.288 1.223 1.765 0.084 2.582-0.254c0.817-0.338 1.514-0.911 2.006-1.646s0.753-1.599 0.753-2.483c0-1.185-0.471-2.322-1.309-3.16s-1.975-1.309-3.16-1.309zM17.044 0.769c-0.419 0.001-0.828 0.127-1.175 0.36s-0.618 0.565-0.778 0.952c-0.159 0.387-0.201 0.813-0.118 1.224s0.285 0.788 0.581 1.083 0.674 0.497 1.085 0.578c0.411 0.081 0.837 0.039 1.223-0.122s0.717-0.432 0.95-0.78c0.232-0.348 0.357-0.758 0.357-1.176 0-0.562-0.223-1.101-0.621-1.498s-0.936-0.621-1.498-0.621h-0.006z"></path>
</svg>
