<!-- Generated by IcoMoon.io -->
<svg version="1.1" xmlns="http://www.w3.org/2000/svg" width="20" height="20" viewBox="0 0 20 20">
<title>paint-roller</title>
<path d="M16.25 3.75c0-1.408-1.092-2.5-2.5-2.5h-10c-1.408 0-2.5 1.092-2.5 2.5v1.25c0 1.408 1.092 2.5 2.5 2.5h10c1.408 0 2.5-1.092 2.5-2.5h0.625c0.342 0 0.625 0.283 0.625 0.625v3.125c0 0.342-0.283 0.625-0.625 0.625h-6.25c-1.408 0-2.5 1.092-2.5 2.5v6.25c0 0.345 0.28 0.625 0.625 0.625s0.625-0.28 0.625-0.625v-6.25c0-0.717 0.533-1.25 1.25-1.25h6.25c1.033 0 1.875-0.842 1.875-1.875v-3.125c0-1.033-0.842-1.875-1.875-1.875h-0.625zM2.5 3.75c0-0.717 0.533-1.25 1.25-1.25h10c0.717 0 1.25 0.533 1.25 1.25v1.25c0 0.717-0.533 1.25-1.25 1.25h-10c-0.717 0-1.25-0.533-1.25-1.25v-1.25z"></path>
</svg>
