<!-- Generated by IcoMoon.io -->
<svg version="1.1" xmlns="http://www.w3.org/2000/svg" width="20" height="20" viewBox="0 0 20 20">
<title>palette</title>
<path d="M5.622 13.122c0-1.381 1.119-2.5 2.5-2.5s2.5 1.119 2.5 2.5c0 1.381-1.119 2.5-2.5 2.5s-2.5-1.119-2.5-2.5zM8.122 11.872c-0.69 0-1.25 0.56-1.25 1.25s0.56 1.25 1.25 1.25c0.69 0 1.25-0.56 1.25-1.25s-0.56-1.25-1.25-1.25z"></path>
<path d="M10.935 4.997c0 0.518-0.42 0.938-0.938 0.938s-0.938-0.42-0.938-0.938c0-0.518 0.42-0.938 0.938-0.938s0.938 0.42 0.938 0.938z"></path>
<path d="M6.247 7.81c0.518 0 0.938-0.42 0.938-0.938s-0.42-0.938-0.938-0.938c-0.518 0-0.938 0.42-0.938 0.938s0.42 0.938 0.938 0.938z"></path>
<path d="M14.685 6.872c0 0.518-0.42 0.938-0.938 0.938s-0.938-0.42-0.938-0.938c0-0.518 0.42-0.938 0.938-0.938s0.938 0.42 0.938 0.938z"></path>
<path d="M11.004 1.314c3.906 0.406 7.131 3.56 7.612 7.465 0.134 0.75 0.133 1.429 0.066 2.093l-0.001 0.010-0.001 0.010c-0.164 1.229-1.224 2.23-2.494 2.23h-1.813c-0.717 0-1.25 0.533-1.25 1.25v1.875c0 1.345-1.015 2.332-2.23 2.494l-0.010 0.001-0.010 0.001c-0.659 0.066-1.312 0.006-1.948-0.052l-0.122-0.011-0.014-0.002c-3.914-0.54-7.002-3.77-7.473-7.669l-0-0.001c-0.673-5.65 4.040-10.365 9.69-9.695zM2.555 10.86c0.404 3.346 3.059 6.112 6.388 6.578l0.049 0.004c0.671 0.061 1.211 0.11 1.745 0.058 0.655-0.092 1.135-0.602 1.135-1.254v-1.875c0-1.408 1.092-2.5 2.5-2.5h1.813c0.602 0 1.164-0.494 1.254-1.136 0.057-0.577 0.055-1.139-0.057-1.752l-0.003-0.018-0.002-0.019c-0.402-3.334-3.171-6.046-6.506-6.391l-0.005-0-0.005-0.001c-4.848-0.577-8.882 3.457-8.306 8.305z"></path>
</svg>
