<!-- Generated by IcoMoon.io -->
<svg version="1.1" xmlns="http://www.w3.org/2000/svg" width="32" height="32" viewBox="0 0 32 32">
<title>papertrail</title>
<path d="M1.33 11.59c3.711-2.667 7.949-4.512 12.43-5.41h0.2c1.987-0.414 4.010-0.632 6.040-0.65l-2.13 2h0.8c2.020-0.155 4.025-0.459 6-0.91h-0.27c1.655-0.265 3.242-0.853 4.67-1.73h-0.050c0.36-0.26 0.67-0.57 1-0.88-0.020 0.144-0.057 0.285-0.11 0.42-0.57 1.855-1.602 3.534-3 4.88-1.001 0.899-2.11 1.672-3.3 2.3h-0.080c-2.201 1.191-4.516 2.159-6.91 2.89l-0.28 0.070c-1.62 0.51-3.28 0.91-4.92 1.34h-0.020c-0.098-0.003-0.193-0.038-0.27-0.1-1.246-1.12-2.66-2.038-4.19-2.72h-0.1c-1.715-0.778-3.553-1.252-5.43-1.4h-0.070l-0.010-0.1zM13.26 18.11c-0.308-0.433-0.642-0.848-1-1.24 4.997-1.528 10.195-2.297 15.42-2.28 1 0 2 0 3 0.080h-0.14c-0.16-0.015-0.321 0.020-0.46 0.1-1.26 0.41-2.56 0.77-3.8 1.25-3.593 1.451-7.079 3.155-10.43 5.1l0.41-0.22c-0.21 0.11-0.43 0.2-0.63 0.32s-0.32 0.11-0.48-0.12c-0.6-1-1.23-2-1.88-2.95l-0.010-0.040zM17.18 27.34h-0.090c-0.171-1.616-0.575-3.2-1.2-4.7v0.11l9.61-4.060c0.001 0.018 0.007 0.035 0.018 0.049s0.025 0.025 0.042 0.031c-2.78 2.82-5.56 5.69-8.38 8.57z"></path>
</svg>
