<!-- Generated by IcoMoon.io -->
<svg version="1.1" xmlns="http://www.w3.org/2000/svg" width="20" height="20" viewBox="0 0 20 20">
<title>papertrail</title>
<path d="M0.831 7.244c2.319-1.667 4.968-2.82 7.769-3.381h0.125c1.242-0.259 2.506-0.395 3.775-0.406l-1.331 1.25h0.5c1.262-0.097 2.516-0.287 3.75-0.569h-0.169c1.034-0.166 2.026-0.533 2.919-1.081h-0.031c0.225-0.163 0.419-0.356 0.625-0.55-0.013 0.090-0.036 0.178-0.069 0.263-0.356 1.159-1.001 2.209-1.875 3.050-0.626 0.562-1.318 1.045-2.063 1.438h-0.050c-1.376 0.744-2.823 1.349-4.319 1.806l-0.175 0.044c-1.013 0.319-2.050 0.569-3.075 0.838h-0.013c-0.062-0.002-0.121-0.024-0.169-0.063-0.779-0.7-1.662-1.274-2.619-1.7h-0.063c-1.072-0.486-2.22-0.782-3.394-0.875h-0.044l-0.006-0.062zM8.287 11.319c-0.192-0.271-0.401-0.53-0.625-0.775 3.123-0.955 6.372-1.436 9.638-1.425 0.625 0 1.25 0 1.875 0.050h-0.088c-0.1-0.010-0.201 0.012-0.288 0.063-0.787 0.256-1.6 0.481-2.375 0.781-2.246 0.907-4.424 1.972-6.519 3.188l0.256-0.137c-0.131 0.069-0.269 0.125-0.394 0.2s-0.2 0.069-0.3-0.075c-0.375-0.625-0.769-1.25-1.175-1.844l-0.006-0.025zM10.738 17.087h-0.056c-0.107-1.010-0.359-2-0.75-2.937v0.069l6.006-2.537c0.001 0.011 0.004 0.022 0.011 0.031s0.016 0.016 0.026 0.019c-1.738 1.762-3.475 3.556-5.237 5.356z"></path>
</svg>
