<!-- Generated by IcoMoon.io -->
<svg version="1.1" xmlns="http://www.w3.org/2000/svg" width="20" height="20" viewBox="0 0 20 20">
<title>paragraph</title>
<path d="M1.25 6.25c0 2.783 2.217 5 5 5h0.625v7.5c0 0.345 0.28 0.625 0.625 0.625s0.625-0.28 0.625-0.625v-16.25h3.75v16.25c0 0.345 0.28 0.625 0.625 0.625s0.625-0.28 0.625-0.625v-16.25h5c0.345 0 0.625-0.28 0.625-0.625s-0.28-0.625-0.625-0.625h-11.875c-2.783 0-5 2.217-5 5zM6.25 2.5h0.625v7.5h-0.625c-2.092 0-3.75-1.658-3.75-3.75s1.658-3.75 3.75-3.75z"></path>
</svg>
