<!-- Generated by IcoMoon.io -->
<svg version="1.1" xmlns="http://www.w3.org/2000/svg" width="20" height="20" viewBox="0 0 20 20">
<title>parcel-down</title>
<path d="M10 8.16c0.345 0 0.625 0.28 0.625 0.625v3.491l1.433-1.433c0.244-0.244 0.64-0.244 0.884 0s0.244 0.64 0 0.884l-2.942 2.942-2.942-2.942c-0.244-0.244-0.244-0.64 0-0.884s0.64-0.244 0.884 0l1.433 1.433v-3.491c0-0.345 0.28-0.625 0.625-0.625z"></path>
<path d="M17.008 3.691c0.261 0.081 0.498 0.198 0.708 0.344 0.247 0.011 0.474 0.17 0.562 0.417 0.020 0.058 0.032 0.116 0.035 0.174 0.281 0.4 0.438 0.885 0.438 1.408v8.125c0 1.038-0.753 2.014-1.74 2.343l-6.803 2.247c-0.008 0.003-0.015 0.005-0.023 0.008l-0.187 0.062-0.187-0.063c-0.008-0.002-0.015-0.005-0.023-0.008l-6.793-2.306c-1.066-0.332-1.745-1.257-1.745-2.344v-8.125c0-0.535 0.163-1.023 0.449-1.43 0.006-0.030 0.014-0.060 0.024-0.090 0.070-0.199 0.231-0.341 0.42-0.395 0.237-0.2 0.513-0.364 0.82-0.482l7.042-2.327 3.526 1.229c0.206-0.031 0.412 0.043 0.55 0.192l2.926 1.020zM10.625 17.295l5.991-1.979c0.513-0.172 0.884-0.695 0.884-1.157v-8.125c0-0.216-0.052-0.419-0.151-0.594l-5.33 1.871c-0.326 0.114-0.682-0.057-0.797-0.383s0.057-0.682 0.383-0.797l4.289-1.506-2.378-0.829-5.879 2.069 0.756 0.265c0.326 0.114 0.497 0.471 0.383 0.797s-0.471 0.497-0.797 0.383l-1.543-0.542v1.389c0 0.345-0.28 0.625-0.625 0.625s-0.625-0.28-0.625-0.625v-1.828l-2.566-0.901c-0.081 0.167-0.122 0.351-0.122 0.541v8.125c0 0.535 0.318 0.982 0.871 1.153l0.009 0.003 5.995 2.035v-1.003c0-0.345 0.28-0.625 0.625-0.625s0.625 0.28 0.625 0.625v1.010zM9.995 2.57l-6.054 1.999 1.813 0.636 5.872-2.067-1.631-0.569z"></path>
</svg>
