<!-- Generated by IcoMoon.io -->
<svg version="1.1" xmlns="http://www.w3.org/2000/svg" width="20" height="20" viewBox="0 0 20 20">
<title>parcel</title>
<path d="M10.005 1.25l3.526 1.229c0.206-0.031 0.412 0.043 0.55 0.192l2.926 1.020c0.261 0.081 0.498 0.198 0.708 0.344 0.248 0.011 0.475 0.17 0.562 0.418 0.020 0.057 0.031 0.116 0.034 0.173 0.281 0.4 0.438 0.885 0.438 1.408v8.125c0 1.038-0.753 2.014-1.74 2.343l-0.002 0.001-6.803 2.247c-0.007 0.002-0.013 0.004-0.020 0.007l-0.189 0.062-0.188-0.064c-0.007-0.002-0.013-0.004-0.020-0.007l-6.795-2.306c-1.066-0.332-1.745-1.257-1.745-2.344v-8.125c0-0.535 0.163-1.023 0.449-1.43 0.006-0.030 0.014-0.059 0.024-0.089 0.070-0.2 0.231-0.342 0.42-0.395 0.237-0.2 0.513-0.364 0.82-0.482l0.014-0.005 7.028-2.321zM10.625 17.295l5.991-1.979c0.513-0.172 0.884-0.695 0.884-1.157v-8.125c0-0.217-0.052-0.419-0.151-0.594l-6.724 2.351v9.504zM9.375 7.791l-2.938-1.027v2.646c0 0.345-0.28 0.625-0.625 0.625s-0.625-0.28-0.625-0.625v-3.083l-2.565-0.897c-0.081 0.167-0.122 0.351-0.122 0.542v8.125c0 0.535 0.318 0.982 0.871 1.153l6.004 2.038v-9.497zM9.995 2.57l-6.051 1.998 1.816 0.635 5.865-2.065-1.631-0.569zM13.517 3.798l-5.868 2.066 2.351 0.822 5.892-2.060-2.374-0.828z"></path>
</svg>
