<!-- Generated by IcoMoon.io -->
<svg version="1.1" xmlns="http://www.w3.org/2000/svg" width="20" height="20" viewBox="0 0 20 20">
<title>parking</title>
<path d="M10 4.375h-3.75v10.625c0 0.345 0.28 0.625 0.625 0.625s0.625-0.28 0.625-0.625v-3.125h2.5c2.095 0 3.75-1.655 3.75-3.75s-1.655-3.75-3.75-3.75zM10 10.625h-2.5v-5h2.5c1.405 0 2.5 1.095 2.5 2.5s-1.095 2.5-2.5 2.5z"></path>
<path d="M4.375 1.875c-1.408 0-2.5 1.092-2.5 2.5v11.25c0 1.408 1.092 2.5 2.5 2.5h11.25c1.408 0 2.5-1.092 2.5-2.5v-11.25c0-1.408-1.092-2.5-2.5-2.5h-11.25zM3.125 4.375c0-0.717 0.533-1.25 1.25-1.25h11.25c0.717 0 1.25 0.533 1.25 1.25v11.25c0 0.717-0.533 1.25-1.25 1.25h-11.25c-0.717 0-1.25-0.533-1.25-1.25v-11.25z"></path>
</svg>
