<!-- Generated by IcoMoon.io -->
<svg version="1.1" xmlns="http://www.w3.org/2000/svg" width="20" height="20" viewBox="0 0 20 20">
<title>parking-off</title>
<path d="M2.317 1.433l9.177 9.177c0.007 0.007 0.014 0.014 0.021 0.021l7.052 7.052c0.244 0.244 0.244 0.64 0 0.884s-0.64 0.244-0.884 0l-0.785-0.785c-0.39 0.236-0.843 0.343-1.273 0.343h-11.25c-1.408 0-2.5-1.092-2.5-2.5v-11.25c0-0.43 0.107-0.883 0.343-1.273l-0.785-0.785c-0.244-0.244-0.244-0.64 0-0.884s0.64-0.244 0.884 0zM6.25 7.134l-3.085-3.085c-0.026 0.101-0.040 0.211-0.040 0.326v11.25c0 0.717 0.533 1.25 1.25 1.25h11.25c0.115 0 0.225-0.014 0.326-0.040l-5.063-5.064c-0.289 0.070-0.592 0.103-0.888 0.103h-2.5v3.125c0 0.345-0.28 0.625-0.625 0.625s-0.625-0.28-0.625-0.625v-7.866zM7.5 8.384v2.241h2.241l-2.241-2.241z"></path>
<path d="M5.625 1.875c-0.345 0-0.625 0.28-0.625 0.625s0.28 0.625 0.625 0.625h10c0.717 0 1.25 0.533 1.25 1.25v10c0 0.345 0.28 0.625 0.625 0.625s0.625-0.28 0.625-0.625v-10c0-1.408-1.092-2.5-2.5-2.5h-10z"></path>
<path d="M7.5 5c0-0.345 0.28-0.625 0.625-0.625h1.875c2.095 0 3.75 1.655 3.75 3.75 0 0.658-0.147 1.268-0.457 1.81-0.171 0.3-0.553 0.404-0.853 0.233s-0.404-0.553-0.233-0.853c0.19-0.332 0.293-0.723 0.293-1.19 0-1.405-1.095-2.5-2.5-2.5h-1.875c-0.345 0-0.625-0.28-0.625-0.625z"></path>
</svg>
