<!-- Generated by IcoMoon.io -->
<svg version="1.1" xmlns="http://www.w3.org/2000/svg" width="20" height="20" viewBox="0 0 20 20">
<title>particles-alt</title>
<path d="M10.031 8.275c0.432 0.002 0.846 0.174 1.152 0.48s0.478 0.719 0.48 1.152c0.001 0.323-0.093 0.639-0.271 0.909s-0.432 0.48-0.73 0.606c-0.298 0.126-0.626 0.16-0.943 0.1s-0.61-0.213-0.84-0.44c-0.231-0.226-0.389-0.516-0.456-0.832s-0.038-0.645 0.082-0.945c0.12-0.3 0.326-0.558 0.592-0.741s0.581-0.284 0.903-0.288h0.031zM10 5.806c-0.124 0-0.244 0.037-0.347 0.105s-0.183 0.166-0.23 0.28c-0.047 0.114-0.060 0.24-0.036 0.361s0.084 0.233 0.171 0.32c0.087 0.087 0.199 0.147 0.32 0.171s0.247 0.012 0.361-0.036c0.114-0.047 0.212-0.127 0.281-0.23s0.105-0.224 0.105-0.347c0-0.166-0.066-0.325-0.183-0.442s-0.276-0.183-0.442-0.183zM8.125 5.881c-0.124 0-0.244 0.037-0.347 0.105s-0.183 0.166-0.23 0.28-0.060 0.24-0.036 0.361c0.024 0.121 0.084 0.233 0.171 0.32s0.199 0.147 0.32 0.171 0.247 0.012 0.361-0.036c0.114-0.047 0.212-0.127 0.281-0.23s0.105-0.224 0.105-0.347c0-0.166-0.066-0.325-0.183-0.442s-0.276-0.183-0.442-0.183zM6 6.262c-0.114 0-0.225 0.034-0.32 0.097s-0.168 0.154-0.212 0.259-0.054 0.221-0.032 0.333c0.023 0.112 0.078 0.214 0.159 0.294s0.184 0.134 0.296 0.156c0.112 0.022 0.228 0.009 0.333-0.035s0.194-0.119 0.257-0.215c0.062-0.095 0.095-0.207 0.094-0.321 0-0.076-0.015-0.151-0.044-0.221s-0.072-0.133-0.127-0.186c-0.054-0.053-0.118-0.095-0.189-0.122s-0.146-0.041-0.221-0.040h0.006zM4.050 6.887c-0.105 0-0.208 0.031-0.295 0.089s-0.155 0.141-0.196 0.238c-0.040 0.097-0.051 0.204-0.030 0.307s0.071 0.198 0.145 0.272c0.074 0.074 0.169 0.125 0.272 0.145s0.21 0.010 0.307-0.030c0.097-0.040 0.18-0.108 0.238-0.196s0.090-0.19 0.090-0.295c0.003-0.072-0.010-0.144-0.035-0.211s-0.065-0.129-0.115-0.181-0.11-0.093-0.177-0.121c-0.066-0.028-0.138-0.043-0.21-0.043l0.006 0.025zM2.269 7.781c-0.064-0.001-0.127 0.011-0.186 0.035s-0.113 0.059-0.158 0.104c-0.045 0.045-0.081 0.098-0.106 0.157s-0.037 0.122-0.037 0.186c0 0.129 0.051 0.253 0.143 0.345s0.215 0.143 0.345 0.143 0.253-0.051 0.345-0.143c0.091-0.091 0.143-0.215 0.143-0.345 0-0.064-0.013-0.127-0.037-0.186s-0.061-0.112-0.106-0.157c-0.045-0.045-0.099-0.080-0.158-0.104s-0.122-0.036-0.186-0.035zM1.25 9.456c-0.087 0.001-0.173 0.028-0.245 0.078s-0.128 0.119-0.161 0.2c-0.033 0.081-0.041 0.17-0.023 0.256s0.061 0.164 0.123 0.226 0.141 0.103 0.227 0.12c0.086 0.017 0.175 0.008 0.256-0.026s0.15-0.091 0.198-0.163 0.074-0.158 0.074-0.246c0-0.059-0.012-0.117-0.034-0.171s-0.056-0.103-0.098-0.145c-0.042-0.041-0.092-0.074-0.146-0.096s-0.113-0.033-0.172-0.032zM2.281 11.162c-0.079 0.001-0.156 0.026-0.221 0.070s-0.115 0.108-0.145 0.181c-0.029 0.073-0.036 0.153-0.020 0.231s0.055 0.148 0.111 0.203c0.056 0.055 0.127 0.093 0.205 0.108s0.158 0.007 0.23-0.024c0.073-0.031 0.135-0.082 0.179-0.147s0.067-0.143 0.067-0.222c0-0.103-0.039-0.202-0.11-0.276s-0.168-0.119-0.271-0.124h-0.025zM4.050 12.1c-0.051-0.007-0.103-0.003-0.153 0.012s-0.095 0.040-0.134 0.074c-0.039 0.034-0.070 0.076-0.091 0.123s-0.032 0.098-0.032 0.15 0.011 0.103 0.032 0.15c0.021 0.047 0.052 0.089 0.091 0.123s0.084 0.059 0.134 0.074c0.049 0.015 0.101 0.019 0.153 0.012 0.087-0.012 0.167-0.054 0.225-0.12s0.090-0.151 0.090-0.239c0-0.088-0.032-0.173-0.090-0.239s-0.138-0.109-0.225-0.12zM5.994 12.663c-0.063 0-0.125 0.019-0.177 0.054s-0.093 0.085-0.117 0.143-0.030 0.122-0.018 0.184c0.012 0.062 0.043 0.119 0.087 0.163s0.101 0.075 0.163 0.087c0.062 0.012 0.126 0.006 0.184-0.018s0.108-0.065 0.143-0.117c0.035-0.052 0.054-0.114 0.054-0.177 0-0.080-0.030-0.158-0.084-0.217s-0.129-0.095-0.209-0.102h-0.025zM8.238 13.156c-0.036-0.001-0.073 0.006-0.106 0.019s-0.064 0.034-0.090 0.059c-0.026 0.026-0.046 0.056-0.059 0.090s-0.020 0.070-0.019 0.106c0 0.073 0.029 0.143 0.081 0.194s0.122 0.081 0.194 0.081c0.073 0 0.143-0.029 0.194-0.081s0.081-0.122 0.081-0.194c0-0.069-0.025-0.135-0.072-0.186s-0.11-0.083-0.178-0.089h-0.025zM10 13.106c-0.051-0.001-0.102 0.013-0.145 0.041s-0.077 0.068-0.097 0.115c-0.020 0.047-0.026 0.099-0.016 0.149s0.034 0.097 0.070 0.133 0.082 0.061 0.133 0.070c0.050 0.010 0.102 0.004 0.149-0.016s0.087-0.054 0.115-0.097c0.028-0.043 0.042-0.093 0.041-0.145 0-0.066-0.026-0.13-0.073-0.177s-0.11-0.073-0.177-0.073zM11.25 6.5c0 0.124 0.037 0.244 0.105 0.347s0.166 0.183 0.281 0.23 0.24 0.060 0.361 0.036c0.121-0.024 0.233-0.084 0.32-0.171s0.147-0.199 0.171-0.32 0.012-0.247-0.036-0.361c-0.047-0.114-0.127-0.212-0.23-0.28s-0.224-0.105-0.347-0.105c-0.166 0-0.325 0.066-0.442 0.183s-0.183 0.276-0.183 0.442zM13.413 6.831c-0.001 0.114 0.031 0.226 0.094 0.321s0.152 0.17 0.257 0.215c0.105 0.044 0.221 0.057 0.333 0.035s0.215-0.076 0.296-0.156c0.081-0.080 0.136-0.183 0.159-0.294s0.012-0.228-0.032-0.333c-0.043-0.105-0.117-0.196-0.212-0.259s-0.206-0.097-0.32-0.097c-0.148 0.005-0.289 0.067-0.392 0.173s-0.162 0.248-0.164 0.396h-0.019zM15.406 7.394c0 0.105 0.031 0.208 0.090 0.295s0.141 0.156 0.238 0.196c0.097 0.040 0.204 0.051 0.307 0.030s0.198-0.071 0.272-0.145c0.074-0.074 0.125-0.169 0.145-0.272s0.010-0.21-0.030-0.307c-0.040-0.097-0.108-0.18-0.196-0.238s-0.19-0.089-0.295-0.089c-0.138 0.005-0.268 0.063-0.364 0.162s-0.149 0.232-0.149 0.369h-0.019zM17.225 8.263c0 0.129 0.051 0.253 0.143 0.345s0.215 0.143 0.345 0.143 0.253-0.051 0.345-0.143c0.091-0.091 0.143-0.215 0.143-0.345s-0.051-0.253-0.143-0.345c-0.091-0.091-0.215-0.143-0.345-0.143s-0.253 0.051-0.345 0.143c-0.091 0.091-0.143 0.215-0.143 0.345zM18.256 9.9c-0.001 0.089 0.024 0.177 0.073 0.252s0.118 0.133 0.201 0.168c0.082 0.035 0.173 0.045 0.26 0.028s0.168-0.059 0.232-0.122c0.064-0.063 0.107-0.143 0.125-0.23s0.009-0.178-0.024-0.261c-0.034-0.083-0.092-0.153-0.166-0.203s-0.161-0.076-0.251-0.076c-0.116 0.003-0.225 0.051-0.306 0.134s-0.126 0.194-0.126 0.309h-0.019zM17.269 11.563c-0.001 0.081 0.022 0.16 0.065 0.227s0.107 0.121 0.181 0.152c0.074 0.032 0.156 0.041 0.235 0.026s0.152-0.053 0.21-0.11 0.097-0.129 0.113-0.208c0.016-0.079 0.008-0.161-0.022-0.236s-0.083-0.138-0.15-0.183c-0.067-0.045-0.146-0.069-0.226-0.069-0.104 0.003-0.202 0.047-0.275 0.122s-0.113 0.175-0.113 0.278h-0.019zM15.55 12.463c0 0.047 0.009 0.093 0.027 0.136s0.044 0.083 0.077 0.116c0.033 0.033 0.072 0.059 0.116 0.077s0.090 0.027 0.136 0.027c0.051 0.007 0.103 0.003 0.153-0.012s0.095-0.040 0.134-0.074c0.039-0.034 0.070-0.076 0.091-0.123s0.032-0.098 0.032-0.15c0-0.052-0.011-0.103-0.032-0.15s-0.052-0.089-0.091-0.123c-0.039-0.034-0.084-0.059-0.134-0.074s-0.101-0.019-0.153-0.012c-0.092 0.005-0.179 0.045-0.242 0.113s-0.097 0.157-0.095 0.249h-0.019zM13.644 12.981c0 0.063 0.019 0.125 0.054 0.177s0.085 0.093 0.143 0.117 0.122 0.030 0.184 0.018c0.062-0.012 0.119-0.043 0.163-0.087s0.075-0.101 0.087-0.163 0.006-0.126-0.018-0.184c-0.024-0.058-0.065-0.108-0.117-0.143s-0.114-0.054-0.177-0.054c-0.081 0.005-0.158 0.040-0.213 0.1s-0.087 0.138-0.087 0.219h-0.019zM11.575 13.356c0 0.073 0.029 0.143 0.081 0.194s0.122 0.081 0.194 0.081c0.036 0.001 0.072-0.006 0.106-0.019s0.064-0.034 0.090-0.059c0.026-0.026 0.046-0.056 0.059-0.090s0.020-0.070 0.019-0.106c0-0.036-0.007-0.072-0.021-0.105s-0.034-0.064-0.060-0.089c-0.026-0.026-0.056-0.046-0.089-0.060s-0.069-0.021-0.105-0.021c-0.070 0.005-0.135 0.036-0.182 0.087s-0.074 0.118-0.074 0.188h-0.019zM13.406 7.819c-0.041-0.075-0.096-0.141-0.163-0.195s-0.143-0.094-0.225-0.118c-0.082-0.024-0.168-0.032-0.253-0.023s-0.168 0.035-0.243 0.076-0.141 0.096-0.195 0.163c-0.054 0.067-0.094 0.143-0.118 0.225s-0.032 0.168-0.023 0.253c0.009 0.085 0.035 0.168 0.076 0.243 0.083 0.152 0.223 0.264 0.388 0.313s0.344 0.029 0.496-0.053 0.264-0.223 0.313-0.388c0.049-0.166 0.029-0.344-0.053-0.496zM11.081 4.544c-0.032-0.074-0.079-0.14-0.138-0.194s-0.129-0.096-0.205-0.122c-0.076-0.026-0.157-0.035-0.237-0.028s-0.158 0.031-0.228 0.070c-0.070 0.039-0.131 0.092-0.18 0.157s-0.083 0.138-0.101 0.216c-0.018 0.078-0.020 0.159-0.005 0.238s0.047 0.154 0.092 0.22c0.036 0.066 0.084 0.124 0.143 0.171s0.126 0.081 0.198 0.102c0.072 0.020 0.148 0.026 0.222 0.017s0.146-0.033 0.211-0.071c0.132-0.074 0.229-0.196 0.271-0.341s0.025-0.301-0.046-0.434zM9.606 3.131c-0.048-0.093-0.123-0.17-0.215-0.22s-0.197-0.073-0.301-0.064c-0.104 0.009-0.204 0.048-0.286 0.114s-0.143 0.153-0.175 0.253c-0.032 0.1-0.034 0.207-0.005 0.308s0.086 0.191 0.166 0.259c0.080 0.068 0.178 0.111 0.282 0.123s0.21-0.006 0.303-0.054c0.063-0.031 0.12-0.075 0.166-0.128s0.081-0.115 0.102-0.182c0.022-0.067 0.029-0.138 0.023-0.208s-0.027-0.138-0.060-0.2zM7.944 2.019c-0.029-0.059-0.070-0.112-0.121-0.155s-0.109-0.075-0.172-0.095-0.13-0.026-0.195-0.019c-0.066 0.007-0.129 0.027-0.187 0.059s-0.108 0.076-0.149 0.128-0.069 0.112-0.086 0.177c-0.016 0.064-0.020 0.131-0.009 0.196s0.034 0.128 0.069 0.184c0.067 0.106 0.171 0.182 0.292 0.213s0.249 0.014 0.358-0.047c0.109-0.061 0.191-0.161 0.228-0.281s0.027-0.248-0.028-0.36zM6 1.969c-0.029-0.053-0.068-0.1-0.115-0.138s-0.102-0.066-0.16-0.082c-0.058-0.016-0.119-0.021-0.18-0.013s-0.118 0.028-0.17 0.059c-0.054 0.028-0.102 0.067-0.14 0.114s-0.067 0.102-0.083 0.16c-0.016 0.059-0.021 0.12-0.012 0.18s0.029 0.118 0.061 0.17c0.060 0.106 0.159 0.184 0.276 0.217s0.243 0.018 0.349-0.042c0.106-0.060 0.184-0.159 0.217-0.276s0.018-0.243-0.042-0.349zM5 3.7c-0.052-0.090-0.138-0.156-0.239-0.183s-0.208-0.013-0.298 0.039c-0.055 0.020-0.104 0.051-0.145 0.092s-0.073 0.090-0.093 0.145c-0.020 0.054-0.028 0.113-0.024 0.171s0.022 0.114 0.050 0.165c0.029 0.051 0.068 0.094 0.115 0.128s0.101 0.057 0.158 0.068c0.057 0.011 0.116 0.009 0.172-0.005s0.109-0.040 0.154-0.077c0.092-0.052 0.159-0.139 0.187-0.241s0.015-0.211-0.037-0.303zM5.038 5.7c-0.017-0.050-0.045-0.096-0.081-0.135s-0.081-0.068-0.131-0.088c-0.049-0.019-0.103-0.028-0.156-0.024s-0.105 0.019-0.151 0.044c-0.047 0.026-0.087 0.061-0.118 0.104s-0.053 0.092-0.063 0.144c-0.010 0.052-0.009 0.106 0.004 0.157s0.037 0.1 0.070 0.141c0.054 0.066 0.129 0.111 0.212 0.127s0.17 0.003 0.244-0.038c0.074-0.041 0.132-0.107 0.163-0.186s0.033-0.166 0.006-0.247zM5.487 7.669c-0.030-0.055-0.076-0.101-0.132-0.13s-0.119-0.041-0.182-0.034c-0.063 0.007-0.122 0.032-0.17 0.073s-0.084 0.095-0.101 0.155c-0.018 0.061-0.017 0.125 0.002 0.185s0.056 0.113 0.105 0.153c0.049 0.039 0.109 0.063 0.172 0.068s0.126-0.008 0.181-0.039c0.038-0.019 0.071-0.046 0.098-0.078s0.047-0.070 0.060-0.11c0.012-0.040 0.016-0.083 0.012-0.124s-0.017-0.082-0.038-0.119h-0.006zM7.044 11.419c-0.016-0.029-0.037-0.055-0.063-0.077s-0.056-0.037-0.088-0.046c-0.032-0.009-0.066-0.012-0.099-0.008s-0.065 0.014-0.094 0.031c-0.057 0.034-0.099 0.088-0.118 0.152s-0.012 0.132 0.018 0.192c0.013 0.035 0.033 0.067 0.058 0.093s0.057 0.047 0.092 0.060c0.035 0.013 0.072 0.018 0.109 0.016s0.073-0.013 0.105-0.031 0.061-0.042 0.083-0.072c0.022-0.030 0.037-0.064 0.045-0.1s0.007-0.074-0.001-0.11-0.024-0.070-0.047-0.099zM13.425 9.3c-0.109 0.059-0.199 0.149-0.257 0.259s-0.082 0.235-0.068 0.359c0.014 0.124 0.064 0.241 0.144 0.336s0.187 0.164 0.307 0.198 0.247 0.031 0.365-0.007c0.118-0.039 0.222-0.112 0.299-0.21s0.122-0.217 0.13-0.341c0.008-0.124-0.020-0.248-0.082-0.356-0.076-0.144-0.206-0.253-0.361-0.304s-0.324-0.038-0.47 0.035l-0.006 0.031zM14.188 11.35c-0.098 0.054-0.178 0.137-0.23 0.237s-0.072 0.213-0.060 0.324c0.012 0.112 0.058 0.217 0.13 0.303s0.169 0.148 0.276 0.18 0.223 0.030 0.33-0.004c0.107-0.034 0.202-0.099 0.272-0.186s0.113-0.194 0.123-0.306-0.013-0.224-0.067-0.323c-0.033-0.068-0.079-0.129-0.135-0.179s-0.123-0.088-0.195-0.112c-0.072-0.024-0.148-0.033-0.223-0.027s-0.149 0.027-0.216 0.062l-0.006 0.031zM14.663 13.369c-0.061 0.033-0.115 0.078-0.158 0.133s-0.076 0.117-0.095 0.184c-0.019 0.067-0.025 0.137-0.017 0.206s0.030 0.136 0.064 0.197c0.051 0.092 0.128 0.168 0.221 0.216s0.199 0.068 0.304 0.057c0.105-0.012 0.203-0.054 0.284-0.122s0.139-0.158 0.168-0.259c0.029-0.101 0.027-0.209-0.005-0.309s-0.093-0.189-0.176-0.254c-0.082-0.065-0.183-0.105-0.288-0.113s-0.21 0.015-0.302 0.066zM14.781 15.375c-0.114 0.063-0.197 0.168-0.233 0.293s-0.020 0.259 0.043 0.372c0.063 0.114 0.168 0.197 0.293 0.233s0.259 0.020 0.372-0.043 0.197-0.168 0.233-0.293c0.036-0.125 0.020-0.259-0.043-0.372s-0.168-0.197-0.293-0.233c-0.125-0.036-0.259-0.020-0.372 0.043zM13.856 17.075c-0.054 0.028-0.101 0.068-0.138 0.115s-0.066 0.102-0.081 0.161-0.019 0.12-0.011 0.18c0.009 0.060 0.030 0.118 0.062 0.169 0.059 0.098 0.155 0.17 0.266 0.199s0.229 0.015 0.33-0.041 0.175-0.148 0.209-0.258c0.033-0.11 0.023-0.228-0.029-0.331-0.024-0.055-0.058-0.105-0.101-0.146s-0.095-0.073-0.151-0.094c-0.056-0.021-0.116-0.030-0.176-0.028s-0.118 0.017-0.172 0.043l-0.006 0.031zM11.925 17.019c-0.093 0.053-0.162 0.14-0.191 0.243s-0.017 0.213 0.035 0.307c0.039 0.068 0.097 0.124 0.168 0.159s0.15 0.049 0.228 0.039c0.078-0.009 0.152-0.042 0.212-0.093s0.103-0.119 0.125-0.195c0.022-0.076 0.020-0.156-0.004-0.231s-0.070-0.141-0.131-0.191c-0.062-0.049-0.136-0.079-0.215-0.086s-0.157 0.009-0.226 0.047zM10.412 15.975c-0.042 0.022-0.079 0.053-0.109 0.089s-0.052 0.079-0.066 0.124c-0.013 0.045-0.018 0.093-0.012 0.14s0.020 0.093 0.043 0.134c0.018 0.049 0.047 0.094 0.084 0.131s0.082 0.065 0.131 0.083c0.049 0.018 0.102 0.025 0.154 0.021s0.103-0.019 0.148-0.045c0.046-0.026 0.085-0.061 0.116-0.103s0.052-0.091 0.062-0.142c0.010-0.051 0.009-0.104-0.003-0.155s-0.035-0.099-0.067-0.14c-0.042-0.084-0.115-0.149-0.203-0.18s-0.186-0.027-0.272 0.012l-0.006 0.031zM8.925 14.538c-0.055 0.030-0.101 0.076-0.13 0.132s-0.041 0.119-0.034 0.182c0.007 0.063 0.032 0.122 0.073 0.17s0.095 0.084 0.155 0.101c0.061 0.018 0.125 0.017 0.185-0.002s0.113-0.056 0.153-0.105c0.039-0.049 0.063-0.109 0.068-0.172s-0.008-0.126-0.039-0.181c-0.018-0.038-0.042-0.073-0.073-0.101s-0.067-0.051-0.107-0.065c-0.039-0.015-0.082-0.021-0.124-0.019s-0.083 0.012-0.122 0.030l-0.006 0.031zM7.544 12.8c-0.032 0.017-0.061 0.040-0.084 0.069s-0.040 0.061-0.050 0.096c-0.010 0.035-0.013 0.072-0.008 0.108s0.017 0.071 0.035 0.102c0.017 0.031 0.040 0.059 0.068 0.082s0.060 0.039 0.094 0.049c0.034 0.010 0.070 0.013 0.106 0.009s0.070-0.015 0.101-0.033c0.035-0.015 0.066-0.038 0.092-0.066s0.045-0.061 0.057-0.097 0.017-0.074 0.013-0.112c-0.003-0.038-0.014-0.075-0.033-0.108s-0.043-0.063-0.073-0.086c-0.030-0.023-0.065-0.040-0.101-0.049s-0.075-0.011-0.113-0.004c-0.037 0.006-0.073 0.020-0.105 0.041zM6.475 8.031c-0.049 0.111-0.065 0.234-0.045 0.353s0.073 0.231 0.155 0.321c0.082 0.090 0.188 0.153 0.305 0.184s0.241 0.026 0.356-0.012c0.115-0.039 0.216-0.11 0.291-0.205s0.121-0.21 0.132-0.331c0.011-0.121-0.013-0.242-0.070-0.349s-0.143-0.196-0.249-0.254c-0.074-0.042-0.155-0.069-0.24-0.078s-0.17-0.002-0.251 0.023c-0.081 0.025-0.157 0.065-0.222 0.12s-0.118 0.122-0.156 0.198l-0.006 0.031zM5.719 9.725c-0.053 0.074-0.089 0.158-0.106 0.247s-0.015 0.181 0.008 0.269 0.063 0.17 0.12 0.241c0.057 0.071 0.129 0.128 0.21 0.168s0.171 0.062 0.262 0.064c0.091 0.002 0.181-0.016 0.264-0.052s0.158-0.090 0.218-0.158c0.060-0.068 0.105-0.148 0.131-0.235 0.068-0.146 0.077-0.313 0.024-0.466s-0.162-0.279-0.305-0.353c-0.146-0.070-0.314-0.081-0.468-0.029s-0.282 0.161-0.357 0.304zM5.094 11.794c-0.034 0.069-0.053 0.145-0.058 0.222s0.006 0.154 0.031 0.227c0.025 0.073 0.065 0.14 0.116 0.198s0.113 0.105 0.183 0.138c0.069 0.034 0.145 0.053 0.222 0.058s0.154-0.006 0.227-0.031 0.14-0.065 0.198-0.116c0.058-0.051 0.105-0.113 0.138-0.183 0.067-0.136 0.078-0.293 0.029-0.437s-0.152-0.262-0.288-0.329-0.293-0.077-0.437-0.029c-0.144 0.049-0.262 0.152-0.329 0.288l-0.031-0.006zM4.775 13.813c-0.061 0.127-0.069 0.273-0.024 0.406s0.142 0.243 0.268 0.306c0.126 0.061 0.271 0.069 0.403 0.023s0.241-0.142 0.303-0.267c0.035-0.061 0.058-0.128 0.066-0.198s0.003-0.141-0.016-0.208c-0.019-0.068-0.052-0.131-0.096-0.186s-0.099-0.1-0.161-0.133c-0.064-0.031-0.132-0.048-0.203-0.052s-0.141 0.007-0.207 0.031c-0.066 0.024-0.127 0.061-0.179 0.108s-0.094 0.105-0.123 0.169h-0.031zM4.813 15.813c-0.042 0.087-0.057 0.184-0.044 0.279s0.054 0.184 0.118 0.256c0.064 0.072 0.148 0.123 0.241 0.148s0.191 0.021 0.282-0.010 0.171-0.089 0.229-0.165c0.058-0.076 0.093-0.168 0.099-0.264s-0.016-0.192-0.064-0.275c-0.048-0.083-0.119-0.151-0.206-0.193-0.113-0.048-0.241-0.052-0.357-0.010s-0.212 0.126-0.268 0.235h-0.031zM5.881 17.438c-0.026 0.052-0.041 0.11-0.045 0.168s0.004 0.117 0.023 0.172c0.019 0.055 0.048 0.107 0.087 0.151s0.086 0.080 0.138 0.106c0.053 0.026 0.11 0.041 0.168 0.045s0.117-0.004 0.172-0.023 0.107-0.048 0.151-0.087c0.044-0.039 0.080-0.086 0.106-0.138 0.052-0.106 0.060-0.229 0.022-0.341s-0.119-0.204-0.225-0.256c-0.106-0.052-0.229-0.060-0.341-0.022s-0.204 0.119-0.256 0.225zM7.869 17.269c-0.024 0.047-0.038 0.098-0.041 0.151s0.003 0.105 0.020 0.155c0.017 0.050 0.043 0.096 0.078 0.136s0.077 0.072 0.124 0.095c0.096 0.045 0.207 0.051 0.307 0.016s0.183-0.108 0.23-0.204c0.024-0.047 0.037-0.098 0.041-0.151s-0.003-0.105-0.020-0.155c-0.017-0.050-0.043-0.096-0.078-0.136s-0.077-0.072-0.124-0.095c-0.093-0.036-0.195-0.037-0.289-0.002s-0.171 0.102-0.218 0.19h-0.031zM9.375 16.1c-0.031 0.063-0.042 0.134-0.032 0.204s0.039 0.135 0.086 0.187c0.046 0.053 0.107 0.090 0.175 0.109s0.139 0.016 0.206-0.007c0.067-0.022 0.125-0.064 0.168-0.12s0.068-0.123 0.073-0.193c0.005-0.070-0.011-0.14-0.045-0.201s-0.087-0.111-0.149-0.142c-0.042-0.021-0.088-0.034-0.135-0.037s-0.094 0.003-0.139 0.018c-0.045 0.015-0.086 0.039-0.122 0.070s-0.064 0.069-0.085 0.112zM10.875 14.6c-0.037 0.076-0.043 0.163-0.016 0.242s0.084 0.145 0.159 0.183c0.076 0.037 0.164 0.043 0.245 0.016s0.148-0.084 0.186-0.16c0.036-0.076 0.041-0.164 0.013-0.244s-0.087-0.145-0.163-0.181c-0.037-0.018-0.077-0.029-0.118-0.031s-0.082 0.003-0.121 0.016c-0.039 0.013-0.075 0.034-0.106 0.062s-0.056 0.060-0.074 0.097h-0.006zM12.181 12.888c-0.030 0.067-0.034 0.142-0.009 0.211s0.075 0.125 0.14 0.158c0.032 0.016 0.067 0.025 0.102 0.028s0.071-0.002 0.105-0.014c0.034-0.012 0.065-0.030 0.092-0.054s0.048-0.053 0.064-0.085c0.032-0.066 0.037-0.141 0.014-0.21s-0.073-0.126-0.139-0.158-0.141-0.037-0.21-0.014c-0.069 0.023-0.126 0.073-0.158 0.139zM13.037 11.2c-0.015 0.030-0.023 0.062-0.025 0.096s0.003 0.067 0.014 0.098 0.028 0.060 0.051 0.085c0.022 0.025 0.049 0.045 0.080 0.059 0.045 0.021 0.094 0.028 0.143 0.020s0.094-0.029 0.13-0.062 0.062-0.076 0.074-0.124c0.012-0.048 0.010-0.098-0.007-0.144s-0.046-0.087-0.085-0.117c-0.039-0.030-0.086-0.047-0.136-0.050s-0.098 0.009-0.141 0.033c-0.043 0.025-0.077 0.061-0.099 0.105zM8.912 5.375c0.067 0.033 0.141 0.053 0.215 0.058s0.15-0.005 0.221-0.029c0.071-0.024 0.137-0.062 0.193-0.111s0.103-0.11 0.136-0.177c0.033-0.067 0.053-0.14 0.058-0.215s-0.005-0.15-0.029-0.221-0.062-0.137-0.111-0.193c-0.049-0.056-0.11-0.103-0.177-0.136-0.136-0.067-0.293-0.078-0.437-0.029s-0.262 0.152-0.329 0.288-0.078 0.293-0.029 0.437c0.049 0.144 0.152 0.262 0.288 0.329zM10.3 3.831c0.094 0.047 0.201 0.064 0.305 0.050s0.202-0.058 0.281-0.128c0.079-0.070 0.136-0.161 0.162-0.263s0.023-0.209-0.011-0.309-0.098-0.187-0.182-0.25c-0.084-0.064-0.185-0.101-0.29-0.107s-0.21 0.019-0.3 0.073c-0.091 0.054-0.163 0.133-0.209 0.228-0.031 0.062-0.049 0.13-0.053 0.199s0.005 0.139 0.028 0.205 0.058 0.126 0.104 0.178c0.046 0.052 0.102 0.094 0.165 0.124zM11.881 2.581c0.116 0.057 0.25 0.066 0.372 0.024s0.223-0.13 0.281-0.246 0.066-0.25 0.024-0.373c-0.042-0.122-0.13-0.223-0.246-0.281s-0.252-0.067-0.376-0.026c-0.124 0.042-0.226 0.131-0.284 0.248s-0.067 0.252-0.026 0.376c0.042 0.124 0.131 0.226 0.248 0.284l0.006-0.006zM13.806 2.369c0.102 0.045 0.217 0.050 0.322 0.014s0.193-0.11 0.247-0.208c0.029-0.054 0.046-0.114 0.051-0.175s-0.002-0.123-0.021-0.181c-0.019-0.058-0.050-0.112-0.091-0.158s-0.090-0.084-0.146-0.11c-0.106-0.050-0.228-0.056-0.339-0.018s-0.202 0.119-0.255 0.224c-0.029 0.055-0.046 0.116-0.050 0.178s0.005 0.124 0.027 0.183 0.056 0.111 0.099 0.156c0.044 0.044 0.096 0.079 0.154 0.102v-0.006zM14.863 3.994c0.095 0.047 0.206 0.055 0.306 0.021s0.184-0.107 0.231-0.202 0.055-0.205 0.021-0.306c-0.034-0.101-0.107-0.184-0.202-0.231s-0.206-0.055-0.306-0.021c-0.101 0.034-0.184 0.107-0.231 0.202s-0.055 0.205-0.021 0.306c0.034 0.101 0.107 0.184 0.202 0.231zM14.906 5.938c0.063 0.028 0.132 0.037 0.2 0.026s0.131-0.041 0.182-0.087c0.051-0.046 0.088-0.106 0.106-0.172s0.016-0.136-0.005-0.202c-0.021-0.065-0.061-0.123-0.114-0.167s-0.118-0.071-0.186-0.078c-0.068-0.008-0.137 0.005-0.199 0.036s-0.113 0.079-0.148 0.138c-0.024 0.043-0.040 0.092-0.045 0.141s0 0.1 0.016 0.147c0.015 0.048 0.040 0.091 0.073 0.129s0.073 0.068 0.119 0.089zM14.538 7.875c0.074 0.028 0.156 0.027 0.23-0.001s0.134-0.084 0.169-0.155c0.035-0.071 0.043-0.152 0.021-0.229s-0.071-0.142-0.138-0.183c-0.038-0.023-0.080-0.039-0.124-0.045s-0.089-0.003-0.132 0.009-0.083 0.033-0.117 0.062c-0.034 0.028-0.062 0.064-0.082 0.104s-0.031 0.083-0.033 0.128 0.006 0.089 0.022 0.13c0.016 0.041 0.041 0.079 0.073 0.11s0.069 0.056 0.111 0.071z"></path>
</svg>
