<!-- Generated by IcoMoon.io -->
<svg version="1.1" xmlns="http://www.w3.org/2000/svg" width="20" height="20" viewBox="0 0 20 20">
<title>particles</title>
<path d="M10 8.194c-0.32-0.007-0.636 0.081-0.906 0.253s-0.483 0.422-0.61 0.716c-0.128 0.294-0.165 0.619-0.107 0.934s0.208 0.606 0.432 0.835c0.224 0.229 0.511 0.387 0.825 0.452s0.64 0.036 0.937-0.085c0.297-0.121 0.551-0.327 0.73-0.593s0.274-0.579 0.275-0.9c-0.002-0.421-0.167-0.824-0.461-1.125s-0.694-0.476-1.114-0.487zM14.1 2.769c-0.087-0.043-0.161-0.108-0.214-0.19s-0.083-0.176-0.086-0.273c0.001-0.088 0.024-0.174 0.069-0.25 0.045-0.081 0.112-0.149 0.192-0.196s0.171-0.072 0.264-0.073c0.074 0 0.146 0.017 0.212 0.050 0.080 0.047 0.146 0.113 0.192 0.193s0.070 0.171 0.071 0.263c0 0.093-0.026 0.184-0.075 0.262-0.046 0.079-0.111 0.145-0.19 0.191s-0.168 0.071-0.26 0.071c-0.074-0-0.146-0.017-0.212-0.050h0.037zM11.956 2.625c-0.044-0.068-0.071-0.145-0.081-0.225-0-0.099 0.028-0.195 0.081-0.279s0.129-0.149 0.219-0.19c0.067-0.031 0.139-0.046 0.212-0.044 0.1 0 0.198 0.028 0.283 0.081s0.154 0.129 0.198 0.219c0.028 0.063 0.043 0.131 0.044 0.2-0.001 0.106-0.033 0.209-0.093 0.296s-0.145 0.154-0.244 0.192c-0.066 0.033-0.139 0.050-0.213 0.050-0.093-0.008-0.183-0.040-0.26-0.094s-0.138-0.127-0.178-0.212l0.031 0.006zM10.319 3.831c-0.078-0.095-0.122-0.214-0.125-0.337-0.001-0.076 0.014-0.151 0.046-0.22s0.078-0.131 0.136-0.18c0.094-0.080 0.214-0.124 0.338-0.125 0.075 0.001 0.15 0.018 0.218 0.050s0.128 0.079 0.176 0.137c0.087 0.091 0.139 0.211 0.144 0.337 0 0.075-0.017 0.15-0.049 0.218s-0.080 0.128-0.138 0.176c-0.094 0.080-0.214 0.124-0.338 0.125-0.075 0-0.149-0.016-0.217-0.047s-0.128-0.077-0.177-0.134h-0.012zM14.644 4.056v-0.050c-0.001-0.128 0.046-0.252 0.132-0.348s0.203-0.157 0.331-0.17h0.056c0.129-0.001 0.254 0.046 0.351 0.131s0.159 0.203 0.174 0.331c0.003 0.019 0.003 0.038 0 0.056 0.002 0.13-0.046 0.256-0.135 0.351s-0.21 0.153-0.34 0.161h-0.050c-0.128 0.001-0.252-0.045-0.349-0.129s-0.159-0.201-0.176-0.328l0.006-0.006zM8.956 5.306c-0.065-0.050-0.118-0.114-0.154-0.188s-0.054-0.155-0.053-0.237c-0.001-0.125 0.046-0.246 0.131-0.338 0.049-0.056 0.109-0.101 0.177-0.131s0.142-0.045 0.216-0.044c0.128-0.002 0.252 0.043 0.35 0.125 0.055 0.051 0.099 0.113 0.129 0.182s0.046 0.143 0.046 0.218c-0.001 0.124-0.045 0.243-0.125 0.338-0.050 0.055-0.111 0.099-0.179 0.129s-0.141 0.046-0.215 0.046c-0.062 0.002-0.124-0.009-0.182-0.032s-0.111-0.056-0.156-0.1l0.012 0.031zM14.956 6.519c-0.121-0.023-0.23-0.088-0.308-0.182s-0.122-0.214-0.123-0.337c0 0 0-0.063 0-0.094 0.012-0.13 0.073-0.251 0.17-0.339s0.224-0.136 0.355-0.136c0.046-0.006 0.092-0.006 0.137 0 0.12 0.022 0.228 0.085 0.306 0.179s0.12 0.212 0.119 0.333c0.009 0.037 0.013 0.075 0.012 0.112-0.022 0.12-0.085 0.229-0.179 0.308s-0.212 0.122-0.334 0.123h-0.137l-0.019 0.031zM7.781 6.9c-0.068-0.048-0.123-0.112-0.161-0.186s-0.058-0.156-0.058-0.239c0.001-0.109 0.034-0.215 0.094-0.306 0.048-0.067 0.112-0.123 0.186-0.161s0.156-0.058 0.239-0.058c0.11-0 0.218 0.035 0.306 0.1 0.066 0.049 0.121 0.114 0.159 0.187s0.058 0.155 0.060 0.238c-0.001 0.109-0.034 0.215-0.094 0.306-0.047 0.069-0.11 0.126-0.184 0.165s-0.157 0.060-0.241 0.060c-0.109-0.001-0.215-0.034-0.306-0.094v-0.013zM14.412 8.387c-0.104-0.034-0.194-0.1-0.258-0.189s-0.098-0.195-0.098-0.305c0.001-0.056 0.012-0.11 0.031-0.162 0.035-0.103 0.102-0.193 0.19-0.257s0.195-0.099 0.304-0.099c0.056 0.001 0.111 0.011 0.163 0.031 0.103 0.034 0.193 0.101 0.256 0.19s0.096 0.195 0.094 0.304c0.006 0.054 0.006 0.108 0 0.162-0.034 0.104-0.1 0.194-0.189 0.258s-0.195 0.098-0.305 0.098h-0.075c-0.035 0.006-0.071 0.006-0.106 0l-0.006-0.031zM6.775 8.556c-0.081-0.044-0.148-0.109-0.195-0.189s-0.073-0.169-0.073-0.261c0.001-0.087 0.022-0.173 0.063-0.25 0.046-0.079 0.111-0.145 0.19-0.191s0.168-0.071 0.26-0.072c0.093 0.002 0.183 0.028 0.263 0.075 0.079 0.044 0.146 0.108 0.192 0.186s0.071 0.167 0.071 0.258c-0.002 0.094-0.028 0.187-0.075 0.269-0.044 0.081-0.109 0.148-0.188 0.194s-0.17 0.070-0.262 0.068h-0.031c-0.081 0.001-0.16-0.019-0.231-0.056l0.019-0.031zM12.65 11.938c-0.080-0.045-0.147-0.11-0.193-0.189s-0.070-0.169-0.070-0.261c-0.001-0.093 0.025-0.184 0.075-0.263 0.045-0.081 0.112-0.149 0.192-0.196s0.171-0.072 0.264-0.073c0.092 0.001 0.182 0.024 0.263 0.069 0.081 0.046 0.147 0.112 0.193 0.192s0.070 0.171 0.069 0.264c0 0.090-0.023 0.178-0.069 0.256-0.047 0.080-0.113 0.146-0.193 0.192s-0.171 0.070-0.263 0.071h-0.050c-0.073 0.002-0.146-0.013-0.213-0.044l-0.006-0.019zM5.206 12.206c-0.103-0.037-0.191-0.105-0.254-0.195s-0.096-0.196-0.096-0.305c-0.009-0.052-0.009-0.105 0-0.156 0.036-0.103 0.102-0.192 0.191-0.256s0.194-0.099 0.303-0.1c0.056 0.001 0.111 0.011 0.162 0.031 0.103 0.035 0.192 0.102 0.254 0.191s0.096 0.195 0.096 0.303c0.009 0.054 0.009 0.109 0 0.163-0.034 0.103-0.099 0.192-0.187 0.256s-0.193 0.099-0.301 0.1h-0.175l0.006-0.031zM4.781 14.162c-0.118-0.026-0.224-0.093-0.298-0.189s-0.112-0.215-0.108-0.336c-0.002-0.027-0.002-0.054 0-0.081 0.022-0.119 0.084-0.226 0.177-0.304s0.209-0.121 0.33-0.121h0.094c0.123 0.018 0.236 0.080 0.317 0.174s0.126 0.214 0.127 0.339c0.003 0.029 0.003 0.058 0 0.088-0.021 0.121-0.083 0.231-0.177 0.309s-0.213 0.122-0.335 0.122h-0.125zM10.269 15.144c-0.058-0.049-0.105-0.111-0.137-0.18s-0.049-0.144-0.050-0.22c-0.002-0.146 0.054-0.288 0.156-0.393s0.241-0.166 0.388-0.169c0.129 0 0.253 0.047 0.35 0.131 0.054 0.049 0.097 0.109 0.127 0.176s0.046 0.139 0.048 0.212c0.001 0.129-0.046 0.253-0.131 0.35-0.047 0.056-0.107 0.101-0.174 0.131s-0.14 0.045-0.214 0.044c-0.122 0.001-0.24-0.043-0.331-0.125l-0.031 0.044zM4.25 15.688v-0.056c0.001-0.126 0.047-0.248 0.131-0.342s0.2-0.155 0.325-0.17h0.063c0.128-0.001 0.251 0.046 0.346 0.132s0.154 0.203 0.167 0.331c0.004 0.019 0.004 0.038 0 0.056-0.001 0.126-0.047 0.248-0.131 0.342s-0.2 0.155-0.325 0.17h-0.075c-0.124-0.004-0.243-0.052-0.335-0.135s-0.15-0.198-0.165-0.321v-0.006zM8.819 16.469c-0.080-0.094-0.124-0.214-0.125-0.337 0.001-0.075 0.018-0.15 0.050-0.218s0.079-0.128 0.137-0.176c0.093-0.083 0.213-0.129 0.337-0.131 0.075-0 0.15 0.017 0.218 0.049s0.128 0.080 0.176 0.138c0.090 0.106 0.134 0.242 0.124 0.38s-0.075 0.267-0.18 0.357c-0.097 0.076-0.215 0.12-0.338 0.125-0.076 0-0.152-0.017-0.221-0.049s-0.13-0.080-0.179-0.138zM7.088 17.425c-0.028-0.067-0.043-0.139-0.044-0.213-0-0.1 0.029-0.198 0.085-0.282s0.135-0.148 0.228-0.187c0.060-0.009 0.121-0.009 0.181 0 0.098-0.001 0.194 0.026 0.277 0.078s0.149 0.127 0.191 0.216c0.028 0.067 0.042 0.14 0.044 0.212-0.001 0.102-0.031 0.201-0.087 0.286s-0.134 0.153-0.226 0.195c-0.065 0.028-0.135 0.043-0.206 0.044-0.094-0.006-0.185-0.038-0.262-0.092s-0.138-0.128-0.176-0.215l-0.006-0.044zM5.4 17.763c-0.083-0.044-0.151-0.11-0.199-0.19s-0.072-0.173-0.070-0.266c0.003-0.092 0.029-0.183 0.075-0.263 0.044-0.081 0.109-0.148 0.188-0.194s0.17-0.070 0.262-0.068c0.092-0 0.182 0.023 0.263 0.069 0.081 0.045 0.149 0.112 0.196 0.192s0.072 0.171 0.073 0.264c0 0.090-0.023 0.178-0.069 0.256-0.045 0.082-0.111 0.15-0.191 0.197s-0.172 0.072-0.265 0.072c-0.090-0.005-0.178-0.030-0.256-0.075l-0.006 0.006zM5.188 2.575c-0.050-0.081-0.073-0.174-0.069-0.269 0-0.095 0.027-0.187 0.076-0.268s0.121-0.146 0.205-0.188c0.080-0.051 0.174-0.077 0.269-0.075 0.090 0 0.179 0.023 0.257 0.067s0.145 0.107 0.193 0.183c0.068 0.12 0.086 0.263 0.050 0.396s-0.124 0.247-0.243 0.316c-0.078 0.045-0.166 0.069-0.256 0.069h-0.044c-0.090 0.001-0.179-0.023-0.257-0.068s-0.143-0.11-0.187-0.188l0.006 0.025zM7.356 2.869c-0.093-0.041-0.172-0.109-0.228-0.194s-0.085-0.185-0.085-0.287c-0.001-0.073 0.014-0.146 0.044-0.212 0.042-0.093 0.109-0.171 0.195-0.227s0.185-0.085 0.286-0.086c0.073 0.002 0.145 0.017 0.213 0.044 0.090 0.041 0.166 0.107 0.219 0.19s0.081 0.18 0.081 0.279c0.002 0.086-0.019 0.17-0.063 0.244-0.040 0.092-0.105 0.17-0.188 0.225s-0.181 0.086-0.281 0.087c-0.066-0.013-0.129-0.036-0.188-0.069l-0.006 0.006zM8.875 3.938c-0.103-0.093-0.167-0.221-0.179-0.359s0.030-0.276 0.117-0.384c0.049-0.059 0.11-0.106 0.179-0.138s0.145-0.049 0.221-0.049c0.123 0.003 0.242 0.047 0.338 0.125 0.058 0.048 0.105 0.108 0.137 0.176s0.050 0.142 0.050 0.218c0.001 0.125-0.046 0.246-0.131 0.337-0.047 0.060-0.106 0.108-0.175 0.14s-0.143 0.049-0.219 0.047c-0.068-0.006-0.134-0.025-0.194-0.058s-0.113-0.076-0.156-0.13l0.012 0.075zM4.731 4.563c-0.128-0.011-0.248-0.070-0.334-0.165s-0.135-0.219-0.134-0.348v-0.063c0.021-0.122 0.085-0.232 0.18-0.311s0.215-0.122 0.339-0.12h0.056c0.128 0.014 0.247 0.074 0.333 0.17s0.135 0.22 0.135 0.349c0 0 0 0.038 0 0.056-0.014 0.128-0.074 0.247-0.17 0.333s-0.22 0.135-0.349 0.135h-0.056v-0.037zM10.237 5.188c-0.089-0.092-0.139-0.216-0.137-0.344 0-0.075 0.016-0.149 0.048-0.217s0.077-0.128 0.134-0.177c0.051-0.045 0.111-0.080 0.175-0.102s0.133-0.031 0.201-0.026 0.135 0.023 0.196 0.054c0.061 0.031 0.115 0.073 0.159 0.125 0.066 0.088 0.101 0.196 0.1 0.306 0.001 0.071-0.014 0.141-0.043 0.206s-0.072 0.122-0.125 0.169c-0.092 0.085-0.212 0.132-0.338 0.131h-0.050c-0.127-0.001-0.249-0.047-0.344-0.131l0.025 0.006zM4.375 6.112c-0.003-0.031-0.003-0.063 0-0.094 0-0.121 0.042-0.237 0.118-0.331s0.182-0.158 0.3-0.182h0.106c0.116-0 0.229 0.038 0.321 0.107s0.16 0.168 0.191 0.28c0.003 0.029 0.003 0.058 0 0.088-0 0.12-0.041 0.236-0.116 0.329s-0.18 0.158-0.296 0.184h-0.125c-0.121-0.004-0.237-0.050-0.328-0.13s-0.152-0.188-0.172-0.308v0.056zM4.9 8.069c-0.010-0.052-0.010-0.105 0-0.156 0.001-0.107 0.034-0.212 0.095-0.3s0.148-0.156 0.248-0.193c0.052-0.010 0.105-0.010 0.156 0 0.109-0.002 0.215 0.031 0.304 0.094s0.155 0.152 0.19 0.256c0.009 0.054 0.009 0.109 0 0.162 0 0.108-0.033 0.213-0.096 0.3s-0.152 0.153-0.254 0.187h-0.175c-0.103 0-0.205-0.031-0.29-0.089s-0.152-0.14-0.191-0.236l0.012-0.025zM12.456 8.344c-0.045-0.078-0.069-0.166-0.069-0.256s0.024-0.18 0.069-0.259c0.045-0.079 0.109-0.145 0.187-0.191 0.079-0.040 0.167-0.062 0.256-0.062 0.091-0 0.181 0.022 0.26 0.066s0.147 0.107 0.196 0.184c0.046 0.077 0.070 0.166 0.069 0.256 0 0.092-0.024 0.182-0.070 0.261s-0.113 0.144-0.193 0.189c-0.069 0.050-0.152 0.076-0.237 0.075-0.091-0.001-0.181-0.025-0.26-0.072s-0.144-0.112-0.19-0.191h-0.019zM5.625 9.963c-0.017-0.072-0.017-0.147 0-0.219-0.001-0.099 0.026-0.196 0.080-0.279s0.13-0.149 0.22-0.189c0.070-0.028 0.144-0.042 0.219-0.044 0.1-0.001 0.197 0.027 0.282 0.080s0.151 0.13 0.193 0.22c0.031 0.067 0.046 0.139 0.044 0.213 0.001 0.099-0.025 0.196-0.077 0.28s-0.127 0.152-0.216 0.195c-0.070 0.028-0.144 0.042-0.219 0.044-0.108 0.014-0.218-0.008-0.313-0.062s-0.169-0.138-0.212-0.238zM13.313 10.063c-0.031-0.071-0.046-0.148-0.044-0.225 0.001-0.098 0.028-0.193 0.080-0.276s0.126-0.149 0.214-0.193c0.068-0.033 0.143-0.050 0.219-0.050 0.1 0 0.198 0.028 0.283 0.081s0.154 0.129 0.198 0.219c0.031 0.069 0.046 0.143 0.044 0.219 0.001 0.098-0.026 0.194-0.078 0.277s-0.127 0.149-0.216 0.191c-0.067 0.031-0.139 0.050-0.213 0.056-0.099-0.001-0.196-0.030-0.279-0.084s-0.149-0.131-0.189-0.222l-0.019 0.006zM6.575 11.756c-0.068-0.119-0.087-0.259-0.052-0.392s0.121-0.245 0.239-0.314c0.080-0.045 0.171-0.069 0.262-0.069s0.181 0.025 0.261 0.070 0.147 0.109 0.195 0.187c0.068 0.119 0.087 0.259 0.052 0.392s-0.121 0.245-0.239 0.314c-0.080 0.046-0.17 0.070-0.263 0.069-0.091-0.003-0.18-0.027-0.26-0.072s-0.147-0.108-0.197-0.184zM14.075 11.875c-0.007-0.054-0.007-0.109 0-0.163-0-0.108 0.033-0.213 0.096-0.3s0.152-0.153 0.254-0.187c0.049-0.010 0.101-0.010 0.15 0 0.109-0 0.216 0.033 0.305 0.096s0.158 0.151 0.195 0.254c0.009 0.054 0.009 0.109 0 0.163 0 0.108-0.033 0.213-0.096 0.3s-0.152 0.153-0.254 0.187h-0.163c-0.108-0-0.214-0.035-0.302-0.099s-0.153-0.154-0.186-0.258v0.006zM7.688 13.5c-0.060-0.089-0.092-0.193-0.094-0.3 0-0.083 0.020-0.165 0.058-0.239s0.093-0.138 0.161-0.186c0.056-0.041 0.119-0.070 0.186-0.086s0.137-0.019 0.205-0.008c0.068 0.011 0.133 0.036 0.192 0.072s0.109 0.084 0.149 0.141c0.063 0.085 0.097 0.188 0.094 0.294-0 0.083-0.020 0.165-0.058 0.239s-0.093 0.138-0.161 0.186c-0.084 0.065-0.187 0.101-0.294 0.1-0.084-0.003-0.167-0.027-0.24-0.069s-0.134-0.102-0.179-0.174l-0.019 0.031zM14.563 13.713c0 0 0-0.056 0-0.088-0-0.124 0.044-0.245 0.124-0.34s0.191-0.158 0.314-0.179h0.088c0.124-0.002 0.244 0.041 0.339 0.12s0.159 0.189 0.18 0.311c0 0.031 0 0.063 0 0.094-0.001 0.122-0.045 0.24-0.123 0.334s-0.188 0.157-0.308 0.179h-0.094c-0.121-0-0.239-0.042-0.333-0.118s-0.16-0.182-0.186-0.301v-0.013zM8.938 15.069c-0.078-0.090-0.12-0.206-0.119-0.325-0-0.070 0.014-0.14 0.042-0.205s0.069-0.123 0.121-0.17c0.095-0.084 0.217-0.13 0.344-0.131 0.075-0 0.149 0.016 0.217 0.047s0.128 0.077 0.177 0.134c0.084 0.095 0.13 0.217 0.131 0.344 0 0.073-0.015 0.146-0.045 0.213s-0.074 0.126-0.13 0.175c-0.097 0.085-0.221 0.132-0.35 0.131-0.076-0.004-0.15-0.024-0.217-0.060s-0.125-0.086-0.171-0.147v-0.006zM15.119 16.087c-0.13-0.015-0.251-0.078-0.338-0.176s-0.136-0.224-0.137-0.356v-0.044c0.015-0.128 0.077-0.246 0.174-0.331s0.222-0.132 0.351-0.131h0.050c0.13 0.011 0.252 0.070 0.341 0.166s0.139 0.222 0.14 0.353c0 0 0 0.037 0 0.050-0.014 0.128-0.074 0.247-0.17 0.333s-0.22 0.135-0.349 0.135h-0.063zM10.4 16.519c-0.059-0.050-0.107-0.112-0.139-0.182s-0.049-0.147-0.048-0.224c0.001-0.12 0.040-0.236 0.112-0.331 0.050-0.057 0.112-0.102 0.181-0.133s0.144-0.048 0.219-0.048c0.126-0.001 0.248 0.043 0.344 0.125 0.053 0.043 0.097 0.097 0.128 0.157s0.051 0.127 0.057 0.195c0.006 0.068-0.002 0.137-0.023 0.202s-0.055 0.125-0.1 0.177c-0.051 0.058-0.113 0.105-0.183 0.137s-0.146 0.049-0.223 0.050c-0.121 0.003-0.237-0.042-0.325-0.125zM12.212 17.681c-0.099-0.039-0.183-0.107-0.242-0.195s-0.090-0.192-0.089-0.298c-0.002-0.073 0.013-0.146 0.044-0.212 0.044-0.087 0.111-0.159 0.194-0.21s0.178-0.078 0.275-0.077c0.064-0 0.128 0.013 0.188 0.037 0.127 0.059 0.226 0.165 0.277 0.295s0.047 0.276-0.008 0.405c-0.043 0.091-0.11 0.168-0.193 0.223s-0.181 0.086-0.282 0.089c-0.069-0.001-0.137-0.016-0.2-0.044h0.044l-0.006-0.012zM13.881 17.55c-0.047-0.080-0.073-0.17-0.075-0.262-0.001-0.091 0.023-0.18 0.070-0.258s0.113-0.142 0.193-0.185c0.084-0.047 0.178-0.073 0.275-0.075 0.087 0.002 0.173 0.025 0.249 0.067s0.141 0.103 0.188 0.177c0.054 0.082 0.082 0.177 0.081 0.275 0 0.088-0.023 0.175-0.067 0.252s-0.107 0.141-0.183 0.185c-0.073 0.051-0.161 0.077-0.25 0.075h-0.088c-0.087-0-0.173-0.024-0.249-0.067s-0.138-0.107-0.182-0.183h0.037zM9.375 6.406c0-0.138 0.054-0.271 0.152-0.369s0.229-0.154 0.367-0.156h0.106c0.136 0 0.266 0.054 0.362 0.15s0.15 0.226 0.15 0.362c0 0.137-0.054 0.269-0.149 0.367s-0.226 0.155-0.363 0.158c-0.138-0.002-0.27-0.058-0.367-0.156s-0.152-0.231-0.152-0.369l-0.106 0.012zM11.875 7.031c-0.129-0.012-0.249-0.072-0.337-0.168s-0.137-0.221-0.138-0.351v-0.050c0.015-0.13 0.078-0.251 0.176-0.338s0.224-0.136 0.356-0.137h0.037c0.129 0.012 0.249 0.072 0.337 0.168s0.137 0.221 0.138 0.351c0.004 0.017 0.004 0.033 0 0.050-0.009 0.129-0.068 0.25-0.163 0.338s-0.22 0.137-0.35 0.137h-0.056zM13.75 7.306c-0.118-0.026-0.225-0.091-0.301-0.186s-0.118-0.212-0.118-0.333c-0.003-0.033-0.003-0.067 0-0.1 0.024-0.118 0.089-0.224 0.182-0.3s0.21-0.118 0.331-0.118h0.106c0.117 0.025 0.223 0.090 0.299 0.183s0.118 0.209 0.12 0.329c0.003 0.033 0.003 0.067 0 0.1-0.026 0.119-0.091 0.226-0.185 0.303s-0.212 0.12-0.334 0.122h-0.1zM5.487 6.887c-0.003-0.031-0.003-0.063 0-0.094-0.001-0.121 0.040-0.239 0.115-0.334s0.18-0.162 0.298-0.191h0.112c0.121 0 0.237 0.042 0.331 0.118s0.158 0.182 0.182 0.3c0.003 0.033 0.003 0.067 0 0.1 0 0.119-0.040 0.234-0.114 0.327s-0.177 0.158-0.293 0.185h-0.119c-0.117-0.002-0.231-0.042-0.324-0.114s-0.159-0.173-0.189-0.286v-0.013zM15.625 7.781c-0.102-0.036-0.189-0.103-0.251-0.192s-0.094-0.194-0.093-0.302c-0.009-0.054-0.009-0.109 0-0.162 0.038-0.099 0.105-0.184 0.192-0.244s0.19-0.093 0.296-0.093c0.054-0.009 0.109-0.009 0.163 0 0.101 0.038 0.187 0.105 0.248 0.193s0.095 0.193 0.095 0.3c0.007 0.054 0.007 0.108 0 0.162-0.039 0.102-0.107 0.189-0.196 0.252s-0.195 0.097-0.304 0.098c-0.053-0.006-0.106-0.018-0.156-0.038l0.006 0.025zM3.6 7.488c-0.009-0.054-0.009-0.109 0-0.163 0-0.104 0.031-0.206 0.089-0.293s0.14-0.154 0.236-0.195c0.052-0.007 0.104-0.007 0.156 0 0.107 0 0.211 0.032 0.299 0.093s0.156 0.146 0.195 0.245c0.010 0.054 0.010 0.109 0 0.162-0 0.105-0.032 0.208-0.091 0.295s-0.143 0.154-0.24 0.193c-0.046 0.019-0.094 0.032-0.144 0.038-0.108-0.002-0.213-0.037-0.301-0.099s-0.155-0.15-0.193-0.251l-0.006-0.025zM17.256 8.556c-0.066-0.049-0.12-0.113-0.157-0.187s-0.056-0.155-0.055-0.238c-0.001-0.112 0.034-0.222 0.1-0.313 0.040-0.056 0.090-0.104 0.149-0.141s0.124-0.061 0.192-0.072c0.068-0.011 0.138-0.008 0.205 0.008s0.13 0.046 0.186 0.086c0.072 0.048 0.131 0.113 0.171 0.189s0.061 0.162 0.060 0.248c0.001 0.121-0.041 0.238-0.119 0.331-0.050 0.068-0.115 0.124-0.189 0.163s-0.158 0.060-0.242 0.062c-0.109-0.011-0.213-0.052-0.3-0.119v-0.019zM1.913 8.494c-0.071-0.089-0.108-0.199-0.106-0.313-0.001-0.082 0.019-0.162 0.055-0.235s0.091-0.136 0.157-0.184c0.091-0.066 0.2-0.101 0.313-0.1 0.082-0.001 0.162 0.018 0.235 0.055s0.136 0.091 0.184 0.157c0.065 0.091 0.1 0.2 0.1 0.313 0 0.081-0.018 0.161-0.054 0.234s-0.088 0.136-0.152 0.185c-0.086 0.067-0.191 0.104-0.3 0.106-0.082-0.001-0.163-0.021-0.236-0.059s-0.136-0.093-0.183-0.16h-0.012zM18.125 9.806c-0-0.137 0.052-0.268 0.147-0.367s0.223-0.158 0.36-0.164c0.136 0.002 0.266 0.056 0.363 0.152s0.153 0.225 0.156 0.361c-0.002 0.139-0.057 0.271-0.156 0.369s-0.231 0.154-0.369 0.156c-0.131-0.008-0.255-0.064-0.347-0.157s-0.147-0.218-0.153-0.349zM0.831 9.806c0-0.138 0.055-0.269 0.152-0.367s0.229-0.152 0.367-0.152c0.138 0 0.271 0.054 0.369 0.152s0.154 0.229 0.156 0.367c0 0.138-0.054 0.271-0.152 0.369s-0.229 0.154-0.367 0.156c-0.069 0.001-0.138-0.012-0.202-0.038s-0.122-0.065-0.171-0.114c-0.049-0.049-0.088-0.107-0.114-0.171s-0.039-0.133-0.038-0.202zM17.144 11.719c-0.066-0.091-0.101-0.2-0.1-0.313 0.001-0.082 0.020-0.162 0.057-0.234s0.090-0.136 0.156-0.184c0.088-0.066 0.196-0.101 0.306-0.1 0.082 0 0.163 0.020 0.236 0.058s0.136 0.093 0.183 0.161c0.065 0.089 0.1 0.196 0.1 0.306 0.001 0.082-0.018 0.163-0.055 0.236s-0.091 0.136-0.158 0.183c-0.056 0.041-0.119 0.070-0.186 0.086s-0.137 0.019-0.205 0.008c-0.068-0.011-0.133-0.036-0.192-0.072s-0.109-0.084-0.149-0.141l0.006 0.006zM2.037 11.831c-0.064-0.048-0.116-0.11-0.152-0.182s-0.054-0.151-0.054-0.231c-0.002-0.112 0.036-0.22 0.106-0.306 0.047-0.067 0.11-0.122 0.183-0.161s0.154-0.058 0.236-0.058c0.11 0 0.217 0.035 0.306 0.1 0.075 0.047 0.137 0.112 0.18 0.19s0.065 0.165 0.064 0.254c0.001 0.119-0.041 0.235-0.119 0.325-0.049 0.066-0.111 0.12-0.184 0.158s-0.153 0.059-0.235 0.061c-0.119-0.007-0.232-0.056-0.319-0.137l-0.013-0.012zM15.325 12.456c-0.010-0.054-0.010-0.109 0-0.163 0-0.105 0.032-0.208 0.091-0.295s0.143-0.154 0.241-0.193c0.052-0.007 0.104-0.007 0.156 0 0.107-0.001 0.211 0.031 0.3 0.092s0.156 0.146 0.194 0.246c0.010 0.052 0.010 0.105 0 0.156 0.001 0.107-0.031 0.211-0.092 0.3s-0.146 0.156-0.246 0.194c-0.058 0.010-0.117 0.010-0.175 0-0.102-0.008-0.199-0.046-0.28-0.108s-0.142-0.146-0.177-0.242l-0.012 0.012zM3.938 12.794c-0.1-0.036-0.186-0.103-0.246-0.19s-0.092-0.191-0.091-0.297c-0.010-0.058-0.010-0.117 0-0.175 0.036-0.101 0.102-0.187 0.189-0.249s0.191-0.095 0.298-0.095c0.056-0.009 0.113-0.009 0.169 0 0.126 0.049 0.228 0.144 0.286 0.266s0.067 0.261 0.026 0.39c-0.040 0.101-0.109 0.187-0.198 0.248s-0.194 0.094-0.302 0.096c-0.048 0.006-0.096 0.006-0.144 0l0.012 0.006zM13.394 12.931c-0.003-0.035-0.003-0.071 0-0.106 0.001-0.12 0.043-0.236 0.119-0.328s0.182-0.155 0.3-0.178h0.1c0.119 0.001 0.235 0.043 0.328 0.117s0.158 0.179 0.185 0.295c0.003 0.035 0.003 0.071 0 0.106-0.001 0.12-0.043 0.236-0.119 0.328s-0.182 0.155-0.3 0.178h-0.106c-0.116-0.002-0.228-0.043-0.318-0.117s-0.152-0.176-0.176-0.29l-0.012-0.006zM5.925 13.344c-0.119-0.022-0.226-0.084-0.304-0.177s-0.121-0.209-0.121-0.33c-0.003-0.037-0.003-0.075 0-0.112 0.025-0.12 0.091-0.228 0.187-0.304s0.216-0.117 0.338-0.114h0.1c0.116 0.024 0.221 0.088 0.296 0.18s0.116 0.207 0.117 0.326c0.003 0.035 0.003 0.071 0 0.106-0.024 0.118-0.087 0.224-0.179 0.301s-0.207 0.121-0.327 0.124h-0.106zM11.425 13.156c0 0 0 0 0-0.037 0.001-0.131 0.050-0.256 0.137-0.353s0.208-0.158 0.338-0.172h0.050c0.13-0 0.255 0.048 0.35 0.137s0.153 0.209 0.163 0.338c0.004 0.017 0.004 0.033 0 0.050-0.001 0.128-0.048 0.251-0.133 0.347s-0.202 0.157-0.329 0.172h-0.056c-0.127-0.004-0.249-0.053-0.343-0.139s-0.154-0.203-0.169-0.33l-0.006-0.012zM9.969 13.719c-0.138 0-0.271-0.054-0.369-0.152s-0.154-0.229-0.156-0.367c0.002-0.139 0.057-0.271 0.156-0.369s0.231-0.154 0.369-0.156c0.138 0.002 0.27 0.058 0.367 0.156s0.152 0.231 0.152 0.369c-0.001 0.131-0.052 0.257-0.143 0.352s-0.214 0.152-0.345 0.16l-0.031 0.006z"></path>
</svg>
