<!-- Generated by IcoMoon.io -->
<svg version="1.1" xmlns="http://www.w3.org/2000/svg" width="32" height="32" viewBox="0 0 32 32">
<title>particles</title>
<path d="M16 13.11c-0.513-0.012-1.017 0.129-1.449 0.405s-0.772 0.675-0.977 1.145c-0.204 0.47-0.264 0.991-0.171 1.495s0.334 0.97 0.692 1.337c0.358 0.367 0.818 0.619 1.32 0.723s1.024 0.057 1.499-0.136c0.475-0.193 0.881-0.524 1.168-0.949s0.439-0.927 0.439-1.439c-0.002-0.673-0.267-1.319-0.737-1.801s-1.11-0.761-1.783-0.779zM22.56 4.43c-0.139-0.069-0.258-0.173-0.342-0.304s-0.132-0.281-0.138-0.436c0.001-0.141 0.039-0.279 0.11-0.4 0.073-0.13 0.178-0.238 0.307-0.314s0.274-0.116 0.423-0.116c0.118 0 0.234 0.028 0.34 0.080 0.127 0.075 0.233 0.181 0.307 0.309s0.113 0.273 0.113 0.421c0 0.148-0.041 0.294-0.12 0.42-0.073 0.127-0.178 0.232-0.304 0.306s-0.27 0.113-0.416 0.114c-0.118-0-0.234-0.028-0.34-0.080h0.060zM19.13 4.2c-0.070-0.109-0.114-0.232-0.13-0.36-0.001-0.158 0.044-0.313 0.129-0.446s0.207-0.239 0.351-0.304c0.107-0.049 0.223-0.073 0.34-0.070 0.16 0 0.317 0.045 0.453 0.13s0.246 0.206 0.317 0.35c0.045 0.101 0.069 0.21 0.070 0.32-0.001 0.169-0.053 0.334-0.149 0.474s-0.233 0.246-0.391 0.306c-0.106 0.052-0.222 0.080-0.34 0.080-0.149-0.013-0.293-0.065-0.416-0.151s-0.221-0.203-0.284-0.339l0.050 0.010zM16.51 6.13c-0.125-0.152-0.196-0.343-0.2-0.54-0.002-0.122 0.023-0.242 0.073-0.353s0.124-0.209 0.217-0.287c0.151-0.127 0.342-0.198 0.54-0.2 0.12 0.001 0.239 0.029 0.348 0.081s0.205 0.127 0.282 0.219c0.14 0.146 0.222 0.338 0.23 0.54 0 0.121-0.027 0.24-0.079 0.349s-0.128 0.205-0.221 0.281c-0.151 0.127-0.342 0.198-0.54 0.2-0.12 0.001-0.238-0.025-0.347-0.075s-0.205-0.123-0.283-0.215h-0.020zM23.43 6.49v-0.080c-0.001-0.205 0.074-0.404 0.21-0.557s0.325-0.25 0.529-0.273h0.090c0.206-0.001 0.406 0.073 0.561 0.21s0.254 0.325 0.279 0.53c0.005 0.030 0.005 0.060 0 0.090 0.003 0.208-0.074 0.409-0.216 0.562s-0.336 0.245-0.544 0.258h-0.080c-0.205 0.002-0.404-0.071-0.558-0.206s-0.255-0.321-0.282-0.524l0.010-0.010zM14.33 8.49c-0.104-0.080-0.188-0.183-0.246-0.301s-0.086-0.248-0.084-0.379c-0.001-0.2 0.074-0.393 0.21-0.54 0.078-0.090 0.175-0.162 0.284-0.21s0.227-0.072 0.346-0.070c0.205-0.003 0.403 0.068 0.56 0.2 0.088 0.082 0.159 0.181 0.207 0.291s0.073 0.229 0.073 0.349c-0.002 0.198-0.072 0.389-0.2 0.54-0.080 0.088-0.177 0.158-0.286 0.206s-0.226 0.073-0.344 0.074c-0.099 0.003-0.198-0.015-0.291-0.051s-0.177-0.090-0.249-0.159l0.020 0.050zM23.93 10.43c-0.193-0.037-0.368-0.14-0.494-0.291s-0.195-0.342-0.196-0.539c0 0 0-0.1 0-0.15 0.020-0.209 0.117-0.402 0.273-0.543s0.358-0.218 0.567-0.217c0.073-0.010 0.147-0.010 0.22 0 0.192 0.035 0.365 0.137 0.489 0.287s0.192 0.339 0.191 0.533c0.014 0.059 0.020 0.119 0.020 0.18-0.035 0.193-0.136 0.367-0.286 0.493s-0.339 0.196-0.534 0.197h-0.22l-0.030 0.050zM12.45 11.040c-0.108-0.078-0.196-0.18-0.257-0.298s-0.093-0.249-0.093-0.382c0.002-0.174 0.054-0.344 0.15-0.49 0.078-0.108 0.18-0.196 0.298-0.257s0.249-0.093 0.382-0.093c0.176-0.001 0.348 0.055 0.49 0.16 0.106 0.079 0.193 0.182 0.254 0.299s0.094 0.248 0.096 0.381c-0.002 0.174-0.054 0.344-0.15 0.49-0.075 0.111-0.177 0.202-0.295 0.265s-0.251 0.095-0.385 0.095c-0.174-0.002-0.344-0.054-0.49-0.15v-0.020zM23.060 13.42c-0.166-0.055-0.311-0.161-0.413-0.303s-0.157-0.313-0.157-0.487c0.002-0.089 0.019-0.177 0.050-0.26 0.056-0.165 0.162-0.309 0.304-0.411s0.311-0.158 0.486-0.159c0.089 0.001 0.177 0.018 0.26 0.050 0.165 0.055 0.308 0.162 0.409 0.303s0.154 0.312 0.151 0.486c0.010 0.086 0.010 0.174 0 0.26-0.055 0.166-0.161 0.311-0.303 0.413s-0.312 0.157-0.487 0.157h-0.12c-0.056 0.010-0.114 0.010-0.17 0l-0.010-0.050zM10.84 13.69c-0.129-0.071-0.237-0.175-0.313-0.302s-0.116-0.271-0.117-0.418c0.001-0.139 0.036-0.277 0.1-0.4 0.073-0.127 0.178-0.232 0.304-0.306s0.27-0.113 0.416-0.114c0.148 0.003 0.293 0.044 0.42 0.12 0.127 0.070 0.233 0.173 0.307 0.297s0.113 0.267 0.113 0.412c-0.003 0.151-0.044 0.299-0.12 0.43-0.070 0.129-0.174 0.237-0.301 0.311s-0.272 0.112-0.419 0.109h-0.050c-0.129 0.001-0.256-0.030-0.37-0.090l0.030-0.050zM20.24 19.1c-0.128-0.072-0.234-0.176-0.308-0.303s-0.112-0.271-0.112-0.417c-0.002-0.149 0.040-0.295 0.12-0.42 0.073-0.13 0.178-0.238 0.307-0.314s0.274-0.116 0.423-0.116c0.147 0.001 0.291 0.039 0.42 0.11 0.129 0.073 0.236 0.179 0.309 0.308s0.112 0.274 0.11 0.422c0 0.144-0.038 0.285-0.11 0.41-0.075 0.127-0.181 0.233-0.309 0.307s-0.273 0.113-0.421 0.113h-0.080c-0.117 0.003-0.233-0.021-0.34-0.070l-0.010-0.030zM8.33 19.53c-0.164-0.060-0.306-0.168-0.406-0.312s-0.154-0.314-0.154-0.488c-0.014-0.083-0.014-0.167 0-0.25 0.057-0.165 0.164-0.307 0.305-0.409s0.311-0.158 0.485-0.161c0.089 0.001 0.177 0.018 0.26 0.050 0.164 0.056 0.307 0.163 0.407 0.305s0.154 0.311 0.153 0.485c0.015 0.086 0.015 0.174 0 0.26-0.054 0.165-0.159 0.308-0.299 0.41s-0.308 0.158-0.481 0.16h-0.28l0.010-0.050zM7.65 22.66c-0.189-0.042-0.358-0.149-0.477-0.302s-0.18-0.344-0.173-0.538c-0.004-0.043-0.004-0.087 0-0.13 0.035-0.19 0.135-0.362 0.283-0.486s0.334-0.193 0.527-0.194h0.15c0.197 0.029 0.377 0.127 0.507 0.278s0.202 0.343 0.203 0.542c0.005 0.047 0.005 0.093 0 0.14-0.033 0.193-0.134 0.369-0.284 0.495s-0.34 0.195-0.536 0.195h-0.2zM16.43 24.23c-0.093-0.079-0.168-0.177-0.22-0.287s-0.079-0.231-0.080-0.353c-0.003-0.234 0.087-0.46 0.25-0.629s0.386-0.266 0.62-0.271c0.206 0.001 0.404 0.075 0.56 0.21 0.086 0.079 0.156 0.174 0.204 0.281s0.074 0.222 0.076 0.339c0.001 0.206-0.074 0.405-0.21 0.56-0.076 0.090-0.171 0.162-0.278 0.21s-0.224 0.072-0.342 0.070c-0.195 0.002-0.385-0.069-0.53-0.2l-0.050 0.070zM6.8 25.1v-0.090c0.001-0.202 0.076-0.397 0.21-0.548s0.319-0.248 0.52-0.272h0.1c0.204-0.001 0.402 0.074 0.553 0.211s0.247 0.326 0.267 0.529c0.006 0.030 0.006 0.060 0 0.090-0.001 0.202-0.076 0.397-0.21 0.548s-0.319 0.248-0.52 0.272h-0.12c-0.199-0.006-0.389-0.083-0.535-0.216s-0.241-0.316-0.265-0.514v-0.010zM14.11 26.35c-0.127-0.151-0.198-0.342-0.2-0.54 0.001-0.12 0.029-0.239 0.081-0.348s0.127-0.205 0.219-0.282c0.149-0.133 0.341-0.207 0.54-0.21 0.121-0 0.24 0.027 0.349 0.079s0.205 0.128 0.281 0.221c0.144 0.169 0.215 0.387 0.198 0.608s-0.12 0.427-0.288 0.572c-0.155 0.122-0.344 0.192-0.54 0.2-0.122 0-0.243-0.027-0.354-0.078s-0.209-0.128-0.287-0.221zM11.34 27.88c-0.045-0.108-0.069-0.223-0.070-0.34-0-0.16 0.047-0.317 0.136-0.451s0.216-0.238 0.364-0.299c0.096-0.015 0.194-0.015 0.29 0 0.157-0.002 0.311 0.042 0.444 0.125s0.239 0.203 0.306 0.345c0.044 0.108 0.068 0.223 0.070 0.34-0.002 0.163-0.050 0.321-0.139 0.457s-0.214 0.245-0.361 0.313c-0.104 0.044-0.216 0.068-0.33 0.070-0.15-0.009-0.295-0.060-0.419-0.147s-0.221-0.205-0.281-0.343l-0.010-0.070zM8.64 28.42c-0.132-0.070-0.242-0.175-0.318-0.304s-0.115-0.276-0.112-0.426c0.005-0.148 0.046-0.292 0.12-0.42 0.070-0.129 0.174-0.237 0.301-0.311s0.272-0.112 0.419-0.109c0.147-0 0.292 0.038 0.42 0.11 0.13 0.073 0.238 0.178 0.314 0.307s0.116 0.274 0.116 0.423c0 0.144-0.038 0.285-0.11 0.41-0.072 0.131-0.178 0.239-0.306 0.315s-0.275 0.115-0.424 0.115c-0.144-0.008-0.284-0.049-0.41-0.12l-0.010 0.010zM8.3 4.12c-0.079-0.129-0.118-0.279-0.11-0.43 0-0.151 0.043-0.3 0.122-0.429s0.193-0.233 0.328-0.301c0.128-0.082 0.278-0.123 0.43-0.12 0.144 0 0.286 0.037 0.412 0.107s0.232 0.171 0.308 0.293c0.109 0.193 0.137 0.42 0.079 0.634s-0.198 0.395-0.389 0.506c-0.124 0.072-0.266 0.11-0.41 0.11h-0.070c-0.144 0.001-0.286-0.036-0.411-0.109s-0.228-0.176-0.299-0.301l0.010 0.040zM11.77 4.59c-0.149-0.066-0.276-0.174-0.364-0.311s-0.136-0.296-0.136-0.459c-0.002-0.117 0.022-0.233 0.070-0.34 0.067-0.148 0.175-0.274 0.312-0.363s0.296-0.136 0.458-0.137c0.117 0.003 0.232 0.027 0.34 0.070 0.144 0.066 0.265 0.171 0.351 0.304s0.13 0.288 0.129 0.446c0.004 0.137-0.031 0.272-0.1 0.39-0.064 0.147-0.168 0.272-0.301 0.361s-0.289 0.137-0.449 0.139c-0.105-0.020-0.207-0.058-0.3-0.11l-0.010 0.010zM14.2 6.3c-0.165-0.148-0.268-0.354-0.286-0.575s0.048-0.441 0.186-0.615c0.078-0.094 0.176-0.17 0.287-0.222s0.231-0.079 0.354-0.078c0.197 0.004 0.387 0.075 0.54 0.2 0.093 0.077 0.168 0.173 0.219 0.282s0.079 0.228 0.081 0.348c0.001 0.2-0.074 0.393-0.21 0.54-0.075 0.095-0.17 0.172-0.28 0.224s-0.229 0.078-0.35 0.076c-0.109-0.009-0.215-0.040-0.311-0.092s-0.181-0.122-0.249-0.208l0.020 0.12zM7.57 7.3c-0.205-0.018-0.396-0.112-0.535-0.264s-0.216-0.351-0.215-0.556v-0.1c0.033-0.195 0.135-0.372 0.288-0.498s0.345-0.194 0.542-0.192h0.090c0.205 0.022 0.395 0.119 0.533 0.272s0.215 0.352 0.217 0.558c0 0 0 0.060 0 0.090-0.022 0.205-0.119 0.395-0.272 0.533s-0.352 0.215-0.558 0.217h-0.090v-0.060zM16.38 8.3c-0.143-0.147-0.222-0.345-0.22-0.55 0-0.12 0.026-0.238 0.076-0.347s0.123-0.205 0.214-0.283c0.081-0.073 0.177-0.128 0.28-0.164s0.213-0.050 0.322-0.042 0.215 0.037 0.313 0.086c0.098 0.049 0.184 0.117 0.255 0.2 0.106 0.141 0.162 0.314 0.16 0.49 0.001 0.114-0.023 0.226-0.070 0.329s-0.115 0.196-0.2 0.271c-0.147 0.136-0.34 0.211-0.54 0.21h-0.080c-0.203-0.001-0.398-0.076-0.55-0.21l0.040 0.010zM7 9.78c-0.005-0.050-0.005-0.1 0-0.15 0.001-0.193 0.068-0.38 0.19-0.529s0.292-0.252 0.48-0.291h0.17c0.186-0 0.366 0.060 0.514 0.172s0.255 0.269 0.306 0.448c0.005 0.046 0.005 0.094 0 0.14-0 0.191-0.066 0.377-0.186 0.526s-0.287 0.253-0.474 0.294h-0.2c-0.194-0.007-0.379-0.080-0.525-0.207s-0.243-0.302-0.275-0.493v0.090zM7.84 12.91c-0.016-0.083-0.016-0.167 0-0.25 0.001-0.172 0.054-0.339 0.152-0.48s0.237-0.249 0.398-0.31c0.083-0.016 0.167-0.016 0.25 0 0.174-0.003 0.344 0.050 0.486 0.151s0.248 0.244 0.303 0.409c0.015 0.086 0.015 0.174 0 0.26 0.001 0.172-0.053 0.341-0.154 0.48s-0.243 0.245-0.406 0.3h-0.28c-0.166 0-0.327-0.050-0.465-0.142s-0.244-0.224-0.305-0.378l0.020-0.040zM19.93 13.35c-0.073-0.124-0.11-0.266-0.11-0.41 0-0.145 0.038-0.288 0.11-0.414s0.175-0.232 0.3-0.306c0.127-0.065 0.267-0.099 0.41-0.1 0.146-0.001 0.289 0.036 0.417 0.106s0.235 0.171 0.313 0.294c0.074 0.124 0.112 0.266 0.11 0.41 0.001 0.147-0.038 0.291-0.112 0.417s-0.18 0.231-0.308 0.303c-0.111 0.079-0.244 0.121-0.38 0.12-0.146-0.001-0.29-0.041-0.416-0.114s-0.231-0.179-0.304-0.306h-0.030zM9 15.94c-0.027-0.115-0.027-0.235 0-0.35-0.002-0.158 0.042-0.314 0.128-0.447s0.208-0.239 0.352-0.303c0.112-0.044 0.23-0.068 0.35-0.070 0.159-0.001 0.316 0.043 0.451 0.128s0.242 0.207 0.309 0.352c0.049 0.107 0.073 0.223 0.070 0.34 0.002 0.158-0.041 0.314-0.124 0.449s-0.203 0.243-0.346 0.311c-0.111 0.044-0.23 0.068-0.35 0.070-0.173 0.023-0.349-0.012-0.501-0.099s-0.271-0.221-0.339-0.381zM21.3 16.1c-0.049-0.114-0.073-0.236-0.070-0.36 0.001-0.156 0.045-0.309 0.128-0.442s0.201-0.239 0.342-0.308c0.109-0.052 0.229-0.079 0.35-0.080 0.16 0 0.317 0.045 0.454 0.13s0.246 0.206 0.317 0.35c0.050 0.11 0.074 0.229 0.070 0.35 0.002 0.157-0.042 0.311-0.125 0.444s-0.203 0.239-0.345 0.306c-0.107 0.050-0.222 0.080-0.34 0.090-0.159-0.001-0.314-0.048-0.447-0.135s-0.238-0.21-0.303-0.355l-0.030 0.010zM10.52 18.81c-0.109-0.19-0.139-0.415-0.083-0.627s0.194-0.392 0.383-0.503c0.128-0.072 0.273-0.11 0.42-0.11 0.146 0.001 0.29 0.040 0.418 0.111s0.235 0.174 0.312 0.299c0.109 0.19 0.139 0.415 0.083 0.627s-0.194 0.392-0.383 0.503c-0.128 0.074-0.273 0.112-0.42 0.11-0.146-0.004-0.288-0.044-0.416-0.115s-0.235-0.173-0.314-0.295zM22.52 19c-0.011-0.086-0.011-0.174 0-0.26-0-0.172 0.053-0.34 0.154-0.48s0.243-0.245 0.406-0.299c0.079-0.016 0.161-0.016 0.24 0 0.175-0 0.345 0.053 0.488 0.154s0.252 0.242 0.312 0.406c0.015 0.086 0.015 0.174 0 0.26 0 0.172-0.053 0.34-0.154 0.48s-0.243 0.245-0.406 0.299h-0.26c-0.174-0-0.343-0.055-0.483-0.158s-0.244-0.247-0.297-0.412v0.010zM12.3 21.6c-0.096-0.142-0.148-0.309-0.15-0.48 0-0.133 0.032-0.264 0.093-0.382s0.149-0.22 0.257-0.298c0.089-0.065 0.19-0.112 0.297-0.138s0.219-0.030 0.328-0.012c0.109 0.018 0.213 0.057 0.307 0.115s0.175 0.135 0.238 0.225c0.102 0.135 0.154 0.301 0.15 0.47-0 0.133-0.032 0.264-0.093 0.382s-0.149 0.22-0.257 0.298c-0.134 0.104-0.3 0.161-0.47 0.16-0.135-0.005-0.267-0.043-0.384-0.111s-0.215-0.164-0.286-0.279l-0.030 0.050zM23.3 21.94c0 0 0-0.090 0-0.14-0-0.199 0.070-0.391 0.198-0.543s0.306-0.254 0.502-0.287h0.14c0.198-0.003 0.39 0.065 0.543 0.192s0.254 0.303 0.288 0.498c0 0.050 0 0.1 0 0.15-0.002 0.196-0.071 0.385-0.197 0.534s-0.3 0.251-0.493 0.286h-0.15c-0.194-0-0.382-0.067-0.533-0.189s-0.256-0.292-0.297-0.481v-0.020zM14.3 24.11c-0.124-0.145-0.191-0.329-0.19-0.52-0.001-0.113 0.022-0.224 0.067-0.327s0.111-0.196 0.193-0.273c0.152-0.134 0.347-0.209 0.55-0.21 0.12-0.001 0.238 0.025 0.347 0.075s0.205 0.123 0.283 0.215c0.134 0.152 0.209 0.347 0.21 0.55 0 0.117-0.024 0.233-0.073 0.34s-0.119 0.202-0.207 0.28c-0.155 0.136-0.354 0.211-0.56 0.21-0.121-0.006-0.24-0.038-0.347-0.095s-0.2-0.137-0.273-0.235v-0.010zM24.19 25.74c-0.209-0.024-0.401-0.124-0.541-0.281s-0.218-0.359-0.219-0.569v-0.070c0.025-0.205 0.124-0.394 0.279-0.53s0.355-0.211 0.561-0.21h0.080c0.209 0.017 0.403 0.112 0.546 0.266s0.222 0.355 0.224 0.564c0 0 0 0.060 0 0.080-0.022 0.205-0.119 0.395-0.272 0.533s-0.352 0.215-0.558 0.217h-0.1zM16.64 26.43c-0.095-0.080-0.171-0.179-0.223-0.291s-0.078-0.235-0.077-0.359c0.001-0.191 0.065-0.377 0.18-0.53 0.080-0.091 0.179-0.163 0.289-0.213s0.23-0.076 0.351-0.077c0.201-0.002 0.397 0.069 0.55 0.2 0.085 0.069 0.154 0.155 0.205 0.252s0.082 0.203 0.091 0.312c0.009 0.109-0.003 0.219-0.037 0.323s-0.088 0.2-0.16 0.283c-0.081 0.093-0.181 0.168-0.293 0.22s-0.234 0.079-0.357 0.080c-0.193 0.005-0.38-0.067-0.52-0.2zM19.54 28.29c-0.158-0.063-0.293-0.172-0.388-0.313s-0.144-0.308-0.142-0.477c-0.003-0.117 0.021-0.233 0.070-0.34 0.070-0.139 0.178-0.255 0.31-0.336s0.285-0.124 0.44-0.124c0.103-0 0.205 0.020 0.3 0.060 0.203 0.094 0.362 0.264 0.442 0.473s0.076 0.442-0.012 0.647c-0.068 0.145-0.175 0.269-0.309 0.357s-0.29 0.138-0.451 0.143c-0.11-0.002-0.219-0.026-0.32-0.070h0.070l-0.010-0.020zM22.21 28.080c-0.076-0.127-0.117-0.272-0.12-0.42-0.001-0.145 0.037-0.288 0.111-0.413s0.181-0.228 0.309-0.297c0.134-0.076 0.286-0.117 0.44-0.12 0.14 0.002 0.277 0.039 0.399 0.107s0.226 0.165 0.301 0.283c0.086 0.131 0.131 0.284 0.13 0.44 0 0.141-0.037 0.28-0.107 0.403s-0.171 0.225-0.293 0.297c-0.117 0.081-0.257 0.123-0.4 0.12h-0.14c-0.14-0-0.277-0.038-0.398-0.108s-0.222-0.171-0.292-0.292h0.060zM15 10.25c0-0.221 0.087-0.433 0.242-0.59s0.367-0.247 0.588-0.25h0.17c0.218 0 0.426 0.086 0.58 0.24s0.24 0.362 0.24 0.58c0 0.219-0.086 0.43-0.239 0.587s-0.362 0.248-0.581 0.253c-0.221-0.003-0.432-0.092-0.588-0.249s-0.242-0.369-0.242-0.591l-0.17 0.020zM19 11.25c-0.207-0.020-0.399-0.116-0.54-0.269s-0.219-0.353-0.221-0.561v-0.080c0.024-0.209 0.124-0.401 0.281-0.541s0.359-0.218 0.569-0.219h0.060c0.207 0.020 0.399 0.116 0.54 0.269s0.219 0.353 0.221 0.561c0.006 0.026 0.006 0.054 0 0.080-0.015 0.207-0.108 0.4-0.26 0.541s-0.352 0.219-0.56 0.219h-0.090zM22 11.69c-0.19-0.041-0.36-0.146-0.481-0.297s-0.188-0.339-0.189-0.533c-0.005-0.053-0.005-0.107 0-0.16 0.039-0.189 0.142-0.358 0.291-0.48s0.336-0.189 0.529-0.19h0.17c0.188 0.041 0.357 0.144 0.478 0.293s0.189 0.335 0.192 0.527c0.005 0.053 0.005 0.107 0 0.16-0.041 0.191-0.145 0.362-0.296 0.485s-0.339 0.192-0.534 0.195h-0.16zM8.78 11.020c-0.006-0.050-0.006-0.1 0-0.15-0.001-0.194 0.064-0.382 0.184-0.535s0.288-0.26 0.476-0.305h0.18c0.193 0.001 0.38 0.068 0.529 0.19s0.252 0.292 0.291 0.48c0.005 0.053 0.005 0.107 0 0.16 0 0.19-0.064 0.375-0.182 0.524s-0.283 0.253-0.468 0.296h-0.19c-0.188-0.002-0.37-0.066-0.518-0.182s-0.254-0.276-0.302-0.458v-0.020zM25 12.45c-0.162-0.058-0.303-0.165-0.401-0.307s-0.151-0.31-0.149-0.483c-0.015-0.086-0.015-0.174 0-0.26 0.061-0.158 0.167-0.294 0.306-0.391s0.304-0.148 0.474-0.149c0.086-0.015 0.174-0.015 0.26 0 0.161 0.061 0.299 0.169 0.398 0.31s0.151 0.309 0.152 0.48c0.010 0.086 0.010 0.174 0 0.26-0.062 0.163-0.171 0.303-0.314 0.403s-0.312 0.155-0.486 0.157c-0.086-0.009-0.17-0.029-0.25-0.060l0.010 0.040zM5.76 11.98c-0.015-0.086-0.015-0.174 0-0.26 0.001-0.167 0.050-0.329 0.143-0.468s0.224-0.247 0.377-0.312c0.083-0.011 0.167-0.011 0.25 0 0.171 0 0.337 0.052 0.478 0.148s0.25 0.233 0.312 0.392c0.016 0.086 0.016 0.174 0 0.26-0 0.168-0.051 0.332-0.145 0.471s-0.229 0.247-0.385 0.309c-0.074 0.030-0.151 0.051-0.23 0.060-0.173-0.003-0.34-0.058-0.481-0.158s-0.248-0.24-0.309-0.402l-0.010-0.040zM27.61 13.69c-0.106-0.079-0.192-0.181-0.251-0.299s-0.090-0.249-0.089-0.381c-0.001-0.179 0.055-0.354 0.16-0.5 0.064-0.090 0.145-0.167 0.238-0.225s0.198-0.098 0.307-0.115c0.109-0.018 0.22-0.014 0.328 0.012s0.208 0.073 0.297 0.138c0.115 0.077 0.209 0.181 0.274 0.303s0.098 0.259 0.096 0.397c0.001 0.194-0.066 0.381-0.19 0.53-0.080 0.109-0.183 0.198-0.303 0.26s-0.252 0.097-0.387 0.1c-0.175-0.017-0.341-0.083-0.48-0.19v-0.030zM3.060 13.59c-0.113-0.142-0.173-0.319-0.17-0.5-0.001-0.131 0.030-0.26 0.089-0.376s0.145-0.217 0.251-0.294c0.146-0.105 0.321-0.161 0.5-0.16 0.131-0.001 0.26 0.030 0.376 0.089s0.217 0.145 0.294 0.251c0.105 0.146 0.161 0.321 0.16 0.5 0 0.13-0.029 0.258-0.086 0.374s-0.141 0.218-0.244 0.296c-0.137 0.107-0.306 0.167-0.48 0.17-0.131-0.001-0.261-0.034-0.377-0.094s-0.217-0.149-0.293-0.256h-0.020zM29 15.69c-0-0.219 0.084-0.429 0.235-0.587s0.357-0.252 0.575-0.263c0.218 0.002 0.426 0.089 0.581 0.242s0.244 0.36 0.249 0.578c-0.003 0.222-0.092 0.434-0.249 0.591s-0.369 0.246-0.591 0.249c-0.21-0.012-0.408-0.102-0.556-0.251s-0.235-0.349-0.244-0.559zM1.33 15.69c0-0.22 0.087-0.431 0.243-0.587s0.367-0.243 0.587-0.243c0.221 0 0.433 0.087 0.59 0.242s0.247 0.367 0.25 0.588c0 0.221-0.087 0.433-0.242 0.591s-0.366 0.247-0.588 0.25c-0.111 0.001-0.22-0.020-0.323-0.061s-0.196-0.104-0.274-0.182c-0.078-0.078-0.14-0.171-0.182-0.274s-0.063-0.212-0.061-0.323zM27.43 18.75c-0.105-0.146-0.161-0.321-0.16-0.5 0.001-0.13 0.032-0.259 0.091-0.375s0.144-0.217 0.249-0.295c0.141-0.106 0.314-0.162 0.49-0.16 0.132 0 0.261 0.032 0.378 0.093s0.217 0.149 0.292 0.257c0.105 0.142 0.161 0.314 0.16 0.49 0.002 0.131-0.028 0.26-0.088 0.377s-0.146 0.217-0.252 0.293c-0.089 0.065-0.19 0.112-0.297 0.138s-0.219 0.030-0.328 0.012c-0.109-0.018-0.213-0.057-0.307-0.115s-0.175-0.135-0.238-0.225l0.010 0.010zM3.26 18.93c-0.103-0.077-0.186-0.176-0.243-0.291s-0.087-0.241-0.087-0.369c-0.003-0.178 0.057-0.352 0.17-0.49 0.075-0.108 0.176-0.196 0.292-0.257s0.246-0.093 0.378-0.093c0.176 0.001 0.347 0.057 0.49 0.16 0.12 0.075 0.219 0.18 0.287 0.304s0.104 0.264 0.103 0.406c0.001 0.191-0.066 0.375-0.19 0.52-0.078 0.105-0.178 0.192-0.294 0.253s-0.245 0.094-0.376 0.097c-0.19-0.012-0.371-0.090-0.51-0.22l-0.020-0.020zM24.52 19.93c-0.016-0.086-0.016-0.174 0-0.26 0-0.168 0.051-0.332 0.145-0.471s0.229-0.247 0.385-0.309c0.083-0.011 0.167-0.011 0.25 0 0.171-0.001 0.338 0.050 0.479 0.146s0.25 0.234 0.311 0.393c0.016 0.083 0.016 0.167 0 0.25 0.001 0.171-0.050 0.338-0.146 0.479s-0.234 0.25-0.393 0.311c-0.093 0.016-0.187 0.016-0.28 0-0.163-0.013-0.318-0.073-0.447-0.173s-0.228-0.234-0.283-0.387l-0.020 0.020zM6.3 20.47c-0.16-0.058-0.298-0.164-0.394-0.304s-0.148-0.306-0.146-0.476c-0.015-0.093-0.015-0.187 0-0.28 0.058-0.161 0.163-0.3 0.303-0.398s0.306-0.151 0.477-0.152c0.089-0.014 0.181-0.014 0.27 0 0.201 0.079 0.365 0.231 0.458 0.426s0.108 0.418 0.042 0.624c-0.064 0.161-0.174 0.299-0.316 0.397s-0.311 0.151-0.484 0.153c-0.076 0.010-0.154 0.010-0.23 0l0.020 0.010zM21.43 20.69c-0.006-0.056-0.006-0.113 0-0.17 0.001-0.192 0.068-0.377 0.19-0.525s0.292-0.248 0.48-0.285h0.16c0.191 0.002 0.376 0.068 0.524 0.188s0.253 0.286 0.296 0.472c0.005 0.056 0.005 0.113 0 0.17-0.001 0.192-0.068 0.377-0.19 0.525s-0.292 0.248-0.48 0.285h-0.17c-0.186-0.003-0.365-0.069-0.509-0.187s-0.243-0.282-0.281-0.463l-0.020-0.010zM9.48 21.35c-0.19-0.035-0.362-0.135-0.486-0.283s-0.193-0.334-0.194-0.527c-0.005-0.060-0.005-0.12 0-0.18 0.040-0.192 0.145-0.364 0.299-0.487s0.345-0.187 0.541-0.183h0.16c0.186 0.039 0.353 0.141 0.473 0.288s0.186 0.332 0.187 0.522c0.005 0.056 0.005 0.113 0 0.17-0.038 0.188-0.139 0.358-0.286 0.481s-0.332 0.194-0.524 0.199h-0.17zM18.28 21.050c0 0 0 0 0-0.060 0.001-0.209 0.079-0.41 0.22-0.565s0.332-0.253 0.54-0.275h0.080c0.207-0.001 0.407 0.078 0.56 0.219s0.245 0.334 0.26 0.541c0.006 0.026 0.006 0.054 0 0.080-0.001 0.205-0.077 0.402-0.213 0.555s-0.324 0.251-0.527 0.275h-0.090c-0.204-0.006-0.399-0.085-0.549-0.222s-0.247-0.325-0.27-0.528l-0.010-0.020zM15.95 21.95c-0.221 0-0.433-0.087-0.591-0.242s-0.247-0.366-0.249-0.587c0.003-0.222 0.092-0.434 0.249-0.591s0.369-0.246 0.591-0.249c0.221 0.003 0.432 0.092 0.587 0.25s0.242 0.369 0.242 0.59c-0.002 0.21-0.084 0.411-0.229 0.564s-0.342 0.244-0.551 0.256l-0.050 0.010z"></path>
</svg>
