<!-- Generated by IcoMoon.io -->
<svg version="1.1" xmlns="http://www.w3.org/2000/svg" width="32" height="32" viewBox="0 0 32 32">
<title>particles-alt</title>
<path d="M16.050 13.24c0.691 0.003 1.354 0.278 1.843 0.767s0.765 1.151 0.767 1.843c0.002 0.517-0.149 1.023-0.434 1.454s-0.691 0.769-1.167 0.97c-0.476 0.201-1.001 0.256-1.509 0.16s-0.976-0.342-1.345-0.704c-0.369-0.362-0.623-0.825-0.729-1.331s-0.061-1.032 0.131-1.512c0.192-0.48 0.521-0.892 0.947-1.185s0.929-0.454 1.446-0.462h0.050zM16 9.29c-0.198 0-0.391 0.059-0.556 0.169s-0.293 0.266-0.368 0.449c-0.076 0.183-0.095 0.384-0.057 0.578s0.134 0.372 0.274 0.512c0.14 0.14 0.318 0.235 0.512 0.274s0.395 0.019 0.578-0.057c0.183-0.076 0.339-0.204 0.449-0.368s0.169-0.358 0.169-0.556c0-0.265-0.105-0.52-0.293-0.707s-0.442-0.293-0.707-0.293zM13 9.41c-0.198 0-0.391 0.059-0.556 0.169s-0.293 0.266-0.368 0.449-0.095 0.384-0.057 0.578c0.039 0.194 0.134 0.372 0.274 0.512s0.318 0.235 0.512 0.274 0.395 0.019 0.578-0.057c0.183-0.076 0.339-0.204 0.449-0.368s0.168-0.358 0.168-0.556c0-0.265-0.105-0.52-0.293-0.707s-0.442-0.293-0.707-0.293zM9.6 10.020c-0.182 0-0.361 0.054-0.512 0.156s-0.269 0.246-0.339 0.415-0.087 0.354-0.051 0.533c0.036 0.179 0.125 0.343 0.255 0.471s0.295 0.215 0.474 0.249c0.179 0.034 0.364 0.015 0.532-0.056s0.311-0.191 0.411-0.343c0.1-0.153 0.152-0.331 0.15-0.514 0-0.121-0.024-0.241-0.071-0.353s-0.116-0.213-0.203-0.298c-0.087-0.085-0.189-0.151-0.302-0.196s-0.233-0.066-0.354-0.063h0.010zM6.48 11.020c-0.168 0-0.332 0.050-0.472 0.143s-0.249 0.226-0.313 0.382c-0.064 0.155-0.081 0.326-0.048 0.491s0.114 0.316 0.233 0.435c0.119 0.119 0.27 0.2 0.435 0.233s0.336 0.016 0.491-0.048c0.155-0.064 0.288-0.173 0.381-0.313s0.143-0.304 0.143-0.472c0.004-0.115-0.015-0.23-0.057-0.338s-0.104-0.206-0.184-0.289-0.176-0.149-0.283-0.194c-0.106-0.045-0.221-0.068-0.336-0.068l0.010 0.040zM3.63 12.45c-0.102-0.001-0.203 0.018-0.298 0.056s-0.181 0.095-0.253 0.166c-0.073 0.072-0.13 0.157-0.17 0.251s-0.060 0.195-0.060 0.297c0 0.207 0.082 0.405 0.228 0.552s0.345 0.229 0.552 0.229 0.405-0.082 0.552-0.229c0.146-0.146 0.228-0.345 0.228-0.552 0-0.102-0.020-0.203-0.060-0.297s-0.097-0.179-0.17-0.251c-0.073-0.072-0.159-0.128-0.253-0.166s-0.196-0.057-0.298-0.056zM2 15.13c-0.14 0.002-0.276 0.045-0.392 0.124s-0.205 0.191-0.257 0.321c-0.052 0.13-0.065 0.272-0.036 0.409s0.097 0.263 0.197 0.361 0.226 0.165 0.364 0.192c0.137 0.027 0.28 0.012 0.409-0.042s0.239-0.145 0.317-0.262 0.119-0.253 0.119-0.393c0-0.094-0.019-0.187-0.055-0.274s-0.090-0.166-0.156-0.232c-0.067-0.066-0.146-0.118-0.234-0.153s-0.181-0.052-0.275-0.051zM3.65 17.86c-0.126 0.002-0.249 0.041-0.353 0.113s-0.184 0.172-0.231 0.289c-0.047 0.117-0.058 0.245-0.032 0.369s0.088 0.236 0.177 0.325c0.090 0.088 0.204 0.148 0.328 0.172s0.252 0.011 0.368-0.038c0.116-0.049 0.216-0.131 0.286-0.236s0.107-0.228 0.107-0.355c0-0.165-0.063-0.323-0.177-0.442s-0.269-0.19-0.433-0.198h-0.040zM6.48 19.36c-0.082-0.011-0.165-0.004-0.244 0.020s-0.152 0.064-0.214 0.119c-0.062 0.055-0.112 0.122-0.146 0.197s-0.052 0.157-0.052 0.239 0.018 0.164 0.052 0.239c0.034 0.075 0.084 0.142 0.146 0.197s0.135 0.095 0.214 0.119c0.079 0.024 0.162 0.031 0.244 0.020 0.139-0.018 0.267-0.087 0.36-0.193s0.144-0.242 0.144-0.382c0-0.141-0.051-0.276-0.144-0.382s-0.221-0.174-0.36-0.193zM9.59 20.26c-0.101 0-0.199 0.030-0.283 0.086s-0.149 0.136-0.188 0.229-0.049 0.196-0.029 0.295c0.020 0.099 0.068 0.19 0.14 0.261s0.162 0.12 0.261 0.14c0.099 0.020 0.201 0.010 0.295-0.029s0.173-0.104 0.229-0.188c0.056-0.084 0.086-0.182 0.086-0.283 0-0.129-0.048-0.253-0.135-0.347s-0.207-0.153-0.335-0.163h-0.040zM13.18 21.050c-0.058-0.001-0.116 0.009-0.17 0.031s-0.103 0.054-0.144 0.095c-0.041 0.041-0.073 0.090-0.095 0.144s-0.032 0.112-0.031 0.17c0 0.117 0.046 0.229 0.129 0.311s0.194 0.129 0.311 0.129c0.117 0 0.229-0.046 0.311-0.129s0.129-0.194 0.129-0.311c0.001-0.11-0.040-0.216-0.114-0.298s-0.176-0.132-0.286-0.142h-0.040zM16 20.97c-0.082-0.002-0.162 0.021-0.232 0.065s-0.123 0.108-0.155 0.183c-0.032 0.075-0.041 0.159-0.026 0.239s0.055 0.154 0.113 0.212 0.132 0.097 0.212 0.113c0.080 0.015 0.164 0.006 0.239-0.026s0.139-0.086 0.183-0.155c0.044-0.069 0.067-0.15 0.065-0.232 0-0.106-0.042-0.208-0.117-0.283s-0.177-0.117-0.283-0.117zM18 10.4c0 0.198 0.059 0.391 0.169 0.556s0.266 0.293 0.449 0.368 0.384 0.095 0.578 0.057c0.194-0.039 0.372-0.134 0.512-0.274s0.235-0.318 0.274-0.512 0.019-0.395-0.057-0.578c-0.076-0.183-0.204-0.339-0.368-0.449s-0.358-0.169-0.556-0.169c-0.265 0-0.52 0.105-0.707 0.293s-0.293 0.442-0.293 0.707zM21.46 10.93c-0.002 0.182 0.050 0.361 0.15 0.514s0.243 0.272 0.411 0.343c0.168 0.071 0.353 0.091 0.532 0.056s0.344-0.121 0.474-0.249c0.13-0.128 0.218-0.292 0.255-0.471s0.019-0.364-0.051-0.533c-0.069-0.169-0.187-0.313-0.339-0.415s-0.33-0.156-0.512-0.156c-0.237 0.008-0.462 0.107-0.628 0.276s-0.26 0.397-0.262 0.634h-0.030zM24.65 11.83c0 0.168 0.050 0.332 0.143 0.472s0.226 0.249 0.381 0.313c0.155 0.064 0.326 0.081 0.491 0.048s0.316-0.114 0.435-0.233c0.119-0.119 0.2-0.27 0.233-0.435s0.016-0.336-0.048-0.491c-0.064-0.155-0.173-0.288-0.313-0.382s-0.304-0.143-0.472-0.143c-0.22 0.008-0.429 0.101-0.582 0.259s-0.238 0.37-0.238 0.591h-0.030zM27.56 13.22c0 0.207 0.082 0.405 0.229 0.552s0.345 0.229 0.552 0.229 0.405-0.082 0.552-0.229c0.146-0.146 0.229-0.345 0.229-0.552s-0.082-0.405-0.229-0.552c-0.146-0.146-0.345-0.228-0.552-0.228s-0.405 0.082-0.552 0.228c-0.146 0.146-0.229 0.345-0.229 0.552zM29.21 15.84c-0.002 0.143 0.039 0.283 0.116 0.403s0.19 0.213 0.321 0.27c0.131 0.056 0.276 0.072 0.417 0.045s0.27-0.095 0.371-0.195c0.102-0.1 0.171-0.229 0.2-0.368s0.015-0.285-0.039-0.417c-0.054-0.132-0.146-0.245-0.265-0.325s-0.258-0.122-0.401-0.122c-0.185 0.005-0.36 0.082-0.489 0.215s-0.201 0.31-0.201 0.495h-0.030zM27.63 18.5c-0.002 0.129 0.034 0.256 0.105 0.364s0.171 0.193 0.29 0.244c0.119 0.051 0.25 0.065 0.376 0.041s0.244-0.085 0.335-0.175 0.155-0.206 0.181-0.333c0.026-0.126 0.014-0.258-0.035-0.377s-0.132-0.221-0.239-0.293c-0.107-0.072-0.233-0.11-0.362-0.11-0.166 0.005-0.324 0.075-0.44 0.194s-0.18 0.279-0.18 0.446h-0.030zM24.88 19.94c0 0.075 0.015 0.149 0.043 0.218s0.071 0.132 0.124 0.185c0.053 0.053 0.116 0.095 0.185 0.124s0.143 0.043 0.218 0.043c0.082 0.011 0.165 0.004 0.244-0.020s0.152-0.064 0.214-0.119c0.062-0.055 0.112-0.122 0.146-0.197s0.052-0.157 0.052-0.239c0-0.083-0.018-0.164-0.052-0.239s-0.084-0.142-0.146-0.197c-0.062-0.054-0.135-0.095-0.214-0.119s-0.162-0.031-0.244-0.020c-0.148 0.008-0.287 0.073-0.387 0.181s-0.155 0.251-0.153 0.399h-0.030zM21.83 20.77c0 0.101 0.030 0.2 0.086 0.283s0.136 0.149 0.229 0.188 0.196 0.049 0.295 0.029c0.099-0.020 0.19-0.068 0.261-0.14s0.12-0.162 0.14-0.261 0.010-0.201-0.029-0.295c-0.039-0.093-0.104-0.173-0.188-0.229s-0.182-0.086-0.283-0.086c-0.13 0.008-0.252 0.065-0.341 0.16s-0.139 0.22-0.139 0.35h-0.030zM18.52 21.37c0 0.117 0.046 0.229 0.129 0.311s0.194 0.129 0.311 0.129c0.058 0.001 0.116-0.009 0.17-0.031s0.103-0.054 0.144-0.095c0.041-0.041 0.073-0.090 0.095-0.144s0.032-0.112 0.031-0.17c0-0.058-0.011-0.115-0.034-0.168s-0.055-0.102-0.095-0.143c-0.041-0.041-0.089-0.073-0.143-0.095s-0.111-0.034-0.168-0.034c-0.111 0.008-0.216 0.057-0.292 0.139s-0.118 0.189-0.118 0.301h-0.030zM21.45 12.51c-0.066-0.12-0.154-0.226-0.261-0.312s-0.229-0.15-0.36-0.188c-0.131-0.039-0.269-0.051-0.405-0.036s-0.268 0.056-0.388 0.122-0.226 0.154-0.312 0.261c-0.086 0.107-0.15 0.229-0.189 0.361s-0.051 0.269-0.036 0.405c0.015 0.136 0.056 0.268 0.122 0.388 0.133 0.243 0.356 0.423 0.622 0.501s0.551 0.047 0.793-0.085 0.423-0.356 0.501-0.622c0.078-0.265 0.047-0.551-0.086-0.793zM17.73 7.27c-0.051-0.118-0.126-0.224-0.221-0.311s-0.206-0.154-0.328-0.195c-0.122-0.041-0.251-0.057-0.379-0.045s-0.252 0.050-0.364 0.112c-0.112 0.062-0.21 0.148-0.288 0.25s-0.132 0.22-0.161 0.346c-0.029 0.125-0.031 0.255-0.007 0.381s0.075 0.246 0.148 0.352c0.057 0.105 0.135 0.198 0.229 0.273s0.202 0.13 0.317 0.163c0.116 0.033 0.236 0.042 0.356 0.027s0.234-0.053 0.338-0.113c0.211-0.118 0.367-0.314 0.434-0.546s0.041-0.481-0.074-0.694zM15.37 5.010c-0.077-0.149-0.197-0.272-0.344-0.353s-0.315-0.117-0.482-0.103c-0.167 0.014-0.326 0.077-0.458 0.182s-0.229 0.245-0.28 0.405c-0.051 0.16-0.054 0.331-0.009 0.492s0.138 0.306 0.266 0.415c0.128 0.109 0.285 0.178 0.451 0.197s0.335-0.010 0.485-0.086c0.101-0.050 0.191-0.119 0.265-0.205s0.129-0.185 0.164-0.292c0.035-0.107 0.047-0.22 0.037-0.333s-0.043-0.221-0.096-0.321zM12.71 3.23c-0.047-0.095-0.112-0.179-0.193-0.248s-0.174-0.12-0.275-0.152-0.207-0.042-0.313-0.031c-0.105 0.011-0.207 0.043-0.3 0.095s-0.173 0.121-0.238 0.205-0.111 0.18-0.137 0.282c-0.026 0.103-0.031 0.209-0.015 0.314s0.054 0.205 0.11 0.294c0.106 0.169 0.274 0.291 0.467 0.341s0.399 0.023 0.574-0.075c0.175-0.098 0.305-0.258 0.364-0.449s0.043-0.397-0.045-0.577zM9.6 3.15c-0.046-0.085-0.108-0.161-0.184-0.221s-0.163-0.105-0.256-0.132c-0.093-0.026-0.191-0.033-0.287-0.021s-0.189 0.044-0.272 0.094c-0.086 0.045-0.163 0.107-0.224 0.182s-0.107 0.163-0.133 0.257c-0.026 0.094-0.033 0.192-0.020 0.288s0.046 0.189 0.097 0.272c0.095 0.17 0.254 0.295 0.442 0.347s0.388 0.028 0.558-0.067c0.17-0.095 0.295-0.254 0.347-0.442s0.028-0.388-0.067-0.558zM8 5.92c-0.084-0.144-0.221-0.25-0.382-0.293s-0.333-0.021-0.478 0.063c-0.087 0.032-0.167 0.082-0.233 0.148s-0.117 0.145-0.149 0.232c-0.032 0.087-0.045 0.18-0.038 0.273s0.035 0.183 0.080 0.263c0.046 0.081 0.108 0.151 0.184 0.205s0.162 0.091 0.253 0.109c0.091 0.018 0.185 0.015 0.275-0.007s0.174-0.064 0.247-0.123c0.147-0.084 0.255-0.222 0.299-0.386s0.024-0.337-0.059-0.484zM8.060 9.12c-0.027-0.081-0.071-0.154-0.13-0.216s-0.13-0.109-0.209-0.14c-0.079-0.031-0.164-0.044-0.249-0.039s-0.167 0.030-0.242 0.071c-0.074 0.041-0.139 0.098-0.189 0.166s-0.084 0.147-0.101 0.231c-0.016 0.083-0.014 0.169 0.007 0.252s0.059 0.159 0.113 0.225c0.086 0.105 0.206 0.177 0.339 0.203s0.271 0.004 0.391-0.061c0.119-0.065 0.211-0.171 0.261-0.297s0.053-0.266 0.010-0.395zM8.78 12.27c-0.048-0.089-0.122-0.161-0.212-0.208s-0.191-0.066-0.291-0.055c-0.1 0.011-0.195 0.052-0.273 0.117s-0.134 0.152-0.162 0.248c-0.028 0.097-0.027 0.2 0.004 0.297s0.089 0.181 0.168 0.244c0.079 0.063 0.175 0.101 0.276 0.11s0.202-0.013 0.29-0.063c0.060-0.030 0.113-0.073 0.157-0.124s0.076-0.111 0.095-0.176c0.020-0.064 0.026-0.132 0.019-0.199s-0.028-0.132-0.061-0.191h-0.010zM11.27 18.27c-0.025-0.047-0.059-0.089-0.101-0.122s-0.089-0.059-0.14-0.074c-0.051-0.015-0.105-0.019-0.158-0.013s-0.104 0.023-0.151 0.049c-0.091 0.054-0.159 0.141-0.188 0.244s-0.020 0.212 0.028 0.306c0.020 0.056 0.052 0.106 0.094 0.149s0.092 0.075 0.147 0.096c0.055 0.021 0.115 0.030 0.174 0.025s0.117-0.021 0.168-0.050 0.097-0.068 0.132-0.116c0.035-0.048 0.060-0.102 0.072-0.16s0.011-0.118-0.002-0.176-0.039-0.112-0.075-0.159zM21.48 14.88c-0.175 0.094-0.318 0.239-0.411 0.415s-0.131 0.376-0.109 0.574c0.022 0.198 0.102 0.385 0.23 0.537s0.299 0.262 0.491 0.317 0.395 0.050 0.584-0.012c0.189-0.062 0.356-0.179 0.478-0.336s0.195-0.347 0.209-0.546c0.014-0.199-0.032-0.397-0.132-0.569-0.122-0.231-0.329-0.406-0.577-0.486s-0.519-0.060-0.753 0.056l-0.010 0.050zM22.7 18.16c-0.157 0.087-0.285 0.219-0.367 0.379s-0.116 0.34-0.096 0.519c0.020 0.179 0.093 0.347 0.208 0.485s0.27 0.238 0.442 0.288 0.356 0.048 0.527-0.006c0.171-0.054 0.323-0.158 0.436-0.298s0.181-0.31 0.197-0.489-0.021-0.359-0.108-0.517c-0.052-0.109-0.126-0.207-0.216-0.287s-0.197-0.141-0.311-0.18c-0.115-0.038-0.236-0.053-0.357-0.043s-0.238 0.044-0.345 0.1l-0.010 0.050zM23.46 21.39c-0.098 0.053-0.184 0.125-0.254 0.212s-0.121 0.187-0.152 0.294c-0.031 0.107-0.040 0.219-0.027 0.33s0.048 0.217 0.102 0.314c0.081 0.148 0.204 0.268 0.353 0.346s0.319 0.109 0.486 0.090c0.167-0.019 0.326-0.087 0.454-0.195s0.222-0.253 0.269-0.415c0.046-0.162 0.044-0.334-0.008-0.494s-0.149-0.302-0.282-0.406c-0.132-0.105-0.292-0.168-0.46-0.181s-0.336 0.023-0.483 0.106zM23.65 24.6c-0.182 0.101-0.316 0.27-0.373 0.469s-0.033 0.414 0.068 0.596c0.101 0.182 0.27 0.316 0.469 0.373s0.414 0.033 0.596-0.068 0.316-0.27 0.373-0.469c0.057-0.2 0.033-0.414-0.068-0.596s-0.27-0.316-0.469-0.373c-0.2-0.057-0.414-0.033-0.596 0.068zM22.17 27.32c-0.086 0.046-0.161 0.108-0.221 0.184s-0.105 0.163-0.13 0.257-0.031 0.192-0.017 0.288c0.014 0.096 0.048 0.188 0.099 0.271 0.095 0.157 0.248 0.271 0.425 0.319s0.367 0.024 0.527-0.066 0.28-0.238 0.334-0.413c0.054-0.176 0.037-0.366-0.047-0.529-0.038-0.088-0.093-0.168-0.162-0.234s-0.151-0.117-0.241-0.151c-0.090-0.034-0.185-0.049-0.281-0.044s-0.19 0.028-0.276 0.069l-0.010 0.050zM19.080 27.23c-0.149 0.084-0.259 0.224-0.306 0.389s-0.027 0.341 0.056 0.491c0.063 0.109 0.156 0.198 0.269 0.254s0.239 0.078 0.364 0.063c0.125-0.015 0.243-0.067 0.339-0.149s0.165-0.19 0.2-0.311c0.035-0.121 0.032-0.25-0.006-0.37s-0.111-0.226-0.21-0.305c-0.098-0.079-0.218-0.127-0.343-0.138s-0.252 0.015-0.362 0.075zM16.66 25.56c-0.067 0.036-0.126 0.084-0.174 0.143s-0.084 0.126-0.105 0.199c-0.021 0.073-0.028 0.149-0.020 0.224s0.032 0.148 0.068 0.214c0.029 0.078 0.075 0.15 0.134 0.209s0.131 0.105 0.209 0.134c0.078 0.029 0.163 0.040 0.246 0.034s0.165-0.031 0.238-0.072c0.073-0.041 0.136-0.097 0.186-0.165s0.083-0.145 0.1-0.227c0.017-0.082 0.015-0.167-0.005-0.248s-0.056-0.158-0.108-0.224c-0.067-0.135-0.184-0.238-0.325-0.289s-0.298-0.044-0.435 0.019l-0.010 0.050zM14.28 23.26c-0.089 0.048-0.161 0.122-0.208 0.212s-0.066 0.191-0.055 0.291c0.011 0.1 0.052 0.195 0.117 0.273s0.152 0.134 0.248 0.162c0.097 0.028 0.2 0.027 0.297-0.004s0.181-0.089 0.244-0.168c0.063-0.079 0.101-0.175 0.109-0.276s-0.013-0.202-0.063-0.29c-0.028-0.061-0.068-0.116-0.117-0.162s-0.107-0.081-0.171-0.105c-0.063-0.023-0.13-0.034-0.198-0.031s-0.133 0.019-0.194 0.048l-0.010 0.050zM12.070 20.48c-0.052 0.027-0.097 0.064-0.134 0.11s-0.064 0.098-0.080 0.154c-0.016 0.056-0.020 0.115-0.013 0.173s0.027 0.114 0.056 0.164c0.027 0.050 0.064 0.095 0.109 0.131s0.096 0.063 0.151 0.078c0.055 0.016 0.113 0.020 0.169 0.014s0.112-0.025 0.161-0.053c0.056-0.025 0.105-0.061 0.146-0.105s0.072-0.098 0.092-0.155 0.027-0.119 0.022-0.179c-0.005-0.061-0.023-0.119-0.052-0.173s-0.069-0.1-0.117-0.137c-0.048-0.037-0.103-0.064-0.162-0.079s-0.12-0.017-0.18-0.007c-0.060 0.010-0.117 0.032-0.168 0.066zM10.36 12.85c-0.078 0.177-0.104 0.374-0.072 0.565s0.117 0.37 0.248 0.513c0.131 0.143 0.3 0.246 0.488 0.294s0.386 0.042 0.569-0.020c0.184-0.062 0.346-0.176 0.466-0.328s0.194-0.336 0.211-0.529c0.018-0.193-0.021-0.387-0.112-0.559s-0.229-0.313-0.399-0.407c-0.118-0.067-0.248-0.11-0.383-0.125s-0.272-0.003-0.402 0.036c-0.13 0.039-0.251 0.105-0.355 0.192s-0.189 0.195-0.25 0.317l-0.010 0.050zM9.15 15.56c-0.085 0.118-0.143 0.253-0.17 0.396s-0.023 0.29 0.012 0.431 0.101 0.273 0.192 0.386c0.091 0.113 0.206 0.205 0.337 0.269s0.273 0.099 0.419 0.102c0.145 0.003 0.29-0.025 0.423-0.083s0.252-0.145 0.348-0.254c0.096-0.109 0.168-0.237 0.209-0.377 0.109-0.234 0.122-0.501 0.039-0.745s-0.259-0.447-0.489-0.565c-0.234-0.112-0.503-0.129-0.749-0.047s-0.451 0.257-0.571 0.487zM8.15 18.87c-0.054 0.111-0.085 0.231-0.093 0.355s0.010 0.246 0.050 0.363c0.040 0.116 0.103 0.224 0.185 0.316s0.181 0.167 0.292 0.221c0.111 0.054 0.231 0.085 0.355 0.093s0.246-0.010 0.363-0.050 0.224-0.103 0.316-0.185c0.092-0.082 0.167-0.181 0.221-0.292 0.107-0.218 0.124-0.469 0.046-0.698s-0.244-0.419-0.461-0.526-0.469-0.124-0.698-0.046c-0.23 0.078-0.419 0.244-0.527 0.461l-0.050-0.010zM7.64 22.1c-0.097 0.203-0.111 0.436-0.038 0.65s0.227 0.389 0.428 0.49c0.202 0.097 0.434 0.11 0.645 0.037s0.386-0.227 0.485-0.427c0.056-0.097 0.092-0.205 0.106-0.317s0.005-0.225-0.026-0.333c-0.031-0.108-0.083-0.209-0.153-0.297s-0.158-0.16-0.257-0.213c-0.102-0.049-0.212-0.077-0.325-0.083s-0.225 0.011-0.331 0.049c-0.106 0.038-0.204 0.097-0.287 0.173s-0.15 0.168-0.197 0.27h-0.050zM7.7 25.3c-0.067 0.139-0.091 0.294-0.070 0.446s0.087 0.295 0.189 0.41c0.102 0.115 0.236 0.197 0.385 0.236s0.306 0.033 0.451-0.017 0.273-0.142 0.367-0.264c0.093-0.122 0.149-0.269 0.159-0.423s-0.025-0.307-0.102-0.44c-0.077-0.133-0.191-0.241-0.329-0.31-0.181-0.078-0.385-0.084-0.571-0.017s-0.339 0.201-0.429 0.377h-0.050zM9.41 27.9c-0.041 0.084-0.066 0.175-0.072 0.269s0.006 0.187 0.037 0.276c0.030 0.089 0.078 0.171 0.139 0.241s0.137 0.128 0.221 0.169c0.084 0.041 0.175 0.066 0.269 0.072s0.187-0.006 0.276-0.037 0.171-0.078 0.241-0.139c0.070-0.062 0.128-0.137 0.169-0.221 0.084-0.17 0.096-0.366 0.035-0.545s-0.191-0.327-0.36-0.41c-0.17-0.084-0.366-0.096-0.545-0.035s-0.327 0.191-0.41 0.36zM12.59 27.63c-0.038 0.076-0.060 0.158-0.066 0.242s0.005 0.169 0.032 0.248c0.027 0.080 0.069 0.154 0.125 0.217s0.123 0.115 0.199 0.152c0.154 0.073 0.331 0.082 0.491 0.026s0.293-0.173 0.369-0.326c0.038-0.076 0.060-0.158 0.066-0.242s-0.005-0.169-0.032-0.248c-0.027-0.080-0.069-0.154-0.125-0.217s-0.123-0.115-0.199-0.152c-0.148-0.058-0.313-0.059-0.462-0.004s-0.273 0.163-0.348 0.304h-0.050zM15 25.76c-0.049 0.101-0.067 0.214-0.052 0.326s0.063 0.216 0.137 0.3c0.074 0.084 0.172 0.145 0.28 0.174s0.223 0.025 0.33-0.011c0.107-0.036 0.2-0.102 0.269-0.191s0.11-0.196 0.118-0.308c0.008-0.112-0.017-0.224-0.073-0.322s-0.138-0.177-0.239-0.228c-0.068-0.034-0.141-0.055-0.217-0.060s-0.151 0.004-0.223 0.029c-0.072 0.024-0.138 0.062-0.194 0.112s-0.103 0.111-0.136 0.179zM17.4 23.36c-0.059 0.121-0.068 0.26-0.025 0.387s0.135 0.233 0.255 0.293c0.122 0.059 0.263 0.069 0.392 0.026s0.236-0.135 0.298-0.256c0.058-0.122 0.066-0.262 0.021-0.39s-0.139-0.232-0.261-0.29c-0.059-0.029-0.123-0.046-0.189-0.050s-0.131 0.005-0.194 0.026c-0.062 0.021-0.12 0.055-0.169 0.098s-0.090 0.096-0.118 0.156h-0.010zM19.49 20.62c-0.049 0.106-0.054 0.227-0.015 0.337s0.12 0.201 0.224 0.253c0.051 0.026 0.107 0.041 0.164 0.044s0.114-0.004 0.168-0.023c0.054-0.019 0.104-0.048 0.146-0.086s0.077-0.084 0.102-0.136c0.052-0.105 0.060-0.226 0.022-0.336s-0.117-0.202-0.222-0.254-0.226-0.060-0.336-0.022c-0.111 0.038-0.202 0.117-0.254 0.222zM20.86 17.92c-0.024 0.048-0.038 0.1-0.041 0.153s0.004 0.107 0.022 0.157 0.045 0.097 0.081 0.136c0.036 0.040 0.079 0.071 0.128 0.094 0.071 0.033 0.151 0.044 0.229 0.033s0.15-0.046 0.209-0.099 0.1-0.122 0.119-0.198c0.019-0.076 0.016-0.157-0.011-0.231s-0.074-0.139-0.136-0.186c-0.063-0.047-0.138-0.075-0.217-0.080s-0.157 0.014-0.225 0.053c-0.068 0.039-0.123 0.098-0.158 0.169zM14.26 8.6c0.108 0.053 0.225 0.085 0.345 0.093s0.24-0.008 0.354-0.046c0.114-0.039 0.219-0.099 0.309-0.178s0.164-0.175 0.217-0.283c0.053-0.108 0.085-0.225 0.093-0.345s-0.008-0.24-0.046-0.354-0.099-0.219-0.178-0.309c-0.079-0.090-0.175-0.164-0.283-0.217-0.217-0.107-0.469-0.124-0.698-0.046s-0.419 0.244-0.527 0.461-0.124 0.469-0.046 0.698c0.078 0.23 0.244 0.419 0.461 0.527zM16.48 6.13c0.151 0.075 0.321 0.103 0.488 0.080s0.324-0.093 0.45-0.205c0.127-0.111 0.217-0.258 0.26-0.421s0.037-0.335-0.018-0.494-0.156-0.299-0.29-0.4c-0.134-0.102-0.296-0.161-0.464-0.171s-0.335 0.031-0.481 0.116c-0.145 0.086-0.262 0.212-0.334 0.364-0.049 0.1-0.078 0.208-0.085 0.319s0.008 0.222 0.044 0.327 0.093 0.202 0.167 0.285c0.074 0.083 0.164 0.15 0.264 0.199zM19.010 4.13c0.186 0.091 0.4 0.106 0.596 0.039s0.358-0.208 0.449-0.394 0.105-0.4 0.039-0.596c-0.067-0.196-0.208-0.357-0.394-0.449-0.187-0.093-0.403-0.108-0.601-0.041s-0.361 0.209-0.454 0.396-0.108 0.403-0.041 0.601c0.067 0.198 0.209 0.361 0.396 0.454l0.010-0.010zM22.090 3.79c0.163 0.072 0.347 0.080 0.515 0.022s0.309-0.176 0.395-0.332c0.046-0.087 0.074-0.182 0.082-0.28s-0.003-0.197-0.034-0.29c-0.031-0.093-0.080-0.18-0.145-0.253s-0.144-0.134-0.233-0.176c-0.17-0.080-0.365-0.090-0.542-0.028s-0.324 0.19-0.408 0.358c-0.046 0.088-0.073 0.185-0.079 0.285s0.009 0.199 0.044 0.293 0.089 0.178 0.159 0.249c0.070 0.071 0.154 0.127 0.247 0.163v-0.010zM23.78 6.39c0.152 0.076 0.329 0.088 0.49 0.033s0.294-0.171 0.37-0.323 0.087-0.329 0.033-0.49c-0.054-0.161-0.171-0.294-0.323-0.37s-0.329-0.088-0.49-0.033c-0.161 0.054-0.294 0.171-0.37 0.323s-0.087 0.329-0.033 0.49c0.054 0.161 0.171 0.294 0.323 0.37zM23.85 9.5c0.101 0.045 0.212 0.059 0.32 0.042s0.21-0.065 0.292-0.139c0.082-0.073 0.141-0.169 0.169-0.275s0.026-0.218-0.008-0.323c-0.034-0.105-0.097-0.197-0.182-0.267s-0.189-0.113-0.298-0.125c-0.109-0.012-0.22 0.008-0.318 0.057s-0.18 0.126-0.236 0.221c-0.039 0.070-0.064 0.147-0.072 0.226s0 0.16 0.025 0.236c0.024 0.076 0.064 0.146 0.117 0.206s0.117 0.108 0.19 0.142zM23.26 12.6c0.119 0.045 0.249 0.044 0.367-0.002s0.214-0.135 0.27-0.249c0.056-0.114 0.068-0.244 0.033-0.366s-0.113-0.226-0.221-0.293c-0.060-0.038-0.128-0.062-0.198-0.072s-0.142-0.005-0.211 0.015-0.132 0.053-0.187 0.099c-0.055 0.046-0.099 0.102-0.131 0.166s-0.049 0.133-0.052 0.204 0.009 0.142 0.035 0.208c0.026 0.066 0.066 0.126 0.116 0.176s0.111 0.089 0.178 0.114z"></path>
</svg>
