<!-- Generated by IcoMoon.io -->
<svg version="1.1" xmlns="http://www.w3.org/2000/svg" width="20" height="20" viewBox="0 0 20 20">
<title>patch-double</title>
<path d="M9.192 7.317c0.244-0.244 0.244-0.64 0-0.884s-0.64-0.244-0.884 0l-1.875 1.875c-0.244 0.244-0.244 0.64 0 0.884s0.64 0.244 0.884 0l1.875-1.875z"></path>
<path d="M10 9.375c-0.345 0-0.625-0.28-0.625-0.625s0.28-0.625 0.625-0.625c0.345 0 0.625 0.28 0.625 0.625s-0.28 0.625-0.625 0.625z"></path>
<path d="M11.25 10.625c0.345 0 0.625-0.28 0.625-0.625s-0.28-0.625-0.625-0.625c-0.345 0-0.625 0.28-0.625 0.625s0.28 0.625 0.625 0.625z"></path>
<path d="M9.375 11.25c0 0.345 0.28 0.625 0.625 0.625s0.625-0.28 0.625-0.625c0-0.345-0.28-0.625-0.625-0.625s-0.625 0.28-0.625 0.625z"></path>
<path d="M8.75 10.625c0.345 0 0.625-0.28 0.625-0.625s-0.28-0.625-0.625-0.625c-0.345 0-0.625 0.28-0.625 0.625s0.28 0.625 0.625 0.625z"></path>
<path d="M13.567 11.692l-1.875 1.875c-0.244 0.244-0.64 0.244-0.884 0s-0.244-0.64 0-0.884l1.875-1.875c0.244-0.244 0.64-0.244 0.884 0s0.244 0.64 0 0.884z"></path>
<path d="M10 4.741l-2.028-2.028c-0.679-0.881-1.785-1.463-2.972-1.463-2.095 0-3.75 1.655-3.75 3.75 0 1.187 0.582 2.293 1.463 2.972l2.028 2.028-2.028 2.028c-0.881 0.679-1.463 1.785-1.463 2.972 0 2.095 1.655 3.75 3.75 3.75 1.187 0 2.293-0.582 2.972-1.463l2.028-2.028 2.028 2.028c0.679 0.881 1.785 1.463 2.972 1.463 2.095 0 3.75-1.655 3.75-3.75 0-1.187-0.582-2.293-1.463-2.972l-2.028-2.028 2.028-2.028c0.881-0.679 1.463-1.785 1.463-2.972 0-2.095-1.655-3.75-3.75-3.75-1.187 0-2.293 0.582-2.972 1.463l-2.028 2.028zM13 3.5c0.449-0.598 1.203-1 2-1 1.405 0 2.5 1.095 2.5 2.5 0 0.797-0.402 1.551-1 2-0.024 0.018-0.046 0.037-0.067 0.058l-2.058 2.058-3.491-3.491 2.058-2.058c0.021-0.021 0.040-0.043 0.058-0.067zM3.567 7.058c-0.021-0.021-0.043-0.040-0.067-0.058-0.598-0.449-1-1.203-1-2 0-1.405 1.095-2.5 2.5-2.5 0.797 0 1.551 0.402 2 1 0.018 0.024 0.037 0.046 0.058 0.067l9.375 9.375c0.021 0.021 0.043 0.040 0.067 0.058 0.598 0.449 1 1.203 1 2 0 1.405-1.095 2.5-2.5 2.5-0.797 0-1.551-0.402-2-1-0.018-0.024-0.037-0.046-0.058-0.067l-9.375-9.375zM5.625 10.884l3.491 3.491-2.058 2.058c-0.021 0.021-0.040 0.043-0.058 0.067-0.449 0.598-1.203 1-2 1-1.405 0-2.5-1.095-2.5-2.5 0-0.797 0.402-1.551 1-2 0.024-0.018 0.046-0.037 0.067-0.058l2.058-2.058z"></path>
</svg>
