<!-- Generated by IcoMoon.io -->
<svg version="1.1" xmlns="http://www.w3.org/2000/svg" width="32" height="32" viewBox="0 0 32 32">
<title>pay-phone</title>
<path d="M14 14c0-1.148 0.852-2 2-2h3c0.552 0 1-0.448 1-1s-0.448-1-1-1h-2v-1c0-0.552-0.448-1-1-1s-1 0.448-1 1v1.12c-1.749 0.43-3 1.975-3 3.88 0 2.252 1.748 4 4 4 1.148 0 2 0.852 2 2s-0.852 2-2 2h-3c-0.552 0-1 0.448-1 1s0.448 1 1 1h2v1c0 0.552 0.448 1 1 1s1-0.448 1-1v-1.12c1.749-0.43 3-1.975 3-3.88 0-2.252-1.748-4-4-4-1.148 0-2-0.852-2-2z"></path>
<path d="M21 2c2.252 0 4 1.748 4 4v20c0 2.252-1.748 4-4 4h-10c-2.252 0-4-1.748-4-4v-20c0-2.252 1.748-4 4-4h10zM11 4c-1.148 0-2 0.852-2 2v20c0 1.148 0.852 2 2 2h10c1.148 0 2-0.852 2-2v-20c0-1.148-0.852-2-2-2h-1c0 0.527-0.18 1.044-0.568 1.432s-0.905 0.568-1.432 0.568h-4c-0.527 0-1.044-0.18-1.432-0.568s-0.568-0.905-0.568-1.432h-1z"></path>
</svg>
