<!-- Generated by IcoMoon.io -->
<svg version="1.1" xmlns="http://www.w3.org/2000/svg" width="20" height="20" viewBox="0 0 20 20">
<title>paypal</title>
<path d="M16.381 8.9c-0.153 1.186-0.772 2.263-1.719 2.994-0.953 0.607-2.072 0.902-3.2 0.844h-0.431c-0.32 0-0.629 0.114-0.873 0.321s-0.406 0.494-0.458 0.81v0.181l-0.537 3.419v0.137h-2.563l0.9-6.388c0.004-0.028 0.019-0.054 0.041-0.072s0.049-0.028 0.078-0.028h1.612c1.588 0.063 3.155-0.374 4.481-1.25 1.177-0.871 2.011-2.127 2.356-3.55 0.224 0.387 0.367 0.815 0.421 1.259s0.017 0.894-0.109 1.323zM16.956 5.294c-0.275-0.306-0.603-0.56-0.969-0.75l-0.237-0.125c0.039-0.442-0.014-0.887-0.155-1.307s-0.367-0.807-0.664-1.137c-0.819-0.938-2.294-1.338-4.188-1.338h-5.494c-0.188-0-0.37 0.067-0.512 0.19s-0.236 0.293-0.263 0.479l-2.288 14.5c-0.011 0.067-0.007 0.136 0.011 0.201s0.050 0.126 0.094 0.178c0.044 0.052 0.099 0.093 0.16 0.122s0.129 0.043 0.197 0.043h2.725l-0.219 1.381c-0.024 0.154-0.015 0.311 0.027 0.461s0.116 0.289 0.217 0.408c0.101 0.119 0.226 0.214 0.368 0.28s0.295 0.1 0.451 0.101h2.856c0.319 0 0.628-0.113 0.872-0.319s0.407-0.492 0.46-0.806v-0.137l0.544-3.431 0.031-0.181h0.431c1.404 0.061 2.792-0.319 3.969-1.087 0.617-0.457 1.138-1.031 1.533-1.689s0.655-1.389 0.767-2.148c0.319-1.675 0.081-2.975-0.725-3.887z"></path>
</svg>
