<!-- Generated by IcoMoon.io -->
<svg version="1.1" xmlns="http://www.w3.org/2000/svg" width="32" height="32" viewBox="0 0 32 32">
<title>payu</title>
<path d="M23.55 1.030c1.27 0 1.24-0.22 1.23 1.23 0 1.23 0.24 1.22-1.24 1.23s-1.23 0-1.23-1.22c-0.010-1.44-0.13-1.24 1.24-1.24zM24.75 7.13c0.72 0 1.060 0.32 1 1v4.12c0 0.76-0.28 1-1 1h-2.18v-3.16c0 0 0-0.050 0-0.080-0.001-0.261-0.084-0.515-0.239-0.725s-0.372-0.366-0.621-0.445h0.14c-0.769-0.174-1.547-0.304-2.33-0.39v4.12c0.053 0.213 0.174 0.404 0.346 0.541s0.384 0.214 0.604 0.219h2.11v9.36c0 0 0 0.11 0 0.17-0.003 1.432-0.44 2.83-1.252 4.009s-1.962 2.086-3.298 2.601h0.1c-1.68 0.655-3.467 0.994-5.27 1-0.598 0.001-1.196-0.035-1.79-0.11-1.551-0.084-3.071-0.475-4.47-1.15-1.148-0.532-2.123-1.377-2.811-2.439s-1.062-2.296-1.079-3.561c-0.13-4.3-0.13-8.42-0.13-12.52 0-1.46 0.58-2 2.060-2h2c1.6 0 2.17 0.56 2.17 2.16v11.090c-0.005 0.356 0.029 0.711 0.1 1.060 0.078 0.438 0.282 0.844 0.588 1.167s0.699 0.55 1.132 0.653h-0.050c0.649 0.195 1.322 0.296 2 0.3 0.677 0.003 1.351-0.095 2-0.29 0.54-0.113 1.025-0.408 1.372-0.836s0.538-0.963 0.538-1.514c0-0.070 0-0.14 0-0.2v-11.1c0-2.070 0.55-2.6 2.61-2.48 0.38 0 0.52-0.12 0.52-0.54-0.016-0.135-0.001-0.272 0.043-0.401s0.118-0.245 0.214-0.342 0.213-0.169 0.342-0.214c0.129-0.045 0.266-0.059 0.401-0.043l4.13-0.030zM29.39 3.85c-0.013 0.113-0.013 0.227 0 0.34v2.61c-0.17 0.11-0.34 0.3-0.5 0.3h-2.42c-0.43 0-0.6-0.2-0.6-0.6v-2.39c0-0.39 0.17-0.59 0.55-0.59h2.51c0.15 0 0.31 0.15 0.46 0.24v0.090z"></path>
</svg>
