<!-- Generated by IcoMoon.io -->
<svg version="1.1" xmlns="http://www.w3.org/2000/svg" width="20" height="20" viewBox="0 0 20 20">
<title>payu</title>
<path d="M14.719 0.644c0.794 0 0.775-0.137 0.769 0.769 0 0.769 0.15 0.762-0.775 0.769s-0.769 0-0.769-0.763c-0.006-0.9-0.081-0.775 0.775-0.775zM15.469 4.456c0.45 0 0.662 0.2 0.625 0.625v2.575c0 0.475-0.175 0.625-0.625 0.625h-1.363v-1.975c0 0 0-0.031 0-0.050-0-0.163-0.053-0.322-0.149-0.453s-0.233-0.229-0.388-0.278h0.087c-0.48-0.109-0.967-0.19-1.456-0.244v2.575c0.033 0.133 0.109 0.252 0.216 0.338s0.24 0.134 0.377 0.137h1.319v5.85c0 0 0 0.069 0 0.106-0.002 0.895-0.275 1.769-0.782 2.506s-1.226 1.304-2.062 1.625h0.063c-1.050 0.409-2.167 0.621-3.294 0.625-0.374 0.001-0.748-0.022-1.119-0.069-0.97-0.053-1.919-0.297-2.794-0.719-0.718-0.332-1.327-0.861-1.757-1.524s-0.664-1.435-0.674-2.226c-0.081-2.688-0.081-5.262-0.081-7.825 0-0.913 0.363-1.25 1.288-1.25h1.25c1 0 1.356 0.35 1.356 1.35v6.931c-0.003 0.222 0.018 0.444 0.063 0.662 0.049 0.274 0.176 0.527 0.367 0.73s0.437 0.344 0.708 0.408h-0.031c0.406 0.122 0.827 0.185 1.25 0.188s0.845-0.059 1.25-0.181c0.337-0.070 0.64-0.255 0.858-0.522s0.336-0.602 0.336-0.946c0-0.044 0-0.088 0-0.125v-6.938c0-1.294 0.344-1.625 1.631-1.55 0.238 0 0.325-0.075 0.325-0.338-0.010-0.084-0.001-0.17 0.027-0.251s0.074-0.153 0.134-0.214 0.133-0.106 0.214-0.134c0.080-0.028 0.166-0.037 0.251-0.027l2.581-0.019zM18.369 2.406c-0.008 0.071-0.008 0.142 0 0.213v1.631c-0.106 0.069-0.212 0.188-0.313 0.188h-1.512c-0.269 0-0.375-0.125-0.375-0.375v-1.494c0-0.244 0.106-0.369 0.344-0.369h1.569c0.094 0 0.194 0.094 0.287 0.15v0.056z"></path>
</svg>
