<!-- Generated by IcoMoon.io -->
<svg version="1.1" xmlns="http://www.w3.org/2000/svg" width="32" height="32" viewBox="0 0 32 32">
<title>pen-line</title>
<path d="M17.494 3.447c0.247-0.494 0.047-1.095-0.447-1.342s-1.095-0.047-1.342 0.447l-1.515 3.030-7.791 2.597v0.721c0 3.208-0.819 6.876-1.661 9.785-0.418 1.445-0.836 2.685-1.15 3.562-0.157 0.438-0.287 0.786-0.377 1.022-0.045 0.118-0.081 0.209-0.104 0.269l-0.026 0.066c-0.026 0.061-0.046 0.123-0.060 0.187-0.032 0.148-0.029 0.297 0.004 0.439 0.065 0.276 0.246 0.521 0.511 0.659 0.043 0.023 0.088 0.042 0.134 0.058 0.162 0.056 0.33 0.069 0.489 0.042 0.056-0.007 0.118-0.023 0.186-0.049 0.013-0.005 0.026-0.010 0.039-0.015l0.009-0.004 0.067-0.027c0.060-0.024 0.15-0.059 0.269-0.104 0.236-0.090 0.583-0.22 1.021-0.376 0.877-0.312 2.115-0.727 3.56-1.138 2.907-0.829 6.571-1.622 9.773-1.574l0.735 0.011 2.6-7.903 3.027-1.514c0.494-0.247 0.694-0.848 0.447-1.342s-0.848-0.694-1.342-0.447l-2.755 1.378-5.681-5.681 1.378-2.755zM8.763 21.351c-0.343 0.098-0.674 0.195-0.992 0.292l4.664-4.664c0.495 0.268 1.062 0.421 1.665 0.421 1.933 0 3.5-1.567 3.5-3.5s-1.567-3.5-3.5-3.5c-0.628 0-1.217 0.165-1.726 0.454-0.863 0.49-1.497 1.336-1.702 2.338-0.047 0.229-0.072 0.466-0.072 0.708 0 0.603 0.152 1.17 0.421 1.665l-4.651 4.651c0.096-0.313 0.194-0.639 0.291-0.975 0.083-0.286 0.166-0.58 0.248-0.882 0.713-2.614 1.382-5.779 1.479-8.734l6.242-2.081 5.828 5.828-2.082 6.33c-3.297 0.066-6.852 0.862-9.612 1.649zM12.6 13.9c0-0.828 0.672-1.5 1.5-1.5s1.5 0.672 1.5 1.5c0 0.828-0.672 1.5-1.5 1.5s-1.5-0.672-1.5-1.5z"></path>
<path d="M3 27c-0.552 0-1 0.448-1 1s0.448 1 1 1h26c0.552 0 1-0.448 1-1s-0.448-1-1-1h-26z"></path>
</svg>
