<!-- Generated by IcoMoon.io -->
<svg version="1.1" xmlns="http://www.w3.org/2000/svg" width="20" height="20" viewBox="0 0 20 20">
<title>pen-line</title>
<path d="M10.934 2.155c0.154-0.309 0.029-0.684-0.279-0.839s-0.684-0.029-0.838 0.28l-0.947 1.894-4.869 1.623v0.45c0 2.005-0.512 4.297-1.038 6.115-0.261 0.903-0.523 1.678-0.719 2.226-0.098 0.274-0.179 0.491-0.236 0.639-0.028 0.074-0.050 0.13-0.065 0.168l-0.016 0.041c-0.016 0.038-0.029 0.077-0.037 0.117-0.020 0.092-0.018 0.186 0.003 0.274 0.041 0.172 0.154 0.325 0.32 0.412 0.027 0.014 0.055 0.026 0.084 0.036 0.101 0.035 0.206 0.043 0.306 0.026 0.035-0.005 0.074-0.015 0.116-0.031 0.008-0.003 0.016-0.006 0.024-0.010l0.006-0.002 0.042-0.017c0.038-0.015 0.094-0.037 0.168-0.065 0.148-0.056 0.364-0.137 0.638-0.235 0.548-0.195 1.322-0.454 2.225-0.712 1.817-0.518 4.107-1.014 6.108-0.984l0.459 0.007 1.625-4.939 1.892-0.946c0.309-0.154 0.434-0.53 0.279-0.838s-0.53-0.434-0.838-0.279l-1.722 0.861-3.55-3.55 0.861-1.722zM5.477 13.344c-0.214 0.061-0.421 0.122-0.62 0.183l2.915-2.915c0.309 0.168 0.664 0.263 1.041 0.263 1.208 0 2.188-0.979 2.188-2.188s-0.979-2.187-2.188-2.187c-0.392 0-0.76 0.103-1.079 0.284-0.539 0.306-0.935 0.835-1.064 1.461-0.029 0.143-0.045 0.291-0.045 0.443 0 0.377 0.095 0.731 0.263 1.041l-2.907 2.907c0.060-0.196 0.121-0.399 0.182-0.61 0.052-0.179 0.104-0.363 0.155-0.551 0.446-1.634 0.864-3.612 0.925-5.459l3.901-1.3 3.642 3.642-1.301 3.956c-2.061 0.041-4.283 0.539-6.008 1.030zM7.875 8.688c0-0.518 0.42-0.938 0.938-0.938s0.938 0.42 0.938 0.938c0 0.518-0.42 0.938-0.938 0.938s-0.938-0.42-0.938-0.938z"></path>
<path d="M1.875 16.875c-0.345 0-0.625 0.28-0.625 0.625s0.28 0.625 0.625 0.625h16.25c0.345 0 0.625-0.28 0.625-0.625s-0.28-0.625-0.625-0.625h-16.25z"></path>
</svg>
