<!-- Generated by IcoMoon.io -->
<svg version="1.1" xmlns="http://www.w3.org/2000/svg" width="32" height="32" viewBox="0 0 32 32">
<title>pen</title>
<path d="M19.447 2.106c0.494 0.247 0.694 0.848 0.447 1.342l-1.678 3.355 6.981 6.981 3.355-1.678c0.494-0.247 1.095-0.047 1.342 0.447s0.047 1.095-0.447 1.342l-3.63 1.815-3.097 9.291h-0.721c-3.86 0-8.254 0.97-11.725 1.962-1.726 0.493-3.207 0.987-4.254 1.357-0.524 0.185-0.938 0.338-1.221 0.445-0.141 0.053-0.25 0.095-0.322 0.123l-0.081 0.032-0.020 0.008-0.004 0.002c-0.23 0.093-0.495 0.1-0.744 0-0.513-0.205-0.762-0.787-0.557-1.3l0.002-0.005 0.008-0.020 0.032-0.081c0.028-0.072 0.070-0.181 0.123-0.322 0.107-0.283 0.261-0.698 0.445-1.221 0.37-1.048 0.863-2.528 1.356-4.254 0.992-3.471 1.962-7.865 1.962-11.725v-0.721l9.291-3.097 1.815-3.63c0.247-0.494 0.848-0.694 1.342-0.447zM6.382 24.204l6.172-6.172c-0.352-0.596-0.554-1.29-0.554-2.032 0-2.209 1.791-4 4-4s4 1.791 4 4c0 2.209-1.791 4-4 4-0.742 0-1.436-0.202-2.032-0.554l-6.172 6.172c0.598-0.188 1.244-0.384 1.929-0.579 3.325-0.95 7.605-1.919 11.551-2.028l2.58-7.74-7.126-7.126-7.74 2.58c-0.109 3.946-1.078 8.226-2.028 11.551-0.196 0.684-0.391 1.331-0.579 1.929zM16 14c-1.105 0-2 0.896-2 2s0.895 2 2 2 2-0.895 2-2c0-1.104-0.895-2-2-2z"></path>
</svg>
