<!-- Generated by IcoMoon.io -->
<svg version="1.1" xmlns="http://www.w3.org/2000/svg" width="20" height="20" viewBox="0 0 20 20">
<title>pen</title>
<path d="M12.154 1.316c0.309 0.154 0.434 0.53 0.279 0.839l-1.048 2.097 4.363 4.363 2.097-1.049c0.309-0.154 0.684-0.029 0.838 0.279s0.029 0.684-0.279 0.838l-2.268 1.134-1.936 5.807h-0.451c-2.413 0-5.159 0.606-7.328 1.226-1.079 0.308-2.004 0.617-2.659 0.848-0.327 0.115-0.586 0.212-0.763 0.278-0.088 0.033-0.156 0.060-0.201 0.077l-0.051 0.020-0.012 0.005-0.003 0.001c-0.144 0.058-0.31 0.062-0.465 0-0.32-0.128-0.476-0.492-0.348-0.812l0.001-0.003 0.005-0.012 0.020-0.051c0.018-0.045 0.044-0.113 0.077-0.201 0.067-0.177 0.163-0.436 0.278-0.763 0.231-0.655 0.539-1.58 0.848-2.659 0.62-2.169 1.226-4.916 1.226-7.328v-0.45l5.807-1.936 1.134-2.268c0.154-0.309 0.53-0.434 0.838-0.28zM3.989 15.127l3.857-3.857c-0.22-0.372-0.346-0.806-0.346-1.27 0-1.381 1.119-2.5 2.5-2.5s2.5 1.119 2.5 2.5c0 1.381-1.119 2.5-2.5 2.5-0.464 0-0.898-0.126-1.27-0.346l-3.857 3.857c0.374-0.118 0.778-0.24 1.205-0.362 2.078-0.594 4.753-1.199 7.219-1.268l1.613-4.838-4.454-4.454-4.838 1.613c-0.068 2.466-0.674 5.141-1.268 7.219-0.122 0.428-0.244 0.832-0.362 1.206zM10 8.75c-0.69 0-1.25 0.56-1.25 1.25s0.56 1.25 1.25 1.25 1.25-0.56 1.25-1.25c0-0.69-0.56-1.25-1.25-1.25z"></path>
</svg>
