<!-- Generated by IcoMoon.io -->
<svg version="1.1" xmlns="http://www.w3.org/2000/svg" width="20" height="20" viewBox="0 0 20 20">
<title>percona</title>
<path d="M13.125 9.806c0 0.618-0.183 1.222-0.527 1.736s-0.831 0.914-1.402 1.151c-0.571 0.237-1.199 0.298-1.806 0.178s-1.163-0.418-1.6-0.855c-0.437-0.437-0.735-0.994-0.855-1.6s-0.059-1.234 0.178-1.806c0.237-0.571 0.637-1.059 1.151-1.402s1.118-0.527 1.736-0.527c0.829 0 1.624 0.329 2.21 0.915s0.915 1.381 0.915 2.21zM10 0.637c2.432 0 4.764 0.966 6.483 2.685s2.685 4.052 2.685 6.483-0.966 4.764-2.685 6.483c-1.719 1.719-4.052 2.686-6.483 2.686-1.066 0.002-2.125-0.187-3.125-0.556v-4.375c0.963 0.706 2.137 1.067 3.331 1.023s2.338-0.489 3.247-1.264 1.531-1.834 1.763-3.005c0.233-1.172 0.063-2.388-0.481-3.451s-1.432-1.912-2.518-2.409-2.309-0.612-3.469-0.327c-1.16 0.285-2.191 0.952-2.924 1.895s-1.128 2.106-1.118 3.3v7.5c-1.595-1.122-2.791-2.723-3.414-4.571s-0.641-3.846-0.050-5.705c0.59-1.859 1.758-3.48 3.333-4.63s3.476-1.767 5.426-1.763z"></path>
</svg>
