<!-- Generated by IcoMoon.io -->
<svg version="1.1" xmlns="http://www.w3.org/2000/svg" width="20" height="20" viewBox="0 0 20 20">
<title>percent</title>
<path d="M2.317 18.567l16.25-16.25c0.244-0.244 0.244-0.64 0-0.884s-0.64-0.244-0.884 0l-16.25 16.25c-0.244 0.244-0.244 0.64 0 0.884s0.64 0.244 0.884 0z"></path>
<path d="M1.875 5c0-1.726 1.399-3.125 3.125-3.125s3.125 1.399 3.125 3.125c0 1.726-1.399 3.125-3.125 3.125s-3.125-1.399-3.125-3.125zM5 3.125c-1.036 0-1.875 0.839-1.875 1.875s0.839 1.875 1.875 1.875c1.036 0 1.875-0.839 1.875-1.875s-0.839-1.875-1.875-1.875z"></path>
<path d="M11.875 15c0-1.726 1.399-3.125 3.125-3.125s3.125 1.399 3.125 3.125c0 1.726-1.399 3.125-3.125 3.125s-3.125-1.399-3.125-3.125zM15 13.125c-1.036 0-1.875 0.839-1.875 1.875s0.839 1.875 1.875 1.875c1.036 0 1.875-0.839 1.875-1.875s-0.839-1.875-1.875-1.875z"></path>
</svg>
