<!-- Generated by IcoMoon.io -->
<svg version="1.1" xmlns="http://www.w3.org/2000/svg" width="20" height="20" viewBox="0 0 20 20">
<title>phone-wave</title>
<path d="M12.5 3.125h-5c-0.329 0-0.653 0.113-0.895 0.355s-0.355 0.566-0.355 0.895v10.625c0 0.329 0.113 0.653 0.355 0.895s0.566 0.355 0.895 0.355h5c0.329 0 0.653-0.113 0.895-0.355s0.355-0.566 0.355-0.895v-10.625c0-0.33-0.113-0.653-0.355-0.895s-0.566-0.355-0.895-0.355zM7.5 15v-10.625h0.688c0 0.345 0.28 0.625 0.625 0.625h2.5c0.345 0 0.625-0.28 0.625-0.625h0.563v10.625h-5z"></path>
<path d="M5.28 7.003c0.309 0.154 0.434 0.53 0.28 0.839-0.33 0.659-0.497 1.376-0.497 2.158s0.167 1.499 0.497 2.158c0.154 0.309 0.029 0.684-0.28 0.838s-0.684 0.029-0.839-0.279c-0.42-0.841-0.628-1.749-0.628-2.717s0.208-1.876 0.628-2.717c0.154-0.309 0.53-0.434 0.839-0.28z"></path>
<path d="M15.684 7.283c-0.154-0.309-0.53-0.434-0.838-0.28s-0.434 0.53-0.279 0.839c0.33 0.659 0.497 1.376 0.497 2.158s-0.167 1.499-0.497 2.158c-0.154 0.309-0.029 0.684 0.279 0.838s0.684 0.029 0.838-0.279c0.42-0.841 0.628-1.749 0.628-2.717s-0.208-1.876-0.628-2.717z"></path>
<path d="M15.237 3.692c0.239-0.249 0.635-0.257 0.884-0.018 1.682 1.614 2.692 3.838 2.692 6.326 0 2.43-1.014 4.581-2.549 6.182-0.239 0.249-0.634 0.258-0.884 0.019s-0.258-0.634-0.019-0.884c1.34-1.398 2.201-3.248 2.201-5.318 0-2.137-0.864-4.038-2.308-5.424-0.249-0.239-0.257-0.635-0.018-0.884z"></path>
<path d="M4.764 4.682c0.239-0.249 0.23-0.645-0.019-0.884s-0.645-0.23-0.884 0.019c-1.535 1.602-2.549 3.752-2.549 6.182 0 2.488 1.011 4.712 2.692 6.326 0.249 0.239 0.645 0.231 0.884-0.018s0.231-0.645-0.018-0.884c-1.444-1.386-2.308-3.287-2.308-5.424 0-2.070 0.861-3.919 2.201-5.318z"></path>
</svg>
