<!-- Generated by IcoMoon.io -->
<svg version="1.1" xmlns="http://www.w3.org/2000/svg" width="32" height="32" viewBox="0 0 32 32">
<title>phone-ring</title>
<path d="M16.33 3.056c-0.521-0.182-1.092 0.092-1.274 0.614s0.092 1.092 0.614 1.274c5.807 2.032 10.354 6.58 12.386 12.386 0.183 0.521 0.753 0.796 1.274 0.613s0.796-0.753 0.614-1.274c-2.233-6.381-7.233-11.38-13.614-13.614z"></path>
<path d="M2.821 6.992c0.571-0.569 1.421-0.992 2.412-0.992h3.311c1.546 0 3.050 1.123 3.203 2.809 0.089 0.971 0.355 1.872 0.735 2.818l0.004 0.010 0.004 0.010c0.441 1.172 0.146 2.486-0.732 3.361l-0.85 0.847c1.352 2.133 3.142 3.916 5.202 5.192l0.859-0.856c0.877-0.874 2.192-1.166 3.364-0.728l0.010 0.004 0.010 0.004c0.901 0.359 1.816 0.545 2.919 0.745 1.594 0.289 2.728 1.715 2.728 3.284v3.3c0 0.913-0.443 1.757-0.997 2.308l-0.039 0.039-0.043 0.035c-0.682 0.544-1.505 0.818-2.329 0.818h-0.058l-0.058-0.007c-3.538-0.415-7.003-1.558-9.962-3.555-2.84-1.785-5.141-4.19-6.912-6.889-1.997-3.038-3.147-6.481-3.566-10.010-0.147-0.928 0.177-1.798 0.712-2.465l0.035-0.043 0.039-0.039zM4.272 8.371c-0.234 0.311-0.302 0.613-0.26 0.864l0.004 0.024 0.003 0.024c0.385 3.264 1.442 6.412 3.254 9.168 1.638 2.496 3.747 4.689 6.318 6.302l0.014 0.009 0.014 0.009c2.639 1.785 5.768 2.837 9.024 3.228 0.345-0.011 0.688-0.125 0.985-0.346 0.228-0.246 0.371-0.581 0.371-0.853v-3.3c0-0.631-0.471-1.205-1.085-1.316-1.101-0.2-2.189-0.413-3.291-0.85-0.432-0.158-0.919-0.049-1.243 0.275l-1.937 1.931-0.658-0.364c-2.876-1.592-5.313-4.026-7.006-6.977l-0.381-0.665 1.947-1.941c0.324-0.323 0.431-0.805 0.275-1.231-0.421-1.050-0.754-2.145-0.866-3.37-0.047-0.513-0.55-0.991-1.212-0.991h-3.311c-0.391 0-0.73 0.159-0.961 0.371z"></path>
<path d="M15.087 7.959c0.226-0.504 0.817-0.73 1.321-0.504 4.084 1.827 7.31 5.053 9.137 9.137 0.226 0.504-0 1.096-0.504 1.321s-1.096-0-1.321-0.504c-1.626-3.635-4.493-6.502-8.128-8.128-0.504-0.226-0.73-0.817-0.504-1.321z"></path>
</svg>
