<!-- Generated by IcoMoon.io -->
<svg version="1.1" xmlns="http://www.w3.org/2000/svg" width="20" height="20" viewBox="0 0 20 20">
<title>phone-mobile</title>
<path d="M13.125 1.25c1.408 0 2.5 1.092 2.5 2.5v12.5c0 1.408-1.092 2.5-2.5 2.5h-6.25c-1.408 0-2.5-1.092-2.5-2.5v-12.5c0-1.408 1.092-2.5 2.5-2.5h6.25zM6.875 2.5c-0.717 0-1.25 0.533-1.25 1.25v12.5c0 0.717 0.533 1.25 1.25 1.25h6.25c0.717 0 1.25-0.533 1.25-1.25v-12.5c0-0.717-0.533-1.25-1.25-1.25h-0.625c0 0.33-0.113 0.653-0.355 0.895s-0.566 0.355-0.895 0.355h-2.5c-0.329 0-0.653-0.113-0.895-0.355s-0.355-0.566-0.355-0.895h-0.625z"></path>
</svg>
