<!-- Generated by IcoMoon.io -->
<svg version="1.1" xmlns="http://www.w3.org/2000/svg" width="20" height="20" viewBox="0 0 20 20">
<title>phone-ring</title>
<path d="M10.206 1.91c-0.326-0.114-0.682 0.058-0.796 0.383s0.058 0.682 0.383 0.796c3.629 1.27 6.471 4.112 7.742 7.742 0.114 0.326 0.471 0.497 0.796 0.383s0.497-0.471 0.383-0.796c-1.396-3.988-4.52-7.113-8.508-8.508z"></path>
<path d="M1.763 4.37c0.357-0.356 0.888-0.62 1.507-0.62h2.070c0.966 0 1.906 0.702 2.002 1.756 0.055 0.607 0.222 1.17 0.459 1.761l0.003 0.006 0.002 0.006c0.276 0.732 0.091 1.554-0.457 2.1l-0.531 0.529c0.845 1.333 1.964 2.448 3.251 3.245l0.537-0.535c0.548-0.546 1.37-0.729 2.102-0.455l0.006 0.002 0.006 0.003c0.563 0.224 1.135 0.341 1.824 0.466 0.996 0.181 1.705 1.072 1.705 2.052v2.063c0 0.571-0.277 1.098-0.623 1.443l-0.024 0.024-0.027 0.022c-0.426 0.34-0.94 0.511-1.456 0.511h-0.037l-0.036-0.004c-2.212-0.259-4.377-0.974-6.226-2.222-1.775-1.116-3.213-2.619-4.32-4.306-1.248-1.899-1.967-4.051-2.229-6.256-0.092-0.58 0.111-1.124 0.445-1.541l0.022-0.027 0.025-0.024zM2.67 5.232c-0.146 0.194-0.189 0.383-0.163 0.54l0.002 0.015 0.002 0.015c0.241 2.040 0.901 4.008 2.034 5.73 1.024 1.56 2.342 2.93 3.949 3.939l0.009 0.006 0.009 0.006c1.65 1.116 3.605 1.773 5.64 2.017 0.215-0.007 0.43-0.078 0.616-0.216 0.143-0.154 0.232-0.363 0.232-0.533v-2.063c0-0.394-0.294-0.753-0.678-0.822-0.688-0.125-1.368-0.258-2.057-0.532-0.27-0.099-0.574-0.031-0.777 0.172l-1.211 1.207-0.411-0.228c-1.797-0.995-3.321-2.516-4.378-4.361l-0.238-0.416 1.217-1.213c0.203-0.202 0.27-0.503 0.172-0.769-0.263-0.656-0.471-1.341-0.541-2.106-0.029-0.321-0.344-0.619-0.757-0.619h-2.070c-0.245 0-0.456 0.099-0.601 0.232z"></path>
<path d="M9.429 4.974c0.141-0.315 0.511-0.456 0.826-0.315 2.552 1.142 4.569 3.158 5.711 5.711 0.141 0.315-0 0.685-0.315 0.826s-0.685-0-0.826-0.315c-1.016-2.272-2.808-4.064-5.080-5.080-0.315-0.141-0.456-0.511-0.315-0.826z"></path>
</svg>
