<!-- Generated by IcoMoon.io -->
<svg version="1.1" xmlns="http://www.w3.org/2000/svg" width="20" height="20" viewBox="0 0 20 20">
<title>phone-pay-alt</title>
<path d="M5.75 8.75c0-0.717 0.533-1.25 1.25-1.25h1.875c0.345 0 0.625-0.28 0.625-0.625s-0.28-0.625-0.625-0.625h-1.25v-0.625c0-0.345-0.28-0.625-0.625-0.625s-0.625 0.28-0.625 0.625v0.7c-1.093 0.269-1.875 1.234-1.875 2.425 0 1.408 1.092 2.5 2.5 2.5 0.717 0 1.25 0.533 1.25 1.25s-0.533 1.25-1.25 1.25h-1.875c-0.345 0-0.625 0.28-0.625 0.625s0.28 0.625 0.625 0.625h1.25v0.625c0 0.345 0.28 0.625 0.625 0.625s0.625-0.28 0.625-0.625v-0.7c1.093-0.269 1.875-1.234 1.875-2.425 0-1.408-1.092-2.5-2.5-2.5-0.717 0-1.25-0.533-1.25-1.25z"></path>
<path d="M10.063 1.25c1.408 0 2.5 1.092 2.5 2.5v12.5c0 1.421-1.168 2.5-2.5 2.5h-6.25c-1.408 0-2.5-1.092-2.5-2.5v-12.5c0-1.408 1.092-2.5 2.5-2.5h6.25zM3.813 2.5c-0.717 0-1.25 0.533-1.25 1.25v12.5c0 0.717 0.533 1.25 1.25 1.25h6.25c0.668 0 1.25-0.546 1.25-1.25v-12.5c0-0.717-0.533-1.25-1.25-1.25h-0.625c0 0.76-0.634 1.25-1.25 1.25h-2.5c-0.33 0-0.653-0.113-0.895-0.355s-0.355-0.566-0.355-0.895h-0.625z"></path>
<path d="M16.55 3.229c-0.253-0.235-0.649-0.219-0.883 0.034s-0.219 0.649 0.034 0.883c1.556 1.441 2.487 3.523 2.487 5.854 0 2.263-0.928 4.294-2.379 5.746-0.244 0.244-0.244 0.64 0 0.884s0.64 0.244 0.884 0c1.674-1.674 2.746-4.018 2.746-6.629 0-2.669-1.069-5.087-2.888-6.771z"></path>
<path d="M13.848 4.957c0.231-0.257 0.626-0.277 0.883-0.046 1.385 1.246 2.207 3.041 2.207 5.090 0 1.992-0.826 3.778-2.194 5.078-0.25 0.238-0.646 0.228-0.884-0.023s-0.228-0.646 0.023-0.884c1.132-1.075 1.805-2.539 1.805-4.172 0-1.702-0.678-3.157-1.793-4.16-0.257-0.231-0.277-0.626-0.046-0.883z"></path>
</svg>
