<!-- Generated by IcoMoon.io -->
<svg version="1.1" xmlns="http://www.w3.org/2000/svg" width="20" height="20" viewBox="0 0 20 20">
<title>phone</title>
<path d="M3.563 2.5c-0.333 0-0.588 0.119-0.77 0.338l-0.018 0.022-0.020 0.020c-0.149 0.149-0.24 0.381-0.197 0.731l0.001 0.008 0.001 0.008c0.24 2.397 1.080 4.74 2.403 6.785l0 0.001c1.206 1.869 2.767 3.488 4.681 4.684l0.004 0.003 0.004 0.003c2.035 1.317 4.366 2.155 6.752 2.399 0.34-0.006 0.635-0.11 0.779-0.254 0.2-0.2 0.317-0.481 0.317-0.746v-2.438c0-0.594-0.364-0.996-0.845-1.070-0.846-0.13-1.627-0.325-2.405-0.584-0.445-0.131-0.876-0.023-1.12 0.221l-1.398 1.398-0.413-0.232c-2.102-1.182-3.869-2.952-5.11-5.108l-0.239-0.415 1.385-1.385c0.315-0.368 0.392-0.744 0.252-1.092l-0.007-0.017-0.006-0.017c-0.26-0.781-0.457-1.565-0.587-2.415-0.076-0.495-0.49-0.845-1.007-0.845h-2.438zM1.85 2.016c0.441-0.517 1.054-0.766 1.712-0.766h2.438c1.108 0 2.069 0.775 2.243 1.905 0.118 0.77 0.295 1.48 0.532 2.194 0.348 0.891 0.053 1.752-0.492 2.375l-0.014 0.016-0.732 0.732c1.029 1.644 2.397 3.012 3.988 3.994l0.72-0.72c0.63-0.63 1.569-0.772 2.372-0.532l0.009 0.003 0.009 0.003c0.719 0.24 1.435 0.418 2.21 0.538 1.144 0.176 1.905 1.149 1.905 2.305v2.437c0 0.61-0.258 1.205-0.683 1.629-0.477 0.477-1.17 0.621-1.692 0.621h-0.031l-0.031-0.003c-2.601-0.26-5.132-1.169-7.336-2.594-2.084-1.304-3.771-3.059-5.065-5.063-1.425-2.203-2.335-4.732-2.596-7.332-0.078-0.639 0.076-1.269 0.534-1.741z"></path>
</svg>
