<!-- Generated by IcoMoon.io -->
<svg version="1.1" xmlns="http://www.w3.org/2000/svg" width="20" height="20" viewBox="0 0 20 20">
<title>php-worker-arrow-se</title>
<path d="M5.625 4.375h-1.875v5h1.25v-1.25h0.625c1.036 0 1.875-0.839 1.875-1.875s-0.839-1.875-1.875-1.875zM5.625 6.875h-0.625v-1.25h0.625c0.345 0 0.625 0.28 0.625 0.625s-0.28 0.625-0.625 0.625z"></path>
<path d="M14.375 4.375h-1.875v5h1.25v-1.25h0.625c1.036 0 1.875-0.839 1.875-1.875s-0.839-1.875-1.875-1.875zM14.375 6.875h-0.625v-1.25h0.625c0.345 0 0.625 0.28 0.625 0.625s-0.28 0.625-0.625 0.625z"></path>
<path d="M8.125 4.375h1.25v1.875h1.25v-1.875h1.25v5h-1.25v-1.875h-1.25v1.875h-1.25v-5z"></path>
<path d="M3.75 1.875c-1.381 0-2.5 1.119-2.5 2.5v5c0 1.381 1.119 2.5 2.5 2.5h5.625v1.25c0 1.726 1.399 3.125 3.125 3.125h2.241l-0.808 0.808c-0.244 0.244-0.244 0.64 0 0.884s0.64 0.244 0.884 0l2.317-2.317-2.317-2.317c-0.244-0.244-0.64-0.244-0.884 0s-0.244 0.64 0 0.884l0.808 0.808h-2.241c-1.036 0-1.875-0.839-1.875-1.875v-1.25h5.625c1.381 0 2.5-1.119 2.5-2.5v-5c0-1.381-1.119-2.5-2.5-2.5h-12.5zM2.5 4.375c0-0.69 0.56-1.25 1.25-1.25h12.5c0.69 0 1.25 0.56 1.25 1.25v5c0 0.69-0.56 1.25-1.25 1.25h-12.5c-0.69 0-1.25-0.56-1.25-1.25v-5z"></path>
</svg>
