<!-- Generated by IcoMoon.io -->
<svg version="1.1" xmlns="http://www.w3.org/2000/svg" width="20" height="20" viewBox="0 0 20 20">
<title>php-worker-cycle</title>
<path d="M15.308 4.692c-2.943-2.943-7.673-2.943-10.616 0s-2.943 7.673 0 10.616c2.943 2.943 7.673 2.943 10.616 0 1.559-1.559 2.308-3.635 2.193-5.711-0.019-0.345 0.245-0.64 0.589-0.659s0.64 0.245 0.659 0.589c0.135 2.424-0.742 4.848-2.557 6.664-3.432 3.432-8.952 3.432-12.384 0s-3.432-8.952 0-12.384c3.432-3.432 8.952-3.432 12.384 0l0.683 0.683v-1.991c0-0.345 0.28-0.625 0.625-0.625s0.625 0.28 0.625 0.625v4.125h-0.616c-0.006 0-0.012 0-0.017 0h-3.491c-0.345 0-0.625-0.28-0.625-0.625s0.28-0.625 0.625-0.625h1.991l-0.683-0.683z"></path>
<path d="M5.625 7.5h-1.875v5h1.25v-1.25h0.625c1.036 0 1.875-0.839 1.875-1.875s-0.839-1.875-1.875-1.875zM5.625 10h-0.625v-1.25h0.625c0.345 0 0.625 0.28 0.625 0.625s-0.28 0.625-0.625 0.625z"></path>
<path d="M12.5 7.5h1.875c1.036 0 1.875 0.839 1.875 1.875s-0.839 1.875-1.875 1.875h-0.625v1.25h-1.25v-5zM13.75 10h0.625c0.345 0 0.625-0.28 0.625-0.625s-0.28-0.625-0.625-0.625h-0.625v1.25z"></path>
<path d="M9.375 7.5h-1.25v5h1.25v-1.875h1.25v1.875h1.25v-5h-1.25v1.875h-1.25v-1.875z"></path>
</svg>
