<!-- Generated by IcoMoon.io -->
<svg version="1.1" xmlns="http://www.w3.org/2000/svg" width="20" height="20" viewBox="0 0 20 20">
<title>php-worker</title>
<path d="M5.625 7.5h-1.875v5h1.25v-1.25h0.625c1.036 0 1.875-0.839 1.875-1.875s-0.839-1.875-1.875-1.875zM5.625 10h-0.625v-1.25h0.625c0.345 0 0.625 0.28 0.625 0.625s-0.28 0.625-0.625 0.625z"></path>
<path d="M14.375 7.5h-1.875v5h1.25v-1.25h0.625c1.036 0 1.875-0.839 1.875-1.875s-0.839-1.875-1.875-1.875zM14.375 10h-0.625v-1.25h0.625c0.345 0 0.625 0.28 0.625 0.625s-0.28 0.625-0.625 0.625z"></path>
<path d="M8.125 7.5h1.25v1.875h1.25v-1.875h1.25v5h-1.25v-1.875h-1.25v1.875h-1.25v-5z"></path>
<path d="M3.75 1.25c-1.381 0-2.5 1.119-2.5 2.5v12.5c0 1.381 1.119 2.5 2.5 2.5h12.5c1.381 0 2.5-1.119 2.5-2.5v-12.5c0-1.381-1.119-2.5-2.5-2.5h-12.5zM2.5 3.75c0-0.69 0.56-1.25 1.25-1.25h12.5c0.69 0 1.25 0.56 1.25 1.25v12.5c0 0.69-0.56 1.25-1.25 1.25h-12.5c-0.69 0-1.25-0.56-1.25-1.25v-12.5z"></path>
</svg>
