<!-- Generated by IcoMoon.io -->
<svg version="1.1" xmlns="http://www.w3.org/2000/svg" width="20" height="20" viewBox="0 0 20 20">
<title>php-workers-ok</title>
<path d="M3.75 1.25c-1.381 0-2.5 1.119-2.5 2.5v5c0 1.381 1.119 2.5 2.5 2.5h5.625c0.345 0 0.625-0.28 0.625-0.625s-0.28-0.625-0.625-0.625h-5.625c-0.69 0-1.25-0.56-1.25-1.25v-5c0-0.69 0.56-1.25 1.25-1.25h12.5c0.69 0 1.25 0.56 1.25 1.25v5.625c0 0.345 0.28 0.625 0.625 0.625s0.625-0.28 0.625-0.625v-5.625c0-1.381-1.119-2.5-2.5-2.5h-12.5z"></path>
<path d="M5.625 3.75h-1.875v5h1.25v-1.25h0.625c1.036 0 1.875-0.839 1.875-1.875s-0.839-1.875-1.875-1.875zM5.625 6.25h-0.625v-1.25h0.625c0.345 0 0.625 0.28 0.625 0.625s-0.28 0.625-0.625 0.625z"></path>
<path d="M14.375 3.75h-1.875v5h1.25v-1.25h0.625c1.036 0 1.875-0.839 1.875-1.875s-0.839-1.875-1.875-1.875zM14.375 6.25h-0.625v-1.25h0.625c0.345 0 0.625 0.28 0.625 0.625s-0.28 0.625-0.625 0.625z"></path>
<path d="M8.125 3.75h1.25v1.875h1.25v-1.875h1.25v5h-1.25v-1.875h-1.25v1.875h-1.25v-5z"></path>
<path d="M1.875 11.25c0.345 0 0.625 0.28 0.625 0.625v0.625c0 0.69 0.56 1.25 1.25 1.25h4.375c0.345 0 0.625 0.28 0.625 0.625s-0.28 0.625-0.625 0.625h-4.375c-1.381 0-2.5-1.119-2.5-2.5v-0.625c0-0.345 0.28-0.625 0.625-0.625z"></path>
<path d="M2.5 15.625c0-0.345-0.28-0.625-0.625-0.625s-0.625 0.28-0.625 0.625v0.625c0 1.381 1.119 2.5 2.5 2.5h5.625c0.345 0 0.625-0.28 0.625-0.625s-0.28-0.625-0.625-0.625h-5.625c-0.69 0-1.25-0.56-1.25-1.25v-0.625z"></path>
<path d="M16.692 13.567c0.244-0.244 0.244-0.64 0-0.884s-0.64-0.244-0.884 0l-2.058 2.058-0.808-0.808c-0.244-0.244-0.64-0.244-0.884 0s-0.244 0.64 0 0.884l1.692 1.692 2.942-2.942z"></path>
<path d="M9.375 14.375c0-2.761 2.239-5 5-5s5 2.239 5 5c0 2.761-2.239 5-5 5s-5-2.239-5-5zM14.375 10.625c-2.071 0-3.75 1.679-3.75 3.75s1.679 3.75 3.75 3.75c2.071 0 3.75-1.679 3.75-3.75s-1.679-3.75-3.75-3.75z"></path>
</svg>
