<!-- Generated by IcoMoon.io -->
<svg version="1.1" xmlns="http://www.w3.org/2000/svg" width="32" height="32" viewBox="0 0 32 32">
<title>php</title>
<path d="M18.57 17.56c0.19-0.85 0.37-1.71 0.55-2.55 0.085-0.327 0.132-0.662 0.14-1v-0.060c-0.002-0.266-0.092-0.523-0.257-0.732s-0.395-0.356-0.653-0.418c-0.327-0.080-0.663-0.121-1-0.12h-1.76c0.17-0.83 0.34-1.64 0.51-2.45h-1.61l-1.49 7.32h1.6c0.26-1.23 0.51-2.45 0.77-3.68h1.44c0.173 0.020 0.344 0.057 0.51 0.11 0.073 0.017 0.14 0.057 0.188 0.115s0.077 0.13 0.082 0.205c0.005 0.080 0.005 0.16 0 0.24 0.005 0.087 0.005 0.173 0 0.26-0.16 0.76-0.33 1.53-0.5 2.31l-0.090 0.45h1.57zM21.24 16.36h1.7c0.176-0.005 0.349-0.049 0.506-0.128s0.295-0.193 0.404-0.332c0.209-0.292 0.324-0.641 0.33-1 0.005-0.067 0.005-0.133 0-0.2-0.009-0.096-0.039-0.188-0.087-0.271s-0.114-0.154-0.193-0.209c-0.168-0.126-0.37-0.196-0.58-0.2h-1.61c-0.16 0.73-0.31 1.53-0.47 2.35v-0.010zM20.31 12.69h3.42c0.474-0 0.937 0.15 1.32 0.43 0.22 0.151 0.401 0.352 0.528 0.587s0.196 0.496 0.202 0.763c0 0.060 0 0.12 0 0.19 0.003 0.75-0.275 1.475-0.78 2.030-0.354 0.395-0.829 0.662-1.35 0.76-0.467 0.098-0.943 0.148-1.42 0.15h-1.2c-0.11 0.62-0.22 1.22-0.32 1.83h-1.71c0.45-2.24 0.86-4.48 1.28-6.69l0.030-0.050zM8.36 16.32h1.75c0.177-0.013 0.349-0.066 0.503-0.154s0.286-0.21 0.387-0.356c0.21-0.292 0.325-0.641 0.33-1 0.005-0.070 0.005-0.14 0-0.21-0.008-0.106-0.043-0.208-0.101-0.297s-0.136-0.162-0.229-0.213c-0.173-0.122-0.378-0.192-0.59-0.2h-1.59c-0.15 0.81-0.3 1.61-0.46 2.43zM8.14 17.55l-0.33 1.84h-1.62l1.24-6.7h3.38c0.346 0.002 0.688 0.081 1 0.23 0.308 0.127 0.573 0.34 0.764 0.613s0.301 0.595 0.316 0.927v0.23c-0.007 0.734-0.273 1.442-0.75 2-0.36 0.398-0.842 0.665-1.37 0.76-0.466 0.103-0.943 0.153-1.42 0.15h-0.2c-0.32 0-0.66 0-1 0l-0.010-0.050zM16.23 8.97h-0.23c-1.427-0-2.852 0.117-4.26 0.35h0.15c-1.454 0.227-2.879 0.613-4.25 1.15h0.14c-1.070 0.402-2.080 0.951-3 1.63-0.713 0.473-1.319 1.089-1.78 1.81-0.318 0.538-0.481 1.155-0.47 1.78-0.001 0.557 0.132 1.106 0.39 1.6 0.366 0.697 0.869 1.313 1.48 1.81 1.012 0.827 2.154 1.479 3.38 1.93h0.080c0.858 0.334 1.741 0.601 2.64 0.8h0.13c1.204 0.273 2.428 0.447 3.66 0.52h0.070c0.52 0 1.12 0.050 1.72 0.050s1.21 0 1.8-0.060h-0.080c1.073-0.053 2.141-0.17 3.2-0.35h-0.17c1.344-0.255 2.658-0.65 3.92-1.18l-0.13 0.050c0.882-0.352 1.718-0.808 2.49-1.36 0.71-0.48 1.319-1.095 1.79-1.81 0.357-0.542 0.557-1.172 0.58-1.82 0.006-0.71-0.199-1.407-0.59-2-0.454-0.71-1.041-1.325-1.73-1.81-1.012-0.733-2.128-1.313-3.31-1.72h-0.090c-1.463-0.505-2.98-0.84-4.52-1h-0.090c-0.95-0.152-1.909-0.243-2.87-0.27l-0.050-0.1zM16 7.75c1.002-0.003 2.004 0.051 3 0.16h-0.12c1.607 0.168 3.192 0.503 4.73 1h-0.16c1.494 0.449 2.91 1.124 4.2 2h-0.050c0.887 0.586 1.654 1.336 2.26 2.21 0.459 0.669 0.741 1.443 0.82 2.25 0 0.14 0 0.29 0 0.45 0 0.822-0.217 1.629-0.63 2.34-0.431 0.763-0.997 1.44-1.67 2-1.041 0.845-2.208 1.52-3.46 2h-0.080c-0.912 0.375-1.852 0.679-2.81 0.91h-0.13c-0.81 0.18-1.61 0.33-2.42 0.43-1.154 0.152-2.316 0.229-3.48 0.23h-0.61c-1.027-0.018-2.052-0.098-3.070-0.24h0.14c-1.643-0.204-3.259-0.586-4.82-1.14h0.16c-1.078-0.366-2.111-0.852-3.080-1.45h0.070c-0.908-0.545-1.717-1.242-2.39-2.060-0.561-0.7-0.929-1.534-1.070-2.42-0.041-0.241-0.061-0.485-0.060-0.73 0.001-0.597 0.12-1.189 0.35-1.74 0.37-0.865 0.926-1.636 1.63-2.26 0.891-0.817 1.903-1.491 3-2h0.070c1.363-0.635 2.796-1.105 4.27-1.4h0.13c0.966-0.208 1.945-0.348 2.93-0.42h0.080l2.27-0.18v0.060z"></path>
</svg>
