<!-- Generated by IcoMoon.io -->
<svg version="1.1" xmlns="http://www.w3.org/2000/svg" width="20" height="20" viewBox="0 0 20 20">
<title>php</title>
<path d="M11.606 10.975c0.119-0.531 0.231-1.069 0.344-1.594 0.053-0.204 0.083-0.414 0.088-0.625v-0.037c-0.001-0.166-0.057-0.327-0.161-0.457s-0.247-0.222-0.408-0.261c-0.204-0.050-0.414-0.075-0.625-0.075h-1.1c0.106-0.519 0.213-1.025 0.319-1.531h-1.006l-0.931 4.575h1c0.163-0.769 0.319-1.531 0.481-2.3h0.9c0.108 0.013 0.215 0.036 0.319 0.069 0.046 0.011 0.087 0.036 0.118 0.072s0.048 0.081 0.051 0.128c0.003 0.050 0.003 0.1 0 0.15 0.003 0.054 0.003 0.108 0 0.162-0.1 0.475-0.206 0.956-0.313 1.444l-0.056 0.281h0.981zM13.275 10.225h1.063c0.11-0.003 0.218-0.031 0.316-0.080s0.184-0.12 0.252-0.207c0.131-0.183 0.203-0.401 0.206-0.625 0.003-0.042 0.003-0.083 0-0.125-0.006-0.060-0.024-0.117-0.054-0.169s-0.071-0.096-0.121-0.131c-0.105-0.079-0.232-0.122-0.362-0.125h-1.006c-0.1 0.456-0.194 0.956-0.294 1.469v-0.006zM12.694 7.931h2.137c0.297-0 0.585 0.094 0.825 0.269 0.138 0.094 0.251 0.22 0.33 0.367s0.123 0.31 0.126 0.477c0 0.037 0 0.075 0 0.119 0.002 0.469-0.172 0.922-0.487 1.269-0.221 0.247-0.518 0.414-0.844 0.475-0.292 0.061-0.589 0.093-0.887 0.094h-0.75c-0.069 0.388-0.137 0.762-0.2 1.144h-1.069c0.281-1.4 0.537-2.8 0.8-4.181l0.019-0.031zM5.225 10.2h1.094c0.111-0.008 0.218-0.041 0.314-0.096s0.179-0.131 0.242-0.222c0.131-0.182 0.203-0.401 0.206-0.625 0.003-0.044 0.003-0.088 0-0.131-0.005-0.066-0.027-0.13-0.063-0.185s-0.085-0.102-0.143-0.133c-0.108-0.076-0.236-0.12-0.369-0.125h-0.994c-0.094 0.506-0.188 1.006-0.288 1.519zM5.088 10.969l-0.206 1.15h-1.013l0.775-4.188h2.112c0.216 0.001 0.43 0.050 0.625 0.144 0.192 0.079 0.358 0.212 0.478 0.383s0.188 0.372 0.197 0.58v0.144c-0.004 0.459-0.17 0.901-0.469 1.25-0.225 0.248-0.526 0.416-0.856 0.475-0.291 0.064-0.589 0.096-0.887 0.094h-0.125c-0.2 0-0.412 0-0.625 0l-0.006-0.031zM10.144 5.606h-0.144c-0.892-0-1.783 0.073-2.662 0.219h0.094c-0.909 0.142-1.8 0.383-2.656 0.719h0.087c-0.669 0.252-1.3 0.594-1.875 1.019-0.446 0.296-0.825 0.681-1.113 1.131-0.199 0.337-0.301 0.722-0.294 1.112-0.001 0.348 0.083 0.691 0.244 1 0.229 0.436 0.543 0.821 0.925 1.131 0.632 0.517 1.346 0.924 2.112 1.206h0.050c0.536 0.209 1.088 0.376 1.65 0.5h0.081c0.752 0.17 1.517 0.279 2.287 0.325h0.044c0.325 0 0.7 0.031 1.075 0.031s0.756 0 1.125-0.037h-0.050c0.67-0.033 1.338-0.107 2-0.219h-0.106c0.84-0.159 1.661-0.407 2.45-0.738l-0.081 0.031c0.551-0.22 1.073-0.505 1.556-0.85 0.444-0.3 0.824-0.684 1.119-1.131 0.223-0.339 0.348-0.732 0.362-1.137 0.004-0.444-0.124-0.879-0.369-1.25-0.284-0.444-0.651-0.828-1.081-1.131-0.633-0.458-1.33-0.821-2.069-1.075h-0.056c-0.915-0.316-1.863-0.525-2.825-0.625h-0.056c-0.594-0.095-1.193-0.152-1.794-0.169l-0.031-0.063zM10 4.844c0.626-0.002 1.252 0.032 1.875 0.1h-0.075c1.004 0.105 1.995 0.314 2.956 0.625h-0.1c0.933 0.281 1.819 0.702 2.625 1.25h-0.031c0.555 0.366 1.034 0.835 1.413 1.381 0.287 0.418 0.463 0.902 0.512 1.406 0 0.088 0 0.181 0 0.281 0 0.514-0.136 1.018-0.394 1.463-0.269 0.477-0.623 0.9-1.044 1.25-0.65 0.528-1.38 0.95-2.162 1.25h-0.050c-0.57 0.234-1.157 0.424-1.756 0.569h-0.081c-0.506 0.113-1.006 0.206-1.513 0.269-0.721 0.095-1.448 0.143-2.175 0.144h-0.381c-0.642-0.011-1.283-0.061-1.919-0.15h0.088c-1.027-0.128-2.037-0.366-3.013-0.713h0.1c-0.674-0.228-1.32-0.532-1.925-0.906h0.044c-0.568-0.341-1.073-0.776-1.494-1.287-0.35-0.438-0.581-0.959-0.669-1.513-0.025-0.151-0.038-0.303-0.038-0.456 0.001-0.373 0.075-0.743 0.219-1.088 0.231-0.54 0.579-1.023 1.019-1.412 0.557-0.511 1.19-0.932 1.875-1.25h0.044c0.852-0.397 1.748-0.69 2.669-0.875h0.081c0.604-0.13 1.216-0.218 1.831-0.262h0.050l1.419-0.113v0.038z"></path>
</svg>
