<!-- Generated by IcoMoon.io -->
<svg version="1.1" xmlns="http://www.w3.org/2000/svg" width="32" height="32" viewBox="0 0 32 32">
<title>piggy</title>
<path d="M5 7c0-1.648 1.352-3 3-3s3 1.352 3 3v0.2c0 0.552 0.448 1 1 1s1-0.448 1-1v-0.2c0-2.752-2.248-5-5-5s-5 2.248-5 5c0 2.007 1.138 3.625 2.726 4.481 0.486 0.262 1.093 0.080 1.355-0.406s0.080-1.093-0.406-1.355c-1.012-0.545-1.674-1.526-1.674-2.72z"></path>
<path d="M24 16c0 0.552-0.448 1-1 1s-1-0.448-1-1c0-0.552 0.448-1 1-1s1 0.448 1 1z"></path>
<path d="M24 5c-2.27 0-4.13 1.558-4.776 3.555-0.741-0.103-1.482-0.155-2.224-0.155-5.959 0-11.227 3.49-11.922 8.393-0.653-0.32-1.078-0.983-1.078-1.793 0-0.543 0.201-0.986 0.507-1.293 0.391-0.39 0.391-1.024 0-1.414s-1.024-0.39-1.414 0c-0.693 0.693-1.093 1.65-1.093 2.707 0 1.928 1.28 3.486 3.061 3.895 0.258 2.069 1.319 3.87 2.939 5.275v4.83c0 0.552 0.448 1 1 1h5c0.552 0 1-0.448 1-1v-1.725c0.666 0.083 1.333 0.125 2 0.125v1.6c0 0.552 0.448 1 1 1h5c0.552 0 1-0.448 1-1v-3.413c1.202-0.7 2.304-1.557 3.111-2.589 1.601-0.059 2.889-1.383 2.889-2.998v-3c0-0.552-0.448-1-1-1h-0.274c-0.526-2.098-1.914-3.883-3.726-5.14v-4.86c0-0.552-0.448-1-1-1zM20.995 9.8c0.119-1.185 0.928-2.213 2.005-2.617v4.217c0 0.346 0.179 0.668 0.474 0.85 1.903 1.178 3.182 2.939 3.435 4.879 0.065 0.498 0.489 0.871 0.992 0.871h0.1v2c0 0.548-0.452 1-1 1h-0.4c-0.334 0-0.647 0.167-0.832 0.445-0.673 1.009-1.815 1.913-3.239 2.672-0.326 0.174-0.529 0.513-0.529 0.882v3h-3v-1.6c0-0.552-0.448-1-1-1h-1c-0.933 0-1.867-0.093-2.804-0.281-0.294-0.059-0.598 0.017-0.83 0.207s-0.366 0.474-0.366 0.773v1.9h-3v-4.3c0-0.306-0.14-0.595-0.38-0.785-1.699-1.341-2.62-3.068-2.62-5.015 0-3.924 4.198-7.5 10-7.5 0.933 0 1.867 0.093 2.804 0.281 0.277 0.055 0.564-0.009 0.791-0.177s0.372-0.424 0.4-0.704z"></path>
</svg>
