<!-- Generated by IcoMoon.io -->
<svg version="1.1" xmlns="http://www.w3.org/2000/svg" width="20" height="20" viewBox="0 0 20 20">
<title>piggy</title>
<path d="M3.125 4.375c0-1.030 0.845-1.875 1.875-1.875s1.875 0.845 1.875 1.875v0.125c0 0.345 0.28 0.625 0.625 0.625s0.625-0.28 0.625-0.625v-0.125c0-1.72-1.405-3.125-3.125-3.125s-3.125 1.405-3.125 3.125c0 1.254 0.711 2.266 1.704 2.8 0.304 0.164 0.683 0.050 0.847-0.254s0.050-0.683-0.254-0.847c-0.632-0.341-1.046-0.954-1.046-1.7z"></path>
<path d="M15 10c0 0.345-0.28 0.625-0.625 0.625s-0.625-0.28-0.625-0.625c0-0.345 0.28-0.625 0.625-0.625s0.625 0.28 0.625 0.625z"></path>
<path d="M15 3.125c-1.419 0-2.581 0.974-2.985 2.222-0.463-0.064-0.926-0.097-1.39-0.097-3.724 0-7.017 2.181-7.451 5.246-0.408-0.2-0.674-0.614-0.674-1.121 0-0.339 0.125-0.616 0.317-0.808 0.244-0.244 0.244-0.64 0-0.884s-0.64-0.244-0.884 0c-0.433 0.433-0.683 1.031-0.683 1.692 0 1.205 0.8 2.179 1.913 2.434 0.161 1.293 0.824 2.418 1.837 3.297v3.019c0 0.345 0.28 0.625 0.625 0.625h3.125c0.345 0 0.625-0.28 0.625-0.625v-1.078c0.416 0.052 0.833 0.078 1.25 0.078v1c0 0.345 0.28 0.625 0.625 0.625h3.125c0.345 0 0.625-0.28 0.625-0.625v-2.133c0.751-0.437 1.44-0.973 1.945-1.618 1.001-0.037 1.805-0.864 1.805-1.874v-1.875c0-0.345-0.28-0.625-0.625-0.625h-0.171c-0.329-1.311-1.197-2.427-2.329-3.212v-3.038c0-0.345-0.28-0.625-0.625-0.625zM13.122 6.125c0.074-0.74 0.58-1.383 1.253-1.636v2.636c0 0.216 0.112 0.417 0.296 0.531 1.189 0.736 1.989 1.837 2.147 3.049 0.041 0.311 0.306 0.544 0.62 0.544h0.063v1.25c0 0.342-0.283 0.625-0.625 0.625h-0.25c-0.209 0-0.404 0.104-0.52 0.278-0.421 0.631-1.134 1.196-2.024 1.67-0.204 0.109-0.331 0.321-0.331 0.552v1.875h-1.875v-1c0-0.345-0.28-0.625-0.625-0.625h-0.625c-0.583 0-1.167-0.058-1.752-0.175-0.184-0.037-0.374 0.011-0.519 0.13s-0.229 0.296-0.229 0.483v1.188h-1.875v-2.688c0-0.191-0.088-0.372-0.238-0.491-1.062-0.838-1.637-1.917-1.637-3.134 0-2.453 2.624-4.688 6.25-4.688 0.583 0 1.167 0.058 1.752 0.175 0.173 0.035 0.352-0.006 0.494-0.11s0.233-0.265 0.25-0.44z"></path>
</svg>
