<!-- Generated by IcoMoon.io -->
<svg version="1.1" xmlns="http://www.w3.org/2000/svg" width="20" height="20" viewBox="0 0 20 20">
<title>pill</title>
<path d="M16.833 2.699c1.932 1.932 1.932 5.14 0 7.071l-7.063 7.063c-1.932 1.932-5.14 1.932-7.071 0s-1.932-5.14 0-7.071l7.063-7.063c1.932-1.932 5.14-1.932 7.071 0zM10.645 3.583l-3.089 3.089 5.304 5.304 3.089-3.089c1.443-1.443 1.443-3.86 0-5.304s-3.86-1.443-5.304 0zM6.672 7.556l-3.089 3.089c-1.443 1.443-1.443 3.86 0 5.304s3.86 1.443 5.304 0l3.089-3.089-5.304-5.304z"></path>
</svg>
