<!-- Generated by IcoMoon.io -->
<svg version="1.1" xmlns="http://www.w3.org/2000/svg" width="32" height="32" viewBox="0 0 32 32">
<title>pill</title>
<path d="M26.932 4.318c3.090 3.091 3.090 8.224 0 11.314l-11.3 11.3c-3.091 3.090-8.224 3.090-11.314 0s-3.091-8.224 0-11.314l11.3-11.3c3.091-3.091 8.224-3.091 11.314 0zM17.032 5.732l-4.943 4.943 8.486 8.486 4.943-4.943c2.309-2.309 2.309-6.176 0-8.486s-6.176-2.309-8.486 0zM10.675 12.089l-4.943 4.943c-2.309 2.309-2.309 6.176 0 8.486s6.176 2.309 8.486 0l4.943-4.943-8.486-8.486z"></path>
</svg>
