<!-- Generated by IcoMoon.io -->
<svg version="1.1" xmlns="http://www.w3.org/2000/svg" width="20" height="20" viewBox="0 0 20 20">
<title>ping-download</title>
<path d="M17.2 0.637h-15.713c-0.173 0-0.339 0.069-0.462 0.191s-0.191 0.289-0.191 0.462c0 0.173 0.069 0.339 0.191 0.462s0.289 0.191 0.462 0.191h15.713c0.087-0.004 0.175 0.009 0.256 0.041s0.156 0.080 0.218 0.141 0.11 0.136 0.141 0.218c0.031 0.082 0.045 0.169 0.041 0.256v14.375c0.004 0.087-0.009 0.175-0.041 0.256s-0.080 0.156-0.141 0.218-0.136 0.11-0.218 0.141c-0.082 0.031-0.169 0.045-0.256 0.041h-14.375c-0.087 0.004-0.175-0.009-0.256-0.041s-0.156-0.080-0.218-0.141c-0.062-0.062-0.11-0.136-0.141-0.218s-0.045-0.169-0.041-0.256v-8.125c-0.004-0.087 0.009-0.175 0.041-0.256s0.080-0.156 0.141-0.218c0.062-0.062 0.136-0.11 0.218-0.141s0.169-0.045 0.256-0.041h6.994l-3.331 3.331c-0.063 0.062-0.112 0.137-0.144 0.219-0.035 0.080-0.054 0.166-0.054 0.253s0.018 0.173 0.054 0.253c0.031 0.083 0.080 0.158 0.144 0.219l3.331 3.331c0.124 0.125 0.293 0.196 0.47 0.196s0.346-0.069 0.471-0.193c0.125-0.124 0.196-0.293 0.196-0.47s-0.069-0.346-0.193-0.471l-2.194-2.2h6.75c0.165-0.016 0.319-0.093 0.431-0.216s0.174-0.283 0.174-0.449-0.062-0.326-0.174-0.449c-0.112-0.123-0.265-0.2-0.431-0.216h-6.775l3.331-3.287c0.061-0.064 0.109-0.138 0.144-0.219 0.035-0.080 0.054-0.166 0.054-0.253s-0.018-0.173-0.054-0.253c-0.034-0.081-0.083-0.155-0.144-0.219l-3.331-3.331c-0.061-0.063-0.134-0.114-0.216-0.148s-0.168-0.052-0.256-0.052-0.175 0.018-0.256 0.052c-0.081 0.034-0.154 0.085-0.216 0.148-0.062 0.061-0.112 0.134-0.146 0.215s-0.051 0.167-0.051 0.254c0 0.087 0.017 0.174 0.051 0.254s0.083 0.153 0.146 0.215l2.194 2.2h-6.994c-0.521 0-1.021 0.207-1.39 0.574s-0.577 0.867-0.579 1.388v8.125c0 0.522 0.207 1.023 0.577 1.392s0.87 0.577 1.392 0.577h14.375c0.522 0 1.023-0.207 1.392-0.577s0.577-0.87 0.577-1.392v-14.375c0-0.522-0.207-1.023-0.577-1.392s-0.87-0.577-1.392-0.577z"></path>
</svg>
