<!-- Generated by IcoMoon.io -->
<svg version="1.1" xmlns="http://www.w3.org/2000/svg" width="20" height="20" viewBox="0 0 20 20">
<title>plane</title>
<path d="M14.6 2.003c0.856-0.941 2.392-1.033 3.342-0.084s0.857 2.486-0.084 3.342l-0.001 0.001-3.038 2.752 2.039 8.578c0.050 0.211-0.013 0.433-0.166 0.587l-1.25 1.25c-0.136 0.136-0.326 0.201-0.516 0.179s-0.36-0.131-0.459-0.295l-3.92-6.42-4.297 3.872v2.222c0 0.253-0.152 0.481-0.386 0.577s-0.502 0.043-0.681-0.136l-3.75-3.75c-0.179-0.179-0.232-0.448-0.135-0.681s0.325-0.386 0.577-0.386h2.222l3.872-4.297-6.42-3.92c-0.164-0.1-0.272-0.269-0.295-0.459s0.043-0.38 0.179-0.516l1.25-1.25c0.153-0.153 0.375-0.216 0.587-0.166l8.578 2.039 2.753-3.039zM15.525 2.843c-0 0-0 0-0 0l-2.999 3.312c-0.153 0.169-0.386 0.241-0.608 0.188l-8.598-2.044-0.442 0.442 6.385 3.899c0.159 0.097 0.266 0.259 0.293 0.443s-0.030 0.37-0.154 0.508l-4.562 5.063c-0.119 0.132-0.287 0.207-0.464 0.207h-0.991l1.616 1.616v-0.991c0-0.177 0.075-0.346 0.207-0.464l5.062-4.563c0.138-0.124 0.324-0.181 0.508-0.154s0.346 0.134 0.443 0.293l3.899 6.385 0.442-0.442-2.044-8.598c-0.053-0.222 0.019-0.455 0.188-0.608l3.312-2.999c0-0 0-0 0.001-0 0.433-0.394 0.466-1.107 0.041-1.533s-1.138-0.393-1.533 0.041z"></path>
</svg>
