<!-- Generated by IcoMoon.io -->
<svg version="1.1" xmlns="http://www.w3.org/2000/svg" width="20" height="20" viewBox="0 0 20 20">
<title>plugin-tag</title>
<path d="M13.819 7.931c-0.004-0.142-0.050-0.28-0.132-0.397s-0.197-0.205-0.33-0.256c-0.133-0.051-0.278-0.061-0.417-0.029s-0.265 0.104-0.362 0.208c-0.098 0.104-0.162 0.234-0.186 0.375s-0.004 0.285 0.054 0.414c0.059 0.13 0.155 0.239 0.276 0.314s0.262 0.113 0.404 0.108c0.19-0.007 0.369-0.088 0.499-0.226s0.2-0.322 0.195-0.512zM5.875 11.681l5-5c0.091-0.092 0.215-0.143 0.344-0.144h2.875c0.129 0 0.253 0.051 0.345 0.143s0.143 0.215 0.143 0.345v2.875c0 0.064-0.012 0.127-0.037 0.187s-0.061 0.113-0.107 0.157l-5 5c-0.093 0.090-0.217 0.14-0.347 0.14s-0.254-0.050-0.347-0.14l-2.869-2.875c-0.046-0.045-0.082-0.098-0.107-0.157s-0.037-0.123-0.037-0.187c0.001-0.129 0.053-0.252 0.144-0.344zM4.419 12.025c0.001 0.233 0.049 0.464 0.14 0.678s0.224 0.409 0.391 0.572l2.869 2.875c0.338 0.336 0.795 0.524 1.272 0.524s0.934-0.188 1.272-0.524l5-5c0.333-0.331 0.522-0.78 0.525-1.25v-2.875c-0.002-0.476-0.192-0.933-0.529-1.269s-0.794-0.525-1.271-0.525h-2.837c-0.469 0.006-0.917 0.194-1.25 0.525l-5 5c-0.335 0.331-0.526 0.78-0.531 1.25l-0.050 0.019zM17.2 0.637h-15.713c-0.174 0-0.341 0.069-0.464 0.192s-0.192 0.29-0.192 0.464c0 0.174 0.069 0.341 0.192 0.464s0.29 0.192 0.464 0.192h15.713c0.087-0.004 0.175 0.009 0.256 0.041s0.156 0.080 0.218 0.141c0.062 0.062 0.11 0.136 0.141 0.218s0.045 0.169 0.041 0.256v14.375c0.004 0.087-0.009 0.175-0.041 0.256s-0.080 0.156-0.141 0.218c-0.062 0.062-0.136 0.11-0.218 0.141s-0.169 0.045-0.256 0.041h-14.375c-0.087 0.004-0.175-0.009-0.256-0.041s-0.156-0.080-0.218-0.141c-0.062-0.062-0.11-0.136-0.141-0.218s-0.045-0.169-0.041-0.256v-11.756c-0-0.085 0.017-0.169 0.050-0.247s0.082-0.148 0.144-0.207c0.061-0.058 0.134-0.104 0.213-0.133s0.164-0.043 0.249-0.038h5.863c0.174 0 0.341-0.069 0.464-0.192s0.192-0.29 0.192-0.464-0.069-0.341-0.192-0.464c-0.123-0.123-0.29-0.192-0.464-0.192h-5.887c-0.517-0-1.013 0.203-1.381 0.566s-0.579 0.855-0.588 1.372v11.781c0 0.522 0.207 1.023 0.577 1.392s0.87 0.577 1.392 0.577h14.375c0.522 0 1.023-0.207 1.392-0.577s0.577-0.87 0.577-1.392v-14.375c0.003-0.259-0.044-0.515-0.14-0.755s-0.238-0.459-0.419-0.644c-0.181-0.185-0.396-0.333-0.633-0.435s-0.493-0.156-0.752-0.159z"></path>
</svg>
