<!-- Generated by IcoMoon.io -->
<svg version="1.1" xmlns="http://www.w3.org/2000/svg" width="32" height="32" viewBox="0 0 32 32">
<title>plugin</title>
<path d="M9.71 15.69v2.1c0.003 0.834 0.336 1.632 0.926 2.221s1.39 0.919 2.224 0.919h6.28c0.833 0 1.631-0.331 2.22-0.92s0.92-1.387 0.92-2.22v-2.1c0.001-0.825-0.161-1.642-0.477-2.404s-0.779-1.454-1.363-2.036c-0.191-0.191-0.45-0.298-0.72-0.298s-0.529 0.107-0.72 0.298c-0.191 0.191-0.298 0.45-0.298 0.72s0.107 0.529 0.298 0.72c0.395 0.392 0.708 0.86 0.919 1.375s0.317 1.068 0.311 1.625v2.1c0 0.136-0.027 0.27-0.081 0.395s-0.131 0.237-0.23 0.331c-0.098 0.093-0.215 0.166-0.342 0.213s-0.263 0.068-0.398 0.061h-6.32c-0.265 0-0.52-0.105-0.707-0.293s-0.293-0.442-0.293-0.707v-2.1c-0-1.103 0.434-2.161 1.21-2.945s1.828-1.232 2.931-1.245c0.14 0.007 0.279-0.015 0.41-0.065s0.249-0.127 0.348-0.226c0.099-0.099 0.176-0.218 0.226-0.348s0.073-0.27 0.065-0.41v-2.090c0-0.835-0.332-1.637-0.923-2.227s-1.392-0.923-2.227-0.923h-9.42c-0.835 0-1.637 0.332-2.227 0.923s-0.923 1.392-0.923 2.227v18.85c0 0.835 0.332 1.637 0.923 2.227s1.392 0.923 2.227 0.923h23c0.835 0 1.637-0.332 2.227-0.923s0.923-1.392 0.923-2.227v-23c0-0.835-0.332-1.637-0.923-2.227s-1.392-0.923-2.227-0.923h-25.1c-0.278 0-0.546 0.111-0.742 0.308s-0.308 0.464-0.308 0.742c0 0.278 0.111 0.546 0.308 0.742s0.464 0.308 0.742 0.308h25.14c0.14-0.007 0.279 0.015 0.41 0.065s0.249 0.127 0.348 0.226c0.099 0.099 0.176 0.218 0.226 0.348s0.073 0.27 0.065 0.41v23c0.007 0.14-0.015 0.279-0.065 0.41s-0.127 0.249-0.226 0.348c-0.099 0.099-0.218 0.176-0.348 0.226s-0.27 0.073-0.41 0.065h-23c-0.14 0.007-0.279-0.015-0.41-0.065s-0.249-0.127-0.348-0.226c-0.099-0.099-0.176-0.218-0.226-0.348s-0.072-0.27-0.065-0.41v-18.85c-0-0.136 0.027-0.27 0.081-0.395s0.132-0.237 0.23-0.331c0.098-0.094 0.214-0.166 0.342-0.213s0.263-0.068 0.398-0.061h9.38c0.265 0 0.52 0.105 0.707 0.293s0.293 0.442 0.293 0.707v1.13c-1.455 0.259-2.772 1.022-3.719 2.156s-1.465 2.566-1.461 4.044h-0.010zM19.14 25.18v-2.21c0-0.265-0.105-0.52-0.293-0.707s-0.442-0.293-0.707-0.293h-0.14c-0.265 0-0.52 0.105-0.707 0.293s-0.293 0.442-0.293 0.707v2.21c0 0.265 0.105 0.52 0.293 0.707s0.442 0.293 0.707 0.293h0.11c0.134 0.004 0.267-0.019 0.392-0.067s0.239-0.122 0.335-0.215c0.096-0.093 0.172-0.205 0.224-0.328s0.079-0.256 0.079-0.39zM13.96 26.18h-0.11c-0.265 0-0.52-0.105-0.707-0.293s-0.293-0.442-0.293-0.707v-2.21c0-0.265 0.105-0.52 0.293-0.707s0.442-0.293 0.707-0.293h0.15c0.265 0 0.52 0.105 0.707 0.293s0.293 0.442 0.293 0.707v2.21c-0.003 0.264-0.109 0.515-0.296 0.701s-0.44 0.289-0.704 0.289l-0.040 0.010z"></path>
</svg>
