<!-- Generated by IcoMoon.io -->
<svg version="1.1" xmlns="http://www.w3.org/2000/svg" width="32" height="32" viewBox="0 0 32 32">
<title>plug-type-two</title>
<path d="M14 9.5c0 0.828-0.672 1.5-1.5 1.5s-1.5-0.672-1.5-1.5c0-0.828 0.672-1.5 1.5-1.5s1.5 0.672 1.5 1.5z"></path>
<path d="M9 12c-1.657 0-3 1.343-3 3s1.343 3 3 3c1.657 0 3-1.343 3-3s-1.343-3-3-3zM8 15c0-0.552 0.448-1 1-1s1 0.448 1 1c0 0.552-0.448 1-1 1s-1-0.448-1-1z"></path>
<path d="M16 12c-1.657 0-3 1.343-3 3s1.343 3 3 3c1.657 0 3-1.343 3-3s-1.343-3-3-3zM15 15c0-0.552 0.448-1 1-1s1 0.448 1 1c0 0.552-0.448 1-1 1s-1-0.448-1-1z"></path>
<path d="M9 22c0-1.657 1.343-3 3-3s3 1.343 3 3c0 1.657-1.343 3-3 3s-3-1.343-3-3zM12 21c-0.552 0-1 0.448-1 1s0.448 1 1 1c0.552 0 1-0.448 1-1s-0.448-1-1-1z"></path>
<path d="M20 19c-1.657 0-3 1.343-3 3s1.343 3 3 3c1.657 0 3-1.343 3-3s-1.343-3-3-3zM19 22c0-0.552 0.448-1 1-1s1 0.448 1 1c0 0.552-0.448 1-1 1s-1-0.448-1-1z"></path>
<path d="M20 15c0-1.657 1.343-3 3-3s3 1.343 3 3c0 1.657-1.343 3-3 3s-3-1.343-3-3zM23 14c-0.552 0-1 0.448-1 1s0.448 1 1 1c0.552 0 1-0.448 1-1s-0.448-1-1-1z"></path>
<path d="M19.5 11c0.828 0 1.5-0.672 1.5-1.5s-0.672-1.5-1.5-1.5c-0.828 0-1.5 0.672-1.5 1.5s0.672 1.5 1.5 1.5z"></path>
<path d="M8.9 4c-1.047 0-2.107 0.393-2.907 1.193l-0.008 0.008-0.007 0.008c-2.464 2.571-4.086 6.123-3.978 10.119l0 0.002c0.215 7.322 6.131 13.347 13.455 13.67l0.004 0c7.972 0.323 14.54-6.035 14.54-13.999 0-3.762-1.503-7.317-3.993-9.807-0.8-0.8-1.86-1.193-2.907-1.193h-14.2zM4 15.272c-0.092-3.4 1.284-6.444 3.414-8.672 0.399-0.396 0.937-0.6 1.486-0.6h14.2c0.553 0 1.093 0.207 1.493 0.607 2.11 2.11 3.407 5.154 3.407 8.393 0 6.835-5.63 12.277-12.458 12.001-6.274-0.278-11.358-5.452-11.543-11.729z"></path>
</svg>
