<!-- Generated by IcoMoon.io -->
<svg version="1.1" xmlns="http://www.w3.org/2000/svg" width="20" height="20" viewBox="0 0 20 20">
<title>plug</title>
<path d="M7.5 6.25c-1.408 0-2.5 1.092-2.5 2.5v6.875c0 0.717-0.533 1.25-1.25 1.25s-1.25-0.533-1.25-1.25v-3.75c0-0.345-0.28-0.625-0.625-0.625s-0.625 0.28-0.625 0.625v3.75c0 1.408 1.092 2.5 2.5 2.5s2.5-1.092 2.5-2.5v-6.875c0-0.717 0.533-1.25 1.25-1.25v1.875c0 1.408 1.092 2.5 2.5 2.5h5c0.345 0 0.625-0.28 0.625-0.625v-1.875h2.5c0.345 0 0.625-0.28 0.625-0.625s-0.28-0.625-0.625-0.625h-2.5v-2.5h2.5c0.345 0 0.625-0.28 0.625-0.625s-0.28-0.625-0.625-0.625h-2.5v-1.875c0-0.345-0.28-0.625-0.625-0.625h-5c-1.408 0-2.5 1.092-2.5 2.5v1.875zM8.75 4.375c0-0.717 0.533-1.25 1.25-1.25h4.375v7.5h-4.375c-0.717 0-1.25-0.533-1.25-1.25v-5z"></path>
</svg>
