<!-- Generated by IcoMoon.io -->
<svg version="1.1" xmlns="http://www.w3.org/2000/svg" width="20" height="20" viewBox="0 0 20 20">
<title>plugin</title>
<path d="M6.069 9.806v1.312c0.002 0.521 0.21 1.020 0.579 1.388s0.869 0.574 1.39 0.574h3.925c0.521 0 1.020-0.207 1.388-0.575s0.575-0.867 0.575-1.388v-1.313c0.001-0.516-0.101-1.026-0.298-1.502s-0.487-0.909-0.852-1.273c-0.119-0.119-0.281-0.186-0.45-0.186s-0.331 0.067-0.45 0.186c-0.119 0.119-0.186 0.281-0.186 0.45s0.067 0.331 0.186 0.45c0.247 0.245 0.442 0.537 0.575 0.859s0.198 0.667 0.194 1.016v1.313c0 0.085-0.017 0.169-0.050 0.247s-0.082 0.148-0.144 0.207c-0.061 0.058-0.134 0.104-0.213 0.133s-0.164 0.043-0.249 0.038h-3.95c-0.166 0-0.325-0.066-0.442-0.183s-0.183-0.276-0.183-0.442v-1.312c-0-0.689 0.272-1.351 0.756-1.841s1.142-0.77 1.832-0.778c0.087 0.004 0.175-0.009 0.256-0.041s0.156-0.080 0.218-0.141c0.062-0.062 0.11-0.136 0.141-0.218s0.045-0.169 0.041-0.256v-1.306c0-0.522-0.207-1.023-0.577-1.392s-0.87-0.577-1.392-0.577h-5.888c-0.522 0-1.023 0.207-1.392 0.577s-0.577 0.87-0.577 1.392v11.781c0 0.522 0.207 1.023 0.577 1.392s0.87 0.577 1.392 0.577h14.375c0.522 0 1.023-0.207 1.392-0.577s0.577-0.87 0.577-1.392v-14.375c0-0.522-0.207-1.023-0.577-1.392s-0.87-0.577-1.392-0.577h-15.688c-0.174 0-0.341 0.069-0.464 0.192s-0.192 0.29-0.192 0.464c0 0.174 0.069 0.341 0.192 0.464s0.29 0.192 0.464 0.192h15.713c0.087-0.004 0.175 0.009 0.256 0.041s0.156 0.080 0.218 0.141c0.062 0.062 0.11 0.136 0.141 0.218s0.045 0.169 0.041 0.256v14.375c0.004 0.087-0.009 0.175-0.041 0.256s-0.080 0.156-0.141 0.218c-0.062 0.062-0.136 0.11-0.218 0.141s-0.169 0.045-0.256 0.041h-14.375c-0.087 0.004-0.175-0.009-0.256-0.041s-0.156-0.080-0.218-0.141c-0.062-0.062-0.11-0.136-0.141-0.218s-0.045-0.169-0.041-0.256v-11.781c-0-0.085 0.017-0.169 0.050-0.247s0.082-0.148 0.144-0.207c0.061-0.058 0.134-0.104 0.213-0.133s0.164-0.043 0.249-0.038h5.862c0.166 0 0.325 0.066 0.442 0.183s0.183 0.276 0.183 0.442v0.706c-0.909 0.162-1.732 0.639-2.325 1.348s-0.915 1.604-0.913 2.527h-0.006zM11.963 15.738v-1.381c0-0.166-0.066-0.325-0.183-0.442s-0.276-0.183-0.442-0.183h-0.088c-0.166 0-0.325 0.066-0.442 0.183s-0.183 0.276-0.183 0.442v1.381c0 0.166 0.066 0.325 0.183 0.442s0.276 0.183 0.442 0.183h0.069c0.084 0.003 0.167-0.012 0.245-0.042s0.149-0.076 0.209-0.134c0.060-0.058 0.108-0.128 0.14-0.205s0.049-0.16 0.049-0.244zM8.725 16.363h-0.069c-0.166 0-0.325-0.066-0.442-0.183s-0.183-0.276-0.183-0.442v-1.381c0-0.166 0.066-0.325 0.183-0.442s0.276-0.183 0.442-0.183h0.094c0.166 0 0.325 0.066 0.442 0.183s0.183 0.276 0.183 0.442v1.381c-0.002 0.165-0.068 0.322-0.185 0.438s-0.275 0.181-0.44 0.181l-0.025 0.006z"></path>
</svg>
