<!-- Generated by IcoMoon.io -->
<svg version="1.1" xmlns="http://www.w3.org/2000/svg" width="20" height="20" viewBox="0 0 20 20">
<title>pod-small</title>
<path d="M9.507 3.237l-5.625 1.534c-0.205 0.056-0.394 0.145-0.563 0.259l-0.030-0.008-0.010 0.036c-0.479 0.345-0.78 0.906-0.78 1.522v6.841c0 0.846 0.566 1.586 1.382 1.809l5.625 1.534c0.323 0.088 0.664 0.088 0.987 0l5.625-1.534c0.816-0.223 1.382-0.963 1.382-1.809v-6.841c0-0.616-0.301-1.177-0.78-1.522l-0.010-0.036-0.030 0.008c-0.168-0.115-0.358-0.203-0.563-0.259l-5.625-1.534c-0.323-0.088-0.664-0.088-0.987 0zM10.164 4.443l4.335 1.182-4.5 1.227-4.5-1.227 4.335-1.182c0.108-0.029 0.221-0.029 0.329 0zM3.75 6.58c0-0.045 0.005-0.090 0.014-0.133l5.611 1.53v7.454l-5.164-1.408c-0.272-0.074-0.461-0.321-0.461-0.603v-6.841zM10.625 15.432v-7.454l5.611-1.53c0.009 0.043 0.014 0.087 0.014 0.133v6.841c0 0.282-0.189 0.529-0.461 0.603l-5.164 1.408z"></path>
</svg>
