<!-- Generated by IcoMoon.io -->
<svg version="1.1" xmlns="http://www.w3.org/2000/svg" width="20" height="20" viewBox="0 0 20 20">
<title>pod-cycle</title>
<path d="M4.692 4.692c2.943-2.943 7.673-2.943 10.616 0l0.683 0.683h-0.679c-0.345 0-0.625 0.28-0.625 0.625s0.28 0.625 0.625 0.625h2.179c0.006 0 0.012 0 0.017 0h0.616v-2.875c0-0.345-0.28-0.625-0.625-0.625s-0.625 0.28-0.625 0.625v0.741l-0.683-0.683c-3.432-3.432-8.952-3.432-12.384 0s-3.432 8.952 0 12.384c3.432 3.432 8.952 3.432 12.384 0 1.816-1.816 2.692-4.24 2.557-6.664-0.019-0.345-0.314-0.608-0.659-0.589s-0.608 0.314-0.589 0.659c0.115 2.076-0.633 4.152-2.193 5.711-2.943 2.943-7.673 2.943-10.616 0s-2.943-7.673 0-10.616z"></path>
<path d="M5.807 6.277c0.166-0.115 0.352-0.204 0.553-0.262l3.125-0.893c0.337-0.096 0.694-0.096 1.030 0l3.125 0.893c0.202 0.058 0.388 0.147 0.553 0.262l0.010-0.003 0.003 0.012c0.487 0.344 0.793 0.91 0.793 1.532v3.739c0 0.837-0.555 1.573-1.36 1.803l-3.125 0.893c-0.337 0.096-0.694 0.096-1.030 0l-3.125-0.893c-0.805-0.23-1.36-0.966-1.36-1.803v-3.739c0-0.622 0.306-1.187 0.793-1.532l0.003-0.012 0.010 0.003zM7.9 6.875l2.1 0.6 2.1-0.6-1.928-0.551c-0.112-0.032-0.231-0.032-0.343 0l-1.928 0.551zM13.74 7.707l-3.115 0.89v4.325l2.672-0.763c0.268-0.077 0.453-0.322 0.453-0.601v-3.739c0-0.038-0.003-0.075-0.010-0.111zM9.375 12.921v-4.325l-3.115-0.89c-0.007 0.036-0.010 0.074-0.010 0.111v3.739c0 0.279 0.185 0.524 0.453 0.601l2.672 0.763z"></path>
</svg>
