<!-- Generated by IcoMoon.io -->
<svg version="1.1" xmlns="http://www.w3.org/2000/svg" width="20" height="20" viewBox="0 0 20 20">
<title>pod-memory</title>
<path d="M6.25 9.375h1.25v1.875h-1.25v-1.875z"></path>
<path d="M9.375 9.375h-1.25v1.875h1.25v-1.875z"></path>
<path d="M10 9.375h1.25v1.875h-1.25v-1.875z"></path>
<path d="M13.125 9.375h-1.25v1.875h1.25v-1.875z"></path>
<path d="M3.75 8.125v4.375c0 0.69 0.56 1.25 1.25 1.25h10c0.69 0 1.25-0.56 1.25-1.25v-4.375c0-0.69-0.56-1.25-1.25-1.25h-10c-0.69 0-1.25 0.56-1.25 1.25zM5 10.625c0.345 0 0.625-0.28 0.625-0.625s-0.28-0.625-0.625-0.625v-1.25h10v1.25c-0.345 0-0.625 0.28-0.625 0.625s0.28 0.625 0.625 0.625v1.875h-0.625c0-0.345-0.28-0.625-0.625-0.625s-0.625 0.28-0.625 0.625h-0.625c0-0.345-0.28-0.625-0.625-0.625s-0.625 0.28-0.625 0.625h-0.625c0-0.345-0.28-0.625-0.625-0.625s-0.625 0.28-0.625 0.625h-0.625c0-0.345-0.28-0.625-0.625-0.625s-0.625 0.28-0.625 0.625h-0.625c0-0.345-0.28-0.625-0.625-0.625s-0.625 0.28-0.625 0.625h-0.625v-1.875z"></path>
<path d="M10.551 2.016l6.875 2.115c0.787 0.242 1.324 0.969 1.324 1.792v8.154c0 0.823-0.537 1.55-1.324 1.792l-6.875 2.115c-0.078 0.024-0.158 0.043-0.238 0.057-0.092 0.054-0.199 0.084-0.314 0.084s-0.221-0.031-0.314-0.084c-0.080-0.014-0.16-0.032-0.238-0.057l-6.875-2.115c-0.787-0.242-1.324-0.969-1.324-1.792v-8.154c0-0.823 0.537-1.55 1.324-1.792l6.875-2.115c0.359-0.111 0.744-0.111 1.103 0zM10.625 16.654l6.434-1.98c0.262-0.081 0.441-0.323 0.441-0.597v-8.154c0-0.087-0.018-0.171-0.051-0.247l-1.626 0.542c-0.327 0.109-0.681-0.068-0.791-0.395s0.068-0.681 0.395-0.791l0.325-0.108-5.568-1.713c-0.12-0.037-0.248-0.037-0.368 0l-5.568 1.713 0.325 0.108c0.327 0.109 0.504 0.463 0.395 0.791s-0.463 0.504-0.791 0.395l-1.626-0.542c-0.033 0.076-0.051 0.16-0.051 0.247v8.154c0 0.274 0.179 0.517 0.441 0.597l6.434 1.98v-1.654c0-0.345 0.28-0.625 0.625-0.625s0.625 0.28 0.625 0.625v1.654z"></path>
</svg>
