<!-- Generated by IcoMoon.io -->
<svg version="1.1" xmlns="http://www.w3.org/2000/svg" width="20" height="20" viewBox="0 0 20 20">
<title>pod-up</title>
<path d="M10.551 2.016l6.875 2.115c0.787 0.242 1.324 0.969 1.324 1.792v3.452c0 0.345-0.28 0.625-0.625 0.625s-0.625-0.28-0.625-0.625v-3.452c0-0.026-0.002-0.051-0.005-0.076l-6.87 2.114v2.038c0 0.345-0.28 0.625-0.625 0.625s-0.625-0.28-0.625-0.625v-2.038l-6.87-2.114c-0.003 0.025-0.005 0.050-0.005 0.076v8.163c0 0.272 0.176 0.513 0.436 0.596l6.004 1.91c0.329 0.105 0.511 0.456 0.406 0.785s-0.456 0.511-0.785 0.406l-6.004-1.91c-0.778-0.248-1.306-0.97-1.306-1.787v-8.163c0-0.823 0.537-1.55 1.324-1.792l6.875-2.115c0.359-0.111 0.744-0.111 1.103 0zM16 5l-5.816-1.79c-0.12-0.037-0.248-0.037-0.368 0l-5.816 1.79 6 1.846 6-1.846z"></path>
<path d="M14.375 11.616l2.317 2.317c0.244 0.244 0.244 0.64 0 0.884s-0.64 0.244-0.884 0l-0.808-0.808v2.241c0 0.345-0.28 0.625-0.625 0.625s-0.625-0.28-0.625-0.625v-2.241l-0.808 0.808c-0.244 0.244-0.64 0.244-0.884 0s-0.244-0.64 0-0.884l2.317-2.317z"></path>
<path d="M14.375 9.375c-2.761 0-5 2.239-5 5s2.239 5 5 5c2.761 0 5-2.239 5-5s-2.239-5-5-5zM10.625 14.375c0-2.071 1.679-3.75 3.75-3.75s3.75 1.679 3.75 3.75c0 2.071-1.679 3.75-3.75 3.75s-3.75-1.679-3.75-3.75z"></path>
</svg>
