<!-- Generated by IcoMoon.io -->
<svg version="1.1" xmlns="http://www.w3.org/2000/svg" width="20" height="20" viewBox="0 0 20 20">
<title>pod-time</title>
<path d="M9.449 2.016l-6.875 2.115c-0.787 0.242-1.324 0.969-1.324 1.792v8.163c0 0.817 0.528 1.539 1.306 1.787l6.004 1.91c0.329 0.105 0.68-0.077 0.785-0.406s-0.077-0.68-0.406-0.785l-6.004-1.91c-0.259-0.083-0.436-0.323-0.436-0.596v-8.163c0-0.026 0.002-0.051 0.005-0.076l6.87 2.114v2.038c0 0.345 0.28 0.625 0.625 0.625s0.625-0.28 0.625-0.625v-2.038l6.87-2.114c0.003 0.025 0.005 0.050 0.005 0.076v3.452c0 0.345 0.28 0.625 0.625 0.625s0.625-0.28 0.625-0.625v-3.452c0-0.823-0.537-1.55-1.324-1.792l-6.875-2.115c-0.359-0.111-0.744-0.111-1.103 0zM10.184 3.21l5.816 1.79-6 1.846-6-1.846 5.816-1.79c0.12-0.037 0.248-0.037 0.368 0z"></path>
<path d="M15 12.5c0-0.345-0.28-0.625-0.625-0.625s-0.625 0.28-0.625 0.625v2.759l1.433 1.433c0.244 0.244 0.64 0.244 0.884 0s0.244-0.64 0-0.884l-1.067-1.067v-2.241z"></path>
<path d="M9.375 14.375c0-2.761 2.239-5 5-5s5 2.239 5 5c0 2.761-2.239 5-5 5s-5-2.239-5-5zM14.375 10.625c-2.071 0-3.75 1.679-3.75 3.75s1.679 3.75 3.75 3.75c2.071 0 3.75-1.679 3.75-3.75s-1.679-3.75-3.75-3.75z"></path>
</svg>
