<!-- Generated by IcoMoon.io -->
<svg version="1.1" xmlns="http://www.w3.org/2000/svg" width="20" height="20" viewBox="0 0 20 20">
<title>pod-network</title>
<path d="M10.493 1.362l5.625 1.534c0.205 0.056 0.394 0.145 0.562 0.259l0.030-0.008 0.010 0.036c0.479 0.345 0.78 0.906 0.78 1.522v6.841c0 0.846-0.566 1.586-1.382 1.809l-5.493 1.498v1.565c0.19 0.11 0.348 0.268 0.458 0.458h3.292c0.345 0 0.625 0.28 0.625 0.625s-0.28 0.625-0.625 0.625h-3.292c-0.216 0.374-0.62 0.625-1.083 0.625s-0.867-0.251-1.083-0.625h-3.917c-0.345 0-0.625-0.28-0.625-0.625s0.28-0.625 0.625-0.625h3.917c0.11-0.19 0.268-0.348 0.458-0.458v-1.565l-5.493-1.498c-0.816-0.223-1.382-0.963-1.382-1.809v-6.841c0-0.616 0.301-1.177 0.78-1.522l0.010-0.036 0.030 0.008c0.168-0.115 0.358-0.203 0.563-0.259l5.625-1.534c0.323-0.088 0.664-0.088 0.987 0zM14.5 3.75l-4.335-1.182c-0.108-0.029-0.221-0.029-0.329 0l-4.335 1.182 4.5 1.227 4.5-1.227zM3.764 4.572c-0.009 0.043-0.014 0.087-0.014 0.133v6.841c0 0.282 0.189 0.529 0.461 0.603l5.164 1.408v-7.454l-5.611-1.53zM15.789 12.148c0.272-0.074 0.461-0.321 0.461-0.603v-6.841c0-0.045-0.005-0.090-0.014-0.133l-5.611 1.53v7.454l5.164-1.408z"></path>
</svg>
