<!-- Generated by IcoMoon.io -->
<svg version="1.1" xmlns="http://www.w3.org/2000/svg" width="20" height="20" viewBox="0 0 20 20">
<title>pod-php</title>
<path d="M3.75 7.5h1.875c1.036 0 1.875 0.839 1.875 1.875s-0.839 1.875-1.875 1.875h-0.625v1.25h-1.25v-5zM5 10h0.625c0.345 0 0.625-0.28 0.625-0.625s-0.28-0.625-0.625-0.625h-0.625v1.25z"></path>
<path d="M14.375 7.5h-1.875v5h1.25v-1.25h0.625c1.036 0 1.875-0.839 1.875-1.875s-0.839-1.875-1.875-1.875zM14.375 10h-0.625v-1.25h0.625c0.345 0 0.625 0.28 0.625 0.625s-0.28 0.625-0.625 0.625z"></path>
<path d="M8.125 7.5h1.25v1.875h1.25v-1.875h1.25v5h-1.25v-1.875h-1.25v1.875h-1.25v-5z"></path>
<path d="M9.449 2.016l-6.875 2.115c-0.787 0.242-1.324 0.969-1.324 1.792v8.154c0 0.823 0.537 1.55 1.324 1.792l6.875 2.115c0.078 0.024 0.158 0.043 0.238 0.057 0.092 0.054 0.199 0.084 0.314 0.084s0.221-0.031 0.314-0.084c0.080-0.014 0.16-0.032 0.238-0.057l6.875-2.115c0.787-0.242 1.324-0.969 1.324-1.792v-8.154c0-0.823-0.537-1.55-1.324-1.792l-6.875-2.115c-0.359-0.111-0.744-0.111-1.103 0zM10.625 16.654v-1.654c0-0.345-0.28-0.625-0.625-0.625s-0.625 0.28-0.625 0.625v1.654l-6.434-1.98c-0.262-0.081-0.441-0.323-0.441-0.597v-8.154c0-0.087 0.018-0.171 0.051-0.247l1.626 0.542c0.327 0.109 0.681-0.068 0.791-0.395s-0.068-0.681-0.395-0.791l-0.325-0.108 5.568-1.713c0.12-0.037 0.248-0.037 0.368 0l5.568 1.713-0.325 0.108c-0.328 0.109-0.504 0.463-0.395 0.791s0.463 0.504 0.791 0.395l1.626-0.542c0.033 0.076 0.051 0.16 0.051 0.247v8.154c0 0.274-0.179 0.517-0.441 0.597l-6.434 1.98z"></path>
</svg>
