<!-- Generated by IcoMoon.io -->
<svg version="1.1" xmlns="http://www.w3.org/2000/svg" width="20" height="20" viewBox="0 0 20 20">
<title>pod</title>
<path d="M9.449 2.016c0.359-0.111 0.744-0.111 1.103 0l6.875 2.115c0.787 0.242 1.324 0.969 1.324 1.792v8.154c0 0.823-0.537 1.55-1.324 1.792l-6.875 2.115c-0.359 0.111-0.744 0.111-1.103 0l-6.875-2.115c-0.787-0.242-1.324-0.969-1.324-1.792v-8.154c0-0.823 0.537-1.55 1.324-1.792l6.875-2.115zM10.184 3.21c-0.12-0.037-0.248-0.037-0.368 0l-5.816 1.79 6 1.846 6-1.846-5.816-1.79zM2.5 5.923v8.154c0 0.274 0.179 0.517 0.441 0.597l6.434 1.98v-8.692l-6.87-2.114c-0.003 0.025-0.005 0.050-0.005 0.076zM10.625 16.654l6.434-1.98c0.262-0.081 0.441-0.323 0.441-0.597v-8.154c0-0.026-0.002-0.051-0.005-0.076l-6.87 2.114v8.692z"></path>
</svg>
