<!-- Generated by IcoMoon.io -->
<svg version="1.1" xmlns="http://www.w3.org/2000/svg" width="20" height="20" viewBox="0 0 20 20">
<title>pods</title>
<path d="M9.485 1.997l-3.125 0.893c-0.202 0.058-0.388 0.147-0.553 0.262l-0.010-0.003-0.003 0.012c-0.487 0.344-0.793 0.91-0.793 1.532v4.211l-3.015 0.862c-0.202 0.058-0.388 0.147-0.553 0.262l-0.010-0.003-0.003 0.012c-0.487 0.344-0.793 0.91-0.793 1.532v3.739c0 0.837 0.555 1.573 1.36 1.803l3.125 0.893c0.337 0.096 0.694 0.096 1.030 0l3.86-1.103 3.86 1.103c0.337 0.096 0.694 0.096 1.030 0l3.125-0.893c0.805-0.23 1.36-0.966 1.36-1.803v-3.739c0-0.622-0.306-1.187-0.793-1.532l-0.003-0.012-0.010 0.003c-0.166-0.115-0.352-0.204-0.553-0.262l-3.015-0.862v-4.211c0-0.622-0.306-1.187-0.793-1.532l-0.003-0.012-0.010 0.003c-0.166-0.115-0.352-0.204-0.553-0.262l-3.125-0.893c-0.337-0.096-0.694-0.096-1.030 0zM10.172 3.199l1.928 0.551-2.1 0.6-2.1-0.6 1.928-0.551c0.112-0.032 0.231-0.032 0.343 0zM6.25 4.693c0-0.038 0.003-0.075 0.010-0.111l3.115 0.89v4.325l-3.125-0.893v-4.211zM3.525 10.625l2.1-0.6 2.1 0.6-2.1 0.6-2.1-0.6zM1.875 11.568c0-0.038 0.003-0.075 0.010-0.111l3.115 0.89v4.325l-2.672-0.763c-0.268-0.077-0.453-0.322-0.453-0.601v-3.739zM9.375 15.779l-3.125 0.893v-4.325l3.125-0.893v4.325zM13.75 16.671l-3.125-0.893v-4.325l3.125 0.893v4.325zM17.672 15.908l-2.672 0.763v-4.325l3.115-0.89c0.007 0.036 0.010 0.074 0.010 0.111v3.739c0 0.279-0.185 0.524-0.453 0.601zM14.375 10.025l2.1 0.6-2.1 0.6-2.1-0.6 2.1-0.6zM13.75 8.904l-3.125 0.893v-4.325l3.115-0.89c0.007 0.036 0.010 0.074 0.010 0.111v4.211z"></path>
</svg>
