<!-- Generated by IcoMoon.io -->
<svg version="1.1" xmlns="http://www.w3.org/2000/svg" width="32" height="32" viewBox="0 0 32 32">
<title>point-e</title>
<path d="M24.801 19l-1.326 5.925c-0.402 1.744-1.999 3.075-3.874 3.075h-14.6c-1.652 0-3-1.348-3-3v-8c0-1.652 1.348-3 3-3h4.182l4.044-8.086c0.663-1.193 1.784-1.914 3.174-1.914 1.952 0 3.5 1.548 3.5 3.5v3.5h6.1c2.252 0 4 1.748 4 4s-1.748 4-4 4h-1.199zM14.984 6.868l-4.184 8.368v10.764h8.8c0.924 0 1.726-0.668 1.925-1.522l1.226-5.478h-2.751c-0.552 0-1-0.448-1-1s0.448-1 1-1h3.977c0.015-0 0.029-0 0.044 0h1.979c1.148 0 2-0.852 2-2s-0.852-2-2-2h-8.1v-5.5c0-0.848-0.652-1.5-1.5-1.5-0.604 0-1.079 0.273-1.416 0.868zM5 16c-0.548 0-1 0.452-1 1v8c0 0.548 0.452 1 1 1h3.8v-10h-3.8z"></path>
</svg>
