<!-- Generated by IcoMoon.io -->
<svg version="1.1" xmlns="http://www.w3.org/2000/svg" width="20" height="20" viewBox="0 0 20 20">
<title>point-w</title>
<path d="M7.563 4.688v2.188h-3.813c-1.408 0-2.5 1.092-2.5 2.5s1.092 2.5 2.5 2.5h0.749l0.829 3.703c0.252 1.090 1.249 1.922 2.421 1.922h9.125c1.033 0 1.875-0.842 1.875-1.875v-5c0-1.033-0.842-1.875-1.875-1.875h-2.614l-2.527-5.054c-0.414-0.745-1.115-1.196-1.984-1.196-1.22 0-2.188 0.967-2.188 2.188zM5.014 10.625c-0.009-0-0.018-0-0.028 0h-1.237c-0.717 0-1.25-0.533-1.25-1.25s0.533-1.25 1.25-1.25h5.063v-3.438c0-0.53 0.408-0.938 0.938-0.938 0.377 0 0.675 0.171 0.885 0.543l2.615 5.23v6.727h-5.5c-0.577 0-1.079-0.417-1.203-0.951l-0.767-3.424h1.72c0.345 0 0.625-0.28 0.625-0.625s-0.28-0.625-0.625-0.625h-2.486zM14.5 10h2.375c0.342 0 0.625 0.283 0.625 0.625v5c0 0.342-0.283 0.625-0.625 0.625h-2.375v-6.25z"></path>
</svg>
