<!-- Generated by IcoMoon.io -->
<svg version="1.1" xmlns="http://www.w3.org/2000/svg" width="32" height="32" viewBox="0 0 32 32">
<title>point-w</title>
<path d="M12.1 7.5v3.5h-6.1c-2.252 0-4 1.748-4 4s1.748 4 4 4h1.199l1.326 5.925c0.402 1.744 1.999 3.075 3.874 3.075h14.6c1.652 0 3-1.348 3-3v-8c0-1.652-1.348-3-3-3h-4.182l-4.044-8.086c-0.663-1.193-1.784-1.914-3.174-1.914-1.952 0-3.5 1.548-3.5 3.5zM8.023 17c-0.015-0-0.029-0-0.044 0h-1.979c-1.148 0-2-0.852-2-2s0.852-2 2-2h8.1v-5.5c0-0.848 0.652-1.5 1.5-1.5 0.604 0 1.079 0.273 1.416 0.868l4.184 8.368v10.764h-8.8c-0.924 0-1.726-0.668-1.925-1.522l-1.226-5.478h2.751c0.552 0 1-0.448 1-1s-0.448-1-1-1h-3.977zM23.2 16h3.8c0.548 0 1 0.452 1 1v8c0 0.548-0.452 1-1 1h-3.8v-10z"></path>
</svg>
