<!-- Generated by IcoMoon.io -->
<svg version="1.1" xmlns="http://www.w3.org/2000/svg" width="20" height="20" viewBox="0 0 20 20">
<title>point-e</title>
<path d="M15.501 11.875l-0.829 3.703c-0.252 1.090-1.249 1.922-2.422 1.922h-9.125c-1.033 0-1.875-0.842-1.875-1.875v-5c0-1.033 0.842-1.875 1.875-1.875h2.614l2.527-5.054c0.414-0.745 1.115-1.196 1.984-1.196 1.22 0 2.188 0.967 2.188 2.188v2.188h3.812c1.408 0 2.5 1.092 2.5 2.5s-1.092 2.5-2.5 2.5h-0.749zM9.365 4.293l-2.615 5.23v6.727h5.5c0.577 0 1.079-0.417 1.203-0.951l0.767-3.424h-1.72c-0.345 0-0.625-0.28-0.625-0.625s0.28-0.625 0.625-0.625h2.486c0.009-0 0.018-0 0.028 0h1.237c0.717 0 1.25-0.533 1.25-1.25s-0.533-1.25-1.25-1.25h-5.063v-3.438c0-0.53-0.408-0.938-0.938-0.938-0.377 0-0.675 0.171-0.885 0.543zM3.125 10c-0.342 0-0.625 0.283-0.625 0.625v5c0 0.342 0.283 0.625 0.625 0.625h2.375v-6.25h-2.375z"></path>
</svg>
