<!-- Generated by IcoMoon.io -->
<svg version="1.1" xmlns="http://www.w3.org/2000/svg" width="20" height="20" viewBox="0 0 20 20">
<title>police</title>
<path d="M10 4.375c-0.863 0-1.563 0.7-1.563 1.563s0.7 1.563 1.563 1.563c0.863 0 1.563-0.7 1.563-1.563s-0.7-1.563-1.563-1.563zM9.688 5.938c0-0.173 0.14-0.313 0.313-0.313s0.313 0.14 0.313 0.313c0 0.173-0.14 0.313-0.313 0.313s-0.313-0.14-0.313-0.313z"></path>
<path d="M7.146 1.875h5.708l0.183 0.305c0.002 0.003 0.006 0.010 0.012 0.018 0.011 0.018 0.030 0.046 0.055 0.083 0.051 0.074 0.13 0.184 0.236 0.317 0.214 0.267 0.537 0.626 0.967 0.985 0.86 0.716 2.129 1.418 3.819 1.418h0.625v1.25c0 1.655-1.033 3.036-2.5 3.543v2.082h1.25v0.625c0 1.624-0.905 3.044-2.264 4.036s-3.211 1.589-5.236 1.589-3.875-0.597-5.236-1.589c-1.359-0.992-2.264-2.413-2.264-4.036v-0.625h1.25v-2.082c-1.467-0.507-2.5-1.887-2.5-3.543v-1.25h0.625c1.69 0 2.959-0.701 3.819-1.418 0.43-0.358 0.753-0.717 0.967-0.985 0.107-0.133 0.186-0.243 0.236-0.317 0.025-0.037 0.044-0.065 0.055-0.083 0.006-0.009 0.009-0.015 0.012-0.018l0.001-0.002 0.182-0.303zM5 10v1.875h10v-1.875h-10zM3.815 13.125c0.187 0.896 0.772 1.734 1.686 2.401 1.124 0.82 2.711 1.349 4.499 1.349s3.375-0.528 4.499-1.349c0.915-0.667 1.5-1.506 1.686-2.401h-12.371zM7.83 3.125c-0.054 0.074-0.119 0.16-0.194 0.254-0.255 0.319-0.635 0.741-1.143 1.164-0.91 0.758-2.244 1.529-3.994 1.681v0.027c0 1.405 1.095 2.5 2.5 2.5h10c1.405 0 2.5-1.095 2.5-2.5v-0.027c-1.75-0.152-3.084-0.922-3.994-1.681-0.507-0.423-0.888-0.845-1.143-1.164-0.075-0.094-0.14-0.18-0.194-0.254h-4.339z"></path>
</svg>
