<!-- Generated by IcoMoon.io -->
<svg version="1.1" xmlns="http://www.w3.org/2000/svg" width="32" height="32" viewBox="0 0 32 32">
<title>police</title>
<path d="M16 7c-1.381 0-2.5 1.119-2.5 2.5s1.119 2.5 2.5 2.5c1.381 0 2.5-1.119 2.5-2.5s-1.119-2.5-2.5-2.5zM15.5 9.5c0-0.276 0.224-0.5 0.5-0.5s0.5 0.224 0.5 0.5c0 0.276-0.224 0.5-0.5 0.5s-0.5-0.224-0.5-0.5z"></path>
<path d="M11.434 3h9.132l0.293 0.488c0.003 0.005 0.009 0.015 0.018 0.029 0.018 0.028 0.047 0.073 0.088 0.132 0.081 0.119 0.207 0.294 0.378 0.507 0.342 0.428 0.858 1.002 1.547 1.575 1.375 1.146 3.407 2.268 6.11 2.268h1v2c0 2.649-1.653 4.857-4 5.668v3.332h2v1c0 2.598-1.448 4.871-3.623 6.458-2.176 1.588-5.138 2.542-8.377 2.542s-6.201-0.954-8.377-2.542c-2.175-1.587-3.623-3.86-3.623-6.458v-1h2v-3.332c-2.347-0.811-4-3.019-4-5.668v-2h1c2.703 0 4.734-1.122 6.11-2.268 0.688-0.574 1.205-1.147 1.547-1.575 0.171-0.213 0.297-0.389 0.378-0.507 0.041-0.059 0.070-0.104 0.088-0.132 0.009-0.014 0.015-0.024 0.018-0.029l0.002-0.003 0.291-0.485zM8 16v3h16v-3h-16zM6.104 21c0.299 1.433 1.235 2.774 2.698 3.842 1.799 1.312 4.337 2.158 7.198 2.158s5.399-0.846 7.198-2.158c1.464-1.068 2.4-2.409 2.698-3.842h-19.793zM12.529 5c-0.086 0.119-0.19 0.255-0.31 0.406-0.408 0.51-1.017 1.186-1.828 1.862-1.456 1.213-3.59 2.446-6.39 2.689v0.043c0 2.248 1.752 4 4 4h16c2.248 0 4-1.752 4-4v-0.043c-2.8-0.243-4.934-1.475-6.39-2.689-0.812-0.676-1.42-1.353-1.828-1.862-0.12-0.151-0.224-0.287-0.31-0.406h-6.943z"></path>
</svg>
