<!-- Generated by IcoMoon.io -->
<svg version="1.1" xmlns="http://www.w3.org/2000/svg" width="20" height="20" viewBox="0 0 20 20">
<title>power-plug</title>
<path d="M6.875 11.187c0.518 0 0.938-0.42 0.938-0.938s-0.42-0.938-0.938-0.938c-0.518 0-0.938 0.42-0.938 0.938s0.42 0.938 0.938 0.938z"></path>
<path d="M13.75 11.187c0.518 0 0.938-0.42 0.938-0.938s-0.42-0.938-0.938-0.938c-0.518 0-0.938 0.42-0.938 0.938s0.42 0.938 0.938 0.938z"></path>
<path d="M8.125 2.5c0-0.2-0.096-0.388-0.258-0.506s-0.371-0.15-0.561-0.088c-3.498 1.143-6.056 4.439-6.056 8.344s2.558 7.201 6.056 8.344c0.19 0.062 0.399 0.029 0.561-0.088s0.258-0.306 0.258-0.506v-0.25c0-0.717 0.533-1.25 1.25-1.25h1.25c0.717 0 1.25 0.533 1.25 1.25v0.25c0 0.2 0.096 0.388 0.258 0.506s0.371 0.15 0.561 0.088c3.498-1.143 6.056-4.439 6.056-8.344s-2.558-7.201-6.056-8.344c-0.19-0.062-0.399-0.029-0.561 0.088s-0.258 0.306-0.258 0.506v0.25c0 0.717-0.533 1.25-1.25 1.25h-1.25c-0.717 0-1.25-0.533-1.25-1.25v-0.25zM2.5 10.25c0-3.062 1.837-5.693 4.452-6.868 0.271 1.090 1.235 1.868 2.423 1.868h1.25c1.188 0 2.152-0.779 2.423-1.868 2.614 1.176 4.452 3.806 4.452 6.868s-1.837 5.693-4.452 6.868c-0.271-1.090-1.235-1.868-2.423-1.868h-1.25c-1.189 0-2.152 0.779-2.423 1.868-2.614-1.176-4.452-3.806-4.452-6.868z"></path>
</svg>
