<!-- Generated by IcoMoon.io -->
<svg version="1.1" xmlns="http://www.w3.org/2000/svg" width="32" height="32" viewBox="0 0 32 32">
<title>power</title>
<path d="M17 2.69c0-0.552-0.448-1-1-1s-1 0.448-1 1v13c0 0.552 0.448 1 1 1s1-0.448 1-1v-13z"></path>
<path d="M11.392 4.61c0.508-0.216 0.745-0.804 0.529-1.312s-0.804-0.745-1.312-0.529c-5.049 2.149-8.608 7.098-8.608 12.92 0 7.752 6.248 14 14 14s14-6.248 14-14c0-5.822-3.559-10.772-8.608-12.92-0.508-0.216-1.096 0.020-1.312 0.529s0.020 1.095 0.529 1.312c4.351 1.851 7.392 6.102 7.392 11.080 0 6.648-5.352 12-12 12s-12-5.352-12-12c0-4.978 3.041-9.228 7.392-11.080z"></path>
</svg>
