<!-- Generated by IcoMoon.io -->
<svg version="1.1" xmlns="http://www.w3.org/2000/svg" width="20" height="20" viewBox="0 0 20 20">
<title>power</title>
<path d="M10.625 1.681c0-0.345-0.28-0.625-0.625-0.625s-0.625 0.28-0.625 0.625v8.125c0 0.345 0.28 0.625 0.625 0.625s0.625-0.28 0.625-0.625v-8.125z"></path>
<path d="M7.12 2.881c0.318-0.135 0.466-0.502 0.33-0.82s-0.502-0.466-0.82-0.33c-3.156 1.343-5.38 4.436-5.38 8.075 0 4.845 3.905 8.75 8.75 8.75s8.75-3.905 8.75-8.75c0-3.639-2.225-6.732-5.38-8.075-0.318-0.135-0.685 0.013-0.82 0.33s0.013 0.685 0.33 0.82c2.719 1.157 4.62 3.814 4.62 6.925 0 4.155-3.345 7.5-7.5 7.5s-7.5-3.345-7.5-7.5c0-3.111 1.9-5.768 4.62-6.925z"></path>
</svg>
