<!-- Generated by IcoMoon.io -->
<svg version="1.1" xmlns="http://www.w3.org/2000/svg" width="32" height="32" viewBox="0 0 32 32">
<title>power-plug</title>
<path d="M11 17.9c0.828 0 1.5-0.672 1.5-1.5s-0.672-1.5-1.5-1.5c-0.828 0-1.5 0.672-1.5 1.5s0.672 1.5 1.5 1.5z"></path>
<path d="M22 17.9c0.828 0 1.5-0.672 1.5-1.5s-0.672-1.5-1.5-1.5c-0.828 0-1.5 0.672-1.5 1.5s0.672 1.5 1.5 1.5z"></path>
<path d="M13 4c0-0.32-0.153-0.621-0.413-0.81s-0.593-0.241-0.898-0.141c-5.596 1.829-9.689 7.102-9.689 13.35s4.093 11.521 9.689 13.351c0.304 0.1 0.638 0.047 0.898-0.141s0.413-0.489 0.413-0.81v-0.4c0-1.148 0.852-2 2-2h2c1.148 0 2 0.852 2 2v0.4c0 0.32 0.154 0.621 0.413 0.81s0.593 0.241 0.898 0.141c5.596-1.829 9.689-7.102 9.689-13.351s-4.093-11.521-9.689-13.351c-0.305-0.1-0.638-0.047-0.898 0.141s-0.413 0.489-0.413 0.81v0.4c0 1.148-0.852 2-2 2h-2c-1.148 0-2-0.852-2-2v-0.4zM4 16.4c0-4.9 2.939-9.108 7.122-10.989 0.434 1.744 1.976 2.989 3.878 2.989h2c1.902 0 3.444-1.246 3.878-2.989 4.183 1.881 7.122 6.090 7.122 10.989s-2.939 9.108-7.122 10.989c-0.434-1.744-1.976-2.989-3.878-2.989h-2c-1.902 0-3.444 1.246-3.878 2.989-4.183-1.881-7.122-6.090-7.122-10.989z"></path>
</svg>
