<!-- Generated by IcoMoon.io -->
<svg version="1.1" xmlns="http://www.w3.org/2000/svg" width="20" height="20" viewBox="0 0 20 20">
<title>presslabs-mysql-operator</title>
<path d="M7.294 15.987c-1.183-0.069-2.355-0.258-3.5-0.562-1.056-0.306-1.294-0.619-1.356-0.619v-2.3c0.112 0.056 0.238 0.106 0.369 0.156 1.069 0.374 2.179 0.615 3.306 0.719h0.075c0.166 0.009 0.328-0.048 0.452-0.159s0.198-0.266 0.207-0.432-0.048-0.328-0.159-0.452c-0.111-0.124-0.266-0.198-0.432-0.207-0.944-0.091-1.876-0.279-2.781-0.563-0.385-0.076-0.743-0.253-1.038-0.512v-2.3c0.243 0.114 0.494 0.212 0.75 0.294 1.339 0.389 2.72 0.619 4.112 0.688h0.044c0.166 0.005 0.327-0.056 0.447-0.17s0.191-0.271 0.196-0.436c0.005-0.166-0.056-0.327-0.17-0.447s-0.271-0.191-0.436-0.196c-1.201-0.064-2.393-0.251-3.556-0.556-1.081-0.306-1.325-0.625-1.388-0.625v-2.3c0.456 0.207 0.931 0.369 1.419 0.481 1.79 0.403 3.622 0.594 5.456 0.569 1.833 0.025 3.662-0.166 5.45-0.569 0.49-0.114 0.967-0.275 1.425-0.481v2.163c0 0.166 0.066 0.325 0.183 0.442s0.276 0.183 0.442 0.183 0.325-0.066 0.442-0.183c0.117-0.117 0.183-0.276 0.183-0.442v-3.613c-0.025-0.27-0.122-0.528-0.28-0.748s-0.372-0.393-0.62-0.502c-0.558-0.302-1.156-0.525-1.775-0.662-1.787-0.409-3.617-0.606-5.45-0.588-1.835-0.025-3.666 0.166-5.456 0.569-0.62 0.145-1.217 0.374-1.775 0.681-0.247 0.11-0.46 0.283-0.617 0.503s-0.253 0.478-0.276 0.747v11.25c0 0.725 0.663 1.306 1.975 1.731 1.315 0.392 2.673 0.624 4.044 0.694h0.044c0.166 0.006 0.327-0.054 0.448-0.168s0.193-0.27 0.198-0.436-0.054-0.327-0.168-0.448c-0.113-0.121-0.27-0.193-0.436-0.199v0.006zM4.45 2.769c1.6-0.325 3.23-0.48 4.862-0.463 1.631-0.018 3.258 0.137 4.856 0.463 1.438 0.319 1.875 0.669 1.987 0.787-0.112 0.119-0.55 0.469-1.987 0.788-1.598 0.325-3.226 0.48-4.856 0.462-1.633 0.018-3.263-0.137-4.863-0.462-1.438-0.319-1.875-0.669-1.987-0.788 0.119-0.119 0.55-0.469 1.987-0.787z"></path>
<path d="M18.8 14.225l-1.019-4.419c-0.021-0.092-0.062-0.177-0.12-0.251s-0.133-0.133-0.217-0.174l-4.112-2.013c-0.085-0.041-0.178-0.062-0.272-0.062s-0.187 0.021-0.272 0.062l-4.113 1.981c-0.085 0.041-0.159 0.1-0.217 0.174s-0.099 0.159-0.12 0.251l-1.012 4.45c-0.021 0.091-0.021 0.185-0 0.276s0.061 0.176 0.119 0.249l2.844 3.569c0.059 0.074 0.134 0.135 0.219 0.176s0.179 0.062 0.274 0.062h4.563c0.094-0 0.186-0.022 0.271-0.063s0.158-0.101 0.217-0.174l2.844-3.569c0.059-0.073 0.1-0.157 0.122-0.248s0.023-0.185 0.003-0.277zM15.050 17.306h-3.969l-2.5-3.125 0.881-3.862 3.575-1.719 3.569 1.719 0.894 3.862-2.45 3.125z"></path>
<path d="M16.006 13.181l-0.794-0.169c-0.020-0.214-0.070-0.425-0.15-0.625l0.625-0.525c0.119-0.107 0.193-0.256 0.205-0.416s-0.037-0.318-0.138-0.443c-0.101-0.124-0.246-0.205-0.405-0.226s-0.32 0.021-0.449 0.116l-0.625 0.525c-0.181-0.122-0.379-0.217-0.588-0.281v-0.869c0-0.166-0.066-0.325-0.183-0.442s-0.276-0.183-0.442-0.183-0.325 0.066-0.442 0.183c-0.117 0.117-0.183 0.276-0.183 0.442v0.844c-0.209 0.063-0.407 0.158-0.588 0.281l-0.625-0.525c-0.064-0.052-0.137-0.091-0.216-0.114s-0.162-0.031-0.244-0.022-0.161 0.033-0.233 0.073c-0.072 0.039-0.136 0.093-0.188 0.157-0.103 0.129-0.151 0.293-0.133 0.457s0.099 0.314 0.227 0.418l0.625 0.525c-0.082 0.2-0.134 0.41-0.156 0.625l-0.794 0.169c-0.166 0.018-0.318 0.102-0.422 0.232s-0.153 0.296-0.134 0.462c0.018 0.166 0.102 0.317 0.232 0.422s0.296 0.153 0.462 0.134h0.131l0.794-0.175c0.109 0.199 0.251 0.379 0.419 0.531l-0.344 0.713c-0.036 0.074-0.058 0.154-0.063 0.236s0.006 0.164 0.033 0.242c0.027 0.078 0.068 0.15 0.123 0.211s0.121 0.112 0.195 0.148c0.084 0.041 0.176 0.062 0.269 0.063 0.117 0 0.232-0.032 0.331-0.094s0.179-0.151 0.231-0.256l0.35-0.712c0.113 0.020 0.228 0.030 0.344 0.031 0.115-0.001 0.23-0.012 0.344-0.031l0.344 0.744c0.052 0.105 0.132 0.194 0.231 0.256s0.214 0.095 0.331 0.094c0.095 0 0.189-0.021 0.275-0.063 0.074-0.036 0.14-0.086 0.195-0.148s0.096-0.133 0.123-0.211c0.027-0.078 0.038-0.16 0.033-0.242s-0.027-0.162-0.063-0.236l-0.35-0.713c0.17-0.152 0.314-0.332 0.425-0.531l0.787 0.175h0.137c0.166 0.017 0.332-0.032 0.461-0.137s0.212-0.257 0.229-0.423-0.032-0.332-0.137-0.461c-0.105-0.13-0.257-0.212-0.423-0.229v-0.006zM12.15 13.181c0-0.18 0.053-0.357 0.154-0.507s0.243-0.267 0.409-0.336 0.35-0.087 0.527-0.052c0.177 0.035 0.34 0.122 0.467 0.25s0.214 0.29 0.25 0.467c0.035 0.177 0.017 0.361-0.052 0.527s-0.186 0.309-0.336 0.41c-0.15 0.1-0.326 0.154-0.507 0.154-0.242 0-0.474-0.096-0.645-0.267s-0.267-0.403-0.267-0.645z"></path>
</svg>
