<!-- Generated by IcoMoon.io -->
<svg version="1.1" xmlns="http://www.w3.org/2000/svg" width="32" height="32" viewBox="0 0 32 32">
<title>presslabs</title>
<path d="M24.52 28.38c0.91-0.446 1.605-1.234 1.933-2.193s0.262-2.008-0.183-2.917l-3.87-8.36c-0.766-1.658-1.159-3.464-1.15-5.29v-6.18c0-0.648-0.257-1.27-0.714-1.729s-1.078-0.718-1.726-0.721h-6.87c-0.249 0.033-0.478 0.153-0.646 0.339s-0.266 0.426-0.274 0.676c-0.008 0.251 0.072 0.496 0.228 0.693s0.376 0.332 0.622 0.381h6.88c0.088 0.003 0.172 0.040 0.234 0.103s0.096 0.148 0.096 0.237v6.1c-0 2.194 0.481 4.362 1.41 6.35v-0.1l3.89 8.39c0.105 0.229 0.159 0.478 0.16 0.73-0.003 0.328-0.098 0.648-0.275 0.924s-0.428 0.496-0.725 0.636c-2.335 1.191-4.919 1.811-7.54 1.81h-0.14c-2.606 0.006-5.175-0.615-7.49-1.81h0.090c-0.299-0.137-0.552-0.356-0.73-0.633s-0.271-0.599-0.27-0.927c0.002-0.255 0.056-0.507 0.16-0.74l1.5-3.1c0.026-0.053 0.066-0.099 0.115-0.132s0.106-0.053 0.165-0.058h7.72c0.131-0.006 0.26-0.039 0.379-0.095s0.226-0.136 0.314-0.233c0.088-0.098 0.156-0.212 0.201-0.335s0.063-0.255 0.057-0.387c0.001-0.263-0.095-0.517-0.271-0.713s-0.418-0.32-0.679-0.347h-7.76c-0.449 0-0.889 0.125-1.272 0.36s-0.694 0.57-0.898 0.97l-1.48 3.2c-0.249 0.511-0.376 1.072-0.37 1.64-0.001 0.706 0.194 1.398 0.563 2s0.897 1.090 1.527 1.41c2.586 1.328 5.453 2.014 8.36 2h0.21c2.987 0.002 5.932-0.708 8.59-2.070h-0.11l0.040 0.12zM17.050 14.69c0.004-0.141-0.020-0.281-0.071-0.413s-0.127-0.251-0.225-0.353c-0.098-0.101-0.215-0.182-0.344-0.238s-0.269-0.085-0.41-0.086h-5.13c-0.281 0-0.551 0.112-0.749 0.31s-0.31 0.468-0.31 0.749 0.112 0.551 0.31 0.749c0.199 0.199 0.468 0.31 0.749 0.31h5.13c0.265-0.015 0.516-0.129 0.701-0.32s0.292-0.444 0.299-0.71h0.050zM16 10.51h-4.12c-0.262-0.026-0.505-0.148-0.682-0.343s-0.275-0.449-0.275-0.712 0.098-0.517 0.275-0.712c0.177-0.195 0.42-0.317 0.682-0.343h4.12c0.262 0.026 0.505 0.148 0.682 0.343s0.275 0.449 0.275 0.712c0 0.263-0.098 0.517-0.275 0.712s-0.42 0.317-0.682 0.343z"></path>
</svg>
