<!-- Generated by IcoMoon.io -->
<svg version="1.1" xmlns="http://www.w3.org/2000/svg" width="20" height="20" viewBox="0 0 20 20">
<title>presslabs</title>
<path d="M15.325 17.738c0.568-0.279 1.003-0.772 1.208-1.37s0.164-1.255-0.114-1.823l-2.419-5.225c-0.479-1.036-0.724-2.165-0.719-3.306v-3.862c0-0.405-0.16-0.794-0.446-1.081s-0.674-0.449-1.079-0.451h-4.294c-0.156 0.021-0.299 0.096-0.404 0.212s-0.166 0.266-0.171 0.423c-0.005 0.157 0.045 0.31 0.143 0.433s0.235 0.207 0.389 0.238h4.3c0.055 0.002 0.108 0.025 0.146 0.064s0.060 0.093 0.060 0.148v3.812c-0 1.371 0.301 2.726 0.881 3.969v-0.062l2.431 5.244c0.065 0.143 0.099 0.299 0.1 0.456-0.002 0.205-0.061 0.405-0.172 0.578s-0.268 0.31-0.453 0.397c-1.459 0.744-3.074 1.132-4.713 1.131h-0.087c-1.629 0.004-3.234-0.384-4.681-1.131h0.056c-0.187-0.085-0.345-0.223-0.456-0.396s-0.17-0.374-0.169-0.579c0.001-0.159 0.035-0.317 0.1-0.462l0.938-1.938c0.016-0.033 0.041-0.062 0.072-0.083s0.066-0.033 0.103-0.036h4.825c0.082-0.004 0.163-0.024 0.237-0.059s0.141-0.085 0.196-0.146c0.055-0.061 0.098-0.132 0.125-0.21s0.040-0.16 0.035-0.242c0.001-0.164-0.059-0.323-0.169-0.446s-0.261-0.2-0.425-0.217h-4.85c-0.281 0-0.556 0.078-0.795 0.225s-0.433 0.357-0.561 0.607l-0.925 2c-0.156 0.319-0.235 0.67-0.231 1.025-0 0.441 0.121 0.874 0.352 1.25s0.561 0.681 0.954 0.881c1.616 0.83 3.408 1.259 5.225 1.25h0.131c1.867 0.001 3.707-0.442 5.369-1.294h-0.069l0.025 0.075zM10.656 9.181c0.003-0.088-0.013-0.176-0.044-0.258s-0.080-0.157-0.141-0.221c-0.061-0.063-0.134-0.114-0.215-0.149s-0.168-0.053-0.256-0.054h-3.206c-0.176 0-0.344 0.070-0.468 0.194s-0.194 0.293-0.194 0.468 0.070 0.344 0.194 0.468c0.124 0.124 0.293 0.194 0.468 0.194h3.206c0.166-0.009 0.322-0.081 0.438-0.2s0.183-0.278 0.187-0.444h0.031zM10 6.569h-2.575c-0.164-0.016-0.316-0.092-0.426-0.214s-0.172-0.281-0.172-0.445 0.061-0.323 0.172-0.445c0.111-0.122 0.263-0.198 0.426-0.214h2.575c0.164 0.016 0.316 0.092 0.426 0.214s0.172 0.281 0.172 0.445c0 0.165-0.061 0.323-0.172 0.445s-0.263 0.198-0.426 0.214z"></path>
</svg>
