<!-- Generated by IcoMoon.io -->
<svg version="1.1" xmlns="http://www.w3.org/2000/svg" width="20" height="20" viewBox="0 0 20 20">
<title>presslabs-stack</title>
<path d="M10 0.956l-8.75 5.1 8.75 5.1 8.75-5.1-8.75-5.1zM3.75 6.056l6.25-3.65 6.25 3.65-6.25 3.65-6.25-3.65z"></path>
<path d="M18.038 8.244c-0.083-0.142-0.22-0.245-0.379-0.287s-0.328-0.020-0.471 0.062l-7.187 4.188-7.188-4.188c-0.066-0.048-0.142-0.083-0.222-0.103s-0.163-0.023-0.244-0.010c-0.081 0.013-0.159 0.041-0.229 0.084s-0.131 0.099-0.18 0.166-0.083 0.142-0.103 0.222c-0.019 0.080-0.023 0.163-0.010 0.244s0.041 0.159 0.084 0.229c0.043 0.070 0.099 0.131 0.166 0.18l0.112 0.063 7.813 4.562 7.812-4.563c0.142-0.083 0.245-0.22 0.287-0.379s0.020-0.328-0.062-0.471z"></path>
<path d="M18.038 10.744c-0.083-0.142-0.22-0.245-0.379-0.287s-0.328-0.020-0.471 0.062l-7.187 4.188-7.188-4.188c-0.066-0.048-0.142-0.083-0.222-0.103s-0.163-0.023-0.244-0.010c-0.081 0.013-0.159 0.041-0.229 0.084s-0.131 0.099-0.18 0.166-0.083 0.142-0.103 0.222c-0.019 0.080-0.023 0.163-0.010 0.244s0.041 0.159 0.084 0.229c0.043 0.070 0.099 0.131 0.166 0.18l0.112 0.063 7.813 4.563 7.812-4.563c0.142-0.083 0.245-0.22 0.287-0.379s0.020-0.328-0.062-0.471z"></path>
<path d="M17.188 13.019l-7.188 4.187-7.188-4.187c-0.066-0.048-0.142-0.083-0.222-0.103s-0.163-0.023-0.244-0.010c-0.081 0.013-0.159 0.041-0.229 0.084s-0.131 0.099-0.18 0.166-0.083 0.142-0.103 0.222c-0.019 0.080-0.023 0.163-0.010 0.244s0.041 0.159 0.084 0.229c0.043 0.070 0.099 0.131 0.166 0.18l0.112 0.063 7.813 4.563 7.813-4.563c0.125-0.091 0.212-0.225 0.244-0.377s0.007-0.309-0.071-0.443c-0.078-0.134-0.202-0.234-0.35-0.281s-0.307-0.038-0.448 0.026z"></path>
</svg>
