<!-- Generated by IcoMoon.io -->
<svg version="1.1" xmlns="http://www.w3.org/2000/svg" width="20" height="20" viewBox="0 0 20 20">
<title>printer</title>
<path d="M13 8.494c-0.345 0-0.625 0.28-0.625 0.625s0.28 0.625 0.625 0.625h2c0.345 0 0.625-0.28 0.625-0.625s-0.28-0.625-0.625-0.625h-2z"></path>
<path d="M15.625 1.681v4.375h0.625c1.408 0 2.5 1.092 2.5 2.5v5c0 1.408-1.092 2.5-2.5 2.5h-0.625v1.875h-11.25v-1.875h-0.625c-1.408 0-2.5-1.092-2.5-2.5v-5c0-1.408 1.092-2.5 2.5-2.5h0.625v-4.375h11.25zM14.375 6.056v-3.125h-8.75v3.125h8.75zM3.75 14.806h0.625v-3.75h11.25v3.75h0.625c0.717 0 1.25-0.533 1.25-1.25v-5c0-0.717-0.533-1.25-1.25-1.25h-12.5c-0.717 0-1.25 0.533-1.25 1.25v5c0 0.717 0.533 1.25 1.25 1.25zM14.375 12.306h-8.75v4.375h8.75v-4.375z"></path>
</svg>
