<!-- Generated by IcoMoon.io -->
<svg version="1.1" xmlns="http://www.w3.org/2000/svg" width="20" height="20" viewBox="0 0 20 20">
<title>process-loop</title>
<path d="M9.375 1.25c-1.033 0-1.875 0.842-1.875 1.875v1.25c0 1.033 0.842 1.875 1.875 1.875h1.25c1.033 0 1.875-0.842 1.875-1.875v-1.25c0-1.033-0.842-1.875-1.875-1.875h-1.25zM8.75 3.125c0-0.342 0.283-0.625 0.625-0.625h1.25c0.342 0 0.625 0.283 0.625 0.625v1.25c0 0.342-0.283 0.625-0.625 0.625h-1.25c-0.342 0-0.625-0.283-0.625-0.625v-1.25z"></path>
<path d="M3.308 1.433c0.244-0.244 0.64-0.244 0.884 0l2.317 2.317-2.317 2.317c-0.244 0.244-0.64 0.244-0.884 0s-0.244-0.64 0-0.884l0.808-0.808h-0.366c-0.717 0-1.25 0.533-1.25 1.25v9.375c0 0.717 0.533 1.25 1.25 1.25h1.875c0.345 0 0.625 0.28 0.625 0.625s-0.28 0.625-0.625 0.625h-1.875c-1.408 0-2.5-1.092-2.5-2.5v-9.375c0-1.408 1.092-2.5 2.5-2.5h0.366l-0.808-0.808c-0.244-0.244-0.244-0.64 0-0.884z"></path>
<path d="M16.692 15.442l-0.808 0.808h0.366c0.717 0 1.25-0.533 1.25-1.25v-9.375c0-0.717-0.533-1.25-1.25-1.25h-1.875c-0.345 0-0.625-0.28-0.625-0.625s0.28-0.625 0.625-0.625h1.875c1.408 0 2.5 1.092 2.5 2.5v9.375c0 1.408-1.092 2.5-2.5 2.5h-0.366l0.808 0.808c0.244 0.244 0.244 0.64 0 0.884s-0.64 0.244-0.884 0l-2.317-2.317 2.317-2.317c0.244-0.244 0.64-0.244 0.884 0s0.244 0.64 0 0.884z"></path>
<path d="M7.5 9.375c0-1.033 0.842-1.875 1.875-1.875h1.25c1.033 0 1.875 0.842 1.875 1.875v1.25c0 1.033-0.842 1.875-1.875 1.875h-1.25c-1.033 0-1.875-0.842-1.875-1.875v-1.25zM9.375 8.75c-0.342 0-0.625 0.283-0.625 0.625v1.25c0 0.342 0.283 0.625 0.625 0.625h1.25c0.342 0 0.625-0.283 0.625-0.625v-1.25c0-0.342-0.283-0.625-0.625-0.625h-1.25z"></path>
<path d="M9.375 13.75c-1.033 0-1.875 0.842-1.875 1.875v1.25c0 1.033 0.842 1.875 1.875 1.875h1.25c1.033 0 1.875-0.842 1.875-1.875v-1.25c0-1.033-0.842-1.875-1.875-1.875h-1.25zM8.75 15.625c0-0.342 0.283-0.625 0.625-0.625h1.25c0.342 0 0.625 0.283 0.625 0.625v1.25c0 0.342-0.283 0.625-0.625 0.625h-1.25c-0.342 0-0.625-0.283-0.625-0.625v-1.25z"></path>
</svg>
