<!-- Generated by IcoMoon.io -->
<svg version="1.1" xmlns="http://www.w3.org/2000/svg" width="20" height="20" viewBox="0 0 20 20">
<title>projector</title>
<path d="M4.375 10c-0.345 0-0.625 0.28-0.625 0.625s0.28 0.625 0.625 0.625h1.875c0.345 0 0.625-0.28 0.625-0.625s-0.28-0.625-0.625-0.625h-1.875z"></path>
<path d="M13.125 3.75c1.881 0 3.438 1.385 3.708 3.19 1.115 0.255 1.917 1.229 1.917 2.435v2.5c0 1.408-1.092 2.5-2.5 2.5v1.25c0 0.345-0.28 0.625-0.625 0.625s-0.625-0.28-0.625-0.625v-1.25h-10v1.25c0 0.345-0.28 0.625-0.625 0.625s-0.625-0.28-0.625-0.625v-1.25c-1.408 0-2.5-1.092-2.5-2.5v-2.5c0-1.408 1.092-2.5 2.5-2.5h5.677c0.297-1.774 1.84-3.125 3.698-3.125zM13.125 5c-1.381 0-2.5 1.119-2.5 2.5s1.119 2.5 2.5 2.5 2.5-1.119 2.5-2.5c0-1.381-1.119-2.5-2.5-2.5zM16.25 13.125c0.717 0 1.25-0.533 1.25-1.25v-2.5c0-0.517-0.276-0.937-0.698-1.132-0.345 1.715-1.86 3.007-3.677 3.007-1.858 0-3.401-1.351-3.698-3.125h-5.677c-0.717 0-1.25 0.533-1.25 1.25v2.5c0 0.717 0.533 1.25 1.25 1.25h12.5z"></path>
</svg>
