<!-- Generated by IcoMoon.io -->
<svg version="1.1" xmlns="http://www.w3.org/2000/svg" width="32" height="32" viewBox="0 0 32 32">
<title>prometheus</title>
<path d="M16 0.94c-2.917 0-5.769 0.865-8.195 2.486s-4.316 3.924-5.433 6.62c-1.116 2.695-1.409 5.661-0.839 8.522s1.974 5.489 4.037 7.552c2.063 2.063 4.691 3.468 7.552 4.037s5.827 0.277 8.522-0.839c2.695-1.116 4.999-3.007 6.62-5.433s2.486-5.277 2.486-8.195c0-3.912-1.554-7.664-4.32-10.43s-6.518-4.32-10.43-4.32zM16 28.55c-2.32 0-4.2-1.55-4.2-3.46h8.4c0 1.91-1.88 3.46-4.2 3.46zM22.93 23.94h-13.86v-2.51h13.86v2.51zM22.88 20.14h-13.77l-0.11-0.16c-0.925-1.028-1.632-2.232-2.080-3.54 0 0 1.72 0.35 3 0.63 0 0 0.63 0.14 1.55 0.31-0.915-1.015-1.437-2.324-1.47-3.69 0-3 2.27-5.54 1.45-7.63 0.79 0.060 1.65 1.68 1.7 4.21 0.795-1.394 1.202-2.975 1.18-4.58 0-1.36 0.9-2.93 1.79-3-0.79 1.32 0.21 2.44 1.1 5.24 0.33 1.050 0.29 2.81 0.55 3.93 0.090-2.32 0.49-5.72 2-6.89-0.65 1.48 0.1 3.32 0.61 4.21 0.867 1.342 1.313 2.913 1.28 4.51-0.002 1.355-0.484 2.666-1.36 3.7 1-0.18 1.64-0.35 1.64-0.35l3.17-0.61c-0.43 1.4-1.196 2.673-2.23 3.71z"></path>
</svg>
