<!-- Generated by IcoMoon.io -->
<svg version="1.1" xmlns="http://www.w3.org/2000/svg" width="20" height="20" viewBox="0 0 20 20">
<title>prometheus</title>
<path d="M10 0.587c-1.823 0-3.606 0.541-5.122 1.554s-2.698 2.453-3.395 4.137c-0.698 1.684-0.88 3.538-0.525 5.326s1.234 3.431 2.523 4.72c1.289 1.289 2.932 2.167 4.72 2.523s3.642 0.173 5.326-0.525c1.684-0.698 3.124-1.879 4.137-3.395s1.554-3.298 1.554-5.122c0-2.445-0.971-4.79-2.7-6.519s-4.074-2.7-6.519-2.7zM10 17.844c-1.45 0-2.625-0.969-2.625-2.162h5.25c0 1.194-1.175 2.162-2.625 2.162zM14.331 14.963h-8.663v-1.569h8.663v1.569zM14.3 12.588h-8.606l-0.069-0.1c-0.578-0.642-1.020-1.395-1.3-2.213 0 0 1.075 0.219 1.875 0.394 0 0 0.394 0.088 0.969 0.194-0.572-0.634-0.898-1.452-0.919-2.306 0-1.875 1.419-3.463 0.906-4.769 0.494 0.037 1.031 1.050 1.063 2.631 0.497-0.871 0.751-1.86 0.737-2.862 0-0.85 0.563-1.831 1.119-1.875-0.494 0.825 0.131 1.525 0.688 3.275 0.206 0.656 0.181 1.756 0.344 2.456 0.056-1.45 0.306-3.575 1.25-4.306-0.406 0.925 0.063 2.075 0.381 2.631 0.542 0.839 0.821 1.82 0.8 2.819-0.001 0.847-0.303 1.666-0.85 2.313 0.625-0.112 1.025-0.219 1.025-0.219l1.981-0.381c-0.269 0.875-0.747 1.671-1.394 2.319z"></path>
</svg>
