<!-- Generated by IcoMoon.io -->
<svg version="1.1" xmlns="http://www.w3.org/2000/svg" width="20" height="20" viewBox="0 0 20 20">
<title>pulse</title>
<path d="M11.856 2.348c-0.071-0.283-0.327-0.479-0.619-0.473s-0.54 0.212-0.599 0.497l-2.568 12.329-2.463-9.853c-0.070-0.278-0.32-0.473-0.606-0.473s-0.537 0.195-0.606 0.473l-1.132 4.527h-1.387c-0.345 0-0.625 0.28-0.625 0.625s0.28 0.625 0.625 0.625h1.875c0.287 0 0.537-0.195 0.606-0.473l0.644-2.575 2.519 10.075c0.071 0.283 0.327 0.479 0.619 0.473s0.54-0.212 0.599-0.497l2.568-12.329 1.213 4.853c0.069 0.278 0.319 0.473 0.606 0.473h1.875c0.345 0 0.625-0.28 0.625-0.625s-0.28-0.625-0.625-0.625h-1.387l-1.757-7.027z"></path>
<path d="M16.875 9.375c-0.345 0-0.625 0.28-0.625 0.625s0.28 0.625 0.625 0.625h1.25c0.345 0 0.625-0.28 0.625-0.625s-0.28-0.625-0.625-0.625h-1.25z"></path>
</svg>
