<!-- Generated by IcoMoon.io -->
<svg version="1.1" xmlns="http://www.w3.org/2000/svg" width="20" height="20" viewBox="0 0 20 20">
<title>puzzle-alt</title>
<path d="M17.354 1.604c1.693 1.156 1.857 3.41 0.487 4.808-0.334 0.406-0.745 0.644-1.19 0.795-0.053 0.022-0.084 0.064-0.095 0.102-0.005 0.018-0.004 0.030-0.002 0.035v0c0.001 0.003 0.002 0.009 0.014 0.021l1.563 1.563c0.494 0.494 0.494 1.265 0 1.759l-2.063 2.063c-0.278 0.278-0.672 0.385-1.035 0.272-0.361-0.113-0.638-0.436-0.656-0.856-0.050-0.399-0.228-0.763-0.568-1.103-0.004-0.004-0.008-0.008-0.012-0.013-0.782-0.828-2.186-0.756-2.904 0.298l-0.002 0.004c-0.416 0.6-0.419 1.394-0.044 2.004l0.008 0.013c0.344 0.59 0.858 0.898 1.387 0.942 0.024 0.002 0.047 0.005 0.071 0.010 0.388 0.078 0.66 0.352 0.775 0.659 0.112 0.298 0.1 0.715-0.206 1.021l-2.063 2.063c-0.494 0.494-1.265 0.494-1.759 0l-1.562-1.563c-0.012-0.012-0.018-0.013-0.021-0.014h-0c-0.005-0.001-0.017-0.003-0.035 0.003-0.039 0.011-0.083 0.044-0.104 0.101l-0.005 0.013c-0.157 0.392-0.452 0.834-0.757 1.141-1.344 1.415-3.683 1.236-4.838-0.457-0.705-1.021-0.704-2.344-0.087-3.357 0.393-0.701 1.016-1.165 1.701-1.397 0.020-0.008 0.031-0.018 0.037-0.026 0.008-0.009 0.014-0.022 0.017-0.037 0.006-0.028 0-0.062-0.033-0.096l-1.562-1.563c-0.494-0.494-0.494-1.265 0-1.759l2.063-2.063c0.278-0.278 0.672-0.385 1.035-0.272 0.361 0.113 0.638 0.436 0.656 0.856 0.050 0.399 0.228 0.763 0.568 1.103 0.004 0.004 0.008 0.008 0.012 0.013 0.782 0.828 2.186 0.756 2.904-0.298l0.002-0.004c0.416-0.6 0.419-1.394 0.044-2.004l-0.008-0.013c-0.344-0.59-0.858-0.898-1.387-0.942-0.024-0.002-0.047-0.005-0.071-0.010-0.388-0.078-0.66-0.352-0.775-0.659-0.112-0.298-0.1-0.715 0.206-1.021l2.063-2.063c0.494-0.494 1.265-0.494 1.759 0l1.563 1.563c0.033 0.033 0.068 0.039 0.096 0.033 0.015-0.003 0.027-0.009 0.037-0.017 0.008-0.006 0.017-0.017 0.026-0.037 0.243-0.717 0.723-1.253 1.366-1.682 0.012-0.008 0.024-0.016 0.037-0.023 1.060-0.606 2.321-0.623 3.351 0.090zM14.641 2.588c-0.466 0.314-0.729 0.646-0.861 1.040-0.002 0.007-0.005 0.015-0.008 0.022-0.352 0.939-1.528 1.159-2.215 0.472l-1.558-1.558-1.704 1.704c0.763 0.202 1.426 0.718 1.865 1.466 0.62 1.014 0.623 2.34-0.084 3.363-1.155 1.692-3.494 1.872-4.838 0.457-0.393-0.395-0.671-0.845-0.819-1.347l-1.724 1.724 1.558 1.558c0.686 0.686 0.466 1.863-0.473 2.215-0.007 0.003-0.014 0.005-0.022 0.008-0.43 0.143-0.797 0.423-1.026 0.836-0.005 0.008-0.009 0.016-0.014 0.024-0.375 0.61-0.371 1.404 0.044 2.004l0.003 0.004h-0c0.718 1.054 2.123 1.126 2.904 0.298 0.004-0.004 0.008-0.009 0.012-0.013 0.192-0.192 0.392-0.494 0.485-0.723 0.321-0.838 1.458-1.281 2.212-0.527l1.558 1.558 1.704-1.704c-0.763-0.202-1.426-0.718-1.865-1.466-0.62-1.014-0.623-2.34 0.084-3.363 1.155-1.692 3.494-1.872 4.838-0.457 0.393 0.395 0.671 0.845 0.819 1.347l1.724-1.724-1.558-1.558c-0.756-0.756-0.309-1.898 0.535-2.215 0.007-0.003 0.014-0.005 0.022-0.008 0.289-0.096 0.489-0.225 0.647-0.423 0.014-0.018 0.030-0.035 0.046-0.052 0.853-0.853 0.76-2.204-0.285-2.917l-0.004-0.003v-0c-0.588-0.407-1.32-0.427-2.003-0.044z"></path>
</svg>
