<!-- Generated by IcoMoon.io -->
<svg version="1.1" xmlns="http://www.w3.org/2000/svg" width="32" height="32" viewBox="0 0 32 32">
<title>puzzle-alt</title>
<path d="M27.766 2.566c2.71 1.85 2.972 5.456 0.779 7.693-0.535 0.649-1.192 1.031-1.905 1.272-0.085 0.036-0.135 0.103-0.152 0.163-0.008 0.029-0.006 0.048-0.004 0.056v0c0.001 0.004 0.004 0.015 0.022 0.033l2.5 2.5c0.791 0.79 0.791 2.024 0 2.814l-3.3 3.3c-0.444 0.444-1.076 0.616-1.655 0.435-0.577-0.18-1.021-0.697-1.050-1.37-0.079-0.638-0.364-1.22-0.909-1.765-0.007-0.007-0.013-0.014-0.020-0.020-1.251-1.324-3.497-1.209-4.647 0.477l-0.004 0.006c-0.665 0.96-0.671 2.231-0.071 3.207l0.012 0.020c0.551 0.944 1.373 1.437 2.219 1.507 0.038 0.003 0.076 0.008 0.113 0.016 0.621 0.124 1.056 0.563 1.24 1.055 0.179 0.477 0.16 1.143-0.329 1.633l-3.3 3.3c-0.791 0.791-2.024 0.791-2.814 0l-2.5-2.5c-0.018-0.018-0.029-0.021-0.033-0.022h-0c-0.008-0.002-0.027-0.004-0.056 0.004-0.063 0.017-0.133 0.070-0.167 0.162l-0.008 0.020c-0.251 0.628-0.724 1.335-1.211 1.826-2.15 2.264-5.893 1.977-7.741-0.731-1.129-1.633-1.126-3.751-0.139-5.371 0.63-1.121 1.626-1.864 2.722-2.235 0.032-0.014 0.049-0.029 0.059-0.041 0.013-0.015 0.023-0.035 0.028-0.058 0.009-0.045 0.001-0.099-0.053-0.153l-2.5-2.5c-0.791-0.791-0.791-2.024 0-2.814l3.3-3.3c0.444-0.444 1.076-0.616 1.655-0.435 0.577 0.18 1.021 0.697 1.050 1.37 0.079 0.638 0.364 1.22 0.909 1.765 0.007 0.007 0.013 0.014 0.020 0.021 1.251 1.324 3.497 1.209 4.647-0.477l0.004-0.006c0.665-0.96 0.671-2.231 0.070-3.207l-0.012-0.020c-0.551-0.944-1.373-1.437-2.219-1.507-0.038-0.003-0.076-0.008-0.113-0.016-0.621-0.124-1.056-0.563-1.24-1.054-0.179-0.477-0.161-1.144 0.329-1.633l3.3-3.3c0.79-0.791 2.024-0.791 2.814 0l2.5 2.5c0.053 0.054 0.108 0.062 0.153 0.053 0.024-0.005 0.043-0.015 0.058-0.028 0.012-0.010 0.028-0.027 0.041-0.059 0.39-1.148 1.156-2.005 2.186-2.691 0.019-0.013 0.039-0.025 0.059-0.036 1.697-0.97 3.713-0.996 5.362 0.144zM23.426 4.141c-0.745 0.503-1.166 1.033-1.377 1.665-0.004 0.012-0.008 0.023-0.012 0.035-0.563 1.502-2.445 1.854-3.543 0.756l-2.493-2.493-2.726 2.726c1.221 0.324 2.282 1.148 2.984 2.346 0.992 1.622 0.997 3.744-0.134 5.38-1.848 2.707-5.591 2.994-7.741 0.731-0.629-0.632-1.073-1.353-1.31-2.156l-2.759 2.758 2.493 2.493c1.098 1.098 0.746 2.98-0.756 3.543-0.012 0.004-0.023 0.009-0.035 0.012-0.688 0.229-1.276 0.678-1.642 1.337-0.007 0.013-0.015 0.026-0.022 0.038-0.601 0.976-0.594 2.246 0.071 3.207l0.004 0.006h-0c1.149 1.686 3.396 1.801 4.647 0.477 0.007-0.007 0.013-0.014 0.020-0.020 0.307-0.307 0.627-0.79 0.776-1.157 0.513-1.342 2.333-2.049 3.539-0.843l2.493 2.493 2.726-2.726c-1.221-0.323-2.282-1.148-2.984-2.346-0.993-1.622-0.997-3.744 0.134-5.38 1.849-2.707 5.591-2.994 7.741-0.731 0.629 0.632 1.074 1.353 1.31 2.156l2.759-2.758-2.493-2.493c-1.21-1.21-0.494-3.037 0.856-3.543 0.012-0.004 0.023-0.008 0.035-0.012 0.462-0.154 0.782-0.36 1.035-0.676 0.023-0.029 0.048-0.056 0.074-0.082 1.365-1.365 1.216-3.527-0.456-4.667l-0.006-0.004v-0c-0.942-0.652-2.111-0.683-3.205-0.071z"></path>
</svg>
