<!-- Generated by IcoMoon.io -->
<svg version="1.1" xmlns="http://www.w3.org/2000/svg" width="20" height="20" viewBox="0 0 20 20">
<title>puzzle</title>
<path d="M14.318 1.887c1.158-0.849 2.707-0.849 3.864 0 0.006 0.004 0.012 0.009 0.018 0.013 1.495 1.18 1.557 3.431 0.242 4.745-0.454 0.454-0.918 0.689-1.428 0.838 0 0.014 0.004 0.034 0.018 0.056l1.847 1.847c0.494 0.494 0.494 1.327 0 1.821l-2.108 2.108c-0.637 0.725-1.868 0.474-2.124-0.511-0.099-0.34-0.296-0.679-0.526-0.909-0.798-0.798-2.113-0.761-2.881 0.196-0.52 0.664-0.562 1.666-0.048 2.367 0.006 0.008 0.011 0.015 0.016 0.023 0.283 0.424 0.643 0.646 1.053 0.737 0.005 0.001 0.011 0.002 0.016 0.004 0.453 0.113 0.8 0.438 0.93 0.86 0.132 0.43 0.020 0.904-0.327 1.251l-1.687 1.688c-0.494 0.494-1.265 0.494-1.759 0l-0.002-0.002-7.686-7.748c-0-0-0.001-0.001-0.001-0.001-0.493-0.494-0.493-1.327 0.001-1.82l1.875-1.875c0.007-0.007 0.013-0.013 0.020-0.020-0 0-0 0-0-0-0.532-0.152-1.065-0.454-1.458-0.847-1.323-1.323-1.239-3.498 0.227-4.732 0.004-0.003 0.008-0.007 0.012-0.010 1.176-0.941 2.724-0.912 3.98-0.099 0.012 0.008 0.024 0.016 0.036 0.025 0.616 0.462 1.011 1.087 1.17 1.791 0.003 0.010 0.006 0.017 0.008 0.022 0.001-0.001 0.003-0.003 0.005-0.004l1.875-1.875c0.494-0.494 1.265-0.494 1.759 0l1.862 1.862c0 0 0.001 0 0.001 0 0.004-0 0.009-0.001 0.014-0.002s0.009-0.003 0.010-0.004c0-0 0-0 0-0 0.159-0.703 0.554-1.327 1.17-1.789l0.005-0.004v0zM15.060 2.893c-0.379 0.285-0.607 0.655-0.7 1.071-0.001 0.005-0.002 0.011-0.004 0.016-0.25 0.998-1.475 1.239-2.111 0.603l-1.871-1.871-1.871 1.871c-0.347 0.347-0.821 0.46-1.251 0.327-0.422-0.13-0.747-0.477-0.86-0.93-0.001-0.005-0.003-0.011-0.004-0.016-0.091-0.411-0.315-0.777-0.685-1.060-0.861-0.548-1.802-0.518-2.495 0.033-0.904 0.767-0.942 2.088-0.142 2.887 0.23 0.23 0.569 0.428 0.909 0.526 0.986 0.256 1.237 1.488 0.511 2.124l-1.857 1.857c-0 0.001-0.001 0.002-0.001 0.003-0.002 0.005-0.004 0.014-0.004 0.025s0.002 0.020 0.004 0.025c0.001 0.002 0.001 0.003 0.001 0.003l0.001 0.001 7.681 7.744 1.683-1.683c0.002-0.002 0.003-0.003 0.004-0.005-0.005-0.003-0.012-0.006-0.022-0.008-0.707-0.16-1.339-0.56-1.803-1.249-0.852-1.172-0.767-2.787 0.083-3.869l0.003-0.004c1.232-1.54 3.416-1.628 4.743-0.302 0.393 0.393 0.694 0.925 0.847 1.458 0 0 0 0 0 0 0.006-0.007 0.013-0.014 0.020-0.020l2.124-2.124c0-0.001 0.001-0.002 0.001-0.003 0.002-0.005 0.004-0.014 0.004-0.025s-0.002-0.020-0.004-0.025c-0.001-0.002-0.001-0.003-0.001-0.003l-1.874-1.874c-0.013-0.013-0.026-0.027-0.038-0.042-0.53-0.636-0.417-1.785 0.558-2.064 0.354-0.101 0.63-0.241 0.917-0.529 0.808-0.808 0.748-2.176-0.124-2.873-0.716-0.519-1.66-0.517-2.374 0.005z"></path>
</svg>
