<!-- Generated by IcoMoon.io -->
<svg version="1.1" xmlns="http://www.w3.org/2000/svg" width="32" height="32" viewBox="0 0 32 32">
<title>puzzle</title>
<path d="M22.909 3.019c1.852-1.358 4.331-1.358 6.183 0 0.009 0.007 0.019 0.014 0.028 0.022 2.392 1.888 2.491 5.489 0.387 7.592-0.726 0.726-1.47 1.102-2.285 1.341 0 0.023 0.007 0.055 0.030 0.090l2.955 2.955c0.791 0.79 0.791 2.124 0 2.914l-3.373 3.373c-1.019 1.161-2.989 0.759-3.399-0.818-0.158-0.544-0.473-1.086-0.842-1.455-1.276-1.276-3.38-1.218-4.609 0.314-0.832 1.063-0.9 2.666-0.077 3.787 0.009 0.012 0.017 0.024 0.026 0.037 0.453 0.679 1.029 1.033 1.685 1.178 0.009 0.002 0.017 0.004 0.026 0.006 0.724 0.181 1.281 0.701 1.488 1.376 0.212 0.688 0.032 1.446-0.524 2.001l-2.7 2.7c-0.791 0.791-2.024 0.791-2.814 0l-0.003-0.003-12.297-12.397c-0.001-0-0.001-0.001-0.002-0.002-0.789-0.791-0.788-2.123 0.002-2.912l3-3c0.011-0.011 0.022-0.021 0.033-0.031-0 0-0 0-0-0-0.852-0.243-1.704-0.726-2.332-1.354-2.117-2.117-1.982-5.597 0.363-7.572 0.006-0.005 0.013-0.011 0.019-0.016 1.882-1.505 4.358-1.459 6.368-0.159 0.019 0.013 0.038 0.026 0.057 0.040 0.986 0.739 1.618 1.739 1.872 2.865 0.004 0.016 0.009 0.027 0.013 0.035 0.002-0.002 0.005-0.005 0.007-0.007l3-3c0.79-0.791 2.024-0.791 2.814 0l2.98 2.98c0.001 0 0.002 0 0.002 0 0.007-0 0.015-0.001 0.022-0.003s0.014-0.005 0.017-0.006c0-0 0-0 0-0 0.255-1.125 0.887-2.124 1.872-2.863l0.009-0.006v0zM24.096 4.628c-0.606 0.456-0.972 1.048-1.119 1.714-0.002 0.009-0.004 0.017-0.006 0.026-0.399 1.597-2.359 1.982-3.377 0.965l-2.993-2.993-2.993 2.993c-0.556 0.556-1.314 0.735-2.001 0.524-0.675-0.208-1.195-0.764-1.376-1.488-0.002-0.008-0.004-0.017-0.006-0.026-0.146-0.657-0.504-1.242-1.097-1.696-1.378-0.877-2.883-0.828-3.993 0.052-1.446 1.227-1.507 3.34-0.227 4.62 0.369 0.369 0.911 0.684 1.455 0.842 1.577 0.41 1.979 2.38 0.818 3.399l-2.971 2.971c-0 0.001-0.001 0.003-0.002 0.005-0.003 0.008-0.007 0.022-0.007 0.040s0.003 0.031 0.007 0.040c0.001 0.003 0.002 0.004 0.002 0.005l0.001 0.001 12.29 12.39 2.693-2.693c0.003-0.003 0.005-0.005 0.007-0.007-0.008-0.004-0.020-0.009-0.035-0.013-1.131-0.256-2.142-0.895-2.885-1.999-1.363-1.876-1.227-4.459 0.133-6.191l0.005-0.007c1.971-2.464 5.465-2.605 7.588-0.482 0.628 0.628 1.111 1.48 1.354 2.332 0 0 0 0 0 0 0.010-0.011 0.021-0.022 0.031-0.033l3.398-3.398c0-0.001 0.001-0.003 0.002-0.005 0.003-0.008 0.007-0.022 0.007-0.040s-0.003-0.031-0.007-0.040c-0.001-0.003-0.002-0.004-0.002-0.005l-2.998-2.998c-0.021-0.021-0.042-0.044-0.061-0.067-0.848-1.017-0.667-2.856 0.893-3.302 0.566-0.162 1.008-0.386 1.468-0.846 1.293-1.293 1.196-3.482-0.199-4.597-1.145-0.83-2.656-0.828-3.798 0.007z"></path>
</svg>
