<!-- Generated by IcoMoon.io -->
<svg version="1.1" xmlns="http://www.w3.org/2000/svg" width="20" height="20" viewBox="0 0 20 20">
<title>pyolite</title>
<path d="M9.719 7.856h0.575c0.181 0 0.354-0.072 0.482-0.2s0.2-0.301 0.2-0.482v-2.412c-0.020-0.246-0.131-0.475-0.313-0.643s-0.419-0.26-0.666-0.26-0.484 0.093-0.666 0.26c-0.181 0.167-0.293 0.397-0.313 0.643v2.406c0 0.090 0.018 0.179 0.052 0.262s0.085 0.158 0.149 0.222c0.064 0.063 0.14 0.113 0.223 0.147s0.173 0.051 0.263 0.050l0.012 0.006zM10.294 11.762h-0.575c-0.090 0-0.179 0.018-0.262 0.052s-0.158 0.085-0.222 0.149c-0.063 0.064-0.113 0.14-0.147 0.223s-0.051 0.173-0.050 0.263v2.394c0.020 0.246 0.131 0.475 0.313 0.643s0.419 0.26 0.666 0.26 0.484-0.093 0.666-0.26c0.181-0.167 0.293-0.397 0.313-0.643v-2.394c0-0.182-0.072-0.357-0.201-0.486s-0.304-0.201-0.486-0.201h-0.013zM15.050 8.831h-10.088c-0.246 0.020-0.475 0.131-0.643 0.313s-0.26 0.419-0.26 0.666c0 0.247 0.093 0.484 0.26 0.666s0.397 0.293 0.643 0.313h10.088c0.246-0.020 0.475-0.131 0.643-0.313s0.26-0.419 0.26-0.666-0.093-0.484-0.26-0.666c-0.167-0.181-0.397-0.293-0.643-0.313zM16.163 14.456c-0.146 0-0.286-0.058-0.389-0.161s-0.161-0.243-0.161-0.389 0.058-0.286 0.161-0.389c0.103-0.103 0.243-0.161 0.389-0.161 0.75 0 1.094-0.381 1.537-1.706 0.2-0.626 0.301-1.28 0.3-1.938-0.001-0.673-0.107-1.341-0.313-1.981v0.044c-0.362-1.475-0.975-1.675-1.525-1.675h-2.913c-0.077 0.008-0.154 0-0.228-0.024s-0.141-0.063-0.198-0.114c-0.057-0.052-0.103-0.115-0.135-0.185s-0.048-0.147-0.048-0.224 0.016-0.153 0.048-0.224c0.031-0.070 0.077-0.134 0.135-0.185s0.125-0.091 0.198-0.114c0.073-0.024 0.151-0.032 0.228-0.024h2.913c1.306 0 2.175 0.844 2.587 2.5 0.462 1.477 0.462 3.060 0 4.538v-0.050c-0.406 1.231-0.969 2.488-2.587 2.488v-0.025zM10 18.975c-0.765-0.007-1.525-0.124-2.256-0.35h0.056c-1.55-0.438-2.444-1.394-2.444-2.569-0.008-0.077-0-0.154 0.024-0.228s0.063-0.141 0.114-0.198c0.052-0.057 0.115-0.103 0.185-0.135s0.147-0.048 0.224-0.048 0.153 0.016 0.224 0.048c0.070 0.031 0.134 0.077 0.185 0.135s0.091 0.125 0.114 0.198 0.032 0.151 0.024 0.228c0 0.938 1.044 1.369 1.662 1.569 0.607 0.19 1.239 0.287 1.875 0.288 0.659 0 1.315-0.101 1.944-0.3h-0.044c1.113-0.325 1.662-0.85 1.662-1.569v-2.938c0.014-0.135 0.078-0.26 0.179-0.351s0.232-0.141 0.368-0.141 0.267 0.050 0.368 0.141c0.101 0.091 0.165 0.216 0.179 0.351v2.95c0 1.25-0.869 2.162-2.444 2.612-0.719 0.22-1.467 0.333-2.219 0.338l0.019-0.031zM5.9 6.975c-0.072 0-0.143-0.014-0.21-0.042s-0.127-0.068-0.177-0.119c-0.051-0.051-0.090-0.112-0.117-0.178s-0.040-0.138-0.040-0.21v-2.931c0-1.369 0.419-2.313 2.5-2.681 0.675-0.119 1.359-0.177 2.044-0.175h0.169c0.723-0.001 1.444 0.061 2.156 0.188h-0.075c0.666 0.079 1.282 0.391 1.739 0.88s0.727 1.125 0.761 1.795c-0.014 0.135-0.078 0.26-0.179 0.351s-0.232 0.141-0.368 0.141c-0.136 0-0.267-0.050-0.368-0.141s-0.165-0.216-0.179-0.351c-0.036-0.411-0.216-0.796-0.507-1.089s-0.676-0.473-1.087-0.511c-0.638-0.108-1.284-0.162-1.931-0.162h-0.156c-0.628 0.001-1.256 0.055-1.875 0.162h0.063c-1.531 0.275-1.606 0.731-1.606 1.6v2.931c0 0.143-0.055 0.28-0.154 0.382s-0.234 0.163-0.377 0.168l-0.025-0.006zM6.737 14.475h-2.788c-1.369 0-2.331-0.912-2.731-2.5-0.205-0.722-0.308-1.468-0.306-2.219 0.006-0.772 0.12-1.54 0.338-2.281v0.063c0.144-0.707 0.529-1.342 1.088-1.798s1.259-0.704 1.981-0.702h0.050c0.135 0.014 0.26 0.078 0.351 0.179s0.141 0.232 0.141 0.368c0 0.136-0.050 0.267-0.141 0.368s-0.216 0.165-0.351 0.179h-0.069c-0.475-0-0.936 0.165-1.303 0.467s-0.618 0.723-0.709 1.189c-0.18 0.639-0.27 1.299-0.269 1.963 0.001 0.683 0.095 1.362 0.281 2.019v-0.056c0.25 1.1 0.825 1.656 1.638 1.656h2.788c0.135 0.014 0.26 0.078 0.351 0.179s0.141 0.232 0.141 0.368-0.050 0.267-0.141 0.368c-0.091 0.101-0.216 0.165-0.351 0.179l0.012 0.012z"></path>
</svg>
