<!-- Generated by IcoMoon.io -->
<svg version="1.1" xmlns="http://www.w3.org/2000/svg" width="20" height="20" viewBox="0 0 20 20">
<title>python</title>
<path d="M18.75 7.531c0.449 1.447 0.449 2.997 0 4.444-0.462 1.331-0.931 2.206-2.206 2.206h-6.544v0.556h4.375v1.669c0 1.25-1.081 1.875-2.188 2.219-1.424 0.446-2.951 0.446-4.375 0-1.169-0.325-2.188-1.025-2.188-2.206v-4.169c0.003-0.582 0.234-1.14 0.642-1.554s0.963-0.653 1.545-0.664h4.375c0.726-0.019 1.417-0.319 1.927-0.836s0.801-1.212 0.81-1.939v-1.944h1.638c1.256 0 1.856 0.956 2.188 2.219zM7.5 3.65c-0.166 0.002-0.33-0.045-0.469-0.135s-0.249-0.221-0.314-0.374c-0.065-0.153-0.083-0.322-0.052-0.486s0.111-0.314 0.228-0.432c0.117-0.118 0.267-0.199 0.43-0.231s0.332-0.016 0.486 0.048c0.154 0.064 0.285 0.172 0.377 0.311s0.14 0.302 0.139 0.468c0 0.219-0.087 0.43-0.241 0.586s-0.364 0.244-0.584 0.246zM7.775 9.481h4.375c0.293 0.003 0.583-0.053 0.854-0.164s0.517-0.275 0.724-0.482c0.207-0.207 0.371-0.453 0.482-0.724s0.167-0.562 0.164-0.854v-4.163c-0.037-0.577-0.277-1.122-0.677-1.538s-0.936-0.678-1.51-0.737c-0.752-0.122-1.513-0.183-2.275-0.181-0.702 0.002-1.402 0.063-2.094 0.181-1.869 0.325-2.194 1.013-2.194 2.275v1.663h4.375v0.556h-6.025c-0.642-0.009-1.267 0.209-1.766 0.614s-0.838 0.974-0.959 1.604c-0.409 1.453-0.409 2.991 0 4.444 0.3 1.3 1.044 2.206 2.313 2.206h1.506v-2c0.016-0.718 0.31-1.401 0.819-1.907s1.195-0.795 1.912-0.806l-0.025 0.012z"></path>
</svg>
