<!-- Generated by IcoMoon.io -->
<svg version="1.1" xmlns="http://www.w3.org/2000/svg" width="20" height="20" viewBox="0 0 20 20">
<title>react</title>
<path d="M10 11.45c-0.325 0-0.643-0.096-0.913-0.277s-0.481-0.437-0.605-0.738c-0.124-0.3-0.157-0.631-0.094-0.95s0.22-0.612 0.45-0.842 0.523-0.386 0.842-0.45c0.319-0.063 0.649-0.031 0.95 0.093s0.557 0.335 0.738 0.605c0.181 0.27 0.277 0.588 0.277 0.913 0 0.436-0.173 0.854-0.481 1.162s-0.726 0.481-1.162 0.481zM15.225 12.075c-0.244-0.811-0.547-1.602-0.906-2.369l0.056 0.1c0.322-0.693 0.595-1.407 0.819-2.137l0.037-0.131c1.875 0.587 3.019 1.456 3.019 2.269s-1.156 1.681-3.019 2.269h-0.006zM14.125 16.95c-0.625 0.356-1.656 0-2.869-0.956-0.2-0.156-0.406-0.338-0.625-0.525 0.533-0.577 1.032-1.184 1.494-1.819l0.037-0.056c0.842-0.081 1.677-0.219 2.5-0.412h-0.125c0.058 0.267 0.108 0.529 0.15 0.787 0.225 1.538 0 2.613-0.625 2.969l0.063 0.012zM9.025 13.681h1.95c-0.319 0.406-0.625 0.788-0.975 1.138-0.345-0.366-0.671-0.75-0.975-1.15v0.012zM8.75 15.994c-1.219 0.963-2.263 1.313-2.875 0.956s-0.831-1.431-0.625-2.956c0.046-0.254 0.096-0.517 0.15-0.788 0.766 0.179 1.542 0.307 2.325 0.381h0.075c0.476 0.658 0.994 1.284 1.55 1.875-0.2 0.194-0.406 0.375-0.6 0.531zM4.775 12.075c-1.875-0.588-3.019-1.456-3.019-2.269s1.156-1.681 3.019-2.269c0.244 0.815 0.547 1.61 0.906 2.381l-0.056-0.112c-0.319 0.693-0.591 1.407-0.813 2.137l-0.037 0.131zM5.875 2.663c0.16-0.091 0.341-0.139 0.525-0.138 0.88 0.104 1.704 0.488 2.35 1.094 0.2 0.163 0.406 0.344 0.625 0.531-0.536 0.574-1.035 1.181-1.494 1.819l-0.038 0.056c-0.842 0.078-1.677 0.216-2.5 0.412h0.125c-0.056-0.275-0.106-0.531-0.15-0.787-0.275-1.556-0.056-2.631 0.556-2.987zM10.975 5.938h-1.95c0.35-0.4 0.644-0.781 0.975-1.131 0.345 0.359 0.67 0.737 0.975 1.131zM13.863 8.713c-0.144-0.288-0.3-0.569-0.463-0.85s-0.331-0.563-0.506-0.837c0.519 0.075 1.019 0.162 1.475 0.275-0.163 0.463-0.325 0.931-0.506 1.413zM13.375 11.738c0.162-0.281 0.319-0.569 0.462-0.85 0.194 0.475 0.362 0.95 0.506 1.412-0.456 0.106-0.956 0.2-1.475 0.275 0.169-0.269 0.35-0.544 0.506-0.838zM6.637 9.806c0.231-0.494 0.494-0.994 0.787-1.488s0.588-0.975 0.894-1.425c0.537-0.044 1.094-0.063 1.681-0.063 0.561-0.011 1.123 0.010 1.681 0.063 0.306 0.45 0.625 0.925 0.894 1.425s0.55 0.994 0.787 1.487c-0.231 0.494-0.494 0.994-0.787 1.487s-0.588 0.975-0.894 1.425c-0.537 0.044-1.094 0.063-1.681 0.063-0.561 0.011-1.122-0.009-1.681-0.063-0.328-0.456-0.626-0.932-0.894-1.425-0.25-0.494-0.55-0.994-0.787-1.487zM5.625 7.306c0.456-0.112 0.956-0.2 1.475-0.275-0.175 0.275-0.337 0.55-0.506 0.838s-0.319 0.563-0.462 0.85c-0.181-0.481-0.338-0.95-0.481-1.413h-0.025zM6.131 10.906c0.15 0.281 0.3 0.569 0.462 0.85s0.331 0.562 0.506 0.838c-0.519-0.075-1.019-0.169-1.475-0.275 0.169-0.469 0.331-0.944 0.513-1.419l-0.006 0.006zM11.287 3.613c0.634-0.593 1.439-0.971 2.3-1.081h0.044c0.186-0.001 0.369 0.047 0.531 0.137 0.625 0.356 0.831 1.431 0.625 2.956-0.044 0.256-0.094 0.513-0.15 0.787-0.774-0.175-1.559-0.294-2.35-0.356h-0.069c-0.487-0.658-1.015-1.284-1.581-1.875 0.197-0.19 0.406-0.367 0.625-0.531l0.025-0.038zM19.169 9.806c0-1.331-1.431-2.469-3.706-3.163 0.069-0.306 0.125-0.625 0.175-0.887 0.287-1.938-0.088-3.325-1.056-3.869s-2.35-0.206-3.869 1.044c-0.231 0.181-0.456 0.388-0.688 0.625-0.231-0.212-0.456-0.419-0.687-0.625-1.537-1.25-2.925-1.594-3.869-1.031s-1.344 1.919-1.056 3.856c0.050 0.288 0.106 0.581 0.175 0.887-2.319 0.694-3.75 1.831-3.75 3.162s1.431 2.5 3.7 3.162c-0.069 0.3-0.125 0.625-0.175 0.887-0.288 1.931 0.087 3.325 1.056 3.869 0.293 0.168 0.625 0.257 0.963 0.256 1.094-0.097 2.125-0.554 2.931-1.3 0.231-0.181 0.456-0.387 0.688-0.625 0.231 0.212 0.456 0.419 0.688 0.625 0.796 0.729 1.807 1.181 2.881 1.287h0.050c0.34-0.001 0.674-0.092 0.969-0.262 0.969-0.563 1.344-1.938 1.056-3.869-0.050-0.287-0.106-0.581-0.175-0.887 2.263-0.644 3.7-1.813 3.7-3.144z"></path>
</svg>
