<!-- Generated by IcoMoon.io -->
<svg version="1.1" xmlns="http://www.w3.org/2000/svg" width="32" height="32" viewBox="0 0 32 32">
<title>react</title>
<path d="M16 18.32c-0.52 0-1.029-0.154-1.461-0.443s-0.77-0.7-0.969-1.18c-0.199-0.481-0.251-1.009-0.15-1.52s0.352-0.979 0.72-1.347 0.836-0.618 1.347-0.72c0.51-0.101 1.039-0.049 1.52 0.15s0.891 0.536 1.18 0.969c0.289 0.432 0.443 0.941 0.443 1.461 0 0.698-0.277 1.366-0.77 1.86s-1.162 0.77-1.86 0.77zM24.36 19.32c-0.39-1.297-0.875-2.564-1.45-3.79l0.090 0.16c0.515-1.109 0.952-2.251 1.31-3.42l0.060-0.21c3 0.94 4.83 2.33 4.83 3.63s-1.85 2.69-4.83 3.63h-0.010zM22.6 27.12c-1 0.57-2.65 0-4.59-1.53-0.32-0.25-0.65-0.54-1-0.84 0.853-0.922 1.651-1.894 2.39-2.91l0.060-0.090c1.347-0.13 2.683-0.351 4-0.66h-0.2c0.093 0.427 0.173 0.847 0.24 1.26 0.36 2.46 0 4.18-1 4.75l0.1 0.020zM14.44 21.89h3.12c-0.51 0.65-1 1.26-1.56 1.82-0.552-0.585-1.073-1.199-1.56-1.84v0.020zM14 25.59c-1.95 1.54-3.62 2.1-4.6 1.53s-1.33-2.29-1-4.73c0.073-0.407 0.153-0.827 0.24-1.26 1.225 0.287 2.468 0.491 3.72 0.61h0.12c0.761 1.052 1.59 2.054 2.48 3-0.32 0.31-0.65 0.6-0.96 0.85zM7.64 19.32c-3-0.94-4.83-2.33-4.83-3.63s1.85-2.69 4.83-3.63c0.391 1.303 0.875 2.577 1.45 3.81l-0.090-0.18c-0.511 1.109-0.946 2.252-1.3 3.42l-0.060 0.21zM9.4 4.26c0.256-0.146 0.546-0.222 0.84-0.22 1.408 0.167 2.726 0.78 3.76 1.75 0.32 0.26 0.65 0.55 1 0.85-0.858 0.918-1.656 1.89-2.39 2.91l-0.060 0.090c-1.347 0.125-2.684 0.346-4 0.66h0.2c-0.090-0.44-0.17-0.85-0.24-1.26-0.44-2.49-0.090-4.21 0.89-4.78zM17.56 9.5h-3.12c0.56-0.64 1.030-1.25 1.56-1.81 0.552 0.575 1.072 1.179 1.56 1.81zM22.18 13.94c-0.23-0.46-0.48-0.91-0.74-1.36s-0.53-0.9-0.81-1.34c0.83 0.12 1.63 0.26 2.36 0.44-0.26 0.74-0.52 1.49-0.81 2.26zM21.4 18.78c0.26-0.45 0.51-0.91 0.74-1.36 0.31 0.76 0.58 1.52 0.81 2.26-0.73 0.17-1.53 0.32-2.36 0.44 0.27-0.43 0.56-0.87 0.81-1.34zM10.62 15.69c0.37-0.79 0.79-1.59 1.26-2.38s0.94-1.56 1.43-2.28c0.86-0.070 1.75-0.1 2.69-0.1 0.898-0.018 1.796 0.015 2.69 0.1 0.49 0.72 1 1.48 1.43 2.28s0.88 1.59 1.26 2.38c-0.37 0.79-0.79 1.59-1.26 2.38s-0.94 1.56-1.43 2.28c-0.86 0.070-1.75 0.1-2.69 0.1-0.898 0.018-1.796-0.015-2.69-0.1-0.524-0.729-1.002-1.491-1.43-2.28-0.4-0.79-0.88-1.59-1.26-2.38zM9 11.69c0.73-0.18 1.53-0.32 2.36-0.44-0.28 0.44-0.54 0.88-0.81 1.34s-0.51 0.9-0.74 1.36c-0.29-0.77-0.54-1.52-0.77-2.26h-0.040zM9.81 17.45c0.24 0.45 0.48 0.91 0.74 1.36s0.53 0.9 0.81 1.34c-0.83-0.12-1.63-0.27-2.36-0.44 0.27-0.75 0.53-1.51 0.82-2.27l-0.010 0.010zM18.060 5.78c1.015-0.948 2.302-1.554 3.68-1.73h0.070c0.297-0.001 0.59 0.075 0.85 0.22 1 0.57 1.33 2.29 1 4.73-0.070 0.41-0.15 0.82-0.24 1.26-1.238-0.281-2.494-0.471-3.76-0.57h-0.11c-0.778-1.053-1.623-2.055-2.53-3 0.315-0.304 0.649-0.588 1-0.85l0.040-0.060zM30.67 15.69c0-2.13-2.29-3.95-5.93-5.060 0.11-0.49 0.2-1 0.28-1.42 0.46-3.1-0.14-5.32-1.69-6.19s-3.76-0.33-6.19 1.67c-0.37 0.29-0.73 0.62-1.1 1-0.37-0.34-0.73-0.67-1.1-1-2.46-2-4.68-2.55-6.19-1.65s-2.15 3.070-1.69 6.17c0.080 0.46 0.17 0.93 0.28 1.42-3.71 1.11-6 2.93-6 5.060s2.29 4 5.92 5.060c-0.11 0.48-0.2 1-0.28 1.42-0.46 3.090 0.14 5.32 1.69 6.19 0.468 0.269 1 0.411 1.54 0.41 1.751-0.154 3.4-0.886 4.69-2.080 0.37-0.29 0.73-0.62 1.1-1 0.37 0.34 0.73 0.67 1.1 1 1.274 1.166 2.891 1.889 4.61 2.060h0.080c0.544-0.002 1.079-0.147 1.55-0.42 1.55-0.9 2.15-3.1 1.69-6.19-0.080-0.46-0.17-0.93-0.28-1.42 3.62-1.030 5.92-2.9 5.92-5.030z"></path>
</svg>
