<!-- Generated by IcoMoon.io -->
<svg version="1.1" xmlns="http://www.w3.org/2000/svg" width="20" height="20" viewBox="0 0 20 20">
<title>read-alt</title>
<path d="M13.569 6.69c0.243-0.245 0.241-0.641-0.004-0.884s-0.641-0.241-0.884 0.004l-4.482 4.523-0.878-0.895c-0.242-0.246-0.637-0.25-0.884-0.009s-0.25 0.637-0.009 0.884l0.891 0.908-1.005 1.014-2.744-2.797c-0.242-0.246-0.637-0.25-0.884-0.009s-0.25 0.637-0.009 0.884l3.631 3.703 1.885-1.902 1.865 1.902 7.259-7.325c0.243-0.245 0.241-0.641-0.004-0.884s-0.641-0.241-0.884 0.004l-6.366 6.425-0.99-1.009 4.494-4.535z"></path>
</svg>
