<!-- Generated by IcoMoon.io -->
<svg version="1.1" xmlns="http://www.w3.org/2000/svg" width="20" height="20" viewBox="0 0 20 20">
<title>read</title>
<path d="M14.19 6.237c0.245 0.243 0.247 0.639 0.004 0.884l-7.259 7.325-3.631-3.703c-0.242-0.246-0.238-0.642 0.009-0.884s0.642-0.238 0.884 0.009l2.744 2.797 6.366-6.425c0.243-0.245 0.639-0.247 0.884-0.004z"></path>
<path d="M17.315 6.237c0.245 0.243 0.247 0.639 0.004 0.884l-7.322 7.389-0.622-0.829c-0.207-0.276-0.151-0.668 0.125-0.875 0.158-0.118 0.353-0.151 0.53-0.105l6.401-6.46c0.243-0.245 0.639-0.247 0.884-0.004z"></path>
<path d="M7.317 9.864c-0.244-0.244-0.64-0.244-0.884 0s-0.244 0.64 0 0.884l0.313 0.313c0.244 0.244 0.64 0.244 0.884 0s0.244-0.64 0-0.884l-0.313-0.313z"></path>
</svg>
