<!-- Generated by IcoMoon.io -->
<svg version="1.1" xmlns="http://www.w3.org/2000/svg" width="32" height="32" viewBox="0 0 32 32">
<title>read-alt</title>
<path d="M21.71 10.704c0.389-0.392 0.386-1.026-0.006-1.414s-1.026-0.386-1.414 0.006l-7.171 7.236-1.405-1.433c-0.387-0.394-1.020-0.4-1.414-0.014s-0.4 1.020-0.014 1.414l1.425 1.453-1.607 1.622-4.39-4.476c-0.387-0.394-1.020-0.4-1.414-0.014s-0.4 1.020-0.014 1.414l5.81 5.924 3.015-3.043 2.985 3.043 11.614-11.72c0.389-0.392 0.386-1.025-0.006-1.414s-1.026-0.386-1.414 0.006l-10.186 10.279-1.584-1.615 7.191-7.257z"></path>
</svg>
