<!-- Generated by IcoMoon.io -->
<svg version="1.1" xmlns="http://www.w3.org/2000/svg" width="20" height="20" viewBox="0 0 20 20">
<title>receipt-end</title>
<path d="M5.625 6.25c0-0.345 0.28-0.625 0.625-0.625h4.375c0.345 0 0.625 0.28 0.625 0.625s-0.28 0.625-0.625 0.625h-4.375c-0.345 0-0.625-0.28-0.625-0.625z"></path>
<path d="M6.25 8.75c-0.345 0-0.625 0.28-0.625 0.625s0.28 0.625 0.625 0.625h7.5c0.345 0 0.625-0.28 0.625-0.625s-0.28-0.625-0.625-0.625h-7.5z"></path>
<path d="M5.625 11.875c0-0.345 0.28-0.625 0.625-0.625h7.5c0.345 0 0.625 0.28 0.625 0.625s-0.28 0.625-0.625 0.625h-7.5c-0.345 0-0.625-0.28-0.625-0.625z"></path>
<path d="M6.25 15c-0.345 0-0.625 0.28-0.625 0.625s0.28 0.625 0.625 0.625h2.5c0.345 0 0.625-0.28 0.625-0.625s-0.28-0.625-0.625-0.625h-2.5z"></path>
<path d="M16.489 1.298c0.234 0.097 0.386 0.325 0.386 0.577v14.375c0 1.408-1.092 2.5-2.5 2.5h-8.75c-1.408 0-2.5-1.092-2.5-2.5v-13.125c0-0.166 0.066-0.325 0.183-0.442l1.25-1.25c0.244-0.244 0.64-0.244 0.884 0l1.433 1.433 1.433-1.433c0.244-0.244 0.64-0.244 0.884 0l1.433 1.433 1.433-1.433c0.244-0.244 0.64-0.244 0.884 0l1.433 1.433 1.433-1.433c0.179-0.179 0.448-0.232 0.681-0.135zM4.375 3.384v12.866c0 0.717 0.533 1.25 1.25 1.25h8.75c0.717 0 1.25-0.533 1.25-1.25v-12.866l-0.808 0.808c-0.244 0.244-0.64 0.244-0.884 0l-1.433-1.433-1.433 1.433c-0.244 0.244-0.64 0.244-0.884 0l-1.433-1.433-1.433 1.433c-0.244 0.244-0.64 0.244-0.884 0l-1.433-1.433-0.625 0.625z"></path>
</svg>
