<!-- Generated by IcoMoon.io -->
<svg version="1.1" xmlns="http://www.w3.org/2000/svg" width="20" height="20" viewBox="0 0 20 20">
<title>receipt</title>
<path d="M5.625 6.056c0-0.345 0.28-0.625 0.625-0.625h4.375c0.345 0 0.625 0.28 0.625 0.625s-0.28 0.625-0.625 0.625h-4.375c-0.345 0-0.625-0.28-0.625-0.625z"></path>
<path d="M5.625 8.556c0-0.345 0.28-0.625 0.625-0.625h7.5c0.345 0 0.625 0.28 0.625 0.625s-0.28 0.625-0.625 0.625h-7.5c-0.345 0-0.625-0.28-0.625-0.625z"></path>
<path d="M6.25 10.431c-0.345 0-0.625 0.28-0.625 0.625s0.28 0.625 0.625 0.625h7.5c0.345 0 0.625-0.28 0.625-0.625s-0.28-0.625-0.625-0.625h-7.5z"></path>
<path d="M5.625 13.556c0-0.345 0.28-0.625 0.625-0.625h2.5c0.345 0 0.625 0.28 0.625 0.625s-0.28 0.625-0.625 0.625h-2.5c-0.345 0-0.625-0.28-0.625-0.625z"></path>
<path d="M16.875 1.681c0-0.253-0.152-0.481-0.386-0.577s-0.502-0.043-0.681 0.135l-1.433 1.433-1.433-1.433c-0.244-0.244-0.64-0.244-0.884 0l-1.433 1.433-1.433-1.433c-0.244-0.244-0.64-0.244-0.884 0l-1.433 1.433-1.433-1.433c-0.244-0.244-0.64-0.244-0.884 0l-1.25 1.25c-0.117 0.117-0.183 0.276-0.183 0.442v13.75c0 0.166 0.066 0.325 0.183 0.442l1.25 1.25c0.244 0.244 0.64 0.244 0.884 0l1.433-1.433 1.433 1.433c0.244 0.244 0.64 0.244 0.884 0l1.433-1.433 1.433 1.433c0.244 0.244 0.64 0.244 0.884 0l1.433-1.433 1.433 1.433c0.179 0.179 0.448 0.232 0.681 0.135s0.386-0.325 0.386-0.577v-16.25zM4.375 16.422v-13.232l0.625-0.625 1.433 1.433c0.244 0.244 0.64 0.244 0.884 0l1.433-1.433 1.433 1.433c0.244 0.244 0.64 0.244 0.884 0l1.433-1.433 1.433 1.433c0.244 0.244 0.64 0.244 0.884 0l0.808-0.808v13.232l-0.808-0.808c-0.244-0.244-0.64-0.244-0.884 0l-1.433 1.433-1.433-1.433c-0.244-0.244-0.64-0.244-0.884 0l-1.433 1.433-1.433-1.433c-0.244-0.244-0.64-0.244-0.884 0l-1.433 1.433-0.625-0.625z"></path>
</svg>
