<!-- Generated by IcoMoon.io -->
<svg version="1.1" xmlns="http://www.w3.org/2000/svg" width="32" height="32" viewBox="0 0 32 32">
<title>receipt-end</title>
<path d="M9 10c0-0.552 0.448-1 1-1h7c0.552 0 1 0.448 1 1s-0.448 1-1 1h-7c-0.552 0-1-0.448-1-1z"></path>
<path d="M10 14c-0.552 0-1 0.448-1 1s0.448 1 1 1h12c0.552 0 1-0.448 1-1s-0.448-1-1-1h-12z"></path>
<path d="M9 19c0-0.552 0.448-1 1-1h12c0.552 0 1 0.448 1 1s-0.448 1-1 1h-12c-0.552 0-1-0.448-1-1z"></path>
<path d="M10 24c-0.552 0-1 0.448-1 1s0.448 1 1 1h4c0.552 0 1-0.448 1-1s-0.448-1-1-1h-4z"></path>
<path d="M26.383 2.076c0.374 0.155 0.617 0.519 0.617 0.924v23c0 2.252-1.748 4-4 4h-14c-2.252 0-4-1.748-4-4v-21c0-0.265 0.105-0.52 0.293-0.707l2-2c0.391-0.391 1.024-0.391 1.414 0l2.293 2.293 2.293-2.293c0.39-0.391 1.024-0.391 1.414 0l2.293 2.293 2.293-2.293c0.39-0.391 1.024-0.391 1.414 0l2.293 2.293 2.293-2.293c0.286-0.286 0.716-0.372 1.090-0.217zM7 5.414v20.586c0 1.148 0.852 2 2 2h14c1.148 0 2-0.852 2-2v-20.586l-1.293 1.293c-0.39 0.391-1.024 0.391-1.414 0l-2.293-2.293-2.293 2.293c-0.39 0.391-1.024 0.391-1.414 0l-2.293-2.293-2.293 2.293c-0.39 0.391-1.024 0.391-1.414 0l-2.293-2.293-1 1z"></path>
</svg>
