<!-- Generated by IcoMoon.io -->
<svg version="1.1" xmlns="http://www.w3.org/2000/svg" width="32" height="32" viewBox="0 0 32 32">
<title>receipt</title>
<path d="M9 9.69c0-0.552 0.448-1 1-1h7c0.552 0 1 0.448 1 1s-0.448 1-1 1h-7c-0.552 0-1-0.448-1-1z"></path>
<path d="M9 13.69c0-0.552 0.448-1 1-1h12c0.552 0 1 0.448 1 1s-0.448 1-1 1h-12c-0.552 0-1-0.448-1-1z"></path>
<path d="M10 16.69c-0.552 0-1 0.448-1 1s0.448 1 1 1h12c0.552 0 1-0.448 1-1s-0.448-1-1-1h-12z"></path>
<path d="M9 21.69c0-0.552 0.448-1 1-1h4c0.552 0 1 0.448 1 1s-0.448 1-1 1h-4c-0.552 0-1-0.448-1-1z"></path>
<path d="M27 2.69c0-0.404-0.244-0.769-0.617-0.924s-0.804-0.069-1.090 0.217l-2.293 2.293-2.293-2.293c-0.39-0.391-1.024-0.391-1.414 0l-2.293 2.293-2.293-2.293c-0.39-0.391-1.024-0.391-1.414 0l-2.293 2.293-2.293-2.293c-0.391-0.391-1.024-0.391-1.414 0l-2 2c-0.188 0.188-0.293 0.442-0.293 0.707v22c0 0.265 0.105 0.52 0.293 0.707l2 2c0.391 0.39 1.024 0.39 1.414 0l2.293-2.293 2.293 2.293c0.39 0.39 1.024 0.39 1.414 0l2.293-2.293 2.293 2.293c0.39 0.39 1.024 0.39 1.414 0l2.293-2.293 2.293 2.293c0.286 0.286 0.716 0.372 1.090 0.217s0.617-0.519 0.617-0.924v-26zM7 26.276v-21.172l1-1 2.293 2.293c0.39 0.391 1.024 0.391 1.414 0l2.293-2.293 2.293 2.293c0.39 0.391 1.024 0.391 1.414 0l2.293-2.293 2.293 2.293c0.39 0.391 1.024 0.391 1.414 0l1.293-1.293v21.172l-1.293-1.293c-0.39-0.391-1.024-0.391-1.414 0l-2.293 2.293-2.293-2.293c-0.39-0.391-1.024-0.391-1.414 0l-2.293 2.293-2.293-2.293c-0.39-0.391-1.024-0.391-1.414 0l-2.293 2.293-1-1z"></path>
</svg>
