<!-- Generated by IcoMoon.io -->
<svg version="1.1" xmlns="http://www.w3.org/2000/svg" width="20" height="20" viewBox="0 0 20 20">
<title>recycle-cw</title>
<path d="M4.692 4.708c2.943-2.943 7.673-2.943 10.616 0l0.683 0.683h-1.991c-0.345 0-0.625 0.28-0.625 0.625s0.28 0.625 0.625 0.625h3.491c0.006 0 0.012 0 0.017 0h0.616v-4.125c0-0.345-0.28-0.625-0.625-0.625s-0.625 0.28-0.625 0.625v1.991l-0.683-0.683c-3.432-3.432-8.952-3.432-12.384 0-1.685 1.685-2.558 3.971-2.558 6.192 0 0.345 0.28 0.625 0.625 0.625s0.625-0.28 0.625-0.625c0-1.904 0.752-3.868 2.192-5.308z"></path>
<path d="M2.511 13.391h3.489c0.345 0 0.625 0.28 0.625 0.625s-0.28 0.625-0.625 0.625h-1.991l0.683 0.683c2.943 2.943 7.673 2.943 10.616 0 1.44-1.44 2.192-3.404 2.192-5.308 0-0.345 0.28-0.625 0.625-0.625s0.625 0.28 0.625 0.625c0 2.221-0.873 4.507-2.558 6.192-3.432 3.432-8.952 3.432-12.384 0l-0.683-0.683v1.991c0 0.345-0.28 0.625-0.625 0.625s-0.625-0.28-0.625-0.625v-4.125h0.614c0.007-0 0.014-0 0.022 0z"></path>
</svg>
