<!-- Generated by IcoMoon.io -->
<svg version="1.1" xmlns="http://www.w3.org/2000/svg" width="20" height="20" viewBox="0 0 20 20">
<title>recycle-ccw</title>
<path d="M16.192 3.824c-3.432-3.432-8.952-3.432-12.384 0l-0.683 0.683v-1.991c0-0.345-0.28-0.625-0.625-0.625s-0.625 0.28-0.625 0.625v4.125h0.616c0.006 0 0.012 0 0.018 0h3.491c0.345 0 0.625-0.28 0.625-0.625s-0.28-0.625-0.625-0.625h-1.991l0.683-0.683c2.943-2.943 7.673-2.943 10.616 0 1.44 1.44 2.192 3.404 2.192 5.308 0 0.345 0.28 0.625 0.625 0.625s0.625-0.28 0.625-0.625c0-2.221-0.873-4.507-2.558-6.192z"></path>
<path d="M13.375 14.016c0-0.345 0.28-0.625 0.625-0.625h3.489c0.007-0 0.014-0 0.022 0h0.614v0.623c0 0.001 0 0.003 0 0.004v3.498c0 0.345-0.28 0.625-0.625 0.625s-0.625-0.28-0.625-0.625v-1.991l-0.683 0.683c-3.432 3.432-8.952 3.432-12.384 0-1.685-1.685-2.558-3.971-2.558-6.192 0-0.345 0.28-0.625 0.625-0.625s0.625 0.28 0.625 0.625c0 1.904 0.752 3.868 2.192 5.308 2.943 2.943 7.673 2.943 10.616 0l0.683-0.683h-1.991c-0.345 0-0.625-0.28-0.625-0.625z"></path>
</svg>
