<!-- Generated by IcoMoon.io -->
<svg version="1.1" xmlns="http://www.w3.org/2000/svg" width="32" height="32" viewBox="0 0 32 32">
<title>recycle-cw</title>
<path d="M7.507 7.532c4.71-4.709 12.276-4.709 16.986 0l1.093 1.093h-3.186c-0.552 0-1 0.448-1 1s0.448 1 1 1h5.586c0.009 0 0.019 0 0.028 0h0.986v-6.6c0-0.552-0.448-1-1-1s-1 0.448-1 1v3.186l-1.093-1.093c-5.491-5.491-14.324-5.491-19.814 0-2.696 2.696-4.093 6.354-4.093 9.907 0 0.552 0.448 1 1 1s1-0.448 1-1c0-3.047 1.203-6.189 3.507-8.493z"></path>
<path d="M4.017 21.425h5.583c0.552 0 1 0.448 1 1s-0.448 1-1 1h-3.186l1.093 1.093c4.71 4.71 12.276 4.71 16.986 0 2.304-2.304 3.507-5.446 3.507-8.493 0-0.552 0.448-1 1-1s1 0.448 1 1c0 3.553-1.397 7.211-4.093 9.907-5.491 5.491-14.324 5.491-19.814 0l-1.093-1.093v3.186c0 0.552-0.448 1-1 1s-1-0.448-1-1v-6.6h0.983c0.011-0 0.023-0 0.034 0z"></path>
</svg>
