<!-- Generated by IcoMoon.io -->
<svg version="1.1" xmlns="http://www.w3.org/2000/svg" width="20" height="20" viewBox="0 0 20 20">
<title>redis</title>
<path d="M19.275 8.462v2.594c-0.003 0.035-0.015 0.068-0.036 0.096s-0.050 0.049-0.082 0.061l-8.969 3.55h-0.144l-8.969-3.575c-0.028-0.011-0.052-0.028-0.071-0.051s-0.031-0.051-0.036-0.080v-2.563c0 0 0.050 0 0.094 0l8.969 3.575h0.137l8.969-3.575c0 0 0.131-0.056 0.137-0.031zM0.931 6.944v-2.563c0.001-0.036 0.013-0.070 0.032-0.1s0.048-0.053 0.080-0.068l8.956-3.575h0.137l8.981 3.575c0.035 0.014 0.065 0.037 0.088 0.067s0.038 0.065 0.043 0.102v2.563c-0.004 0.036-0.017 0.070-0.038 0.1s-0.049 0.053-0.081 0.069l-8.975 3.569h-0.156l-8.956-3.569c-0.032-0.016-0.059-0.040-0.078-0.070s-0.031-0.064-0.034-0.099zM11.413 5.694l-4.231 0.444 3.3 1.313 0.931-1.75v-0.006zM14.231 3.444l-2.262 0.938 2.563 1.050c0 0 2.269-0.962 2.262-0.969l-2.562-1.019zM8.75 2.487l-1.706 0.325 1.981 0.225 0.45 0.788 0.813-0.731 1.987 0.144-1.394-0.625 0.719-0.681-1.744 0.375-1.494-0.525 0.387 0.706zM3.425 4.506c0 0.475 0.95 0.863 2.050 0.863s2.056-0.388 2.056-0.863c0-0.475-0.919-0.862-2.056-0.862s-2.050 0.388-2.050 0.862zM19.137 12.688l-8.969 3.569h-0.137l-8.969-3.569c-0.044 0-0.1 0-0.094 0v2.563c0 0.034 0.010 0.067 0.029 0.094s0.046 0.049 0.077 0.062l8.969 3.581h0.144l8.969-3.581c0.033-0.012 0.061-0.033 0.082-0.061s0.034-0.061 0.036-0.096v-2.563c-0.006-0.044-0.137 0-0.137 0z"></path>
</svg>
