<!-- Generated by IcoMoon.io -->
<svg version="1.1" xmlns="http://www.w3.org/2000/svg" width="32" height="32" viewBox="0 0 32 32">
<title>redis</title>
<path d="M30.84 13.54v4.15c-0.004 0.055-0.025 0.109-0.058 0.153s-0.079 0.078-0.132 0.097l-14.35 5.68h-0.23l-14.35-5.72c-0.044-0.017-0.083-0.045-0.113-0.082s-0.049-0.081-0.057-0.128v-4.1c0 0 0.080 0 0.15 0l14.35 5.72h0.22l14.35-5.72c0 0 0.21-0.090 0.22-0.050zM1.49 11.11v-4.1c0.002-0.057 0.020-0.113 0.052-0.16s0.076-0.086 0.128-0.11l14.33-5.72h0.22l14.37 5.72c0.056 0.022 0.105 0.059 0.141 0.107s0.061 0.104 0.069 0.163v4.1c-0.006 0.057-0.027 0.112-0.060 0.16s-0.078 0.085-0.13 0.11l-14.36 5.71h-0.25l-14.33-5.71c-0.051-0.026-0.094-0.064-0.125-0.111s-0.050-0.102-0.055-0.159zM18.26 9.11l-6.77 0.71 5.28 2.1 1.49-2.8v-0.010zM22.77 5.51l-3.62 1.5 4.1 1.68c0 0 3.63-1.54 3.62-1.55l-4.1-1.63zM14 3.98l-2.73 0.52 3.17 0.36 0.72 1.26 1.3-1.17 3.18 0.23-2.23-1 1.15-1.090-2.79 0.6-2.39-0.84 0.62 1.13zM5.48 7.21c0 0.76 1.52 1.38 3.28 1.38s3.29-0.62 3.29-1.38c0-0.76-1.47-1.38-3.29-1.38s-3.28 0.62-3.28 1.38zM30.62 20.3l-14.35 5.71h-0.22l-14.35-5.71c-0.070 0-0.16 0-0.15 0v4.1c0 0.054 0.016 0.107 0.047 0.151s0.073 0.079 0.123 0.099l14.35 5.73h0.23l14.35-5.73c0.052-0.019 0.098-0.053 0.132-0.097s0.054-0.097 0.058-0.153v-4.1c-0.010-0.070-0.22 0-0.22 0z"></path>
</svg>
