<!-- Generated by IcoMoon.io -->
<svg version="1.1" xmlns="http://www.w3.org/2000/svg" width="32" height="32" viewBox="0 0 32 32">
<title>redux</title>
<path d="M24.25 13.5c-2.115-1.266-4.535-1.93-7-1.92-0.35 0-0.69 0-1 0h0.050c-0.179-0.431-0.499-0.79-0.907-1.016s-0.882-0.309-1.342-0.232c-0.461 0.076-0.882 0.306-1.196 0.652s-0.501 0.788-0.532 1.254c-0.031 0.466 0.097 0.929 0.363 1.313s0.654 0.667 1.101 0.803c0.447 0.136 0.927 0.116 1.361-0.055s0.798-0.485 1.032-0.889c0.024-0.040 0.041-0.084 0.050-0.13 0.379-0.041 0.759-0.062 1.14-0.060 2.161-0.004 4.281 0.595 6.12 1.73h-0.050c4.53 2.62 6.76 7.21 5 10.3-1.51 2.6-5.39 3.27-9.28 1.85-0.474 0.399-0.968 0.773-1.48 1.12h-0.060c4.94 2.2 10.22 1.35 12.25-2.17 2.2-3.81-0.31-9.46-5.64-12.53l0.020-0.020zM20.69 17.63c-0.318 0.179-0.582 0.439-0.767 0.753s-0.282 0.672-0.283 1.037c0.001 0.373 0.101 0.739 0.29 1.060 0.036 0.041 0.069 0.085 0.1 0.13-1.048 2.285-2.8 4.174-5 5.39h-0.060c-4.52 2.57-9.64 2.19-11.39-0.89-1.46-2.54-0.19-6.12 2.83-8.77-0.129-0.614-0.22-1.235-0.27-1.86v-0.060c-4.24 3.19-6 8.060-4 11.58 2.24 3.87 8.38 4.52 13.7 1.45 2.403-1.354 4.344-3.399 5.57-5.87v-0.080h0.29c0.545 0.011 1.071-0.195 1.465-0.571s0.622-0.894 0.635-1.439c-0.001-0.373-0.101-0.739-0.29-1.060-0.171-0.331-0.431-0.607-0.751-0.798s-0.686-0.288-1.059-0.282c-0.351 0.004-0.695 0.097-1 0.27l-0.010 0.010zM13.81 22.15c-0.005 0.327-0.087 0.648-0.24 0.938s-0.372 0.538-0.64 0.726c-0.268 0.188-0.576 0.31-0.9 0.356s-0.654 0.014-0.963-0.092c-0.309-0.106-0.589-0.285-0.816-0.52s-0.395-0.521-0.491-0.834c-0.095-0.313-0.115-0.644-0.058-0.966s0.19-0.626 0.388-0.887c-1.537-2.24-2.356-4.894-2.35-7.61 0-0.070 0-0.15 0-0.22 0-6.13 3.63-11.13 8.11-11.13 4.12 0 7.46 4.12 8 9.55-0.534-0.256-1.082-0.483-1.64-0.68h-0.13c-0.7-4.12-3.22-7.21-6.24-7.21-3.56 0-6.44 4.26-6.44 9.47-0.005 0.087-0.005 0.173 0 0.26-0.002 2.442 0.76 4.823 2.18 6.81h0.17c0.547 0 1.072 0.217 1.46 0.603s0.607 0.91 0.61 1.457l-0.010-0.020z"></path>
</svg>
