<!-- Generated by IcoMoon.io -->
<svg version="1.1" xmlns="http://www.w3.org/2000/svg" width="20" height="20" viewBox="0 0 20 20">
<title>redux</title>
<path d="M15.156 8.438c-1.322-0.791-2.835-1.206-4.375-1.2-0.219 0-0.431 0-0.625 0h0.031c-0.112-0.27-0.312-0.493-0.567-0.635s-0.551-0.193-0.839-0.145c-0.288 0.048-0.552 0.191-0.748 0.408s-0.313 0.493-0.332 0.784c-0.019 0.291 0.061 0.581 0.227 0.821s0.409 0.417 0.688 0.502c0.279 0.085 0.579 0.073 0.851-0.034s0.499-0.303 0.645-0.556c0.015-0.025 0.026-0.053 0.031-0.081 0.237-0.026 0.474-0.038 0.713-0.037 1.351-0.003 2.676 0.372 3.825 1.081h-0.031c2.831 1.637 4.225 4.506 3.125 6.438-0.944 1.625-3.369 2.044-5.8 1.156-0.296 0.249-0.605 0.483-0.925 0.7h-0.037c3.088 1.375 6.387 0.844 7.656-1.356 1.375-2.381-0.194-5.913-3.525-7.831l0.012-0.012zM12.931 11.019c-0.199 0.112-0.364 0.274-0.479 0.471s-0.176 0.42-0.177 0.648c0.001 0.233 0.063 0.462 0.181 0.662 0.022 0.026 0.043 0.053 0.063 0.081-0.655 1.428-1.75 2.609-3.125 3.369h-0.037c-2.825 1.606-6.025 1.369-7.119-0.556-0.912-1.588-0.119-3.825 1.769-5.481-0.081-0.383-0.137-0.772-0.169-1.162v-0.038c-2.65 1.994-3.75 5.038-2.5 7.238 1.4 2.419 5.238 2.825 8.563 0.906 1.502-0.846 2.715-2.125 3.481-3.669v-0.050h0.181c0.34 0.007 0.67-0.122 0.916-0.357s0.389-0.559 0.397-0.899c-0.001-0.233-0.063-0.462-0.181-0.662-0.107-0.207-0.27-0.379-0.469-0.499s-0.429-0.18-0.662-0.176c-0.219 0.002-0.434 0.060-0.625 0.169l-0.006 0.006zM8.631 13.844c-0.003 0.204-0.054 0.405-0.15 0.586s-0.233 0.336-0.4 0.454c-0.167 0.118-0.36 0.194-0.563 0.222s-0.409 0.009-0.602-0.058c-0.193-0.067-0.368-0.178-0.51-0.325s-0.247-0.326-0.307-0.521c-0.060-0.196-0.072-0.402-0.036-0.604s0.119-0.391 0.242-0.554c-0.96-1.4-1.473-3.059-1.469-4.756 0-0.044 0-0.094 0-0.137 0-3.831 2.269-6.956 5.069-6.956 2.575 0 4.663 2.575 5 5.969-0.334-0.16-0.676-0.302-1.025-0.425h-0.081c-0.438-2.575-2.012-4.506-3.9-4.506-2.225 0-4.025 2.663-4.025 5.919-0.003 0.054-0.003 0.108 0 0.162-0.002 1.526 0.475 3.015 1.362 4.256h0.106c0.342 0 0.67 0.135 0.913 0.377s0.379 0.569 0.381 0.911l-0.006-0.012z"></path>
</svg>
