<!-- Generated by IcoMoon.io -->
<svg version="1.1" xmlns="http://www.w3.org/2000/svg" width="20" height="20" viewBox="0 0 20 20">
<title>repo</title>
<path d="M16.875 1.875c0-0.345-0.28-0.625-0.625-0.625h-10.625c-1.408 0-2.5 1.092-2.5 2.5v12.5c0 1.408 1.092 2.5 2.5 2.5h11.25v-16.875zM6.25 2.5v11.25h-0.625c-0.459 0-0.885 0.116-1.25 0.322v-10.322c0-0.717 0.533-1.25 1.25-1.25h0.625zM7.5 13.75v-11.25h8.125v11.25h-8.125zM5.625 15h10v2.5h-10c-0.717 0-1.25-0.533-1.25-1.25s0.533-1.25 1.25-1.25z"></path>
</svg>
