<!-- Generated by IcoMoon.io -->
<svg version="1.1" xmlns="http://www.w3.org/2000/svg" width="20" height="20" viewBox="0 0 20 20">
<title>repo-down</title>
<path d="M16.25 1.25h-10.625c-1.408 0-2.5 1.092-2.5 2.5v12.5c0 1.408 1.092 2.5 2.5 2.5h3.75c0.345 0 0.625-0.28 0.625-0.625s-0.28-0.625-0.625-0.625h-3.75c-0.717 0-1.25-0.533-1.25-1.25s0.533-1.25 1.25-1.25h2.5c0.345 0 0.625-0.28 0.625-0.625s-0.28-0.625-0.625-0.625h-0.625v-11.25h8.125v5.938c0 0.345 0.28 0.625 0.625 0.625s0.625-0.28 0.625-0.625v-6.563c0-0.345-0.28-0.625-0.625-0.625zM5.625 2.5h0.625v11.25h-0.625c-0.459 0-0.885 0.116-1.25 0.322v-10.322c0-0.717 0.533-1.25 1.25-1.25z"></path>
<path d="M12.058 13.933c0.244-0.244 0.64-0.244 0.884 0l0.808 0.808v-2.241c0-0.345 0.28-0.625 0.625-0.625s0.625 0.28 0.625 0.625v2.241l0.808-0.808c0.244-0.244 0.64-0.244 0.884 0s0.244 0.64 0 0.884l-2.317 2.317-2.317-2.317c-0.244-0.244-0.244-0.64 0-0.884z"></path>
<path d="M14.375 9.375c-2.761 0-5 2.239-5 5s2.239 5 5 5c2.761 0 5-2.239 5-5s-2.239-5-5-5zM10.625 14.375c0-2.071 1.679-3.75 3.75-3.75s3.75 1.679 3.75 3.75c0 2.071-1.679 3.75-3.75 3.75s-3.75-1.679-3.75-3.75z"></path>
</svg>
