<!-- Generated by IcoMoon.io -->
<svg version="1.1" xmlns="http://www.w3.org/2000/svg" width="20" height="20" viewBox="0 0 20 20">
<title>role-super-admin</title>
<path d="M8.177 0.97l-0.029 0.010-0.066 0.029c-0.536 0.238-1.17 0.52-1.677 0.955-0.447 0.383-0.884 0.809-1.188 1.333-0.297 0.452-0.468 0.939-0.468 1.454v2.938c0 0.292 0.047 0.595 0.094 0.9 0.013 0.083 0.026 0.167 0.038 0.251 0.071 0.496 0.212 0.986 0.419 1.47l0.005 0.013c0.184 0.43 0.384 0.895 0.651 1.364l0.011 0.019 0.012 0.018c0.245 0.367 0.55 0.743 0.918 1.075-0.062 0.042-0.116 0.095-0.16 0.158l-1.567 0.735c-0.192-0.014-0.387 0.060-0.521 0.217-0.012 0.014-0.023 0.028-0.034 0.043l-2.651 1.244-0.516 0.287c-0.15 0.045-0.301 0.111-0.432 0.203-0.126 0.088-0.392 0.314-0.392 0.692v0.5c0 1.345 1.155 2.5 2.5 2.5h13.75c1.408 0 2.5-1.092 2.5-2.5v-0.5c0-0.355-0.242-0.579-0.323-0.65-0.11-0.096-0.231-0.168-0.322-0.215l-0.571-0.317-2.866-1.344c-0.094-0.086-0.21-0.138-0.33-0.155l-1.674-0.786c-0.027-0.032-0.057-0.061-0.089-0.086 0.36-0.311 0.694-0.658 0.967-1.137l0.018-0.032c0.231-0.404 0.505-0.883 0.654-1.381 0.104-0.251 0.172-0.494 0.228-0.715 0.022-0.088 0.041-0.168 0.059-0.244 0.032-0.136 0.062-0.259 0.1-0.392l0.012-0.041 0.006-0.042c0.009-0.065 0.019-0.132 0.029-0.2 0.050-0.341 0.102-0.694 0.102-0.951v-2.938c0-0.515-0.171-1.002-0.468-1.454-0.304-0.524-0.74-0.95-1.188-1.333-0.51-0.438-1.081-0.717-1.653-0.972l-0.036-0.016-0.038-0.011c-0.645-0.194-1.276-0.339-1.93-0.339s-1.286 0.145-1.885 0.345zM12.5 18.125v-0.962l2.452-2.094 2.638 1.238 0.535 0.297v0.271c0 0.717-0.533 1.25-1.25 1.25h-4.375zM11.25 17.083v1.042h-2.5v-1.042l1.25-1.667 1.25 1.667zM7.5 18.125h-4.375c-0.655 0-1.25-0.595-1.25-1.25v-0.215l0.044-0.011 0.616-0.342 2.558-1.2 2.407 2.056v0.962zM13.709 14.486l-1.734 1.481-0.976-1.302 1.713-0.647 0.997 0.468zM9.005 14.661l-0.98 1.307-1.69-1.443 1.046-0.491 1.624 0.627zM12.291 11.954c-0.341 0.276-0.469 0.672-0.42 1.046l-1.869 0.706-1.753-0.677c0.059-0.383-0.066-0.791-0.416-1.075-0.312-0.26-0.58-0.579-0.802-0.908-0.224-0.396-0.396-0.795-0.583-1.23-0.168-0.391-0.277-0.776-0.331-1.155-0.018-0.126-0.035-0.234-0.049-0.331-0.042-0.277-0.069-0.455-0.069-0.643v-2.938c0-0.229 0.074-0.485 0.27-0.778l0.012-0.018 0.011-0.019c0.196-0.342 0.504-0.661 0.927-1.023 0.35-0.3 0.813-0.513 1.382-0.766 0.516-0.17 0.999-0.271 1.462-0.271 0.462 0 0.945 0.1 1.532 0.275 0.536 0.239 0.954 0.457 1.311 0.762 0.422 0.362 0.731 0.681 0.927 1.023l0.011 0.019 0.012 0.018c0.196 0.293 0.27 0.55 0.27 0.778v2.938c0 0.157-0.034 0.391-0.084 0.734-0.009 0.063-0.019 0.129-0.029 0.199-0.041 0.147-0.078 0.301-0.111 0.441l-0 0.001-0 0.001c-0.016 0.068-0.032 0.133-0.046 0.192-0.052 0.207-0.105 0.388-0.179 0.562l-0.016 0.036-0.011 0.038c-0.1 0.351-0.307 0.72-0.567 1.174-0.197 0.345-0.446 0.602-0.791 0.889z"></path>
</svg>
