<!-- Generated by IcoMoon.io -->
<svg version="1.1" xmlns="http://www.w3.org/2000/svg" width="20" height="20" viewBox="0 0 20 20">
<title>room</title>
<path d="M12.5 1.25c-0.345 0-0.625 0.28-0.625 0.625s0.28 0.625 0.625 0.625h3.75c0.717 0 1.25 0.533 1.25 1.25v0.005l0.052 3.149c-2.829 0.289-5.052 2.694-5.052 5.596v0.625h5v3.125c0 0.717-0.533 1.25-1.25 1.25h-12.5c-0.717 0-1.25-0.533-1.25-1.25v-3.125c0-0.345-0.28-0.625-0.625-0.625s-0.625 0.28-0.625 0.625v3.125c0 1.408 1.092 2.5 2.5 2.5h12.5c1.408 0 2.5-1.092 2.5-2.5v-3.75c0-0.345-0.28-0.625-0.625-0.625h-4.33c0.306-2.112 2.137-3.75 4.33-3.75 0.010 0 0.021-0 0.031-0.001 0.014 0.001 0.028 0.001 0.042 0.001 0.345-0.006 0.62-0.29 0.614-0.635l-0.062-3.745c-0.003-1.405-1.094-2.494-2.5-2.494h-3.75z"></path>
<path d="M3.75 1.25c-1.408 0-2.5 1.092-2.5 2.5v3.75c0 0.345 0.28 0.625 0.625 0.625s0.625-0.28 0.625-0.625v-3.75c0-0.717 0.533-1.25 1.25-1.25h3.75c0.345 0 0.625-0.28 0.625-0.625s-0.28-0.625-0.625-0.625h-3.75z"></path>
</svg>
