<!-- Generated by IcoMoon.io -->
<svg version="1.1" xmlns="http://www.w3.org/2000/svg" width="32" height="32" viewBox="0 0 32 32">
<title>route-fiftythree</title>
<path d="M27.090 13.69l-1.43-0.19v-4l1.43 0.51v3.68zM20.68 10.35l-2.92 0.49v3.2l1.47 0.1 1.45-0.080v12.68l-4.68 2.37v-26.82l4.68 2.34v5.72zM14.23 12.11l-7.91-1v-3.96l7.91 1.86v3.1zM27.53 8.79l-1.42-0.52c-0.136-0.044-0.277-0.068-0.42-0.070h-0.24l-3.45 0.55v-4.13c0.002-0.238-0.063-0.471-0.187-0.674s-0.301-0.368-0.513-0.476l-4.72-2.31c-0.183-0.084-0.379-0.131-0.58-0.14-0.204 0.005-0.405 0.053-0.59 0.14l-4.68 2.35c-0.223 0.105-0.411 0.272-0.54 0.482s-0.195 0.452-0.19 0.699v2l-3.39-0.8h-0.29c-0.202-0-0.401 0.048-0.58 0.14l-1.42 0.72c-0.209 0.105-0.385 0.265-0.51 0.462s-0.194 0.425-0.2 0.658v3.57c0.012 0.311 0.134 0.608 0.345 0.837s0.496 0.376 0.805 0.413l5.25 0.59v13.41c-0.002 0.238 0.063 0.471 0.187 0.674s0.301 0.368 0.513 0.476l4.69 2.35c0.182 0.084 0.379 0.131 0.58 0.14 0.204-0.010 0.404-0.057 0.59-0.14l4.68-2.35c0.221-0.101 0.409-0.262 0.542-0.466s0.205-0.441 0.208-0.684v-11.46l5.16-0.27c0.325-0.022 0.63-0.165 0.855-0.399s0.356-0.545 0.365-0.871v-3.77c-0.009-0.258-0.093-0.507-0.242-0.717s-0.357-0.371-0.598-0.463l-0.010 0.050z"></path>
</svg>
