<!-- Generated by IcoMoon.io -->
<svg version="1.1" xmlns="http://www.w3.org/2000/svg" width="20" height="20" viewBox="0 0 20 20">
<title>route-fiftythree</title>
<path d="M16.931 8.556l-0.894-0.119v-2.5l0.894 0.319v2.3zM12.925 6.469l-1.825 0.306v2l0.919 0.063 0.906-0.050v7.925l-2.925 1.481v-16.763l2.925 1.462v3.575zM8.894 7.569l-4.944-0.625v-2.475l4.944 1.162v1.938zM17.206 5.494l-0.887-0.325c-0.085-0.028-0.173-0.042-0.263-0.044h-0.15l-2.156 0.344v-2.581c0.001-0.149-0.039-0.295-0.117-0.422s-0.188-0.23-0.321-0.297l-2.95-1.444c-0.114-0.052-0.237-0.082-0.362-0.088-0.128 0.003-0.253 0.033-0.369 0.088l-2.925 1.469c-0.139 0.065-0.257 0.17-0.338 0.301s-0.122 0.283-0.119 0.437v1.25l-2.119-0.5h-0.181c-0.126-0-0.25 0.030-0.363 0.087l-0.887 0.45c-0.13 0.066-0.241 0.165-0.319 0.289s-0.121 0.265-0.125 0.411v2.231c0.007 0.194 0.084 0.38 0.216 0.523s0.31 0.235 0.503 0.258l3.281 0.369v8.381c-0.001 0.149 0.039 0.295 0.117 0.422s0.188 0.23 0.321 0.297l2.931 1.469c0.114 0.052 0.237 0.082 0.363 0.087 0.127-0.006 0.252-0.036 0.369-0.087l2.925-1.469c0.138-0.063 0.256-0.164 0.339-0.291s0.128-0.276 0.13-0.428v-7.163l3.225-0.169c0.203-0.014 0.394-0.103 0.534-0.25s0.222-0.341 0.228-0.544v-2.356c-0.005-0.161-0.058-0.317-0.151-0.448s-0.223-0.232-0.374-0.29l-0.006 0.031z"></path>
</svg>
