<!-- Generated by IcoMoon.io -->
<svg version="1.1" xmlns="http://www.w3.org/2000/svg" width="20" height="20" viewBox="0 0 20 20">
<title>routing-away</title>
<path d="M12.317 5.808l-1.869-1.869c-0.004-0.004-0.009-0.009-0.013-0.013l-0.435-0.435-0.435 0.435c-0.004 0.004-0.009 0.009-0.013 0.013l-1.869 1.869c-0.244 0.244-0.244 0.64 0 0.884s0.64 0.244 0.884 0l0.808-0.808v2.241c0 0.345 0.28 0.625 0.625 0.625s0.625-0.28 0.625-0.625v-2.241l0.808 0.808c0.244 0.244 0.64 0.244 0.884 0s0.244-0.64 0-0.884z"></path>
<path d="M10.625 11.875v2.241l0.808-0.808c0.244-0.244 0.64-0.244 0.884 0s0.244 0.64 0 0.884l-2.317 2.317-2.317-2.317c-0.244-0.244-0.244-0.64 0-0.884s0.64-0.244 0.884 0l0.808 0.808v-2.241c0-0.345 0.28-0.625 0.625-0.625s0.625 0.28 0.625 0.625z"></path>
<path d="M14.192 7.683c-0.244-0.244-0.64-0.244-0.884 0s-0.244 0.64 0 0.884l0.808 0.808h-2.241c-0.345 0-0.625 0.28-0.625 0.625s0.28 0.625 0.625 0.625h2.241l-0.808 0.808c-0.244 0.244-0.244 0.64 0 0.884s0.64 0.244 0.884 0l2.317-2.317-2.317-2.317z"></path>
<path d="M6.692 7.683c0.244 0.244 0.244 0.64 0 0.884l-0.808 0.808h2.241c0.345 0 0.625 0.28 0.625 0.625s-0.28 0.625-0.625 0.625h-2.241l0.808 0.808c0.244 0.244 0.244 0.64 0 0.884s-0.64 0.244-0.884 0l-2.317-2.317 2.317-2.317c0.244-0.244 0.64-0.244 0.884 0z"></path>
<path d="M1.25 10c0-4.832 3.918-8.75 8.75-8.75s8.75 3.918 8.75 8.75c0 4.832-3.918 8.75-8.75 8.75s-8.75-3.918-8.75-8.75zM10 2.5c-4.142 0-7.5 3.358-7.5 7.5s3.358 7.5 7.5 7.5c4.142 0 7.5-3.358 7.5-7.5s-3.358-7.5-7.5-7.5z"></path>
</svg>
