<!-- Generated by IcoMoon.io -->
<svg version="1.1" xmlns="http://www.w3.org/2000/svg" width="20" height="20" viewBox="0 0 20 20">
<title>router</title>
<path d="M4.375 15c-0.345 0-0.625 0.28-0.625 0.625s0.28 0.625 0.625 0.625h1.875c0.345 0 0.625-0.28 0.625-0.625s-0.28-0.625-0.625-0.625h-1.875z"></path>
<path d="M11.875 15.625c0-0.345 0.28-0.625 0.625-0.625h0.625c0.345 0 0.625 0.28 0.625 0.625s-0.28 0.625-0.625 0.625h-0.625c-0.345 0-0.625-0.28-0.625-0.625z"></path>
<path d="M10 15c-0.345 0-0.625 0.28-0.625 0.625s0.28 0.625 0.625 0.625h0.625c0.345 0 0.625-0.28 0.625-0.625s-0.28-0.625-0.625-0.625h-0.625z"></path>
<path d="M14.375 15.625c0-0.345 0.28-0.625 0.625-0.625h0.625c0.345 0 0.625 0.28 0.625 0.625s-0.28 0.625-0.625 0.625h-0.625c-0.345 0-0.625-0.28-0.625-0.625z"></path>
<path d="M7.5 1.875v3.75h6.25c1.015 0 1.85 0.6 2.255 1.488l2.681 5.735c0.022 0.044 0.039 0.092 0.050 0.141s0.016 0.099 0.015 0.149v3.112c0 1.408-1.092 2.5-2.5 2.5h-12.5c-1.408 0-2.5-1.092-2.5-2.5v-3.112c-0.001-0.049 0.004-0.098 0.014-0.146s0.027-0.095 0.048-0.139l2.619-5.737c0.41-0.901 1.314-1.491 2.256-1.491h0.063v-3.75c0-0.345 0.28-0.625 0.625-0.625s0.625 0.28 0.625 0.625zM6.188 6.875c-0.433 0-0.903 0.285-1.119 0.759l-2.222 4.866h14.296l-2.274-4.866c-0.22-0.485-0.635-0.759-1.118-0.759h-7.563zM2.5 13.75v2.5c0 0.717 0.533 1.25 1.25 1.25h12.5c0.717 0 1.25-0.533 1.25-1.25v-2.5h-15z"></path>
</svg>
