<!-- Generated by IcoMoon.io -->
<svg version="1.1" xmlns="http://www.w3.org/2000/svg" width="32" height="32" viewBox="0 0 32 32">
<title>routing-in</title>
<path d="M16 6c0.552 0 1 0.448 1 1v3.586l1.293-1.293c0.39-0.391 1.024-0.391 1.414 0s0.39 1.024 0 1.414l-3.707 3.707-3.707-3.707c-0.39-0.39-0.39-1.024 0-1.414s1.024-0.391 1.414 0l1.293 1.293v-3.586c0-0.552 0.448-1 1-1z"></path>
<path d="M16 17.586l0.697 0.697c0.007 0.007 0.014 0.014 0.021 0.021l2.99 2.99c0.39 0.391 0.39 1.024 0 1.414s-1.024 0.39-1.414 0l-1.293-1.293v3.586c0 0.552-0.448 1-1 1s-1-0.448-1-1v-3.586l-1.293 1.293c-0.39 0.39-1.024 0.39-1.414 0s-0.39-1.024 0-1.414l2.99-2.99c0.007-0.007 0.014-0.014 0.021-0.021l0.697-0.697z"></path>
<path d="M22.707 13.707c0.39-0.39 0.39-1.024 0-1.414s-1.024-0.39-1.414 0l-3.707 3.707 3.707 3.707c0.39 0.39 1.024 0.39 1.414 0s0.39-1.024 0-1.414l-1.293-1.293h3.586c0.552 0 1-0.448 1-1s-0.448-1-1-1h-3.586l1.293-1.293z"></path>
<path d="M9.293 12.293c0.391-0.39 1.024-0.39 1.414 0l2.999 2.999c0 0 0.001 0.001 0.001 0.001l0.707 0.707-0.707 0.707c0-0-0 0 0 0l-3 3c-0.39 0.39-1.024 0.39-1.414 0s-0.391-1.024 0-1.414l1.293-1.293h-3.586c-0.552 0-1-0.448-1-1s0.448-1 1-1h3.586l-1.293-1.293c-0.391-0.39-0.391-1.024 0-1.414z"></path>
<path d="M2 16c0-7.732 6.268-14 14-14s14 6.268 14 14c0 7.732-6.268 14-14 14s-14-6.268-14-14zM16 4c-6.627 0-12 5.373-12 12s5.373 12 12 12c6.627 0 12-5.373 12-12s-5.373-12-12-12z"></path>
</svg>
