<!-- Generated by IcoMoon.io -->
<svg version="1.1" xmlns="http://www.w3.org/2000/svg" width="20" height="20" viewBox="0 0 20 20">
<title>ruler</title>
<path d="M14.812 1.875c-0.166 0-0.325 0.066-0.442 0.184l-1.603 1.611c-0.080 0.032-0.155 0.082-0.219 0.148-0.057 0.060-0.1 0.129-0.129 0.201l-1.388 1.395c-0.077 0.029-0.149 0.073-0.213 0.133-0.071 0.068-0.123 0.149-0.155 0.236l-1.485 1.492c-0.043 0.026-0.084 0.057-0.121 0.094s-0.070 0.079-0.096 0.123l-1.513 1.52c-0.051 0.028-0.098 0.063-0.141 0.106s-0.080 0.092-0.108 0.144l-1.442 1.449c-0.101 0.030-0.196 0.086-0.273 0.167-0.071 0.075-0.121 0.163-0.148 0.256l-1.316 1.323c-0.098 0.027-0.191 0.078-0.269 0.154-0.084 0.081-0.14 0.18-0.168 0.285l-1.527 1.535c-0.243 0.244-0.243 0.639 0.001 0.883l2.179 2.179c0.947 1.020 2.538 0.988 3.518 0.009l9.688-9.688c0.994-0.994 0.994-2.577 0-3.571l-2.188-2.188c-0.117-0.117-0.277-0.183-0.443-0.183zM13.048 5.16l0.896 0.855c0.25 0.238 0.645 0.229 0.884-0.021s0.229-0.645-0.021-0.884l-0.877-0.837 0.884-0.888 1.744 1.744c0.506 0.506 0.506 1.298 0 1.804l-9.688 9.688c-0.517 0.517-1.293 0.488-1.722 0.020-0.006-0.007-0.012-0.013-0.019-0.020l-1.747-1.747 0.857-0.861 1.687 1.735c0.241 0.248 0.636 0.253 0.884 0.012s0.253-0.636 0.012-0.884l-1.702-1.75 0.882-0.887 0.877 0.838c0.25 0.238 0.645 0.229 0.884-0.021s0.229-0.645-0.021-0.884l-0.859-0.819 0.884-0.888 0.852 0.852c0.244 0.244 0.64 0.244 0.884 0s0.244-0.64 0-0.884l-0.854-0.854 0.864-0.868 1.731 1.731c0.244 0.244 0.64 0.244 0.884 0s0.244-0.64 0-0.884l-1.733-1.733 0.884-0.888 0.83 0.87c0.238 0.25 0.634 0.259 0.884 0.021s0.259-0.634 0.021-0.884l-0.853-0.893 0.886-0.89z"></path>
</svg>
