<!-- Generated by IcoMoon.io -->
<svg version="1.1" xmlns="http://www.w3.org/2000/svg" width="32" height="32" viewBox="0 0 32 32">
<title>safe</title>
<path d="M16 12c-2.209 0-4 1.791-4 4s1.791 4 4 4c1.864 0 3.43-1.275 3.874-3h4.126c0.552 0 1-0.448 1-1s-0.448-1-1-1h-4.126c-0.444-1.725-2.010-3-3.874-3zM14 16c0-1.105 0.895-2 2-2s2 0.895 2 2c0 1.105-0.895 2-2 2s-2-0.895-2-2z"></path>
<path d="M16 22c0.552 0 1 0.448 1 1v1c0 0.552-0.448 1-1 1s-1-0.448-1-1v-1c0-0.552 0.448-1 1-1z"></path>
<path d="M17 8c0-0.552-0.448-1-1-1s-1 0.448-1 1v1c0 0.552 0.448 1 1 1s1-0.448 1-1v-1z"></path>
<path d="M20.193 20.193c0.39-0.39 1.024-0.39 1.414 0l0.8 0.8c0.39 0.391 0.39 1.024 0 1.414s-1.024 0.39-1.414 0l-0.8-0.8c-0.39-0.391-0.39-1.024 0-1.414z"></path>
<path d="M11.007 9.593c-0.39-0.391-1.024-0.391-1.414 0s-0.391 1.024 0 1.414l0.8 0.8c0.39 0.39 1.024 0.39 1.414 0s0.39-1.024 0-1.414l-0.8-0.8z"></path>
<path d="M8 15c-0.552 0-1 0.448-1 1s0.448 1 1 1h1c0.552 0 1-0.448 1-1s-0.448-1-1-1h-1z"></path>
<path d="M22.407 9.593c0.39 0.391 0.39 1.024 0 1.414l-0.8 0.8c-0.39 0.39-1.024 0.39-1.414 0s-0.39-1.024 0-1.414l0.8-0.8c0.39-0.391 1.024-0.391 1.414 0z"></path>
<path d="M11.807 21.607c0.39-0.391 0.39-1.024 0-1.414s-1.024-0.39-1.414 0l-0.8 0.8c-0.391 0.391-0.391 1.024 0 1.414s1.024 0.39 1.414 0l0.8-0.8z"></path>
<path d="M6 2c-2.252 0-4 1.748-4 4v20c0 2.252 1.748 4 4 4h20c2.252 0 4-1.748 4-4v-20c0-2.252-1.748-4-4-4h-20zM4 6c0-1.148 0.852-2 2-2h20c1.148 0 2 0.852 2 2v20c0 1.148-0.852 2-2 2h-20c-1.148 0-2-0.852-2-2v-20z"></path>
</svg>
