<!-- Generated by IcoMoon.io -->
<svg version="1.1" xmlns="http://www.w3.org/2000/svg" width="20" height="20" viewBox="0 0 20 20">
<title>safe</title>
<path d="M10 7.5c-1.381 0-2.5 1.119-2.5 2.5s1.119 2.5 2.5 2.5c1.165 0 2.144-0.797 2.421-1.875h2.579c0.345 0 0.625-0.28 0.625-0.625s-0.28-0.625-0.625-0.625h-2.579c-0.278-1.078-1.256-1.875-2.421-1.875zM8.75 10c0-0.69 0.56-1.25 1.25-1.25s1.25 0.56 1.25 1.25c0 0.69-0.56 1.25-1.25 1.25s-1.25-0.56-1.25-1.25z"></path>
<path d="M10 13.75c0.345 0 0.625 0.28 0.625 0.625v0.625c0 0.345-0.28 0.625-0.625 0.625s-0.625-0.28-0.625-0.625v-0.625c0-0.345 0.28-0.625 0.625-0.625z"></path>
<path d="M10.625 5c0-0.345-0.28-0.625-0.625-0.625s-0.625 0.28-0.625 0.625v0.625c0 0.345 0.28 0.625 0.625 0.625s0.625-0.28 0.625-0.625v-0.625z"></path>
<path d="M12.621 12.621c0.244-0.244 0.64-0.244 0.884 0l0.5 0.5c0.244 0.244 0.244 0.64 0 0.884s-0.64 0.244-0.884 0l-0.5-0.5c-0.244-0.244-0.244-0.64 0-0.884z"></path>
<path d="M6.879 5.996c-0.244-0.244-0.64-0.244-0.884 0s-0.244 0.64 0 0.884l0.5 0.5c0.244 0.244 0.64 0.244 0.884 0s0.244-0.64 0-0.884l-0.5-0.5z"></path>
<path d="M5 9.375c-0.345 0-0.625 0.28-0.625 0.625s0.28 0.625 0.625 0.625h0.625c0.345 0 0.625-0.28 0.625-0.625s-0.28-0.625-0.625-0.625h-0.625z"></path>
<path d="M14.004 5.996c0.244 0.244 0.244 0.64 0 0.884l-0.5 0.5c-0.244 0.244-0.64 0.244-0.884 0s-0.244-0.64 0-0.884l0.5-0.5c0.244-0.244 0.64-0.244 0.884 0z"></path>
<path d="M7.379 13.505c0.244-0.244 0.244-0.64 0-0.884s-0.64-0.244-0.884 0l-0.5 0.5c-0.244 0.244-0.244 0.64 0 0.884s0.64 0.244 0.884 0l0.5-0.5z"></path>
<path d="M3.75 1.25c-1.408 0-2.5 1.092-2.5 2.5v12.5c0 1.408 1.092 2.5 2.5 2.5h12.5c1.408 0 2.5-1.092 2.5-2.5v-12.5c0-1.408-1.092-2.5-2.5-2.5h-12.5zM2.5 3.75c0-0.717 0.533-1.25 1.25-1.25h12.5c0.717 0 1.25 0.533 1.25 1.25v12.5c0 0.717-0.533 1.25-1.25 1.25h-12.5c-0.717 0-1.25-0.533-1.25-1.25v-12.5z"></path>
</svg>
