<!-- Generated by IcoMoon.io -->
<svg version="1.1" xmlns="http://www.w3.org/2000/svg" width="20" height="20" viewBox="0 0 20 20">
<title>safe-simple</title>
<path d="M10.069 8.125h4.306c1.033 0 1.875 0.842 1.875 1.875s-0.842 1.875-1.875 1.875h-4.306c-0.613 0.941-1.675 1.563-2.882 1.563-1.898 0-3.438-1.539-3.438-3.438s1.539-3.438 3.438-3.438c1.207 0 2.268 0.622 2.882 1.563zM7.188 7.813c-1.208 0-2.188 0.979-2.188 2.188s0.979 2.188 2.188 2.188c0.809 0 1.516-0.44 1.895-1.093 0.022-0.087 0.063-0.167 0.118-0.235 0.113-0.264 0.175-0.554 0.175-0.859s-0.062-0.595-0.175-0.859c-0.055-0.068-0.096-0.148-0.118-0.235-0.378-0.654-1.085-1.093-1.895-1.093zM10.568 9.375c0.037 0.203 0.057 0.412 0.057 0.625s-0.019 0.422-0.057 0.625h3.807c0.342 0 0.625-0.283 0.625-0.625s-0.283-0.625-0.625-0.625h-3.807z"></path>
<path d="M1.25 3.75c0-1.408 1.092-2.5 2.5-2.5h12.5c1.408 0 2.5 1.092 2.5 2.5v12.5c0 1.408-1.092 2.5-2.5 2.5h-12.5c-1.408 0-2.5-1.092-2.5-2.5v-12.5zM3.75 2.5c-0.717 0-1.25 0.533-1.25 1.25v12.5c0 0.717 0.533 1.25 1.25 1.25h12.5c0.717 0 1.25-0.533 1.25-1.25v-12.5c0-0.717-0.533-1.25-1.25-1.25h-12.5z"></path>
</svg>
