<!-- Generated by IcoMoon.io -->
<svg version="1.1" xmlns="http://www.w3.org/2000/svg" width="20" height="20" viewBox="0 0 20 20">
<title>safe-alt</title>
<path d="M8.734 10h1.954c0.345 0 0.625-0.28 0.625-0.625s-0.28-0.625-0.625-0.625h-1.954c-0.278-1.078-1.256-1.875-2.421-1.875-1.381 0-2.5 1.119-2.5 2.5s1.119 2.5 2.5 2.5c1.165 0 2.144-0.797 2.421-1.875zM5.063 9.375c0-0.69 0.56-1.25 1.25-1.25s1.249 0.559 1.25 1.249v0.001c0 0.69-0.56 1.25-1.25 1.25s-1.25-0.56-1.25-1.25z"></path>
<path d="M5.688 17.5h8.75v0.625c0 0.345 0.28 0.625 0.625 0.625s0.625-0.28 0.625-0.625v-0.625h0.563c1.408 0 2.5-1.092 2.5-2.5v-11.25c0-1.408-1.092-2.5-2.5-2.5h-12.5c-1.408 0-2.5 1.092-2.5 2.5v11.25c0 1.408 1.092 2.5 2.5 2.5h0.688v0.625c0 0.345 0.28 0.625 0.625 0.625s0.625-0.28 0.625-0.625v-0.625zM2.5 3.75c0-0.717 0.533-1.25 1.25-1.25h9.438v2.5h-0.625c-0.345 0-0.625 0.28-0.625 0.625s0.28 0.625 0.625 0.625h0.625v6.25h-0.625c-0.345 0-0.625 0.28-0.625 0.625s0.28 0.625 0.625 0.625h0.625v2.5h-9.438c-0.717 0-1.25-0.533-1.25-1.25v-11.25zM16.25 16.25h-1.813v-2.5h0.625c0.345 0 0.625-0.28 0.625-0.625s-0.28-0.625-0.625-0.625h-0.625v-6.25h0.625c0.345 0 0.625-0.28 0.625-0.625s-0.28-0.625-0.625-0.625h-0.625v-2.5h1.813c0.717 0 1.25 0.533 1.25 1.25v11.25c0 0.717-0.533 1.25-1.25 1.25z"></path>
</svg>
