<!-- Generated by IcoMoon.io -->
<svg version="1.1" xmlns="http://www.w3.org/2000/svg" width="20" height="20" viewBox="0 0 20 20">
<title>sattelite</title>
<path d="M8.040 1.433c0.244-0.244 0.64-0.244 0.884 0l2.82 2.82c1.121-0.717 2.628-0.586 3.608 0.394s1.111 2.487 0.394 3.609l2.82 2.82c0.244 0.244 0.244 0.64 0 0.884l-1.607 1.607c-0.244 0.244-0.64 0.244-0.884 0l-2.772-2.772-0.803 0.803-4.098-4.098 0.804-0.804-2.772-2.772c-0.244-0.244-0.244-0.64 0-0.884l1.607-1.607zM10.531 7.138l-0.007 0.007-0.355 0.355 2.33 2.33 1.969-1.969c0.644-0.644 0.644-1.687 0-2.33-0.642-0.642-1.681-0.644-2.324-0.006l-0.006 0.006-1.607 1.607zM8.482 2.759l-0.723 0.723 2.33 2.33 0.723-0.723-2.33-2.33zM14.187 9.911l2.33 2.33 0.723-0.723-2.33-2.33-0.723 0.723z"></path>
<path d="M7.5 8.117c0.001-0.345-0.279-0.626-0.624-0.626s-0.626 0.279-0.626 0.624c-0.003 1.442 0.547 2.887 1.647 3.987 1.098 1.098 2.539 1.648 3.978 1.647 0.345 0 0.625-0.28 0.625-0.625s-0.28-0.625-0.625-0.625c-1.121 0-2.239-0.427-3.094-1.281-0.856-0.856-1.283-1.978-1.281-3.101z"></path>
<path d="M4.375 7.5c0.345 0 0.625 0.28 0.625 0.625 0 1.76 0.671 3.519 2.014 4.861s3.101 2.014 4.861 2.014c0.345 0 0.625 0.28 0.625 0.625s-0.28 0.625-0.625 0.625c-2.078 0-4.159-0.793-5.745-2.38s-2.38-3.667-2.38-5.745c0-0.345 0.28-0.625 0.625-0.625z"></path>
<path d="M2.5 8.125c0-0.345-0.28-0.625-0.625-0.625s-0.625 0.28-0.625 0.625c0 2.718 1.037 5.438 3.112 7.513s4.795 3.112 7.513 3.112c0.345 0 0.625-0.28 0.625-0.625s-0.28-0.625-0.625-0.625c-2.4 0-4.798-0.915-6.629-2.746s-2.746-4.229-2.746-6.629z"></path>
</svg>
