<!-- Generated by IcoMoon.io -->
<svg version="1.1" xmlns="http://www.w3.org/2000/svg" width="32" height="32" viewBox="0 0 32 32">
<title>sattelite</title>
<path d="M12.864 2.293c0.391-0.391 1.024-0.391 1.414 0l4.512 4.512c1.794-1.148 4.206-0.937 5.774 0.631s1.778 3.979 0.631 5.774l4.512 4.512c0.39 0.39 0.39 1.024 0 1.414l-2.571 2.572c-0.391 0.39-1.024 0.39-1.414 0l-4.436-4.436-1.286 1.286-6.557-6.557 1.286-1.286-4.436-4.436c-0.39-0.391-0.39-1.024 0-1.414l2.571-2.571zM16.85 11.421l-0.011 0.011-0.567 0.568 3.729 3.729 3.15-3.15c1.030-1.030 1.030-2.699 0-3.729-1.026-1.027-2.689-1.030-3.719-0.009l-0.009 0.009-2.571 2.571zM13.572 4.414l-1.157 1.157 3.729 3.729 1.157-1.157-3.729-3.729zM22.7 15.857l3.729 3.729 1.157-1.157-3.729-3.729-1.157 1.157z"></path>
<path d="M12 12.988c0.001-0.552-0.446-1.001-0.998-1.002s-1.001 0.446-1.002 0.998c-0.004 2.307 0.875 4.619 2.636 6.38 1.757 1.757 4.062 2.636 6.364 2.636 0.552 0 1-0.448 1-1s-0.448-1-1-1c-1.793 0-3.583-0.683-4.95-2.050-1.37-1.37-2.053-3.165-2.050-4.962z"></path>
<path d="M7 12c0.552 0 1 0.448 1 1 0 2.817 1.074 5.63 3.222 7.778s4.961 3.222 7.778 3.222c0.552 0 1 0.448 1 1s-0.448 1-1 1c-3.325 0-6.654-1.269-9.192-3.808s-3.808-5.867-3.808-9.192c0-0.552 0.448-1 1-1z"></path>
<path d="M4 13c0-0.552-0.448-1-1-1s-1 0.448-1 1c0 4.349 1.66 8.701 4.979 12.021s7.672 4.979 12.021 4.979c0.552 0 1-0.448 1-1s-0.448-1-1-1c-3.84 0-7.677-1.464-10.607-4.393s-4.393-6.766-4.393-10.607z"></path>
</svg>
