<!-- Generated by IcoMoon.io -->
<svg version="1.1" xmlns="http://www.w3.org/2000/svg" width="20" height="20" viewBox="0 0 20 20">
<title>section-alt</title>
<path d="M9.375 3.125c-1.030 0-1.875 0.845-1.875 1.875s0.845 1.875 1.875 1.875h3.125c1.72 0 3.125 1.405 3.125 3.125 0 1.522-1.1 2.797-2.545 3.071 0.419 0.532 0.67 1.202 0.67 1.929 0 1.72-1.405 3.125-3.125 3.125h-3.125c-1.72 0-3.125-1.405-3.125-3.125 0-0.345 0.28-0.625 0.625-0.625s0.625 0.28 0.625 0.625c0 1.030 0.845 1.875 1.875 1.875h3.125c1.030 0 1.875-0.845 1.875-1.875s-0.845-1.875-1.875-1.875h-3.125c-1.72 0-3.125-1.405-3.125-3.125 0-1.522 1.1-2.797 2.545-3.071-0.419-0.532-0.67-1.202-0.67-1.929 0-1.72 1.405-3.125 3.125-3.125h3.125c1.72 0 3.125 1.405 3.125 3.125 0 0.345-0.28 0.625-0.625 0.625s-0.625-0.28-0.625-0.625c0-1.030-0.845-1.875-1.875-1.875h-3.125zM12.5 11.875c1.030 0 1.875-0.845 1.875-1.875s-0.845-1.875-1.875-1.875h-5c-1.030 0-1.875 0.845-1.875 1.875s0.845 1.875 1.875 1.875h5z"></path>
</svg>
