<!-- Generated by IcoMoon.io -->
<svg version="1.1" xmlns="http://www.w3.org/2000/svg" width="20" height="20" viewBox="0 0 20 20">
<title>section</title>
<path d="M6.875 4.375v0.625c0 1.030 0.845 1.875 1.875 1.875h2.5c1.72 0 3.125 1.405 3.125 3.125 0 1.020-0.494 1.929-1.254 2.5 0.761 0.571 1.254 1.48 1.254 2.5v0.625c0 1.72-1.405 3.125-3.125 3.125h-2.5c-1.72 0-3.125-1.405-3.125-3.125 0-0.345 0.28-0.625 0.625-0.625s0.625 0.28 0.625 0.625c0 1.030 0.845 1.875 1.875 1.875h2.5c1.030 0 1.875-0.845 1.875-1.875v-0.625c0-1.030-0.845-1.875-1.875-1.875h-2.5c-1.72 0-3.125-1.405-3.125-3.125 0-1.020 0.494-1.929 1.254-2.5-0.761-0.571-1.254-1.48-1.254-2.5v-0.625c0-1.72 1.405-3.125 3.125-3.125h2.5c1.72 0 3.125 1.405 3.125 3.125 0 0.345-0.28 0.625-0.625 0.625s-0.625-0.28-0.625-0.625c0-1.030-0.845-1.875-1.875-1.875h-2.5c-1.030 0-1.875 0.845-1.875 1.875zM11.25 11.875c1.030 0 1.875-0.845 1.875-1.875s-0.845-1.875-1.875-1.875h-2.5c-1.030 0-1.875 0.845-1.875 1.875s0.845 1.875 1.875 1.875h2.5z"></path>
</svg>
