<!-- Generated by IcoMoon.io -->
<svg version="1.1" xmlns="http://www.w3.org/2000/svg" width="32" height="32" viewBox="0 0 32 32">
<title>security-add</title>
<path d="M28 7.455l-12-5.455-12 5.455v8.644c0 5.316 4.058 10.506 10.184 13.309 0.502 0.23 1.096 0.009 1.325-0.493s0.009-1.096-0.493-1.325c-5.674-2.597-9.016-7.207-9.016-11.491v-7.356l10-4.545 10 4.545v5.156c0 0.552 0.448 1 1 1s1-0.448 1-1v-6.444z"></path>
<path d="M20 22.098c-0.552 0-1 0.448-1 1s0.448 1 1 1h2v2c0 0.552 0.448 1 1 1s1-0.448 1-1v-2h2c0.552 0 1-0.448 1-1s-0.448-1-1-1h-2v-2c0-0.552-0.448-1-1-1s-1 0.448-1 1v2h-2z"></path>
<path d="M23 15.098c-4.418 0-8 3.582-8 8s3.582 8 8 8c4.418 0 8-3.582 8-8s-3.582-8-8-8zM17 23.098c0-3.314 2.686-6 6-6s6 2.686 6 6c0 3.314-2.686 6-6 6s-6-2.686-6-6z"></path>
</svg>
