<!-- Generated by IcoMoon.io -->
<svg version="1.1" xmlns="http://www.w3.org/2000/svg" width="20" height="20" viewBox="0 0 20 20">
<title>security-delete</title>
<path d="M17.5 4.659l-7.5-3.409-7.5 3.409v5.402c0 3.323 2.536 6.566 6.365 8.318 0.314 0.144 0.685 0.006 0.828-0.308s0.006-0.685-0.308-0.828c-3.546-1.623-5.635-4.504-5.635-7.182v-4.598l6.25-2.841 6.25 2.841v3.223c0 0.345 0.28 0.625 0.625 0.625s0.625-0.28 0.625-0.625v-4.027z"></path>
<path d="M16.067 12.745c0.244 0.244 0.244 0.64 0 0.884l-0.808 0.808 0.808 0.808c0.244 0.244 0.244 0.64 0 0.884s-0.64 0.244-0.884 0l-0.808-0.808-0.808 0.808c-0.244 0.244-0.64 0.244-0.884 0s-0.244-0.64 0-0.884l0.808-0.808-0.808-0.808c-0.244-0.244-0.244-0.64 0-0.884s0.64-0.244 0.884 0l0.808 0.808 0.808-0.808c0.244-0.244 0.64-0.244 0.884 0z"></path>
<path d="M14.375 9.437c-2.761 0-5 2.239-5 5s2.239 5 5 5c2.761 0 5-2.239 5-5s-2.239-5-5-5zM10.625 14.437c0-2.071 1.679-3.75 3.75-3.75s3.75 1.679 3.75 3.75c0 2.071-1.679 3.75-3.75 3.75s-3.75-1.679-3.75-3.75z"></path>
</svg>
