<!-- Generated by IcoMoon.io -->
<svg version="1.1" xmlns="http://www.w3.org/2000/svg" width="20" height="20" viewBox="0 0 20 20">
<title>security-ok</title>
<path d="M10 1.25l7.5 3.409v4.027c0 0.345-0.28 0.625-0.625 0.625s-0.625-0.28-0.625-0.625v-3.223l-6.25-2.841-6.25 2.841v4.598c0 2.677 2.089 5.559 5.635 7.182 0.314 0.144 0.452 0.514 0.308 0.828s-0.514 0.452-0.828 0.308c-3.829-1.752-6.365-4.996-6.365-8.318v-5.402l7.5-3.409z"></path>
<path d="M16.692 13.628c0.244-0.244 0.244-0.64 0-0.884s-0.64-0.244-0.884 0l-2.058 2.058-0.808-0.808c-0.244-0.244-0.64-0.244-0.884 0s-0.244 0.64 0 0.884l1.692 1.692 2.942-2.942z"></path>
<path d="M9.375 14.437c0-2.761 2.239-5 5-5s5 2.239 5 5c0 2.761-2.239 5-5 5s-5-2.239-5-5zM14.375 10.687c-2.071 0-3.75 1.679-3.75 3.75s1.679 3.75 3.75 3.75c2.071 0 3.75-1.679 3.75-3.75s-1.679-3.75-3.75-3.75z"></path>
</svg>
