<!-- Generated by IcoMoon.io -->
<svg version="1.1" xmlns="http://www.w3.org/2000/svg" width="32" height="32" viewBox="0 0 32 32">
<title>security-remove</title>
<path d="M16 2l12 5.455v6.444c0 0.552-0.448 1-1 1s-1-0.448-1-1v-5.156l-10-4.545-10 4.545v7.356c0 4.284 3.342 8.894 9.016 11.491 0.502 0.23 0.723 0.823 0.493 1.325s-0.823 0.723-1.325 0.493c-6.126-2.803-10.184-7.993-10.184-13.309v-8.644l12-5.455z"></path>
<path d="M20 22.098c-0.552 0-1 0.448-1 1s0.448 1 1 1h6c0.552 0 1-0.448 1-1s-0.448-1-1-1h-6z"></path>
<path d="M15 23.098c0-4.418 3.582-8 8-8s8 3.582 8 8c0 4.418-3.582 8-8 8s-8-3.582-8-8zM23 17.098c-3.314 0-6 2.686-6 6s2.686 6 6 6c3.314 0 6-2.686 6-6s-2.686-6-6-6z"></path>
</svg>
