<!-- Generated by IcoMoon.io -->
<svg version="1.1" xmlns="http://www.w3.org/2000/svg" width="20" height="20" viewBox="0 0 20 20">
<title>semaphore</title>
<path d="M10 3.75c-1.036 0-1.875 0.839-1.875 1.875s0.839 1.875 1.875 1.875 1.875-0.839 1.875-1.875c0-1.036-0.839-1.875-1.875-1.875zM9.375 5.625c0-0.345 0.28-0.625 0.625-0.625s0.625 0.28 0.625 0.625c0 0.345-0.28 0.625-0.625 0.625s-0.625-0.28-0.625-0.625z"></path>
<path d="M8.125 10c0-1.036 0.839-1.875 1.875-1.875s1.875 0.839 1.875 1.875c0 1.036-0.839 1.875-1.875 1.875s-1.875-0.839-1.875-1.875zM10 9.375c-0.345 0-0.625 0.28-0.625 0.625s0.28 0.625 0.625 0.625c0.345 0 0.625-0.28 0.625-0.625s-0.28-0.625-0.625-0.625z"></path>
<path d="M10 12.5c-1.036 0-1.875 0.839-1.875 1.875s0.839 1.875 1.875 1.875c1.036 0 1.875-0.839 1.875-1.875s-0.839-1.875-1.875-1.875zM9.375 14.375c0-0.345 0.28-0.625 0.625-0.625s0.625 0.28 0.625 0.625c0 0.345-0.28 0.625-0.625 0.625s-0.625-0.28-0.625-0.625z"></path>
<path d="M5.625 12.5h-2.5v1.25c0 1.408 1.092 2.5 2.5 2.5 0 1.408 1.092 2.5 2.5 2.5h3.75c1.408 0 2.5-1.092 2.5-2.5 1.408 0 2.5-1.092 2.5-2.5v-1.25h-2.5v-0.625c1.408 0 2.5-1.092 2.5-2.5v-1.25h-2.5v-0.625c1.408 0 2.5-1.092 2.5-2.5v-1.25h-2.5c0-1.408-1.092-2.5-2.5-2.5h-3.75c-1.408 0-2.5 1.092-2.5 2.5h-2.5v1.25c0 1.408 1.092 2.5 2.5 2.5v0.625h-2.5v1.25c0 1.408 1.092 2.5 2.5 2.5v0.625zM6.875 3.75c0-0.717 0.533-1.25 1.25-1.25h3.75c0.717 0 1.25 0.533 1.25 1.25v12.5c0 0.717-0.533 1.25-1.25 1.25h-3.75c-0.717 0-1.25-0.533-1.25-1.25v-12.5zM5.625 15c-0.717 0-1.25-0.533-1.25-1.25h1.25v1.25zM5.625 9.375v1.25c-0.717 0-1.25-0.533-1.25-1.25h1.25zM5.625 6.25c-0.717 0-1.25-0.533-1.25-1.25h1.25v1.25zM15.625 13.75c0 0.717-0.533 1.25-1.25 1.25v-1.25h1.25zM14.375 9.375h1.25c0 0.717-0.533 1.25-1.25 1.25v-1.25zM15.625 5c0 0.717-0.533 1.25-1.25 1.25v-1.25h1.25z"></path>
</svg>
