<!-- Generated by IcoMoon.io -->
<svg version="1.1" xmlns="http://www.w3.org/2000/svg" width="20" height="20" viewBox="0 0 20 20">
<title>sentry</title>
<path d="M12.3 16.163c-0.413-4.338-2.681-7.45-6.25-9.8 0.881-1.462 1.638-2.906 2.575-4.225 0.794-1.138 2.3-0.944 3.081 0.319s1.531 2.612 2.281 3.925c1.019 1.813 2.031 3.644 3.056 5.45 0.569 1.019 1.2 2.012 1.725 3.056 0.261 0.498 0.403 1.050 0.413 1.613-0.003 0.436-0.176 0.853-0.482 1.163s-0.72 0.489-1.156 0.499c-0.475 0.050-0.962 0.038-1.444 0.044-0.172-0.005-0.343-0.020-0.513-0.044v-1.931c0.219 0 0.419-0.037 0.625-0.044 0.856 0 1.012-0.256 0.625-0.988l-1.925-3.394c-1.45-2.5-2.873-4.99-4.269-7.469-0.475-0.825-0.75-0.819-1.213 0l-0.719 1.25c0.001 0.064-0.012 0.128-0.037 0.188 3.681 3.256 5.831 7.237 5.5 12.387h-5.088c0-0.256 0.038-0.55 0.038-0.856 0.004-1.718-0.479-3.402-1.394-4.856v0.037c-0.515-0.748-1.070-1.468-1.662-2.156-0.15 0.2-0.194 0.275-0.25 0.344-0.506 0.625-0.494 1.063 0.094 1.719 1.162 1.334 1.799 3.044 1.794 4.813 0.001 0.332-0.019 0.664-0.063 0.994v-0.037c-0.175 0.035-0.353 0.056-0.531 0.063h-4.044c-2.075 0.031-2.719-1.8-1.875-3.225 0.313-0.519 0.625-1.062 0.962-1.662l1.481 1.131c-0.194 0.337-0.356 0.625-0.5 0.894-0.262 0.513-0.112 0.813 0.456 0.831h2.144c-0.152-0.843-0.488-1.643-0.984-2.342s-1.139-1.28-1.885-1.702c0.831-1.506 1.669-2.969 2.544-4.475 1.527 0.866 2.826 2.083 3.788 3.552s1.56 3.146 1.743 4.892v0.050h0.688c0.225 0.004 0.451-0.006 0.675-0.031l-0.006 0.025z"></path>
</svg>
