<!-- Generated by IcoMoon.io -->
<svg version="1.1" xmlns="http://www.w3.org/2000/svg" width="32" height="32" viewBox="0 0 32 32">
<title>sentry</title>
<path d="M19.68 25.86c-0.66-6.94-4.29-11.92-10-15.68 1.41-2.34 2.62-4.65 4.12-6.76 1.27-1.82 3.68-1.51 4.93 0.51s2.45 4.18 3.65 6.28c1.63 2.9 3.25 5.83 4.89 8.72 0.91 1.63 1.92 3.22 2.76 4.89 0.418 0.797 0.644 1.68 0.66 2.58-0.005 0.697-0.281 1.365-0.771 1.861s-1.152 0.783-1.849 0.799c-0.76 0.080-1.54 0.060-2.31 0.070-0.274-0.008-0.548-0.031-0.82-0.070v-3.090c0.35 0 0.67-0.060 1-0.070 1.37 0 1.62-0.41 1-1.58l-3.080-5.43c-2.32-4-4.597-7.983-6.83-11.95-0.76-1.32-1.2-1.31-1.94 0l-1.15 2c0.001 0.103-0.020 0.205-0.060 0.3 5.89 5.21 9.33 11.58 8.8 19.82h-8.14c0-0.41 0.060-0.88 0.060-1.37 0.007-2.749-0.766-5.443-2.23-7.77v0.060c-0.825-1.196-1.713-2.348-2.66-3.45-0.24 0.32-0.31 0.44-0.4 0.55-0.81 1-0.79 1.7 0.15 2.75 1.859 2.134 2.879 4.87 2.87 7.7 0.002 0.532-0.031 1.063-0.1 1.59v-0.060c-0.28 0.056-0.565 0.089-0.85 0.1h-6.47c-3.32 0.050-4.35-2.88-3-5.16 0.5-0.83 1-1.7 1.54-2.66l2.37 1.81c-0.31 0.54-0.57 1-0.8 1.43-0.42 0.82-0.18 1.3 0.73 1.33h3.43c-0.243-1.349-0.781-2.628-1.574-3.747s-1.823-2.048-3.016-2.724c1.33-2.41 2.67-4.75 4.070-7.16 2.444 1.385 4.522 3.334 6.061 5.683s2.495 5.033 2.789 7.827v0.080h1.1c0.361 0.006 0.721-0.010 1.080-0.050l-0.010 0.040z"></path>
</svg>
