<!-- Generated by IcoMoon.io -->
<svg version="1.1" xmlns="http://www.w3.org/2000/svg" width="20" height="20" viewBox="0 0 20 20">
<title>server-link</title>
<path d="M3.75 5c0-0.345 0.28-0.625 0.625-0.625h3.75c0.345 0 0.625 0.28 0.625 0.625s-0.28 0.625-0.625 0.625h-3.75c-0.345 0-0.625-0.28-0.625-0.625z"></path>
<path d="M10 5c0-0.345 0.28-0.625 0.625-0.625h0.625c0.345 0 0.625 0.28 0.625 0.625s-0.28 0.625-0.625 0.625h-0.625c-0.345 0-0.625-0.28-0.625-0.625z"></path>
<path d="M4.375 9.375c-0.345 0-0.625 0.28-0.625 0.625s0.28 0.625 0.625 0.625h3.75c0.345 0 0.625-0.28 0.625-0.625s-0.28-0.625-0.625-0.625h-3.75z"></path>
<path d="M10.625 9.375c-0.345 0-0.625 0.28-0.625 0.625s0.28 0.625 0.625 0.625h0.625c0.345 0 0.625-0.28 0.625-0.625s-0.28-0.625-0.625-0.625h-0.625z"></path>
<path d="M1.25 4.375c0-1.408 1.092-2.5 2.5-2.5h12.5c1.408 0 2.5 1.092 2.5 2.5v6.25c0 1.408-1.092 2.5-2.5 2.5h-5.625v2.042c0.19 0.11 0.348 0.268 0.458 0.458h7.042c0.345 0 0.625 0.28 0.625 0.625s-0.28 0.625-0.625 0.625h-7.042c-0.216 0.374-0.62 0.625-1.083 0.625s-0.867-0.251-1.083-0.625h-7.042c-0.345 0-0.625-0.28-0.625-0.625s0.28-0.625 0.625-0.625h7.042c0.11-0.19 0.268-0.348 0.458-0.458v-2.042h-5.625c-1.408 0-2.5-1.092-2.5-2.5v-6.25zM3.75 3.125c-0.717 0-1.25 0.533-1.25 1.25v2.5h15v-2.5c0-0.717-0.533-1.25-1.25-1.25h-12.5zM16.25 11.875c0.717 0 1.25-0.533 1.25-1.25v-2.5h-15v2.5c0 0.717 0.533 1.25 1.25 1.25h12.5z"></path>
</svg>
