<!-- Generated by IcoMoon.io -->
<svg version="1.1" xmlns="http://www.w3.org/2000/svg" width="32" height="32" viewBox="0 0 32 32">
<title>server</title>
<path d="M6 8c0-0.552 0.448-1 1-1h6c0.552 0 1 0.448 1 1s-0.448 1-1 1h-6c-0.552 0-1-0.448-1-1z"></path>
<path d="M17 7c-0.552 0-1 0.448-1 1s0.448 1 1 1h1c0.552 0 1-0.448 1-1s-0.448-1-1-1h-1z"></path>
<path d="M7 15c-0.552 0-1 0.448-1 1s0.448 1 1 1h6c0.552 0 1-0.448 1-1s-0.448-1-1-1h-6z"></path>
<path d="M16 16c0-0.552 0.448-1 1-1h1c0.552 0 1 0.448 1 1s-0.448 1-1 1h-1c-0.552 0-1-0.448-1-1z"></path>
<path d="M6 24c0-0.552 0.448-1 1-1h6c0.552 0 1 0.448 1 1s-0.448 1-1 1h-6c-0.552 0-1-0.448-1-1z"></path>
<path d="M17 23c-0.552 0-1 0.448-1 1s0.448 1 1 1h1c0.552 0 1-0.448 1-1s-0.448-1-1-1h-1z"></path>
<path d="M2 7c0-2.252 1.748-4 4-4h20c2.252 0 4 1.748 4 4v18c0 2.252-1.748 4-4 4h-20c-2.252 0-4-1.748-4-4v-18zM6 5c-1.148 0-2 0.852-2 2v4h24v-4c0-1.148-0.852-2-2-2h-20zM4 13v6h24v-6h-24zM4 25c0 1.148 0.852 2 2 2h20c1.148 0 2-0.852 2-2v-4h-24v4z"></path>
</svg>
