<!-- Generated by IcoMoon.io -->
<svg version="1.1" xmlns="http://www.w3.org/2000/svg" width="20" height="20" viewBox="0 0 20 20">
<title>settings-add</title>
<path d="M9.963 1.25h0.060c0.386 0 0.663 0 0.849 0.008 0.093 0.004 0.193 0.012 0.285 0.030 0.072 0.014 0.257 0.054 0.41 0.208 0.118 0.118 0.185 0.274 0.212 0.336l0 0.001c0.040 0.093 0.079 0.2 0.115 0.309 0.073 0.219 0.149 0.485 0.217 0.735 0.068 0.252 0.13 0.496 0.174 0.678l0.545 0.242c0.157-0.094 0.363-0.216 0.578-0.339 0.222-0.127 0.46-0.259 0.663-0.36 0.101-0.050 0.202-0.098 0.293-0.135 0.046-0.018 0.097-0.037 0.151-0.052 0.044-0.012 0.131-0.035 0.234-0.035 0.178 0 0.323 0.064 0.413 0.111 0.097 0.051 0.19 0.118 0.279 0.188 0.178 0.141 0.403 0.35 0.688 0.635s0.494 0.509 0.635 0.687c0.070 0.089 0.137 0.183 0.188 0.279 0.047 0.089 0.111 0.234 0.111 0.413 0 0.103-0.023 0.19-0.035 0.234-0.015 0.053-0.034 0.105-0.052 0.151-0.037 0.091-0.084 0.193-0.135 0.293-0.101 0.203-0.233 0.441-0.36 0.663-0.123 0.215-0.245 0.422-0.339 0.578l0.367 0.827c0.14 0.315-0.002 0.685-0.317 0.825s-0.685-0.002-0.825-0.317l-0.634-1.426 0.183-0.298 0.031-0.051c0.027-0.044 0.065-0.107 0.111-0.184 0.092-0.154 0.215-0.361 0.337-0.574 0.123-0.215 0.241-0.43 0.327-0.602 0.012-0.025 0.024-0.048 0.034-0.069-0.097-0.119-0.258-0.292-0.511-0.545s-0.427-0.413-0.545-0.511c-0.021 0.010-0.045 0.022-0.069 0.034-0.172 0.086-0.387 0.204-0.602 0.327-0.214 0.122-0.421 0.245-0.574 0.337-0.077 0.046-0.14 0.084-0.184 0.111l-0.068 0.041-0.281 0.173-1.71-0.76-0.071-0.303-0.005-0.020-0.014-0.058c-0.012-0.050-0.030-0.123-0.051-0.211-0.043-0.176-0.103-0.411-0.167-0.651-0.065-0.242-0.134-0.48-0.196-0.665l-0.011-0.033c-0.155-0.003-0.376-0.003-0.698-0.003-0.37 0-0.593 0-0.74 0.009-0.010 0.027-0.020 0.057-0.031 0.090-0.062 0.185-0.13 0.423-0.196 0.665-0.065 0.24-0.124 0.475-0.167 0.651-0.022 0.088-0.039 0.16-0.051 0.211l-0.014 0.058-0.005 0.019-0.071 0.303-1.71 0.76-0.348-0.214c-0.044-0.027-0.107-0.065-0.184-0.111-0.154-0.092-0.361-0.215-0.574-0.337-0.215-0.123-0.43-0.241-0.602-0.327-0.025-0.012-0.048-0.024-0.069-0.034-0.119 0.097-0.292 0.258-0.545 0.511l-0.013 0.013-0.014 0.012c-0.235 0.209-0.387 0.36-0.481 0.464 0.009 0.019 0.020 0.040 0.031 0.062 0.086 0.172 0.204 0.387 0.327 0.602 0.122 0.214 0.245 0.421 0.337 0.574 0.046 0.077 0.084 0.14 0.111 0.184l0.031 0.051 0.010 0.017 0.173 0.281-0.76 1.71-0.381 0.089c-0.050 0.012-0.123 0.030-0.211 0.051-0.176 0.043-0.411 0.103-0.651 0.167-0.242 0.065-0.48 0.134-0.665 0.196l-0.032 0.011c-0.005 0.162-0.005 0.398-0.005 0.761 0 0.37 0 0.593 0.009 0.74 0.027 0.010 0.057 0.020 0.090 0.031 0.185 0.062 0.423 0.13 0.665 0.196 0.24 0.065 0.475 0.124 0.651 0.167 0.088 0.022 0.16 0.039 0.211 0.051l0.078 0.018 0.303 0.071 0.76 1.71-0.183 0.298-0.031 0.051c-0.027 0.044-0.065 0.107-0.111 0.184-0.092 0.154-0.215 0.361-0.337 0.574-0.123 0.215-0.241 0.43-0.327 0.602-0.012 0.025-0.024 0.048-0.034 0.069 0.097 0.118 0.258 0.292 0.511 0.545s0.427 0.413 0.545 0.511c0.021-0.010 0.045-0.022 0.069-0.034 0.172-0.086 0.387-0.204 0.602-0.327 0.214-0.122 0.421-0.245 0.574-0.337 0.077-0.046 0.14-0.084 0.184-0.111l0.064-0.039 0.284-0.175 1.426 0.634c0.315 0.14 0.457 0.51 0.317 0.825s-0.51 0.457-0.825 0.317l-0.827-0.367c-0.156 0.094-0.363 0.216-0.578 0.339-0.222 0.127-0.46 0.259-0.663 0.36-0.101 0.050-0.202 0.098-0.293 0.135-0.046 0.018-0.097 0.037-0.151 0.052-0.044 0.013-0.131 0.035-0.234 0.035-0.178 0-0.323-0.064-0.413-0.111-0.097-0.051-0.19-0.118-0.279-0.188-0.178-0.141-0.403-0.35-0.687-0.635s-0.494-0.509-0.635-0.688c-0.070-0.089-0.137-0.183-0.188-0.279-0.047-0.089-0.111-0.234-0.111-0.413 0-0.103 0.023-0.19 0.035-0.234 0.015-0.053 0.034-0.105 0.052-0.151 0.037-0.092 0.084-0.193 0.135-0.293 0.101-0.203 0.233-0.441 0.36-0.663 0.123-0.215 0.245-0.422 0.339-0.578l-0.242-0.545c-0.181-0.045-0.426-0.106-0.678-0.174-0.25-0.067-0.516-0.143-0.735-0.217-0.109-0.036-0.216-0.075-0.309-0.115l-0.001-0c-0.062-0.027-0.217-0.094-0.336-0.212-0.229-0.229-0.272-0.521-0.29-0.724-0.018-0.207-0.018-0.495-0.018-0.869v-0.058c0-0.388 0-0.664 0.008-0.858 0.008-0.173 0.022-0.393 0.12-0.588l0.045-0.091 0.072-0.072c0.118-0.118 0.274-0.185 0.336-0.212l0.001-0c0.093-0.040 0.2-0.079 0.309-0.115 0.219-0.073 0.485-0.149 0.735-0.217 0.252-0.068 0.496-0.13 0.678-0.174l0.242-0.545c-0.094-0.156-0.216-0.363-0.339-0.578-0.127-0.222-0.259-0.46-0.36-0.663-0.050-0.101-0.098-0.202-0.135-0.293-0.018-0.046-0.037-0.097-0.052-0.151-0.012-0.044-0.035-0.131-0.035-0.234 0-0.179 0.064-0.324 0.113-0.416 0.053-0.099 0.122-0.193 0.196-0.281 0.144-0.173 0.354-0.381 0.637-0.633 0.279-0.278 0.499-0.483 0.675-0.622 0.089-0.070 0.183-0.137 0.279-0.188 0.089-0.047 0.234-0.111 0.413-0.111 0.103 0 0.19 0.023 0.234 0.035 0.053 0.015 0.105 0.034 0.151 0.052 0.091 0.037 0.193 0.084 0.293 0.135 0.203 0.101 0.441 0.233 0.663 0.36 0.215 0.123 0.422 0.245 0.578 0.339l0.545-0.242c0.045-0.181 0.106-0.426 0.174-0.678 0.068-0.25 0.143-0.516 0.217-0.735 0.036-0.109 0.075-0.216 0.115-0.309l0-0.001c0.027-0.062 0.094-0.217 0.212-0.336 0.229-0.229 0.521-0.272 0.724-0.29 0.207-0.018 0.495-0.018 0.869-0.018zM2.353 10.677c0 0 0.003 0.001 0.007 0.004-0.005-0.003-0.008-0.004-0.007-0.004zM2.291 9.323c-0 0 0.002-0.001 0.007-0.004-0.005 0.003-0.007 0.004-0.007 0.004zM9.323 2.353c0 0-0.001 0.003-0.004 0.007 0.003-0.005 0.004-0.008 0.004-0.007zM10.614 2.291c0-0 0.001 0.002 0.004 0.007-0.003-0.005-0.004-0.007-0.004-0.007z"></path>
<path d="M10 7.5c-1.405 0-2.5 1.095-2.5 2.5 0 0.891 0.498 1.702 1.213 2.162 0.29 0.187 0.374 0.573 0.188 0.864s-0.573 0.374-0.864 0.188c-1.035-0.665-1.787-1.854-1.787-3.213 0-2.095 1.655-3.75 3.75-3.75 1.359 0 2.548 0.752 3.213 1.787 0.187 0.29 0.103 0.677-0.188 0.864s-0.677 0.103-0.864-0.188c-0.46-0.715-1.271-1.213-2.162-1.213z"></path>
<path d="M11.875 14.375c0-0.345 0.28-0.625 0.625-0.625h1.25v-1.25c0-0.345 0.28-0.625 0.625-0.625s0.625 0.28 0.625 0.625v1.25h1.25c0.345 0 0.625 0.28 0.625 0.625s-0.28 0.625-0.625 0.625h-1.25v1.25c0 0.345-0.28 0.625-0.625 0.625s-0.625-0.28-0.625-0.625v-1.25h-1.25c-0.345 0-0.625-0.28-0.625-0.625z"></path>
<path d="M14.375 9.375c-2.761 0-5 2.239-5 5s2.239 5 5 5c2.761 0 5-2.239 5-5s-2.239-5-5-5zM10.625 14.375c0-2.071 1.679-3.75 3.75-3.75s3.75 1.679 3.75 3.75c0 2.071-1.679 3.75-3.75 3.75s-3.75-1.679-3.75-3.75z"></path>
</svg>
