<!-- Generated by IcoMoon.io -->
<svg version="1.1" xmlns="http://www.w3.org/2000/svg" width="32" height="32" viewBox="0 0 32 32">
<title>settings-delete</title>
<path d="M15.941 2h0.096c0.617 0 1.061 0 1.358 0.014 0.149 0.007 0.309 0.019 0.456 0.047 0.116 0.023 0.411 0.087 0.656 0.332 0.189 0.189 0.297 0.438 0.339 0.537l0.001 0.001c0.064 0.148 0.126 0.321 0.184 0.495 0.117 0.351 0.238 0.776 0.346 1.176 0.109 0.403 0.207 0.794 0.279 1.084l0.872 0.388c0.25-0.15 0.581-0.346 0.925-0.542 0.355-0.203 0.737-0.414 1.061-0.576 0.161-0.080 0.323-0.157 0.47-0.215 0.073-0.029 0.155-0.059 0.241-0.084 0.070-0.020 0.21-0.056 0.374-0.056 0.285 0 0.517 0.102 0.66 0.177 0.155 0.082 0.305 0.188 0.447 0.3 0.285 0.225 0.644 0.559 1.1 1.015s0.79 0.815 1.015 1.1c0.112 0.142 0.219 0.292 0.3 0.447 0.075 0.143 0.177 0.375 0.177 0.66 0 0.165-0.036 0.304-0.056 0.374-0.024 0.085-0.055 0.168-0.084 0.241-0.058 0.146-0.135 0.309-0.215 0.47-0.162 0.325-0.373 0.706-0.576 1.061-0.197 0.344-0.392 0.675-0.542 0.925l0.588 1.323c0.224 0.505-0.003 1.096-0.508 1.32s-1.096-0.003-1.32-0.508l-1.014-2.281 0.293-0.476 0.049-0.081c0.043-0.070 0.104-0.172 0.178-0.295 0.148-0.246 0.344-0.577 0.539-0.919 0.197-0.344 0.386-0.688 0.524-0.964 0.020-0.040 0.038-0.077 0.054-0.111-0.156-0.19-0.412-0.467-0.817-0.872s-0.683-0.661-0.872-0.817c-0.034 0.016-0.071 0.035-0.111 0.054-0.275 0.138-0.619 0.327-0.964 0.524-0.342 0.195-0.673 0.391-0.919 0.539-0.123 0.074-0.224 0.135-0.294 0.178l-0.108 0.066-0.449 0.276-2.736-1.216-0.113-0.484-0.007-0.031-0.022-0.093c-0.019-0.081-0.047-0.197-0.082-0.337-0.069-0.282-0.164-0.658-0.268-1.042-0.104-0.387-0.214-0.769-0.313-1.065l-0.018-0.053c-0.248-0.005-0.601-0.005-1.116-0.005-0.592 0-0.949 0.001-1.185 0.015-0.015 0.043-0.032 0.091-0.050 0.144-0.099 0.296-0.208 0.677-0.313 1.065-0.104 0.384-0.199 0.761-0.268 1.042-0.034 0.141-0.063 0.257-0.082 0.337l-0.022 0.093-0.007 0.031-0.113 0.485-2.736 1.216-0.557-0.342c-0.070-0.043-0.172-0.104-0.295-0.178-0.246-0.148-0.577-0.344-0.919-0.539-0.344-0.197-0.688-0.386-0.964-0.524-0.040-0.020-0.077-0.038-0.111-0.054-0.19 0.156-0.467 0.412-0.872 0.817l-0.021 0.021-0.022 0.020c-0.377 0.335-0.619 0.575-0.769 0.743 0.015 0.031 0.031 0.064 0.049 0.1 0.138 0.275 0.327 0.619 0.524 0.964 0.195 0.342 0.391 0.673 0.539 0.919 0.074 0.123 0.135 0.224 0.178 0.295l0.049 0.081 0.017 0.027 0.276 0.449-1.216 2.736-0.609 0.143c-0.081 0.019-0.197 0.047-0.337 0.082-0.282 0.069-0.658 0.164-1.042 0.268-0.387 0.104-0.769 0.214-1.065 0.313l-0.051 0.017c-0.008 0.259-0.008 0.636-0.008 1.217 0 0.592 0.001 0.949 0.015 1.185 0.043 0.015 0.091 0.032 0.144 0.049 0.296 0.099 0.677 0.209 1.065 0.313 0.384 0.104 0.761 0.199 1.042 0.268 0.141 0.035 0.257 0.063 0.337 0.082l0.124 0.029 0.485 0.113 1.216 2.736-0.293 0.476-0.049 0.081c-0.043 0.070-0.104 0.172-0.178 0.294-0.148 0.246-0.344 0.577-0.539 0.919-0.197 0.345-0.386 0.688-0.524 0.964-0.020 0.040-0.038 0.077-0.054 0.111 0.156 0.19 0.412 0.467 0.817 0.872s0.683 0.662 0.872 0.817c0.034-0.016 0.071-0.035 0.111-0.054 0.275-0.138 0.619-0.327 0.964-0.524 0.342-0.195 0.673-0.392 0.919-0.539 0.123-0.074 0.224-0.135 0.295-0.178l0.102-0.062 0.455-0.28 2.281 1.014c0.505 0.224 0.732 0.815 0.508 1.32s-0.815 0.732-1.32 0.508l-1.323-0.588c-0.25 0.15-0.581 0.346-0.925 0.542-0.355 0.203-0.737 0.414-1.061 0.576-0.161 0.081-0.323 0.157-0.47 0.215-0.073 0.029-0.156 0.059-0.241 0.084-0.070 0.020-0.21 0.056-0.374 0.056-0.285 0-0.518-0.102-0.66-0.177-0.155-0.082-0.305-0.188-0.447-0.3-0.285-0.225-0.644-0.559-1.1-1.015s-0.79-0.815-1.015-1.1c-0.112-0.142-0.219-0.292-0.3-0.447-0.075-0.143-0.177-0.375-0.177-0.66 0-0.165 0.036-0.304 0.056-0.374 0.024-0.085 0.055-0.168 0.084-0.241 0.059-0.146 0.135-0.309 0.215-0.47 0.162-0.325 0.373-0.706 0.576-1.061 0.197-0.344 0.392-0.675 0.542-0.925l-0.388-0.872c-0.29-0.071-0.682-0.17-1.084-0.279-0.4-0.108-0.825-0.23-1.176-0.346-0.174-0.058-0.346-0.12-0.495-0.184l-0.001-0.001c-0.099-0.043-0.348-0.15-0.537-0.339-0.367-0.366-0.436-0.833-0.464-1.158-0.029-0.331-0.029-0.793-0.029-1.39v-0.092c0-0.62 0-1.063 0.013-1.372 0.012-0.277 0.036-0.628 0.192-0.941l0.073-0.145 0.115-0.115c0.189-0.189 0.438-0.297 0.537-0.339l0.001-0.001c0.148-0.064 0.321-0.126 0.495-0.184 0.351-0.117 0.776-0.238 1.176-0.347 0.403-0.109 0.794-0.207 1.084-0.279l0.388-0.872c-0.15-0.25-0.346-0.581-0.542-0.925-0.203-0.355-0.414-0.737-0.576-1.061-0.080-0.161-0.157-0.323-0.215-0.47-0.029-0.073-0.059-0.156-0.084-0.241-0.020-0.070-0.056-0.21-0.056-0.374 0-0.286 0.102-0.519 0.181-0.666 0.085-0.158 0.196-0.309 0.313-0.449 0.231-0.277 0.567-0.61 1.019-1.013 0.446-0.445 0.798-0.773 1.079-0.995 0.142-0.112 0.292-0.219 0.447-0.3 0.143-0.075 0.375-0.177 0.66-0.177 0.165 0 0.304 0.036 0.374 0.056 0.085 0.024 0.168 0.055 0.241 0.084 0.146 0.059 0.309 0.135 0.47 0.215 0.325 0.162 0.706 0.373 1.061 0.576 0.344 0.197 0.675 0.392 0.925 0.542l0.872-0.388c0.071-0.29 0.17-0.682 0.279-1.084 0.108-0.4 0.23-0.825 0.347-1.176 0.058-0.174 0.12-0.346 0.184-0.495l0.001-0.001c0.043-0.099 0.15-0.348 0.339-0.537 0.367-0.367 0.833-0.436 1.158-0.464 0.331-0.029 0.793-0.029 1.39-0.029zM3.765 17.083c0 0 0.005 0.002 0.012 0.006-0.008-0.004-0.012-0.006-0.012-0.006zM3.665 14.917c-0 0 0.003-0.002 0.012-0.006-0.007 0.004-0.012 0.006-0.012 0.006zM14.917 3.765c0 0-0.002 0.005-0.006 0.012 0.004-0.008 0.006-0.012 0.006-0.012zM16.983 3.665c0-0 0.002 0.003 0.006 0.012-0.004-0.007-0.006-0.012-0.006-0.012z"></path>
<path d="M16 12c-2.248 0-4 1.752-4 4 0 1.425 0.797 2.724 1.941 3.459 0.464 0.299 0.599 0.917 0.3 1.382s-0.917 0.599-1.382 0.3c-1.656-1.065-2.859-2.967-2.859-5.141 0-3.352 2.648-6 6-6 2.175 0 4.076 1.203 5.141 2.859 0.299 0.465 0.164 1.083-0.3 1.382s-1.083 0.164-1.382-0.3c-0.735-1.144-2.033-1.941-3.459-1.941z"></path>
<path d="M25.707 20.293c0.39 0.39 0.39 1.024 0 1.414l-1.293 1.293 1.293 1.293c0.39 0.39 0.39 1.024 0 1.414s-1.024 0.39-1.414 0l-1.293-1.293-1.293 1.293c-0.39 0.39-1.024 0.39-1.414 0s-0.39-1.024 0-1.414l1.293-1.293-1.293-1.293c-0.39-0.39-0.39-1.024 0-1.414s1.024-0.39 1.414 0l1.293 1.293 1.293-1.293c0.39-0.39 1.024-0.39 1.414 0z"></path>
<path d="M23 15c-4.418 0-8 3.582-8 8s3.582 8 8 8c4.418 0 8-3.582 8-8s-3.582-8-8-8zM17 23c0-3.314 2.686-6 6-6s6 2.686 6 6c0 3.314-2.686 6-6 6s-6-2.686-6-6z"></path>
</svg>
