<!-- Generated by IcoMoon.io -->
<svg version="1.1" xmlns="http://www.w3.org/2000/svg" width="20" height="20" viewBox="0 0 20 20">
<title>sex-female</title>
<path d="M5 8.125c0-3.797 3.078-6.875 6.875-6.875s6.875 3.078 6.875 6.875c0 3.797-3.078 6.875-6.875 6.875-1.673 0-3.207-0.598-4.399-1.592l-1.904 1.904 1.746 1.746c0.244 0.244 0.244 0.64 0 0.884s-0.64 0.244-0.884 0l-1.746-1.746-2.371 2.371c-0.244 0.244-0.64 0.244-0.884 0s-0.244-0.64 0-0.884l2.371-2.371-1.746-1.746c-0.244-0.244-0.244-0.64 0-0.884s0.64-0.244 0.884 0l1.746 1.746 1.904-1.904c-0.994-1.192-1.592-2.726-1.592-4.399zM11.875 2.5c-3.107 0-5.625 2.518-5.625 5.625s2.518 5.625 5.625 5.625 5.625-2.518 5.625-5.625c0-3.107-2.518-5.625-5.625-5.625z"></path>
</svg>
