<!-- Generated by IcoMoon.io -->
<svg version="1.1" xmlns="http://www.w3.org/2000/svg" width="32" height="32" viewBox="0 0 32 32">
<title>sex-male</title>
<path d="M29 2h1v0.997c0 0.002 0 0.005 0 0.007v7.997c0 0.552-0.448 1-1 1s-1-0.448-1-1v-5.586l-6.547 6.547c1.59 1.908 2.547 4.362 2.547 7.039 0 6.075-4.925 11-11 11s-11-4.925-11-11c0-6.075 4.925-11 11-11 2.678 0 5.132 0.957 7.039 2.547l6.547-6.547h-5.586c-0.552 0-1-0.448-1-1s0.448-1 1-1h8c0 0-0 0 0 0zM13 10c-4.971 0-9 4.029-9 9s4.029 9 9 9c4.971 0 9-4.029 9-9s-4.029-9-9-9z"></path>
</svg>
