<!-- Generated by IcoMoon.io -->
<svg version="1.1" xmlns="http://www.w3.org/2000/svg" width="32" height="32" viewBox="0 0 32 32">
<title>sex-female</title>
<path d="M8 13c0-6.075 4.925-11 11-11s11 4.925 11 11c0 6.075-4.925 11-11 11-2.678 0-5.131-0.957-7.039-2.547l-3.047 3.047 2.793 2.793c0.39 0.39 0.39 1.024 0 1.414s-1.024 0.39-1.414 0l-2.793-2.793-3.793 3.793c-0.391 0.39-1.024 0.39-1.414 0s-0.391-1.024 0-1.414l3.793-3.793-2.793-2.793c-0.391-0.39-0.391-1.024 0-1.414s1.024-0.39 1.414 0l2.793 2.793 3.047-3.047c-1.59-1.907-2.547-4.362-2.547-7.039zM19 4c-4.971 0-9 4.029-9 9s4.029 9 9 9 9-4.029 9-9c0-4.971-4.029-9-9-9z"></path>
</svg>
