<!-- Generated by IcoMoon.io -->
<svg version="1.1" xmlns="http://www.w3.org/2000/svg" width="20" height="20" viewBox="0 0 20 20">
<title>sex-male</title>
<path d="M18.125 1.25h0.625v0.623c0 0.001 0 0.003 0 0.004v4.998c0 0.345-0.28 0.625-0.625 0.625s-0.625-0.28-0.625-0.625v-3.491l-4.092 4.092c0.994 1.192 1.592 2.726 1.592 4.399 0 3.797-3.078 6.875-6.875 6.875s-6.875-3.078-6.875-6.875c0-3.797 3.078-6.875 6.875-6.875 1.673 0 3.207 0.598 4.399 1.592l4.092-4.092h-3.491c-0.345 0-0.625-0.28-0.625-0.625s0.28-0.625 0.625-0.625h5c0 0-0 0 0 0zM8.125 6.25c-3.107 0-5.625 2.518-5.625 5.625s2.518 5.625 5.625 5.625c3.107 0 5.625-2.518 5.625-5.625s-2.518-5.625-5.625-5.625z"></path>
</svg>
