<!-- Generated by IcoMoon.io -->
<svg version="1.1" xmlns="http://www.w3.org/2000/svg" width="20" height="20" viewBox="0 0 20 20">
<title>share-alt</title>
<path d="M16.616 2.5l-7.058 7.058c-0.244 0.244-0.244 0.64 0 0.884s0.64 0.244 0.884 0l7.058-7.058v2.866c0 0.345 0.28 0.625 0.625 0.625s0.625-0.28 0.625-0.625v-4.374c0-0 0-0.001 0-0.001v-0.624h-0.625c0 0-0 0 0 0h-4.375c-0.345 0-0.625 0.28-0.625 0.625s0.28 0.625 0.625 0.625h2.866z"></path>
<path d="M3.75 5c-0.717 0-1.25 0.533-1.25 1.25v10c0 0.717 0.533 1.25 1.25 1.25h10c0.717 0 1.25-0.533 1.25-1.25v-7.5c0-0.345 0.28-0.625 0.625-0.625s0.625 0.28 0.625 0.625v7.5c0 1.408-1.092 2.5-2.5 2.5h-10c-1.408 0-2.5-1.092-2.5-2.5v-10c0-1.408 1.092-2.5 2.5-2.5h7.5c0.345 0 0.625 0.28 0.625 0.625s-0.28 0.625-0.625 0.625h-7.5z"></path>
</svg>
