<!-- Generated by IcoMoon.io -->
<svg version="1.1" xmlns="http://www.w3.org/2000/svg" width="32" height="32" viewBox="0 0 32 32">
<title>share-alt</title>
<path d="M26.586 4l-11.293 11.293c-0.39 0.39-0.39 1.024 0 1.414s1.024 0.39 1.414 0l11.293-11.293v4.586c0 0.552 0.448 1 1 1s1-0.448 1-1v-6.999c0-0.001 0-0.001 0-0.002v-0.999h-1c0 0-0 0 0 0h-7c-0.552 0-1 0.448-1 1s0.448 1 1 1h4.586z"></path>
<path d="M6 8c-1.148 0-2 0.852-2 2v16c0 1.148 0.852 2 2 2h16c1.148 0 2-0.852 2-2v-12c0-0.552 0.448-1 1-1s1 0.448 1 1v12c0 2.252-1.748 4-4 4h-16c-2.252 0-4-1.748-4-4v-16c0-2.252 1.748-4 4-4h12c0.552 0 1 0.448 1 1s-0.448 1-1 1h-12z"></path>
</svg>
