<!-- Generated by IcoMoon.io -->
<svg version="1.1" xmlns="http://www.w3.org/2000/svg" width="20" height="20" viewBox="0 0 20 20">
<title>share</title>
<path d="M11.25 5c0-2.071 1.679-3.75 3.75-3.75s3.75 1.679 3.75 3.75c0 2.071-1.679 3.75-3.75 3.75-1.251 0-2.359-0.613-3.041-1.555l-3.365 1.731c0.102 0.34 0.156 0.701 0.156 1.074s-0.055 0.734-0.156 1.074l3.365 1.731c0.681-0.942 1.789-1.555 3.041-1.555 2.071 0 3.75 1.679 3.75 3.75s-1.679 3.75-3.75 3.75c-2.071 0-3.75-1.679-3.75-3.75 0-0.373 0.054-0.734 0.156-1.074l-3.365-1.731c-0.681 0.942-1.789 1.555-3.041 1.555-2.071 0-3.75-1.679-3.75-3.75s1.679-3.75 3.75-3.75c1.251 0 2.36 0.613 3.041 1.555l3.365-1.731c-0.102-0.34-0.156-0.701-0.156-1.074zM15 2.5c-1.381 0-2.5 1.119-2.5 2.5s1.119 2.5 2.5 2.5 2.5-1.119 2.5-2.5c0-1.381-1.119-2.5-2.5-2.5zM15 12.5c-1.381 0-2.5 1.119-2.5 2.5s1.119 2.5 2.5 2.5c1.381 0 2.5-1.119 2.5-2.5s-1.119-2.5-2.5-2.5zM2.5 10c0 1.381 1.119 2.5 2.5 2.5s2.5-1.119 2.5-2.5-1.119-2.5-2.5-2.5c-1.381 0-2.5 1.119-2.5 2.5z"></path>
</svg>
