<!-- Generated by IcoMoon.io -->
<svg version="1.1" xmlns="http://www.w3.org/2000/svg" width="20" height="20" viewBox="0 0 20 20">
<title>shop</title>
<path d="M5 11.25v3.75h3.75v-3.75h-3.75zM6.25 13.75v-1.25h1.25v1.25h-1.25z"></path>
<path d="M3.75 1.875h12.5c0.237 0 0.453 0.134 0.559 0.345l1.869 3.739c0.046 0.087 0.072 0.186 0.072 0.291v1.125c0 0.893-0.465 1.739-1.187 2.202v6.048c0 1.533-1.483 2.5-2.938 2.5h-1.563v-5.625h-1.813v5.625h-5.813c-1.529 0-2.938-0.977-2.938-2.5v-6.023c-0.764-0.455-1.25-1.311-1.25-2.227v-1.125c0-0.105 0.026-0.204 0.072-0.291l1.869-3.739c0.106-0.212 0.322-0.345 0.559-0.345zM16.313 9.945c-0.597 0.012-1.15-0.188-1.586-0.525-0.441 0.361-0.994 0.58-1.601 0.58-0.58 0-1.128-0.202-1.552-0.557-0.437 0.348-0.979 0.557-1.573 0.557-0.58 0-1.128-0.202-1.552-0.557-0.437 0.348-0.979 0.557-1.573 0.557-0.584 0-1.134-0.205-1.56-0.564-0.434 0.328-0.978 0.521-1.565 0.509v5.68c0 0.602 0.592 1.25 1.688 1.25h4.563v-5.625h4.313v5.625h0.313c1.045 0 1.688-0.658 1.688-1.25v-5.68zM2.5 7.375c0 0.702 0.524 1.274 1.164 1.314 0.006 0 0.012 0.001 0.018 0.001 0.46 0.042 0.879-0.166 1.131-0.503 0.118-0.157 0.303-0.25 0.5-0.25h0.063c0.215 0 0.416 0.111 0.53 0.294 0.195 0.312 0.554 0.519 0.97 0.519 0.407 0 0.792-0.202 1.063-0.563 0.118-0.157 0.303-0.25 0.5-0.25h0.063c0.216 0 0.416 0.111 0.53 0.294 0.195 0.312 0.554 0.519 0.97 0.519 0.407 0 0.792-0.202 1.063-0.563 0.118-0.157 0.303-0.25 0.5-0.25h0.063c0.216 0 0.416 0.111 0.53 0.294 0.195 0.312 0.554 0.519 0.97 0.519 0.407 0 0.792-0.202 1.063-0.563 0.118-0.157 0.303-0.25 0.5-0.25h0.063c0.197 0 0.382 0.093 0.5 0.25 0.252 0.336 0.671 0.544 1.131 0.503l0.015-0.001c0.567-0.038 1.104-0.599 1.104-1.314v-0.5h-15v0.5zM2.886 5.625h14.227l-1.25-2.5h-11.727l-1.25 2.5z"></path>
</svg>
