<!-- Generated by IcoMoon.io -->
<svg version="1.1" xmlns="http://www.w3.org/2000/svg" width="32" height="32" viewBox="0 0 32 32">
<title>shop</title>
<path d="M8 18v6h6v-6h-6zM10 22v-2h2v2h-2z"></path>
<path d="M6 3h20c0.379 0 0.725 0.214 0.894 0.553l2.991 5.982c0.073 0.139 0.114 0.297 0.114 0.465v1.8c0 1.428-0.744 2.783-1.9 3.523v9.677c0 2.453-2.372 4-4.7 4h-2.5v-9h-2.9v9h-9.3c-2.447 0-4.7-1.563-4.7-4v-9.637c-1.223-0.727-2-2.098-2-3.563v-1.8c0-0.168 0.041-0.326 0.115-0.465l2.991-5.982c0.169-0.339 0.516-0.553 0.894-0.553zM26.1 15.912c-0.955 0.019-1.839-0.3-2.538-0.84-0.706 0.578-1.591 0.928-2.562 0.928-0.929 0-1.804-0.324-2.483-0.892-0.699 0.556-1.567 0.892-2.517 0.892-0.929 0-1.804-0.324-2.483-0.892-0.699 0.556-1.567 0.892-2.517 0.892-0.934 0-1.815-0.328-2.495-0.902-0.694 0.524-1.565 0.833-2.505 0.814v9.088c0 0.963 0.947 2 2.7 2h7.3v-9h6.9v9h0.5c1.672 0 2.7-1.053 2.7-2v-9.088zM4 11.8c0 1.123 0.839 2.038 1.862 2.102 0.009 0.001 0.019 0.001 0.028 0.002 0.736 0.067 1.406-0.266 1.809-0.804 0.189-0.252 0.485-0.4 0.8-0.4h0.1c0.345 0 0.665 0.178 0.848 0.47 0.312 0.499 0.886 0.83 1.552 0.83 0.651 0 1.268-0.323 1.7-0.9 0.189-0.252 0.485-0.4 0.8-0.4h0.1c0.345 0 0.665 0.178 0.848 0.47 0.312 0.499 0.886 0.83 1.552 0.83 0.651 0 1.268-0.323 1.7-0.9 0.189-0.252 0.485-0.4 0.8-0.4h0.1c0.345 0 0.665 0.178 0.848 0.47 0.312 0.499 0.886 0.83 1.552 0.83 0.651 0 1.268-0.323 1.7-0.9 0.189-0.252 0.485-0.4 0.8-0.4h0.1c0.315 0 0.611 0.148 0.8 0.4 0.403 0.538 1.073 0.871 1.809 0.804l0.024-0.002c0.907-0.060 1.767-0.958 1.767-2.102v-0.8h-24v0.8zM4.618 9h22.764l-2-4h-18.764l-2 4z"></path>
</svg>
