<!-- Generated by IcoMoon.io -->
<svg version="1.1" xmlns="http://www.w3.org/2000/svg" width="20" height="20" viewBox="0 0 20 20">
<title>sign-document</title>
<path d="M5.625 2.5c-0.717 0-1.25 0.533-1.25 1.25v12.5c0 0.717 0.533 1.25 1.25 1.25h8.75c0.717 0 1.25-0.533 1.25-1.25v-3c0-0.345 0.28-0.625 0.625-0.625s0.625 0.28 0.625 0.625v3c0 1.408-1.092 2.5-2.5 2.5h-8.75c-1.408 0-2.5-1.092-2.5-2.5v-12.5c0-1.408 1.092-2.5 2.5-2.5h6.509l2.933 2.933c0.244 0.244 0.244 0.64 0 0.884s-0.64 0.244-0.884 0l-1.683-1.683v2.241h0.5c0.345 0 0.625 0.28 0.625 0.625s-0.28 0.625-0.625 0.625h-1.75v-4.375h-5.625z"></path>
<path d="M19.009 8.75l-3.384-3.384-7.5 7.5v3.384h3.384l7.5-7.5zM15.625 7.134l1.616 1.616-6.25 6.25h-1.616v-1.616l6.25-6.25z"></path>
<path d="M6.25 5c-0.345 0-0.625 0.28-0.625 0.625s0.28 0.625 0.625 0.625h1.25c0.345 0 0.625-0.28 0.625-0.625s-0.28-0.625-0.625-0.625h-1.25z"></path>
<path d="M5.625 10.625c0-0.345 0.28-0.625 0.625-0.625h1.25c0.345 0 0.625 0.28 0.625 0.625s-0.28 0.625-0.625 0.625h-1.25c-0.345 0-0.625-0.28-0.625-0.625z"></path>
<path d="M6.25 7.5c-0.345 0-0.625 0.28-0.625 0.625s0.28 0.625 0.625 0.625h3.125c0.345 0 0.625-0.28 0.625-0.625s-0.28-0.625-0.625-0.625h-3.125z"></path>
</svg>
