<!-- Generated by IcoMoon.io -->
<svg version="1.1" xmlns="http://www.w3.org/2000/svg" width="32" height="32" viewBox="0 0 32 32">
<title>sign</title>
<path d="M17.293 11.193c0.39-0.39 1.024-0.39 1.414 0l3.707 3.707-3.707 3.707c-0.39 0.39-1.024 0.39-1.414 0s-0.39-1.024 0-1.414l1.293-1.293h-4.586c-1.148 0-2 0.852-2 2v2h-2v-2c0-2.252 1.748-4 4-4h4.586l-1.293-1.293c-0.39-0.39-0.39-1.024 0-1.414z"></path>
<path d="M18.821 3.207l9.886 9.886c1.567 1.567 1.619 4.114-0.014 5.628l-9.886 9.886c-1.59 1.59-4.024 1.59-5.614 0l-9.9-9.9c-1.567-1.567-1.619-4.114 0.014-5.628l9.886-9.886c1.567-1.567 4.114-1.619 5.629 0.014zM17.363 4.576c-0.687-0.75-1.928-0.796-2.756 0.031l-9.931 9.93c-0.75 0.687-0.796 1.928 0.031 2.756l9.9 9.9c0.809 0.809 1.976 0.809 2.786 0l9.931-9.93c0.75-0.687 0.796-1.928-0.031-2.756l-9.93-9.931z"></path>
</svg>
