<!-- Generated by IcoMoon.io -->
<svg version="1.1" xmlns="http://www.w3.org/2000/svg" width="20" height="20" viewBox="0 0 20 20">
<title>sign</title>
<path d="M10.808 6.996c0.244-0.244 0.64-0.244 0.884 0l2.317 2.317-2.317 2.317c-0.244 0.244-0.64 0.244-0.884 0s-0.244-0.64 0-0.884l0.808-0.808h-2.866c-0.717 0-1.25 0.533-1.25 1.25v1.25h-1.25v-1.25c0-1.408 1.092-2.5 2.5-2.5h2.866l-0.808-0.808c-0.244-0.244-0.244-0.64 0-0.884z"></path>
<path d="M11.763 2.004l6.179 6.179c0.979 0.979 1.012 2.571-0.009 3.518l-6.179 6.179c-0.994 0.994-2.515 0.994-3.509 0l-6.187-6.188c-0.979-0.979-1.012-2.571 0.009-3.518l6.179-6.179c0.979-0.979 2.571-1.012 3.518 0.009zM10.852 2.86c-0.43-0.469-1.205-0.497-1.722 0.020l-6.207 6.206c-0.469 0.429-0.497 1.205 0.020 1.722l6.187 6.188c0.506 0.506 1.235 0.506 1.741 0l6.207-6.206c0.469-0.43 0.497-1.205-0.020-1.722l-6.206-6.207z"></path>
</svg>
