<!-- Generated by IcoMoon.io -->
<svg version="1.1" xmlns="http://www.w3.org/2000/svg" width="32" height="32" viewBox="0 0 32 32">
<title>signal</title>
<path d="M3.534 10.546c3.636-2.297 7.95-3.546 12.466-3.546s8.83 1.249 12.466 3.546c0.467 0.295 1.085 0.155 1.38-0.312s0.155-1.085-0.311-1.38c-3.964-2.503-8.65-3.854-13.534-3.854s-9.57 1.351-13.534 3.854c-0.467 0.295-0.606 0.913-0.312 1.38s0.913 0.606 1.379 0.312z"></path>
<path d="M16 16.4c-2.905 0-5.725 0.844-8.176 2.352-0.47 0.29-1.086 0.143-1.376-0.328s-0.143-1.086 0.328-1.376c2.749-1.692 5.929-2.648 9.224-2.648 3.398 0 6.478 0.958 9.224 2.648 0.47 0.289 0.617 0.905 0.328 1.376s-0.905 0.617-1.376 0.328c-2.454-1.51-5.174-2.352-8.176-2.352z"></path>
<path d="M16 25.8c-1.324 0-2.641 0.354-3.776 1.052-0.47 0.29-1.086 0.143-1.376-0.328s-0.143-1.086 0.328-1.376c1.465-0.902 3.148-1.348 4.824-1.348 1.761 0 3.463 0.44 4.855 1.368 0.459 0.306 0.584 0.927 0.277 1.387s-0.927 0.584-1.387 0.277c-1.008-0.672-2.307-1.032-3.745-1.032z"></path>
</svg>
