<!-- Generated by IcoMoon.io -->
<svg version="1.1" xmlns="http://www.w3.org/2000/svg" width="20" height="20" viewBox="0 0 20 20">
<title>signal</title>
<path d="M2.209 6.591c2.273-1.435 4.969-2.216 7.791-2.216s5.519 0.781 7.791 2.216c0.292 0.184 0.678 0.097 0.862-0.195s0.097-0.678-0.195-0.862c-2.477-1.565-5.406-2.409-8.459-2.409s-5.981 0.844-8.459 2.409c-0.292 0.184-0.379 0.57-0.195 0.862s0.57 0.379 0.862 0.195z"></path>
<path d="M10 10.25c-1.816 0-3.578 0.527-5.11 1.47-0.294 0.181-0.679 0.089-0.86-0.205s-0.089-0.679 0.205-0.86c1.718-1.057 3.706-1.655 5.765-1.655 2.124 0 4.048 0.599 5.765 1.655 0.294 0.181 0.386 0.566 0.205 0.86s-0.566 0.386-0.86 0.205c-1.533-0.944-3.233-1.47-5.11-1.47z"></path>
<path d="M10 16.125c-0.828 0-1.651 0.221-2.36 0.657-0.294 0.181-0.679 0.089-0.86-0.205s-0.089-0.679 0.205-0.86c0.916-0.564 1.968-0.843 3.015-0.843 1.101 0 2.164 0.275 3.034 0.855 0.287 0.192 0.365 0.579 0.173 0.867s-0.579 0.365-0.867 0.173c-0.63-0.42-1.442-0.645-2.341-0.645z"></path>
</svg>
