<!-- Generated by IcoMoon.io -->
<svg version="1.1" xmlns="http://www.w3.org/2000/svg" width="32" height="32" viewBox="0 0 32 32">
<title>sign-document</title>
<path d="M9 4c-1.148 0-2 0.852-2 2v20c0 1.148 0.852 2 2 2h14c1.148 0 2-0.852 2-2v-4.8c0-0.552 0.448-1 1-1s1 0.448 1 1v4.8c0 2.252-1.748 4-4 4h-14c-2.252 0-4-1.748-4-4v-20c0-2.252 1.748-4 4-4h10.414l4.693 4.693c0.39 0.391 0.39 1.024 0 1.414s-1.024 0.391-1.414 0l-2.693-2.693v3.586h0.8c0.552 0 1 0.448 1 1s-0.448 1-1 1h-2.8v-7h-9z"></path>
<path d="M30.414 14l-5.414-5.414-12 12v5.414h5.414l12-12zM25 11.414l2.586 2.586-10 10h-2.586v-2.586l10-10z"></path>
<path d="M10 8c-0.552 0-1 0.448-1 1s0.448 1 1 1h2c0.552 0 1-0.448 1-1s-0.448-1-1-1h-2z"></path>
<path d="M9 17c0-0.552 0.448-1 1-1h2c0.552 0 1 0.448 1 1s-0.448 1-1 1h-2c-0.552 0-1-0.448-1-1z"></path>
<path d="M10 12c-0.552 0-1 0.448-1 1s0.448 1 1 1h5c0.552 0 1-0.448 1-1s-0.448-1-1-1h-5z"></path>
</svg>
