<!-- Generated by IcoMoon.io -->
<svg version="1.1" xmlns="http://www.w3.org/2000/svg" width="20" height="20" viewBox="0 0 20 20">
<title>silver</title>
<path d="M4.319 14.425c-0.174 0-0.341-0.069-0.464-0.192s-0.192-0.29-0.192-0.464 0.069-0.341 0.192-0.464c0.123-0.123 0.29-0.192 0.464-0.192h6.344c0.174 0 0.341 0.069 0.464 0.192s0.192 0.29 0.192 0.464-0.069 0.341-0.192 0.464c-0.123 0.123-0.29 0.192-0.464 0.192h-6.344zM15.019 14.425c-0.174 0-0.341-0.069-0.464-0.192s-0.192-0.29-0.192-0.464 0.069-0.341 0.192-0.464c0.123-0.123 0.29-0.192 0.464-0.192h0.625c0.174 0 0.341 0.069 0.464 0.192s0.192 0.29 0.192 0.464-0.069 0.341-0.192 0.464c-0.123 0.123-0.29 0.192-0.464 0.192h-0.625zM4.319 11.156c-0.164-0.016-0.316-0.092-0.426-0.214s-0.172-0.281-0.172-0.445 0.061-0.323 0.172-0.445c0.111-0.122 0.263-0.198 0.426-0.214h3.706c0.164 0.016 0.316 0.092 0.426 0.214s0.172 0.281 0.172 0.445-0.061 0.323-0.172 0.445c-0.111 0.122-0.263 0.198-0.426 0.214h-3.706zM15.019 11.156c-0.164-0.016-0.316-0.092-0.426-0.214s-0.172-0.281-0.172-0.445 0.061-0.323 0.172-0.445c0.111-0.122 0.263-0.198 0.426-0.214h0.625c0.164 0.016 0.316 0.092 0.426 0.214s0.172 0.281 0.172 0.445-0.061 0.323-0.172 0.445c-0.111 0.122-0.263 0.198-0.426 0.214h-0.625zM15.019 7.881c-0.174 0-0.341-0.069-0.464-0.192s-0.192-0.29-0.192-0.464 0.069-0.341 0.192-0.464c0.123-0.123 0.29-0.192 0.464-0.192h0.625c0.174 0 0.341 0.069 0.464 0.192s0.192 0.29 0.192 0.464-0.069 0.341-0.192 0.464c-0.123 0.123-0.29 0.192-0.464 0.192h-0.625zM4.319 7.881c-0.174 0-0.341-0.069-0.464-0.192s-0.192-0.29-0.192-0.464 0.069-0.341 0.192-0.464c0.123-0.123 0.29-0.192 0.464-0.192h7.638c0.174 0 0.341 0.069 0.464 0.192s0.192 0.29 0.192 0.464-0.069 0.341-0.192 0.464c-0.123 0.123-0.29 0.192-0.464 0.192h-7.637zM17.5 0.637c0.218 0.001 0.434 0.045 0.636 0.129s0.384 0.207 0.538 0.362c0.154 0.155 0.276 0.339 0.358 0.541s0.125 0.418 0.124 0.637v15.55c-0 0.167-0.046 0.33-0.133 0.473s-0.212 0.258-0.36 0.334c-0.149 0.075-0.315 0.109-0.481 0.096s-0.326-0.069-0.462-0.165l-0.862-0.625-1.931 0.913c-0.126 0.063-0.265 0.096-0.406 0.096s-0.28-0.033-0.406-0.096l-1.744-0.95-1.981 0.938c-0.127 0.063-0.267 0.096-0.409 0.096s-0.282-0.033-0.409-0.096l-1.737-0.938-1.987 0.956c-0.121 0.057-0.254 0.087-0.388 0.087-0.143-0.002-0.284-0.036-0.412-0.1l-1.775-0.906-1.019 0.669c-0.137 0.091-0.296 0.143-0.46 0.151s-0.327-0.029-0.472-0.107c-0.144-0.078-0.264-0.194-0.347-0.335s-0.128-0.301-0.128-0.465v-12.925c0.002-0.439 0.176-0.86 0.487-1.172s0.73-0.488 1.17-0.491h10.337c0.164 0.016 0.316 0.092 0.426 0.214s0.172 0.281 0.172 0.445c0 0.165-0.061 0.323-0.172 0.445s-0.263 0.198-0.426 0.214h-10.337c-0.046-0.001-0.091 0.007-0.133 0.024s-0.081 0.042-0.114 0.074c-0.033 0.032-0.058 0.070-0.076 0.112s-0.027 0.087-0.027 0.133v12.169l0.587-0.381c0.133-0.092 0.289-0.147 0.451-0.158s0.323 0.022 0.468 0.095l1.806 0.919 1.988-0.919c0.127-0.062 0.265-0.094 0.406-0.094s0.28 0.032 0.406 0.094l1.737 0.931 1.988-0.931c0.127-0.062 0.265-0.094 0.406-0.094s0.28 0.032 0.406 0.094l1.744 0.919 1.963-0.919c0.146-0.071 0.309-0.1 0.471-0.086s0.317 0.072 0.448 0.167l0.419 0.3v-14.756c0.001-0.046-0.007-0.092-0.024-0.134s-0.042-0.082-0.074-0.115c-0.032-0.033-0.070-0.060-0.112-0.078s-0.088-0.028-0.133-0.029h-16c-0.174 0-0.341-0.069-0.464-0.192s-0.192-0.29-0.192-0.464c0-0.174 0.069-0.341 0.192-0.464s0.29-0.192 0.464-0.192h16z"></path>
</svg>
