<!-- Generated by IcoMoon.io -->
<svg version="1.1" xmlns="http://www.w3.org/2000/svg" width="32" height="32" viewBox="0 0 32 32">
<title>silver</title>
<path d="M6.91 23.080c-0.278 0-0.546-0.111-0.742-0.308s-0.308-0.464-0.308-0.742 0.111-0.546 0.308-0.742c0.197-0.197 0.464-0.308 0.742-0.308h10.15c0.279 0 0.546 0.111 0.742 0.308s0.308 0.464 0.308 0.742-0.111 0.546-0.308 0.742c-0.197 0.197-0.464 0.308-0.742 0.308h-10.15zM24.030 23.080c-0.279 0-0.546-0.111-0.742-0.308s-0.308-0.464-0.308-0.742 0.111-0.546 0.308-0.742c0.197-0.197 0.464-0.308 0.742-0.308h1c0.279 0 0.546 0.111 0.742 0.308s0.308 0.464 0.308 0.742-0.111 0.546-0.308 0.742c-0.197 0.197-0.464 0.308-0.742 0.308h-1zM6.91 17.85c-0.262-0.026-0.505-0.148-0.682-0.343s-0.275-0.449-0.275-0.712 0.098-0.517 0.275-0.712c0.177-0.195 0.42-0.317 0.682-0.343h5.93c0.262 0.025 0.505 0.148 0.682 0.343s0.275 0.449 0.275 0.712-0.098 0.517-0.275 0.712c-0.177 0.195-0.42 0.317-0.682 0.343h-5.93zM24.030 17.85c-0.262-0.026-0.505-0.148-0.682-0.343s-0.275-0.449-0.275-0.712 0.098-0.517 0.275-0.712c0.177-0.195 0.42-0.317 0.682-0.343h1c0.262 0.025 0.505 0.148 0.682 0.343s0.275 0.449 0.275 0.712-0.098 0.517-0.275 0.712c-0.177 0.195-0.42 0.317-0.682 0.343h-1zM24.030 12.61c-0.279 0-0.546-0.111-0.742-0.307s-0.308-0.464-0.308-0.742 0.111-0.546 0.308-0.742c0.197-0.197 0.464-0.307 0.742-0.307h1c0.279 0 0.546 0.111 0.742 0.307s0.308 0.464 0.308 0.742-0.111 0.546-0.308 0.742c-0.197 0.197-0.464 0.307-0.742 0.307h-1zM6.91 12.61c-0.278 0-0.546-0.111-0.742-0.307s-0.308-0.464-0.308-0.742 0.111-0.546 0.308-0.742c0.197-0.197 0.464-0.307 0.742-0.307h12.22c0.279 0 0.546 0.111 0.742 0.307s0.308 0.464 0.308 0.742-0.111 0.546-0.308 0.742c-0.197 0.197-0.464 0.307-0.742 0.307h-12.22zM28 1.020c0.349 0.001 0.695 0.071 1.017 0.206s0.615 0.332 0.861 0.58c0.246 0.248 0.441 0.542 0.573 0.865s0.2 0.669 0.199 1.019v24.88c-0 0.267-0.074 0.529-0.213 0.756s-0.339 0.412-0.576 0.534c-0.238 0.12-0.504 0.174-0.77 0.154s-0.522-0.111-0.74-0.264l-1.38-1-3.090 1.46c-0.202 0.101-0.424 0.154-0.65 0.154s-0.448-0.053-0.65-0.154l-2.79-1.52-3.17 1.5c-0.203 0.101-0.428 0.154-0.655 0.154s-0.451-0.053-0.655-0.154l-2.78-1.5-3.18 1.53c-0.194 0.091-0.406 0.139-0.62 0.14-0.229-0.003-0.455-0.058-0.66-0.16l-2.84-1.45-1.63 1.070c-0.219 0.145-0.473 0.229-0.735 0.241s-0.523-0.047-0.755-0.171c-0.23-0.126-0.422-0.311-0.555-0.536s-0.204-0.482-0.205-0.744v-20.68c0.003-0.703 0.282-1.377 0.778-1.875s1.169-0.78 1.872-0.785h16.54c0.262 0.026 0.505 0.148 0.682 0.343s0.275 0.449 0.275 0.712c0 0.263-0.098 0.517-0.275 0.712s-0.42 0.317-0.682 0.343h-16.54c-0.073-0.001-0.146 0.012-0.214 0.039s-0.13 0.067-0.182 0.119c-0.052 0.051-0.094 0.112-0.122 0.18s-0.043 0.14-0.043 0.213v19.47l0.94-0.61c0.213-0.148 0.463-0.235 0.721-0.252s0.517 0.035 0.749 0.152l2.89 1.47 3.18-1.47c0.202-0.099 0.425-0.15 0.65-0.15s0.448 0.051 0.65 0.15l2.78 1.49 3.18-1.49c0.202-0.099 0.425-0.15 0.65-0.15s0.448 0.051 0.65 0.15l2.79 1.47 3.14-1.47c0.234-0.113 0.494-0.16 0.753-0.138s0.507 0.115 0.717 0.268l0.67 0.48v-23.61c0.001-0.074-0.012-0.147-0.039-0.215s-0.067-0.131-0.118-0.184c-0.051-0.053-0.112-0.095-0.18-0.125s-0.14-0.045-0.214-0.046h-25.6c-0.278 0-0.546-0.111-0.742-0.308s-0.308-0.464-0.308-0.742c0-0.278 0.111-0.546 0.308-0.742s0.464-0.308 0.742-0.308h25.6z"></path>
</svg>
