<!-- Generated by IcoMoon.io -->
<svg version="1.1" xmlns="http://www.w3.org/2000/svg" width="20" height="20" viewBox="0 0 20 20">
<title>site-protection</title>
<path d="M13.275 15.044h-6.55v-3.931h6.55v3.931zM8.037 9.181c0-0.521 0.207-1.020 0.575-1.388s0.867-0.575 1.388-0.575 1.020 0.207 1.388 0.575c0.368 0.368 0.575 0.867 0.575 1.388v0.625h-3.925v-0.625zM13.931 9.806h-0.656v-0.625c0-0.869-0.345-1.702-0.959-2.316s-1.447-0.959-2.316-0.959-1.702 0.345-2.316 0.959c-0.614 0.614-0.959 1.447-0.959 2.316v0.625h-0.625c-0.087-0.004-0.175 0.009-0.256 0.041s-0.156 0.080-0.218 0.141c-0.062 0.062-0.11 0.136-0.141 0.218s-0.045 0.169-0.041 0.256v5.238c-0.004 0.087 0.009 0.175 0.041 0.256s0.080 0.156 0.141 0.218 0.136 0.11 0.218 0.141c0.082 0.031 0.169 0.045 0.256 0.041h7.825c0.085 0 0.169-0.017 0.247-0.050s0.148-0.082 0.207-0.144c0.058-0.061 0.104-0.134 0.133-0.213s0.043-0.164 0.038-0.249v-5.238c0.004-0.085-0.009-0.169-0.038-0.249s-0.075-0.152-0.133-0.213c-0.058-0.061-0.129-0.11-0.207-0.144s-0.162-0.051-0.247-0.050h0.006zM19.169 2.606v14.375c0 0.522-0.207 1.023-0.577 1.392s-0.87 0.577-1.392 0.577h-14.375c-0.522 0-1.023-0.207-1.392-0.577s-0.577-0.87-0.577-1.392v-11.756c-0-0.518 0.204-1.015 0.568-1.383s0.858-0.579 1.376-0.585h5.887c0.174 0 0.341 0.069 0.464 0.192s0.192 0.29 0.192 0.464c0 0.174-0.069 0.341-0.192 0.464s-0.29 0.192-0.464 0.192h-5.887c-0.085-0.004-0.169 0.009-0.249 0.038s-0.152 0.075-0.213 0.133c-0.061 0.058-0.11 0.129-0.144 0.207s-0.050 0.162-0.050 0.247v11.813c-0.004 0.087 0.009 0.175 0.041 0.256s0.080 0.156 0.141 0.218 0.136 0.11 0.218 0.141c0.082 0.031 0.169 0.045 0.256 0.041h14.375c0.087 0.004 0.175-0.009 0.256-0.041s0.156-0.080 0.218-0.141c0.062-0.062 0.11-0.136 0.141-0.218s0.045-0.169 0.041-0.256v-14.375c0.004-0.087-0.009-0.175-0.041-0.256s-0.080-0.156-0.141-0.218c-0.062-0.062-0.136-0.11-0.218-0.141s-0.169-0.045-0.256-0.041h-15.688c-0.174 0-0.341-0.069-0.464-0.192s-0.192-0.29-0.192-0.464c0-0.174 0.069-0.341 0.192-0.464s0.29-0.192 0.464-0.192h15.713c0.522 0 1.023 0.207 1.392 0.577s0.577 0.87 0.577 1.392v-0.025z"></path>
</svg>
