<!-- Generated by IcoMoon.io -->
<svg version="1.1" xmlns="http://www.w3.org/2000/svg" width="20" height="20" viewBox="0 0 20 20">
<title>slack</title>
<path d="M4.563 12.306c0 0.389-0.115 0.77-0.332 1.094s-0.524 0.576-0.884 0.725-0.756 0.188-1.137 0.112c-0.382-0.076-0.733-0.263-1.008-0.539s-0.463-0.626-0.539-1.008c-0.076-0.382-0.037-0.778 0.112-1.137s0.401-0.667 0.725-0.884 0.704-0.332 1.094-0.332h1.969v1.969z"></path>
<path d="M5.556 12.306c0-0.259 0.051-0.515 0.15-0.753s0.244-0.456 0.427-0.639 0.4-0.328 0.639-0.427c0.239-0.099 0.495-0.15 0.753-0.15s0.515 0.051 0.753 0.15c0.239 0.099 0.456 0.244 0.639 0.427s0.328 0.4 0.427 0.639c0.099 0.239 0.15 0.495 0.15 0.753v4.931c0 0.259-0.051 0.515-0.15 0.753s-0.244 0.456-0.427 0.639-0.4 0.328-0.639 0.427c-0.239 0.099-0.495 0.15-0.753 0.15s-0.515-0.051-0.753-0.15c-0.239-0.099-0.456-0.244-0.639-0.427s-0.328-0.4-0.427-0.639c-0.099-0.239-0.15-0.495-0.15-0.753v-4.931z"></path>
<path d="M7.5 4.369c-0.389 0-0.77-0.115-1.094-0.332s-0.576-0.524-0.725-0.884-0.188-0.756-0.112-1.138c0.076-0.382 0.263-0.733 0.539-1.008s0.626-0.463 1.008-0.539c0.382-0.076 0.778-0.037 1.138 0.112s0.667 0.401 0.883 0.725c0.216 0.324 0.332 0.704 0.332 1.094v1.969h-1.969z"></path>
<path d="M7.5 5.363c0.259 0 0.515 0.051 0.753 0.15s0.456 0.244 0.639 0.427 0.328 0.4 0.427 0.639c0.099 0.239 0.15 0.495 0.15 0.753s-0.051 0.515-0.15 0.753c-0.099 0.239-0.244 0.456-0.427 0.639s-0.4 0.328-0.639 0.427c-0.239 0.099-0.495 0.15-0.753 0.15h-4.906c-0.259 0-0.515-0.051-0.753-0.15s-0.456-0.244-0.639-0.427c-0.183-0.183-0.328-0.4-0.427-0.639s-0.15-0.495-0.15-0.753c0-0.258 0.051-0.515 0.15-0.753s0.244-0.456 0.427-0.639 0.4-0.328 0.639-0.427c0.239-0.099 0.495-0.15 0.753-0.15h4.906z"></path>
<path d="M15.438 7.306c0-0.389 0.115-0.77 0.332-1.094s0.524-0.576 0.883-0.725c0.36-0.149 0.756-0.188 1.137-0.112s0.733 0.263 1.008 0.539c0.275 0.275 0.463 0.626 0.539 1.008s0.037 0.778-0.112 1.138-0.401 0.667-0.725 0.883c-0.324 0.216-0.704 0.332-1.094 0.332h-1.969v-1.969z"></path>
<path d="M14.444 7.306c0 0.522-0.207 1.023-0.577 1.392s-0.87 0.577-1.392 0.577-1.023-0.207-1.392-0.577c-0.369-0.369-0.577-0.87-0.577-1.392v-4.906c0-0.259 0.051-0.515 0.15-0.753s0.244-0.456 0.427-0.639c0.183-0.183 0.4-0.328 0.639-0.427s0.495-0.15 0.753-0.15 0.515 0.051 0.753 0.15c0.239 0.099 0.456 0.244 0.639 0.427s0.328 0.4 0.427 0.639c0.099 0.239 0.15 0.495 0.15 0.753v4.906z"></path>
<path d="M12.5 15.244c0.389 0 0.77 0.116 1.094 0.332s0.576 0.524 0.725 0.884c0.149 0.36 0.188 0.756 0.112 1.137s-0.263 0.733-0.539 1.008-0.626 0.463-1.008 0.539c-0.382 0.076-0.778 0.037-1.137-0.112s-0.667-0.401-0.884-0.725c-0.216-0.324-0.332-0.704-0.332-1.094v-1.969h1.969z"></path>
<path d="M12.5 14.25c-0.522 0-1.023-0.207-1.392-0.577s-0.577-0.87-0.577-1.392 0.207-1.023 0.577-1.392c0.369-0.369 0.87-0.577 1.392-0.577h4.931c0.522 0 1.023 0.207 1.392 0.577s0.577 0.87 0.577 1.392-0.207 1.023-0.577 1.392c-0.369 0.369-0.87 0.577-1.392 0.577h-4.931z"></path>
</svg>
