<!-- Generated by IcoMoon.io -->
<svg version="1.1" xmlns="http://www.w3.org/2000/svg" width="20" height="20" viewBox="0 0 20 20">
<title>snowflake</title>
<path d="M10 1.25c0.345 0 0.625 0.28 0.625 0.625v0.991l0.808-0.808c0.244-0.244 0.64-0.244 0.884 0s0.244 0.64 0 0.884l-1.692 1.692v3.857l2.75-2.75v-2.366c0-0.345 0.28-0.625 0.625-0.625s0.625 0.28 0.625 0.625v1.116l0.683-0.683c0.244-0.244 0.64-0.244 0.884 0s0.244 0.64 0 0.884l-0.683 0.683h1.116c0.345 0 0.625 0.28 0.625 0.625s-0.28 0.625-0.625 0.625h-2.366l-2.75 2.75h3.857l1.692-1.692c0.244-0.244 0.64-0.244 0.884 0s0.244 0.64 0 0.884l-0.808 0.808h0.991c0.345 0 0.625 0.28 0.625 0.625s-0.28 0.625-0.625 0.625h-0.991l0.808 0.808c0.244 0.244 0.244 0.64 0 0.884s-0.64 0.244-0.884 0l-1.692-1.692h-3.857l2.75 2.75h2.366c0.345 0 0.625 0.28 0.625 0.625s-0.28 0.625-0.625 0.625h-1.116l0.683 0.683c0.244 0.244 0.244 0.64 0 0.884s-0.64 0.244-0.884 0l-0.683-0.683v1.116c0 0.345-0.28 0.625-0.625 0.625s-0.625-0.28-0.625-0.625v-2.366l-2.75-2.75v3.857l1.692 1.692c0.244 0.244 0.244 0.64 0 0.884s-0.64 0.244-0.884 0l-0.808-0.808v0.991c0 0.345-0.28 0.625-0.625 0.625s-0.625-0.28-0.625-0.625v-0.991l-0.808 0.808c-0.244 0.244-0.64 0.244-0.884 0s-0.244-0.64 0-0.884l1.692-1.692v-3.857l-2.75 2.75v2.366c0 0.345-0.28 0.625-0.625 0.625s-0.625-0.28-0.625-0.625v-1.116l-0.683 0.683c-0.244 0.244-0.64 0.244-0.884 0s-0.244-0.64 0-0.884l0.683-0.683h-1.116c-0.345 0-0.625-0.28-0.625-0.625s0.28-0.625 0.625-0.625h2.366l2.75-2.75h-3.857l-1.692 1.692c-0.244 0.244-0.64 0.244-0.884 0s-0.244-0.64 0-0.884l0.808-0.808h-0.991c-0.345 0-0.625-0.28-0.625-0.625s0.28-0.625 0.625-0.625h0.991l-0.808-0.808c-0.244-0.244-0.244-0.64 0-0.884s0.64-0.244 0.884 0l1.692 1.692h3.857l-2.75-2.75h-2.366c-0.345 0-0.625-0.28-0.625-0.625s0.28-0.625 0.625-0.625h1.116l-0.683-0.683c-0.244-0.244-0.244-0.64 0-0.884s0.64-0.244 0.884 0l0.683 0.683v-1.116c0-0.345 0.28-0.625 0.625-0.625s0.625 0.28 0.625 0.625v2.366l2.75 2.75v-3.857l-1.692-1.692c-0.244-0.244-0.244-0.64 0-0.884s0.64-0.244 0.884 0l0.808 0.808v-0.991c0-0.345 0.28-0.625 0.625-0.625z"></path>
</svg>
