<!-- Generated by IcoMoon.io -->
<svg version="1.1" xmlns="http://www.w3.org/2000/svg" width="32" height="32" viewBox="0 0 32 32">
<title>snowflake</title>
<path d="M16 2c0.552 0 1 0.448 1 1v1.586l1.293-1.293c0.39-0.391 1.024-0.391 1.414 0s0.39 1.024 0 1.414l-2.707 2.707v6.172l4.4-4.4v-3.786c0-0.552 0.448-1 1-1s1 0.448 1 1v1.786l1.093-1.093c0.39-0.391 1.024-0.391 1.414 0s0.39 1.024 0 1.414l-1.093 1.093h1.786c0.552 0 1 0.448 1 1s-0.448 1-1 1h-3.786l-4.4 4.4h6.171l2.707-2.707c0.39-0.39 1.024-0.39 1.414 0s0.39 1.024 0 1.414l-1.293 1.293h1.586c0.552 0 1 0.448 1 1s-0.448 1-1 1h-1.586l1.293 1.293c0.39 0.39 0.39 1.024 0 1.414s-1.024 0.39-1.414 0l-2.707-2.707h-6.172l4.4 4.4h3.786c0.552 0 1 0.448 1 1s-0.448 1-1 1h-1.786l1.093 1.093c0.39 0.391 0.39 1.024 0 1.414s-1.024 0.39-1.414 0l-1.093-1.093v1.786c0 0.552-0.448 1-1 1s-1-0.448-1-1v-3.786l-4.4-4.4v6.172l2.707 2.707c0.39 0.391 0.39 1.024 0 1.414s-1.024 0.39-1.414 0l-1.293-1.293v1.586c0 0.552-0.448 1-1 1s-1-0.448-1-1v-1.586l-1.293 1.293c-0.39 0.39-1.024 0.39-1.414 0s-0.39-1.024 0-1.414l2.707-2.707v-6.172l-4.4 4.4v3.786c0 0.552-0.448 1-1 1s-1-0.448-1-1v-1.786l-1.093 1.093c-0.391 0.39-1.024 0.39-1.414 0s-0.391-1.024 0-1.414l1.093-1.093h-1.786c-0.552 0-1-0.448-1-1s0.448-1 1-1h3.786l4.4-4.4h-6.172l-2.707 2.707c-0.391 0.39-1.024 0.39-1.414 0s-0.391-1.024 0-1.414l1.293-1.293h-1.586c-0.552 0-1-0.448-1-1s0.448-1 1-1h1.586l-1.293-1.293c-0.391-0.39-0.391-1.024 0-1.414s1.024-0.39 1.414 0l2.707 2.707h6.171l-4.4-4.4h-3.786c-0.552 0-1-0.448-1-1s0.448-1 1-1h1.786l-1.093-1.093c-0.391-0.391-0.391-1.024 0-1.414s1.024-0.391 1.414 0l1.093 1.093v-1.786c0-0.552 0.448-1 1-1s1 0.448 1 1v3.786l4.4 4.4v-6.172l-2.707-2.707c-0.39-0.391-0.39-1.024 0-1.414s1.024-0.391 1.414 0l1.293 1.293v-1.586c0-0.552 0.448-1 1-1z"></path>
</svg>
