<!-- Generated by IcoMoon.io -->
<svg version="1.1" xmlns="http://www.w3.org/2000/svg" width="20" height="20" viewBox="0 0 20 20">
<title>sort-desc-vertical-alt</title>
<path d="M3.125 3.125c-0.345 0-0.625 0.28-0.625 0.625s0.28 0.625 0.625 0.625h3.75c0.345 0 0.625-0.28 0.625-0.625s-0.28-0.625-0.625-0.625h-3.75z"></path>
<path d="M2.5 6.875c0-0.345 0.28-0.625 0.625-0.625h3.75c0.345 0 0.625 0.28 0.625 0.625s-0.28 0.625-0.625 0.625h-3.75c-0.345 0-0.625-0.28-0.625-0.625z"></path>
<path d="M3.125 9.375c-0.345 0-0.625 0.28-0.625 0.625s0.28 0.625 0.625 0.625h3.75c0.345 0 0.625-0.28 0.625-0.625s-0.28-0.625-0.625-0.625h-3.75z"></path>
<path d="M2.5 13.125c0-0.345 0.28-0.625 0.625-0.625h3.75c0.345 0 0.625 0.28 0.625 0.625s-0.28 0.625-0.625 0.625h-3.75c-0.345 0-0.625-0.28-0.625-0.625z"></path>
<path d="M2.5 16.25c0-0.345 0.28-0.625 0.625-0.625h3.75c0.345 0 0.625 0.28 0.625 0.625s-0.28 0.625-0.625 0.625h-3.75c-0.345 0-0.625-0.28-0.625-0.625z"></path>
<path d="M10.183 13.308c0.244-0.244 0.64-0.244 0.884 0l2.058 2.058v-11.616c0-0.345 0.28-0.625 0.625-0.625s0.625 0.28 0.625 0.625v11.616l2.058-2.058c0.244-0.244 0.64-0.244 0.884 0s0.244 0.64 0 0.884l-3.567 3.567-3.567-3.567c-0.244-0.244-0.244-0.64 0-0.884z"></path>
</svg>
