<!-- Generated by IcoMoon.io -->
<svg version="1.1" xmlns="http://www.w3.org/2000/svg" width="32" height="32" viewBox="0 0 32 32">
<title>sort-asc-horizontal</title>
<path d="M9.293 4.293c0.391-0.391 1.024-0.391 1.414 0l5.707 5.707-5.707 5.707c-0.39 0.391-1.024 0.391-1.414 0s-0.391-1.024 0-1.414l3.293-3.293h-7.586c-0.552 0-1-0.448-1-1s0.448-1 1-1h7.586l-3.293-3.293c-0.391-0.391-0.391-1.024 0-1.414z"></path>
<path d="M7 26c0-0.552-0.448-1-1-1s-1 0.448-1 1v1c0 0.552 0.448 1 1 1s1-0.448 1-1v-1z"></path>
<path d="M11 20c0.552 0 1 0.448 1 1v6c0 0.552-0.448 1-1 1s-1-0.448-1-1v-6c0-0.552 0.448-1 1-1z"></path>
<path d="M17 16c0-0.552-0.448-1-1-1s-1 0.448-1 1v11c0 0.552 0.448 1 1 1s1-0.448 1-1v-11z"></path>
<path d="M21 10c0.552 0 1 0.448 1 1v16c0 0.552-0.448 1-1 1s-1-0.448-1-1v-16c0-0.552 0.448-1 1-1z"></path>
<path d="M27 6c0-0.552-0.448-1-1-1s-1 0.448-1 1v21c0 0.552 0.448 1 1 1s1-0.448 1-1v-21z"></path>
</svg>
