<!-- Generated by IcoMoon.io -->
<svg version="1.1" xmlns="http://www.w3.org/2000/svg" width="32" height="32" viewBox="0 0 32 32">
<title>sort-desc-vertical-alt</title>
<path d="M5 5c-0.552 0-1 0.448-1 1s0.448 1 1 1h6c0.552 0 1-0.448 1-1s-0.448-1-1-1h-6z"></path>
<path d="M4 11c0-0.552 0.448-1 1-1h6c0.552 0 1 0.448 1 1s-0.448 1-1 1h-6c-0.552 0-1-0.448-1-1z"></path>
<path d="M5 15c-0.552 0-1 0.448-1 1s0.448 1 1 1h6c0.552 0 1-0.448 1-1s-0.448-1-1-1h-6z"></path>
<path d="M4 21c0-0.552 0.448-1 1-1h6c0.552 0 1 0.448 1 1s-0.448 1-1 1h-6c-0.552 0-1-0.448-1-1z"></path>
<path d="M4 26c0-0.552 0.448-1 1-1h6c0.552 0 1 0.448 1 1s-0.448 1-1 1h-6c-0.552 0-1-0.448-1-1z"></path>
<path d="M16.293 21.293c0.39-0.39 1.024-0.39 1.414 0l3.293 3.293v-18.586c0-0.552 0.448-1 1-1s1 0.448 1 1v18.586l3.293-3.293c0.39-0.39 1.024-0.39 1.414 0s0.39 1.024 0 1.414l-5.707 5.707-5.707-5.707c-0.39-0.39-0.39-1.024 0-1.414z"></path>
</svg>
