<!-- Generated by IcoMoon.io -->
<svg version="1.1" xmlns="http://www.w3.org/2000/svg" width="20" height="20" viewBox="0 0 20 20">
<title>sort-asc-horizontal-alt</title>
<path d="M12.683 2.683c0.244-0.244 0.64-0.244 0.884 0l3.567 3.567-3.567 3.567c-0.244 0.244-0.64 0.244-0.884 0s-0.244-0.64 0-0.884l2.058-2.058h-10.991c-0.345 0-0.625-0.28-0.625-0.625s0.28-0.625 0.625-0.625h10.991l-2.058-2.058c-0.244-0.244-0.244-0.64 0-0.884z"></path>
<path d="M16.875 13.125c0-0.345-0.28-0.625-0.625-0.625s-0.625 0.28-0.625 0.625v3.75c0 0.345 0.28 0.625 0.625 0.625s0.625-0.28 0.625-0.625v-3.75z"></path>
<path d="M13.75 13.125v3.75c0 0.345-0.28 0.625-0.625 0.625s-0.625-0.28-0.625-0.625v-3.75c0-0.345 0.28-0.625 0.625-0.625s0.625 0.28 0.625 0.625z"></path>
<path d="M10.625 13.125c0-0.345-0.28-0.625-0.625-0.625s-0.625 0.28-0.625 0.625v3.75c0 0.345 0.28 0.625 0.625 0.625s0.625-0.28 0.625-0.625v-3.75z"></path>
<path d="M6.875 12.5c0.345 0 0.625 0.28 0.625 0.625v3.75c0 0.345-0.28 0.625-0.625 0.625s-0.625-0.28-0.625-0.625v-3.75c0-0.345 0.28-0.625 0.625-0.625z"></path>
<path d="M4.375 13.125c0-0.345-0.28-0.625-0.625-0.625s-0.625 0.28-0.625 0.625v3.75c0 0.345 0.28 0.625 0.625 0.625s0.625-0.28 0.625-0.625v-3.75z"></path>
</svg>
