<!-- Generated by IcoMoon.io -->
<svg version="1.1" xmlns="http://www.w3.org/2000/svg" width="20" height="20" viewBox="0 0 20 20">
<title>sort-desc-vertical</title>
<path d="M3.125 3.125c-0.345 0-0.625 0.28-0.625 0.625s0.28 0.625 0.625 0.625h13.125c0.345 0 0.625-0.28 0.625-0.625s-0.28-0.625-0.625-0.625h-13.125z"></path>
<path d="M2.5 6.875c0-0.345 0.28-0.625 0.625-0.625h10c0.345 0 0.625 0.28 0.625 0.625s-0.28 0.625-0.625 0.625h-10c-0.345 0-0.625-0.28-0.625-0.625z"></path>
<path d="M3.125 9.375c-0.345 0-0.625 0.28-0.625 0.625s0.28 0.625 0.625 0.625h6.875c0.345 0 0.625-0.28 0.625-0.625s-0.28-0.625-0.625-0.625h-6.875z"></path>
<path d="M2.5 13.125c0-0.345 0.28-0.625 0.625-0.625h3.75c0.345 0 0.625 0.28 0.625 0.625s-0.28 0.625-0.625 0.625h-3.75c-0.345 0-0.625-0.28-0.625-0.625z"></path>
<path d="M2.5 16.25c0-0.345 0.28-0.625 0.625-0.625h0.625c0.345 0 0.625 0.28 0.625 0.625s-0.28 0.625-0.625 0.625h-0.625c-0.345 0-0.625-0.28-0.625-0.625z"></path>
<path d="M13.125 15.366l-2.058-2.058c-0.244-0.244-0.64-0.244-0.884 0s-0.244 0.64 0 0.884l3.567 3.567 3.567-3.567c0.244-0.244 0.244-0.64 0-0.884s-0.64-0.244-0.884 0l-2.058 2.058v-4.741c0-0.345-0.28-0.625-0.625-0.625s-0.625 0.28-0.625 0.625v4.741z"></path>
</svg>
