<!-- Generated by IcoMoon.io -->
<svg version="1.1" xmlns="http://www.w3.org/2000/svg" width="20" height="20" viewBox="0 0 20 20">
<title>sort-asc-horizontal</title>
<path d="M5.808 2.683c0.244-0.244 0.64-0.244 0.884 0l3.567 3.567-3.567 3.567c-0.244 0.244-0.64 0.244-0.884 0s-0.244-0.64 0-0.884l2.058-2.058h-4.741c-0.345 0-0.625-0.28-0.625-0.625s0.28-0.625 0.625-0.625h4.741l-2.058-2.058c-0.244-0.244-0.244-0.64 0-0.884z"></path>
<path d="M4.375 16.25c0-0.345-0.28-0.625-0.625-0.625s-0.625 0.28-0.625 0.625v0.625c0 0.345 0.28 0.625 0.625 0.625s0.625-0.28 0.625-0.625v-0.625z"></path>
<path d="M6.875 12.5c0.345 0 0.625 0.28 0.625 0.625v3.75c0 0.345-0.28 0.625-0.625 0.625s-0.625-0.28-0.625-0.625v-3.75c0-0.345 0.28-0.625 0.625-0.625z"></path>
<path d="M10.625 10c0-0.345-0.28-0.625-0.625-0.625s-0.625 0.28-0.625 0.625v6.875c0 0.345 0.28 0.625 0.625 0.625s0.625-0.28 0.625-0.625v-6.875z"></path>
<path d="M13.125 6.25c0.345 0 0.625 0.28 0.625 0.625v10c0 0.345-0.28 0.625-0.625 0.625s-0.625-0.28-0.625-0.625v-10c0-0.345 0.28-0.625 0.625-0.625z"></path>
<path d="M16.875 3.75c0-0.345-0.28-0.625-0.625-0.625s-0.625 0.28-0.625 0.625v13.125c0 0.345 0.28 0.625 0.625 0.625s0.625-0.28 0.625-0.625v-13.125z"></path>
</svg>
