<!-- Generated by IcoMoon.io -->
<svg version="1.1" xmlns="http://www.w3.org/2000/svg" width="32" height="32" viewBox="0 0 32 32">
<title>sort-desc-horizontal-alt</title>
<path d="M11.707 4.293c0.39 0.391 0.39 1.024 0 1.414l-3.293 3.293h17.586c0.552 0 1 0.448 1 1s-0.448 1-1 1h-17.586l3.293 3.293c0.39 0.39 0.39 1.024 0 1.414s-1.024 0.391-1.414 0l-5.707-5.707 5.707-5.707c0.39-0.391 1.024-0.391 1.414 0z"></path>
<path d="M7 21c0-0.552-0.448-1-1-1s-1 0.448-1 1v6c0 0.552 0.448 1 1 1s1-0.448 1-1v-6z"></path>
<path d="M11 20c0.552 0 1 0.448 1 1v6c0 0.552-0.448 1-1 1s-1-0.448-1-1v-6c0-0.552 0.448-1 1-1z"></path>
<path d="M17 21c0-0.552-0.448-1-1-1s-1 0.448-1 1v6c0 0.552 0.448 1 1 1s1-0.448 1-1v-6z"></path>
<path d="M21 20c0.552 0 1 0.448 1 1v6c0 0.552-0.448 1-1 1s-1-0.448-1-1v-6c0-0.552 0.448-1 1-1z"></path>
<path d="M26 20c0.552 0 1 0.448 1 1v6c0 0.552-0.448 1-1 1s-1-0.448-1-1v-6c0-0.552 0.448-1 1-1z"></path>
</svg>
