<!-- Generated by IcoMoon.io -->
<svg version="1.1" xmlns="http://www.w3.org/2000/svg" width="20" height="20" viewBox="0 0 20 20">
<title>sort-desc-horizontal-alt</title>
<path d="M7.317 2.683c0.244 0.244 0.244 0.64 0 0.884l-2.058 2.058h10.991c0.345 0 0.625 0.28 0.625 0.625s-0.28 0.625-0.625 0.625h-10.991l2.058 2.058c0.244 0.244 0.244 0.64 0 0.884s-0.64 0.244-0.884 0l-3.567-3.567 3.567-3.567c0.244-0.244 0.64-0.244 0.884 0z"></path>
<path d="M4.375 13.125c0-0.345-0.28-0.625-0.625-0.625s-0.625 0.28-0.625 0.625v3.75c0 0.345 0.28 0.625 0.625 0.625s0.625-0.28 0.625-0.625v-3.75z"></path>
<path d="M6.875 12.5c0.345 0 0.625 0.28 0.625 0.625v3.75c0 0.345-0.28 0.625-0.625 0.625s-0.625-0.28-0.625-0.625v-3.75c0-0.345 0.28-0.625 0.625-0.625z"></path>
<path d="M10.625 13.125c0-0.345-0.28-0.625-0.625-0.625s-0.625 0.28-0.625 0.625v3.75c0 0.345 0.28 0.625 0.625 0.625s0.625-0.28 0.625-0.625v-3.75z"></path>
<path d="M13.125 12.5c0.345 0 0.625 0.28 0.625 0.625v3.75c0 0.345-0.28 0.625-0.625 0.625s-0.625-0.28-0.625-0.625v-3.75c0-0.345 0.28-0.625 0.625-0.625z"></path>
<path d="M16.25 12.5c0.345 0 0.625 0.28 0.625 0.625v3.75c0 0.345-0.28 0.625-0.625 0.625s-0.625-0.28-0.625-0.625v-3.75c0-0.345 0.28-0.625 0.625-0.625z"></path>
</svg>
