<!-- Generated by IcoMoon.io -->
<svg version="1.1" xmlns="http://www.w3.org/2000/svg" width="20" height="20" viewBox="0 0 20 20">
<title>sort-asc-vertical-alt</title>
<path d="M14.195 2.945l3.122 3.122c0.244 0.244 0.244 0.64 0 0.884s-0.64 0.244-0.884 0l-2.058-2.058v11.616c0 0.345-0.28 0.625-0.625 0.625s-0.625-0.28-0.625-0.625v-11.616l-2.058 2.058c-0.244 0.244-0.64 0.244-0.884 0s-0.244-0.64 0-0.884l3.122-3.122c0.002-0.002 0.004-0.004 0.006-0.006l0.439-0.439 0.439 0.439c0.002 0.002 0.004 0.004 0.006 0.006z"></path>
<path d="M3.125 2.759c-0.345 0-0.625 0.28-0.625 0.625s0.28 0.625 0.625 0.625h3.75c0.345 0 0.625-0.28 0.625-0.625s-0.28-0.625-0.625-0.625h-3.75z"></path>
<path d="M2.5 6.509c0-0.345 0.28-0.625 0.625-0.625h3.75c0.345 0 0.625 0.28 0.625 0.625s-0.28 0.625-0.625 0.625h-3.75c-0.345 0-0.625-0.28-0.625-0.625z"></path>
<path d="M3.125 9.009c-0.345 0-0.625 0.28-0.625 0.625s0.28 0.625 0.625 0.625h3.75c0.345 0 0.625-0.28 0.625-0.625s-0.28-0.625-0.625-0.625h-3.75z"></path>
<path d="M2.5 12.759c0-0.345 0.28-0.625 0.625-0.625h3.75c0.345 0 0.625 0.28 0.625 0.625s-0.28 0.625-0.625 0.625h-3.75c-0.345 0-0.625-0.28-0.625-0.625z"></path>
<path d="M2.5 15.884c0-0.345 0.28-0.625 0.625-0.625h3.75c0.345 0 0.625 0.28 0.625 0.625s-0.28 0.625-0.625 0.625h-3.75c-0.345 0-0.625-0.28-0.625-0.625z"></path>
</svg>
