<!-- Generated by IcoMoon.io -->
<svg version="1.1" xmlns="http://www.w3.org/2000/svg" width="20" height="20" viewBox="0 0 20 20">
<title>speaker</title>
<path d="M10 4.375c-1.036 0-1.875 0.839-1.875 1.875s0.839 1.875 1.875 1.875 1.875-0.839 1.875-1.875c0-1.036-0.839-1.875-1.875-1.875zM9.375 6.25c0-0.345 0.28-0.625 0.625-0.625s0.625 0.28 0.625 0.625c0 0.345-0.28 0.625-0.625 0.625s-0.625-0.28-0.625-0.625z"></path>
<path d="M10.625 12.5c0 0.345-0.28 0.625-0.625 0.625s-0.625-0.28-0.625-0.625c0-0.345 0.28-0.625 0.625-0.625s0.625 0.28 0.625 0.625z"></path>
<path d="M10 9.375c-1.726 0-3.125 1.399-3.125 3.125s1.399 3.125 3.125 3.125c1.726 0 3.125-1.399 3.125-3.125s-1.399-3.125-3.125-3.125zM8.125 12.5c0-1.036 0.839-1.875 1.875-1.875s1.875 0.839 1.875 1.875c0 1.036-0.839 1.875-1.875 1.875s-1.875-0.839-1.875-1.875z"></path>
<path d="M4.375 3.75c0-1.408 1.092-2.5 2.5-2.5h6.25c1.408 0 2.5 1.092 2.5 2.5v12.5c0 1.408-1.092 2.5-2.5 2.5h-6.25c-1.408 0-2.5-1.092-2.5-2.5v-12.5zM6.875 2.5c-0.717 0-1.25 0.533-1.25 1.25v12.5c0 0.717 0.533 1.25 1.25 1.25h6.25c0.717 0 1.25-0.533 1.25-1.25v-12.5c0-0.717-0.533-1.25-1.25-1.25h-6.25z"></path>
</svg>
