<!-- Generated by IcoMoon.io -->
<svg version="1.1" xmlns="http://www.w3.org/2000/svg" width="20" height="20" viewBox="0 0 20 20">
<title>stack</title>
<path d="M18.74 6.349l-8.74-5.099-8.74 5.099 8.74 5.099 8.74-5.099zM10 10l-6.26-3.651 6.26-3.651 6.26 3.651-6.26 3.651z"></path>
<path d="M2.815 8.309c-0.298-0.174-0.681-0.073-0.855 0.225s-0.073 0.681 0.225 0.855l7.815 4.559 7.815-4.559c0.298-0.174 0.399-0.557 0.225-0.855s-0.557-0.399-0.855-0.225l-7.185 4.191-7.185-4.191z"></path>
<path d="M1.96 11.034c0.174-0.298 0.557-0.399 0.855-0.225l7.185 4.191 7.185-4.191c0.298-0.174 0.681-0.073 0.855 0.225s0.073 0.681-0.225 0.855l-7.815 4.559-7.815-4.559c-0.298-0.174-0.399-0.557-0.225-0.855z"></path>
<path d="M2.815 13.309c-0.298-0.174-0.681-0.073-0.855 0.225s-0.073 0.681 0.225 0.855l7.815 4.559 7.815-4.559c0.298-0.174 0.399-0.557 0.225-0.855s-0.557-0.399-0.855-0.225l-7.185 4.191-7.185-4.191z"></path>
</svg>
