<!-- Generated by IcoMoon.io -->
<svg version="1.1" xmlns="http://www.w3.org/2000/svg" width="20" height="20" viewBox="0 0 20 20">
<title>stack-pending</title>
<path d="M18.737 5.721l-8.737-5.096-8.74 5.098 7.987 4.665c0.298 0.174 0.681 0.074 0.855-0.224s0.074-0.681-0.224-0.855l-6.138-3.585 6.26-3.652 6.263 3.654-2.268 1.334c-0.298 0.175-0.397 0.558-0.222 0.856s0.558 0.397 0.856 0.222l4.107-2.416z"></path>
<path d="M2.815 7.684c-0.298-0.174-0.681-0.073-0.855 0.225s-0.073 0.681 0.225 0.855l6 3.5c0.298 0.174 0.681 0.073 0.855-0.225s0.073-0.681-0.225-0.855l-6-3.5z"></path>
<path d="M1.961 10.407c0.175-0.297 0.558-0.397 0.856-0.221l5.625 3.313c0.297 0.175 0.397 0.558 0.221 0.856s-0.558 0.397-0.856 0.221l-5.625-3.313c-0.297-0.175-0.397-0.558-0.221-0.856z"></path>
<path d="M2.812 12.682c-0.299-0.172-0.681-0.070-0.854 0.229s-0.070 0.681 0.229 0.854l6.5 3.75c0.299 0.172 0.681 0.070 0.854-0.229s0.070-0.681-0.229-0.854l-6.5-3.75z"></path>
<path d="M15 13.849c0 0.345-0.28 0.625-0.625 0.625s-0.625-0.28-0.625-0.625c0-0.345 0.28-0.625 0.625-0.625s0.625 0.28 0.625 0.625z"></path>
<path d="M12.5 14.474c0.345 0 0.625-0.28 0.625-0.625s-0.28-0.625-0.625-0.625c-0.345 0-0.625 0.28-0.625 0.625s0.28 0.625 0.625 0.625z"></path>
<path d="M16.875 13.849c0 0.345-0.28 0.625-0.625 0.625s-0.625-0.28-0.625-0.625c0-0.345 0.28-0.625 0.625-0.625s0.625 0.28 0.625 0.625z"></path>
<path d="M9.375 13.849c0-2.761 2.239-5 5-5s5 2.239 5 5c0 2.761-2.239 5-5 5s-5-2.239-5-5zM14.375 10.099c-2.071 0-3.75 1.679-3.75 3.75s1.679 3.75 3.75 3.75c2.071 0 3.75-1.679 3.75-3.75s-1.679-3.75-3.75-3.75z"></path>
</svg>
