<!-- Generated by IcoMoon.io -->
<svg version="1.1" xmlns="http://www.w3.org/2000/svg" width="20" height="20" viewBox="0 0 20 20">
<title>stack-down</title>
<path d="M10 0.625l8.737 5.096-4.107 2.416c-0.297 0.175-0.681 0.076-0.856-0.222s-0.076-0.681 0.222-0.856l2.268-1.334-6.263-3.654-6.26 3.652 6.138 3.585c0.298 0.174 0.399 0.557 0.224 0.855s-0.557 0.399-0.855 0.224l-7.987-4.665 8.74-5.098z"></path>
<path d="M1.96 7.909c0.174-0.298 0.557-0.399 0.855-0.225l6 3.5c0.298 0.174 0.399 0.557 0.225 0.855s-0.557 0.399-0.855 0.225l-6-3.5c-0.298-0.174-0.399-0.557-0.225-0.855z"></path>
<path d="M2.817 10.185c-0.297-0.175-0.681-0.076-0.856 0.221s-0.076 0.681 0.221 0.856l5.625 3.313c0.297 0.175 0.681 0.076 0.856-0.221s0.076-0.681-0.221-0.856l-5.625-3.313z"></path>
<path d="M1.959 12.911c0.173-0.299 0.555-0.402 0.854-0.229l6.5 3.75c0.299 0.172 0.402 0.555 0.229 0.854s-0.555 0.402-0.854 0.229l-6.5-3.75c-0.299-0.172-0.402-0.555-0.229-0.854z"></path>
<path d="M12.058 13.407c0.244-0.244 0.64-0.244 0.884 0l0.808 0.808v-2.241c0-0.345 0.28-0.625 0.625-0.625s0.625 0.28 0.625 0.625v2.241l0.808-0.808c0.244-0.244 0.64-0.244 0.884 0s0.244 0.64 0 0.884l-2.317 2.317-2.317-2.317c-0.244-0.244-0.244-0.64 0-0.884z"></path>
<path d="M14.375 8.849c-2.761 0-5 2.239-5 5s2.239 5 5 5c2.761 0 5-2.239 5-5s-2.239-5-5-5zM10.625 13.849c0-2.071 1.679-3.75 3.75-3.75s3.75 1.679 3.75 3.75c0 2.071-1.679 3.75-3.75 3.75s-3.75-1.679-3.75-3.75z"></path>
</svg>
