<!-- Generated by IcoMoon.io -->
<svg version="1.1" xmlns="http://www.w3.org/2000/svg" width="32" height="32" viewBox="0 0 32 32">
<title>stack</title>
<path d="M16 1.53l-14 8.16 14 8.16 14-8.16-14-8.16zM6 9.69l10-5.84 10 5.84-10 5.84-10-5.84z"></path>
<path d="M28.86 13.19c-0.134-0.227-0.351-0.392-0.606-0.46s-0.526-0.032-0.754 0.1l-11.5 6.7-11.5-6.7c-0.106-0.078-0.227-0.133-0.355-0.164s-0.261-0.036-0.391-0.016c-0.13 0.021-0.255 0.066-0.367 0.135s-0.21 0.159-0.287 0.265-0.133 0.227-0.164 0.355c-0.031 0.128-0.036 0.261-0.016 0.391s0.066 0.255 0.135 0.367c0.069 0.112 0.159 0.21 0.265 0.287l0.18 0.1 12.5 7.3 12.5-7.3c0.227-0.134 0.392-0.351 0.46-0.606s0.032-0.526-0.1-0.754z"></path>
<path d="M28.86 17.19c-0.134-0.227-0.351-0.392-0.606-0.46s-0.526-0.032-0.754 0.1l-11.5 6.7-11.5-6.7c-0.106-0.078-0.227-0.133-0.355-0.164s-0.261-0.036-0.391-0.016c-0.13 0.020-0.255 0.066-0.367 0.135s-0.21 0.159-0.287 0.265-0.133 0.227-0.164 0.355c-0.031 0.128-0.036 0.261-0.016 0.391s0.066 0.255 0.135 0.367c0.069 0.112 0.159 0.21 0.265 0.287l0.18 0.1 12.5 7.3 12.5-7.3c0.227-0.134 0.392-0.351 0.46-0.606s0.032-0.526-0.1-0.754z"></path>
<path d="M27.5 20.83l-11.5 6.7-11.5-6.7c-0.106-0.078-0.227-0.133-0.355-0.164s-0.261-0.036-0.391-0.016c-0.13 0.020-0.255 0.066-0.367 0.135s-0.21 0.159-0.287 0.265-0.133 0.227-0.164 0.355c-0.031 0.128-0.036 0.261-0.016 0.391s0.066 0.255 0.135 0.367c0.069 0.112 0.159 0.21 0.265 0.287l0.18 0.1 12.5 7.3 12.5-7.3c0.2-0.146 0.339-0.36 0.39-0.602s0.011-0.495-0.114-0.709c-0.124-0.214-0.324-0.374-0.559-0.45s-0.491-0.061-0.717 0.041z"></path>
</svg>
