<!-- Generated by IcoMoon.io -->
<svg version="1.1" xmlns="http://www.w3.org/2000/svg" width="32" height="32" viewBox="0 0 32 32">
<title>star</title>
<path d="M16 2c0.399 0 0.759 0.237 0.918 0.602l3.664 8.456 9.21 0.846c0.398 0.037 0.736 0.306 0.859 0.686s0.009 0.797-0.291 1.061l-6.957 6.111 1.974 9.024c0.085 0.389-0.069 0.792-0.392 1.025s-0.754 0.252-1.096 0.048l-7.889-4.696-7.889 4.696c-0.342 0.204-0.773 0.185-1.096-0.048s-0.477-0.636-0.392-1.025l1.974-9.024-6.957-6.111c-0.3-0.264-0.415-0.681-0.291-1.061s0.462-0.65 0.859-0.686l9.21-0.846 3.664-8.456c0.159-0.366 0.519-0.602 0.918-0.602zM16 5.515l-2.982 6.883c-0.145 0.335-0.462 0.565-0.826 0.598l-7.485 0.687 5.653 4.965c0.273 0.24 0.395 0.61 0.317 0.965l-1.607 7.348 6.419-3.821c0.315-0.188 0.708-0.188 1.023 0l6.419 3.821-1.607-7.348c-0.078-0.355 0.044-0.725 0.317-0.965l5.653-4.965-7.485-0.687c-0.364-0.033-0.681-0.263-0.826-0.598l-2.982-6.883z"></path>
</svg>
