<!-- Generated by IcoMoon.io -->
<svg version="1.1" xmlns="http://www.w3.org/2000/svg" width="20" height="20" viewBox="0 0 20 20">
<title>star</title>
<path d="M10 1.25c0.249 0 0.474 0.148 0.573 0.376l2.29 5.285 5.756 0.529c0.249 0.023 0.46 0.192 0.537 0.429s0.006 0.498-0.182 0.663l-4.348 3.819 1.234 5.64c0.053 0.243-0.043 0.495-0.245 0.641s-0.471 0.157-0.685 0.030l-4.93-2.935-4.93 2.935c-0.214 0.127-0.483 0.116-0.685-0.030s-0.298-0.397-0.245-0.641l1.234-5.64-4.348-3.819c-0.188-0.165-0.259-0.426-0.182-0.663s0.288-0.406 0.537-0.429l5.756-0.529 2.29-5.285c0.099-0.229 0.324-0.376 0.573-0.376zM10 3.447l-1.864 4.302c-0.091 0.21-0.289 0.353-0.516 0.374l-4.678 0.43 3.533 3.103c0.171 0.15 0.247 0.381 0.198 0.603l-1.005 4.592 4.012-2.388c0.197-0.117 0.442-0.117 0.639 0l4.012 2.388-1.005-4.592c-0.049-0.222 0.027-0.453 0.198-0.603l3.533-3.103-4.678-0.43c-0.228-0.021-0.425-0.164-0.516-0.374l-1.864-4.302z"></path>
</svg>
