<!-- Generated by IcoMoon.io -->
<svg version="1.1" xmlns="http://www.w3.org/2000/svg" width="20" height="20" viewBox="0 0 20 20">
<title>star-off</title>
<path d="M1.433 1.433c0.244-0.244 0.64-0.244 0.884 0l12.62 12.62c0.003 0.003 0.007 0.007 0.010 0.010l3.62 3.62c0.244 0.244 0.244 0.64 0 0.884s-0.64 0.244-0.884 0l-2.148-2.148 0.327 1.579c0.050 0.243-0.048 0.492-0.249 0.636s-0.469 0.155-0.682 0.028l-4.93-2.935-4.93 2.935c-0.214 0.127-0.483 0.116-0.685-0.030s-0.298-0.397-0.245-0.641l1.234-5.64-4.348-3.819c-0.188-0.165-0.259-0.425-0.182-0.663s0.288-0.406 0.537-0.429l4.737-0.439-4.684-4.684c-0.244-0.244-0.244-0.64 0-0.884zM7.266 8.149l-4.325 0.401 3.535 3.105c0.171 0.15 0.247 0.381 0.198 0.603l-1.005 4.592 4.012-2.388c0.197-0.117 0.442-0.117 0.639 0l4.031 2.399-0.425-2.053-6.66-6.66z"></path>
<path d="M9.999 1.25c0.25-0.001 0.476 0.147 0.575 0.376l2.29 5.285 5.756 0.529c0.249 0.023 0.46 0.192 0.537 0.43s0.005 0.499-0.184 0.663l-3.938 3.438c-0.26 0.227-0.655 0.2-0.882-0.060s-0.2-0.655 0.060-0.882l2.838-2.478-4.672-0.429c-0.228-0.021-0.426-0.164-0.516-0.374l-1.861-4.294-0.929 2.167c-0.136 0.317-0.503 0.464-0.821 0.328s-0.464-0.503-0.328-0.821l1.5-3.5c0.098-0.229 0.324-0.378 0.573-0.379z"></path>
</svg>
