<!-- Generated by IcoMoon.io -->
<svg version="1.1" xmlns="http://www.w3.org/2000/svg" width="32" height="32" viewBox="0 0 32 32">
<title>star-half</title>
<path d="M16.203 2.021c0.464 0.096 0.797 0.505 0.797 0.979v21c0 0.352-0.186 0.679-0.488 0.859l-8.4 5c-0.342 0.204-0.773 0.185-1.096-0.048s-0.477-0.636-0.392-1.025l1.974-9.024-6.957-6.111c-0.3-0.264-0.415-0.681-0.291-1.061s0.462-0.65 0.859-0.686l9.21-0.846 3.664-8.456c0.188-0.435 0.656-0.678 1.121-0.582zM15 7.823l-1.982 4.575c-0.145 0.335-0.462 0.565-0.826 0.598l-7.484 0.687 5.653 4.965c0.273 0.24 0.395 0.61 0.317 0.965l-1.607 7.348 5.93-3.53v-15.609z"></path>
</svg>
