<!-- Generated by IcoMoon.io -->
<svg version="1.1" xmlns="http://www.w3.org/2000/svg" width="32" height="32" viewBox="0 0 32 32">
<title>star-off</title>
<path d="M2.293 2.293c0.391-0.391 1.024-0.391 1.414 0l20.193 20.193c0.005 0.005 0.011 0.011 0.016 0.016l5.791 5.791c0.39 0.39 0.39 1.024 0 1.414s-1.024 0.39-1.414 0l-3.436-3.436 0.523 2.527c0.080 0.388-0.076 0.787-0.399 1.017s-0.751 0.247-1.092 0.045l-7.889-4.696-7.889 4.696c-0.342 0.204-0.773 0.185-1.096-0.048s-0.477-0.636-0.392-1.025l1.974-9.024-6.957-6.111c-0.3-0.264-0.415-0.68-0.291-1.060s0.461-0.65 0.859-0.687l7.579-0.703-7.494-7.494c-0.391-0.391-0.391-1.024 0-1.414zM11.625 13.039l-6.92 0.642 5.655 4.967c0.273 0.24 0.395 0.61 0.317 0.965l-1.607 7.348 6.419-3.821c0.315-0.188 0.708-0.188 1.023 0l6.449 3.839-0.68-3.284-10.656-10.656z"></path>
<path d="M15.998 2c0.399-0.001 0.761 0.236 0.92 0.602l3.664 8.456 9.21 0.846c0.398 0.037 0.737 0.307 0.86 0.688s0.008 0.798-0.294 1.061l-6.3 5.5c-0.416 0.363-1.048 0.32-1.411-0.096s-0.32-1.048 0.096-1.411l4.541-3.964-7.475-0.687c-0.364-0.033-0.681-0.263-0.826-0.598l-2.977-6.871-1.486 3.467c-0.217 0.508-0.805 0.743-1.313 0.525s-0.743-0.805-0.525-1.313l2.4-5.6c0.157-0.367 0.518-0.605 0.917-0.606z"></path>
</svg>
