<!-- Generated by IcoMoon.io -->
<svg version="1.1" xmlns="http://www.w3.org/2000/svg" width="20" height="20" viewBox="0 0 20 20">
<title>star-half</title>
<path d="M10.127 1.263c0.29 0.060 0.498 0.316 0.498 0.612v13.125c0 0.22-0.116 0.424-0.305 0.537l-5.25 3.125c-0.214 0.127-0.483 0.116-0.685-0.030s-0.298-0.397-0.245-0.641l1.234-5.64-4.348-3.819c-0.188-0.165-0.259-0.426-0.182-0.663s0.288-0.406 0.537-0.429l5.756-0.529 2.29-5.285c0.118-0.272 0.41-0.424 0.7-0.363zM9.375 4.889l-1.239 2.859c-0.091 0.21-0.289 0.353-0.516 0.374l-4.678 0.43 3.533 3.103c0.171 0.15 0.247 0.381 0.198 0.603l-1.005 4.592 3.707-2.206v-9.755z"></path>
</svg>
