<!-- Generated by IcoMoon.io -->
<svg version="1.1" xmlns="http://www.w3.org/2000/svg" width="20" height="20" viewBox="0 0 20 20">
<title>status-error</title>
<path d="M14.062 7.336c0.409-0.422 0.398-1.095-0.024-1.504s-1.096-0.398-1.504 0.024l-2.558 2.64-2.64-2.558c-0.422-0.409-1.095-0.398-1.504 0.024s-0.398 1.096 0.024 1.504l2.64 2.558-2.558 2.64c-0.409 0.422-0.398 1.096 0.024 1.504s1.095 0.398 1.504-0.024l2.558-2.64 2.64 2.558c0.422 0.409 1.096 0.398 1.504-0.024s0.398-1.095-0.024-1.504l-2.64-2.558 2.558-2.64z"></path>
</svg>
