<!-- Generated by IcoMoon.io -->
<svg version="1.1" xmlns="http://www.w3.org/2000/svg" width="20" height="20" viewBox="0 0 20 20">
<title>statuspage</title>
<path d="M13.481 9.806c-0 0.696-0.207 1.376-0.594 1.955s-0.938 1.028-1.581 1.293c-0.644 0.265-1.352 0.333-2.034 0.195s-1.308-0.476-1.798-0.97c-0.49-0.494-0.822-1.123-0.954-1.807s-0.058-1.391 0.213-2.032c0.271-0.641 0.726-1.188 1.307-1.57s1.264-0.583 1.96-0.577c0.926 0.008 1.812 0.382 2.463 1.040s1.018 1.547 1.018 2.473zM15.688 9.806h3.481c-0.001 1.81-0.537 3.579-1.542 5.084s-2.432 2.68-4.103 3.376-3.51 0.881-5.286 0.534c-1.776-0.348-3.41-1.213-4.695-2.488l2.5-2.5c0.797 0.775 1.803 1.3 2.895 1.509s2.221 0.093 3.248-0.333c1.027-0.426 1.906-1.145 2.528-2.066s0.961-2.004 0.973-3.116zM4.313 9.806v0.037h-3.481v-0.037c0.003-1.809 0.541-3.576 1.547-5.080s2.433-2.676 4.103-3.37c1.67-0.694 3.508-0.879 5.283-0.531s3.407 1.213 4.692 2.487l-2.431 2.5c-0.792-0.798-1.804-1.343-2.906-1.566s-2.246-0.113-3.286 0.314c-1.040 0.428-1.93 1.154-2.556 2.088s-0.962 2.032-0.964 3.157z"></path>
</svg>
