<!-- Generated by IcoMoon.io -->
<svg version="1.1" xmlns="http://www.w3.org/2000/svg" width="32" height="32" viewBox="0 0 32 32">
<title>statuspage</title>
<path d="M21.57 15.69c-0 1.114-0.331 2.202-0.951 3.127s-1.5 1.646-2.53 2.069c-1.030 0.424-2.162 0.532-3.254 0.311s-2.093-0.761-2.877-1.552c-0.784-0.791-1.315-1.797-1.526-2.89s-0.093-2.225 0.34-3.251c0.433-1.026 1.161-1.9 2.092-2.512s2.022-0.933 3.136-0.923c1.482 0.013 2.898 0.611 3.942 1.664s1.628 2.475 1.628 3.956zM25.1 15.69h5.57c-0.001 2.896-0.86 5.726-2.466 8.135s-3.891 4.288-6.564 5.401-5.616 1.41-8.458 0.854c-2.842-0.556-5.455-1.941-7.511-3.98l4-4c1.274 1.241 2.885 2.080 4.632 2.415s3.553 0.149 5.196-0.534c1.643-0.682 3.049-1.832 4.045-3.305s1.537-3.207 1.558-4.986zM6.9 15.69v0.060h-5.57v-0.060c0.005-2.894 0.866-5.722 2.475-8.128s3.893-4.282 6.565-5.393c2.672-1.111 5.614-1.406 8.454-0.849s5.452 1.942 7.506 3.979l-3.89 4c-1.268-1.277-2.886-2.148-4.65-2.505s-3.593-0.181-5.257 0.503c-1.664 0.684-3.088 1.847-4.090 3.341s-1.54 3.252-1.543 5.051z"></path>
</svg>
