<!-- Generated by IcoMoon.io -->
<svg version="1.1" xmlns="http://www.w3.org/2000/svg" width="20" height="20" viewBox="0 0 20 20">
<title>statuscake</title>
<path d="M14.669 4.725c0-0.051 0.020-0.101 0.057-0.137s0.086-0.057 0.137-0.057c0.057-0 0.112 0.022 0.152 0.062s0.065 0.094 0.066 0.151c0 0.055-0.022 0.107-0.060 0.146s-0.091 0.060-0.146 0.060c-0.051 0-0.101-0.020-0.137-0.057s-0.057-0.086-0.057-0.137l-0.012-0.031zM6.956 4.725c-0.061 0-0.12-0.024-0.163-0.068s-0.068-0.102-0.068-0.164c0-0.181 0.125-0.237 0.269-0.231s0.231 0.069 0.231 0.225c-0.002 0.061-0.026 0.119-0.069 0.162s-0.101 0.068-0.162 0.069l-0.037 0.006zM7.813 1.137c-0.162-0.037-0.275-0.1-0.256-0.269 0-0.060 0.024-0.117 0.066-0.159s0.099-0.066 0.159-0.066h0.044c0.156 0 0.244 0.069 0.244 0.238 0.002 0.034-0.004 0.068-0.016 0.1s-0.031 0.061-0.055 0.085-0.053 0.043-0.085 0.055c-0.032 0.012-0.066 0.018-0.1 0.016zM3.669 7c-0.175 0-0.313-0.125-0.325-0.375 0-0.108 0.043-0.211 0.119-0.287s0.18-0.119 0.287-0.119c0.104 0 0.205 0.042 0.278 0.115s0.115 0.174 0.115 0.278c-0.037 0.225-0.138 0.387-0.475 0.387zM15.894 4.013c-0.14-0.009-0.272-0.070-0.37-0.17s-0.156-0.233-0.161-0.374c-0.003-0.070 0.009-0.139 0.034-0.204s0.063-0.125 0.111-0.175c0.048-0.050 0.107-0.090 0.171-0.117s0.133-0.041 0.203-0.041h0.031c0.136 0 0.266 0.054 0.362 0.15s0.15 0.226 0.15 0.362c0 0.14-0.055 0.274-0.153 0.373s-0.232 0.156-0.372 0.158l-0.006 0.037zM10 2.381c-0.143-0.003-0.279-0.060-0.381-0.16s-0.162-0.235-0.169-0.377c-0.008-0.077-0-0.154 0.024-0.228s0.063-0.141 0.114-0.198c0.052-0.057 0.115-0.103 0.185-0.135s0.147-0.048 0.224-0.048 0.153 0.016 0.224 0.048c0.071 0.031 0.134 0.077 0.185 0.135s0.091 0.125 0.114 0.198c0.024 0.073 0.032 0.151 0.024 0.228-0.009 0.141-0.069 0.273-0.17 0.372s-0.233 0.158-0.374 0.165zM2.825 5.875c-0.136 0-0.266-0.054-0.362-0.15s-0.15-0.226-0.15-0.362v-0.031c0.006-0.131 0.059-0.255 0.148-0.351s0.209-0.158 0.34-0.174c0.145 0.003 0.284 0.063 0.385 0.167s0.159 0.244 0.158 0.389v0.006c0 0.066-0.013 0.132-0.039 0.194s-0.063 0.117-0.11 0.164c-0.047 0.047-0.103 0.084-0.164 0.11s-0.127 0.039-0.194 0.039h-0.012zM16.394 5.594c0.035-0.122 0.103-0.233 0.195-0.321s0.206-0.15 0.33-0.179c0.124-0.029 0.254-0.025 0.375 0.012s0.232 0.106 0.318 0.2c0.129 0.077 0.235 0.188 0.308 0.319s0.109 0.28 0.105 0.431c0 0.134-0.031 0.267-0.090 0.387s-0.146 0.225-0.253 0.306l0.156 0.269c0.287 0.513 0.269 0.7-0.125 1.156-0.167 0.22-0.377 0.404-0.618 0.539s-0.507 0.221-0.781 0.249c-0.275 0.029-0.553 0.001-0.816-0.082s-0.507-0.219-0.716-0.4c-0.4-0.387-0.594-0.919-0.962-1.331-0.088-0.1 0-0.231 0.044-0.356-0.094-0.075-0.171-0.17-0.223-0.278s-0.081-0.227-0.083-0.347c0.001-0.209 0.081-0.41 0.225-0.563 0.076-0.091 0.172-0.164 0.28-0.213s0.226-0.072 0.345-0.068c0.118-0.002 0.236 0.022 0.344 0.070s0.204 0.121 0.281 0.211h0.063c0.168-0.084 0.347-0.143 0.531-0.175 0.265-0.001 0.527 0.055 0.769 0.162zM5.563 4.544c-0.181-0.009-0.352-0.087-0.478-0.216s-0.199-0.302-0.203-0.484c-0.001-0.172 0.063-0.338 0.179-0.465s0.275-0.207 0.446-0.222c0.19-0.007 0.374 0.062 0.514 0.19s0.222 0.307 0.23 0.497c-0.009 0.181-0.084 0.352-0.21 0.481s-0.297 0.207-0.477 0.219zM13.931 3.681c-0.412 0-0.625-0.325-0.625-0.8s0.225-0.744 0.588-0.744c0.228 0.021 0.441 0.123 0.599 0.289s0.252 0.382 0.263 0.611c-0.012 0.381-0.381 0.644-0.825 0.644zM12.306 5.938c-0.143-0.001-0.284-0.032-0.414-0.091s-0.247-0.144-0.342-0.251c-0.095-0.107-0.167-0.232-0.211-0.368s-0.059-0.28-0.044-0.422c0-0.625 0.338-1.075 0.869-1.075 0.334 0.020 0.65 0.162 0.886 0.399s0.377 0.554 0.395 0.888c0.006 0.544-0.45 0.919-1.137 0.919zM7.25 6.831c-0.065-0.245-0.099-0.497-0.1-0.75-0.002-0.376 0.075-0.749 0.225-1.094 0.094-0.223 0.252-0.414 0.452-0.549s0.437-0.209 0.679-0.213h0.112c0.028-0.072 0.069-0.137 0.122-0.192s0.117-0.099 0.187-0.13c0.071-0.030 0.146-0.046 0.223-0.047s0.153 0.014 0.224 0.044c0.3 0.087 0.419 0.325 0.419 0.794 0.271 0.246 0.484 0.549 0.625 0.888-1.179-0.011-2.315 0.437-3.169 1.25zM17.944 12.575c0.188 0.292 0.283 0.634 0.275 0.981 0.002 0.341-0.094 0.674-0.275 0.963v0.037c-0.431 0.805-1.005 1.525-1.694 2.125-0.633 0.615-1.369 1.114-2.175 1.475-0.147 0.101-0.313 0.172-0.488 0.206h0.044c-0.787 0.362-1.635 0.574-2.5 0.625h0.037c-0.263 0-0.525 0.044-0.788 0.044-0.419-0.001-0.838-0.040-1.25-0.119h-0.031c-0.791-0.089-1.56-0.32-2.269-0.681l-0.125-0.069h-0.038c-0.682-0.304-1.305-0.727-1.837-1.25-0.318-0.237-0.593-0.527-0.813-0.856-0.703-0.715-1.254-1.566-1.619-2.5v0.037c-0.2-0.445-0.337-0.917-0.406-1.4v0.050c-0.162-0.612-0.244-1.242-0.244-1.875 0.017-0.334 0.059-0.666 0.125-0.994 0.038-0.281 0.313-0.412 0.525-0.575v-0.119c-0-0.225 0.064-0.446 0.184-0.637s0.293-0.342 0.497-0.438c0.2-0.11 0.427-0.162 0.655-0.152s0.449 0.082 0.639 0.209l0.137 0.081c-0.040-0.088-0.057-0.185-0.050-0.281-0.012-0.1-0.012-0.2 0-0.3-0.002-0.326 0.116-0.641 0.333-0.884s0.515-0.398 0.838-0.435c0.324-0.036 0.649 0.048 0.914 0.237s0.451 0.47 0.521 0.788c0.003 0.033 0.003 0.067 0 0.1 0.001 0.050-0.009 0.099-0.030 0.145s-0.051 0.086-0.089 0.118c-0.262 0.28-0.473 0.604-0.625 0.956-0.037 0.094-0.102 0.174-0.186 0.231s-0.182 0.087-0.283 0.088h-0.15c-0.285-0.035-0.558-0.133-0.8-0.287 0 0.097 0.015 0.194 0.044 0.287h0.050c0.299 0.137 0.568 0.33 0.794 0.569 0.027 0.019 0.050 0.044 0.065 0.073s0.023 0.062 0.022 0.095c0.003 0.017 0.003 0.033 0 0.050-0.065 0.325-0.099 0.656-0.1 0.987-0.002 0.644 0.128 1.283 0.381 1.875v0.037c0.242 0.445 0.529 0.864 0.856 1.25 0.671 0.703 1.545 1.18 2.5 1.363h-0.031c0.344 0.068 0.693 0.102 1.044 0.1 0.272-0.001 0.544-0.022 0.813-0.063 0.058-0.041 0.128-0.063 0.2-0.063h0.056l0.313-0.081c1.052-0.372 1.929-1.12 2.463-2.1 0.131-0.259 0.317-0.487 0.544-0.667s0.492-0.309 0.774-0.377c0.436-0.091 0.89-0.040 1.295 0.144s0.742 0.493 0.961 0.881l-0.006-0.006z"></path>
</svg>
