<!-- Generated by IcoMoon.io -->
<svg version="1.1" xmlns="http://www.w3.org/2000/svg" width="32" height="32" viewBox="0 0 32 32">
<title>statuscake</title>
<path d="M23.47 7.56c0-0.082 0.033-0.161 0.091-0.219s0.137-0.091 0.219-0.091c0.091-0 0.179 0.035 0.244 0.099s0.103 0.15 0.106 0.241c0 0.088-0.035 0.171-0.097 0.233s-0.146 0.097-0.233 0.097c-0.082 0-0.161-0.033-0.219-0.091s-0.091-0.137-0.091-0.219l-0.020-0.050zM11.13 7.56c-0.098 0-0.192-0.039-0.262-0.108s-0.108-0.163-0.108-0.262c0-0.29 0.2-0.38 0.43-0.37s0.37 0.11 0.37 0.36c-0.002 0.097-0.042 0.19-0.111 0.259s-0.162 0.109-0.259 0.111l-0.060 0.010zM12.5 1.82c-0.26-0.060-0.44-0.16-0.41-0.43 0-0.095 0.038-0.187 0.105-0.255s0.159-0.105 0.255-0.105h0.070c0.25 0 0.39 0.11 0.39 0.38 0.003 0.055-0.006 0.109-0.025 0.16s-0.050 0.097-0.088 0.136-0.085 0.069-0.136 0.088c-0.051 0.020-0.106 0.028-0.16 0.025zM5.87 11.2c-0.28 0-0.5-0.2-0.52-0.6 0-0.172 0.068-0.338 0.19-0.46s0.287-0.19 0.46-0.19c0.167 0 0.327 0.066 0.445 0.184s0.185 0.278 0.185 0.445c-0.060 0.36-0.22 0.62-0.76 0.62zM25.43 6.42c-0.224-0.015-0.435-0.112-0.592-0.272s-0.249-0.374-0.258-0.598c-0.004-0.112 0.014-0.223 0.054-0.327s0.1-0.199 0.178-0.28c0.078-0.080 0.17-0.144 0.273-0.188s0.213-0.066 0.325-0.066h0.050c0.218 0 0.426 0.086 0.58 0.24s0.24 0.362 0.24 0.58c0 0.224-0.088 0.438-0.245 0.598s-0.371 0.25-0.595 0.252l-0.010 0.060zM16 3.81c-0.229-0.005-0.447-0.096-0.61-0.256s-0.26-0.376-0.27-0.604c-0.013-0.123-0-0.247 0.038-0.364s0.1-0.226 0.183-0.317c0.082-0.092 0.183-0.165 0.296-0.216s0.235-0.076 0.358-0.076 0.246 0.026 0.358 0.076c0.113 0.050 0.214 0.124 0.296 0.216s0.145 0.2 0.183 0.317c0.038 0.117 0.051 0.242 0.038 0.364-0.014 0.225-0.111 0.437-0.271 0.596s-0.373 0.253-0.599 0.264zM4.52 9.4c-0.217 0-0.426-0.086-0.58-0.24s-0.24-0.362-0.24-0.58v-0.050c0.010-0.209 0.094-0.409 0.237-0.562s0.335-0.252 0.543-0.278c0.233 0.005 0.454 0.101 0.616 0.268s0.254 0.39 0.254 0.622v0.010c0 0.106-0.021 0.212-0.062 0.31s-0.1 0.188-0.176 0.263c-0.075 0.075-0.165 0.135-0.263 0.176s-0.204 0.062-0.31 0.062h-0.020zM26.23 8.95c0.057-0.196 0.164-0.373 0.312-0.514s0.33-0.239 0.529-0.286c0.198-0.047 0.406-0.040 0.601 0.020s0.37 0.17 0.509 0.32c0.206 0.124 0.376 0.3 0.492 0.511s0.174 0.449 0.168 0.689c0 0.215-0.049 0.427-0.145 0.62s-0.234 0.36-0.405 0.49l0.25 0.43c0.46 0.82 0.43 1.12-0.2 1.85-0.267 0.352-0.603 0.646-0.988 0.863s-0.811 0.353-1.25 0.399c-0.44 0.046-0.884 0.001-1.306-0.132s-0.811-0.351-1.145-0.64c-0.64-0.62-0.95-1.47-1.54-2.13-0.14-0.16 0-0.37 0.070-0.57-0.151-0.12-0.273-0.272-0.358-0.445s-0.13-0.363-0.133-0.555c0.002-0.335 0.13-0.656 0.36-0.9 0.122-0.146 0.275-0.263 0.448-0.341s0.362-0.115 0.552-0.11c0.19-0.004 0.378 0.035 0.551 0.113s0.326 0.193 0.449 0.338h0.1c0.268-0.134 0.555-0.228 0.85-0.28 0.424-0.001 0.843 0.087 1.23 0.26zM8.9 7.27c-0.289-0.015-0.562-0.139-0.764-0.346s-0.318-0.484-0.325-0.774c-0.001-0.275 0.101-0.541 0.286-0.745s0.44-0.33 0.714-0.356c0.303-0.011 0.599 0.099 0.822 0.305s0.355 0.492 0.368 0.795c-0.014 0.289-0.134 0.563-0.337 0.769s-0.474 0.331-0.763 0.351zM22.29 5.89c-0.66 0-1-0.52-1-1.28s0.36-1.19 0.94-1.19c0.365 0.033 0.706 0.197 0.959 0.462s0.403 0.612 0.421 0.978c-0.020 0.61-0.61 1.030-1.32 1.030zM19.69 9.5c-0.229-0.002-0.455-0.051-0.663-0.145s-0.395-0.231-0.548-0.401c-0.152-0.17-0.268-0.371-0.338-0.589s-0.095-0.448-0.071-0.675c0-1 0.54-1.72 1.39-1.72 0.535 0.031 1.040 0.259 1.418 0.639s0.603 0.886 0.632 1.421c0.010 0.87-0.72 1.47-1.82 1.47zM11.6 10.93c-0.104-0.392-0.158-0.795-0.16-1.2-0.003-0.602 0.12-1.198 0.36-1.75 0.151-0.357 0.403-0.662 0.724-0.879s0.699-0.335 1.086-0.341h0.18c0.044-0.115 0.111-0.219 0.196-0.308s0.187-0.159 0.3-0.207c0.113-0.048 0.234-0.074 0.357-0.075s0.244 0.023 0.358 0.070c0.48 0.14 0.67 0.52 0.67 1.27 0.433 0.394 0.775 0.879 1 1.42-1.886-0.018-3.704 0.699-5.070 2zM28.71 20.12c0.3 0.468 0.453 1.015 0.44 1.57 0.003 0.545-0.15 1.079-0.44 1.54v0.060c-0.69 1.288-1.608 2.44-2.71 3.4-1.013 0.984-2.191 1.783-3.48 2.36-0.235 0.162-0.5 0.274-0.78 0.33h0.070c-1.26 0.579-2.616 0.918-4 1h0.060c-0.42 0-0.84 0.070-1.26 0.070-0.671-0.001-1.341-0.065-2-0.19h-0.050c-1.266-0.142-2.495-0.512-3.63-1.090l-0.2-0.11h-0.060c-1.092-0.486-2.087-1.163-2.94-2-0.508-0.379-0.948-0.842-1.3-1.37-1.125-1.144-2.006-2.505-2.59-4v0.060c-0.321-0.712-0.539-1.466-0.65-2.24v0.080c-0.259-0.979-0.39-1.987-0.39-3 0.027-0.534 0.094-1.066 0.2-1.59 0.060-0.45 0.5-0.66 0.84-0.92v-0.19c-0-0.361 0.102-0.714 0.295-1.018s0.469-0.548 0.795-0.702c0.32-0.175 0.683-0.26 1.048-0.244s0.718 0.131 1.022 0.334l0.22 0.13c-0.064-0.141-0.092-0.296-0.080-0.45-0.019-0.159-0.019-0.321 0-0.48-0.003-0.521 0.186-1.025 0.532-1.415s0.824-0.637 1.342-0.696c0.518-0.058 1.039 0.077 1.463 0.38s0.721 0.752 0.834 1.261c0.005 0.053 0.005 0.107 0 0.16 0.001 0.080-0.015 0.159-0.048 0.231s-0.081 0.137-0.142 0.189c-0.419 0.449-0.757 0.966-1 1.53-0.060 0.15-0.163 0.279-0.297 0.37s-0.291 0.14-0.453 0.14h-0.24c-0.456-0.056-0.893-0.213-1.28-0.46 0.001 0.156 0.024 0.311 0.070 0.46h0.080c0.478 0.219 0.909 0.528 1.27 0.91 0.044 0.030 0.080 0.070 0.104 0.117s0.037 0.1 0.036 0.153c0.005 0.026 0.005 0.054 0 0.080-0.104 0.52-0.158 1.049-0.16 1.58-0.003 1.031 0.204 2.052 0.61 3v0.060c0.387 0.712 0.846 1.382 1.37 2 1.074 1.125 2.472 1.887 4 2.18h-0.050c0.55 0.11 1.109 0.163 1.67 0.16 0.435-0.002 0.87-0.035 1.3-0.1 0.094-0.066 0.206-0.101 0.32-0.1h0.090l0.5-0.13c1.683-0.595 3.087-1.792 3.94-3.36 0.209-0.415 0.506-0.779 0.871-1.068s0.787-0.494 1.239-0.602c0.698-0.145 1.424-0.064 2.073 0.231s1.187 0.788 1.537 1.409l-0.010-0.010z"></path>
</svg>
