<!-- Generated by IcoMoon.io -->
<svg version="1.1" xmlns="http://www.w3.org/2000/svg" width="20" height="20" viewBox="0 0 20 20">
<title>status-pending</title>
<path d="M10.755 2.655c0.414 0.417 0.411 1.091-0.006 1.504l-0.198 0.197c2.908 0.275 5.194 2.707 5.194 5.681 0 3.16-2.58 5.707-5.745 5.707s-5.745-2.547-5.745-5.707c0-0.588 0.476-1.064 1.064-1.064s1.064 0.476 1.064 1.064c0 1.969 1.611 3.579 3.617 3.579s3.617-1.611 3.617-3.579c0-1.757-1.283-3.229-2.985-3.525l0.118 0.117c0.417 0.414 0.42 1.087 0.006 1.504s-1.087 0.42-1.504 0.006l-2.006-1.99c-0.201-0.2-0.315-0.472-0.315-0.755s0.113-0.556 0.315-0.755l2.006-1.99c0.417-0.414 1.091-0.411 1.504 0.006z"></path>
</svg>
