<!-- Generated by IcoMoon.io -->
<svg version="1.1" xmlns="http://www.w3.org/2000/svg" width="32" height="32" viewBox="0 0 32 32">
<title>stopwatch</title>
<path d="M16 14c-2.209 0-4 1.791-4 4s1.791 4 4 4c1.864 0 3.43-1.275 3.874-3h4.126c0.552 0 1-0.448 1-1s-0.448-1-1-1h-4.126c-0.444-1.725-2.010-3-3.874-3zM14 18c0-1.105 0.895-2 2-2s2 0.895 2 2c0 1.105-0.895 2-2 2s-2-0.895-2-2z"></path>
<path d="M16 24c0.552 0 1 0.448 1 1v1c0 0.552-0.448 1-1 1s-1-0.448-1-1v-1c0-0.552 0.448-1 1-1z"></path>
<path d="M17 10c0-0.552-0.448-1-1-1s-1 0.448-1 1v1c0 0.552 0.448 1 1 1s1-0.448 1-1v-1z"></path>
<path d="M20.193 22.193c0.39-0.39 1.024-0.39 1.414 0l0.8 0.8c0.39 0.391 0.39 1.024 0 1.414s-1.024 0.39-1.414 0l-0.8-0.8c-0.39-0.391-0.39-1.024 0-1.414z"></path>
<path d="M11.007 11.593c-0.39-0.39-1.024-0.39-1.414 0s-0.391 1.024 0 1.414l0.8 0.8c0.39 0.39 1.024 0.39 1.414 0s0.39-1.024 0-1.414l-0.8-0.8z"></path>
<path d="M8 17c-0.552 0-1 0.448-1 1s0.448 1 1 1h1c0.552 0 1-0.448 1-1s-0.448-1-1-1h-1z"></path>
<path d="M22.407 11.593c0.39 0.391 0.39 1.024 0 1.414l-0.8 0.8c-0.39 0.39-1.024 0.39-1.414 0s-0.39-1.024 0-1.414l0.8-0.8c0.39-0.39 1.024-0.39 1.414 0z"></path>
<path d="M11.807 23.607c0.39-0.391 0.39-1.024 0-1.414s-1.024-0.39-1.414 0l-0.8 0.8c-0.391 0.391-0.391 1.024 0 1.414s1.024 0.39 1.414 0l0.8-0.8z"></path>
<path d="M15 6.041v-2.041h-2c-0.552 0-1-0.448-1-1s0.448-1 1-1h6c0.552 0 1 0.448 1 1s-0.448 1-1 1h-2v2.041c2.562 0.211 4.897 1.228 6.749 2.796l1.437-1.437-1.393-1.393c-0.39-0.391-0.39-1.024 0-1.414s1.024-0.391 1.414 0l4.2 4.2c0.39 0.391 0.39 1.024 0 1.414s-1.024 0.39-1.414 0l-1.393-1.393-1.437 1.437c1.77 2.091 2.837 4.795 2.837 7.749 0 6.627-5.373 12-12 12s-12-5.373-12-12c0-6.291 4.84-11.451 11-11.959zM16 8c-5.523 0-10 4.477-10 10s4.477 10 10 10c5.523 0 10-4.477 10-10s-4.477-10-10-10z"></path>
</svg>
