<!-- Generated by IcoMoon.io -->
<svg version="1.1" xmlns="http://www.w3.org/2000/svg" width="20" height="20" viewBox="0 0 20 20">
<title>stopwatch</title>
<path d="M10 8.75c-1.381 0-2.5 1.119-2.5 2.5s1.119 2.5 2.5 2.5c1.165 0 2.144-0.797 2.421-1.875h2.579c0.345 0 0.625-0.28 0.625-0.625s-0.28-0.625-0.625-0.625h-2.579c-0.278-1.078-1.256-1.875-2.421-1.875zM8.75 11.25c0-0.69 0.56-1.25 1.25-1.25s1.25 0.56 1.25 1.25c0 0.69-0.56 1.25-1.25 1.25s-1.25-0.56-1.25-1.25z"></path>
<path d="M10 15c0.345 0 0.625 0.28 0.625 0.625v0.625c0 0.345-0.28 0.625-0.625 0.625s-0.625-0.28-0.625-0.625v-0.625c0-0.345 0.28-0.625 0.625-0.625z"></path>
<path d="M10.625 6.25c0-0.345-0.28-0.625-0.625-0.625s-0.625 0.28-0.625 0.625v0.625c0 0.345 0.28 0.625 0.625 0.625s0.625-0.28 0.625-0.625v-0.625z"></path>
<path d="M12.621 13.871c0.244-0.244 0.64-0.244 0.884 0l0.5 0.5c0.244 0.244 0.244 0.64 0 0.884s-0.64 0.244-0.884 0l-0.5-0.5c-0.244-0.244-0.244-0.64 0-0.884z"></path>
<path d="M6.879 7.246c-0.244-0.244-0.64-0.244-0.884 0s-0.244 0.64 0 0.884l0.5 0.5c0.244 0.244 0.64 0.244 0.884 0s0.244-0.64 0-0.884l-0.5-0.5z"></path>
<path d="M5 10.625c-0.345 0-0.625 0.28-0.625 0.625s0.28 0.625 0.625 0.625h0.625c0.345 0 0.625-0.28 0.625-0.625s-0.28-0.625-0.625-0.625h-0.625z"></path>
<path d="M14.004 7.246c0.244 0.244 0.244 0.64 0 0.884l-0.5 0.5c-0.244 0.244-0.64 0.244-0.884 0s-0.244-0.64 0-0.884l0.5-0.5c0.244-0.244 0.64-0.244 0.884 0z"></path>
<path d="M7.379 14.755c0.244-0.244 0.244-0.64 0-0.884s-0.64-0.244-0.884 0l-0.5 0.5c-0.244 0.244-0.244 0.64 0 0.884s0.64 0.244 0.884 0l0.5-0.5z"></path>
<path d="M9.375 3.776v-1.276h-1.25c-0.345 0-0.625-0.28-0.625-0.625s0.28-0.625 0.625-0.625h3.75c0.345 0 0.625 0.28 0.625 0.625s-0.28 0.625-0.625 0.625h-1.25v1.276c1.602 0.132 3.060 0.767 4.218 1.747l0.898-0.898-0.871-0.871c-0.244-0.244-0.244-0.64 0-0.884s0.64-0.244 0.884 0l2.625 2.625c0.244 0.244 0.244 0.64 0 0.884s-0.64 0.244-0.884 0l-0.871-0.871-0.898 0.898c1.106 1.307 1.773 2.997 1.773 4.843 0 4.142-3.358 7.5-7.5 7.5s-7.5-3.358-7.5-7.5c0-3.932 3.025-7.157 6.875-7.474zM10 5c-3.452 0-6.25 2.798-6.25 6.25s2.798 6.25 6.25 6.25c3.452 0 6.25-2.798 6.25-6.25s-2.798-6.25-6.25-6.25z"></path>
</svg>
