<!-- Generated by IcoMoon.io -->
<svg version="1.1" xmlns="http://www.w3.org/2000/svg" width="20" height="20" viewBox="0 0 20 20">
<title>storage</title>
<path d="M14.375 4.375c-0.345 0-0.625 0.28-0.625 0.625s0.28 0.625 0.625 0.625h0.625c0.345 0 0.625-0.28 0.625-0.625s-0.28-0.625-0.625-0.625h-0.625z"></path>
<path d="M5 5c0-0.345-0.28-0.625-0.625-0.625s-0.625 0.28-0.625 0.625v2.5c0 0.345 0.28 0.625 0.625 0.625s0.625-0.28 0.625-0.625v-2.5z"></path>
<path d="M6.875 4.375c0.345 0 0.625 0.28 0.625 0.625v2.5c0 0.345-0.28 0.625-0.625 0.625s-0.625-0.28-0.625-0.625v-2.5c0-0.345 0.28-0.625 0.625-0.625z"></path>
<path d="M10 5c0-0.345-0.28-0.625-0.625-0.625s-0.625 0.28-0.625 0.625v2.5c0 0.345 0.28 0.625 0.625 0.625s0.625-0.28 0.625-0.625v-2.5z"></path>
<path d="M11.875 4.375c0.345 0 0.625 0.28 0.625 0.625v2.5c0 0.345-0.28 0.625-0.625 0.625s-0.625-0.28-0.625-0.625v-2.5c0-0.345 0.28-0.625 0.625-0.625z"></path>
<path d="M14.375 11.875c-0.345 0-0.625 0.28-0.625 0.625s0.28 0.625 0.625 0.625h0.625c0.345 0 0.625-0.28 0.625-0.625s-0.28-0.625-0.625-0.625h-0.625z"></path>
<path d="M4.375 11.875c0.345 0 0.625 0.28 0.625 0.625v2.5c0 0.345-0.28 0.625-0.625 0.625s-0.625-0.28-0.625-0.625v-2.5c0-0.345 0.28-0.625 0.625-0.625z"></path>
<path d="M7.5 12.5c0-0.345-0.28-0.625-0.625-0.625s-0.625 0.28-0.625 0.625v2.5c0 0.345 0.28 0.625 0.625 0.625s0.625-0.28 0.625-0.625v-2.5z"></path>
<path d="M9.375 11.875c0.345 0 0.625 0.28 0.625 0.625v2.5c0 0.345-0.28 0.625-0.625 0.625s-0.625-0.28-0.625-0.625v-2.5c0-0.345 0.28-0.625 0.625-0.625z"></path>
<path d="M12.5 12.5c0-0.345-0.28-0.625-0.625-0.625s-0.625 0.28-0.625 0.625v2.5c0 0.345 0.28 0.625 0.625 0.625s0.625-0.28 0.625-0.625v-2.5z"></path>
<path d="M1.25 15.625c0 1.408 1.092 2.5 2.5 2.5h12.5c1.408 0 2.5-1.092 2.5-2.5v-11.25c0-1.408-1.092-2.5-2.5-2.5h-12.5c-1.408 0-2.5 1.092-2.5 2.5v11.25zM2.5 4.375c0-0.717 0.533-1.25 1.25-1.25h12.5c0.717 0 1.25 0.533 1.25 1.25v5h-15v-5zM2.5 15.625v-5h15v5c0 0.717-0.533 1.25-1.25 1.25h-12.5c-0.717 0-1.25-0.533-1.25-1.25z"></path>
</svg>
