<!-- Generated by IcoMoon.io -->
<svg version="1.1" xmlns="http://www.w3.org/2000/svg" width="32" height="32" viewBox="0 0 32 32">
<title>storage</title>
<path d="M23 7c-0.552 0-1 0.448-1 1s0.448 1 1 1h1c0.552 0 1-0.448 1-1s-0.448-1-1-1h-1z"></path>
<path d="M8 8c0-0.552-0.448-1-1-1s-1 0.448-1 1v4c0 0.552 0.448 1 1 1s1-0.448 1-1v-4z"></path>
<path d="M11 7c0.552 0 1 0.448 1 1v4c0 0.552-0.448 1-1 1s-1-0.448-1-1v-4c0-0.552 0.448-1 1-1z"></path>
<path d="M16 8c0-0.552-0.448-1-1-1s-1 0.448-1 1v4c0 0.552 0.448 1 1 1s1-0.448 1-1v-4z"></path>
<path d="M19 7c0.552 0 1 0.448 1 1v4c0 0.552-0.448 1-1 1s-1-0.448-1-1v-4c0-0.552 0.448-1 1-1z"></path>
<path d="M23 19c-0.552 0-1 0.448-1 1s0.448 1 1 1h1c0.552 0 1-0.448 1-1s-0.448-1-1-1h-1z"></path>
<path d="M7 19c0.552 0 1 0.448 1 1v4c0 0.552-0.448 1-1 1s-1-0.448-1-1v-4c0-0.552 0.448-1 1-1z"></path>
<path d="M12 20c0-0.552-0.448-1-1-1s-1 0.448-1 1v4c0 0.552 0.448 1 1 1s1-0.448 1-1v-4z"></path>
<path d="M15 19c0.552 0 1 0.448 1 1v4c0 0.552-0.448 1-1 1s-1-0.448-1-1v-4c0-0.552 0.448-1 1-1z"></path>
<path d="M20 20c0-0.552-0.448-1-1-1s-1 0.448-1 1v4c0 0.552 0.448 1 1 1s1-0.448 1-1v-4z"></path>
<path d="M2 25c0 2.252 1.748 4 4 4h20c2.252 0 4-1.748 4-4v-18c0-2.252-1.748-4-4-4h-20c-2.252 0-4 1.748-4 4v18zM4 7c0-1.148 0.852-2 2-2h20c1.148 0 2 0.852 2 2v8h-24v-8zM4 25v-8h24v8c0 1.148-0.852 2-2 2h-20c-1.148 0-2-0.852-2-2z"></path>
</svg>
