<!-- Generated by IcoMoon.io -->
<svg version="1.1" xmlns="http://www.w3.org/2000/svg" width="20" height="20" viewBox="0 0 20 20">
<title>suitcase</title>
<path d="M6.938 5c0.291-1.423 1.556-2.5 3.062-2.5s2.771 1.077 3.062 2.5h3.188c1.408 0 2.5 1.092 2.5 2.5v1.861c0 0.010 0 0.019 0 0.029v5.611c0 1.408-1.092 2.5-2.5 2.5h-12.5c-1.408 0-2.5-1.092-2.5-2.5v-5.611c-0-0.010-0-0.019 0-0.029v-1.86c0-1.408 1.092-2.5 2.5-2.5h3.188zM8.233 5h3.534c-0.259-0.726-0.956-1.25-1.767-1.25s-1.508 0.524-1.767 1.25zM17.5 7.5c0-0.717-0.533-1.25-1.25-1.25h-12.5c-0.717 0-1.25 0.533-1.25 1.25v1.446l6.875 2.644v-0.965c0-0.345 0.28-0.625 0.625-0.625s0.625 0.28 0.625 0.625v0.965l6.875-2.644v-1.446zM9.375 12.929l-6.875-2.644v4.715c0 0.717 0.533 1.25 1.25 1.25h12.5c0.717 0 1.25-0.533 1.25-1.25v-4.715l-6.875 2.644v0.821c0 0.345-0.28 0.625-0.625 0.625s-0.625-0.28-0.625-0.625v-0.821z"></path>
</svg>
