<!-- Generated by IcoMoon.io -->
<svg version="1.1" xmlns="http://www.w3.org/2000/svg" width="20" height="20" viewBox="0 0 20 20">
<title>sun</title>
<path d="M10.625 1.875c0-0.345-0.28-0.625-0.625-0.625s-0.625 0.28-0.625 0.625v1.875c0 0.345 0.28 0.625 0.625 0.625s0.625-0.28 0.625-0.625v-1.875z"></path>
<path d="M1.25 10c0-0.345 0.28-0.625 0.625-0.625h1.875c0.345 0 0.625 0.28 0.625 0.625s-0.28 0.625-0.625 0.625h-1.875c-0.345 0-0.625-0.28-0.625-0.625z"></path>
<path d="M15.625 10c0-0.345 0.28-0.625 0.625-0.625h1.875c0.345 0 0.625 0.28 0.625 0.625s-0.28 0.625-0.625 0.625h-1.875c-0.345 0-0.625-0.28-0.625-0.625z"></path>
<path d="M10 15.625c0.345 0 0.625 0.28 0.625 0.625v1.875c0 0.345-0.28 0.625-0.625 0.625s-0.625-0.28-0.625-0.625v-1.875c0-0.345 0.28-0.625 0.625-0.625z"></path>
<path d="M14.879 13.996c-0.244-0.244-0.64-0.244-0.884 0s-0.244 0.64 0 0.884l1.313 1.313c0.244 0.244 0.64 0.244 0.884 0s0.244-0.64 0-0.884l-1.313-1.313z"></path>
<path d="M3.808 3.808c0.244-0.244 0.64-0.244 0.884 0l1.313 1.313c0.244 0.244 0.244 0.64 0 0.884s-0.64 0.244-0.884 0l-1.313-1.313c-0.244-0.244-0.244-0.64 0-0.884z"></path>
<path d="M6.004 14.879c0.244-0.244 0.244-0.64 0-0.884s-0.64-0.244-0.884 0l-1.313 1.313c-0.244 0.244-0.244 0.64 0 0.884s0.64 0.244 0.884 0l1.313-1.313z"></path>
<path d="M16.192 3.808c0.244 0.244 0.244 0.64 0 0.884l-1.313 1.313c-0.244 0.244-0.64 0.244-0.884 0s-0.244-0.64 0-0.884l1.313-1.313c0.244-0.244 0.64-0.244 0.884 0z"></path>
<path d="M10 5.625c-2.416 0-4.375 1.959-4.375 4.375s1.959 4.375 4.375 4.375c2.416 0 4.375-1.959 4.375-4.375s-1.959-4.375-4.375-4.375zM6.875 10c0-1.726 1.399-3.125 3.125-3.125s3.125 1.399 3.125 3.125c0 1.726-1.399 3.125-3.125 3.125s-3.125-1.399-3.125-3.125z"></path>
</svg>
