<!-- Generated by IcoMoon.io -->
<svg version="1.1" xmlns="http://www.w3.org/2000/svg" width="32" height="32" viewBox="0 0 32 32">
<title>sun</title>
<path d="M17 3c0-0.552-0.448-1-1-1s-1 0.448-1 1v3c0 0.552 0.448 1 1 1s1-0.448 1-1v-3z"></path>
<path d="M2 16c0-0.552 0.448-1 1-1h3c0.552 0 1 0.448 1 1s-0.448 1-1 1h-3c-0.552 0-1-0.448-1-1z"></path>
<path d="M25 16c0-0.552 0.448-1 1-1h3c0.552 0 1 0.448 1 1s-0.448 1-1 1h-3c-0.552 0-1-0.448-1-1z"></path>
<path d="M16 25c0.552 0 1 0.448 1 1v3c0 0.552-0.448 1-1 1s-1-0.448-1-1v-3c0-0.552 0.448-1 1-1z"></path>
<path d="M23.807 22.393c-0.39-0.39-1.024-0.39-1.414 0s-0.39 1.024 0 1.414l2.1 2.1c0.39 0.39 1.024 0.39 1.414 0s0.39-1.024 0-1.414l-2.1-2.1z"></path>
<path d="M6.093 6.093c0.391-0.391 1.024-0.391 1.414 0l2.1 2.1c0.391 0.391 0.391 1.024 0 1.414s-1.024 0.391-1.414 0l-2.1-2.1c-0.391-0.391-0.391-1.024 0-1.414z"></path>
<path d="M9.607 23.807c0.391-0.39 0.391-1.024 0-1.414s-1.024-0.39-1.414 0l-2.1 2.1c-0.391 0.39-0.391 1.024 0 1.414s1.024 0.39 1.414 0l2.1-2.1z"></path>
<path d="M25.907 6.093c0.39 0.391 0.39 1.024 0 1.414l-2.1 2.1c-0.39 0.391-1.024 0.391-1.414 0s-0.39-1.024 0-1.414l2.1-2.1c0.39-0.391 1.024-0.391 1.414 0z"></path>
<path d="M16 9c-3.866 0-7 3.134-7 7s3.134 7 7 7c3.866 0 7-3.134 7-7s-3.134-7-7-7zM11 16c0-2.761 2.239-5 5-5s5 2.239 5 5c0 2.761-2.239 5-5 5s-5-2.239-5-5z"></path>
</svg>
