<!-- Generated by IcoMoon.io -->
<svg version="1.1" xmlns="http://www.w3.org/2000/svg" width="20" height="20" viewBox="0 0 20 20">
<title>switch</title>
<path d="M15.183 3.308c0.244-0.244 0.64-0.244 0.884 0l2.317 2.317-2.317 2.317c-0.244 0.244-0.64 0.244-0.884 0s-0.244-0.64 0-0.884l0.808-0.808h-1.982l-8.75 8.75h-3.384c-0.345 0-0.625-0.28-0.625-0.625s0.28-0.625 0.625-0.625h2.866l8.75-8.75h2.5l-0.808-0.808c-0.244-0.244-0.244-0.64 0-0.884z"></path>
<path d="M1.25 5.625c0-0.345 0.28-0.625 0.625-0.625h3.384l2.683 2.683c0.244 0.244 0.244 0.64 0 0.884s-0.64 0.244-0.884 0l-2.317-2.317h-2.866c-0.345 0-0.625-0.28-0.625-0.625z"></path>
<path d="M11.692 11.433c-0.244-0.244-0.64-0.244-0.884 0s-0.244 0.64 0 0.884l2.683 2.683h2.5l-0.808 0.808c-0.244 0.244-0.244 0.64 0 0.884s0.64 0.244 0.884 0l2.317-2.317-2.317-2.317c-0.244-0.244-0.64-0.244-0.884 0s-0.244 0.64 0 0.884l0.808 0.808h-1.982l-2.317-2.317z"></path>
</svg>
