<!-- Generated by IcoMoon.io -->
<svg version="1.1" xmlns="http://www.w3.org/2000/svg" width="32" height="32" viewBox="0 0 32 32">
<title>switch</title>
<path d="M24.293 5.293c0.39-0.391 1.024-0.391 1.414 0l3.707 3.707-3.707 3.707c-0.39 0.39-1.024 0.39-1.414 0s-0.39-1.024 0-1.414l1.293-1.293h-3.172l-14 14h-5.414c-0.552 0-1-0.448-1-1s0.448-1 1-1h4.586l14-14h4l-1.293-1.293c-0.39-0.391-0.39-1.024 0-1.414z"></path>
<path d="M2 9c0-0.552 0.448-1 1-1h5.414l4.293 4.293c0.39 0.39 0.39 1.024 0 1.414s-1.024 0.39-1.414 0l-3.707-3.707h-4.586c-0.552 0-1-0.448-1-1z"></path>
<path d="M18.707 18.293c-0.39-0.39-1.024-0.39-1.414 0s-0.39 1.024 0 1.414l4.293 4.293h4l-1.293 1.293c-0.39 0.39-0.39 1.024 0 1.414s1.024 0.39 1.414 0l3.707-3.707-3.707-3.707c-0.39-0.39-1.024-0.39-1.414 0s-0.39 1.024 0 1.414l1.293 1.293h-3.172l-3.707-3.707z"></path>
</svg>
