<!-- Generated by IcoMoon.io -->
<svg version="1.1" xmlns="http://www.w3.org/2000/svg" width="32" height="32" viewBox="0 0 32 32">
<title>sync-square</title>
<path d="M6 2c-2.252 0-4 1.748-4 4v10c0 0.552 0.448 1 1 1s1-0.448 1-1v-10c0-1.148 0.852-2 2-2h20c1.148 0 2 0.852 2 2v2c0 0.552 0.448 1 1 1s1-0.448 1-1v-2c0-2.252-1.748-4-4-4h-20z"></path>
<path d="M30 16c0-0.552-0.448-1-1-1s-1 0.448-1 1v10c0 1.148-0.852 2-2 2h-20c-1.148 0-2-0.852-2-2v-2c0-0.552-0.448-1-1-1s-1 0.448-1 1v2c0 2.252 1.748 4 4 4h20c2.252 0 4-1.748 4-4v-10z"></path>
<path d="M10.293 14.293c0.39-0.39 1.024-0.39 1.414 0l5.707 5.707-5.707 5.707c-0.39 0.39-1.024 0.39-1.414 0s-0.391-1.024 0-1.414l3.293-3.293h-7.586c-0.552 0-1-0.448-1-1s0.448-1 1-1h7.586l-3.293-3.293c-0.391-0.39-0.391-1.024 0-1.414z"></path>
<path d="M21.707 6.293c0.39 0.391 0.39 1.024 0 1.414l-3.293 3.293h7.586c0.552 0 1 0.448 1 1s-0.448 1-1 1h-7.586l3.293 3.293c0.39 0.39 0.39 1.024 0 1.414s-1.024 0.39-1.414 0l-5.707-5.707 5.707-5.707c0.39-0.391 1.024-0.391 1.414 0z"></path>
</svg>
