<!-- Generated by IcoMoon.io -->
<svg version="1.1" xmlns="http://www.w3.org/2000/svg" width="20" height="20" viewBox="0 0 20 20">
<title>sync</title>
<path d="M13.567 3.933c0.244 0.244 0.244 0.64 0 0.884l-2.058 2.058h4.741c0.345 0 0.625 0.28 0.625 0.625s-0.28 0.625-0.625 0.625h-4.741l2.058 2.058c0.244 0.244 0.244 0.64 0 0.884s-0.64 0.244-0.884 0l-3.567-3.567 3.567-3.567c0.244-0.244 0.64-0.244 0.884 0z"></path>
<path d="M7.317 8.933c-0.244-0.244-0.64-0.244-0.884 0s-0.244 0.64 0 0.884l2.058 2.058h-4.741c-0.345 0-0.625 0.28-0.625 0.625s0.28 0.625 0.625 0.625h4.741l-2.058 2.058c-0.244 0.244-0.244 0.64 0 0.884s0.64 0.244 0.884 0l3.567-3.567-3.567-3.567z"></path>
</svg>
