<!-- Generated by IcoMoon.io -->
<svg version="1.1" xmlns="http://www.w3.org/2000/svg" width="20" height="20" viewBox="0 0 20 20">
<title>sync-square</title>
<path d="M3.75 1.25c-1.408 0-2.5 1.092-2.5 2.5v6.25c0 0.345 0.28 0.625 0.625 0.625s0.625-0.28 0.625-0.625v-6.25c0-0.717 0.533-1.25 1.25-1.25h12.5c0.717 0 1.25 0.533 1.25 1.25v1.25c0 0.345 0.28 0.625 0.625 0.625s0.625-0.28 0.625-0.625v-1.25c0-1.408-1.092-2.5-2.5-2.5h-12.5z"></path>
<path d="M18.75 10c0-0.345-0.28-0.625-0.625-0.625s-0.625 0.28-0.625 0.625v6.25c0 0.717-0.533 1.25-1.25 1.25h-12.5c-0.717 0-1.25-0.533-1.25-1.25v-1.25c0-0.345-0.28-0.625-0.625-0.625s-0.625 0.28-0.625 0.625v1.25c0 1.408 1.092 2.5 2.5 2.5h12.5c1.408 0 2.5-1.092 2.5-2.5v-6.25z"></path>
<path d="M6.433 8.933c0.244-0.244 0.64-0.244 0.884 0l3.567 3.567-3.567 3.567c-0.244 0.244-0.64 0.244-0.884 0s-0.244-0.64 0-0.884l2.058-2.058h-4.741c-0.345 0-0.625-0.28-0.625-0.625s0.28-0.625 0.625-0.625h4.741l-2.058-2.058c-0.244-0.244-0.244-0.64 0-0.884z"></path>
<path d="M13.567 3.933c0.244 0.244 0.244 0.64 0 0.884l-2.058 2.058h4.741c0.345 0 0.625 0.28 0.625 0.625s-0.28 0.625-0.625 0.625h-4.741l2.058 2.058c0.244 0.244 0.244 0.64 0 0.884s-0.64 0.244-0.884 0l-3.567-3.567 3.567-3.567c0.244-0.244 0.64-0.244 0.884 0z"></path>
</svg>
