<!-- Generated by IcoMoon.io -->
<svg version="1.1" xmlns="http://www.w3.org/2000/svg" width="32" height="32" viewBox="0 0 32 32">
<title>tag</title>
<path d="M23 6c-1.657 0-3 1.343-3 3s1.343 3 3 3 3-1.343 3-3c0-1.657-1.343-3-3-3zM22 9c0-0.552 0.448-1 1-1s1 0.448 1 1c0 0.552-0.448 1-1 1s-1-0.448-1-1z"></path>
<path d="M30 2h-13.414l-13.193 13.193c-1.567 1.567-1.619 4.114 0.014 5.628l7.786 7.786c1.567 1.567 4.114 1.619 5.628-0.014l13.179-13.179v-13.414zM4.807 16.607l12.607-12.607h10.586v10.586l-12.637 12.639c-0.687 0.75-1.928 0.796-2.756-0.031l-7.831-7.83c-0.75-0.687-0.796-1.928 0.031-2.756z"></path>
</svg>
