<!-- Generated by IcoMoon.io -->
<svg version="1.1" xmlns="http://www.w3.org/2000/svg" width="20" height="20" viewBox="0 0 20 20">
<title>tag</title>
<path d="M14.375 3.75c-1.036 0-1.875 0.839-1.875 1.875s0.839 1.875 1.875 1.875 1.875-0.839 1.875-1.875c0-1.036-0.839-1.875-1.875-1.875zM13.75 5.625c0-0.345 0.28-0.625 0.625-0.625s0.625 0.28 0.625 0.625c0 0.345-0.28 0.625-0.625 0.625s-0.625-0.28-0.625-0.625z"></path>
<path d="M18.75 1.25h-8.384l-8.246 8.246c-0.979 0.979-1.012 2.571 0.009 3.518l4.866 4.866c0.979 0.979 2.571 1.012 3.518-0.009l8.237-8.237v-8.384zM3.004 10.379l7.879-7.879h6.616v6.616l-7.898 7.899c-0.43 0.469-1.205 0.497-1.722-0.020l-4.895-4.894c-0.469-0.429-0.497-1.205 0.020-1.722z"></path>
</svg>
