<!-- Generated by IcoMoon.io -->
<svg version="1.1" xmlns="http://www.w3.org/2000/svg" width="20" height="20" viewBox="0 0 20 20">
<title>target</title>
<path d="M10 7.5c-1.381 0-2.5 1.119-2.5 2.5s1.119 2.5 2.5 2.5c1.381 0 2.5-1.119 2.5-2.5s-1.119-2.5-2.5-2.5zM8.75 10c0-0.69 0.56-1.25 1.25-1.25s1.25 0.56 1.25 1.25c0 0.69-0.56 1.25-1.25 1.25s-1.25-0.56-1.25-1.25z"></path>
<path d="M10.625 1.875v1.906c2.953 0.293 5.301 2.641 5.594 5.594h1.906c0.345 0 0.625 0.28 0.625 0.625s-0.28 0.625-0.625 0.625h-1.906c-0.293 2.953-2.641 5.301-5.594 5.594v1.906c0 0.345-0.28 0.625-0.625 0.625s-0.625-0.28-0.625-0.625v-1.906c-2.953-0.293-5.301-2.641-5.594-5.594h-1.906c-0.345 0-0.625-0.28-0.625-0.625s0.28-0.625 0.625-0.625h1.906c0.293-2.953 2.641-5.301 5.594-5.594v-1.906c0-0.345 0.28-0.625 0.625-0.625s0.625 0.28 0.625 0.625zM10 5c-2.761 0-5 2.239-5 5s2.239 5 5 5c2.761 0 5-2.239 5-5s-2.239-5-5-5z"></path>
</svg>
