<!-- Generated by IcoMoon.io -->
<svg version="1.1" xmlns="http://www.w3.org/2000/svg" width="32" height="32" viewBox="0 0 32 32">
<title>target-alt</title>
<path d="M16 2c0.552 0 1 0.448 1 1v1.041c5.83 0.481 10.478 5.129 10.959 10.959h1.041c0.552 0 1 0.448 1 1s-0.448 1-1 1h-1.041c-0.481 5.83-5.129 10.478-10.959 10.959v1.041c0 0.552-0.448 1-1 1s-1-0.448-1-1v-1.041c-5.83-0.481-10.478-5.129-10.959-10.959h-1.041c-0.552 0-1-0.448-1-1s0.448-1 1-1h1.041c0.481-5.83 5.129-10.478 10.959-10.959v-1.041c0-0.552 0.448-1 1-1zM17 25.951c4.724-0.469 8.482-4.226 8.951-8.951h-5.051c-0.398 1.959-1.941 3.502-3.9 3.9v5.051zM15 20.9c-1.959-0.398-3.502-1.941-3.9-3.9h-5.051c0.469 4.724 4.226 8.482 8.951 8.951v-5.051zM16 19c1.657 0 3-1.343 3-3s-1.343-3-3-3c-1.657 0-3 1.343-3 3s1.343 3 3 3zM6.049 15h5.051c0.398-1.959 1.941-3.502 3.9-3.9v-5.051c-4.724 0.469-8.482 4.226-8.951 8.951zM17 6.049v5.051c1.959 0.398 3.502 1.941 3.9 3.9h5.051c-0.469-4.724-4.226-8.482-8.951-8.951z"></path>
</svg>
