<!-- Generated by IcoMoon.io -->
<svg version="1.1" xmlns="http://www.w3.org/2000/svg" width="20" height="20" viewBox="0 0 20 20">
<title>target-alt</title>
<path d="M10 1.25c0.345 0 0.625 0.28 0.625 0.625v0.651c3.644 0.301 6.549 3.206 6.849 6.849h0.651c0.345 0 0.625 0.28 0.625 0.625s-0.28 0.625-0.625 0.625h-0.651c-0.301 3.644-3.206 6.549-6.849 6.849v0.651c0 0.345-0.28 0.625-0.625 0.625s-0.625-0.28-0.625-0.625v-0.651c-3.644-0.301-6.549-3.206-6.849-6.849h-0.651c-0.345 0-0.625-0.28-0.625-0.625s0.28-0.625 0.625-0.625h0.651c0.301-3.644 3.206-6.549 6.849-6.849v-0.651c0-0.345 0.28-0.625 0.625-0.625zM10.625 16.219c2.953-0.293 5.301-2.641 5.594-5.594h-3.157c-0.249 1.224-1.213 2.189-2.438 2.438v3.157zM9.375 13.063c-1.224-0.249-2.189-1.213-2.438-2.438h-3.157c0.293 2.953 2.641 5.301 5.594 5.594v-3.157zM10 11.875c1.036 0 1.875-0.839 1.875-1.875s-0.839-1.875-1.875-1.875c-1.036 0-1.875 0.839-1.875 1.875s0.839 1.875 1.875 1.875zM3.781 9.375h3.157c0.249-1.224 1.213-2.189 2.438-2.438v-3.157c-2.953 0.293-5.301 2.641-5.594 5.594zM10.625 3.781v3.157c1.224 0.249 2.189 1.213 2.438 2.438h3.157c-0.293-2.953-2.641-5.301-5.594-5.594z"></path>
</svg>
