<!-- Generated by IcoMoon.io -->
<svg version="1.1" xmlns="http://www.w3.org/2000/svg" width="32" height="32" viewBox="0 0 32 32">
<title>temperature</title>
<path d="M11 7c0-2.752 2.248-5 5-5s5 2.248 5 5v11.079c1.209 1.256 2 2.986 2 4.921 0 3.852-3.148 7-7 7s-7-3.148-7-7c0-1.935 0.791-3.665 2-4.921v-11.079zM16 4c-1.648 0-3 1.352-3 3v11.94l-0.324 0.297c-1.011 0.927-1.676 2.266-1.676 3.763 0 2.748 2.252 5 5 5s5-2.252 5-5c0-1.497-0.665-2.836-1.676-3.763l-0.324-0.297v-11.94c0-1.648-1.352-3-3-3z"></path>
</svg>
