<!-- Generated by IcoMoon.io -->
<svg version="1.1" xmlns="http://www.w3.org/2000/svg" width="20" height="20" viewBox="0 0 20 20">
<title>temperature</title>
<path d="M6.875 4.375c0-1.72 1.405-3.125 3.125-3.125s3.125 1.405 3.125 3.125v6.925c0.755 0.785 1.25 1.866 1.25 3.075 0 2.408-1.967 4.375-4.375 4.375s-4.375-1.967-4.375-4.375c0-1.209 0.495-2.29 1.25-3.075v-6.925zM10 2.5c-1.030 0-1.875 0.845-1.875 1.875v7.462l-0.203 0.186c-0.632 0.579-1.047 1.416-1.047 2.352 0 1.717 1.408 3.125 3.125 3.125s3.125-1.408 3.125-3.125c0-0.936-0.416-1.773-1.047-2.352l-0.203-0.186v-7.462c0-1.030-0.845-1.875-1.875-1.875z"></path>
</svg>
