<!-- Generated by IcoMoon.io -->
<svg version="1.1" xmlns="http://www.w3.org/2000/svg" width="20" height="20" viewBox="0 0 20 20">
<title>temperature-hi</title>
<path d="M10 5c0.345 0 0.625 0.28 0.625 0.625v7.667c0.374 0.216 0.625 0.62 0.625 1.083 0 0.69-0.56 1.25-1.25 1.25s-1.25-0.56-1.25-1.25c0-0.463 0.251-0.867 0.625-1.083v-7.667c0-0.345 0.28-0.625 0.625-0.625z"></path>
<path d="M10 1.25c-1.72 0-3.125 1.405-3.125 3.125v6.925c-0.755 0.785-1.25 1.866-1.25 3.075 0 2.408 1.967 4.375 4.375 4.375s4.375-1.967 4.375-4.375c0-1.209-0.495-2.29-1.25-3.075v-6.925c0-1.72-1.405-3.125-3.125-3.125zM8.125 4.375c0-1.030 0.845-1.875 1.875-1.875s1.875 0.845 1.875 1.875v7.462l0.203 0.186c0.632 0.579 1.047 1.416 1.047 2.352 0 1.717-1.408 3.125-3.125 3.125s-3.125-1.408-3.125-3.125c0-0.936 0.416-1.773 1.047-2.352l0.203-0.186v-7.462z"></path>
</svg>
