<!-- Generated by IcoMoon.io -->
<svg version="1.1" xmlns="http://www.w3.org/2000/svg" width="32" height="32" viewBox="0 0 32 32">
<title>theme-per-user</title>
<path d="M21.24 24.070h-10.48v-2.28c0-0.796 0.316-1.559 0.879-2.121s1.326-0.879 2.121-0.879h3.84c0.965 0 1.891 0.384 2.574 1.066s1.066 1.608 1.066 2.574v1.64zM16 11.5c0.518 0 1.025 0.154 1.456 0.441s0.767 0.697 0.965 1.176c0.198 0.479 0.25 1.005 0.149 1.514s-0.351 0.975-0.717 1.341-0.833 0.616-1.341 0.717c-0.508 0.101-1.035 0.049-1.514-0.149s-0.888-0.534-1.176-0.965c-0.288-0.431-0.441-0.937-0.441-1.456 0-0.695 0.276-1.361 0.767-1.853s1.158-0.767 1.853-0.767zM19.64 17.11c0.561-0.683 0.918-1.511 1.031-2.388s-0.024-1.768-0.394-2.571-0.958-1.486-1.698-1.97c-0.74-0.484-1.601-0.751-2.485-0.769s-1.755 0.213-2.514 0.667c-0.759 0.454-1.374 1.112-1.776 1.899s-0.575 1.672-0.498 2.553c0.077 0.881 0.4 1.722 0.933 2.428-1.034 0.317-1.938 0.957-2.581 1.827s-0.989 1.922-0.989 3.003v2.65c0 0.457 0.181 0.896 0.503 1.22s0.76 0.508 1.217 0.51h11.21c0.459 0 0.899-0.182 1.223-0.507s0.507-0.764 0.507-1.223v-2c-0.002-1.162-0.355-2.295-1.014-3.252s-1.592-1.692-2.676-2.108v0.030zM30.64 4.17v23c0 0.835-0.332 1.637-0.923 2.227s-1.392 0.923-2.227 0.923h-23c-0.835 0-1.637-0.332-2.227-0.923s-0.923-1.392-0.923-2.227v-18.81c0-0.834 0.331-1.633 0.919-2.224s1.387-0.923 2.221-0.926h9.42c0.278 0 0.546 0.111 0.742 0.308s0.308 0.464 0.308 0.742-0.111 0.546-0.308 0.742c-0.197 0.197-0.464 0.308-0.742 0.308h-9.42c-0.135-0.007-0.271 0.014-0.398 0.061s-0.243 0.12-0.342 0.213c-0.098 0.094-0.176 0.206-0.23 0.331s-0.081 0.259-0.081 0.395v18.9c-0.007 0.14 0.015 0.279 0.065 0.41s0.127 0.249 0.226 0.348 0.218 0.176 0.348 0.226c0.131 0.050 0.27 0.073 0.41 0.065h23c0.14 0.007 0.279-0.015 0.41-0.065s0.249-0.127 0.348-0.226 0.176-0.218 0.226-0.348c0.050-0.131 0.073-0.27 0.065-0.41v-23c0.007-0.14-0.015-0.28-0.065-0.41s-0.127-0.249-0.226-0.348c-0.099-0.099-0.218-0.176-0.348-0.226s-0.27-0.072-0.41-0.065h-25.1c-0.278 0-0.546-0.111-0.742-0.308s-0.308-0.464-0.308-0.742c0-0.278 0.111-0.546 0.308-0.742s0.464-0.308 0.742-0.308h25.14c0.835 0 1.637 0.332 2.227 0.923s0.923 1.392 0.923 2.227l-0.030-0.040z"></path>
</svg>
