<!-- Generated by IcoMoon.io -->
<svg version="1.1" xmlns="http://www.w3.org/2000/svg" width="20" height="20" viewBox="0 0 20 20">
<title>theme-per-user</title>
<path d="M13.275 15.044h-6.55v-1.425c0-0.497 0.198-0.974 0.549-1.326s0.828-0.549 1.326-0.549h2.4c0.603 0 1.182 0.24 1.609 0.666s0.666 1.005 0.666 1.609v1.025zM10 7.188c0.324 0 0.64 0.096 0.91 0.276s0.479 0.436 0.603 0.735c0.124 0.299 0.156 0.628 0.093 0.946s-0.219 0.609-0.448 0.838-0.521 0.385-0.838 0.448c-0.318 0.063-0.647 0.031-0.946-0.093s-0.555-0.334-0.735-0.603c-0.18-0.269-0.276-0.586-0.276-0.91 0-0.434 0.172-0.851 0.48-1.158s0.724-0.48 1.158-0.48zM12.275 10.694c0.351-0.427 0.574-0.944 0.644-1.492s-0.015-1.105-0.246-1.607-0.599-0.928-1.061-1.231c-0.462-0.303-1-0.469-1.553-0.48s-1.097 0.133-1.571 0.417c-0.474 0.284-0.859 0.695-1.11 1.187s-0.359 1.045-0.311 1.595c0.048 0.551 0.25 1.076 0.583 1.517-0.646 0.198-1.212 0.598-1.613 1.142s-0.618 1.201-0.618 1.877v1.656c0 0.286 0.113 0.56 0.314 0.762s0.475 0.317 0.761 0.319h7.006c0.287 0 0.562-0.114 0.765-0.317s0.317-0.478 0.317-0.765v-1.25c-0.001-0.726-0.222-1.435-0.634-2.033s-0.995-1.057-1.673-1.317v0.019zM19.15 2.606v14.375c0 0.522-0.207 1.023-0.577 1.392s-0.87 0.577-1.392 0.577h-14.375c-0.522 0-1.023-0.207-1.392-0.577s-0.577-0.87-0.577-1.392v-11.756c0-0.521 0.207-1.021 0.574-1.39s0.867-0.577 1.388-0.579h5.888c0.174 0 0.341 0.069 0.464 0.192s0.192 0.29 0.192 0.464-0.069 0.341-0.192 0.464c-0.123 0.123-0.29 0.192-0.464 0.192h-5.888c-0.085-0.004-0.169 0.009-0.249 0.038s-0.152 0.075-0.213 0.133c-0.061 0.058-0.11 0.129-0.144 0.207s-0.050 0.162-0.050 0.247v11.813c-0.004 0.087 0.009 0.175 0.041 0.256s0.080 0.156 0.141 0.218 0.136 0.11 0.218 0.141c0.082 0.031 0.169 0.045 0.256 0.041h14.375c0.087 0.004 0.175-0.009 0.256-0.041s0.156-0.080 0.218-0.141 0.11-0.136 0.141-0.218c0.031-0.082 0.045-0.169 0.041-0.256v-14.375c0.004-0.087-0.009-0.175-0.041-0.256s-0.080-0.156-0.141-0.218c-0.062-0.062-0.136-0.11-0.218-0.141s-0.169-0.045-0.256-0.041h-15.688c-0.174 0-0.341-0.069-0.464-0.192s-0.192-0.29-0.192-0.464c0-0.174 0.069-0.341 0.192-0.464s0.29-0.192 0.464-0.192h15.712c0.522 0 1.023 0.207 1.392 0.577s0.577 0.87 0.577 1.392l-0.019-0.025z"></path>
</svg>
