<!-- Generated by IcoMoon.io -->
<svg version="1.1" xmlns="http://www.w3.org/2000/svg" width="20" height="20" viewBox="0 0 20 20">
<title>thumb-down</title>
<path d="M3.125 2.5h11.563c1.173 0 2.086 0.765 2.41 1.816l0.003 0.011 1.504 5.638c0.413 1.57-0.743 3.159-2.417 3.159h-3.813v2.188c0 1.22-0.967 2.188-2.188 2.188-0.778 0-1.576-0.429-1.94-1.232l-2.509-5.018h-2.614c-1.033 0-1.875-0.842-1.875-1.875v-5c0-1.033 0.842-1.875 1.875-1.875zM6.75 3.75v6.727l2.634 5.269c0.139 0.313 0.462 0.504 0.804 0.504 0.53 0 0.938-0.408 0.938-0.937v-3.438h5.063c0.826 0 1.42-0.786 1.208-1.59l-0-0.001-1.496-5.611c-0.179-0.568-0.638-0.923-1.212-0.923h-7.937zM2.5 4.375v5c0 0.342 0.283 0.625 0.625 0.625h2.375v-6.25h-2.375c-0.342 0-0.625 0.283-0.625 0.625z"></path>
</svg>
