<!-- Generated by IcoMoon.io -->
<svg version="1.1" xmlns="http://www.w3.org/2000/svg" width="20" height="20" viewBox="0 0 20 20">
<title>thumb-up</title>
<path d="M10.188 2.5c1.22 0 2.188 0.967 2.188 2.188v2.188h3.813c1.674 0 2.83 1.589 2.417 3.159l-1.504 5.638-0.003 0.011c-0.324 1.051-1.237 1.816-2.41 1.816h-11.563c-1.033 0-1.875-0.842-1.875-1.875v-5c0-1.033 0.842-1.875 1.875-1.875h2.614l2.509-5.018c0.364-0.803 1.162-1.232 1.94-1.232zM6.75 16.25h7.938c0.573 0 1.033-0.356 1.212-0.923l1.496-5.611c0.211-0.805-0.382-1.59-1.208-1.59h-5.062v-3.438c0-0.53-0.408-0.938-0.938-0.938-0.342 0-0.665 0.191-0.804 0.504l-0.006 0.013-2.628 5.256v6.727zM2.5 10.625v5c0 0.342 0.283 0.625 0.625 0.625h2.375v-6.25h-2.375c-0.342 0-0.625 0.283-0.625 0.625z"></path>
</svg>
