<!-- Generated by IcoMoon.io -->
<svg version="1.1" xmlns="http://www.w3.org/2000/svg" width="32" height="32" viewBox="0 0 32 32">
<title>thumb-up</title>
<path d="M16.3 4c1.952 0 3.5 1.548 3.5 3.5v3.5h6.1c2.678 0 4.528 2.543 3.867 5.055l-2.406 9.021-0.006 0.018c-0.518 1.682-1.979 2.906-3.856 2.906h-18.5c-1.652 0-3-1.348-3-3v-8c0-1.652 1.348-3 3-3h4.182l4.014-8.029c0.582-1.284 1.859-1.971 3.104-1.971zM10.8 26h12.7c0.918 0 1.653-0.57 1.939-1.477l2.394-8.978c0.338-1.288-0.612-2.545-1.933-2.545h-8.1v-5.5c0-0.848-0.652-1.5-1.5-1.5-0.548 0-1.063 0.305-1.286 0.806l-0.009 0.021-4.205 8.409v10.764zM4 17v8c0 0.548 0.452 1 1 1h3.8v-10h-3.8c-0.548 0-1 0.452-1 1z"></path>
</svg>
