<!-- Generated by IcoMoon.io -->
<svg version="1.1" xmlns="http://www.w3.org/2000/svg" width="32" height="32" viewBox="0 0 32 32">
<title>thunder-alt</title>
<path d="M11.051 2.684c0.136-0.408 0.518-0.684 0.949-0.684h13c0.369 0 0.708 0.203 0.882 0.528s0.155 0.72-0.050 1.027l-6.964 10.445h3.131c0.418 0 0.791 0.259 0.937 0.65s0.034 0.832-0.282 1.105l-15 13c-0.347 0.301-0.854 0.326-1.229 0.063s-0.524-0.749-0.359-1.177l4.477-11.641h-2.544c-0.321 0-0.623-0.155-0.811-0.415s-0.239-0.596-0.137-0.901l4-12zM12.721 4l-3.333 10h2.613c0.329 0 0.638 0.162 0.824 0.434s0.227 0.618 0.109 0.925l-3.563 9.263 9.949-8.622h-2.319c-0.369 0-0.708-0.203-0.882-0.528s-0.155-0.72 0.050-1.027l6.963-10.445h-10.411z"></path>
</svg>
