<!-- Generated by IcoMoon.io -->
<svg version="1.1" xmlns="http://www.w3.org/2000/svg" width="20" height="20" viewBox="0 0 20 20">
<title>thunder-alt</title>
<path d="M6.907 1.677c0.085-0.255 0.324-0.427 0.593-0.427h8.125c0.231 0 0.442 0.127 0.551 0.33s0.097 0.45-0.031 0.642l-4.352 6.528h1.957c0.261 0 0.494 0.162 0.586 0.407s0.021 0.52-0.176 0.691l-9.375 8.125c-0.217 0.188-0.534 0.204-0.768 0.039s-0.327-0.468-0.224-0.736l2.798-7.276h-1.59c-0.201 0-0.39-0.097-0.507-0.26s-0.149-0.372-0.086-0.563l2.5-7.5zM7.951 2.5l-2.083 6.25h1.633c0.206 0 0.399 0.101 0.515 0.271s0.142 0.386 0.068 0.578l-2.227 5.789 6.218-5.389h-1.45c-0.231 0-0.442-0.127-0.551-0.33s-0.097-0.45 0.031-0.642l4.352-6.528h-6.507z"></path>
</svg>
