<!-- Generated by IcoMoon.io -->
<svg version="1.1" xmlns="http://www.w3.org/2000/svg" width="20" height="20" viewBox="0 0 20 20">
<title>tir-alt</title>
<path d="M13.75 6.875c0.345 0 0.625 0.28 0.625 0.625v1.875h1.875c0.345 0 0.625 0.28 0.625 0.625s-0.28 0.625-0.625 0.625h-3.125v-3.125c0-0.345 0.28-0.625 0.625-0.625z"></path>
<path d="M1.25 3.125c-0.345 0-0.625 0.28-0.625 0.625s0.28 0.625 0.625 0.625h5.625c0.69 0 1.25 0.56 1.25 1.25v6.584c-0.368-0.213-0.795-0.334-1.25-0.334-0.747 0-1.417 0.327-1.875 0.846-0.458-0.519-1.128-0.846-1.875-0.846-1.381 0-2.5 1.119-2.5 2.5s1.119 2.5 2.5 2.5c0.747 0 1.417-0.327 1.875-0.846 0.458 0.519 1.128 0.846 1.875 0.846 1.165 0 2.144-0.797 2.421-1.875h2.658c0.278 1.078 1.256 1.875 2.421 1.875 1.188 0 2.182-0.828 2.437-1.938 1.11-0.255 1.938-1.249 1.938-2.437v-4.223c0-0.663-0.263-1.299-0.732-1.768l-0.777-0.777c-0.469-0.469-1.105-0.732-1.768-0.732h-2.348c-1.381 0-2.5 1.119-2.5 2.5v6.25h-1.25v-8.125c0-1.381-1.119-2.5-2.5-2.5h-5.625zM8.125 14.375c0 0.69-0.56 1.25-1.25 1.25s-1.25-0.56-1.25-1.25c0-0.69 0.56-1.25 1.25-1.25s1.25 0.56 1.25 1.25zM11.875 7.5c0-0.69 0.56-1.25 1.25-1.25h2.348c0.332 0 0.649 0.132 0.884 0.366l0.777 0.777c0.234 0.234 0.366 0.552 0.366 0.884v4.223c0 0.507-0.302 0.943-0.735 1.139-0.314-1.022-1.265-1.764-2.39-1.764-1.165 0-2.144 0.797-2.421 1.875h-0.079v-6.25zM1.875 14.375c0-0.69 0.56-1.25 1.25-1.25s1.25 0.56 1.25 1.25c0 0.69-0.56 1.25-1.25 1.25s-1.25-0.56-1.25-1.25zM14.375 13.125c0.69 0 1.25 0.56 1.25 1.25s-0.56 1.25-1.25 1.25c-0.69 0-1.25-0.56-1.25-1.25s0.56-1.25 1.25-1.25z"></path>
</svg>
