<!-- Generated by IcoMoon.io -->
<svg version="1.1" xmlns="http://www.w3.org/2000/svg" width="20" height="20" viewBox="0 0 20 20">
<title>tolls</title>
<path d="M2.5 1.875c0-0.345 0.28-0.625 0.625-0.625h9.375c0.345 0 0.625 0.28 0.625 0.625v3.75c0 0.345-0.28 0.625-0.625 0.625s-0.625-0.28-0.625-0.625v-3.125h-8.125v10h0.625v-0.625c0-1.408 1.092-2.5 2.5-2.5h2.5c0.079 0 0.158 0.015 0.232 0.045l3.013 1.205h1.755c0.345 0 0.625 0.28 0.625 0.625s-0.28 0.625-0.625 0.625h-1.875c-0.079 0-0.158-0.015-0.232-0.045l-3.013-1.205h-2.38c-0.717 0-1.25 0.533-1.25 1.25v0.625h6.875c0.345 0 0.625 0.28 0.625 0.625v4.375h5c0.345 0 0.625 0.28 0.625 0.625s-0.28 0.625-0.625 0.625h-16.25c-0.345 0-0.625-0.28-0.625-0.625s0.28-0.625 0.625-0.625h0.625v-15.625zM3.75 13.75v3.75h8.125v-3.75h-8.125z"></path>
<path d="M16.25 11.25c0-0.345 0.28-0.625 0.625-0.625h1.25c0.345 0 0.625 0.28 0.625 0.625s-0.28 0.625-0.625 0.625h-1.25c-0.345 0-0.625-0.28-0.625-0.625z"></path>
<path d="M7.813 3.75c-1.208 0-2.188 0.979-2.188 2.188s0.979 2.188 2.188 2.188c1.208 0 2.188-0.979 2.188-2.188s-0.979-2.188-2.188-2.188zM6.875 5.938c0-0.518 0.42-0.938 0.938-0.938s0.938 0.42 0.938 0.938c0 0.518-0.42 0.938-0.938 0.938s-0.938-0.42-0.938-0.938z"></path>
</svg>
