<!-- Generated by IcoMoon.io -->
<svg version="1.1" xmlns="http://www.w3.org/2000/svg" width="20" height="20" viewBox="0 0 20 20">
<title>toll-stop</title>
<path d="M3.125 1.25h7.5c0.345 0 0.625 0.28 0.625 0.625v15.625h1.25v-5.625c0-0.166 0.066-0.325 0.183-0.442l5-5c0.244-0.244 0.64-0.244 0.884 0s0.244 0.64 0 0.884l-4.817 4.817v5.366h4.375c0.345 0 0.625 0.28 0.625 0.625s-0.28 0.625-0.625 0.625h-16.25c-0.345 0-0.625-0.28-0.625-0.625s0.28-0.625 0.625-0.625h0.625v-15.625c0-0.345 0.28-0.625 0.625-0.625zM10 9.375v-6.875h-6.25v6.875h6.25zM3.75 10.625v6.875h6.25v-6.875h-6.25z"></path>
</svg>
