<!-- Generated by IcoMoon.io -->
<svg version="1.1" xmlns="http://www.w3.org/2000/svg" width="32" height="32" viewBox="0 0 32 32">
<title>tolls</title>
<path d="M4 3c0-0.552 0.448-1 1-1h15c0.552 0 1 0.448 1 1v6c0 0.552-0.448 1-1 1s-1-0.448-1-1v-5h-13v16h1v-1c0-2.252 1.748-4 4-4h4c0.127 0 0.253 0.024 0.371 0.072l4.821 1.928h2.807c0.552 0 1 0.448 1 1s-0.448 1-1 1h-3c-0.127 0-0.253-0.024-0.371-0.072l-4.821-1.928h-3.807c-1.148 0-2 0.852-2 2v1h11c0.552 0 1 0.448 1 1v7h8c0.552 0 1 0.448 1 1s-0.448 1-1 1h-26c-0.552 0-1-0.448-1-1s0.448-1 1-1h1v-25zM6 22v6h13v-6h-13z"></path>
<path d="M26 18c0-0.552 0.448-1 1-1h2c0.552 0 1 0.448 1 1s-0.448 1-1 1h-2c-0.552 0-1-0.448-1-1z"></path>
<path d="M12.5 6c-1.933 0-3.5 1.567-3.5 3.5s1.567 3.5 3.5 3.5c1.933 0 3.5-1.567 3.5-3.5s-1.567-3.5-3.5-3.5zM11 9.5c0-0.828 0.672-1.5 1.5-1.5s1.5 0.672 1.5 1.5c0 0.828-0.672 1.5-1.5 1.5s-1.5-0.672-1.5-1.5z"></path>
</svg>
