<!-- Generated by IcoMoon.io -->
<svg version="1.1" xmlns="http://www.w3.org/2000/svg" width="20" height="20" viewBox="0 0 20 20">
<title>tooth</title>
<path d="M13.379 1.375c-1.221-0.257-2.385-0.101-3.379 0.305-0.994-0.406-2.157-0.562-3.379-0.305l-0.005 0.001c-2.243 0.491-4.003 2.312-4.358 4.572-0.346 2.019 0.351 3.843 1.673 5.104-0 0 0.001 0.002 0.003 0.006 0.012 0.021 0.057 0.103 0.113 0.304 0.066 0.233 0.126 0.539 0.188 0.913 0.036 0.219 0.073 0.461 0.112 0.718 0.089 0.588 0.19 1.252 0.323 1.888 0.191 0.915 0.467 1.877 0.934 2.621 0.483 0.768 1.212 1.361 2.271 1.361 0.383 0 0.731-0.104 1.021-0.325 0.282-0.214 0.462-0.504 0.582-0.797 0.229-0.564 0.288-1.288 0.319-1.959 0.010-0.214 0.017-0.425 0.024-0.634 0.016-0.491 0.032-0.967 0.082-1.431 0.024-0.224 0.056-0.431 0.095-0.619 0.042 0.197 0.074 0.413 0.1 0.645 0.050 0.465 0.066 0.941 0.082 1.429 0.007 0.209 0.014 0.42 0.024 0.634 0.031 0.667 0.089 1.386 0.32 1.946 0.12 0.292 0.302 0.579 0.584 0.791 0.29 0.218 0.636 0.32 1.018 0.32 1.059 0 1.789-0.593 2.271-1.361 0.468-0.744 0.743-1.706 0.934-2.621 0.133-0.636 0.233-1.3 0.323-1.888 0.039-0.256 0.076-0.498 0.112-0.718 0.062-0.374 0.122-0.68 0.188-0.913 0.057-0.2 0.102-0.283 0.113-0.304 0.003-0.006 0.004-0.007 0.001-0.004 1.245-1.245 2.025-3.066 1.675-5.106-0.355-2.26-2.116-4.081-4.358-4.572l-0.005-0.001zM3.493 6.146c0.271-1.737 1.634-3.163 3.389-3.548 1.043-0.219 2.029-0.055 2.854 0.33 0.002 0.001 0.004 0.002 0.006 0.003 1.536 0.716 2.571 2.249 2.571 3.993 0 0.345 0.28 0.625 0.625 0.625s0.625-0.28 0.625-0.625c0-1.75-0.807-3.325-2.085-4.369 0.519-0.083 1.072-0.077 1.641 0.042 1.755 0.385 3.117 1.811 3.389 3.548l0.002 0.010c0.273 1.583-0.322 3.011-1.326 4.014-0.233 0.233-0.355 0.575-0.433 0.85-0.086 0.304-0.155 0.668-0.218 1.050-0.042 0.251-0.081 0.511-0.121 0.778-0.087 0.572-0.178 1.174-0.304 1.776-0.184 0.882-0.424 1.662-0.769 2.211-0.33 0.525-0.71 0.776-1.213 0.776-0.15 0-0.223-0.037-0.267-0.069-0.051-0.038-0.115-0.113-0.179-0.267-0.137-0.333-0.195-0.844-0.227-1.528-0.008-0.179-0.015-0.37-0.021-0.568-0.017-0.507-0.036-1.058-0.091-1.571-0.077-0.715-0.234-1.475-0.627-2.085-0.024-0.037-0.052-0.072-0.083-0.103-0.17-0.17-0.403-0.277-0.653-0.277-0.245 0-0.536 0.112-0.7 0.396-0.387 0.594-0.541 1.341-0.617 2.043-0.055 0.512-0.074 1.064-0.091 1.573-0.007 0.198-0.013 0.389-0.021 0.569-0.032 0.688-0.090 1.207-0.228 1.545-0.064 0.157-0.13 0.235-0.181 0.274-0.043 0.033-0.116 0.069-0.264 0.069-0.503 0-0.883-0.251-1.213-0.776-0.345-0.549-0.585-1.33-0.769-2.211-0.126-0.602-0.217-1.204-0.304-1.776-0.040-0.267-0.080-0.527-0.121-0.778-0.063-0.382-0.132-0.746-0.219-1.050-0.078-0.275-0.2-0.617-0.433-0.85-0.004-0.004-0.008-0.008-0.012-0.012-1.043-0.988-1.589-2.405-1.314-4.003l0.002-0.010z"></path>
</svg>
