<!-- Generated by IcoMoon.io -->
<svg version="1.1" xmlns="http://www.w3.org/2000/svg" width="20" height="20" viewBox="0 0 20 20">
<title>toplytics</title>
<path d="M14.8 11.425v3.181h-1.25v-3.181h1.25zM13.55 10.175c-0.332 0-0.649 0.132-0.884 0.366s-0.366 0.552-0.366 0.884v3.169c0 0.332 0.132 0.649 0.366 0.884s0.552 0.366 0.884 0.366h1.25c0.332 0 0.649-0.132 0.884-0.366s0.366-0.552 0.366-0.884v-3.162c0-0.332-0.132-0.649-0.366-0.884s-0.552-0.366-0.884-0.366l-1.25-0.006zM10.375 7v7.625h-1.25v-7.644l1.25 0.019zM9.125 5.75c-0.332 0-0.649 0.132-0.884 0.366s-0.366 0.552-0.366 0.884v7.6c0 0.332 0.132 0.649 0.366 0.884s0.552 0.366 0.884 0.366h1.25c0.332 0 0.649-0.132 0.884-0.366s0.366-0.552 0.366-0.884v-7.612c0-0.332-0.132-0.649-0.366-0.884s-0.552-0.366-0.884-0.366l-1.25 0.013zM5.919 9.531v5.075h-1.25v-5.075h1.25zM4.669 8.281c-0.332 0-0.649 0.132-0.884 0.366s-0.366 0.552-0.366 0.884v5.063c0 0.332 0.132 0.649 0.366 0.884s0.552 0.366 0.884 0.366h1.25c0.332 0 0.649-0.132 0.884-0.366s0.366-0.552 0.366-0.884v-5.062c0-0.332-0.132-0.649-0.366-0.884s-0.552-0.366-0.884-0.366h-1.25zM17.2 0.637h-15.713c-0.173 0-0.339 0.069-0.462 0.191s-0.191 0.289-0.191 0.462c0 0.173 0.069 0.339 0.191 0.462s0.289 0.191 0.462 0.191h15.713c0.087-0.004 0.175 0.009 0.256 0.041s0.156 0.080 0.218 0.141c0.062 0.062 0.11 0.136 0.141 0.218s0.045 0.169 0.041 0.256v14.375c0.004 0.087-0.009 0.175-0.041 0.256s-0.080 0.156-0.141 0.218c-0.062 0.062-0.136 0.11-0.218 0.141s-0.169 0.045-0.256 0.041h-14.375c-0.087 0.004-0.175-0.009-0.256-0.041s-0.156-0.080-0.218-0.141c-0.062-0.062-0.11-0.136-0.141-0.218s-0.045-0.169-0.041-0.256v-11.75c-0-0.085 0.017-0.169 0.050-0.247s0.082-0.148 0.144-0.207c0.061-0.058 0.134-0.104 0.213-0.133s0.164-0.043 0.249-0.038h5.863c0.174 0 0.341-0.069 0.464-0.192s0.192-0.29 0.192-0.464-0.069-0.341-0.192-0.464c-0.123-0.123-0.29-0.192-0.464-0.192h-5.887c-0.517-0-1.013 0.203-1.381 0.566s-0.579 0.855-0.588 1.372v11.781c0 0.522 0.207 1.023 0.577 1.392s0.87 0.577 1.392 0.577h14.375c0.522 0 1.023-0.207 1.392-0.577s0.577-0.87 0.577-1.392v-14.375c0-0.522-0.207-1.023-0.577-1.392s-0.87-0.577-1.392-0.577l0.025-0.025z"></path>
</svg>
