<!-- Generated by IcoMoon.io -->
<svg version="1.1" xmlns="http://www.w3.org/2000/svg" width="20" height="20" viewBox="0 0 20 20">
<title>tor</title>
<path d="M13.288 1.056c-1.211 0.802-2.21 1.885-2.913 3.156l0.469-1.875c-0.684 1.163-1.136 2.447-1.331 3.781l-0.931-0.625-0.169 0.131c0.838 1.513 0.4 2.313 0 2.6-0.944 0.573-1.841 1.221-2.681 1.938-0.527 0.491-0.931 1.099-1.178 1.776s-0.329 1.403-0.241 2.118c0.087 0.958 0.458 1.869 1.066 2.615s1.425 1.294 2.346 1.572c0.791 0.24 1.617 0.346 2.444 0.313 1.37 0.044 2.714-0.384 3.806-1.212 0.539-0.45 0.973-1.011 1.272-1.646s0.456-1.327 0.459-2.029c0.006-0.706-0.137-1.405-0.42-2.051s-0.7-1.225-1.223-1.699c-0.607-0.512-1.269-0.955-1.975-1.319-0.325-0.181-1.325-0.956-0.987-2.069l-0.719-0.1c1.094-1.696 2.415-3.236 3.925-4.575-1.281 0.389-2.402 1.183-3.194 2.263 0.593-1.108 1.324-2.137 2.175-3.063zM8.75 5.919l0.731 0.3 0.319 0.138v7.138c-0.131 0.347-0.346 0.656-0.625 0.9-0.334 0.503-0.484 1.106-0.425 1.706 0.019 0.255 0.083 0.504 0.188 0.738 0.083 0.249 0.194 0.488 0.331 0.713 0.14 0.212 0.331 0.384 0.556 0.5-0.506-0.083-0.987-0.279-1.406-0.575-0.734-0.63-1.219-1.501-1.369-2.456-0.069-0.706 0.625-1.756 1.512-2.287 0.322-0.183 0.593-0.444 0.79-0.758s0.312-0.672 0.335-1.042c-0.066 0.357-0.208 0.696-0.416 0.993s-0.478 0.547-0.79 0.732c-0.48 0.206-0.888 0.548-1.174 0.985s-0.436 0.949-0.432 1.471c0.010 0.519 0.149 1.027 0.404 1.479s0.619 0.833 1.059 1.109c0.334 0.217 0.696 0.39 1.075 0.512-1.412-0.331-1.55-0.481-1.956-0.962 0 0-0.106-0.094-0.106-0.119-0.641-0.724-1.121-1.576-1.406-2.5-0.107-0.322-0.13-0.666-0.069-1 0.431-1.525 1.362-2.119 2.294-2.75l0.669-0.469c0.519-0.4 0.625-1.475 0.763-2.069-0.219 0.737-0.438 1.644-0.838 1.937-0.222 0.159-0.451 0.308-0.688 0.444-0.969 0.625-1.925 1.25-2.369 2.856-0.074 0.362-0.051 0.738 0.069 1.088 0.288 0.969 0.783 1.865 1.45 2.625 0.032 0.033 0.061 0.068 0.088 0.106 0.262 0.276 0.582 0.49 0.938 0.625-0.323-0.088-0.636-0.205-0.938-0.35-0.698-0.34-1.299-0.849-1.749-1.481s-0.734-1.367-0.826-2.138c-0.144-2.625 1.125-3.388 2.294-4.375 0.656-0.5 1.563-0.775 2.094-1.75 0.129-0.371 0.142-0.772 0.037-1.15-0.115-0.298-0.253-0.586-0.412-0.862zM9.85 6.381l0.356 0.156v0.313c-0.063 0.484-0.036 0.976 0.081 1.45 0.144 0.556 0.869 1.356 1.162 2.275 0.494 1.923 0.494 3.939 0 5.863-0.11 0.364-0.295 0.7-0.544 0.987 0.099-0.178 0.179-0.367 0.238-0.562 0.439-1.198 0.572-2.487 0.387-3.75-0.059-0.429-0.172-0.849-0.337-1.25-0.362-0.869-0.881-1.694-0.944-1.875-0.183-0.737-0.284-1.491-0.3-2.25-0.010 0.813 0.074 1.625 0.25 2.419 0.050 0.169 0.525 0.906 0.862 1.8 0.155 0.44 0.264 0.894 0.325 1.356 0.090 1.062-0.012 2.131-0.3 3.156-0.124 0.574-0.405 1.102-0.813 1.525 0.297-0.328 0.512-0.722 0.625-1.15 0.181-0.692 0.269-1.404 0.262-2.119-0.056-0.57-0.197-1.128-0.419-1.656-0.142-0.327-0.309-0.643-0.5-0.944-0.146-0.438-0.228-0.895-0.244-1.356-0.044 0.499-0.004 1.002 0.119 1.487 0.1 0.288 0.45 0.675 0.556 1.050 0.152 0.451 0.247 0.919 0.281 1.394 0.003 0.63-0.060 1.258-0.188 1.875-0.043 0.294-0.143 0.577-0.297 0.831s-0.356 0.476-0.597 0.65c0.225-0.232 0.381-0.522 0.45-0.837 0.063-0.337 0.081-0.675 0.119-1.075 0.034-0.418 0.007-0.839-0.081-1.25-0.125-0.581-0.344-1.175-0.437-1.587 0 0.45 0.194 1.031 0.275 1.625 0.036 0.416 0.036 0.834 0 1.25-0.024 0.565-0.149 1.122-0.369 1.644v-11.444h0.019zM9.819 13.556v4.287c-0.135-0.080-0.249-0.191-0.331-0.325-0.15-0.215-0.272-0.448-0.363-0.694-0.097-0.216-0.168-0.443-0.212-0.675-0.079-0.572 0.067-1.152 0.406-1.619 0.247-0.277 0.419-0.613 0.5-0.975z"></path>
</svg>
