<!-- Generated by IcoMoon.io -->
<svg version="1.1" xmlns="http://www.w3.org/2000/svg" width="20" height="20" viewBox="0 0 20 20">
<title>touch</title>
<path d="M9.449 4.317c0.751-0.346 1.536-0.567 2.426-0.567 3.092 0 5.625 2.533 5.625 5.625s-2.533 5.625-5.625 5.625c-0.328 0-0.637-0.002-0.877-0.050-0.338-0.068-0.668 0.152-0.735 0.49s0.152 0.668 0.49 0.735c0.374 0.075 0.801 0.075 1.097 0.075h0.025c3.783 0 6.875-3.092 6.875-6.875s-3.092-6.875-6.875-6.875c-1.11 0-2.075 0.279-2.949 0.683-0.313 0.145-0.45 0.516-0.306 0.829s0.516 0.45 0.829 0.306z"></path>
<path d="M3.948 4.145l-2.698 5.074v7.656h5.438c1.148 0 2.165-0.747 2.422-1.922l0.756-3.078h2.010c1.408 0 2.5-1.092 2.5-2.5s-1.092-2.5-2.5-2.5h-4.375v-1.875c0-1.98-2.63-2.605-3.552-0.855zM9.361 10.625h-1.861c-0.345 0-0.625 0.28-0.625 0.625s0.28 0.625 0.625 0.625h1.078l-0.687 2.797-0.002 0.009c-0.122 0.569-0.603 0.943-1.201 0.943h-4.188v-6.094l2.553-4.802c0.328-0.624 1.197-0.373 1.197 0.271v3.125h5.625c0.717 0 1.25 0.533 1.25 1.25s-0.533 1.25-1.25 1.25h-2.487c-0.009-0-0.018-0-0.027 0z"></path>
<path d="M11.875 5.625c-0.799 0-1.546 0.267-2.132 0.693-0.279 0.203-0.67 0.141-0.873-0.138s-0.141-0.67 0.138-0.873c0.789-0.574 1.792-0.932 2.868-0.932 2.783 0 5 2.217 5 5s-2.217 5-5 5h-0.023c-0.175 0-0.451 0.001-0.737-0.095-0.328-0.109-0.504-0.463-0.395-0.791s0.463-0.504 0.791-0.395c0.077 0.026 0.163 0.030 0.365 0.030 2.092 0 3.75-1.658 3.75-3.75s-1.658-3.75-3.75-3.75z"></path>
</svg>
