<!-- Generated by IcoMoon.io -->
<svg version="1.1" xmlns="http://www.w3.org/2000/svg" width="20" height="20" viewBox="0 0 20 20">
<title>trailer</title>
<path d="M3.204 15c0.278 1.078 1.256 1.875 2.421 1.875s2.144-0.797 2.421-1.875h6.329v1.25c0 0.345 0.28 0.625 0.625 0.625s0.625-0.28 0.625-0.625v-1.25h2.5c0.345 0 0.625-0.28 0.625-0.625s-0.28-0.625-0.625-0.625h-4.375v-8.125c0-1.381-1.119-2.5-2.5-2.5h-7.5c-1.381 0-2.5 1.119-2.5 2.5v9.375h1.954zM2.5 5.625c0-0.69 0.56-1.25 1.25-1.25h7.5c0.69 0 1.25 0.56 1.25 1.25v8.125h-4.454c-0.278-1.078-1.256-1.875-2.421-1.875s-2.144 0.797-2.421 1.875h-0.704v-8.125zM6.875 14.375c0 0.69-0.56 1.25-1.25 1.25s-1.25-0.56-1.25-1.25c0-0.69 0.56-1.25 1.25-1.25s1.25 0.56 1.25 1.25z"></path>
</svg>
