<!-- Generated by IcoMoon.io -->
<svg version="1.1" xmlns="http://www.w3.org/2000/svg" width="32" height="32" viewBox="0 0 32 32">
<title>transport-away</title>
<path d="M5 6c0-0.552 0.448-1 1-1h12c2.252 0 4 1.748 4 4v2h0.948c0.908 0 1.79 0.309 2.499 0.877l3.052 2.442c0.949 0.759 1.501 1.908 1.501 3.124v2.558c0 2.252-1.748 4-4 4h-1.126c-0.444 1.725-2.010 3-3.874 3s-3.43-1.275-3.874-3h-4.252c-0.444 1.725-2.010 3-3.874 3s-3.43-1.275-3.874-3h-2.126c-0.552 0-1-0.448-1-1s0.448-1 1-1h2.126c0.444-1.725 2.010-3 3.874-3s3.43 1.275 3.874 3h4.252c0.362-1.406 1.468-2.512 2.874-2.874v-0.126h-5c-0.552 0-1-0.448-1-1s0.448-1 1-1h5v-2h-12c-0.552 0-1-0.448-1-1s0.448-1 1-1h12v-2h-8c-0.552 0-1-0.448-1-1s0.448-1 1-1h8c0-1.148-0.852-2-2-2h-12c-0.552 0-1-0.448-1-1zM22 19.126c1.406 0.362 2.512 1.468 2.874 2.874h1.126c1.148 0 2-0.852 2-2v-2.558c0-0.608-0.276-1.182-0.751-1.562l-3.052-2.442c-0.355-0.284-0.795-0.438-1.249-0.438h-0.948v6.126zM23 23c0-1.105-0.895-2-2-2s-2 0.895-2 2c0 1.105 0.895 2 2 2s2-0.895 2-2zM9 21c-1.105 0-2 0.895-2 2s0.895 2 2 2c1.105 0 2-0.895 2-2s-0.895-2-2-2z"></path>
</svg>
