<!-- Generated by IcoMoon.io -->
<svg version="1.1" xmlns="http://www.w3.org/2000/svg" width="20" height="20" viewBox="0 0 20 20">
<title>tree</title>
<path d="M10.625 13.719v3.781h1.25c0.345 0 0.625 0.28 0.625 0.625s-0.28 0.625-0.625 0.625h-3.75c-0.345 0-0.625-0.28-0.625-0.625s0.28-0.625 0.625-0.625h1.25v-3.781c-3.158-0.314-5.625-2.978-5.625-6.219 0-3.452 2.798-6.25 6.25-6.25s6.25 2.798 6.25 6.25c0 3.241-2.467 5.906-5.625 6.219zM10 2.5c-2.761 0-5 2.239-5 5 0 2.55 1.909 4.654 4.375 4.961v-2.202l-2.317-2.317c-0.244-0.244-0.244-0.64 0-0.884s0.64-0.244 0.884 0l1.433 1.433v-3.491c0-0.345 0.28-0.625 0.625-0.625s0.625 0.28 0.625 0.625v0.991l0.183-0.183c0.244-0.244 0.64-0.244 0.884 0s0.244 0.64 0 0.884l-1.067 1.067v4.702c2.466-0.308 4.375-2.412 4.375-4.961 0-2.761-2.239-5-5-5z"></path>
</svg>
