<!-- Generated by IcoMoon.io -->
<svg version="1.1" xmlns="http://www.w3.org/2000/svg" width="32" height="32" viewBox="0 0 32 32">
<title>tree</title>
<path d="M17 21.951v6.049h2c0.552 0 1 0.448 1 1s-0.448 1-1 1h-6c-0.552 0-1-0.448-1-1s0.448-1 1-1h2v-6.049c-5.053-0.502-9-4.765-9-9.951 0-5.523 4.477-10 10-10s10 4.477 10 10c0 5.185-3.947 9.449-9 9.951zM16 4c-4.418 0-8 3.582-8 8 0 4.080 3.054 7.446 7 7.938v-3.524l-3.707-3.707c-0.39-0.39-0.39-1.024 0-1.414s1.024-0.39 1.414 0l2.293 2.293v-5.586c0-0.552 0.448-1 1-1s1 0.448 1 1v1.586l0.293-0.293c0.39-0.391 1.024-0.391 1.414 0s0.39 1.024 0 1.414l-1.707 1.707v7.524c3.946-0.492 7-3.858 7-7.938 0-4.418-3.582-8-8-8z"></path>
</svg>
