<!-- Generated by IcoMoon.io -->
<svg version="1.1" xmlns="http://www.w3.org/2000/svg" width="32" height="32" viewBox="0 0 32 32">
<title>truck-cab</title>
<path d="M23 11c0-0.552-0.448-1-1-1s-1 0.448-1 1v5h5c0.552 0 1-0.448 1-1s-0.448-1-1-1h-3v-3z"></path>
<path d="M14.874 23c-0.444 1.725-2.010 3-3.874 3-1.195 0-2.267-0.524-3-1.354-0.733 0.83-1.805 1.354-3 1.354-2.209 0-4-1.791-4-4s1.791-4 4-4c1.195 0 2.267 0.524 3 1.354 0.733-0.83 1.805-1.354 3-1.354 1.864 0 3.43 1.275 3.874 3h2.126v-10c0-2.209 1.791-4 4-4h3.757c1.061 0 2.078 0.421 2.828 1.172l1.243 1.243c0.75 0.75 1.172 1.768 1.172 2.828v6.757c0 1.9-1.325 3.491-3.101 3.899-0.408 1.776-1.998 3.101-3.899 3.101-1.864 0-3.43-1.275-3.874-3h-4.252zM21 9c-1.105 0-2 0.895-2 2v10h0.126c0.444-1.725 2.010-3 3.874-3 1.8 0 3.321 1.188 3.824 2.823 0.694-0.314 1.176-1.012 1.176-1.823v-6.757c0-0.53-0.211-1.039-0.586-1.414l-1.243-1.243c-0.375-0.375-0.884-0.586-1.414-0.586h-3.757zM5 20c-1.105 0-2 0.895-2 2s0.895 2 2 2c1.105 0 2-0.895 2-2s-0.895-2-2-2zM11 24c1.105 0 2-0.895 2-2s-0.895-2-2-2c-1.105 0-2 0.895-2 2s0.895 2 2 2zM21 22c0 1.105 0.895 2 2 2s2-0.895 2-2c0-1.105-0.895-2-2-2s-2 0.895-2 2z"></path>
</svg>
