<!-- Generated by IcoMoon.io -->
<svg version="1.1" xmlns="http://www.w3.org/2000/svg" width="20" height="20" viewBox="0 0 20 20">
<title>truck-small</title>
<path d="M15.546 15c-0.278 1.078-1.256 1.875-2.421 1.875s-2.144-0.797-2.421-1.875h-2.658c-0.278 1.078-1.256 1.875-2.421 1.875s-2.144-0.797-2.421-1.875h-1.954v-9.375c0-1.381 1.119-2.5 2.5-2.5h7.5c1.381 0 2.5 1.119 2.5 2.5v1.25h0.592c0.568 0 1.118 0.193 1.562 0.548l1.908 1.526c0.593 0.474 0.938 1.193 0.938 1.952v1.599c0 1.381-1.119 2.5-2.5 2.5h-0.704zM3.75 4.375c-0.69 0-1.25 0.56-1.25 1.25v8.125h0.704c0.278-1.078 1.256-1.875 2.421-1.875s2.144 0.797 2.421 1.875h2.658c0.226-0.878 0.918-1.57 1.796-1.796v-6.329c0-0.69-0.56-1.25-1.25-1.25h-7.5zM13.75 11.954c0.878 0.226 1.57 0.918 1.796 1.796h0.704c0.69 0 1.25-0.56 1.25-1.25v-1.599c0-0.38-0.173-0.739-0.469-0.976l-1.908-1.526c-0.222-0.177-0.497-0.274-0.781-0.274h-0.592v3.829zM5.625 13.125c-0.69 0-1.25 0.56-1.25 1.25s0.56 1.25 1.25 1.25c0.69 0 1.25-0.56 1.25-1.25s-0.56-1.25-1.25-1.25zM11.875 14.375c0 0.69 0.56 1.25 1.25 1.25s1.25-0.56 1.25-1.25c0-0.69-0.56-1.25-1.25-1.25s-1.25 0.56-1.25 1.25z"></path>
</svg>
