<!-- Generated by IcoMoon.io -->
<svg version="1.1" xmlns="http://www.w3.org/2000/svg" width="20" height="20" viewBox="0 0 20 20">
<title>truck-cab</title>
<path d="M14.375 6.875c0-0.345-0.28-0.625-0.625-0.625s-0.625 0.28-0.625 0.625v3.125h3.125c0.345 0 0.625-0.28 0.625-0.625s-0.28-0.625-0.625-0.625h-1.875v-1.875z"></path>
<path d="M9.296 14.375c-0.278 1.078-1.256 1.875-2.421 1.875-0.747 0-1.417-0.327-1.875-0.846-0.458 0.519-1.128 0.846-1.875 0.846-1.381 0-2.5-1.119-2.5-2.5s1.119-2.5 2.5-2.5c0.747 0 1.417 0.327 1.875 0.846 0.458-0.519 1.128-0.846 1.875-0.846 1.165 0 2.144 0.797 2.421 1.875h1.329v-6.25c0-1.381 1.119-2.5 2.5-2.5h2.348c0.663 0 1.299 0.263 1.768 0.732l0.777 0.777c0.469 0.469 0.732 1.105 0.732 1.768v4.223c0 1.188-0.828 2.182-1.938 2.437-0.255 1.11-1.249 1.938-2.437 1.938-1.165 0-2.144-0.797-2.421-1.875h-2.658zM13.125 5.625c-0.69 0-1.25 0.56-1.25 1.25v6.25h0.079c0.278-1.078 1.256-1.875 2.421-1.875 1.125 0 2.076 0.743 2.39 1.764 0.433-0.196 0.735-0.633 0.735-1.139v-4.223c0-0.332-0.132-0.649-0.366-0.884l-0.777-0.777c-0.234-0.234-0.552-0.366-0.884-0.366h-2.348zM3.125 12.5c-0.69 0-1.25 0.56-1.25 1.25s0.56 1.25 1.25 1.25c0.69 0 1.25-0.56 1.25-1.25s-0.56-1.25-1.25-1.25zM6.875 15c0.69 0 1.25-0.56 1.25-1.25s-0.56-1.25-1.25-1.25c-0.69 0-1.25 0.56-1.25 1.25s0.56 1.25 1.25 1.25zM13.125 13.75c0 0.69 0.56 1.25 1.25 1.25s1.25-0.56 1.25-1.25c0-0.69-0.56-1.25-1.25-1.25s-1.25 0.56-1.25 1.25z"></path>
</svg>
