<!-- Generated by IcoMoon.io -->
<svg version="1.1" xmlns="http://www.w3.org/2000/svg" width="20" height="20" viewBox="0 0 20 20">
<title>tshirt</title>
<path d="M4.88 1.875h3.245v0.625c0 1.030 0.845 1.875 1.875 1.875s1.875-0.845 1.875-1.875v-0.625h3.245l3.63 1.452v4.798h-2.938v7.5c0 1.408-1.092 2.5-2.5 2.5h-6.687c-1.408 0-2.5-1.092-2.5-2.5v-7.5h-2.875v-4.798l3.63-1.452zM5.12 3.125l-2.62 1.048v2.702h2.875v8.75c0 0.717 0.533 1.25 1.25 1.25h6.687c0.717 0 1.25-0.533 1.25-1.25v-8.75h2.937v-2.702l-2.62-1.048h-1.818c-0.291 1.423-1.556 2.5-3.062 2.5s-2.771-1.077-3.062-2.5h-1.818z"></path>
</svg>
