<!-- Generated by IcoMoon.io -->
<svg version="1.1" xmlns="http://www.w3.org/2000/svg" width="20" height="20" viewBox="0 0 20 20">
<title>tune</title>
<path d="M4.375 3.125c0.345 0 0.625 0.28 0.625 0.625v3.829c1.078 0.278 1.875 1.256 1.875 2.421s-0.797 2.144-1.875 2.421v3.829c0 0.345-0.28 0.625-0.625 0.625s-0.625-0.28-0.625-0.625v-3.829c-1.078-0.278-1.875-1.256-1.875-2.421s0.797-2.144 1.875-2.421v-3.829c0-0.345 0.28-0.625 0.625-0.625zM4.375 11.25c0.69 0 1.25-0.56 1.25-1.25s-0.56-1.25-1.25-1.25c-0.69 0-1.25 0.56-1.25 1.25s0.56 1.25 1.25 1.25z"></path>
<path d="M10 3.125c-0.345 0-0.625 0.28-0.625 0.625v6.329c-1.078 0.278-1.875 1.256-1.875 2.421s0.797 2.144 1.875 2.421v1.329c0 0.345 0.28 0.625 0.625 0.625s0.625-0.28 0.625-0.625v-1.329c1.078-0.278 1.875-1.256 1.875-2.421s-0.797-2.144-1.875-2.421v-6.329c0-0.345-0.28-0.625-0.625-0.625zM11.25 12.5c0 0.69-0.56 1.25-1.25 1.25s-1.25-0.56-1.25-1.25c0-0.69 0.56-1.25 1.25-1.25s1.25 0.56 1.25 1.25z"></path>
<path d="M16.25 3.75c0-0.345-0.28-0.625-0.625-0.625s-0.625 0.28-0.625 0.625v2.579c-1.078 0.278-1.875 1.256-1.875 2.421s0.797 2.144 1.875 2.421v5.079c0 0.345 0.28 0.625 0.625 0.625s0.625-0.28 0.625-0.625v-5.079c1.078-0.278 1.875-1.256 1.875-2.421s-0.797-2.144-1.875-2.421v-2.579zM15.625 10c-0.69 0-1.25-0.56-1.25-1.25s0.56-1.25 1.25-1.25c0.69 0 1.25 0.56 1.25 1.25s-0.56 1.25-1.25 1.25z"></path>
</svg>
