<!-- Generated by IcoMoon.io -->
<svg version="1.1" xmlns="http://www.w3.org/2000/svg" width="32" height="32" viewBox="0 0 32 32">
<title>twitter</title>
<path d="M30.67 6.59c-1.098 0.491-2.265 0.811-3.46 0.95 1.257-0.751 2.196-1.935 2.64-3.33-1.191 0.707-2.492 1.207-3.85 1.48-0.823-0.879-1.89-1.489-3.064-1.753s-2.401-0.169-3.52 0.274-2.080 1.211-2.757 2.206c-0.677 0.995-1.039 2.171-1.039 3.374-0.003 0.462 0.051 0.922 0.16 1.37-2.393-0.115-4.736-0.735-6.872-1.819s-4.021-2.608-5.528-4.471c-0.765 1.32-0.999 2.882-0.653 4.368s1.244 2.785 2.513 3.632c-0.957-0.036-1.892-0.297-2.73-0.76v0.080c-0.004 1.391 0.476 2.74 1.357 3.816s2.109 1.813 3.473 2.084c-0.516 0.136-1.047 0.207-1.58 0.21-0.383-0.001-0.764-0.038-1.14-0.11 0.383 1.196 1.131 2.241 2.139 2.989s2.226 1.161 3.481 1.181c-2.127 1.679-4.76 2.588-7.47 2.58-0.481-0.001-0.962-0.028-1.44-0.080 2.753 1.77 5.958 2.707 9.23 2.7 11.070 0 17.12-9.17 17.12-17.12v-0.78c1.18-0.847 2.196-1.9 3-3.11l-0.010 0.040z"></path>
</svg>
