<!-- Generated by IcoMoon.io -->
<svg version="1.1" xmlns="http://www.w3.org/2000/svg" width="20" height="20" viewBox="0 0 20 20">
<title>twitter</title>
<path d="M19.169 4.119c-0.686 0.307-1.416 0.507-2.163 0.594 0.786-0.469 1.372-1.209 1.65-2.081-0.744 0.442-1.558 0.755-2.406 0.925-0.514-0.549-1.181-0.931-1.915-1.096s-1.5-0.105-2.2 0.171-1.3 0.757-1.723 1.379c-0.423 0.622-0.649 1.357-0.649 2.109-0.002 0.288 0.032 0.576 0.1 0.856-1.496-0.072-2.96-0.46-4.295-1.137s-2.513-1.63-3.455-2.794c-0.478 0.825-0.624 1.801-0.408 2.73s0.778 1.741 1.571 2.27c-0.598-0.023-1.183-0.185-1.706-0.475v0.050c-0.002 0.869 0.298 1.712 0.848 2.385s1.318 1.133 2.17 1.303c-0.322 0.085-0.654 0.129-0.987 0.131-0.239-0.001-0.478-0.024-0.712-0.069 0.239 0.747 0.707 1.401 1.337 1.868s1.391 0.726 2.176 0.738c-1.33 1.049-2.975 1.618-4.669 1.612-0.301-0.001-0.601-0.017-0.9-0.050 1.72 1.106 3.723 1.692 5.769 1.688 6.919 0 10.7-5.731 10.7-10.7v-0.487c0.738-0.529 1.373-1.188 1.875-1.944l-0.006 0.025z"></path>
</svg>
