<!-- Generated by IcoMoon.io -->
<svg version="1.1" xmlns="http://www.w3.org/2000/svg" width="20" height="20" viewBox="0 0 20 20">
<title>umbrella</title>
<path d="M10 1.25c0.345 0 0.625 0.28 0.625 0.625v0.649c4.181 0.322 7.5 3.841 7.5 8.101v0.625h-7.5v5c0 0.717 0.533 1.25 1.25 1.25s1.25-0.533 1.25-1.25v-0.625c0-0.345 0.28-0.625 0.625-0.625s0.625 0.28 0.625 0.625v0.625c0 1.408-1.092 2.5-2.5 2.5s-2.5-1.092-2.5-2.5v-5h-7.5v-0.625c0-4.26 3.319-7.779 7.5-8.101v-0.649c0-0.345 0.28-0.625 0.625-0.625zM16.847 10c-0.319-3.49-3.277-6.25-6.847-6.25s-6.528 2.76-6.847 6.25h13.693z"></path>
</svg>
