<!-- Generated by IcoMoon.io -->
<svg version="1.1" xmlns="http://www.w3.org/2000/svg" width="32" height="32" viewBox="0 0 32 32">
<title>unlock</title>
<path d="M16 18.073c-1.105 0-2 0.895-2 2 0 0.74 0.402 1.387 1 1.732v3.268c0 0.552 0.448 1 1 1s1-0.448 1-1v-3.268c0.598-0.346 1-0.992 1-1.732 0-1.105-0.895-2-2-2z"></path>
<path d="M13.559 4.061c2.572-0.415 5.044 1.334 5.453 3.872 0.088 0.545 0.601 0.916 1.146 0.828s0.916-0.601 0.828-1.146c-0.591-3.662-4.118-6.113-7.746-5.528-3.662 0.591-6.113 4.118-5.528 7.746l0.755 4.531c-1.465 0.587-2.468 2.003-2.468 3.709v8c0 2.252 1.748 4 4 4h12c2.252 0 4-1.748 4-4v-8c0-2.252-1.748-4-4-4h-11.553l-0.76-4.562c-0.413-2.571 1.335-5.042 3.872-5.451zM8 18.073c0-1.148 0.852-2 2-2h12c1.148 0 2 0.852 2 2v8c0 1.148-0.852 2-2 2h-12c-1.148 0-2-0.852-2-2v-8z"></path>
</svg>
