<!-- Generated by IcoMoon.io -->
<svg version="1.1" xmlns="http://www.w3.org/2000/svg" width="20" height="20" viewBox="0 0 20 20">
<title>unlock</title>
<path d="M10 11.296c-0.69 0-1.25 0.56-1.25 1.25 0 0.463 0.251 0.867 0.625 1.083v2.042c0 0.345 0.28 0.625 0.625 0.625s0.625-0.28 0.625-0.625v-2.042c0.374-0.216 0.625-0.62 0.625-1.083 0-0.69-0.56-1.25-1.25-1.25z"></path>
<path d="M8.474 2.538c1.607-0.259 3.153 0.834 3.408 2.42 0.055 0.341 0.376 0.572 0.717 0.518s0.572-0.376 0.518-0.717c-0.369-2.289-2.574-3.821-4.842-3.455-2.289 0.369-3.821 2.574-3.455 4.842l0.472 2.832c-0.916 0.367-1.542 1.252-1.542 2.318v5c0 1.408 1.092 2.5 2.5 2.5h7.5c1.408 0 2.5-1.092 2.5-2.5v-5c0-1.408-1.092-2.5-2.5-2.5h-7.221l-0.475-2.851c-0.258-1.607 0.835-3.151 2.42-3.407zM5 11.296c0-0.717 0.533-1.25 1.25-1.25h7.5c0.717 0 1.25 0.533 1.25 1.25v5c0 0.717-0.533 1.25-1.25 1.25h-7.5c-0.717 0-1.25-0.533-1.25-1.25v-5z"></path>
</svg>
