<!-- Generated by IcoMoon.io -->
<svg version="1.1" xmlns="http://www.w3.org/2000/svg" width="20" height="20" viewBox="0 0 20 20">
<title>up-square</title>
<path d="M10.448 5.19l4.369 4.369c0.244 0.244 0.244 0.64 0 0.884s-0.64 0.244-0.884 0l-3.308-3.308v7.241c0 0.345-0.28 0.625-0.625 0.625s-0.625-0.28-0.625-0.625v-7.241l-3.308 3.308c-0.244 0.244-0.64 0.244-0.884 0s-0.244-0.64 0-0.884l4.369-4.369c0.004-0.004 0.009-0.009 0.013-0.013l0.435-0.435 0.435 0.435c0.004 0.004 0.009 0.009 0.013 0.013z"></path>
<path d="M1.25 3.75c0-1.408 1.092-2.5 2.5-2.5h12.5c1.408 0 2.5 1.092 2.5 2.5v12.5c0 1.408-1.092 2.5-2.5 2.5h-12.5c-1.408 0-2.5-1.092-2.5-2.5v-12.5zM3.75 2.5c-0.717 0-1.25 0.533-1.25 1.25v12.5c0 0.717 0.533 1.25 1.25 1.25h12.5c0.717 0 1.25-0.533 1.25-1.25v-12.5c0-0.717-0.533-1.25-1.25-1.25h-12.5z"></path>
</svg>
