<!-- Generated by IcoMoon.io -->
<svg version="1.1" xmlns="http://www.w3.org/2000/svg" width="20" height="20" viewBox="0 0 20 20">
<title>utf</title>
<path d="M17.2 0.637h-15.713c-0.173 0-0.339 0.069-0.462 0.191s-0.191 0.289-0.191 0.462c0 0.173 0.069 0.339 0.191 0.462s0.289 0.191 0.462 0.191h15.713c0.087-0.004 0.175 0.009 0.256 0.041s0.156 0.080 0.218 0.141c0.062 0.062 0.11 0.136 0.141 0.218s0.045 0.169 0.041 0.256v14.375c0.004 0.087-0.009 0.175-0.041 0.256s-0.080 0.156-0.141 0.218c-0.062 0.062-0.136 0.11-0.218 0.141s-0.169 0.045-0.256 0.041h-14.375c-0.085 0-0.169-0.017-0.247-0.050s-0.148-0.082-0.207-0.144c-0.058-0.061-0.104-0.134-0.133-0.213s-0.043-0.164-0.038-0.249v-11.75c0-0.166 0.066-0.325 0.183-0.442s0.276-0.183 0.442-0.183h5.862c0.174 0 0.341-0.069 0.464-0.192s0.192-0.29 0.192-0.464c0-0.174-0.069-0.341-0.192-0.464s-0.29-0.192-0.464-0.192h-5.894c-0.516 0.002-1.010 0.205-1.377 0.568s-0.577 0.854-0.585 1.37v11.781c0 0.521 0.207 1.021 0.574 1.39s0.867 0.577 1.388 0.579h14.406c0.258 0 0.514-0.051 0.752-0.15s0.455-0.244 0.637-0.427c0.182-0.183 0.327-0.4 0.425-0.639s0.148-0.495 0.148-0.753v-14.375c0.001-0.258-0.049-0.514-0.148-0.753s-0.243-0.456-0.425-0.639-0.399-0.328-0.637-0.427c-0.238-0.099-0.494-0.15-0.752-0.15v-0.025zM8.031 15.012c-0.174-0.001-0.34-0.071-0.463-0.194l-2.619-2.588c-0.123-0.123-0.192-0.289-0.192-0.462s0.069-0.34 0.192-0.462c0.123-0.123 0.289-0.192 0.462-0.192s0.34 0.069 0.463 0.192l2.156 2.156 6.088-6.081c0.123-0.123 0.289-0.192 0.462-0.192s0.34 0.069 0.462 0.192c0.123 0.123 0.192 0.289 0.192 0.463s-0.069 0.34-0.192 0.463l-6.55 6.544c-0.060 0.063-0.131 0.112-0.211 0.145s-0.165 0.050-0.252 0.048v-0.031z"></path>
</svg>
