<!-- Generated by IcoMoon.io -->
<svg version="1.1" xmlns="http://www.w3.org/2000/svg" width="20" height="20" viewBox="0 0 20 20">
<title>van</title>
<path d="M10 6.25c0-0.345-0.28-0.625-0.625-0.625s-0.625 0.28-0.625 0.625v3.75h3.125c0.345 0 0.625-0.28 0.625-0.625s-0.28-0.625-0.625-0.625h-1.875v-2.5z"></path>
<path d="M16.875 14.375c1.381 0 2.5-1.119 2.5-2.5v-1.036c0-1.147-0.781-2.147-1.894-2.425l-3.382-0.846-2.432-2.919c-0.475-0.57-1.179-0.9-1.921-0.9h-6.622c-1.381 0-2.5 1.119-2.5 2.5v8.125h1.954c0.278 1.078 1.256 1.875 2.421 1.875s2.144-0.797 2.421-1.875h4.532c0.278 1.078 1.256 1.875 2.421 1.875s2.144-0.797 2.421-1.875h0.079zM1.875 6.25c0-0.69 0.56-1.25 1.25-1.25h6.622c0.371 0 0.723 0.165 0.96 0.45l2.693 3.232 3.778 0.944c0.556 0.139 0.947 0.639 0.947 1.213v1.036c0 0.69-0.56 1.25-1.25 1.25h-0.079c-0.278-1.078-1.256-1.875-2.421-1.875s-2.144 0.797-2.421 1.875h-4.532c-0.278-1.078-1.256-1.875-2.421-1.875s-2.144 0.797-2.421 1.875h-0.704v-6.875zM3.75 13.75c0-0.69 0.56-1.25 1.25-1.25s1.25 0.56 1.25 1.25c0 0.69-0.56 1.25-1.25 1.25s-1.25-0.56-1.25-1.25zM14.375 12.5c0.69 0 1.25 0.56 1.25 1.25s-0.56 1.25-1.25 1.25c-0.69 0-1.25-0.56-1.25-1.25s0.56-1.25 1.25-1.25z"></path>
</svg>
