<!-- Generated by IcoMoon.io -->
<svg version="1.1" xmlns="http://www.w3.org/2000/svg" width="32" height="32" viewBox="0 0 32 32">
<title>van</title>
<path d="M16 10c0-0.552-0.448-1-1-1s-1 0.448-1 1v6h5c0.552 0 1-0.448 1-1s-0.448-1-1-1h-3v-4z"></path>
<path d="M27 23c2.209 0 4-1.791 4-4v-1.658c0-1.835-1.249-3.435-3.030-3.88l-5.411-1.353-3.891-4.67c-0.76-0.912-1.886-1.439-3.073-1.439h-10.595c-2.209 0-4 1.791-4 4v13h3.126c0.444 1.725 2.010 3 3.874 3s3.43-1.275 3.874-3h7.252c0.444 1.725 2.010 3 3.874 3s3.43-1.275 3.874-3h0.126zM3 10c0-1.105 0.895-2 2-2h10.595c0.594 0 1.156 0.264 1.536 0.72l4.309 5.171 6.044 1.511c0.89 0.223 1.515 1.023 1.515 1.94v1.658c0 1.105-0.895 2-2 2h-0.126c-0.444-1.725-2.010-3-3.874-3s-3.43 1.275-3.874 3h-7.252c-0.444-1.725-2.010-3-3.874-3s-3.43 1.275-3.874 3h-1.126v-11zM6 22c0-1.105 0.895-2 2-2s2 0.895 2 2c0 1.105-0.895 2-2 2s-2-0.895-2-2zM23 20c1.105 0 2 0.895 2 2s-0.895 2-2 2c-1.105 0-2-0.895-2-2s0.895-2 2-2z"></path>
</svg>
