<!-- Generated by IcoMoon.io -->
<svg version="1.1" xmlns="http://www.w3.org/2000/svg" width="20" height="20" viewBox="0 0 20 20">
<title>vector</title>
<path d="M7.736 7.936c0.399 0.85 1.263 1.439 2.264 1.439 1 0 1.862-0.587 2.262-1.434 1.297 0.574 2.35 1.602 2.926 2.92-0.85 0.399-1.439 1.263-1.439 2.264 0 1.381 1.119 2.5 2.5 2.5s2.5-1.119 2.5-2.5c0-1.315-1.015-2.392-2.304-2.492-0.498-1.288-1.359-2.362-2.443-3.133h2.798c0.172 0.192 0.421 0.313 0.699 0.313 0.518 0 0.938-0.42 0.938-0.938s-0.42-0.938-0.938-0.938c-0.278 0-0.527 0.121-0.699 0.313h-4.38c-0.278-1.078-1.256-1.875-2.421-1.875s-2.144 0.797-2.421 1.875h-4.38c-0.172-0.192-0.421-0.313-0.699-0.313-0.518 0-0.938 0.42-0.938 0.938s0.42 0.938 0.938 0.938c0.278 0 0.527-0.121 0.699-0.313h2.789c-1.095 0.785-1.936 1.876-2.43 3.132-1.291 0.098-2.308 1.177-2.308 2.493 0 1.381 1.119 2.5 2.5 2.5s2.5-1.119 2.5-2.5c0-1-0.587-1.862-1.434-2.262 0.574-1.297 1.602-2.35 2.92-2.926zM8.75 6.875c0-0.69 0.56-1.25 1.25-1.25s1.25 0.56 1.25 1.25c0 0.69-0.56 1.25-1.25 1.25s-1.25-0.56-1.25-1.25zM3.75 11.875c0.69 0 1.25 0.56 1.25 1.25s-0.56 1.25-1.25 1.25c-0.69 0-1.25-0.56-1.25-1.25s0.56-1.25 1.25-1.25zM15 13.125c0-0.69 0.56-1.25 1.25-1.25s1.25 0.56 1.25 1.25c0 0.69-0.56 1.25-1.25 1.25s-1.25-0.56-1.25-1.25z"></path>
</svg>
