<!-- Generated by IcoMoon.io -->
<svg version="1.1" xmlns="http://www.w3.org/2000/svg" width="20" height="20" viewBox="0 0 20 20">
<title>vehicle</title>
<path d="M7.5 10c-0.345 0-0.625 0.28-0.625 0.625v1.875c0 0.345 0.28 0.625 0.625 0.625h5c0.345 0 0.625-0.28 0.625-0.625v-1.875c0-0.345-0.28-0.625-0.625-0.625h-5zM11.875 11.875h-3.75v-0.625h3.75v0.625z"></path>
<path d="M15.313 12.5c0.518 0 0.938-0.42 0.938-0.938s-0.42-0.938-0.938-0.938c-0.518 0-0.938 0.42-0.938 0.938s0.42 0.938 0.938 0.938z"></path>
<path d="M5.625 11.563c0 0.518-0.42 0.938-0.938 0.938s-0.938-0.42-0.938-0.938c0-0.518 0.42-0.938 0.938-0.938s0.938 0.42 0.938 0.938z"></path>
<path d="M6.563 1.25c-1.169 0-2.241 0.832-2.488 2.065l-0.003 0.016-0.614 4.185c-1.264 0.139-2.208 1.175-2.208 2.484v3.125c0 1.191 0.782 2.156 1.875 2.425v1.95c0 0.329 0.113 0.653 0.355 0.895s0.566 0.355 0.895 0.355h1.875c0.329 0 0.653-0.113 0.895-0.355s0.355-0.566 0.355-0.895v-1.875h5v1.875c0 0.329 0.113 0.653 0.355 0.895s0.566 0.355 0.895 0.355h1.875c0.329 0 0.653-0.113 0.895-0.355s0.355-0.566 0.355-0.895v-1.95c1.093-0.269 1.875-1.234 1.875-2.425v-3.125c0-1.311-0.947-2.348-2.215-2.485l-0.667-4.169c-0.174-1.27-1.273-2.096-2.431-2.096h-6.875zM4.54 8.75l0.763-5.204c0.134-0.634 0.683-1.046 1.259-1.046h6.875c0.589 0 1.113 0.419 1.193 1.020l0.001 0.008 0.836 5.222h0.783c0.717 0 1.25 0.533 1.25 1.25v3.125c0 0.717-0.533 1.25-1.25 1.25h-0.625v3.125h-1.875v-3.125h-7.5v3.125h-1.875v-3.125h-0.625c-0.717 0-1.25-0.533-1.25-1.25v-3.125c0-0.717 0.533-1.25 1.25-1.25h0.79z"></path>
</svg>
