<!-- Generated by IcoMoon.io -->
<svg version="1.1" xmlns="http://www.w3.org/2000/svg" width="32" height="32" viewBox="0 0 32 32">
<title>view-table</title>
<path d="M4 4c-0.527 0-1.044 0.18-1.432 0.568s-0.568 0.905-0.568 1.432v20c0 0.527 0.18 1.044 0.568 1.432s0.905 0.568 1.432 0.568h24c0.527 0 1.044-0.18 1.432-0.568s0.568-0.905 0.568-1.432v-20c0-0.527-0.18-1.044-0.568-1.432s-0.905-0.568-1.432-0.568h-24zM4 11v-5h8v5h-8zM22 26v-3h6v3h-6zM20 23v3h-6v-3h6zM22 21v-3h6v3h-6zM20 18v3h-6v-3h6zM22 16v-3h6v3h-6zM20 13v3h-6v-3h6zM22 11v-5h6v5h-6zM20 6v5h-6v-5h6zM4 13h8v3h-8v-3zM4 18h8v3h-8v-3zM4 23h8v3h-8v-3z"></path>
</svg>
