<!-- Generated by IcoMoon.io -->
<svg version="1.1" xmlns="http://www.w3.org/2000/svg" width="20" height="20" viewBox="0 0 20 20">
<title>view-single</title>
<path d="M2.855 2.855c0.242-0.242 0.566-0.355 0.895-0.355h12.5c0.329 0 0.653 0.113 0.895 0.355s0.355 0.566 0.355 0.895v5.625c0 0.329-0.113 0.653-0.355 0.895s-0.566 0.355-0.895 0.355h-12.5c-0.33 0-0.653-0.113-0.895-0.355s-0.355-0.566-0.355-0.895v-5.625c0-0.33 0.113-0.653 0.355-0.895zM3.75 3.75v5.625h12.5v-5.625h-12.5z"></path>
<path d="M3.125 13.125c0-0.345 0.28-0.625 0.625-0.625h11.875c0.345 0 0.625 0.28 0.625 0.625s-0.28 0.625-0.625 0.625h-11.875c-0.345 0-0.625-0.28-0.625-0.625z"></path>
<path d="M3.75 15.625c-0.345 0-0.625 0.28-0.625 0.625s0.28 0.625 0.625 0.625h9.375c0.345 0 0.625-0.28 0.625-0.625s-0.28-0.625-0.625-0.625h-9.375z"></path>
</svg>
