<!-- Generated by IcoMoon.io -->
<svg version="1.1" xmlns="http://www.w3.org/2000/svg" width="20" height="20" viewBox="0 0 20 20">
<title>view-list</title>
<path d="M2.5 1.25c-0.33 0-0.653 0.113-0.895 0.355s-0.355 0.566-0.355 0.895v5.625c0 0.329 0.113 0.653 0.355 0.895s0.566 0.355 0.895 0.355h5.625c0.329 0 0.653-0.113 0.895-0.355s0.355-0.566 0.355-0.895v-5.625c0-0.33-0.113-0.653-0.355-0.895s-0.566-0.355-0.895-0.355h-5.625zM2.5 8.125v-5.625h5.625v5.625h-5.625z"></path>
<path d="M11.25 3.125c-0.345 0-0.625 0.28-0.625 0.625s0.28 0.625 0.625 0.625h6.25c0.345 0 0.625-0.28 0.625-0.625s-0.28-0.625-0.625-0.625h-6.25z"></path>
<path d="M10.625 6.875c0-0.345 0.28-0.625 0.625-0.625h3.75c0.345 0 0.625 0.28 0.625 0.625s-0.28 0.625-0.625 0.625h-3.75c-0.345 0-0.625-0.28-0.625-0.625z"></path>
<path d="M2.5 10.625c-0.33 0-0.653 0.113-0.895 0.355s-0.355 0.566-0.355 0.895v5.625c0 0.329 0.113 0.653 0.355 0.895s0.566 0.355 0.895 0.355h5.625c0.329 0 0.653-0.113 0.895-0.355s0.355-0.566 0.355-0.895v-5.625c0-0.329-0.113-0.653-0.355-0.895s-0.566-0.355-0.895-0.355h-5.625zM2.5 17.5v-5.625h5.625v5.625h-5.625z"></path>
<path d="M10.625 13.125c0-0.345 0.28-0.625 0.625-0.625h6.25c0.345 0 0.625 0.28 0.625 0.625s-0.28 0.625-0.625 0.625h-6.25c-0.345 0-0.625-0.28-0.625-0.625z"></path>
<path d="M11.25 15.625c-0.345 0-0.625 0.28-0.625 0.625s0.28 0.625 0.625 0.625h3.75c0.345 0 0.625-0.28 0.625-0.625s-0.28-0.625-0.625-0.625h-3.75z"></path>
</svg>
