<!-- Generated by IcoMoon.io -->
<svg version="1.1" xmlns="http://www.w3.org/2000/svg" width="32" height="32" viewBox="0 0 32 32">
<title>view-thumbs</title>
<path d="M4 2c-0.527 0-1.044 0.18-1.432 0.568s-0.568 0.905-0.568 1.432v9c0 0.527 0.18 1.044 0.568 1.432s0.905 0.568 1.432 0.568h9c0.527 0 1.044-0.18 1.432-0.568s0.568-0.905 0.568-1.432v-9c0-0.527-0.18-1.044-0.568-1.432s-0.905-0.568-1.432-0.568h-9zM4 13v-9h9v9h-9z"></path>
<path d="M19 2c-0.527 0-1.044 0.18-1.432 0.568s-0.568 0.905-0.568 1.432v9c0 0.527 0.18 1.044 0.568 1.432s0.905 0.568 1.432 0.568h9c0.527 0 1.044-0.18 1.432-0.568s0.568-0.905 0.568-1.432v-9c0-0.527-0.18-1.044-0.568-1.432s-0.905-0.568-1.432-0.568h-9zM19 13v-9h9v9h-9z"></path>
<path d="M2.568 17.568c0.388-0.388 0.905-0.568 1.432-0.568h9c0.527 0 1.044 0.18 1.432 0.568s0.568 0.905 0.568 1.432v9c0 0.527-0.18 1.044-0.568 1.432s-0.905 0.568-1.432 0.568h-9c-0.527 0-1.044-0.18-1.432-0.568s-0.568-0.905-0.568-1.432v-9c0-0.527 0.18-1.044 0.568-1.432zM4 19v9h9v-9h-9z"></path>
<path d="M19 17c-0.527 0-1.044 0.18-1.432 0.568s-0.568 0.905-0.568 1.432v9c0 0.527 0.18 1.044 0.568 1.432s0.905 0.568 1.432 0.568h9c0.527 0 1.044-0.18 1.432-0.568s0.568-0.905 0.568-1.432v-9c0-0.527-0.18-1.044-0.568-1.432s-0.905-0.568-1.432-0.568h-9zM19 28v-9h9v9h-9z"></path>
</svg>
