<!-- Generated by IcoMoon.io -->
<svg version="1.1" xmlns="http://www.w3.org/2000/svg" width="20" height="20" viewBox="0 0 20 20">
<title>view-thumbs</title>
<path d="M2.5 1.25c-0.33 0-0.653 0.113-0.895 0.355s-0.355 0.566-0.355 0.895v5.625c0 0.329 0.113 0.653 0.355 0.895s0.566 0.355 0.895 0.355h5.625c0.329 0 0.653-0.113 0.895-0.355s0.355-0.566 0.355-0.895v-5.625c0-0.33-0.113-0.653-0.355-0.895s-0.566-0.355-0.895-0.355h-5.625zM2.5 8.125v-5.625h5.625v5.625h-5.625z"></path>
<path d="M11.875 1.25c-0.329 0-0.653 0.113-0.895 0.355s-0.355 0.566-0.355 0.895v5.625c0 0.329 0.113 0.653 0.355 0.895s0.566 0.355 0.895 0.355h5.625c0.329 0 0.653-0.113 0.895-0.355s0.355-0.566 0.355-0.895v-5.625c0-0.33-0.113-0.653-0.355-0.895s-0.566-0.355-0.895-0.355h-5.625zM11.875 8.125v-5.625h5.625v5.625h-5.625z"></path>
<path d="M1.605 10.98c0.242-0.242 0.566-0.355 0.895-0.355h5.625c0.329 0 0.653 0.113 0.895 0.355s0.355 0.566 0.355 0.895v5.625c0 0.329-0.113 0.653-0.355 0.895s-0.566 0.355-0.895 0.355h-5.625c-0.33 0-0.653-0.113-0.895-0.355s-0.355-0.566-0.355-0.895v-5.625c0-0.329 0.113-0.653 0.355-0.895zM2.5 11.875v5.625h5.625v-5.625h-5.625z"></path>
<path d="M11.875 10.625c-0.329 0-0.653 0.113-0.895 0.355s-0.355 0.566-0.355 0.895v5.625c0 0.329 0.113 0.653 0.355 0.895s0.566 0.355 0.895 0.355h5.625c0.329 0 0.653-0.113 0.895-0.355s0.355-0.566 0.355-0.895v-5.625c0-0.329-0.113-0.653-0.355-0.895s-0.566-0.355-0.895-0.355h-5.625zM11.875 17.5v-5.625h5.625v5.625h-5.625z"></path>
</svg>
