<!-- Generated by IcoMoon.io -->
<svg version="1.1" xmlns="http://www.w3.org/2000/svg" width="20" height="20" viewBox="0 0 20 20">
<title>view-stack</title>
<path d="M3.75 1.25c-0.33 0-0.653 0.113-0.895 0.355s-0.355 0.566-0.355 0.895v5.625c0 0.329 0.113 0.653 0.355 0.895s0.566 0.355 0.895 0.355h12.5c0.329 0 0.653-0.113 0.895-0.355s0.355-0.566 0.355-0.895v-5.625c0-0.33-0.113-0.653-0.355-0.895s-0.566-0.355-0.895-0.355h-12.5zM3.75 8.125v-5.625h12.5v5.625h-12.5z"></path>
<path d="M3.75 10.625c-0.33 0-0.653 0.113-0.895 0.355s-0.355 0.566-0.355 0.895v5.625c0 0.329 0.113 0.653 0.355 0.895s0.566 0.355 0.895 0.355h12.5c0.329 0 0.653-0.113 0.895-0.355s0.355-0.566 0.355-0.895v-5.625c0-0.329-0.113-0.653-0.355-0.895s-0.566-0.355-0.895-0.355h-12.5zM3.75 17.5v-5.625h12.5v5.625h-12.5z"></path>
</svg>
