<!-- Generated by IcoMoon.io -->
<svg version="1.1" xmlns="http://www.w3.org/2000/svg" width="20" height="20" viewBox="0 0 20 20">
<title>view-table</title>
<path d="M2.5 2.5c-0.33 0-0.653 0.113-0.895 0.355s-0.355 0.566-0.355 0.895v12.5c0 0.329 0.113 0.653 0.355 0.895s0.566 0.355 0.895 0.355h15c0.329 0 0.653-0.113 0.895-0.355s0.355-0.566 0.355-0.895v-12.5c0-0.33-0.113-0.653-0.355-0.895s-0.566-0.355-0.895-0.355h-15zM2.5 6.875v-3.125h5v3.125h-5zM13.75 16.25v-1.875h3.75v1.875h-3.75zM12.5 14.375v1.875h-3.75v-1.875h3.75zM13.75 13.125v-1.875h3.75v1.875h-3.75zM12.5 11.25v1.875h-3.75v-1.875h3.75zM13.75 10v-1.875h3.75v1.875h-3.75zM12.5 8.125v1.875h-3.75v-1.875h3.75zM13.75 6.875v-3.125h3.75v3.125h-3.75zM12.5 3.75v3.125h-3.75v-3.125h3.75zM2.5 8.125h5v1.875h-5v-1.875zM2.5 11.25h5v1.875h-5v-1.875zM2.5 14.375h5v1.875h-5v-1.875z"></path>
</svg>
