<!-- Generated by IcoMoon.io -->
<svg version="1.1" xmlns="http://www.w3.org/2000/svg" width="20" height="20" viewBox="0 0 20 20">
<title>view-cards</title>
<path d="M2.5 2.5c-0.33 0-0.653 0.113-0.895 0.355s-0.355 0.566-0.355 0.895v12.5c0 0.329 0.113 0.653 0.355 0.895s0.566 0.355 0.895 0.355h5.625c0.329 0 0.653-0.113 0.895-0.355s0.355-0.566 0.355-0.895v-12.5c0-0.33-0.113-0.653-0.355-0.895s-0.566-0.355-0.895-0.355h-5.625zM2.5 16.25v-12.5h5.625v12.5h-5.625z"></path>
<path d="M11.875 2.5c-0.329 0-0.653 0.113-0.895 0.355s-0.355 0.566-0.355 0.895v12.5c0 0.329 0.113 0.653 0.355 0.895s0.566 0.355 0.895 0.355h5.625c0.329 0 0.653-0.113 0.895-0.355s0.355-0.566 0.355-0.895v-12.5c0-0.33-0.113-0.653-0.355-0.895s-0.566-0.355-0.895-0.355h-5.625zM11.875 16.25v-12.5h5.625v12.5h-5.625z"></path>
</svg>
