<!-- Generated by IcoMoon.io -->
<svg version="1.1" xmlns="http://www.w3.org/2000/svg" width="20" height="20" viewBox="0 0 20 20">
<title>volume-high</title>
<path d="M11.25 1.875v16.505l-5.86-5.127h-1.64c-1.408 0-2.5-1.092-2.5-2.5v-1.25c0-1.408 1.092-2.5 2.5-2.5h1.64l5.86-5.127zM10 4.63l-4.14 3.623h-2.11c-0.717 0-1.25 0.533-1.25 1.25v1.25c0 0.717 0.533 1.25 1.25 1.25h2.11l4.14 3.623v-10.995z"></path>
<path d="M12.683 5.81c0.244-0.244 0.64-0.244 0.884 0 2.373 2.373 2.363 6.263 0.006 8.69-0.241 0.248-0.636 0.253-0.884 0.013s-0.253-0.636-0.013-0.884c1.893-1.949 1.884-5.058 0.006-6.935-0.244-0.244-0.244-0.64 0-0.884z"></path>
<path d="M15.504 3.81c-0.244-0.244-0.64-0.244-0.884 0s-0.244 0.64 0 0.884c3.008 3.008 3.002 7.859 0.004 10.799-0.246 0.242-0.25 0.637-0.009 0.884s0.637 0.25 0.884 0.009c3.502-3.435 3.496-9.084 0.004-12.576z"></path>
</svg>
