<!-- Generated by IcoMoon.io -->
<svg version="1.1" xmlns="http://www.w3.org/2000/svg" width="32" height="32" viewBox="0 0 32 32">
<title>volume-high</title>
<path d="M18 3v26.407l-9.376-8.204h-2.624c-2.252 0-4-1.748-4-4v-2c0-2.252 1.748-4 4-4h2.624l9.376-8.204zM16 7.408l-6.624 5.796h-3.376c-1.148 0-2 0.852-2 2v2c0 1.148 0.852 2 2 2h3.376l6.624 5.796v-17.592z"></path>
<path d="M20.293 9.297c0.39-0.391 1.024-0.391 1.414 0 3.796 3.796 3.782 10.022 0.010 13.904-0.385 0.396-1.018 0.405-1.414 0.020s-0.405-1.018-0.020-1.414c3.029-3.118 3.014-8.092 0.010-11.096-0.39-0.391-0.39-1.024 0-1.414z"></path>
<path d="M24.807 6.097c-0.39-0.391-1.024-0.391-1.414 0s-0.39 1.024 0 1.414c4.813 4.813 4.803 12.575 0.007 17.279-0.394 0.387-0.401 1.020-0.014 1.414s1.020 0.401 1.414 0.014c5.604-5.496 5.594-14.534 0.007-20.121z"></path>
</svg>
