<!-- Generated by IcoMoon.io -->
<svg version="1.1" xmlns="http://www.w3.org/2000/svg" width="20" height="20" viewBox="0 0 20 20">
<title>volume-low</title>
<path d="M11.25 18.38v-16.505l-5.86 5.127h-1.64c-1.408 0-2.5 1.092-2.5 2.5v1.25c0 1.408 1.092 2.5 2.5 2.5h1.64l5.86 5.127zM5.86 8.252l4.14-3.623v10.995l-4.14-3.623h-2.11c-0.717 0-1.25-0.533-1.25-1.25v-1.25c0-0.717 0.533-1.25 1.25-1.25h2.11z"></path>
<path d="M13.567 5.81c-0.244-0.244-0.64-0.244-0.884 0s-0.244 0.64 0 0.884c1.877 1.877 1.887 4.987-0.006 6.935-0.241 0.248-0.235 0.643 0.013 0.884s0.643 0.235 0.884-0.013c2.357-2.426 2.366-6.317-0.006-8.69z"></path>
</svg>
