<!-- Generated by IcoMoon.io -->
<svg version="1.1" xmlns="http://www.w3.org/2000/svg" width="20" height="20" viewBox="0 0 20 20">
<title>volume-mute</title>
<path d="M11.25 1.875v16.505l-5.86-5.127h-1.64c-1.408 0-2.5-1.092-2.5-2.5v-1.25c0-1.408 1.092-2.5 2.5-2.5h1.64l5.86-5.127zM10 4.63l-4.14 3.623h-2.11c-0.717 0-1.25 0.533-1.25 1.25v1.25c0 0.717 0.533 1.25 1.25 1.25h2.11l4.14 3.623v-10.995z"></path>
<path d="M18.567 7.185c0.244 0.244 0.244 0.64 0 0.884l-2.058 2.058 2.058 2.058c0.244 0.244 0.244 0.64 0 0.884s-0.64 0.244-0.884 0l-2.058-2.058-2.058 2.058c-0.244 0.244-0.64 0.244-0.884 0s-0.244-0.64 0-0.884l2.058-2.058-2.058-2.058c-0.244-0.244-0.244-0.64 0-0.884s0.64-0.244 0.884 0l2.058 2.058 2.058-2.058c0.244-0.244 0.64-0.244 0.884 0z"></path>
</svg>
