<!-- Generated by IcoMoon.io -->
<svg version="1.1" xmlns="http://www.w3.org/2000/svg" width="32" height="32" viewBox="0 0 32 32">
<title>wallet</title>
<path d="M24 21c0.552 0 1-0.448 1-1s-0.448-1-1-1c-0.552 0-1 0.448-1 1s0.448 1 1 1z"></path>
<path d="M7.5 3h12.5c0.552 0 1 0.448 1 1s-0.448 1-1 1h-12.5c-1.348 0-2.5 1.152-2.5 2.5v1c0 1.348 1.152 2.5 2.5 2.5h18.5v4h1c2.252 0 4 1.748 4 4v2c0 2.252-1.748 4-4 4h-1c0 2.252-1.748 4-4 4h-15c-2.252 0-4-1.748-4-4v-16c0-0.055 0.004-0.109 0.013-0.162-0.009-0.112-0.013-0.225-0.013-0.338v-1c0-2.452 2.048-4.5 4.5-4.5zM7.5 13c-0.919 0-1.781-0.288-2.5-0.776v12.776c0 1.148 0.852 2 2 2h15c1.148 0 2-0.852 2-2h-1c-2.252 0-4-1.748-4-4v-2c0-2.252 1.748-4 4-4h1v-2h-16.5zM21 19v2c0 1.148 0.852 2 2 2h4c1.148 0 2-0.852 2-2v-2c0-1.148-0.852-2-2-2h-4c-1.148 0-2 0.852-2 2z"></path>
<path d="M8 7c-0.552 0-1 0.448-1 1s0.448 1 1 1h14c0.552 0 1-0.448 1-1s-0.448-1-1-1h-14z"></path>
</svg>
