<!-- Generated by IcoMoon.io -->
<svg version="1.1" xmlns="http://www.w3.org/2000/svg" width="20" height="20" viewBox="0 0 20 20">
<title>wallet</title>
<path d="M15 13.125c0.345 0 0.625-0.28 0.625-0.625s-0.28-0.625-0.625-0.625c-0.345 0-0.625 0.28-0.625 0.625s0.28 0.625 0.625 0.625z"></path>
<path d="M4.688 1.875h7.813c0.345 0 0.625 0.28 0.625 0.625s-0.28 0.625-0.625 0.625h-7.813c-0.842 0-1.563 0.72-1.563 1.563v0.625c0 0.842 0.72 1.563 1.563 1.563h11.563v2.5h0.625c1.408 0 2.5 1.092 2.5 2.5v1.25c0 1.408-1.092 2.5-2.5 2.5h-0.625c0 1.408-1.092 2.5-2.5 2.5h-9.375c-1.408 0-2.5-1.092-2.5-2.5v-10c0-0.034 0.003-0.068 0.008-0.101-0.005-0.070-0.008-0.14-0.008-0.211v-0.625c0-1.533 1.28-2.813 2.813-2.813zM4.688 8.125c-0.574 0-1.113-0.18-1.563-0.485v7.985c0 0.717 0.533 1.25 1.25 1.25h9.375c0.717 0 1.25-0.533 1.25-1.25h-0.625c-1.408 0-2.5-1.092-2.5-2.5v-1.25c0-1.408 1.092-2.5 2.5-2.5h0.625v-1.25h-10.313zM13.125 11.875v1.25c0 0.717 0.533 1.25 1.25 1.25h2.5c0.717 0 1.25-0.533 1.25-1.25v-1.25c0-0.717-0.533-1.25-1.25-1.25h-2.5c-0.717 0-1.25 0.533-1.25 1.25z"></path>
<path d="M5 4.375c-0.345 0-0.625 0.28-0.625 0.625s0.28 0.625 0.625 0.625h8.75c0.345 0 0.625-0.28 0.625-0.625s-0.28-0.625-0.625-0.625h-8.75z"></path>
</svg>
