<!-- Generated by IcoMoon.io -->
<svg version="1.1" xmlns="http://www.w3.org/2000/svg" width="20" height="20" viewBox="0 0 20 20">
<title>warm-food</title>
<path d="M7.321 2.937c0.24-0.244 0.238-0.637-0.004-0.879-0.244-0.244-0.64-0.244-0.884 0-0.331 0.331-0.386 0.737-0.356 1.065 0.026 0.289 0.125 0.583 0.196 0.797l0.009 0.028c0.084 0.253 0.135 0.414 0.146 0.543 0.004 0.040 0.002 0.062 0 0.072-0.24 0.244-0.238 0.637 0.004 0.879 0.244 0.244 0.64 0.244 0.884 0 0.331-0.331 0.386-0.737 0.356-1.065-0.026-0.289-0.125-0.583-0.196-0.797l-0.009-0.028c-0.084-0.253-0.135-0.414-0.146-0.543-0.004-0.040-0.002-0.062-0-0.072z"></path>
<path d="M7.5 9.177c-2.352 0.832-4.166 2.802-4.765 5.239-0.847 0.18-1.485 0.935-1.485 1.834 0 1.033 0.842 1.875 1.875 1.875h13.75c1.033 0 1.875-0.842 1.875-1.875 0-0.899-0.638-1.654-1.485-1.834-0.599-2.437-2.413-4.407-4.765-5.239v-0.427c0-1.033-0.842-1.875-1.875-1.875h-1.25c-1.033 0-1.875 0.842-1.875 1.875v0.427zM4.043 14.375c0.779-2.524 3.154-4.375 5.957-4.375s5.179 1.851 5.957 4.375h-11.915zM3.239 15.625c0.008 0 0.015 0 0.023 0h13.476c0.008 0 0.015 0 0.023 0h0.114c0.342 0 0.625 0.283 0.625 0.625s-0.283 0.625-0.625 0.625h-13.75c-0.342 0-0.625-0.283-0.625-0.625s0.283-0.625 0.625-0.625h0.114zM8.75 8.854v-0.104c0-0.342 0.283-0.625 0.625-0.625h1.25c0.342 0 0.625 0.283 0.625 0.625v0.104c-0.407-0.068-0.824-0.104-1.25-0.104s-0.843 0.036-1.25 0.104z"></path>
<path d="M10.442 2.058c0.243 0.243 0.244 0.635 0.004 0.879-0.002 0.010-0.003 0.033 0 0.072 0.012 0.128 0.062 0.289 0.146 0.543l0.009 0.028c0.071 0.214 0.17 0.508 0.196 0.797 0.030 0.328-0.025 0.734-0.356 1.065-0.244 0.244-0.64 0.244-0.884 0-0.243-0.243-0.244-0.635-0.004-0.879 0.002-0.010 0.003-0.033-0-0.072-0.012-0.128-0.062-0.289-0.146-0.543l-0.009-0.028c-0.071-0.214-0.17-0.508-0.196-0.797-0.030-0.328 0.025-0.734 0.356-1.065 0.244-0.244 0.64-0.244 0.884 0z"></path>
<path d="M13.571 2.937c0.24-0.244 0.238-0.637-0.004-0.879-0.244-0.244-0.64-0.244-0.884 0-0.331 0.331-0.386 0.737-0.356 1.065 0.026 0.289 0.124 0.583 0.196 0.797l0.009 0.028c0.084 0.253 0.135 0.414 0.146 0.543 0.004 0.040 0.002 0.062 0 0.072-0.24 0.244-0.238 0.637 0.004 0.879 0.244 0.244 0.64 0.244 0.884 0 0.331-0.331 0.386-0.737 0.356-1.065-0.026-0.289-0.125-0.583-0.196-0.797l-0.009-0.028c-0.084-0.253-0.135-0.414-0.146-0.543-0.004-0.040-0.002-0.062-0-0.072z"></path>
</svg>
