<!-- Generated by IcoMoon.io -->
<svg version="1.1" xmlns="http://www.w3.org/2000/svg" width="20" height="20" viewBox="0 0 20 20">
<title>warning</title>
<path d="M10 14.688c0.518 0 0.938-0.42 0.938-0.938s-0.42-0.938-0.938-0.938c-0.518 0-0.938 0.42-0.938 0.938s0.42 0.938 0.938 0.938z"></path>
<path d="M10.625 5.625c0-0.345-0.28-0.625-0.625-0.625s-0.625 0.28-0.625 0.625v5c0 0.345 0.28 0.625 0.625 0.625s0.625-0.28 0.625-0.625v-5z"></path>
<path d="M12.232 3.131c-0.937-1.694-3.412-1.649-4.393-0.015l-6.252 10.754c-1.008 1.687 0.266 3.755 2.163 3.755h12.5c1.897 0 3.171-2.067 2.164-3.754l-6.182-10.741zM8.913 3.756c0.519-0.86 1.787-0.816 2.227-0.017l0.003 0.005 6.196 10.765c0.487 0.812-0.113 1.866-1.089 1.866h-12.5c-0.977 0-1.576-1.054-1.089-1.866l6.252-10.753z"></path>
</svg>
