<!-- Generated by IcoMoon.io -->
<svg version="1.1" xmlns="http://www.w3.org/2000/svg" width="20" height="20" viewBox="0 0 20 20">
<title>watch</title>
<path d="M10.625 6.25c0-0.345-0.28-0.625-0.625-0.625s-0.625 0.28-0.625 0.625v4.063l2.75 2.063c0.276 0.207 0.668 0.151 0.875-0.125s0.151-0.668-0.125-0.875l-2.25-1.688v-3.438z"></path>
<path d="M18.125 10c0-1.033-0.842-1.875-1.875-1.875v-2.5c0-1.408-1.092-2.5-2.5-2.5h-0.075c-0.269-1.093-1.234-1.875-2.425-1.875h-2.5c-1.191 0-2.156 0.782-2.425 1.875h-0.075c-1.408 0-2.5 1.092-2.5 2.5v8.75c0 1.408 1.092 2.5 2.5 2.5h0.075c0.269 1.093 1.234 1.875 2.425 1.875h2.5c1.191 0 2.156-0.782 2.425-1.875h0.075c1.408 0 2.5-1.092 2.5-2.5v-2.5c1.033 0 1.875-0.842 1.875-1.875zM6.25 4.375h7.5c0.717 0 1.25 0.533 1.25 1.25v8.75c0 0.717-0.533 1.25-1.25 1.25h-7.5c-0.717 0-1.25-0.533-1.25-1.25v-8.75c0-0.717 0.533-1.25 1.25-1.25zM16.875 10c0 0.342-0.283 0.625-0.625 0.625v-1.25c0.342 0 0.625 0.283 0.625 0.625zM12.345 16.875c-0.208 0.381-0.609 0.625-1.095 0.625h-2.5c-0.486 0-0.887-0.244-1.095-0.625h4.691zM8.75 2.5h2.5c0.486 0 0.887 0.244 1.095 0.625h-4.691c0.208-0.381 0.609-0.625 1.095-0.625z"></path>
</svg>
