<!-- Generated by IcoMoon.io -->
<svg version="1.1" xmlns="http://www.w3.org/2000/svg" width="20" height="20" viewBox="0 0 20 20">
<title>wave</title>
<path d="M4.817 4.817c0.244-0.244 0.244-0.64 0-0.884s-0.64-0.244-0.884 0c-3.369 3.369-3.369 8.765 0 12.134 0.244 0.244 0.64 0.244 0.884 0s0.244-0.64 0-0.884c-2.881-2.881-2.881-7.485 0-10.366z"></path>
<path d="M7.317 6.433c0.244 0.244 0.244 0.64 0 0.884-1.506 1.506-1.506 3.86 0 5.366 0.244 0.244 0.244 0.64 0 0.884s-0.64 0.244-0.884 0c-1.994-1.994-1.994-5.14 0-7.134 0.244-0.244 0.64-0.244 0.884 0z"></path>
<path d="M8.125 10c0-1.036 0.839-1.875 1.875-1.875s1.875 0.839 1.875 1.875c0 1.036-0.839 1.875-1.875 1.875s-1.875-0.839-1.875-1.875zM10 9.375c-0.345 0-0.625 0.28-0.625 0.625s0.28 0.625 0.625 0.625c0.345 0 0.625-0.28 0.625-0.625s-0.28-0.625-0.625-0.625z"></path>
<path d="M12.683 6.433c0.244-0.244 0.64-0.244 0.884 0 1.994 1.994 1.994 5.14 0 7.134-0.244 0.244-0.64 0.244-0.884 0s-0.244-0.64 0-0.884c1.506-1.506 1.506-3.86 0-5.366-0.244-0.244-0.244-0.64 0-0.884z"></path>
<path d="M16.067 3.933c-0.244-0.244-0.64-0.244-0.884 0s-0.244 0.64 0 0.884c2.881 2.881 2.881 7.485 0 10.366-0.244 0.244-0.244 0.64 0 0.884s0.64 0.244 0.884 0c3.369-3.369 3.369-8.765 0-12.134z"></path>
</svg>
