<!-- Generated by IcoMoon.io -->
<svg version="1.1" xmlns="http://www.w3.org/2000/svg" width="20" height="20" viewBox="0 0 20 20">
<title>way</title>
<path d="M4.169 7.273l0.002-0.002 0.021-0.026c0.014-0.018 0.035-0.043 0.061-0.075 0.052-0.065 0.125-0.157 0.213-0.271 0.175-0.228 0.41-0.543 0.646-0.893 0.235-0.348 0.478-0.741 0.666-1.123 0.177-0.359 0.347-0.793 0.347-1.196 0-1.345-1.092-2.438-2.438-2.438s-2.438 1.092-2.438 2.438c0 0.402 0.171 0.836 0.347 1.196 0.187 0.381 0.431 0.775 0.666 1.123 0.236 0.35 0.471 0.666 0.646 0.893 0.088 0.114 0.161 0.207 0.213 0.271 0.026 0.032 0.046 0.058 0.061 0.075l0.021 0.026 0.002 0.002c0.119 0.143 0.295 0.226 0.481 0.226s0.363-0.083 0.482-0.227zM2.5 3.688c0-0.655 0.533-1.188 1.188-1.188s1.188 0.533 1.188 1.188c0 0.098-0.056 0.312-0.219 0.644-0.152 0.31-0.362 0.651-0.58 0.975-0.133 0.197-0.267 0.384-0.388 0.548-0.121-0.164-0.255-0.351-0.388-0.548-0.219-0.324-0.428-0.665-0.58-0.975-0.163-0.332-0.219-0.546-0.219-0.644z"></path>
<path d="M8.125 3.125c-0.345 0-0.625 0.28-0.625 0.625s0.28 0.625 0.625 0.625h3.75c1.405 0 2.5 1.095 2.5 2.5s-1.095 2.5-2.5 2.5h-4.375c-2.095 0-3.75 1.655-3.75 3.75s1.655 3.75 3.75 3.75h4.375c0.345 0 0.625-0.28 0.625-0.625s-0.28-0.625-0.625-0.625h-4.375c-1.405 0-2.5-1.095-2.5-2.5s1.095-2.5 2.5-2.5h4.375c2.095 0 3.75-1.655 3.75-3.75s-1.655-3.75-3.75-3.75h-3.75z"></path>
<path d="M17.134 16.25l1.433 1.433c0.244 0.244 0.244 0.64 0 0.884s-0.64 0.244-0.884 0l-1.433-1.433-1.433 1.433c-0.244 0.244-0.64 0.244-0.884 0s-0.244-0.64 0-0.884l1.433-1.433-1.433-1.433c-0.244-0.244-0.244-0.64 0-0.884s0.64-0.244 0.884 0l1.433 1.433 1.433-1.433c0.244-0.244 0.64-0.244 0.884 0s0.244 0.64 0 0.884l-1.433 1.433z"></path>
</svg>
