<!-- Generated by IcoMoon.io -->
<svg version="1.1" xmlns="http://www.w3.org/2000/svg" width="32" height="32" viewBox="0 0 32 32">
<title>wireless</title>
<path d="M16 4c-4.817 0-9.324 1.571-12.892 4.194-0.445 0.327-0.54 0.953-0.213 1.398s0.953 0.54 1.398 0.213c3.232-2.376 7.325-3.806 11.708-3.806s8.476 1.429 11.708 3.806c0.445 0.327 1.071 0.232 1.398-0.213s0.232-1.071-0.213-1.398c-3.568-2.624-8.075-4.194-12.892-4.194z"></path>
<path d="M5.99 12.307c2.784-2.142 6.301-3.307 10.010-3.307s7.226 1.166 10.010 3.307c0.438 0.337 0.52 0.965 0.183 1.402s-0.965 0.52-1.402 0.183c-2.416-1.858-5.499-2.893-8.79-2.893s-6.374 1.034-8.79 2.893c-0.438 0.337-1.066 0.255-1.402-0.183s-0.255-1.066 0.183-1.402z"></path>
<path d="M10.085 17.911c1.64-1.184 3.637-1.911 5.915-1.911 2.265 0 4.171 0.718 5.935 1.925 0.456 0.312 1.078 0.195 1.39-0.261s0.195-1.078-0.261-1.39c-2.036-1.393-4.329-2.275-7.065-2.275-2.723 0-5.125 0.874-7.085 2.289-0.448 0.323-0.549 0.948-0.225 1.396s0.948 0.549 1.396 0.225z"></path>
<path d="M16 21c-1.040 0-2.044 0.401-2.927 1.019-0.453 0.317-1.076 0.207-1.393-0.246s-0.207-1.076 0.246-1.393c1.117-0.782 2.514-1.381 4.074-1.381 1.514 0 2.937 0.469 4.125 1.419 0.431 0.345 0.501 0.974 0.156 1.406s-0.974 0.501-1.406 0.156c-0.813-0.65-1.789-0.981-2.875-0.981z"></path>
<path d="M16 27.5c0.828 0 1.5-0.672 1.5-1.5s-0.672-1.5-1.5-1.5c-0.828 0-1.5 0.672-1.5 1.5s0.672 1.5 1.5 1.5z"></path>
</svg>
