<!-- Generated by IcoMoon.io -->
<svg version="1.1" xmlns="http://www.w3.org/2000/svg" width="20" height="20" viewBox="0 0 20 20">
<title>wireless</title>
<path d="M10 2.5c-3.011 0-5.827 0.982-8.058 2.621-0.278 0.204-0.338 0.596-0.133 0.874s0.596 0.338 0.874 0.133c2.020-1.485 4.578-2.379 7.317-2.379s5.297 0.893 7.317 2.379c0.278 0.204 0.669 0.145 0.874-0.133s0.145-0.669-0.133-0.874c-2.23-1.64-5.047-2.621-8.058-2.621z"></path>
<path d="M3.744 7.692c1.74-1.339 3.938-2.067 6.256-2.067s4.516 0.729 6.256 2.067c0.274 0.21 0.325 0.603 0.114 0.876s-0.603 0.325-0.876 0.114c-1.51-1.161-3.437-1.808-5.494-1.808s-3.984 0.646-5.494 1.808c-0.274 0.211-0.666 0.159-0.876-0.114s-0.159-0.666 0.114-0.876z"></path>
<path d="M6.303 11.194c1.025-0.74 2.273-1.194 3.697-1.194 1.415 0 2.607 0.449 3.71 1.203 0.285 0.195 0.674 0.122 0.869-0.163s0.122-0.674-0.163-0.869c-1.273-0.871-2.706-1.422-4.415-1.422-1.702 0-3.203 0.546-4.428 1.431-0.28 0.202-0.343 0.593-0.141 0.873s0.593 0.343 0.873 0.141z"></path>
<path d="M10 13.125c-0.65 0-1.277 0.251-1.829 0.637-0.283 0.198-0.672 0.129-0.87-0.154s-0.129-0.672 0.154-0.87c0.698-0.489 1.571-0.863 2.546-0.863 0.946 0 1.836 0.293 2.578 0.887 0.27 0.216 0.313 0.609 0.098 0.878s-0.609 0.313-0.878 0.098c-0.508-0.406-1.118-0.613-1.797-0.613z"></path>
<path d="M10 17.188c0.518 0 0.938-0.42 0.938-0.938s-0.42-0.938-0.938-0.938c-0.518 0-0.938 0.42-0.938 0.938s0.42 0.938 0.938 0.938z"></path>
</svg>
