<!-- Generated by IcoMoon.io -->
<svg version="1.1" xmlns="http://www.w3.org/2000/svg" width="20" height="20" viewBox="0 0 20 20">
<title>wordpress-operator</title>
<path d="M17.738 4.769c-0.11-0.343-0.347-0.632-0.663-0.806l-6.544-3.125c-0.167-0.074-0.349-0.11-0.531-0.106-0.196-0.001-0.392 0.024-0.581 0.075l-6.537 3.125c-0.158 0.075-0.297 0.186-0.405 0.324s-0.184 0.299-0.22 0.47l-1.631 7.062c-0.028 0.18-0.020 0.364 0.024 0.542s0.123 0.344 0.232 0.49l4.525 5.625c0.265 0.262 0.615 0.422 0.988 0.45h7.212c0.19 0.020 0.381-0.011 0.555-0.090s0.323-0.203 0.432-0.36l4.525-5.625c0.211-0.3 0.303-0.668 0.256-1.031l-1.638-7.019zM10 4.112c1.505-0.002 2.955 0.562 4.063 1.581-0.136-0.010-0.273 0.008-0.402 0.052s-0.247 0.116-0.348 0.209c-0.1 0.093-0.18 0.205-0.235 0.33s-0.084 0.26-0.084 0.397c-0.044 1.444 1.725 1.75 0.769 4.65l-0.788 2.4-2.144-6.3c0-0.1 0-0.156 0.125-0.156h0.625c0.015 0 0.029-0.006 0.040-0.017s0.017-0.025 0.017-0.040v-0.362c0 0 0-0.063-0.056-0.056-1.15 0.050-2.294 0.050-3.425 0-0.008-0.001-0.016-0-0.023 0.002s-0.015 0.006-0.020 0.012c-0.006 0.005-0.011 0.012-0.014 0.019s-0.005 0.015-0.005 0.023v0.362c-0.004 0.008-0.007 0.016-0.007 0.025s0.001 0.018 0.003 0.026 0.008 0.016 0.014 0.022c0.006 0.006 0.013 0.011 0.022 0.015h0.625c0.138 0 0.175 0.050 0.206 0.138l0.875 2.362-1.325 4.006-2.181-6.406c0-0.081 0-0.131 0.081-0.131h0.7c0.015 0 0.029-0.006 0.040-0.017s0.017-0.025 0.017-0.040v-0.362c0 0 0-0.063-0.056-0.056-0.731 0.037-1.462 0.044-2.15 0.050 0.546-0.841 1.293-1.532 2.174-2.010s1.868-0.728 2.87-0.727zM15.281 7.237c0.755 1.397 0.926 3.035 0.477 4.558s-1.484 2.805-2.877 3.567l1.875-5.306c0.334-0.905 0.512-1.86 0.525-2.825v0.006zM12.012 15.775c-1.208 0.433-2.523 0.464-3.75 0.088l1.875-5.3 1.875 5.212zM7.431 15.544c-1.426-0.676-2.529-1.884-3.071-3.366s-0.481-3.117 0.171-4.553l2.9 7.919zM10 3.237c1.36 0 2.689 0.403 3.82 1.159s2.012 1.829 2.532 3.085c0.52 1.256 0.657 2.639 0.391 3.972s-0.92 2.559-1.882 3.52c-0.962 0.962-2.187 1.616-3.52 1.882s-2.716 0.129-3.972-0.391c-1.256-0.52-2.33-1.402-3.085-2.532s-1.159-2.46-1.159-3.82c0-1.823 0.724-3.572 2.014-4.861s3.038-2.014 4.861-2.014z"></path>
</svg>
