<!-- Generated by IcoMoon.io -->
<svg version="1.1" xmlns="http://www.w3.org/2000/svg" width="20" height="20" viewBox="0 0 20 20">
<title>wordpress</title>
<path d="M10.144 10.544l2.437 6.669c-1.54 0.537-3.209 0.581-4.775 0.125l2.337-6.794zM10 1.963c1.823-0.012 3.593 0.616 5 1.775-0.246 0.129-0.453 0.323-0.596 0.561s-0.218 0.511-0.217 0.789c0.085 0.72 0.366 1.404 0.813 1.975 0.445 0.692 0.685 1.496 0.694 2.319-0.045 0.936-0.256 1.857-0.625 2.719l-0.837 2.806-3.075-9.044c0.506 0 0.963-0.081 0.963-0.081 0.085-0.016 0.16-0.062 0.213-0.13s0.078-0.153 0.072-0.239-0.044-0.166-0.106-0.226c-0.062-0.060-0.143-0.095-0.229-0.098 0 0-1.369 0.106-2.244 0.106s-2.219-0.106-2.219-0.106c-0.086 0.004-0.168 0.039-0.229 0.098s-0.099 0.14-0.106 0.226c-0.006 0.086 0.019 0.171 0.072 0.239s0.128 0.114 0.213 0.13c0 0 0.425 0.050 0.881 0.081l1.313 3.588-1.844 5.525-3.063-9.113c0.506 0 0.963-0.081 0.963-0.081 0.085-0.016 0.161-0.063 0.213-0.132s0.077-0.154 0.070-0.24c-0.007-0.086-0.046-0.167-0.108-0.226s-0.145-0.093-0.232-0.096c0 0-1.219 0.094-2.094 0.106 0.239-0.332 0.504-0.643 0.794-0.931 0.728-0.73 1.593-1.31 2.545-1.704s1.974-0.597 3.005-0.596zM4.456 15.35c-1.053-1.045-1.788-2.367-2.12-3.813s-0.247-2.956 0.245-4.356l3.431 9.375c-0.579-0.347-1.11-0.767-1.581-1.25l0.025 0.044zM17.844 9.806c0.002 1.030-0.2 2.051-0.595 3.002s-0.974 1.815-1.705 2.542c-0.312 0.314-0.651 0.601-1.013 0.856l2.269-6.556c0.325-0.769 0.535-1.582 0.625-2.413 0.281 0.827 0.423 1.695 0.419 2.569zM10 0.637c-1.814-0.001-3.587 0.535-5.096 1.542s-2.685 2.438-3.38 4.114-0.877 3.519-0.524 5.298c0.353 1.779 1.226 3.413 2.508 4.696s2.916 2.157 4.694 2.511c1.779 0.354 3.623 0.173 5.298-0.521s3.108-1.869 4.116-3.377c1.008-1.508 1.546-3.281 1.546-5.094 0-2.431-0.965-4.762-2.683-6.481s-4.049-2.686-6.479-2.688z"></path>
</svg>
