<!-- Generated by IcoMoon.io -->
<svg version="1.1" xmlns="http://www.w3.org/2000/svg" width="32" height="32" viewBox="0 0 32 32">
<title>wordpress</title>
<path d="M16.23 16.87l3.9 10.67c-2.464 0.859-5.134 0.929-7.64 0.2l3.74-10.87zM16 3.14c2.917-0.019 5.748 0.986 8 2.84-0.394 0.206-0.724 0.516-0.953 0.897s-0.349 0.818-0.346 1.263c0.136 1.153 0.585 2.246 1.3 3.16 0.712 1.108 1.096 2.394 1.11 3.71-0.071 1.498-0.41 2.971-1 4.35l-1.34 4.49-4.92-14.47c0.81 0 1.54-0.13 1.54-0.13 0.135-0.025 0.256-0.099 0.34-0.208s0.125-0.245 0.115-0.382-0.070-0.266-0.169-0.362c-0.099-0.096-0.229-0.152-0.367-0.157 0 0-2.19 0.17-3.59 0.17s-3.55-0.17-3.55-0.17c-0.137 0.006-0.268 0.062-0.367 0.157s-0.159 0.225-0.169 0.362c-0.010 0.137 0.031 0.273 0.115 0.382s0.205 0.183 0.341 0.208c0 0 0.68 0.080 1.41 0.13l2.1 5.74-2.95 8.84-4.9-14.58c0.81 0 1.54-0.13 1.54-0.13 0.136-0.026 0.257-0.101 0.341-0.211s0.124-0.247 0.113-0.385c-0.011-0.138-0.073-0.267-0.173-0.361s-0.232-0.149-0.371-0.153c0 0-1.95 0.15-3.35 0.17 0.382-0.53 0.807-1.029 1.27-1.49 1.164-1.169 2.548-2.095 4.072-2.727s3.158-0.955 4.808-0.953zM7.13 24.56c-1.685-1.672-2.861-3.787-3.392-6.101s-0.395-4.73 0.392-6.969l5.49 15c-0.926-0.555-1.776-1.227-2.53-2l0.040 0.070zM28.55 15.69c0.003 1.648-0.32 3.281-0.952 4.803s-1.559 2.905-2.728 4.067c-0.499 0.503-1.041 0.961-1.62 1.37l3.63-10.49c0.519-1.231 0.856-2.531 1-3.86 0.45 1.323 0.677 2.712 0.67 4.11zM16 1.020c-2.902-0.002-5.739 0.857-8.153 2.467s-4.296 3.901-5.407 6.582-1.404 5.63-0.839 8.477c0.565 2.846 1.961 5.461 4.013 7.514s4.665 3.451 7.511 4.018c2.846 0.567 5.796 0.277 8.477-0.833s4.973-2.99 6.585-5.403c1.612-2.413 2.473-5.249 2.473-8.151 0-3.889-1.544-7.619-4.293-10.37s-6.478-4.298-10.367-4.3z"></path>
</svg>
