<!-- Generated by IcoMoon.io -->
<svg version="1.1" xmlns="http://www.w3.org/2000/svg" width="32" height="32" viewBox="0 0 32 32">
<title>wordpress-operator</title>
<path d="M28.38 7.63c-0.176-0.55-0.555-1.011-1.060-1.29l-10.47-5c-0.267-0.118-0.558-0.176-0.85-0.17-0.314-0.002-0.627 0.039-0.93 0.12l-10.46 5c-0.253 0.12-0.475 0.298-0.649 0.518s-0.294 0.478-0.351 0.752l-2.61 11.3c-0.045 0.288-0.032 0.583 0.038 0.866s0.197 0.55 0.372 0.784l7.24 9c0.425 0.42 0.985 0.675 1.58 0.72h11.54c0.304 0.032 0.61-0.018 0.888-0.145s0.517-0.325 0.692-0.576l7.24-9c0.338-0.48 0.484-1.068 0.41-1.65l-2.62-11.23zM16 6.58c2.408-0.003 4.728 0.9 6.5 2.53-0.218-0.017-0.437 0.012-0.643 0.084s-0.396 0.185-0.556 0.334c-0.16 0.148-0.289 0.328-0.377 0.528s-0.134 0.416-0.134 0.634c-0.070 2.31 2.76 2.8 1.23 7.44l-1.26 3.84-3.43-10.080c0-0.16 0-0.25 0.2-0.25h1c0.024 0 0.047-0.009 0.064-0.026s0.026-0.040 0.026-0.064v-0.58c0 0 0-0.1-0.090-0.090-1.84 0.080-3.67 0.080-5.48 0-0.013-0.001-0.025-0-0.037 0.004s-0.023 0.010-0.033 0.019c-0.009 0.008-0.017 0.019-0.022 0.031s-0.008 0.024-0.008 0.037v0.58c-0.007 0.012-0.011 0.026-0.012 0.040s0.001 0.028 0.005 0.041 0.012 0.025 0.022 0.035c0.010 0.010 0.021 0.018 0.034 0.024h1c0.22 0 0.28 0.080 0.33 0.22l1.4 3.78-2.12 6.41-3.49-10.25c0-0.13 0-0.21 0.13-0.21h1.12c0.024 0 0.047-0.009 0.064-0.026s0.026-0.040 0.026-0.064v-0.58c0 0 0-0.1-0.090-0.090-1.17 0.060-2.34 0.070-3.44 0.080 0.873-1.345 2.069-2.451 3.478-3.216s2.988-1.165 4.592-1.164zM24.45 11.58c1.208 2.235 1.482 4.856 0.762 7.292s-2.374 4.488-4.602 5.708l3-8.49c0.535-1.448 0.819-2.976 0.84-4.52v0.010zM19.22 25.24c-1.933 0.693-4.037 0.742-6 0.14l3-8.48 3 8.34zM11.89 24.87c-2.281-1.081-4.046-3.015-4.914-5.385s-0.77-4.987 0.274-7.285l4.64 12.67zM16 5.18c2.176 0 4.302 0.645 6.111 1.854s3.219 2.927 4.051 4.937c0.832 2.010 1.050 4.222 0.626 6.355s-1.472 4.094-3.010 5.632c-1.538 1.538-3.498 2.586-5.632 3.010s-4.346 0.207-6.355-0.626c-2.010-0.833-3.728-2.242-4.937-4.051s-1.854-3.936-1.854-6.111c0-2.917 1.159-5.715 3.222-7.778s4.861-3.222 7.778-3.222z"></path>
</svg>
