<!-- Generated by IcoMoon.io -->
<svg version="1.1" xmlns="http://www.w3.org/2000/svg" width="20" height="20" viewBox="0 0 20 20">
<title>wrench</title>
<path d="M8.746 3.433c1.244-1.244 3.202-1.244 4.446 0l0.442 0.442-1.919 1.919 0.654 1.962 1.962 0.654 1.919-1.919 0.442 0.442c1.244 1.244 1.244 3.202 0 4.446l-0.875 0.875c-1.343 1.343-3.364 1.479-4.845 0.407l-4.459 4.459c-0.944 1.017-2.528 0.989-3.508 0.018-1.021-0.947-0.989-2.539-0.010-3.518l4.468-4.468c-1.072-1.48-0.936-3.501 0.407-4.845l0.875-0.875zM11.795 3.946c-0.707-0.353-1.566-0.229-2.166 0.371l-0.875 0.875c-1.006 1.006-1.006 2.548 0 3.554l0.442 0.442-5.317 5.317c-0.517 0.517-0.488 1.293-0.020 1.722l0.010 0.009 0.010 0.010c0.517 0.517 1.293 0.488 1.722 0.020l0.009-0.010 5.327-5.327 0.442 0.442c1.006 1.006 2.548 1.006 3.554 0l0.875-0.875c0.6-0.6 0.724-1.459 0.371-2.166l-1.51 1.51-3.288-1.096-1.096-3.288 1.51-1.51z"></path>
</svg>
