<!-- Generated by IcoMoon.io -->
<svg version="1.1" xmlns="http://www.w3.org/2000/svg" width="20" height="20" viewBox="0 0 20 20">
<title>youtube</title>
<path d="M18.978 5.808c-0.214-0.805-0.856-1.447-1.661-1.661-1.457-0.397-7.317-0.397-7.317-0.397s-5.87 0.010-7.327 0.408c-0.805 0.214-1.447 0.856-1.661 1.661-0.387 1.457-0.387 4.504-0.387 4.504s0 3.047 0.397 4.514c0.214 0.805 0.856 1.447 1.661 1.661 1.457 0.397 7.317 0.397 7.317 0.397s5.859 0 7.317-0.397c0.805-0.214 1.447-0.856 1.661-1.661 0.397-1.457 0.397-4.514 0.397-4.514s0-3.047-0.397-4.514zM8.125 13.135v-5.625l4.871 2.813-4.871 2.813z"></path>
</svg>
