<!-- Generated by IcoMoon.io -->
<svg version="1.1" xmlns="http://www.w3.org/2000/svg" width="20" height="20" viewBox="0 0 20 20">
<title>zinc</title>
<path d="M18.125 13.719c-0.032-0.082-0.081-0.157-0.144-0.219l-3.331-3.331c-0.062-0.063-0.135-0.112-0.216-0.146s-0.168-0.051-0.256-0.051c-0.088 0-0.175 0.018-0.256 0.051s-0.154 0.084-0.216 0.146c-0.123 0.126-0.192 0.296-0.192 0.472s0.069 0.346 0.192 0.472l2.194 2.194h-8.456l7.194-7.194c0.092-0.093 0.154-0.212 0.179-0.341s0.012-0.262-0.038-0.383-0.134-0.225-0.243-0.299c-0.108-0.074-0.236-0.114-0.367-0.115h-10.063l2.2-2.194c0.123-0.126 0.192-0.295 0.192-0.472s-0.069-0.346-0.192-0.472c-0.062-0.063-0.135-0.112-0.216-0.146s-0.168-0.051-0.256-0.051c-0.088 0-0.175 0.017-0.256 0.051s-0.154 0.084-0.216 0.146l-3.331 3.331v0.037c-0.051 0.054-0.093 0.115-0.125 0.181-0.063 0.163-0.063 0.343 0 0.506 0.032 0.066 0.074 0.128 0.125 0.181-0.002 0.012-0.002 0.025 0 0.038l3.331 3.331c0.125 0.125 0.295 0.195 0.472 0.195s0.347-0.070 0.472-0.195c0.123-0.126 0.192-0.296 0.192-0.472s-0.069-0.346-0.192-0.472l-2.2-2.194h8.45l-7.194 7.194c-0.092 0.093-0.154 0.212-0.179 0.341s-0.012 0.262 0.038 0.383c0.050 0.121 0.134 0.225 0.243 0.299s0.236 0.114 0.367 0.115h10.056l-2.194 2.2c-0.062 0.062-0.11 0.135-0.143 0.216s-0.050 0.167-0.050 0.255c0 0.087 0.018 0.174 0.051 0.254s0.083 0.154 0.145 0.215c0.125 0.124 0.295 0.194 0.471 0.193 0.087-0 0.174-0.018 0.254-0.052s0.154-0.083 0.215-0.145l3.331-3.331c0.063-0.062 0.112-0.137 0.144-0.219 0.035-0.080 0.054-0.166 0.054-0.253s-0.018-0.173-0.054-0.253z"></path>
</svg>
