<!-- Generated by IcoMoon.io -->
<svg version="1.1" xmlns="http://www.w3.org/2000/svg" width="32" height="32" viewBox="0 0 32 32">
<title>zinc</title>
<path d="M29 21.95c-0.051-0.132-0.13-0.251-0.23-0.35l-5.33-5.33c-0.099-0.1-0.216-0.18-0.346-0.234s-0.269-0.082-0.409-0.082c-0.14 0-0.28 0.028-0.409 0.082s-0.247 0.134-0.346 0.234c-0.197 0.202-0.308 0.473-0.308 0.755s0.11 0.553 0.308 0.755l3.51 3.51h-13.53l11.51-11.51c0.147-0.15 0.247-0.339 0.287-0.545s0.019-0.419-0.061-0.613-0.215-0.36-0.389-0.478c-0.174-0.118-0.378-0.182-0.588-0.184h-16.1l3.52-3.51c0.197-0.202 0.308-0.473 0.308-0.755s-0.11-0.553-0.308-0.755c-0.099-0.1-0.216-0.18-0.346-0.234s-0.269-0.082-0.409-0.082c-0.14 0-0.28 0.028-0.409 0.082s-0.247 0.134-0.346 0.234l-5.33 5.33v0.060c-0.081 0.086-0.149 0.184-0.2 0.29-0.1 0.261-0.1 0.549 0 0.81 0.051 0.106 0.119 0.204 0.2 0.29-0.003 0.020-0.003 0.040 0 0.060l5.33 5.33c0.201 0.2 0.472 0.312 0.755 0.312s0.554-0.112 0.755-0.312c0.197-0.202 0.308-0.473 0.308-0.755s-0.11-0.553-0.308-0.755l-3.52-3.51h13.52l-11.51 11.51c-0.147 0.15-0.247 0.339-0.287 0.545s-0.019 0.419 0.061 0.613c0.080 0.194 0.215 0.36 0.389 0.478s0.378 0.182 0.588 0.184h16.090l-3.51 3.52c-0.099 0.099-0.177 0.217-0.23 0.346s-0.080 0.268-0.080 0.407c0 0.14 0.028 0.278 0.082 0.407s0.133 0.246 0.232 0.345c0.2 0.199 0.471 0.31 0.753 0.309 0.14-0 0.278-0.029 0.407-0.082s0.246-0.133 0.345-0.232l5.33-5.33c0.101-0.099 0.179-0.218 0.23-0.35 0.056-0.128 0.086-0.265 0.086-0.405s-0.029-0.277-0.086-0.405z"></path>
</svg>
