<!-- Generated by IcoMoon.io -->
<svg version="1.1" xmlns="http://www.w3.org/2000/svg" width="20" height="20" viewBox="0 0 20 20">
<title>zipa</title>
<path d="M8.037 11.769v1.963h1.963v-1.963h-1.963zM11.963 9.806h-1.963v1.962h1.963v-1.963zM8.037 7.837v1.969h1.963v-1.969h-1.963zM11.963 7.837v-1.963h-1.963v1.963h1.963zM8.037 5.875h1.963v-1.963h-1.963v1.963zM17.2 0.637h-15.713c-0.174 0-0.341 0.069-0.464 0.192s-0.192 0.29-0.192 0.464c0 0.174 0.069 0.341 0.192 0.464s0.29 0.192 0.464 0.192h8.512v1.962h1.963v-1.962h5.237c0.087-0.004 0.175 0.009 0.256 0.041s0.156 0.080 0.218 0.141 0.11 0.136 0.141 0.218c0.031 0.082 0.045 0.169 0.041 0.256v14.375c0.004 0.087-0.009 0.175-0.041 0.256s-0.080 0.156-0.141 0.218-0.136 0.11-0.218 0.141c-0.082 0.031-0.169 0.045-0.256 0.041h-7.2v-1.938h-1.969v1.963h-5.238c-0.085 0-0.169-0.017-0.247-0.050s-0.148-0.082-0.207-0.144c-0.058-0.061-0.104-0.134-0.133-0.213s-0.043-0.164-0.038-0.249v-11.781c0-0.166 0.066-0.325 0.183-0.442s0.276-0.183 0.442-0.183h3.281c0.174 0 0.341-0.069 0.464-0.192s0.192-0.29 0.192-0.464-0.069-0.341-0.192-0.464c-0.123-0.123-0.29-0.192-0.464-0.192h-3.281c-0.516 0.002-1.010 0.205-1.377 0.568s-0.577 0.854-0.585 1.37v11.781c0 0.521 0.207 1.021 0.574 1.39s0.867 0.577 1.388 0.579h14.406c0.258 0 0.514-0.051 0.752-0.15s0.455-0.244 0.637-0.427c0.182-0.183 0.327-0.4 0.425-0.639s0.148-0.495 0.148-0.753v-14.375c0.001-0.258-0.049-0.514-0.148-0.753s-0.243-0.456-0.425-0.639c-0.182-0.183-0.399-0.328-0.637-0.427s-0.494-0.15-0.752-0.15v-0.025zM11.963 15.7h-1.963v-1.969h1.963v1.969z"></path>
</svg>
