<!-- Generated by IcoMoon.io -->
<svg version="1.1" xmlns="http://www.w3.org/2000/svg" width="32" height="32" viewBox="0 0 32 32">
<title>zipa</title>
<path d="M12.86 18.83v3.14h3.14v-3.14h-3.14zM19.14 15.69h-3.14v3.14h3.14v-3.14zM12.86 12.54v3.15h3.14v-3.15h-3.14zM19.14 12.54v-3.14h-3.14v3.14h3.14zM12.86 9.4h3.14v-3.14h-3.14v3.14zM27.52 1.020h-25.14c-0.278 0-0.546 0.111-0.742 0.308s-0.308 0.464-0.308 0.742c0 0.278 0.111 0.546 0.308 0.742s0.464 0.308 0.742 0.308h13.62v3.14h3.14v-3.14h8.38c0.14-0.007 0.279 0.015 0.41 0.065s0.249 0.127 0.348 0.226 0.176 0.218 0.226 0.348c0.050 0.131 0.073 0.27 0.065 0.41v23c0.007 0.14-0.015 0.279-0.065 0.41s-0.127 0.249-0.226 0.348-0.218 0.176-0.348 0.226c-0.131 0.050-0.27 0.073-0.41 0.065h-11.52v-3.1h-3.15v3.14h-8.38c-0.136 0-0.27-0.027-0.395-0.081s-0.237-0.131-0.331-0.23c-0.094-0.098-0.166-0.214-0.213-0.342s-0.068-0.262-0.061-0.398v-18.85c0-0.265 0.105-0.52 0.293-0.707s0.442-0.293 0.707-0.293h5.25c0.278 0 0.546-0.111 0.742-0.308s0.308-0.464 0.308-0.742-0.111-0.546-0.308-0.742c-0.197-0.197-0.464-0.308-0.742-0.308h-5.25c-0.825 0.003-1.616 0.329-2.203 0.908s-0.923 1.367-0.937 2.192v18.85c0 0.834 0.331 1.633 0.919 2.224s1.387 0.924 2.221 0.926h23.050c0.413 0 0.822-0.082 1.204-0.24s0.728-0.391 1.020-0.683c0.292-0.293 0.523-0.64 0.68-1.022s0.238-0.791 0.236-1.205v-23c0.001-0.413-0.079-0.823-0.236-1.205s-0.388-0.729-0.68-1.022c-0.292-0.293-0.638-0.525-1.020-0.683s-0.791-0.24-1.204-0.24v-0.040zM19.14 25.12h-3.14v-3.15h3.14v3.15z"></path>
</svg>
