<!-- Generated by IcoMoon.io -->
<svg version="1.1" xmlns="http://www.w3.org/2000/svg" width="32" height="32" viewBox="0 0 32 32">
<title>zoom-out</title>
<path d="M8 12c-0.552 0-1 0.448-1 1s0.448 1 1 1h10c0.552 0 1-0.448 1-1s-0.448-1-1-1h-10z"></path>
<path d="M2 13c0-6.075 4.925-11 11-11s11 4.925 11 11c0 2.678-0.957 5.132-2.547 7.039l7.254 7.254c0.39 0.39 0.39 1.024 0 1.414s-1.024 0.39-1.414 0l-7.254-7.254c-1.907 1.59-4.361 2.547-7.039 2.547-6.075 0-11-4.925-11-11zM13 4c-4.971 0-9 4.029-9 9s4.029 9 9 9c4.971 0 9-4.029 9-9s-4.029-9-9-9z"></path>
</svg>
