<!-- Generated by IcoMoon.io -->
<svg version="1.1" xmlns="http://www.w3.org/2000/svg" width="32" height="32" viewBox="0 0 32 32">
<title>zoom-in</title>
<path d="M7 13c0-0.552 0.448-1 1-1h4v-4c0-0.552 0.448-1 1-1s1 0.448 1 1v4h4c0.552 0 1 0.448 1 1s-0.448 1-1 1h-4v4c0 0.552-0.448 1-1 1s-1-0.448-1-1v-4h-4c-0.552 0-1-0.448-1-1z"></path>
<path d="M13 2c-6.075 0-11 4.925-11 11s4.925 11 11 11c2.678 0 5.131-0.957 7.039-2.547l7.254 7.254c0.39 0.39 1.024 0.39 1.414 0s0.39-1.024 0-1.414l-7.254-7.254c1.59-1.907 2.547-4.362 2.547-7.039 0-6.075-4.925-11-11-11zM4 13c0-4.971 4.029-9 9-9s9 4.029 9 9c0 4.971-4.029 9-9 9s-9-4.029-9-9z"></path>
</svg>
