<!-- Generated by IcoMoon.io -->
<svg version="1.1" xmlns="http://www.w3.org/2000/svg" width="20" height="20" viewBox="0 0 20 20">
<title>zoom-in</title>
<path d="M4.375 8.125c0-0.345 0.28-0.625 0.625-0.625h2.5v-2.5c0-0.345 0.28-0.625 0.625-0.625s0.625 0.28 0.625 0.625v2.5h2.5c0.345 0 0.625 0.28 0.625 0.625s-0.28 0.625-0.625 0.625h-2.5v2.5c0 0.345-0.28 0.625-0.625 0.625s-0.625-0.28-0.625-0.625v-2.5h-2.5c-0.345 0-0.625-0.28-0.625-0.625z"></path>
<path d="M8.125 1.25c-3.797 0-6.875 3.078-6.875 6.875s3.078 6.875 6.875 6.875c1.673 0 3.207-0.598 4.399-1.592l4.534 4.534c0.244 0.244 0.64 0.244 0.884 0s0.244-0.64 0-0.884l-4.534-4.534c0.994-1.192 1.592-2.726 1.592-4.399 0-3.797-3.078-6.875-6.875-6.875zM2.5 8.125c0-3.107 2.518-5.625 5.625-5.625s5.625 2.518 5.625 5.625c0 3.107-2.518 5.625-5.625 5.625s-5.625-2.518-5.625-5.625z"></path>
</svg>
