<!-- Generated by IcoMoon.io -->
<svg version="1.1" xmlns="http://www.w3.org/2000/svg" width="20" height="20" viewBox="0 0 20 20">
<title>zoom-out</title>
<path d="M5 7.5c-0.345 0-0.625 0.28-0.625 0.625s0.28 0.625 0.625 0.625h6.25c0.345 0 0.625-0.28 0.625-0.625s-0.28-0.625-0.625-0.625h-6.25z"></path>
<path d="M1.25 8.125c0-3.797 3.078-6.875 6.875-6.875s6.875 3.078 6.875 6.875c0 1.673-0.598 3.207-1.592 4.399l4.534 4.534c0.244 0.244 0.244 0.64 0 0.884s-0.64 0.244-0.884 0l-4.534-4.534c-1.192 0.994-2.726 1.592-4.399 1.592-3.797 0-6.875-3.078-6.875-6.875zM8.125 2.5c-3.107 0-5.625 2.518-5.625 5.625s2.518 5.625 5.625 5.625c3.107 0 5.625-2.518 5.625-5.625s-2.518-5.625-5.625-5.625z"></path>
</svg>
