<!-- Generated by IcoMoon.io -->
<svg version="1.1" xmlns="http://www.w3.org/2000/svg" width="32" height="32" viewBox="0 0 32 32">
<title>zsync</title>
<path d="M10.84 18.75c0.384 0.386 0.874 0.651 1.408 0.759s1.088 0.057 1.592-0.149l-3.61-3.67c-0.216 0.513-0.274 1.078-0.165 1.624s0.379 1.046 0.775 1.436zM17.070 19.36c0.512 0.214 1.076 0.27 1.62 0.161s1.044-0.377 1.434-0.771c0.391-0.394 0.655-0.895 0.759-1.441s0.044-1.109-0.174-1.619l-3.64 3.67zM9.82 13.62c0.34-0.069 0.692-0.051 1.023 0.050s0.633 0.284 0.877 0.53l3.68 3.67 0.070 0.080 0.080-0.080 3.68-3.67c0.242-0.247 0.541-0.429 0.871-0.53s0.68-0.118 1.019-0.050c0.339 0.064 0.657 0.211 0.925 0.427s0.48 0.495 0.615 0.813c0.317 0.746 0.444 1.559 0.371 2.366s-0.346 1.583-0.792 2.26c-0.447 0.676-1.054 1.232-1.767 1.616s-1.511 0.587-2.321 0.588c-0.663-0.001-1.319-0.133-1.93-0.39-0.285-0.126-0.54-0.31-0.75-0.54-0.204 0.232-0.457 0.416-0.74 0.54-0.611 0.257-1.267 0.389-1.93 0.39-0.812-0.002-1.61-0.204-2.325-0.589s-1.323-0.941-1.77-1.618-0.721-1.455-0.795-2.263c-0.074-0.808 0.053-1.622 0.369-2.37 0.136-0.317 0.347-0.595 0.616-0.812s0.586-0.363 0.924-0.428v0.010zM30.66 4.17v23c0.001 0.413-0.079 0.823-0.236 1.205s-0.388 0.729-0.68 1.022c-0.292 0.293-0.638 0.525-1.020 0.683s-0.791 0.24-1.204 0.24h-23c-0.834-0.003-1.632-0.336-2.221-0.926s-0.919-1.39-0.919-2.224v-18.81c-0-0.824 0.324-1.615 0.902-2.203s1.364-0.924 2.188-0.937h11c2.176 0 4.302 0.645 6.111 1.854s3.219 2.927 4.051 4.937c0.832 2.010 1.050 4.222 0.626 6.355s-1.472 4.094-3.010 5.632c-1.538 1.538-3.498 2.586-5.632 3.010s-4.346 0.207-6.355-0.626c-2.010-0.833-3.728-2.242-4.937-4.051s-1.854-3.936-1.854-6.111c0.024-1.646 0.453-3.26 1.25-4.7l-0.44-0.44c-0.094-0.094-0.162-0.212-0.196-0.34s-0.034-0.264 0-0.393c0.034-0.129 0.102-0.246 0.196-0.34s0.211-0.162 0.34-0.197l3.15-0.84c0.129-0.034 0.264-0.034 0.393 0s0.246 0.102 0.34 0.197c0.094 0.094 0.162 0.211 0.197 0.34s0.035 0.264 0 0.393l-0.85 3.14c-0.035 0.129-0.103 0.246-0.197 0.34s-0.212 0.162-0.34 0.196-0.264 0.034-0.393 0c-0.129-0.034-0.246-0.102-0.34-0.196l-0.27-0.27c-0.452 0.975-0.694 2.035-0.71 3.11-0.002 1.759 0.518 3.479 1.494 4.943s2.364 2.605 3.989 3.279c1.625 0.674 3.413 0.851 5.139 0.508s3.31-1.19 4.554-2.433c1.244-1.244 2.091-2.829 2.433-4.554s0.166-3.514-0.508-5.139c-0.674-1.625-1.815-3.013-3.279-3.989s-3.184-1.496-4.943-1.494h-11c-0.265 0-0.52 0.105-0.707 0.293s-0.293 0.442-0.293 0.707v18.87c-0.007 0.136 0.014 0.271 0.061 0.398s0.12 0.243 0.213 0.342c0.094 0.098 0.206 0.176 0.331 0.23s0.259 0.081 0.395 0.081h23.040c0.14 0.007 0.279-0.015 0.41-0.065s0.249-0.127 0.348-0.226c0.099-0.099 0.176-0.218 0.226-0.348s0.073-0.27 0.065-0.41v-23c0.007-0.14-0.015-0.28-0.065-0.41s-0.127-0.249-0.226-0.348c-0.099-0.099-0.218-0.176-0.348-0.226s-0.27-0.072-0.41-0.065h-25.14c-0.278 0-0.546-0.111-0.742-0.308s-0.308-0.464-0.308-0.742c0-0.278 0.111-0.546 0.308-0.742s0.464-0.308 0.742-0.308h25.14c0.413 0 0.822 0.082 1.204 0.24s0.728 0.391 1.020 0.683 0.523 0.64 0.68 1.022c0.157 0.382 0.237 0.792 0.236 1.205v-0.040z"></path>
</svg>
