<!-- Generated by IcoMoon.io -->
<svg version="1.1" xmlns="http://www.w3.org/2000/svg" width="20" height="20" viewBox="0 0 20 20">
<title>zsync</title>
<path d="M6.775 11.719c0.24 0.242 0.546 0.407 0.88 0.474s0.68 0.035 0.995-0.093l-2.256-2.294c-0.135 0.32-0.171 0.674-0.103 1.015s0.237 0.654 0.484 0.898zM10.669 12.1c0.32 0.133 0.673 0.168 1.013 0.101s0.652-0.236 0.896-0.482c0.244-0.246 0.409-0.56 0.475-0.9s0.027-0.693-0.109-1.012l-2.275 2.294zM6.138 8.512c0.212-0.043 0.432-0.032 0.64 0.031s0.396 0.177 0.548 0.331l2.3 2.294 0.044 0.050 0.050-0.050 2.3-2.294c0.151-0.154 0.338-0.268 0.545-0.331s0.425-0.074 0.637-0.031c0.212 0.040 0.41 0.132 0.578 0.267s0.3 0.31 0.384 0.508c0.198 0.466 0.278 0.974 0.232 1.479s-0.216 0.99-0.495 1.412c-0.279 0.423-0.658 0.77-1.104 1.010s-0.944 0.367-1.451 0.368c-0.414-0.001-0.824-0.083-1.206-0.244-0.178-0.079-0.338-0.194-0.469-0.338-0.128 0.145-0.286 0.26-0.463 0.338-0.382 0.16-0.792 0.243-1.206 0.244-0.507-0.001-1.006-0.128-1.453-0.368s-0.827-0.588-1.106-1.011-0.45-0.909-0.497-1.414c-0.046-0.505 0.033-1.014 0.231-1.481 0.085-0.198 0.217-0.372 0.385-0.507s0.366-0.227 0.578-0.268v0.006zM19.163 2.606v14.375c0.001 0.258-0.049 0.514-0.148 0.753s-0.243 0.456-0.425 0.639c-0.182 0.183-0.399 0.328-0.637 0.427s-0.494 0.15-0.752 0.15h-14.375c-0.521-0.002-1.020-0.21-1.388-0.579s-0.574-0.869-0.574-1.39v-11.756c-0-0.515 0.202-1.010 0.564-1.377s0.852-0.578 1.368-0.586h6.875c1.36 0 2.689 0.403 3.82 1.159s2.012 1.829 2.532 3.085c0.52 1.256 0.657 2.639 0.391 3.972s-0.92 2.559-1.882 3.52c-0.962 0.961-2.187 1.616-3.52 1.882s-2.716 0.129-3.972-0.391c-1.256-0.52-2.33-1.402-3.085-2.532s-1.159-2.46-1.159-3.82c0.015-1.029 0.283-2.038 0.781-2.938l-0.275-0.275c-0.059-0.059-0.101-0.132-0.122-0.213s-0.021-0.165 0-0.245c0.022-0.080 0.064-0.154 0.123-0.213s0.132-0.101 0.212-0.123l1.969-0.525c0.080-0.021 0.165-0.021 0.246 0s0.154 0.064 0.213 0.123c0.059 0.059 0.101 0.132 0.123 0.213s0.022 0.165 0 0.246l-0.531 1.963c-0.022 0.080-0.064 0.153-0.123 0.212s-0.132 0.101-0.213 0.122-0.165 0.022-0.245 0c-0.080-0.021-0.154-0.064-0.213-0.122l-0.169-0.169c-0.283 0.61-0.434 1.272-0.444 1.944-0.001 1.099 0.324 2.175 0.934 3.089s1.478 1.628 2.493 2.049c1.016 0.421 2.133 0.532 3.212 0.318s2.069-0.743 2.846-1.521c0.777-0.777 1.307-1.768 1.521-2.846s0.104-2.196-0.318-3.212c-0.421-1.016-1.134-1.883-2.049-2.493s-1.99-0.935-3.089-0.934h-6.875c-0.166 0-0.325 0.066-0.442 0.183s-0.183 0.276-0.183 0.442v11.794c-0.004 0.085 0.009 0.169 0.038 0.249s0.075 0.152 0.133 0.213c0.058 0.061 0.129 0.11 0.207 0.144s0.162 0.051 0.247 0.050h14.4c0.087 0.004 0.175-0.009 0.256-0.041s0.156-0.080 0.218-0.141c0.062-0.062 0.11-0.136 0.141-0.218s0.045-0.169 0.041-0.256v-14.375c0.004-0.087-0.009-0.175-0.041-0.256s-0.080-0.156-0.141-0.218c-0.062-0.062-0.136-0.11-0.218-0.141s-0.169-0.045-0.256-0.041h-15.712c-0.174 0-0.341-0.069-0.464-0.192s-0.192-0.29-0.192-0.464c0-0.174 0.069-0.341 0.192-0.464s0.29-0.192 0.464-0.192h15.712c0.258 0 0.514 0.051 0.752 0.15s0.455 0.244 0.637 0.427 0.327 0.4 0.425 0.639c0.098 0.239 0.148 0.495 0.148 0.753v-0.025z"></path>
</svg>
