<!-- Generated by IcoMoon.io -->
<svg version="1.1" xmlns="http://www.w3.org/2000/svg" width="20" height="20" viewBox="0 0 20 20">
<title>zthree</title>
<path d="M17.706 4.181l-6.669-3.35c-0.322-0.16-0.678-0.244-1.037-0.244s-0.715 0.083-1.037 0.244l-3.269 1.631c-0.11 0.056-0.203 0.141-0.268 0.247s-0.099 0.227-0.099 0.35c0 0.124 0.034 0.245 0.099 0.35s0.158 0.191 0.268 0.247l7.962 3.981v2.588c0.016 0.165 0.093 0.319 0.216 0.431s0.283 0.174 0.449 0.174 0.326-0.062 0.449-0.174c0.123-0.112 0.2-0.265 0.216-0.431v-3c0.005-0.129-0.027-0.256-0.092-0.367s-0.161-0.201-0.277-0.258l-7.119-3.544 2.075-1.031c0.138-0.069 0.29-0.105 0.444-0.105s0.306 0.036 0.444 0.105l6.65 3.331c0.168 0.081 0.309 0.208 0.407 0.367s0.15 0.341 0.149 0.527v7.112c0 0.186-0.052 0.369-0.15 0.527s-0.239 0.285-0.406 0.367l-6.444 3.219v-8.088c0.005-0.129-0.027-0.256-0.092-0.367s-0.161-0.201-0.277-0.258l-8.337-4.144c-0.104-0.051-0.219-0.074-0.334-0.067s-0.227 0.044-0.324 0.107c-0.097 0.063-0.176 0.15-0.229 0.253s-0.079 0.217-0.075 0.333v8.125c0.003 0.429 0.125 0.849 0.353 1.213s0.551 0.658 0.935 0.85l6.662 3.331c0.327 0.161 0.686 0.244 1.050 0.244 0.36 0 0.715-0.083 1.037-0.244l6.669-3.331c0.389-0.192 0.717-0.489 0.946-0.858s0.349-0.795 0.348-1.229v-7.094c-0.001-0.431-0.123-0.853-0.352-1.219s-0.555-0.66-0.942-0.85zM9.331 17.481l-6.45-3.225c-0.166-0.086-0.306-0.215-0.403-0.375s-0.148-0.344-0.147-0.531v-7.056l7 3.513v7.675z"></path>
</svg>
