<!-- Generated by IcoMoon.io -->
<svg version="1.1" xmlns="http://www.w3.org/2000/svg" width="32" height="32" viewBox="0 0 32 32">
<title>account-square</title>
<path d="M6 1.69c-2.252 0-4 1.748-4 4v20c0 2.252 1.748 4 4 4h20c2.252 0 4-1.748 4-4v-20c0-2.252-1.748-4-4-4h-20zM4 5.69c0-1.148 0.852-2 2-2h20c1.148 0 2 0.852 2 2v20c0 0.155-0.015 0.304-0.045 0.447-0.171-0.14-0.341-0.277-0.506-0.408l-0.055-0.044-0.032-0.022c-1.482-1.006-3.303-1.861-4.724-2.457-0.716-0.301-1.343-0.541-1.792-0.706-0.081-0.030-0.157-0.057-0.226-0.082 0.465-0.428 0.838-0.916 1.126-1.392 0.436-0.658 0.774-1.331 1.004-2.019l0.011-0.033c0.192-0.577 0.414-1.241 0.527-1.919 0.114-0.682 0.114-1.25 0.114-1.652v-4.012c0-0.755-0.302-1.439-0.606-2.047l-0.028-0.056-0.035-0.052c-0.473-0.709-1.051-1.279-1.692-1.814-0.694-0.578-1.494-1.032-2.389-1.368l-0.102-0.038-0.108-0.015c-0.143-0.020-0.315-0.051-0.507-0.085-0.554-0.098-1.272-0.225-1.934-0.225-0.95 0-1.865 0.236-2.575 0.438l-0.039 0.011-0.038 0.014c-0.895 0.336-1.695 0.79-2.389 1.368-0.641 0.534-1.219 1.104-1.692 1.814l-0.013 0.020-0.012 0.020c-0.364 0.607-0.643 1.384-0.643 2.114v4.012c0 0.402-0 0.97 0.114 1.652 0.113 0.678 0.334 1.341 0.527 1.919l0.011 0.033c0.226 0.678 0.558 1.342 0.985 1.99 0.331 0.63 0.845 1.115 1.178 1.429l0.023 0.022c-0.15 0.073-0.347 0.169-0.581 0.284-0.563 0.278-1.343 0.669-2.209 1.124-1.425 0.749-3.124 1.691-4.471 2.591-0.114-0.256-0.176-0.545-0.176-0.856v-20zM6.095 27.69c1.092-0.676 2.349-1.369 3.482-1.965 0.847-0.445 1.611-0.829 2.163-1.101 0.276-0.136 0.499-0.244 0.652-0.318 0.077-0.037 0.136-0.065 0.176-0.084l0.104-0.049 0.042-0.025c0.525-0.315 0.841-0.836 0.872-1.417 0.029-0.557-0.206-1.074-0.579-1.447-0.117-0.117-0.224-0.22-0.322-0.314-0.318-0.305-0.534-0.513-0.691-0.827l-0.028-0.056-0.034-0.052c-0.357-0.536-0.615-1.057-0.783-1.561-0.205-0.615-0.377-1.139-0.462-1.648-0.085-0.511-0.086-0.938-0.086-1.336v-4c0-0.265 0.118-0.679 0.346-1.066 0.325-0.482 0.743-0.907 1.294-1.366 0.497-0.414 1.085-0.755 1.774-1.018 0.677-0.192 1.348-0.35 1.986-0.35 0.477 0 0.907 0.077 1.395 0.164 0.204 0.036 0.419 0.075 0.651 0.11 0.663 0.259 1.232 0.593 1.714 0.995 0.54 0.45 0.952 0.866 1.274 1.336 0.274 0.555 0.366 0.858 0.366 1.095v4c0 0.397-0.001 0.825-0.086 1.336-0.085 0.509-0.257 1.033-0.462 1.648-0.168 0.505-0.426 1.025-0.783 1.561l-0.013 0.020-0.012 0.020c-0.252 0.421-0.578 0.823-0.967 1.134-0.999 0.799-0.973 2.479 0.353 3.009l0.027 0.011 0.037 0.012 0.032 0.011c0.029 0.010 0.073 0.025 0.131 0.045 0.116 0.040 0.285 0.101 0.498 0.179 0.427 0.157 1.025 0.386 1.708 0.673 1.368 0.574 3.030 1.361 4.343 2.246 0.134 0.107 0.264 0.211 0.388 0.313-0.186 0.053-0.386 0.082-0.595 0.082h-19.905z"></path>
</svg>
