<!-- Generated by IcoMoon.io -->
<svg version="1.1" xmlns="http://www.w3.org/2000/svg" width="32" height="32" viewBox="0 0 32 32">
<title>accounts-up</title>
<path d="M16.506 1.171c0.855-0.366 1.696-0.481 2.494-0.481 0.941 0 1.756 0.233 2.434 0.427l0.102 0.029 0.058 0.025c0.785 0.336 1.45 0.78 2.033 1.169l0.11 0.073 0.117 0.117c0.454 0.453 1.012 1.011 1.377 1.602 0.387 0.531 0.669 1.22 0.669 1.958v3.817c0 0.301 0 0.882-0.119 1.48l-0.003 0.014c-0.099 0.496-0.209 1.047-0.429 1.706-0.175 0.524-0.741 0.807-1.265 0.633s-0.807-0.741-0.633-1.265c0.178-0.535 0.268-0.98 0.368-1.48 0.078-0.391 0.081-0.799 0.081-1.104v-3.8c0-0.242-0.102-0.536-0.3-0.8l-0.031-0.041-0.026-0.044c-0.213-0.356-0.587-0.744-1.080-1.237-0.557-0.371-1.048-0.69-1.601-0.934-0.685-0.195-1.241-0.343-1.862-0.343-0.602 0-1.161 0.085-1.706 0.319-0.742 0.318-1.248 0.549-1.587 0.888l-0.032 0.032-0.035 0.029c-0.515 0.429-0.83 0.744-1.135 1.179-0.007 0.016-0.015 0.033-0.023 0.050-0.066 0.131-0.18 0.293-0.369 0.419-0.196 0.131-0.412 0.184-0.613 0.184-0.552 0-1-0.448-1-1 0-0.291 0.124-0.553 0.323-0.736 0.446-0.651 0.902-1.101 1.505-1.605 0.634-0.617 1.47-0.975 2.109-1.248l0.070-0.030z"></path>
<path d="M23 18.276l3.707 3.707c0.39 0.39 0.39 1.024 0 1.414s-1.024 0.39-1.414 0l-1.293-1.293v3.586c0 0.552-0.448 1-1 1s-1-0.448-1-1v-3.586l-1.293 1.293c-0.39 0.39-1.024 0.39-1.414 0s-0.39-1.024 0-1.414l3.707-3.707z"></path>
<path d="M15 22.69c0-4.418 3.582-8 8-8s8 3.582 8 8c0 4.418-3.582 8-8 8s-8-3.582-8-8zM23 16.69c-3.314 0-6 2.686-6 6s2.686 6 6 6c3.314 0 6-2.686 6-6s-2.686-6-6-6z"></path>
<path d="M13.1 6.79c-0.798 0-1.639 0.115-2.494 0.481l-0.070 0.030c-0.636 0.272-1.468 0.628-2.102 1.241-0.531 0.43-1.127 1.016-1.511 1.765-0.332 0.561-0.623 1.235-0.623 1.983v3.718c-0 0.398-0 0.881 0.119 1.478 0.012 0.060 0.025 0.125 0.038 0.194 0.084 0.435 0.199 1.033 0.403 1.553 0.235 0.692 0.578 1.264 0.864 1.741l0.018 0.030c0.305 0.508 0.688 0.924 1.028 1.27l-6.032 2.828-0.559 0.319c-0.241 0.047-0.453 0.145-0.624 0.268-0.12 0.086-0.238 0.196-0.334 0.331-0.079 0.11-0.222 0.347-0.222 0.67v0.6c0 1.825 1.421 3.4 3.4 3.4h11.5c0.552 0 1-0.448 1-1s-0.448-1-1-1h-11.5c-0.821 0-1.4-0.625-1.4-1.4v-0.034l0.661-0.378 6.386-2.994c0.586-0.293 0.847-0.876 0.897-1.352 0.050-0.47-0.081-1.075-0.576-1.488-0.394-0.394-0.691-0.703-0.911-1.069-0.306-0.51-0.549-0.921-0.709-1.402l-0.009-0.028-0.011-0.027c-0.134-0.335-0.212-0.733-0.302-1.191-0.015-0.076-0.030-0.154-0.046-0.234-0.079-0.394-0.081-0.706-0.081-1.104v-3.7c0-0.238 0.098-0.553 0.357-0.986l0.020-0.033 0.017-0.034c0.207-0.414 0.58-0.806 1.030-1.166l0.043-0.035 0.039-0.039c0.339-0.339 0.845-0.57 1.587-0.888 0.545-0.234 1.104-0.319 1.706-0.319s1.161 0.085 1.706 0.319c0.575 0.247 1.081 0.575 1.657 0.958 0.493 0.494 0.866 0.882 1.080 1.237l0.026 0.044 0.031 0.041c0.198 0.264 0.3 0.558 0.3 0.8v1.4c0 0.552 0.448 1 1 1s1-0.448 1-1v-1.4c0-0.739-0.283-1.427-0.669-1.958-0.365-0.591-0.923-1.149-1.377-1.602l-0.117-0.117-0.11-0.073c-0.584-0.389-1.248-0.832-2.033-1.169-0.855-0.366-1.696-0.481-2.494-0.481z"></path>
</svg>
