<!-- Generated by IcoMoon.io -->
<svg version="1.1" xmlns="http://www.w3.org/2000/svg" width="32" height="32" viewBox="0 0 32 32">
<title>account-female-remove</title>
<path d="M23 16.69c-3.314 0-6 2.686-6 6s2.686 6 6 6c3.314 0 6-2.686 6-6s-2.686-6-6-6zM15 22.69c0-4.418 3.582-8 8-8s8 3.582 8 8c0 4.418-3.582 8-8 8s-8-3.582-8-8z"></path>
<path d="M19 22.69c0-0.552 0.448-1 1-1h6c0.552 0 1 0.448 1 1s-0.448 1-1 1h-6c-0.552 0-1-0.448-1-1z"></path>
<path d="M13.084 1.241c0.958-0.319 1.971-0.551 3.016-0.551s2.055 0.232 3.087 0.542l0.061 0.018 0.058 0.026c0.915 0.407 1.828 0.855 2.645 1.555 0.715 0.613 1.414 1.294 1.9 2.133 0.465 0.704 0.749 1.389 0.749 2.326 0 2.149 0.197 3.848 0.561 5.125 0.152 0.531-0.156 1.085-0.687 1.236s-1.084-0.156-1.236-0.687c-0.435-1.522-0.639-3.424-0.639-5.675 0-0.45-0.108-0.759-0.432-1.245l-0.019-0.029-0.017-0.030c-0.313-0.548-0.807-1.058-1.483-1.637-0.57-0.489-1.24-0.836-2.097-1.22-0.94-0.279-1.713-0.44-2.452-0.44-0.741 0-1.514 0.162-2.339 0.434-0.91 0.405-1.651 0.746-2.21 1.226-0.676 0.579-1.17 1.089-1.483 1.637l-0.017 0.030-0.019 0.029c-0.324 0.486-0.432 0.796-0.432 1.245v0.037l-0.003 0.036c-0.308 4.211-1.16 6.825-1.91 8.498-0.282 0.63-0.556 1.135-0.75 1.495-0.011 0.021-0.023 0.042-0.033 0.062 0.021 0.005 0.043 0.011 0.066 0.016 0.506 0.121 1.168 0.238 1.873 0.357 0.099 0.017 0.199 0.034 0.299 0.050 0.596 0.101 1.205 0.203 1.711 0.308 0.296 0.061 0.58 0.127 0.82 0.2 0.189 0.057 0.511 0.163 0.758 0.364 1.109 0.894 0.813 2.572-0.383 3.171l-0.011 0.006-8.080 3.791-0.835 0.464c-0.045 0.030-0.085 0.057-0.121 0.082v0.464c0 1.148 0.852 2 2 2h10.8c0.552 0 1 0.448 1 1s-0.448 1-1 1h-10.8c-2.252 0-4-1.748-4-4v-0.8c0-0.576 0.4-0.938 0.523-1.047 0.166-0.147 0.367-0.281 0.5-0.37 0.007-0.005 0.015-0.010 0.022-0.015l0.034-0.023 0.965-0.536 7.86-3.687c-0.127-0.032-0.28-0.067-0.456-0.103-0.467-0.096-1.034-0.192-1.633-0.293-0.102-0.017-0.204-0.034-0.307-0.052-0.695-0.118-1.421-0.245-2.002-0.384-0.288-0.069-0.574-0.148-0.815-0.241-0.12-0.047-0.254-0.106-0.381-0.183-0.114-0.069-0.299-0.197-0.442-0.411l-0.019-0.029-0.017-0.030c-0.238-0.416-0.182-0.831-0.11-1.088 0.068-0.245 0.189-0.488 0.292-0.685 0.059-0.112 0.121-0.228 0.187-0.35 0.192-0.355 0.414-0.766 0.662-1.32 0.649-1.448 1.444-3.824 1.738-7.793 0.008-0.918 0.291-1.593 0.749-2.288 0.486-0.838 1.184-1.519 1.9-2.133 0.812-0.696 1.826-1.147 2.684-1.528 0.020-0.009 0.041-0.018 0.061-0.027l0.044-0.020 0.046-0.015z"></path>
</svg>
