<!-- Generated by IcoMoon.io -->
<svg version="1.1" xmlns="http://www.w3.org/2000/svg" width="32" height="32" viewBox="0 0 32 32">
<title>antenna</title>
<path d="M7.457 3.707c0.391-0.391 0.391-1.024 0-1.414s-1.024-0.391-1.414 0c-5.391 5.391-5.391 14.024 0 19.414 0.391 0.39 1.024 0.39 1.414 0s0.391-1.024 0-1.414c-4.609-4.61-4.609-11.976 0-16.586z"></path>
<path d="M11.457 6.293c0.39 0.391 0.39 1.024 0 1.414-2.409 2.409-2.409 6.176 0 8.586 0.39 0.39 0.39 1.024 0 1.414s-1.024 0.39-1.414 0c-3.191-3.191-3.191-8.224 0-11.414 0.39-0.391 1.024-0.391 1.414 0z"></path>
<path d="M16 9c-1.657 0-3 1.343-3 3 0 1.306 0.835 2.418 2 2.829v13.171h-4c-0.552 0-1 0.448-1 1s0.448 1 1 1h10c0.552 0 1-0.448 1-1s-0.448-1-1-1h-4v-13.171c1.165-0.412 2-1.523 2-2.829 0-1.657-1.343-3-3-3zM15 12c0-0.552 0.448-1 1-1s1 0.448 1 1c0 0.552-0.448 1-1 1s-1-0.448-1-1z"></path>
<path d="M20.293 6.293c0.39-0.391 1.024-0.391 1.414 0 3.191 3.191 3.191 8.224 0 11.414-0.39 0.39-1.024 0.39-1.414 0s-0.39-1.024 0-1.414c2.41-2.409 2.41-6.176 0-8.586-0.39-0.391-0.39-1.024 0-1.414z"></path>
<path d="M25.707 2.293c-0.39-0.391-1.024-0.391-1.414 0s-0.39 1.024 0 1.414c4.61 4.609 4.61 11.976 0 16.586-0.39 0.39-0.39 1.024 0 1.414s1.024 0.39 1.414 0c5.39-5.39 5.39-14.024 0-19.414z"></path>
</svg>
