<!-- Generated by IcoMoon.io -->
<svg version="1.1" xmlns="http://www.w3.org/2000/svg" width="32" height="32" viewBox="0 0 32 32">
<title>app</title>
<path d="M11 6.69c0 0.552-0.448 1-1 1s-1-0.448-1-1c0-0.552 0.448-1 1-1s1 0.448 1 1z"></path>
<path d="M7 7.69c0.552 0 1-0.448 1-1s-0.448-1-1-1c-0.552 0-1 0.448-1 1s0.448 1 1 1z"></path>
<path d="M14 6.69c0 0.552-0.448 1-1 1s-1-0.448-1-1c0-0.552 0.448-1 1-1s1 0.448 1 1z"></path>
<path d="M2 5.69c0-2.252 1.748-4 4-4h20c2.252 0 4 1.748 4 4v20c0 2.252-1.748 4-4 4h-20c-2.252 0-4-1.748-4-4v-20zM6 3.69c-1.148 0-2 0.852-2 2v4h24v-4c0-1.148-0.852-2-2-2h-20zM28 25.69v-14h-24v14c0 1.148 0.852 2 2 2h20c1.148 0 2-0.852 2-2z"></path>
</svg>
