<!-- Generated by IcoMoon.io -->
<svg version="1.1" xmlns="http://www.w3.org/2000/svg" width="32" height="32" viewBox="0 0 32 32">
<title>area</title>
<path d="M8.707 2.983c0.391 0.391 0.391 1.024 0 1.414l-4 4c-0.391 0.391-1.024 0.391-1.414 0s-0.391-1.024 0-1.414l4-4c0.391-0.391 1.024-0.391 1.414 0z"></path>
<path d="M28.707 22.983c0.39 0.39 0.39 1.024 0 1.414l-4 4c-0.39 0.39-1.024 0.39-1.414 0s-0.39-1.024 0-1.414l4-4c0.39-0.39 1.024-0.39 1.414 0z"></path>
<path d="M16.707 2.983c0.39 0.391 0.39 1.024 0 1.414l-12 12c-0.391 0.39-1.024 0.39-1.414 0s-0.391-1.024 0-1.414l12-12c0.39-0.391 1.024-0.391 1.414 0z"></path>
<path d="M28.707 14.983c0.39 0.39 0.39 1.024 0 1.414l-12 12c-0.39 0.39-1.024 0.39-1.414 0s-0.39-1.024 0-1.414l12-12c0.39-0.39 1.024-0.39 1.414 0z"></path>
<path d="M24.707 2.983c0.39 0.391 0.39 1.024 0 1.414l-20 20c-0.391 0.39-1.024 0.39-1.414 0s-0.391-1.024 0-1.414l20-20c0.39-0.391 1.024-0.391 1.414 0z"></path>
<path d="M28.707 6.983c0.39 0.391 0.39 1.024 0 1.414l-20 20c-0.391 0.39-1.024 0.39-1.414 0s-0.391-1.024 0-1.414l20-20c0.39-0.391 1.024-0.391 1.414 0z"></path>
</svg>
