<!-- Generated by IcoMoon.io -->
<svg version="1.1" xmlns="http://www.w3.org/2000/svg" width="32" height="32" viewBox="0 0 32 32">
<title>array-alt</title>
<path d="M25 15.69c0-0.552 0.448-1 1-1h3c0.552 0 1 0.448 1 1s-0.448 1-1 1h-3c-0.552 0-1-0.448-1-1z"></path>
<path d="M2 15.69c0-0.552 0.448-1 1-1h3c0.552 0 1 0.448 1 1s-0.448 1-1 1h-3c-0.552 0-1-0.448-1-1z"></path>
<path d="M16 1.69c0.552 0 1 0.448 1 1v3c0 0.552-0.448 1-1 1s-1-0.448-1-1v-3c0-0.552 0.448-1 1-1z"></path>
<path d="M16 24.69c0.552 0 1 0.448 1 1v3c0 0.552-0.448 1-1 1s-1-0.448-1-1v-3c0-0.552 0.448-1 1-1z"></path>
<path d="M22.393 22.083c0.39-0.39 1.024-0.39 1.414 0l2.1 2.1c0.39 0.39 0.39 1.024 0 1.414s-1.024 0.39-1.414 0l-2.1-2.1c-0.39-0.39-0.39-1.024 0-1.414z"></path>
<path d="M6.093 5.783c0.391-0.391 1.024-0.391 1.414 0l2.1 2.1c0.391 0.391 0.391 1.024 0 1.414s-1.024 0.391-1.414 0l-2.1-2.1c-0.391-0.391-0.391-1.024 0-1.414z"></path>
<path d="M9.607 22.083c0.391 0.39 0.391 1.024 0 1.414l-2.1 2.1c-0.391 0.39-1.024 0.39-1.414 0s-0.391-1.024 0-1.414l2.1-2.1c0.391-0.39 1.024-0.39 1.414 0z"></path>
<path d="M25.907 5.783c0.39 0.391 0.39 1.024 0 1.414l-2.1 2.1c-0.39 0.391-1.024 0.391-1.414 0s-0.39-1.024 0-1.414l2.1-2.1c0.39-0.391 1.024-0.391 1.414 0z"></path>
</svg>
