<!-- Generated by IcoMoon.io -->
<svg version="1.1" xmlns="http://www.w3.org/2000/svg" width="32" height="32" viewBox="0 0 32 32">
<title>arrows-away</title>
<path d="M4 3.69h8c0.552 0 1 0.448 1 1s-0.448 1-1 1h-4.586l5.293 5.293c0.39 0.39 0.39 1.024 0 1.414s-1.024 0.39-1.414 0l-5.293-5.293v4.586c0 0.552-0.448 1-1 1s-1-0.448-1-1v-8z"></path>
<path d="M28 3.69v8c0 0.552-0.448 1-1 1s-1-0.448-1-1v-4.586l-5.293 5.293c-0.39 0.39-1.024 0.39-1.414 0s-0.39-1.024 0-1.414l5.293-5.293h-4.586c-0.552 0-1-0.448-1-1s0.448-1 1-1h8z"></path>
<path d="M26 19.69c0-0.552 0.448-1 1-1s1 0.448 1 1v8h-8c-0.552 0-1-0.448-1-1s0.448-1 1-1h4.586l-5.293-5.293c-0.39-0.39-0.39-1.024 0-1.414s1.024-0.39 1.414 0l5.293 5.293v-4.586z"></path>
<path d="M5 18.69c0.552 0 1 0.448 1 1v4.586l5.293-5.293c0.39-0.39 1.024-0.39 1.414 0s0.39 1.024 0 1.414l-5.293 5.293h4.586c0.552 0 1 0.448 1 1s-0.448 1-1 1h-6.999c-0.001 0-0.001 0-0.002 0h-0.999v-1c0 0 0-0 0 0v-7c0-0.552 0.448-1 1-1z"></path>
</svg>
