<!-- Generated by IcoMoon.io -->
<svg version="1.1" xmlns="http://www.w3.org/2000/svg" width="32" height="32" viewBox="0 0 32 32">
<title>at</title>
<path d="M4 16c0 6.648 5.352 12 12 12 3.312 0 6.271-1.378 8.508-3.522 0.399-0.382 1.032-0.369 1.414 0.030s0.369 1.032-0.030 1.414c-2.563 2.456-6.003 4.078-9.892 4.078-7.752 0-14-6.248-14-14s6.248-14 14-14c7.752 0 14 6.248 14 14 0 2.452-2.048 4.5-4.5 4.5-1.255 0-2.405-0.537-3.227-1.389-1.145 2.305-3.524 3.889-6.273 3.889-3.866 0-7-3.134-7-7s3.134-7 7-7c1.959 0 3.729 0.804 5 2.101v-1.101c0-0.552 0.448-1 1-1s1 0.448 1 1v6c0 1.348 1.152 2.5 2.5 2.5s2.5-1.152 2.5-2.5c0-6.648-5.352-12-12-12s-12 5.352-12 12zM21 16c0-2.761-2.239-5-5-5s-5 2.239-5 5c0 2.761 2.239 5 5 5s5-2.239 5-5z"></path>
</svg>
