<!-- Generated by IcoMoon.io -->
<svg version="1.1" xmlns="http://www.w3.org/2000/svg" width="32" height="32" viewBox="0 0 32 32">
<title>attachment</title>
<path d="M26.293 7.182c-2.91-2.909-7.676-2.909-10.586 0l-11 11c-1.809 1.809-1.809 4.776 0 6.586s4.776 1.809 6.586 0l11-11c0.709-0.71 0.709-1.876 0-2.586s-1.876-0.71-2.586 0l-10 10c-0.391 0.39-1.024 0.39-1.414 0s-0.391-1.024 0-1.414l10-10c1.491-1.491 3.924-1.491 5.414 0s1.491 3.924 0 5.414l-11 11c-2.591 2.59-6.824 2.59-9.414 0s-2.591-6.824 0-9.414l11-11c3.691-3.691 9.724-3.691 13.414 0s3.691 9.724 0 13.414l-10 10c-0.39 0.39-1.024 0.39-1.414 0s-0.39-1.024 0-1.414l10-10c2.91-2.909 2.91-7.676 0-10.586z"></path>
</svg>
