<!-- Generated by IcoMoon.io -->
<svg version="1.1" xmlns="http://www.w3.org/2000/svg" width="32" height="32" viewBox="0 0 32 32">
<title>autover</title>
<path d="M14.27 20.42l2.62-4.19c0.147-0.236 0.195-0.521 0.132-0.792s-0.231-0.506-0.467-0.653-0.521-0.195-0.792-0.132c-0.271 0.063-0.506 0.231-0.653 0.467l-1.73 2.77-1.73-2.77c-0.147-0.236-0.382-0.404-0.653-0.467s-0.556-0.015-0.792 0.132c-0.236 0.147-0.404 0.382-0.467 0.653s-0.015 0.556 0.132 0.792l2.62 4.19c0.084 0.164 0.211 0.301 0.368 0.397s0.338 0.147 0.522 0.147 0.364-0.051 0.522-0.147c0.157-0.096 0.284-0.233 0.368-0.397zM22.21 26.15h2.17c0.136 0.007 0.271-0.014 0.398-0.061s0.243-0.12 0.342-0.213c0.098-0.094 0.176-0.206 0.23-0.331s0.081-0.259 0.081-0.395v-14.71c0.007-0.14-0.015-0.28-0.065-0.41s-0.127-0.249-0.226-0.348c-0.099-0.099-0.218-0.176-0.348-0.226s-0.27-0.072-0.41-0.065h-2.18c-0.279 0-0.546 0.111-0.742 0.308s-0.308 0.464-0.308 0.742 0.111 0.546 0.308 0.742c0.197 0.197 0.464 0.308 0.742 0.308h1.13v12.57h-1.12c-0.277 0-0.543 0.11-0.739 0.306s-0.306 0.462-0.306 0.739c0 0.277 0.11 0.543 0.306 0.739s0.462 0.306 0.739 0.306zM18.090 24.060h-9.42v-12.57h9.42v12.57zM19.14 9.39h-11.52c-0.136-0-0.27 0.027-0.395 0.081s-0.237 0.132-0.331 0.23c-0.094 0.098-0.166 0.214-0.213 0.342s-0.068 0.263-0.061 0.398v14.67c0 0.265 0.105 0.52 0.293 0.707s0.442 0.293 0.707 0.293h11.52c0.136 0.007 0.271-0.014 0.398-0.061s0.243-0.12 0.342-0.213c0.098-0.094 0.176-0.206 0.23-0.331s0.081-0.259 0.081-0.395v-14.67c0.007-0.14-0.015-0.28-0.065-0.41s-0.127-0.249-0.226-0.348c-0.099-0.099-0.218-0.176-0.348-0.226s-0.27-0.072-0.41-0.065zM30.67 4.15v23.050c0 0.413-0.081 0.822-0.24 1.204s-0.391 0.728-0.683 1.020c-0.293 0.292-0.64 0.523-1.022 0.68s-0.791 0.238-1.205 0.236h-23c-0.413 0.001-0.823-0.079-1.205-0.236s-0.729-0.388-1.022-0.68c-0.293-0.292-0.525-0.638-0.683-1.020s-0.24-0.791-0.24-1.204v-18.85c-0-0.829 0.326-1.624 0.908-2.213s1.373-0.926 2.202-0.937h9.42c0.278 0 0.546 0.111 0.742 0.308s0.307 0.464 0.307 0.742c0 0.278-0.111 0.546-0.307 0.742s-0.464 0.308-0.742 0.308h-9.42c-0.135-0.007-0.271 0.014-0.398 0.061s-0.243 0.12-0.342 0.213c-0.098 0.094-0.176 0.206-0.23 0.331s-0.081 0.259-0.081 0.395v18.9c-0 0.136 0.027 0.27 0.081 0.395s0.132 0.237 0.23 0.331c0.098 0.093 0.214 0.166 0.342 0.213s0.263 0.068 0.398 0.061h23c0.136 0.007 0.271-0.014 0.398-0.061s0.243-0.12 0.342-0.213c0.098-0.094 0.176-0.206 0.23-0.331s0.081-0.259 0.081-0.395v-23c0-0.136-0.027-0.27-0.081-0.395s-0.131-0.237-0.23-0.331c-0.098-0.094-0.215-0.166-0.342-0.213s-0.263-0.068-0.398-0.061h-25.1c-0.278 0-0.546-0.111-0.742-0.308s-0.308-0.464-0.308-0.742c0-0.278 0.111-0.546 0.308-0.742s0.464-0.308 0.742-0.308h25.14c0.835 0 1.637 0.332 2.227 0.923s0.923 1.392 0.923 2.227v-0.1z"></path>
</svg>
