<!-- Generated by IcoMoon.io -->
<svg version="1.1" xmlns="http://www.w3.org/2000/svg" width="32" height="32" viewBox="0 0 32 32">
<title>award-alt</title>
<path d="M15.327 1.95l-1.804 1.64-2.281-0.57c-0.511-0.128-1.033 0.163-1.194 0.664l-0.743 2.311-2.311 0.743c-0.501 0.161-0.792 0.684-0.664 1.195l0.57 2.281-1.64 1.804c-0.347 0.382-0.347 0.964 0 1.345l1.64 1.804-0.57 2.281c-0.085 0.34 0.015 0.686 0.24 0.926l-3.337 5.819c-0.188 0.328-0.175 0.735 0.034 1.050s0.579 0.486 0.955 0.44l4.159-0.509 1.702 3.915c0.15 0.346 0.483 0.578 0.86 0.6s0.733-0.17 0.923-0.497l3.382-5.834 0.080 0.073c0.381 0.347 0.964 0.347 1.345 0l0.080-0.073 3.382 5.834c0.189 0.326 0.546 0.519 0.923 0.497s0.709-0.254 0.86-0.6l1.702-3.915 4.159 0.509c0.376 0.046 0.745-0.124 0.955-0.44s0.223-0.722 0.034-1.050l-3.337-5.819c0.225-0.24 0.325-0.586 0.24-0.926l-0.57-2.281 1.64-1.804c0.347-0.381 0.347-0.964 0-1.345l-1.64-1.804 0.57-2.281c0.128-0.511-0.163-1.033-0.664-1.195l-2.311-0.743-0.743-2.311c-0.161-0.501-0.684-0.792-1.195-0.664l-2.281 0.57-1.804-1.64c-0.381-0.347-0.964-0.347-1.345 0zM8.505 17.027c-0.003-0.002-0.005-0.003-0.008-0.004l0.473-1.89c0.081-0.324-0.005-0.668-0.23-0.915l-1.388-1.527 1.388-1.527c0.225-0.247 0.311-0.591 0.23-0.915l-0.473-1.892 1.909-0.614c0.307-0.099 0.547-0.339 0.646-0.646l0.614-1.909 1.892 0.473c0.324 0.081 0.668-0.005 0.915-0.23l1.527-1.388 1.527 1.388c0.247 0.225 0.591 0.311 0.915 0.23l1.892-0.473 0.614 1.909c0.099 0.307 0.339 0.547 0.646 0.646l1.909 0.614-0.473 1.892c-0.081 0.324 0.005 0.668 0.23 0.915l1.388 1.527-1.388 1.527c-0.225 0.247-0.311 0.591-0.23 0.915l0.473 1.89-0.008 0.004-1.901 0.611c-0.307 0.099-0.547 0.339-0.646 0.646l-0.614 1.909-1.892-0.473c-0.324-0.081-0.668 0.005-0.915 0.23l-1.527 1.388-1.527-1.388c-0.247-0.225-0.591-0.311-0.915-0.23l-1.892 0.473-0.614-1.909c-0.099-0.307-0.339-0.547-0.646-0.646l-1.901-0.611zM8.453 19.111l0.853 0.274 0.743 2.311c0.161 0.501 0.684 0.792 1.194 0.664l2.281-0.57 0.21 0.191-2.606 4.495-1.211-2.785c-0.177-0.406-0.599-0.648-1.039-0.594l-2.917 0.357 2.491-4.344zM26.039 23.455l-2.917-0.357c-0.439-0.054-0.862 0.188-1.039 0.594l-1.211 2.785-2.606-4.495 0.21-0.191 2.281 0.57c0.511 0.128 1.033-0.163 1.195-0.664l0.743-2.311 0.852-0.274 2.491 4.344z"></path>
</svg>
