<!-- Generated by IcoMoon.io -->
<svg version="1.1" xmlns="http://www.w3.org/2000/svg" width="32" height="32" viewBox="0 0 32 32">
<title>award</title>
<path d="M16 7c-2.761 0-5 2.239-5 5s2.239 5 5 5c2.761 0 5-2.239 5-5s-2.239-5-5-5zM13 12c0-1.657 1.343-3 3-3s3 1.343 3 3c0 1.657-1.343 3-3 3s-3-1.343-3-3z"></path>
<path d="M6 12c0-5.523 4.477-10 10-10s10 4.477 10 10c0 2.777-1.132 5.29-2.96 7.102l2.293 11.466-9.333-3.5-9.333 3.5 2.293-11.466c-1.828-1.812-2.96-4.325-2.96-7.102zM16 4c-4.418 0-8 3.582-8 8s3.582 8 8 8c4.418 0 8-3.582 8-8s-3.582-8-8-8zM10.721 20.495l-1.387 6.937 5.667-2.125v-3.356c-1.56-0.155-3.014-0.668-4.279-1.456zM22.667 27.432l-1.387-6.937c-1.265 0.788-2.72 1.301-4.279 1.456v3.356l5.667 2.125z"></path>
</svg>
