<!-- Generated by IcoMoon.io -->
<svg version="1.1" xmlns="http://www.w3.org/2000/svg" width="32" height="32" viewBox="0 0 32 32">
<title>balance</title>
<path d="M14.25 5.969c0.182 0.328 0.454 0.6 0.782 0.782-0.021 0.080-0.031 0.163-0.031 0.25v21h-4c-0.552 0-1 0.448-1 1s0.448 1 1 1h10c0.552 0 1-0.448 1-1s-0.448-1-1-1h-4v-21c0-0.086-0.011-0.17-0.031-0.25 0.328-0.182 0.6-0.454 0.782-0.782 0.080 0.021 0.164 0.031 0.25 0.031h4.196l-4.036 6.457c-0.101 0.156-0.16 0.343-0.16 0.543 0 3.352 2.648 6 6 6 3.351 0 5.998-2.646 6-5.997v-0.007c-0.001-0.183-0.052-0.365-0.152-0.526l-4.991-7.985c-0.029-0.048-0.062-0.093-0.098-0.136-0.033-0.038-0.068-0.074-0.106-0.106-0.175-0.151-0.404-0.243-0.653-0.243h-6c-0.086 0-0.17 0.011-0.25 0.031-0.341-0.615-0.997-1.031-1.75-1.031s-1.409 0.416-1.75 1.031c-0.080-0.021-0.164-0.031-0.25-0.031h-6c-0.251 0-0.48 0.093-0.656 0.245-0.036 0.031-0.070 0.065-0.101 0.101-0.037 0.043-0.071 0.089-0.1 0.138l-4.983 7.972c-0.101 0.156-0.16 0.343-0.16 0.543 0 3.352 2.648 6 6 6 3.351 0 5.998-2.646 6-5.997v-0.007c-0.001-0.183-0.052-0.365-0.152-0.526l-4.044-6.47h4.196c0.086 0 0.17-0.011 0.25-0.031zM4.12 14h7.759c-0.432 1.746-1.979 3-3.88 3s-3.448-1.254-3.88-3zM11.196 12h-6.392l3.196-5.113 3.196 5.113zM24 17c-1.901 0-3.448-1.254-3.88-3h7.759c-0.432 1.746-1.979 3-3.88 3zM20.804 12l3.196-5.113 3.196 5.113h-6.392z"></path>
</svg>
