<!-- Generated by IcoMoon.io -->
<svg version="1.1" xmlns="http://www.w3.org/2000/svg" width="32" height="32" viewBox="0 0 32 32">
<title>bank</title>
<path d="M16.6 2.2l12 9c0.344 0.258 0.485 0.708 0.349 1.116s-0.518 0.684-0.949 0.684h-3v10h2c0.552 0 1 0.448 1 1s-0.448 1-1 1h-22c-0.552 0-1-0.448-1-1s0.448-1 1-1h2v-10h-4c-0.437 0-0.824-0.284-0.954-0.702s0.026-0.871 0.385-1.12l13-9c0.354-0.245 0.825-0.236 1.169 0.022zM25 11l-9.023-6.768-9.775 6.768h18.799zM23 13h-2v10h2v-10zM19 13h-2v10h2v-10zM13 23h2v-10h-2v10zM11 13h-2v10h2v-10z"></path>
<path d="M2 28c0-0.552 0.448-1 1-1h26c0.552 0 1 0.448 1 1s-0.448 1-1 1h-26c-0.552 0-1-0.448-1-1z"></path>
</svg>
