<!-- Generated by IcoMoon.io -->
<svg version="1.1" xmlns="http://www.w3.org/2000/svg" width="32" height="32" viewBox="0 0 32 32">
<title>barrier-up</title>
<path d="M7 23.222c0-0.552 0.448-1 1-1h4c0.552 0 1 0.448 1 1s-0.448 1-1 1h-4c-0.552 0-1-0.448-1-1z"></path>
<path d="M14.991 8.758c-0.58-0.346-1.262-0.536-1.991-0.536h-6c-2.252 0-4 1.748-4 4v15c-0.552 0-1 0.448-1 1s0.448 1 1 1h14c0.552 0 1-0.448 1-1s-0.448-1-1-1v-12.464l8.414-6.346c1.299-1.010 1.643-2.831 0.576-4.203-1.009-1.297-2.826-1.641-4.197-0.58l-0.734 0.554c-0.041 0.027-0.081 0.056-0.118 0.089l-4.576 3.452c-0.117 0.057-0.223 0.137-0.31 0.234l-1.063 0.802zM23.014 5.211c0.428-0.333 1.007-0.276 1.397 0.225 0.332 0.427 0.277 1.003-0.219 1.393l-2.061 1.555 0.401-2.808 0.483-0.364zM20.267 7.284l-0.401 2.808-2.539 1.915 0.401-2.808 2.539-1.915zM13.049 10.223l-2.674 2.017c-0.123-0.011-0.248-0.017-0.375-0.017-2.209 0-4 1.791-4 4s1.791 4 4 4c1.91 0 3.508-1.339 3.905-3.13l1.095-0.826v10.956h-10v-15c0-1.148 0.852-2 2-2h6c0.016 0 0.033 0 0.049 0.001zM15.455 10.913c0.003-0.001 0.006-0.003 0.008-0.004l-0.401 2.805-1.349 1.018c-0.254-0.633-0.666-1.186-1.186-1.611l2.928-2.208zM10.181 14.23c0.14 0.064 0.292 0.095 0.445 0.092 0.798 0.263 1.374 1.014 1.374 1.9 0 1.105-0.895 2-2 2s-2-0.895-2-2c0-1.105 0.895-2 2-2 0.061 0 0.121 0.003 0.181 0.008z"></path>
</svg>
