<!-- Generated by IcoMoon.io -->
<svg version="1.1" xmlns="http://www.w3.org/2000/svg" width="32" height="32" viewBox="0 0 32 32">
<title>bathroom</title>
<path d="M9 4c-1.148 0-2 0.852-2 2v9h23.309l-2.753 10.094c-0.49 1.592-1.824 2.773-3.556 2.895v1.011c0 0.552-0.448 1-1 1s-1-0.448-1-1v-1h-12v1c0 0.552-0.448 1-1 1s-1-0.448-1-1v-1.011c-1.732-0.123-3.066-1.304-3.556-2.895l-0.005-0.015-2.749-10.079h3.309v-9c0-2.252 1.748-4 4-4h3c2.252 0 4 1.748 4 4h2c0.552 0 1 0.448 1 1s-0.448 1-1 1h-6c-0.552 0-1-0.448-1-1s0.448-1 1-1h2c0-1.148-0.852-2-2-2h-3zM23.7 26c0.919 0 1.654-0.57 1.94-1.48l2.051-7.52h-23.382l2.051 7.52c0.286 0.909 1.021 1.48 1.94 1.48h15.4z"></path>
<path d="M13 11c0.552 0 1-0.448 1-1s-0.448-1-1-1c-0.552 0-1 0.448-1 1s0.448 1 1 1z"></path>
<path d="M18 10c0 0.552-0.448 1-1 1s-1-0.448-1-1c0-0.552 0.448-1 1-1s1 0.448 1 1z"></path>
<path d="M13 14c0.552 0 1-0.448 1-1s-0.448-1-1-1c-0.552 0-1 0.448-1 1s0.448 1 1 1z"></path>
<path d="M18 13c0 0.552-0.448 1-1 1s-1-0.448-1-1c0-0.552 0.448-1 1-1s1 0.448 1 1z"></path>
</svg>
