<!-- Generated by IcoMoon.io -->
<svg version="1.1" xmlns="http://www.w3.org/2000/svg" width="32" height="32" viewBox="0 0 32 32">
<title>battery-charging</title>
<path d="M13.868 9.496c0.274-0.48 0.107-1.090-0.372-1.364s-1.090-0.107-1.364 0.372l-4.855 8.496h8l-3.145 5.504c-0.274 0.48-0.107 1.090 0.372 1.364s1.090 0.107 1.364-0.372l4.855-8.496h-8l3.145-5.504z"></path>
<path d="M27 13h-1v6h1c1.652 0 3-1.348 3-3s-1.348-3-3-3z"></path>
<path d="M16 10c0-0.552 0.448-1 1-1h3c2.252 0 4 1.748 4 4v6c0 2.252-1.748 4-4 4h-2c-0.552 0-1-0.448-1-1s0.448-1 1-1h2c1.148 0 2-0.852 2-2v-6c0-1.148-0.852-2-2-2h-3c-0.552 0-1-0.448-1-1z"></path>
<path d="M4 13c0-1.148 0.852-2 2-2h2c0.552 0 1-0.448 1-1s-0.448-1-1-1h-2c-2.252 0-4 1.748-4 4v6c0 2.252 1.748 4 4 4h3c0.552 0 1-0.448 1-1s-0.448-1-1-1h-3c-1.148 0-2-0.852-2-2v-6z"></path>
</svg>
