<!-- Generated by IcoMoon.io -->
<svg version="1.1" xmlns="http://www.w3.org/2000/svg" width="32" height="32" viewBox="0 0 32 32">
<title>bell-alt</title>
<path d="M17 3c0-0.552-0.448-1-1-1s-1 0.448-1 1v1.056c-4.486 0.501-8 4.33-8 8.944v8.586l-2.707 2.707c-0.286 0.286-0.372 0.716-0.217 1.090s0.519 0.617 0.924 0.617h6.101c0.466 2.276 2.489 4 4.899 4s4.433-1.724 4.899-4h6.101c0.404 0 0.769-0.244 0.924-0.617s0.069-0.804-0.217-1.090l-2.707-2.707v-8.586c0-4.614-3.514-8.443-8-8.944v-1.056zM16 28c-1.298 0-2.412-0.839-2.827-2h5.654c-0.415 1.161-1.529 2-2.827 2zM24.586 24h-17.172l1.293-1.293c0.188-0.188 0.293-0.442 0.293-0.707v-9c0-3.848 3.152-7 7-7s7 3.152 7 7v9c0 0.265 0.105 0.52 0.293 0.707l1.293 1.293z"></path>
</svg>
