<!-- Generated by IcoMoon.io -->
<svg version="1.1" xmlns="http://www.w3.org/2000/svg" width="32" height="32" viewBox="0 0 32 32">
<title>bill</title>
<path d="M6 14c0.552 0 1 0.448 1 1v1c0 0.552-0.448 1-1 1s-1-0.448-1-1v-1c0-0.552 0.448-1 1-1z"></path>
<path d="M27 15c0-0.552-0.448-1-1-1s-1 0.448-1 1v1c0 0.552 0.448 1 1 1s1-0.448 1-1v-1z"></path>
<path d="M1 8v16h30v-16h-30zM11.364 10c-1.468 1.491-2.364 3.665-2.364 6s0.896 4.509 2.364 6h-8.364v-12h8.364zM16 22c-2.622 0-5-2.536-5-6s2.378-6 5-6c2.622 0 5 2.536 5 6s-2.378 6-5 6zM20.636 22c1.468-1.491 2.364-3.665 2.364-6s-0.896-4.509-2.364-6h8.364v12h-8.364z"></path>
</svg>
