<!-- Generated by IcoMoon.io -->
<svg version="1.1" xmlns="http://www.w3.org/2000/svg" width="32" height="32" viewBox="0 0 32 32">
<title>bills</title>
<path d="M19.293 2.293c0.39-0.391 1.024-0.391 1.414 0l9.221 9.221-3.335 3.207c-0.398 0.383-1.031 0.37-1.414-0.028s-0.37-1.031 0.028-1.414l1.865-1.793-7.072-7.072-5.298 5.298c0.083 0.014 0.166 0.029 0.249 0.046 1.492 0.307 3.030 1.165 4.34 2.42l0.008 0.007 0.055 0.055c0.363 0.363 0.766 0.765 1.040 1.313 0.247 0.494 0.047 1.095-0.447 1.342s-1.095 0.047-1.342-0.447c-0.114-0.227-0.286-0.413-0.705-0.832-1.088-1.040-2.296-1.681-3.352-1.898-1.058-0.218-1.849-0.001-2.34 0.489l-0.247 0.247c-0.284 0.346-0.428 0.833-0.367 1.448 0.055 0.55-0.346 1.040-0.896 1.095-0.357 0.036-0.69-0.121-0.893-0.387l-0.099 0.099c-0.391 0.39-1.024 0.39-1.414 0s-0.391-1.024 0-1.414l2.193-2.193c0.102-0.116 0.212-0.227 0.332-0.332l8.475-8.475z"></path>
<path d="M7 21c0.552 0 1 0.448 1 1v1c0 0.552-0.448 1-1 1s-1-0.448-1-1v-1c0-0.552 0.448-1 1-1z"></path>
<path d="M24 22c0-0.552-0.448-1-1-1s-1 0.448-1 1v1c0 0.552 0.448 1 1 1s1-0.448 1-1v-1z"></path>
<path d="M2 16v14h26v-14h-26zM11.48 18c-0.048 0.067-0.095 0.134-0.141 0.203-0.848 1.271-1.339 2.971-1.339 4.797s0.492 3.526 1.339 4.797c0.046 0.069 0.093 0.136 0.141 0.203h-7.48v-10h7.48zM15 28c-0.666 0-1.392-0.405-1.996-1.312-0.6-0.9-1.004-2.201-1.004-3.688s0.404-2.788 1.004-3.688c0.605-0.907 1.33-1.312 1.996-1.312s1.392 0.405 1.996 1.312c0.6 0.9 1.004 2.201 1.004 3.688s-0.404 2.788-1.004 3.688c-0.605 0.907-1.33 1.312-1.996 1.312zM18.52 28c0.048-0.067 0.095-0.134 0.141-0.203 0.848-1.271 1.34-2.971 1.34-4.797s-0.492-3.526-1.34-4.797c-0.046-0.069-0.093-0.136-0.141-0.203h7.48v10h-7.48z"></path>
<path d="M21.407 8.693c-0.39-0.391-1.024-0.391-1.414 0s-0.39 1.024 0 1.414l0.7 0.7c0.39 0.39 1.024 0.39 1.414 0s0.39-1.024 0-1.414l-0.7-0.7z"></path>
</svg>
