<!-- Generated by IcoMoon.io -->
<svg version="1.1" xmlns="http://www.w3.org/2000/svg" width="32" height="32" viewBox="0 0 32 32">
<title>bin-full</title>
<path d="M13 14c0.552 0 1 0.448 1 1v7c0 0.552-0.448 1-1 1s-1-0.448-1-1v-7c0-0.552 0.448-1 1-1z"></path>
<path d="M20 15c0-0.552-0.448-1-1-1s-1 0.448-1 1v7c0 0.552 0.448 1 1 1s1-0.448 1-1v-7z"></path>
<path d="M13 2h6c2.252 0 4 1.748 4 4v1h5c0.552 0 1 0.448 1 1s-0.448 1-1 1h-2v17c0 2.252-1.748 4-4 4h-12c-2.252 0-4-1.748-4-4v-17h-2c-0.552 0-1-0.448-1-1s0.448-1 1-1h5v-1c0-2.252 1.748-4 4-4zM21 7v-1c0-1.148-0.852-2-2-2h-6c-1.148 0-2 0.852-2 2v1h10zM8 9v17c0 1.148 0.852 2 2 2h12c1.148 0 2-0.852 2-2v-17h-16z"></path>
</svg>
