<!-- Generated by IcoMoon.io -->
<svg version="1.1" xmlns="http://www.w3.org/2000/svg" width="32" height="32" viewBox="0 0 32 32">
<title>bitbucket</title>
<path d="M15.42 1.020h1.37l1.36 0.060c0.582 0.017 1.163 0.064 1.74 0.14 0.57 0.060 1 0.11 1.53 0.2 0.67 0.1 1.34 0.23 2 0.39 0.949 0.214 1.876 0.515 2.77 0.9h-0.1c0.559 0.233 1.086 0.535 1.57 0.9 0.338 0.236 0.624 0.539 0.84 0.89 0.166 0.245 0.253 0.534 0.25 0.83 0.005 0.067 0.005 0.133 0 0.2l-0.16 1c-0.11 0.78-0.23 1.56-0.36 2.32-0.15 0.93-0.31 1.85-0.45 2.77s-0.36 2.070-0.55 3.070c-0.19 1-0.37 2.15-0.55 3.22-0.060 0.371-0.223 0.717-0.47 1-0.102 0.127-0.212 0.247-0.33 0.36-0.469 0.402-0.99 0.739-1.55 1-0.812 0.422-1.667 0.757-2.55 1h-0.090c-1.024 0.281-2.072 0.469-3.13 0.56h-0.070c-0.56 0.050-1.13 0.090-1.68 0.11h-0.92c-1.003-0.002-2.005-0.069-3-0.2h0.11c-0.66-0.090-1.32-0.2-2-0.34-0.934-0.201-1.845-0.496-2.72-0.88h0.090c-0.938-0.359-1.789-0.911-2.5-1.62-0.216-0.227-0.371-0.506-0.45-0.81l-0.42-1.66c-0.11-0.6-0.24-1.41-0.35-2.12s-0.24-1.34-0.35-2.060c-0.11-0.72-0.17-1.17-0.3-1.76s-0.16-1.18-0.26-1.8l-0.26-1.6c-0.090-0.54-0.16-1-0.23-1.62v-0.48c0.035-0.239 0.12-0.467 0.25-0.67 0.213-0.315 0.481-0.589 0.79-0.81 0.525-0.383 1.101-0.693 1.71-0.92 0.778-0.325 1.581-0.589 2.4-0.79h0.12c0.69-0.17 1.38-0.3 2.060-0.41l1-0.13 1-0.1 0.65-0.050 1-0.070h1.27l-0.080-0.020zM15.95 3.020c-0.764-0.013-1.529 0.014-2.29 0.080-0.76 0.090-1.22 0.090-1.84 0.17s-1 0.14-1.62 0.26c-0.519 0.102-1.027 0.249-1.52 0.44h0.060c-0.203 0.077-0.395 0.181-0.57 0.31-0.106 0.069-0.197 0.157-0.27 0.26-0.038 0.043-0.065 0.095-0.080 0.15 0.001 0.086 0.029 0.17 0.080 0.24 0.010 0.076 0.045 0.146 0.1 0.2 0.104 0.081 0.215 0.155 0.33 0.22 0.315 0.177 0.651 0.314 1 0.41 0.824 0.237 1.667 0.401 2.52 0.49h0.15c0.49 0 1 0.1 1.49 0.13s1 0.060 1.57 0.070c1.2 0 2.41 0 3.59-0.080l1.19-0.1 1.42-0.21c0.549-0.080 1.091-0.204 1.62-0.37h-0.080c0.337-0.086 0.655-0.231 0.94-0.43 0.098-0.066 0.186-0.147 0.26-0.24 0.079-0.091 0.122-0.209 0.12-0.33-0.012-0.094-0.054-0.182-0.12-0.25-0.082-0.085-0.169-0.165-0.26-0.24-0.203-0.146-0.425-0.264-0.66-0.35-0.648-0.237-1.318-0.408-2-0.51h-0.080c-0.5-0.080-1-0.14-1.53-0.19s-1.28-0.11-1.92-0.14c-0.64-0.030-1 0-1.54 0l-0.060 0.010zM12 15.2c0.009 0.288 0.039 0.576 0.090 0.86 0.169 0.918 0.663 1.745 1.39 2.33 0.536 0.44 1.183 0.723 1.87 0.82 0.215 0.033 0.432 0.049 0.65 0.050 0.735-0.002 1.455-0.207 2.081-0.591s1.134-0.934 1.469-1.589c0.286-0.529 0.44-1.119 0.45-1.72v-0.12c0.003-0.29-0.031-0.579-0.1-0.86-0.104-0.577-0.338-1.123-0.685-1.596s-0.796-0.861-1.315-1.134c-0.588-0.297-1.241-0.441-1.9-0.42h-0.51c-0.603 0.047-1.187 0.24-1.7 0.56-0.575 0.357-1.051 0.855-1.381 1.446s-0.506 1.257-0.509 1.934l0.1 0.030zM17.1 30.28c0.634-0.017 1.266-0.084 1.89-0.2 0.735-0.117 1.46-0.288 2.17-0.51h-0.11c0.646-0.188 1.27-0.447 1.86-0.77 0.39-0.222 0.747-0.498 1.060-0.82 0.261-0.251 0.459-0.559 0.58-0.9 0.018-0.132 0.045-0.262 0.080-0.39 0.15-0.85 0.3-1.7 0.47-2.56s0.29-1.49 0.42-2.24c0.005-0.020 0.005-0.040 0-0.060 0-0.067-0.024-0.131-0.068-0.181s-0.105-0.082-0.172-0.089h-0.080c-0.122 0-0.241 0.038-0.34 0.11l-0.64 0.47c-0.943 0.557-1.951 0.997-3 1.31h-0.1c-1.035 0.324-2.101 0.538-3.18 0.64h-0.070c-0.46 0-1 0.080-1.52 0.090h-1c-0.379 0.014-0.758-0.017-1.13-0.090-0.538-0.045-1.072-0.125-1.6-0.24h0.1c-1.174-0.225-2.318-0.584-3.41-1.070h0.1c-0.706-0.315-1.376-0.704-2-1.16-0.134-0.036-0.275-0.040-0.41-0.010h-0.1c-0.102-0.001-0.2 0.035-0.278 0.101s-0.128 0.158-0.142 0.259c-0.005 0.053-0.005 0.107 0 0.16-0.010 0.056-0.010 0.114 0 0.17l0.52 2.47c0.1 0.59 0.21 1.17 0.32 1.74-0.012 0.177 0.015 0.355 0.080 0.52 0.105 0.382 0.313 0.727 0.6 1 0.325 0.323 0.696 0.595 1.1 0.81 0.633 0.346 1.304 0.618 2 0.81h0.070c0.982 0.275 1.985 0.462 3 0.56h0.070c0.58 0.060 1.16 0.080 1.73 0.090h1.12l0.010-0.020zM18 14.96c-0.015-0.53-0.239-1.033-0.625-1.398s-0.9-0.562-1.43-0.547-1.033 0.239-1.398 0.625c-0.365 0.385-0.562 0.9-0.547 1.43-0.005 0.040-0.005 0.080 0 0.12 0.015 0.53 0.239 1.033 0.625 1.398s0.9 0.561 1.43 0.547 1.033-0.239 1.398-0.625c0.365-0.385 0.561-0.9 0.547-1.43 0 0 0-0.070 0-0.11v-0.010z"></path>
</svg>
