<!-- Generated by IcoMoon.io -->
<svg version="1.1" xmlns="http://www.w3.org/2000/svg" width="32" height="32" viewBox="0 0 32 32">
<title>book-open-text</title>
<path d="M6 10c0-0.552 0.448-1 1-1h5c0.552 0 1 0.448 1 1s-0.448 1-1 1h-5c-0.552 0-1-0.448-1-1z"></path>
<path d="M7 13c-0.552 0-1 0.448-1 1s0.448 1 1 1h5c0.552 0 1-0.448 1-1s-0.448-1-1-1h-5z"></path>
<path d="M6 18c0-0.552 0.448-1 1-1h5c0.552 0 1 0.448 1 1s-0.448 1-1 1h-5c-0.552 0-1-0.448-1-1z"></path>
<path d="M7 21c-0.552 0-1 0.448-1 1s0.448 1 1 1h5c0.552 0 1-0.448 1-1s-0.448-1-1-1h-5z"></path>
<path d="M19 10c0-0.552 0.448-1 1-1h5c0.552 0 1 0.448 1 1s-0.448 1-1 1h-5c-0.552 0-1-0.448-1-1z"></path>
<path d="M20 13c-0.552 0-1 0.448-1 1s0.448 1 1 1h5c0.552 0 1-0.448 1-1s-0.448-1-1-1h-5z"></path>
<path d="M19 18c0-0.552 0.448-1 1-1h5c0.552 0 1 0.448 1 1s-0.448 1-1 1h-5c-0.552 0-1-0.448-1-1z"></path>
<path d="M20 21c-0.552 0-1 0.448-1 1s0.448 1 1 1h5c0.552 0 1-0.448 1-1s-0.448-1-1-1h-5z"></path>
<path d="M13 5c1.21 0 2.274 0.504 3 1.32 0.726-0.816 1.79-1.32 3-1.32h11v22h-11c-1.148 0-2 0.852-2 2 0 0.552-0.448 1-1 1s-1-0.448-1-1c0-1.148-0.852-2-2-2h-11v-22h11zM15 9c0-1.148-0.852-2-2-2h-9v18h9c0.735 0 1.416 0.186 2 0.515v-16.515zM17 9v16.515c0.584-0.329 1.265-0.515 2-0.515h9v-18h-9c-1.148 0-2 0.852-2 2z"></path>
</svg>
