<!-- Generated by IcoMoon.io -->
<svg version="1.1" xmlns="http://www.w3.org/2000/svg" width="32" height="32" viewBox="0 0 32 32">
<title>bricks</title>
<path d="M18.985 1l-2.257 2.257-1.081-1.081-7.071 7.071 7.124 7.124h-0.1c-1.152 0-2.1 0.948-2.1 2.1v1h-3.9v-1.1c0-1.152-0.948-2.1-2.1-2.1h-2.1c-1.152 0-2.1 0.948-2.1 2.1v1.1h-1.5v10h19.6v-7.4l1.742 1.742 7.071-7.071-1.208-1.208 2.242-2.243-4.384-4.384-2.242 2.243-3.51-3.51 2.257-2.257-4.384-4.384zM17.7 18.371l0 1.1h-2.2v-1c0-0.017 0.007-0.043 0.032-0.068s0.050-0.032 0.068-0.032h2.1zM14.502 21.471h4.898v6h-15.6v-6h10.698c0.001 0 0.001 0 0.002 0s0.001 0 0.002 0zM23.207 12.565l-0.020 0.020 4.178 4.178-4.223 4.222-11.738-11.738 4.237-4.237 4.051 4.051 0.006-0.005 3.51 3.51zM27.591 14.121l-1.556-1.556 0.828-0.828 1.556 1.556-0.828 0.828zM20.541 5.384l-0.843 0.843-1.556-1.556 0.843-0.843 1.556 1.556zM7.6 18.371v1.1h-2.3v-1.1c0-0.017 0.007-0.043 0.032-0.068s0.050-0.032 0.068-0.032h2.1c0.017 0 0.043 0.007 0.068 0.032s0.032 0.050 0.032 0.068z"></path>
</svg>
