<!-- Generated by IcoMoon.io -->
<svg version="1.1" xmlns="http://www.w3.org/2000/svg" width="32" height="32" viewBox="0 0 32 32">
<title>bucket</title>
<path d="M18 2c0.552 0 1 0.448 1 1v4.586l10.414 10.414h-7.034l-8.695 7.729c-1.569 1.546-4.099 1.589-5.606-0.036l-4.786-4.786c-1.567-1.567-1.619-4.114 0.014-5.628l11.693-11.693 2 2v-2.586c0-0.552 0.448-1 1-1zM17 8.414l-2-2-10.324 10.323c-0.75 0.687-0.796 1.928 0.031 2.756l4.83 4.831c0.687 0.75 1.928 0.796 2.756-0.031l0.021-0.021 9.306-8.272h2.966l-5.586-5.586v2.586c0 0.552-0.448 1-1 1s-1-0.448-1-1v-4.586z"></path>
<path d="M25.419 21.068l0.681-0.634 0.721 0.672c0.024 0.023 0.058 0.055 0.1 0.096 0.085 0.082 0.204 0.2 0.347 0.346 0.285 0.291 0.667 0.699 1.052 1.164 0.382 0.461 0.784 0.998 1.096 1.547 0.297 0.522 0.584 1.177 0.584 1.841 0 2.152-1.748 3.9-3.9 3.9s-3.9-1.748-3.9-3.9c0-0.665 0.287-1.319 0.584-1.841 0.312-0.548 0.714-1.086 1.096-1.547 0.385-0.465 0.767-0.873 1.052-1.164 0.143-0.146 0.262-0.264 0.347-0.346 0.042-0.041 0.076-0.073 0.1-0.096l0.028-0.026 0.008-0.007 0.004-0.004zM26.1 21.8l-0.681-0.732c0 0 0 0 0.681 0.732zM26.1 23.219c-0.209 0.223-0.445 0.485-0.68 0.769-0.343 0.414-0.666 0.852-0.898 1.259-0.247 0.434-0.322 0.717-0.322 0.853 0 1.048 0.852 1.9 1.9 1.9s1.9-0.852 1.9-1.9c0-0.135-0.076-0.419-0.322-0.853-0.232-0.408-0.555-0.845-0.898-1.259-0.235-0.283-0.471-0.546-0.68-0.769z"></path>
</svg>
