<!-- Generated by IcoMoon.io -->
<svg version="1.1" xmlns="http://www.w3.org/2000/svg" width="32" height="32" viewBox="0 0 32 32">
<title>bug</title>
<path d="M12 3c0 1.648 1.352 3 3 3h2c1.648 0 3-1.352 3-3 0-0.552 0.448-1 1-1s1 0.448 1 1c0 1.61-0.769 3.048-1.959 3.963 2.622 1.328 4.517 3.902 4.891 6.932 1.782-0.408 3.068-1.97 3.068-3.896 0-0.552 0.448-1 1-1s1 0.448 1 1c0 3.011-2.136 5.454-5 5.92v2.080h4c0.552 0 1 0.448 1 1s-0.448 1-1 1h-4v2.080c2.864 0.466 5 2.909 5 5.92 0 0.552-0.448 1-1 1s-1-0.448-1-1c0-1.932-1.295-3.499-3.087-3.9-0.531 3.334-3.435 5.9-6.913 5.9h-4c-3.478 0-6.382-2.566-6.913-5.9-1.792 0.401-3.087 1.968-3.087 3.9 0 0.552-0.448 1-1 1s-1-0.448-1-1c0-3.011 2.136-5.453 5-5.92v-2.080h-4c-0.552 0-1-0.448-1-1s0.448-1 1-1h4v-2.080c-2.864-0.466-5-2.909-5-5.92 0-0.552 0.448-1 1-1s1 0.448 1 1c0 1.926 1.286 3.488 3.068 3.896 0.375-3.030 2.269-5.605 4.891-6.932-1.19-0.916-1.959-2.353-1.959-3.963 0-0.552 0.448-1 1-1s1 0.448 1 1zM23 16h-6v12h1c2.748 0 5-2.252 5-5v-7zM15 28v-12h-6v7c0 2.748 2.252 5 5 5h1zM9.072 14h13.856c-0.489-3.379-3.42-6-6.928-6s-6.439 2.621-6.928 6z"></path>
</svg>
