<!-- Generated by IcoMoon.io -->
<svg version="1.1" xmlns="http://www.w3.org/2000/svg" width="32" height="32" viewBox="0 0 32 32">
<title>cache</title>
<path d="M19.707 13.707c0.39-0.39 0.39-1.024 0-1.414s-1.024-0.39-1.414 0l-7.707 7.707h6l-4.293 4.293c-0.39 0.39-0.39 1.024 0 1.414s1.024 0.39 1.414 0l7.707-7.707h-6l4.293-4.293z"></path>
<path d="M6.569 2.966c-1.218 0.3-2.274 0.672-3.050 1.124-0.704 0.41-1.519 1.089-1.519 2.11v19.5c0 1.017 0.795 1.707 1.504 2.133 0.775 0.465 1.83 0.85 3.048 1.161 2.451 0.626 5.788 1.006 9.447 1.006s6.994-0.38 9.443-0.992c1.217-0.304 2.268-0.678 3.040-1.125 0.689-0.399 1.518-1.068 1.518-2.083v-19.6c0-1.021-0.814-1.7-1.519-2.11-0.776-0.452-1.832-0.824-3.050-1.124-2.451-0.603-5.785-0.966-9.431-0.966s-6.98 0.363-9.431 0.966zM4.029 6.2c0.052-0.066 0.182-0.198 0.496-0.381 0.54-0.314 1.387-0.631 2.522-0.91 2.254-0.555 5.42-0.908 8.953-0.908s6.7 0.354 8.953 0.908c1.135 0.279 1.982 0.596 2.522 0.91 0.314 0.183 0.444 0.315 0.496 0.381-0.052 0.066-0.182 0.198-0.496 0.381-0.54 0.314-1.387 0.631-2.522 0.91-2.254 0.555-5.42 0.908-8.953 0.908s-6.7-0.354-8.953-0.908c-1.135-0.279-1.982-0.596-2.522-0.91-0.314-0.183-0.444-0.315-0.496-0.381zM28 12.762c-0.015 0.025-0.053 0.079-0.148 0.163-0.2 0.177-0.551 0.392-1.086 0.614-1.061 0.44-2.64 0.825-4.591 1.069-0.548 0.069-0.937 0.568-0.868 1.116s0.568 0.937 1.116 0.868c2.049-0.256 3.821-0.671 5.109-1.206 0.16-0.066 0.316-0.136 0.467-0.209v4.001c-0.012 0.025-0.052 0.091-0.175 0.198-0.219 0.191-0.598 0.416-1.171 0.645-1.137 0.455-2.816 0.841-4.872 1.085-0.548 0.065-0.94 0.563-0.875 1.111s0.563 0.94 1.111 0.875c2.145-0.255 4.015-0.669 5.378-1.215 0.209-0.084 0.411-0.172 0.604-0.266v4.132c-0.024 0.037-0.13 0.182-0.52 0.408-0.541 0.313-1.39 0.632-2.523 0.916-2.252 0.563-5.417 0.933-8.957 0.933s-6.704-0.37-8.953-0.944c-1.132-0.289-1.976-0.616-2.514-0.939-0.433-0.26-0.519-0.422-0.533-0.45v-4.023c0.154 0.073 0.312 0.142 0.475 0.207 1.28 0.517 3.043 0.932 5.076 1.237 0.546 0.082 1.055-0.294 1.137-0.841s-0.294-1.055-0.841-1.137c-1.967-0.295-3.554-0.681-4.624-1.113-0.539-0.218-0.889-0.425-1.088-0.596-0.083-0.072-0.121-0.12-0.137-0.144v-4.117c0.158 0.074 0.323 0.145 0.491 0.213 1.293 0.517 3.081 0.931 5.164 1.236 0.546 0.080 1.054-0.298 1.134-0.845s-0.298-1.054-0.845-1.134c-2.017-0.295-3.629-0.681-4.711-1.114-0.545-0.218-0.898-0.425-1.097-0.596-0.083-0.071-0.121-0.119-0.137-0.143v-4.194c0.71 0.34 1.587 0.629 2.569 0.87 2.451 0.603 5.785 0.966 9.431 0.966s6.98-0.363 9.431-0.966c0.982-0.242 1.859-0.531 2.569-0.87v4.199z"></path>
</svg>
