<!-- Generated by IcoMoon.io -->
<svg version="1.1" xmlns="http://www.w3.org/2000/svg" width="32" height="32" viewBox="0 0 32 32">
<title>calendar-month</title>
<path d="M10 2c0.552 0 1 0.448 1 1v1h10v-1c0-0.552 0.448-1 1-1s1 0.448 1 1v1h2c2.252 0 4 1.748 4 4v18c0 2.252-1.748 4-4 4h-18c-2.252 0-4-1.748-4-4v-18c0-2.252 1.748-4 4-4h2v-1c0-0.552 0.448-1 1-1zM23 28h2c1.148 0 2-0.852 2-2v-2h-4v4zM21 24h-4v4h4v-4zM23 22h4v-4h-4v4zM21 18h-4v4h4v-4zM23 16h4v-4h-4v4zM21 12h-4v4h4v-4zM27 10v-2c0-1.148-0.852-2-2-2h-2v2c0 0.552-0.448 1-1 1s-1-0.448-1-1v-2h-10v2c0 0.552-0.448 1-1 1s-1-0.448-1-1v-2h-2c-1.148 0-2 0.852-2 2v2h22zM11 28h4v-4h-4v4zM15 22v-4h-4v4h4zM15 16v-4h-4v4h4zM9 28v-4h-4v2c0 1.148 0.852 2 2 2h2zM9 18h-4v4h4v-4zM9 12h-4v4h4v-4z"></path>
</svg>
