<!-- Generated by IcoMoon.io -->
<svg version="1.1" xmlns="http://www.w3.org/2000/svg" width="32" height="32" viewBox="0 0 32 32">
<title>calendar-period</title>
<path d="M19.707 15.293c-0.39-0.39-1.024-0.39-1.414 0s-0.39 1.024 0 1.414l2.293 2.293h-9.172l2.293-2.293c0.39-0.39 0.39-1.024 0-1.414s-1.024-0.39-1.414 0l-4.707 4.707 4.707 4.707c0.39 0.39 1.024 0.39 1.414 0s0.39-1.024 0-1.414l-2.293-2.293h9.172l-2.293 2.293c-0.39 0.39-0.39 1.024 0 1.414s1.024 0.39 1.414 0l4.707-4.707-4.707-4.707z"></path>
<path d="M10 2c-0.552 0-1 0.448-1 1v1h-2c-2.252 0-4 1.748-4 4v18c0 2.252 1.748 4 4 4h18c2.252 0 4-1.748 4-4v-18c0-2.252-1.748-4-4-4h-2v-1c0-0.552-0.448-1-1-1s-1 0.448-1 1v1h-10v-1c0-0.552-0.448-1-1-1zM9 8c0 0.552 0.448 1 1 1s1-0.448 1-1v-2h10v2c0 0.552 0.448 1 1 1s1-0.448 1-1v-2h2c1.148 0 2 0.852 2 2v2h-22v-2c0-1.148 0.852-2 2-2h2v2zM5 26v-14h22v14c0 1.148-0.852 2-2 2h-18c-1.148 0-2-0.852-2-2z"></path>
</svg>
