<!-- Generated by IcoMoon.io -->
<svg version="1.1" xmlns="http://www.w3.org/2000/svg" width="32" height="32" viewBox="0 0 32 32">
<title>calendar-key</title>
<path d="M11 16c-2.209 0-4 1.791-4 4s1.791 4 4 4c1.864 0 3.43-1.275 3.874-3h4.126v2c0 0.552 0.448 1 1 1s1-0.448 1-1v-2h2v2c0 0.552 0.448 1 1 1s1-0.448 1-1v-4h-10.126c-0.444-1.725-2.010-3-3.874-3zM9 20c0-1.105 0.895-2 2-2s2 0.895 2 2c0 1.105-0.895 2-2 2s-2-0.895-2-2z"></path>
<path d="M10 2c-0.552 0-1 0.448-1 1v1h-2c-2.252 0-4 1.748-4 4v18c0 2.252 1.748 4 4 4h18c2.252 0 4-1.748 4-4v-18c0-2.252-1.748-4-4-4h-2v-1c0-0.552-0.448-1-1-1s-1 0.448-1 1v1h-10v-1c0-0.552-0.448-1-1-1zM9 8c0 0.552 0.448 1 1 1s1-0.448 1-1v-2h10v2c0 0.552 0.448 1 1 1s1-0.448 1-1v-2h2c1.148 0 2 0.852 2 2v2h-22v-2c0-1.148 0.852-2 2-2h2v2zM5 26v-14h22v14c0 1.148-0.852 2-2 2h-18c-1.148 0-2-0.852-2-2z"></path>
</svg>
