<!-- Generated by IcoMoon.io -->
<svg version="1.1" xmlns="http://www.w3.org/2000/svg" width="32" height="32" viewBox="0 0 32 32">
<title>camera</title>
<path d="M16 12.1c-3.314 0-6 2.686-6 6s2.686 6 6 6c3.314 0 6-2.686 6-6s-2.686-6-6-6zM12 18.1c0-2.209 1.791-4 4-4s4 1.791 4 4c0 2.209-1.791 4-4 4s-4-1.791-4-4z"></path>
<path d="M20.311 4h-8.621l-1.9 3.7h-3.789c-2.252 0-4 1.748-4 4v12.5c0 2.252 1.748 4 4 4h20c2.23 0 4-1.726 4-3.9v-12.6c0-2.252-1.748-4-4-4h-3.789l-1.9-3.7zM11.011 9.7l1.9-3.7h6.179l1.9 3.7h5.011c1.148 0 2 0.852 2 2v12.6c0 1.026-0.83 1.9-2 1.9h-20c-1.148 0-2-0.852-2-2v-12.5c0-1.148 0.852-2 2-2h5.011z"></path>
</svg>
