<!-- Generated by IcoMoon.io -->
<svg version="1.1" xmlns="http://www.w3.org/2000/svg" width="32" height="32" viewBox="0 0 32 32">
<title>car-ok</title>
<path d="M20.406 7c3.003 0 5.231 0.8 6.684 2.3 2.141 2.21 2.135 5.435 2.132 7.636-0 0.090-0 0.178-0 0.264v0.8c0 2.4-1.066 3.4-2.034 3.8-0.387 1.8-1.938 3.2-3.778 3.2s-3.391-1.3-3.778-3h-8.041c-0.484 1.7-1.937 3-3.778 3s-3.391-1.4-3.778-3.2c-0.969-0.4-2.034-1.4-2.034-3.8 0-3.8 9.494-11 18.406-11zM5.875 21c0 1.1 0.872 2 1.938 2s1.938-0.9 1.938-2c0-1.1-0.872-2-1.938-2s-1.938 0.9-1.938 2zM21.375 21c0 1.1 0.872 2 1.938 2s1.938-0.9 1.938-2c0-1.1-0.872-2-1.938-2s-1.938 0.9-1.938 2zM27.188 18v-0.9c0.097-1.9 0.097-4.7-1.453-6.4-1.163-1.1-2.906-1.7-5.328-1.7-8.719 0-16.469 6.9-16.469 9 0 0.7 0.097 1.2 0.194 1.5 0.581-1.5 1.938-2.5 3.584-2.5 1.841 0 3.391 1.3 3.778 3h8.041c0.484-1.7 1.938-3 3.778-3 1.647 0 3.003 1 3.584 2.5 0.194-0.3 0.291-0.8 0.291-1.5zM19.466 13.397c0.378-0.39 0.378-1.024 0-1.414s-0.992-0.39-1.37 0l-3.19 3.293-1.252-1.293c-0.378-0.39-0.992-0.39-1.37 0s-0.378 1.024 0 1.414l2.623 2.707 4.56-4.707z"></path>
</svg>
