<!-- Generated by IcoMoon.io -->
<svg version="1.1" xmlns="http://www.w3.org/2000/svg" width="32" height="32" viewBox="0 0 32 32">
<title>car-charging</title>
<path d="M27.9 9.3c-1.5-1.5-3.8-2.3-6.9-2.3-0.7 0-1.6 0-2.3 0.1-0.5 0.1-0.9 0.6-0.8 1.1s0.6 0.9 1.1 0.8c0.6 0 1.3 0 2 0 2.5 0 4.3 0.6 5.5 1.7 1.7 1.7 1.6 4.4 1.5 6.4 0 0.3 0 0.6 0 0.9 0 0.7-0.1 1.2-0.3 1.5-0.6-1.5-2-2.5-3.7-2.5-1.9 0-3.4 1.3-3.9 3-0.5 0.1-0.8 0.5-0.8 1s0.4 0.9 0.8 1c0.4 1.7 2 3 3.9 3s3.5-1.4 3.9-3.2c1-0.4 2.1-1.4 2.1-3.8 0-0.2 0-0.5 0-0.8 0.1-2.2 0.2-5.6-2.1-7.9zM24 23c-1.1 0-2-0.9-2-2s0.9-2 2-2c1.1 0 2 0.9 2 2s-0.9 2-2 2z"></path>
<path d="M13.6 20h-1.7c-0.4-1.7-2-3-3.9-3-1.7 0-3.1 1-3.7 2.5-0.2-0.3-0.3-0.8-0.3-1.5 0-1.2 2.8-4.2 7.3-6.5 0.5-0.3 0.7-0.9 0.4-1.3-0.3-0.5-0.9-0.7-1.3-0.4-4.1 2-8.4 5.6-8.4 8.2 0 2.4 1.1 3.4 2.1 3.8 0.4 1.8 2 3.2 3.9 3.2s3.4-1.3 3.9-3h1.7c0.6 0 1-0.4 1-1s-0.4-1-1-1zM8 23c-1.1 0-2-0.9-2-2s0.9-2 2-2c1.1 0 2 0.9 2 2s-0.9 2-2 2z"></path>
<path d="M20.9 14.5c-0.2-0.3-0.6-0.5-0.9-0.5h-6.4l3.3-6.6c0.2-0.5 0-1.1-0.4-1.3-0.5-0.2-1.1 0-1.3 0.4l-4 8c-0.2 0.3-0.1 0.7 0 1 0.2 0.3 0.5 0.5 0.9 0.5h6.4l-3.3 6.6c-0.2 0.5 0 1.1 0.4 1.3 0.1 0.1 0.2 0.1 0.4 0.1 0.4 0 0.7-0.2 0.9-0.6l4-8c0.1-0.3 0.1-0.6 0-0.9z"></path>
</svg>
