<!-- Generated by IcoMoon.io -->
<svg version="1.1" xmlns="http://www.w3.org/2000/svg" width="32" height="32" viewBox="0 0 32 32">
<title>card-up</title>
<path d="M16 1l4.707 4.707c0.39 0.391 0.39 1.024 0 1.414s-1.024 0.391-1.414 0l-2.293-2.293v7.586c0 0.552-0.448 1-1 1s-1-0.448-1-1v-7.586l-2.293 2.293c-0.39 0.391-1.024 0.391-1.414 0s-0.39-1.024 0-1.414l4.707-4.707z"></path>
<path d="M7 23.414c-0.552 0-1 0.448-1 1s0.448 1 1 1h4c0.552 0 1-0.448 1-1s-0.448-1-1-1h-4z"></path>
<path d="M4 13.414c0-1.148 0.852-2 2-2h5c0.552 0 1-0.448 1-1s-0.448-1-1-1h-5c-2.252 0-4 1.748-4 4v12c0 2.252 1.748 4 4 4h20c2.252 0 4-1.748 4-4v-12c0-2.252-1.748-4-4-4h-5c-0.552 0-1 0.448-1 1s0.448 1 1 1h5c1.148 0 2 0.852 2 2v2h-24v-2zM4 25.414v-6h24v6c0 1.148-0.852 2-2 2h-20c-1.148 0-2-0.852-2-2z"></path>
</svg>
