<!-- Generated by IcoMoon.io -->
<svg version="1.1" xmlns="http://www.w3.org/2000/svg" width="32" height="32" viewBox="0 0 32 32">
<title>cart</title>
<path d="M3 2c-0.552 0-1 0.448-1 1s0.448 1 1 1h2.105l0.635 5.718c-0.026 0.089-0.040 0.184-0.040 0.282 0 0.176 0.046 0.342 0.126 0.486l0.882 7.936 0.001 0.011c0.262 1.966 1.959 3.568 3.991 3.568h11.4c1.626 0 2.963-0.962 3.61-2.386l4.19-9.179c0.033-0.069 0.059-0.142 0.076-0.219 0.090-0.407-0.084-0.833-0.439-1.059-0.098-0.062-0.207-0.108-0.324-0.134-0.078-0.017-0.157-0.024-0.234-0.023h-21.306l-0.778-7h-3.895zM8.693 18.178l-0.798-7.178h19.549l-3.555 7.786c-0.352 0.776-1.016 1.214-1.79 1.214h-11.4c-0.965 0-1.865-0.793-2.007-1.822z"></path>
<path d="M12.829 26h7.341c0.412-1.165 1.523-2 2.829-2 1.657 0 3 1.343 3 3s-1.343 3-3 3c-1.306 0-2.418-0.835-2.829-2h-7.341c-0.412 1.165-1.523 2-2.829 2-1.657 0-3-1.343-3-3s1.343-3 3-3c1.306 0 2.418 0.835 2.829 2zM10 26c-0.552 0-1 0.448-1 1s0.448 1 1 1c0.552 0 1-0.448 1-1s-0.448-1-1-1zM22 27c0 0.552 0.448 1 1 1s1-0.448 1-1c0-0.552-0.448-1-1-1s-1 0.448-1 1z"></path>
</svg>
