<!-- Generated by IcoMoon.io -->
<svg version="1.1" xmlns="http://www.w3.org/2000/svg" width="32" height="32" viewBox="0 0 32 32">
<title>cart-up</title>
<path d="M3 2c-0.552 0-1 0.448-1 1s0.448 1 1 1h2.105l0.635 5.718c-0.026 0.089-0.040 0.184-0.040 0.282 0 0.176 0.046 0.342 0.126 0.486l0.882 7.936 0.001 0.011c0.262 1.966 1.959 3.568 3.991 3.568h2.5c0.552 0 1-0.448 1-1s-0.448-1-1-1h-2.5c-0.965 0-1.865-0.793-2.007-1.822l-0.798-7.178h19.542l-1.145 2.481c-0.231 0.502-0.012 1.096 0.489 1.327s1.096 0.012 1.327-0.489l1.791-3.881c0.034-0.070 0.060-0.144 0.077-0.221 0.059-0.262 0.007-0.533-0.132-0.753-0.077-0.121-0.18-0.227-0.306-0.307-0.097-0.062-0.205-0.108-0.321-0.133-0.079-0.018-0.159-0.025-0.238-0.024h-21.306l-0.778-7h-3.895z"></path>
<path d="M26.707 22.293l-3.707-3.707-3.707 3.707c-0.39 0.39-0.39 1.024 0 1.414s1.024 0.39 1.414 0l1.293-1.293v3.586c0 0.552 0.448 1 1 1s1-0.448 1-1v-3.586l1.293 1.293c0.39 0.39 1.024 0.39 1.414 0s0.39-1.024 0-1.414z"></path>
<path d="M23 15c-4.418 0-8 3.582-8 8s3.582 8 8 8c4.418 0 8-3.582 8-8s-3.582-8-8-8zM17 23c0-3.314 2.686-6 6-6s6 2.686 6 6c0 3.314-2.686 6-6 6s-6-2.686-6-6z"></path>
<path d="M12.829 26c-0.412-1.165-1.523-2-2.829-2-1.657 0-3 1.343-3 3s1.343 3 3 3c1.306 0 2.418-0.835 2.829-2h0.971c0.552 0 1-0.448 1-1s-0.448-1-1-1h-0.971zM9 27c0-0.552 0.448-1 1-1s1 0.448 1 1c0 0.552-0.448 1-1 1s-1-0.448-1-1z"></path>
</svg>
