<!-- Generated by IcoMoon.io -->
<svg version="1.1" xmlns="http://www.w3.org/2000/svg" width="32" height="32" viewBox="0 0 32 32">
<title>certificate</title>
<path d="M4 6c0-1.148 0.852-2 2-2h20c1.148 0 2 0.852 2 2v16c0 0.552 0.448 1 1 1s1-0.448 1-1v-16c0-2.252-1.748-4-4-4h-20c-2.252 0-4 1.748-4 4v16c0 2.252 1.748 4 4 4h3c0.552 0 1-0.448 1-1s-0.448-1-1-1h-3c-1.148 0-2-0.852-2-2v-16z"></path>
<path d="M19 16c-0.986 0-2 0.784-2 2 0 0.575 0.277 1.067 0.605 1.395s0.819 0.605 1.395 0.605c0.986 0 2-0.784 2-2 0-0.575-0.277-1.067-0.605-1.395s-0.819-0.605-1.395-0.605z"></path>
<path d="M19 11c-3.866 0-7 3.134-7 7 0 1.91 0.765 3.641 2.005 4.904-0.003 0.032-0.005 0.064-0.005 0.096v7.618l5-2.5 5 2.5v-7.618c0-0.032-0.002-0.065-0.005-0.096 1.24-1.263 2.005-2.994 2.005-4.904 0-3.866-3.134-7-7-7zM14 18c0-2.761 2.239-5 5-5s5 2.239 5 5c0 2.761-2.239 5-5 5s-5-2.239-5-5zM22 24.326v3.056l-3-1.5-3 1.5v-3.056c0.909 0.432 1.926 0.674 3 0.674s2.091-0.242 3-0.674z"></path>
<path d="M5 8c0-0.552 0.448-1 1-1h20c0.552 0 1 0.448 1 1s-0.448 1-1 1h-20c-0.552 0-1-0.448-1-1z"></path>
<path d="M6 11c-0.552 0-1 0.448-1 1s0.448 1 1 1h3c0.552 0 1-0.448 1-1s-0.448-1-1-1h-3z"></path>
<path d="M5 16c0-0.552 0.448-1 1-1h3c0.552 0 1 0.448 1 1s-0.448 1-1 1h-3c-0.552 0-1-0.448-1-1z"></path>
<path d="M6 19c-0.552 0-1 0.448-1 1s0.448 1 1 1h3c0.552 0 1-0.448 1-1s-0.448-1-1-1h-3z"></path>
</svg>
