<!-- Generated by IcoMoon.io -->
<svg version="1.1" xmlns="http://www.w3.org/2000/svg" width="32" height="32" viewBox="0 0 32 32">
<title>charging-fast</title>
<path d="M26.97 3.243c0.111-0.443-0.092-0.904-0.494-1.122s-0.899-0.136-1.209 0.199l-13 14c-0.271 0.291-0.343 0.716-0.184 1.080s0.519 0.6 0.917 0.6h4.719l-2.689 10.758c-0.111 0.443 0.092 0.904 0.494 1.122s0.899 0.136 1.209-0.199l13-14c0.271-0.291 0.343-0.716 0.184-1.080s-0.519-0.6-0.917-0.6h-4.719l2.689-10.757zM19 16h-3.707l8.793-9.47-2.057 8.227c-0.075 0.299-0.008 0.615 0.182 0.858s0.48 0.385 0.788 0.385h3.707l-8.794 9.47 2.057-8.227c0.075-0.299 0.008-0.615-0.182-0.858s-0.48-0.385-0.788-0.385z"></path>
<path d="M16.97 3.245c0.112-0.443-0.090-0.905-0.492-1.124s-0.9-0.137-1.21 0.198l-13 14c-0.271 0.291-0.343 0.716-0.184 1.080s0.519 0.6 0.917 0.6h4.719l-2.689 10.758c-0.111 0.443 0.093 0.905 0.495 1.122s0.9 0.134 1.21-0.202l8.3-9c0.374-0.406 0.349-1.039-0.057-1.413s-1.039-0.349-1.413 0.057l-5.645 6.121 2.050-8.2c0.075-0.299 0.008-0.615-0.182-0.858s-0.48-0.385-0.788-0.385h-3.707l8.779-9.454-1.241 4.909c-0.135 0.535 0.189 1.079 0.724 1.215s1.079-0.189 1.215-0.724l2.2-8.7z"></path>
</svg>
