<!-- Generated by IcoMoon.io -->
<svg version="1.1" xmlns="http://www.w3.org/2000/svg" width="32" height="32" viewBox="0 0 32 32">
<title>charging-on</title>
<path d="M21.477 2.121c0.401 0.217 0.604 0.679 0.494 1.122l-2.689 10.757h4.719c0.398 0 0.758 0.236 0.917 0.6s0.087 0.789-0.184 1.080l-13 14c-0.31 0.334-0.808 0.416-1.209 0.199s-0.604-0.679-0.494-1.122l2.689-10.758h-4.719c-0.398 0-0.758-0.236-0.917-0.6s-0.087-0.789 0.184-1.080l13-14c0.311-0.334 0.808-0.416 1.209-0.199zM10.293 16h3.707c0.308 0 0.599 0.142 0.788 0.385s0.257 0.559 0.182 0.858l-2.057 8.227 8.793-9.47h-3.707c-0.308 0-0.599-0.142-0.788-0.385s-0.257-0.559-0.182-0.858l2.057-8.227-8.793 9.47z"></path>
<path d="M26 16c0-0.552 0.448-1 1-1h2c0.552 0 1 0.448 1 1s-0.448 1-1 1h-2c-0.552 0-1-0.448-1-1z"></path>
<path d="M3 15c-0.552 0-1 0.448-1 1s0.448 1 1 1h2c0.552 0 1-0.448 1-1s-0.448-1-1-1h-2z"></path>
<path d="M27.84 8.457c0.3 0.464 0.167 1.083-0.296 1.383l-1.7 1.1c-0.464 0.3-1.083 0.167-1.383-0.296s-0.167-1.083 0.296-1.383l1.7-1.1c0.464-0.3 1.083-0.167 1.383 0.296z"></path>
<path d="M7.243 22.74c0.464-0.3 0.596-0.919 0.296-1.383s-0.919-0.596-1.383-0.296l-1.7 1.1c-0.464 0.3-0.596 0.919-0.296 1.383s0.919 0.596 1.383 0.296l1.7-1.1z"></path>
<path d="M24.46 21.357c0.3-0.464 0.919-0.596 1.383-0.296l1.7 1.1c0.464 0.3 0.596 0.919 0.296 1.383s-0.919 0.596-1.383 0.296l-1.7-1.1c-0.464-0.3-0.596-0.919-0.296-1.383z"></path>
<path d="M5.543 8.16c-0.464-0.3-1.083-0.167-1.383 0.296s-0.167 1.083 0.296 1.383l1.7 1.1c0.464 0.3 1.083 0.167 1.383-0.296s0.167-1.083-0.296-1.383l-1.7-1.1z"></path>
</svg>
