<!-- Generated by IcoMoon.io -->
<svg version="1.1" xmlns="http://www.w3.org/2000/svg" width="32" height="32" viewBox="0 0 32 32">
<title>chart-pie-alt</title>
<path d="M29.66 19.079c0.006-0.021 0.012-0.042 0.016-0.064s0.009-0.044 0.012-0.067c0.204-0.951 0.311-1.937 0.311-2.949 0-7.732-6.268-14-14-14s-14 6.268-14 14c0 7.732 6.268 14 14 14 6.674 0 12.258-4.67 13.66-10.921zM17 14.5v-10.459c4.209 0.347 7.803 2.867 9.656 6.436l-9.656 4.023zM19.308 15.705l8.119-3.383c0.373 1.159 0.574 2.395 0.574 3.678 0 0.542-0.036 1.075-0.105 1.598l-8.587-1.893zM15.784 16.976l0.004 0.001 11.677 2.575c-1.514 4.893-6.075 8.448-11.466 8.448-6.627 0-12-5.373-12-12 0-6.291 4.84-11.451 11-11.959v11.939c-0.009 0.457 0.297 0.873 0.754 0.989 0.010 0.003 0.020 0.005 0.030 0.007z"></path>
</svg>
