<!-- Generated by IcoMoon.io -->
<svg version="1.1" xmlns="http://www.w3.org/2000/svg" width="32" height="32" viewBox="0 0 32 32">
<title>clipboard-paste</title>
<path d="M8 6c-1.148 0-2 0.852-2 2v18c0 1.148 0.852 2 2 2h6c0.552 0 1 0.448 1 1s-0.448 1-1 1h-6c-2.252 0-4-1.748-4-4v-18c0-2.252 1.748-4 4-4h3.515c0.679-1.207 1.968-2 3.485-2h2c1.517 0 2.806 0.793 3.485 2h3.515c2.252 0 4 1.748 4 4v5c0 0.552-0.448 1-1 1s-1-0.448-1-1v-5c0-1.148-0.852-2-2-2h-3v0.172c1.163 0.413 2 1.526 2 2.828v2h-14v-2c0-1.302 0.837-2.415 2-2.828v-0.172h-3zM15 4c-1.148 0-2 0.852-2 2v2h-1c-0.548 0-1 0.452-1 1h10c0-0.548-0.452-1-1-1h-1v-2c0-1.148-0.852-2-2-2h-2z"></path>
<path d="M22 23.586l-1.293-1.293c-0.39-0.39-1.024-0.39-1.414 0s-0.39 1.024 0 1.414l3.707 3.707 3.707-3.707c0.39-0.39 0.39-1.024 0-1.414s-1.024-0.39-1.414 0l-1.293 1.293v-3.586c0-0.552-0.448-1-1-1s-1 0.448-1 1v3.586z"></path>
<path d="M23 15c-4.418 0-8 3.582-8 8s3.582 8 8 8c4.418 0 8-3.582 8-8s-3.582-8-8-8zM17 23c0-3.314 2.686-6 6-6s6 2.686 6 6c0 3.314-2.686 6-6 6s-6-2.686-6-6z"></path>
</svg>
