<!-- Generated by IcoMoon.io -->
<svg version="1.1" xmlns="http://www.w3.org/2000/svg" width="32" height="32" viewBox="0 0 32 32">
<title>clipboard</title>
<path d="M20.485 4h3.515c2.252 0 4 1.748 4 4v18c0 2.252-1.748 4-4 4h-16c-2.252 0-4-1.748-4-4v-18c0-2.252 1.748-4 4-4h3.515c0.679-1.207 1.968-2 3.485-2h2c1.517 0 2.806 0.793 3.485 2zM11 6h-3c-1.148 0-2 0.852-2 2v18c0 1.148 0.852 2 2 2h16c1.148 0 2-0.852 2-2v-18c0-1.148-0.852-2-2-2h-3v0.172c1.163 0.413 2 1.526 2 2.828v2h-14v-2c0-1.302 0.837-2.415 2-2.828v-0.172zM13 6v2h-1c-0.548 0-1 0.452-1 1h10c0-0.548-0.452-1-1-1h-1v-2c0-1.148-0.852-2-2-2h-2c-1.148 0-2 0.852-2 2z"></path>
</svg>
