<!-- Generated by IcoMoon.io -->
<svg version="1.1" xmlns="http://www.w3.org/2000/svg" width="32" height="32" viewBox="0 0 32 32">
<title>clock</title>
<path d="M17 8c0-0.552-0.448-1-1-1s-1 0.448-1 1v8.618l6.553 3.276c0.494 0.247 1.095 0.047 1.342-0.447s0.047-1.095-0.447-1.342l-5.447-2.724v-7.382z"></path>
<path d="M16 2c-7.732 0-14 6.268-14 14s6.268 14 14 14c7.732 0 14-6.268 14-14s-6.268-14-14-14zM4 16c0-6.627 5.373-12 12-12s12 5.373 12 12c0 6.627-5.373 12-12 12s-12-5.373-12-12z"></path>
</svg>
