<!-- Generated by IcoMoon.io -->
<svg version="1.1" xmlns="http://www.w3.org/2000/svg" width="32" height="32" viewBox="0 0 32 32">
<title>clone-w-e</title>
<path d="M4 6c0-1.148 0.852-2 2-2h11c1.148 0 2 0.852 2 2v1c0 0.552 0.448 1 1 1s1-0.448 1-1v-1c0-2.252-1.748-4-4-4h-11c-2.252 0-4 1.748-4 4v20c0 2.252 1.748 4 4 4h11c2.252 0 4-1.748 4-4v-1c0-0.552-0.448-1-1-1s-1 0.448-1 1v1c0 1.148-0.852 2-2 2h-11c-1.148 0-2-0.852-2-2v-20z"></path>
<path d="M23 2c-0.552 0-1 0.448-1 1s0.448 1 1 1h3c1.148 0 2 0.852 2 2v20c0 1.148-0.852 2-2 2h-3c-0.552 0-1 0.448-1 1s0.448 1 1 1h3c2.252 0 4-1.748 4-4v-20c0-2.252-1.748-4-4-4h-3z"></path>
<path d="M24.707 15.293l0.707 0.707-0.707 0.707c0-0-0 0 0 0l-5 5c-0.39 0.39-1.024 0.39-1.414 0s-0.39-1.024 0-1.414l3.293-3.293h-12.586c-0.552 0-1-0.448-1-1s0.448-1 1-1h12.586l-3.293-3.293c-0.39-0.39-0.39-1.024 0-1.414s1.024-0.391 1.414 0l5 5c0 0 0 0.001 0.001 0.001z"></path>
</svg>
