<!-- Generated by IcoMoon.io -->
<svg version="1.1" xmlns="http://www.w3.org/2000/svg" width="32" height="32" viewBox="0 0 32 32">
<title>code-ok</title>
<path d="M11 2c-2.252 0-4 1.748-4 4v7c0 1.148-0.852 2-2 2h-1c-0.552 0-1 0.448-1 1s0.448 1 1 1h1c1.148 0 2 0.852 2 2v7c0 2.252 1.748 4 4 4h2c0.552 0 1-0.448 1-1s-0.448-1-1-1h-2c-1.148 0-2-0.852-2-2v-7c0-1.21-0.504-2.274-1.32-3 0.816-0.726 1.32-1.79 1.32-3v-7c0-1.148 0.852-2 2-2h2c0.552 0 1-0.448 1-1s-0.448-1-1-1h-2z"></path>
<path d="M26.707 20.293c0.39 0.39 0.39 1.024 0 1.414l-4.707 4.707-2.707-2.707c-0.39-0.39-0.39-1.024 0-1.414s1.024-0.39 1.414 0l1.293 1.293 3.293-3.293c0.39-0.39 1.024-0.39 1.414 0z"></path>
<path d="M15 23c0-4.418 3.582-8 8-8s8 3.582 8 8c0 4.418-3.582 8-8 8s-8-3.582-8-8zM23 17c-3.314 0-6 2.686-6 6s2.686 6 6 6c3.314 0 6-2.686 6-6s-2.686-6-6-6z"></path>
<path d="M19 2c-0.552 0-1 0.448-1 1s0.448 1 1 1h2c1.148 0 2 0.852 2 2v7c0 0.552 0.448 1 1 1s1-0.448 1-1v-7c0-2.252-1.748-4-4-4h-2z"></path>
</svg>
