<!-- Generated by IcoMoon.io -->
<svg version="1.1" xmlns="http://www.w3.org/2000/svg" width="32" height="32" viewBox="0 0 32 32">
<title>coffee</title>
<path d="M13 4c0-0.552-0.448-1-1-1s-1 0.448-1 1v3c0 0.552 0.448 1 1 1s1-0.448 1-1v-3z"></path>
<path d="M7 10v11c0 2.252 1.748 4 4 4h10c2.252 0 4-1.748 4-4v-4c2.252 0 4-1.748 4-4v-3h-22zM27 13c0 1.148-0.852 2-2 2v-3h2v1zM9 21v-9h14v9c0 1.148-0.852 2-2 2h-10c-1.148 0-2-0.852-2-2z"></path>
<path d="M4 27c-0.552 0-1 0.448-1 1s0.448 1 1 1h24c0.552 0 1-0.448 1-1s-0.448-1-1-1h-24z"></path>
<path d="M16 3c0.552 0 1 0.448 1 1v3c0 0.552-0.448 1-1 1s-1-0.448-1-1v-3c0-0.552 0.448-1 1-1z"></path>
<path d="M21 4c0-0.552-0.448-1-1-1s-1 0.448-1 1v3c0 0.552 0.448 1 1 1s1-0.448 1-1v-3z"></path>
</svg>
