<!-- Generated by IcoMoon.io -->
<svg version="1.1" xmlns="http://www.w3.org/2000/svg" width="32" height="32" viewBox="0 0 32 32">
<title>coins</title>
<path d="M7.006 13.859c-1.154-0.63-2.006-1.623-2.006-2.859v-4c0-1.411 1.118-2.42 2.31-3.016 1.252-0.626 2.911-0.984 4.69-0.984s3.438 0.358 4.69 0.984c1.192 0.596 2.31 1.605 2.31 3.016v4c0 0.064-0.004 0.129-0.011 0.194 0.414 0.245 0.792 0.523 1.106 0.837 0.5 0.5 0.905 1.164 0.905 1.97v2.174c0.482-0.114 0.984-0.174 1.5-0.174 3.59 0 6.5 2.91 6.5 6.5s-2.91 6.5-6.5 6.5c-2.577 0-4.803-1.499-5.855-3.673-0.424 0.749-1.177 1.317-1.965 1.707-1.255 0.62-2.914 0.966-4.681 0.966s-3.426-0.346-4.681-0.966c-1.201-0.594-2.319-1.603-2.319-3.034v-4c0-1.121 0.73-1.986 1.573-2.563 0.667-0.456 1.504-0.809 2.427-1.045v-2.392c0-0.002 0-0.003 0-0.004 0-0.045 0.002-0.091 0.006-0.136zM7 7c0 0.246 0.225 0.737 1.205 1.227 0.92 0.46 2.26 0.773 3.795 0.773s2.876-0.313 3.795-0.773c0.98-0.49 1.205-0.981 1.205-1.227s-0.225-0.737-1.205-1.227c-0.92-0.46-2.26-0.773-3.795-0.773s-2.876 0.313-3.795 0.773c-0.979 0.49-1.205 0.981-1.205 1.227zM16.69 10.016c-1.252 0.626-2.912 0.984-4.69 0.984s-3.438-0.358-4.69-0.984c-0.104-0.052-0.208-0.107-0.31-0.166v1.15c0 0.272 0.298 0.912 1.523 1.354 0.008 0.003 0.016 0.006 0.025 0.009l0.006 0.002 0.007 0.003c0.006 0.002 0.012 0.005 0.018 0.007 0.881 0.351 2.152 0.626 3.421 0.626 1.288 0 2.46-0.231 3.352-0.59 0.932-0.375 1.398-0.82 1.54-1.129l0.007-0.014 0.006-0.012c0.001-0.002 0.002-0.003 0.002-0.005 0.023-0.047 0.052-0.117 0.073-0.188 0.010-0.035 0.017-0.061 0.020-0.078l0.001-0.004v-1.131c-0.102 0.058-0.206 0.114-0.31 0.166zM9 16.865v0.318c0 0.012 0 0.024 0 0.036v0.781c0 0.269 0.232 0.76 1.206 1.241 0.92 0.455 2.261 0.759 3.794 0.759 0.573 0 1.102-0.042 1.599-0.117 0.123-0.054 0.258-0.083 0.4-0.083 0.023 0 0.046 0.001 0.068 0.002 0.197-0.039 0.39-0.083 0.578-0.131 0.526-1.086 1.345-2.004 2.354-2.65v-0.157c-0.105 0.060-0.212 0.116-0.319 0.169-1.255 0.62-2.914 0.966-4.681 0.966s-3.426-0.346-4.681-0.966c-0.107-0.053-0.214-0.11-0.319-0.169zM19 14c0-0.095-0.045-0.28-0.32-0.555-0.148-0.148-0.342-0.3-0.582-0.451-0.527 0.547-1.244 0.968-2 1.272-1.158 0.466-2.587 0.735-4.098 0.735-0.896 0-1.793-0.112-2.606-0.295 0.184 0.172 0.445 0.354 0.812 0.536 0.92 0.455 2.261 0.759 3.794 0.759s2.874-0.304 3.794-0.759c0.974-0.481 1.206-0.972 1.206-1.241zM5 24c0 0.269 0.232 0.76 1.206 1.241 0.92 0.455 2.261 0.759 3.794 0.759s2.874-0.304 3.794-0.759c0.974-0.481 1.206-0.972 1.206-1.241v-1.15c-0.33 0.188-0.684 0.35-1.049 0.486-1.126 0.422-2.496 0.664-3.951 0.664-1.767 0-3.426-0.346-4.681-0.966-0.107-0.053-0.214-0.11-0.319-0.169v1.135zM7.040 18.461c-0.54 0.175-0.994 0.391-1.338 0.627-0.582 0.398-0.702 0.733-0.702 0.912 0 0.269 0.232 0.76 1.206 1.241 0.92 0.455 2.261 0.759 3.794 0.759 0.675 0 1.316-0.061 1.901-0.17-0.961-0.16-1.841-0.431-2.581-0.796-1.068-0.528-2.070-1.384-2.279-2.573zM20.473 18.481c-0.012 0.006-0.024 0.013-0.037 0.019-0.908 0.469-1.636 1.239-2.052 2.177-0.023 0.129-0.072 0.252-0.142 0.361-0.157 0.458-0.243 0.95-0.243 1.462 0 2.485 2.015 4.5 4.5 4.5s4.5-2.015 4.5-4.5c0-2.485-2.015-4.5-4.5-4.5-0.729 0-1.418 0.174-2.027 0.481z"></path>
</svg>
