<!-- Generated by IcoMoon.io -->
<svg version="1.1" xmlns="http://www.w3.org/2000/svg" width="32" height="32" viewBox="0 0 32 32">
<title>coins-stash</title>
<path d="M23.5 3c-1.628 0-3.15 0.298-4.303 0.822-1.062 0.483-2.197 1.355-2.197 2.678s1.135 2.195 2.197 2.678c1.153 0.524 2.675 0.822 4.303 0.822s3.15-0.298 4.303-0.822c1.062-0.483 2.197-1.354 2.197-2.678s-1.135-2.195-2.197-2.678c-1.153-0.524-2.675-0.822-4.303-0.822zM19 6.5c0-0.057 0.097-0.436 1.025-0.857 0.838-0.381 2.066-0.643 3.475-0.643s2.637 0.262 3.475 0.643c0.928 0.422 1.025 0.8 1.025 0.857s-0.097 0.436-1.025 0.857c-0.838 0.381-2.066 0.643-3.475 0.643s-2.637-0.262-3.475-0.643c-0.928-0.422-1.025-0.8-1.025-0.857z"></path>
<path d="M19 10.5c0-0.552-0.448-1-1-1s-1 0.448-1 1c0 1.337 1.15 2.208 2.215 2.687 1.156 0.52 2.677 0.813 4.285 0.813s3.129-0.293 4.285-0.813c1.065-0.479 2.215-1.35 2.215-2.687 0-0.552-0.448-1-1-1s-1 0.448-1 1c0 0.063-0.1 0.442-1.035 0.863-0.844 0.38-2.073 0.637-3.465 0.637s-2.621-0.257-3.465-0.637c-0.935-0.421-1.035-0.8-1.035-0.863z"></path>
<path d="M18 13.5c0.552 0 1 0.448 1 1 0 0.063 0.1 0.442 1.035 0.863 0.844 0.38 2.073 0.637 3.465 0.637s2.621-0.257 3.465-0.637c0.935-0.421 1.035-0.8 1.035-0.863 0-0.552 0.448-1 1-1s1 0.448 1 1c0 1.337-1.15 2.208-2.215 2.687-1.156 0.52-2.677 0.813-4.285 0.813s-3.129-0.293-4.285-0.813c-1.065-0.479-2.215-1.35-2.215-2.687 0-0.552 0.448-1 1-1z"></path>
<path d="M19 18.5c0-0.552-0.448-1-1-1s-1 0.448-1 1c0 1.337 1.15 2.208 2.215 2.687 1.156 0.52 2.677 0.813 4.285 0.813s3.129-0.293 4.285-0.813c1.065-0.479 2.215-1.35 2.215-2.687 0-0.552-0.448-1-1-1s-1 0.448-1 1c0 0.063-0.1 0.442-1.035 0.863-0.844 0.38-2.073 0.637-3.465 0.637s-2.621-0.257-3.465-0.637c-0.935-0.421-1.035-0.8-1.035-0.863z"></path>
<path d="M18 21.5c0.552 0 1 0.448 1 1 0 0.063 0.1 0.442 1.035 0.863 0.844 0.38 2.073 0.637 3.465 0.637s2.621-0.257 3.465-0.637c0.935-0.421 1.035-0.8 1.035-0.863 0-0.552 0.448-1 1-1s1 0.448 1 1c0 1.337-1.15 2.208-2.215 2.687-1.156 0.52-2.677 0.813-4.285 0.813s-3.129-0.293-4.285-0.813c-1.065-0.479-2.215-1.35-2.215-2.687 0-0.552 0.448-1 1-1z"></path>
<path d="M19 26.5c0-0.552-0.448-1-1-1s-1 0.448-1 1c0 1.337 1.15 2.208 2.215 2.687 1.156 0.52 2.677 0.813 4.285 0.813s3.129-0.293 4.285-0.813c1.065-0.479 2.215-1.35 2.215-2.687 0-0.552-0.448-1-1-1s-1 0.448-1 1c0 0.063-0.1 0.442-1.035 0.863-0.844 0.38-2.073 0.637-3.465 0.637s-2.621-0.257-3.465-0.637c-0.935-0.421-1.035-0.8-1.035-0.863z"></path>
<path d="M4.197 11.822c1.153-0.524 2.675-0.822 4.303-0.822s3.15 0.298 4.303 0.822c1.062 0.483 2.197 1.354 2.197 2.678s-1.135 2.195-2.197 2.678c-1.153 0.524-2.675 0.822-4.303 0.822s-3.15-0.298-4.303-0.822c-1.062-0.483-2.197-1.354-2.197-2.678s1.135-2.195 2.197-2.678zM5.025 13.643c-0.928 0.422-1.025 0.8-1.025 0.857s0.097 0.435 1.025 0.857c0.838 0.381 2.066 0.643 3.475 0.643s2.637-0.262 3.475-0.643c0.928-0.422 1.025-0.8 1.025-0.857s-0.097-0.435-1.025-0.857c-0.838-0.381-2.066-0.643-3.475-0.643s-2.637 0.262-3.475 0.643z"></path>
<path d="M4 18.5c0-0.552-0.448-1-1-1s-1 0.448-1 1c0 1.337 1.15 2.208 2.215 2.687 1.156 0.52 2.677 0.813 4.285 0.813s3.129-0.293 4.285-0.813c1.065-0.479 2.215-1.35 2.215-2.687 0-0.552-0.448-1-1-1s-1 0.448-1 1c0 0.063-0.1 0.442-1.035 0.863-0.844 0.38-2.073 0.637-3.465 0.637s-2.621-0.257-3.465-0.637c-0.935-0.421-1.035-0.8-1.035-0.863z"></path>
<path d="M3 21.5c0.552 0 1 0.448 1 1 0 0.063 0.1 0.442 1.035 0.863 0.844 0.38 2.073 0.637 3.465 0.637s2.621-0.257 3.465-0.637c0.935-0.421 1.035-0.8 1.035-0.863 0-0.552 0.448-1 1-1s1 0.448 1 1c0 1.337-1.15 2.208-2.215 2.687-1.156 0.52-2.677 0.813-4.285 0.813s-3.129-0.293-4.285-0.813c-1.065-0.479-2.215-1.35-2.215-2.687 0-0.552 0.448-1 1-1z"></path>
<path d="M4 26.5c0-0.552-0.448-1-1-1s-1 0.448-1 1c0 1.337 1.15 2.208 2.215 2.687 1.156 0.52 2.677 0.813 4.285 0.813s3.129-0.293 4.285-0.813c1.065-0.479 2.215-1.35 2.215-2.687 0-0.552-0.448-1-1-1s-1 0.448-1 1c0 0.063-0.1 0.442-1.035 0.863-0.844 0.38-2.073 0.637-3.465 0.637s-2.621-0.257-3.465-0.637c-0.935-0.421-1.035-0.8-1.035-0.863z"></path>
</svg>
