<!-- Generated by IcoMoon.io -->
<svg version="1.1" xmlns="http://www.w3.org/2000/svg" width="32" height="32" viewBox="0 0 32 32">
<title>comment-pending</title>
<path d="M10.5 13c0 0.828-0.672 1.5-1.5 1.5s-1.5-0.672-1.5-1.5c0-0.828 0.672-1.5 1.5-1.5s1.5 0.672 1.5 1.5z"></path>
<path d="M16 14.5c0.828 0 1.5-0.672 1.5-1.5s-0.672-1.5-1.5-1.5c-0.828 0-1.5 0.672-1.5 1.5s0.672 1.5 1.5 1.5z"></path>
<path d="M24.5 13c0 0.828-0.672 1.5-1.5 1.5s-1.5-0.672-1.5-1.5c0-0.828 0.672-1.5 1.5-1.5s1.5 0.672 1.5 1.5z"></path>
<path d="M6 2c-2.252 0-4 1.748-4 4v20c0 2.212 2.66 3.291 4.269 1.843l0.006-0.006 4.118-3.837h15.606c2.252 0 4-1.748 4-4v-14c0-2.252-1.748-4-4-4h-20zM4 6c0-1.148 0.852-2 2-2h20c1.148 0 2 0.852 2 2v14c0 1.148-0.852 2-2 2h-16.394l-4.68 4.361c-0.181 0.159-0.405 0.181-0.607 0.095-0.206-0.088-0.319-0.256-0.319-0.456v-20z"></path>
</svg>
