<!-- Generated by IcoMoon.io -->
<svg version="1.1" xmlns="http://www.w3.org/2000/svg" width="32" height="32" viewBox="0 0 32 32">
<title>comments</title>
<path d="M6 3c-2.252 0-4 1.748-4 4v15c0 2.212 2.66 3.291 4.269 1.843l0.006-0.006 4.118-3.837h8.606c2.252 0 4-1.748 4-4v-9c0-2.252-1.748-4-4-4h-13zM4 7c0-1.148 0.852-2 2-2h13c1.148 0 2 0.852 2 2v9c0 1.148-0.852 2-2 2h-9.394l-4.68 4.361c-0.181 0.159-0.405 0.181-0.607 0.095-0.206-0.088-0.319-0.256-0.319-0.456v-15z"></path>
<path d="M25 8c-0.552 0-1 0.448-1 1s0.448 1 1 1h1c1.148 0 2 0.852 2 2v15c0 0.2-0.113 0.368-0.319 0.456-0.202 0.087-0.427 0.064-0.607-0.095l-4.68-4.361h-9.394c-0.772 0-1.319-0.333-1.626-0.886-0.268-0.483-0.877-0.657-1.36-0.389s-0.657 0.877-0.389 1.36c0.693 1.247 1.946 1.914 3.374 1.914h8.606l4.125 3.843c1.609 1.448 4.269 0.369 4.269-1.843v-15c0-2.252-1.748-4-4-4h-1z"></path>
</svg>
