<!-- Generated by IcoMoon.io -->
<svg version="1.1" xmlns="http://www.w3.org/2000/svg" width="32" height="32" viewBox="0 0 32 32">
<title>compass</title>
<path d="M19.942 19.337l-0.151 0.454-0.454 0.151c-0.013 0.005-0.027 0.009-0.040 0.014l-10.878 3.626 3.626-10.878c0.004-0.013 0.008-0.026 0.013-0.040l0.151-0.454 0.454-0.151c0.013-0.005 0.026-0.009 0.039-0.013l10.879-3.626-3.626 10.878c-0.004 0.013-0.009 0.027-0.013 0.040zM18.563 17.149l1.856-5.568-5.568 1.856 3.712 3.712zM13.437 14.851l-1.856 5.568 5.568-1.856-3.712-3.712z"></path>
<path d="M2 16c0-7.732 6.268-14 14-14s14 6.268 14 14c0 7.732-6.268 14-14 14s-14-6.268-14-14zM16 4c-6.627 0-12 5.373-12 12s5.373 12 12 12c6.627 0 12-5.373 12-12s-5.373-12-12-12z"></path>
</svg>
