<!-- Generated by IcoMoon.io -->
<svg version="1.1" xmlns="http://www.w3.org/2000/svg" width="32" height="32" viewBox="0 0 32 32">
<title>currency-yen</title>
<path d="M12 18c0-0.552 0.448-1 1-1h2v-1.638l-4.768-5.722c-0.354-0.424-0.296-1.055 0.128-1.408s1.055-0.296 1.408 0.128l4.232 5.078 4.232-5.078c0.354-0.424 0.984-0.482 1.408-0.128s0.482 0.984 0.128 1.408l-4.768 5.722v1.638h2c0.552 0 1 0.448 1 1s-0.448 1-1 1h-2v1h2c0.552 0 1 0.448 1 1s-0.448 1-1 1h-2v1c0 0.552-0.448 1-1 1s-1-0.448-1-1v-1h-2c-0.552 0-1-0.448-1-1s0.448-1 1-1h2v-1h-2c-0.552 0-1-0.448-1-1z"></path>
<path d="M2 16c0-7.732 6.268-14 14-14s14 6.268 14 14c0 7.732-6.268 14-14 14s-14-6.268-14-14zM16 4c-6.627 0-12 5.373-12 12s5.373 12 12 12c6.627 0 12-5.373 12-12s-5.373-12-12-12z"></path>
</svg>
