<!-- Generated by IcoMoon.io -->
<svg version="1.1" xmlns="http://www.w3.org/2000/svg" width="32" height="32" viewBox="0 0 32 32">
<title>currency-litecoin</title>
<path d="M16.275 8.039c0.531 0.152 0.838 0.705 0.687 1.236l-1.636 5.725h1.674c0.552 0 1 0.448 1 1s-0.448 1-1 1h-2.246l-1.429 5h6.674c0.552 0 1 0.448 1 1s-0.448 1-1 1h-9.326l2-7h-1.674c-0.552 0-1-0.448-1-1s0.448-1 1-1h2.246l1.793-6.275c0.152-0.531 0.705-0.839 1.236-0.687z"></path>
<path d="M2 16c0-7.732 6.268-14 14-14s14 6.268 14 14c0 7.732-6.268 14-14 14s-14-6.268-14-14zM16 4c-6.627 0-12 5.373-12 12s5.373 12 12 12c6.627 0 12-5.373 12-12s-5.373-12-12-12z"></path>
</svg>
