<!-- Generated by IcoMoon.io -->
<svg version="1.1" xmlns="http://www.w3.org/2000/svg" width="32" height="32" viewBox="0 0 32 32">
<title>currency-bitcoin</title>
<path d="M16 8v-1c0-0.552 0.448-1 1-1s1 0.448 1 1v1h0.5c2.452 0 4.5 2.048 4.5 4.5 0 1.401-0.668 2.669-1.698 3.5 1.030 0.831 1.698 2.099 1.698 3.5 0 2.452-2.048 4.5-4.5 4.5h-0.5v1c0 0.552-0.448 1-1 1s-1-0.448-1-1v-1h-1v1c0 0.552-0.448 1-1 1s-1-0.448-1-1v-1h-2v-16h2v-1c0-0.552 0.448-1 1-1s1 0.448 1 1v1h1zM18.5 22c1.348 0 2.5-1.152 2.5-2.5s-1.152-2.5-2.5-2.5h-5.5v5h5.5zM13 10v5h5.5c1.348 0 2.5-1.152 2.5-2.5s-1.152-2.5-2.5-2.5h-5.5z"></path>
<path d="M16 2c-7.732 0-14 6.268-14 14s6.268 14 14 14c7.732 0 14-6.268 14-14s-6.268-14-14-14zM4 16c0-6.627 5.373-12 12-12s12 5.373 12 12c0 6.627-5.373 12-12 12s-12-5.373-12-12z"></path>
</svg>
