<!-- Generated by IcoMoon.io -->
<svg version="1.1" xmlns="http://www.w3.org/2000/svg" width="32" height="32" viewBox="0 0 32 32">
<title>currency-euro</title>
<path d="M12.12 11.694c2.199-2.284 5.856-2.303 8.173 0.014 0.39 0.39 1.024 0.39 1.414 0s0.39-1.024 0-1.414c-3.083-3.083-8.027-3.103-11.027 0.014-0.782 0.813-1.367 1.769-1.747 2.794h-0.933c-0.552 0-1 0.448-1 1s0.448 1 1 1h0.462c-0.069 0.631-0.066 1.27 0.011 1.9h-1.472c-0.552 0-1 0.448-1 1s0.448 1 1 1h1.979c0.378 0.951 0.947 1.84 1.714 2.607 3.083 3.083 8.027 3.103 11.027-0.014 0.383-0.398 0.371-1.031-0.027-1.414s-1.031-0.371-1.414 0.027c-2.199 2.284-5.856 2.303-8.173-0.014-0.362-0.362-0.666-0.764-0.911-1.193h3.804c0.552 0 1-0.448 1-1s-0.448-1-1-1h-4.507c-0.102-0.627-0.107-1.269-0.017-1.9h6.524c0.552 0 1-0.448 1-1s-0.448-1-1-1h-5.887c0.263-0.507 0.599-0.982 1.007-1.406z"></path>
<path d="M16 2c-7.732 0-14 6.268-14 14s6.268 14 14 14c7.732 0 14-6.268 14-14s-6.268-14-14-14zM4 16c0-6.627 5.373-12 12-12s12 5.373 12 12c0 6.627-5.373 12-12 12s-12-5.373-12-12z"></path>
</svg>
