<!-- Generated by IcoMoon.io -->
<svg version="1.1" xmlns="http://www.w3.org/2000/svg" width="32" height="32" viewBox="0 0 32 32">
<title>currency-xrp</title>
<path d="M17.481 17l4.3 5.375c0.345 0.431 0.275 1.061-0.156 1.406s-1.061 0.275-1.406-0.156l-3.7-4.625h-1.039l-3.7 4.625c-0.345 0.431-0.974 0.501-1.406 0.156s-0.501-0.974-0.156-1.406l4.3-5.375h2.961z"></path>
<path d="M11.781 8.375c-0.345-0.431-0.974-0.501-1.406-0.156s-0.501 0.974-0.156 1.406l4.3 5.375h2.961l4.3-5.375c0.345-0.431 0.275-1.061-0.156-1.406s-1.061-0.275-1.406 0.156l-3.7 4.625h-1.039l-3.7-4.625z"></path>
<path d="M2 16c0-7.732 6.268-14 14-14s14 6.268 14 14c0 7.732-6.268 14-14 14s-14-6.268-14-14zM16 4c-6.627 0-12 5.373-12 12s5.373 12 12 12c6.627 0 12-5.373 12-12s-5.373-12-12-12z"></path>
</svg>
