<!-- Generated by IcoMoon.io -->
<svg version="1.1" xmlns="http://www.w3.org/2000/svg" width="32" height="32" viewBox="0 0 32 32">
<title>currency-usd</title>
<path d="M17 7v1.078c0.909 0.143 1.745 0.481 2.421 0.982 0.922 0.683 1.579 1.708 1.579 2.941 0 0.552-0.448 1-1 1s-1-0.448-1-1c0-0.467-0.242-0.942-0.771-1.334-0.533-0.395-1.318-0.666-2.229-0.666s-1.696 0.271-2.229 0.666c-0.528 0.392-0.771 0.867-0.771 1.334 0 0.605 0.28 1.098 0.89 1.607 0.643 0.536 1.529 0.985 2.557 1.499l0.058 0.029c0.958 0.479 2.045 1.023 2.885 1.722 0.89 0.741 1.61 1.748 1.61 3.143 0 1.233-0.658 2.258-1.579 2.941-0.675 0.501-1.512 0.838-2.421 0.982v1.078c0 0.552-0.448 1-1 1s-1-0.448-1-1v-1.078c-0.909-0.143-1.745-0.481-2.421-0.982-0.921-0.683-1.579-1.708-1.579-2.941 0-0.552 0.448-1 1-1s1 0.448 1 1c0 0.468 0.242 0.942 0.771 1.334 0.533 0.395 1.318 0.666 2.229 0.666s1.696-0.271 2.229-0.666c0.529-0.392 0.771-0.867 0.771-1.334 0-0.605-0.28-1.098-0.89-1.607-0.643-0.536-1.529-0.985-2.557-1.499l-0.058-0.029c-0.958-0.479-2.045-1.023-2.885-1.722-0.89-0.742-1.61-1.748-1.61-3.143 0-1.232 0.658-2.258 1.579-2.941 0.675-0.501 1.512-0.838 2.421-0.982v-1.078c0-0.552 0.448-1 1-1s1 0.448 1 1z"></path>
<path d="M16 2c-7.732 0-14 6.268-14 14s6.268 14 14 14c7.732 0 14-6.268 14-14s-6.268-14-14-14zM4 16c0-6.627 5.373-12 12-12s12 5.373 12 12c0 6.627-5.373 12-12 12s-12-5.373-12-12z"></path>
</svg>
