<!-- Generated by IcoMoon.io -->
<svg version="1.1" xmlns="http://www.w3.org/2000/svg" width="32" height="32" viewBox="0 0 32 32">
<title>cycle-ccw</title>
<path d="M25.907 6.118c-5.491-5.491-14.324-5.491-19.814 0l-1.093 1.093v-3.186c0-0.552-0.448-1-1-1s-1 0.448-1 1v6.6h0.997c0.002 0 0.005 0 0.007 0h5.597c0.552 0 1-0.448 1-1s-0.448-1-1-1h-3.186l1.093-1.093c4.709-4.709 12.276-4.709 16.986 0s4.71 12.276 0 16.986c-4.71 4.71-12.276 4.71-16.986 0-2.495-2.495-3.693-5.816-3.509-9.137 0.031-0.552-0.392-1.023-0.943-1.054s-1.023 0.392-1.054 0.943c-0.215 3.879 1.186 7.758 4.091 10.663 5.491 5.491 14.324 5.491 19.814 0s5.491-14.324 0-19.814z"></path>
</svg>
