<!-- Generated by IcoMoon.io -->
<svg version="1.1" xmlns="http://www.w3.org/2000/svg" width="32" height="32" viewBox="0 0 32 32">
<title>cycle-square-cw</title>
<path d="M8 3c-2.252 0-4 1.748-4 4v16c0 2.252 1.748 4 4 4h2c0.552 0 1-0.448 1-1s-0.448-1-1-1h-2c-1.148 0-2-0.852-2-2v-16c0-1.148 0.852-2 2-2h16c1.148 0 2 0.852 2 2v16c0 1.148-0.852 2-2 2h-5.586l1.293-1.293c0.39-0.39 0.39-1.024 0-1.414s-1.024-0.39-1.414 0l-3.707 3.707 3.707 3.707c0.39 0.39 1.024 0.39 1.414 0s0.39-1.024 0-1.414l-1.293-1.293h5.586c2.252 0 4-1.748 4-4v-16c0-2.252-1.748-4-4-4h-16z"></path>
</svg>
