<!-- Generated by IcoMoon.io -->
<svg version="1.1" xmlns="http://www.w3.org/2000/svg" width="32" height="32" viewBox="0 0 32 32">
<title>database-time</title>
<path d="M4 9.733c0.702 0.408 1.559 0.758 2.514 1.051 2.472 0.761 5.825 1.216 9.486 1.216s7.015-0.455 9.486-1.216c0.955-0.294 1.812-0.643 2.514-1.051v3.267c0 0.064-0.036 0.289-0.455 0.568-0.459 0.306-0.584 0.927-0.277 1.387 0.189 0.284 0.498 0.44 0.815 0.445 0.154 0.353 0.507 0.6 0.917 0.6 0.552 0 1-0.448 1-1v-8c0-1.026-0.673-1.812-1.433-2.366-0.782-0.569-1.851-1.040-3.080-1.419-2.472-0.761-5.826-1.216-9.486-1.216s-7.015 0.455-9.486 1.216c-1.23 0.378-2.298 0.849-3.080 1.419-0.761 0.553-1.433 1.34-1.433 2.366v18c0 0.98 0.618 1.739 1.327 2.279 0.725 0.552 1.713 1.010 2.847 1.384 2.28 0.751 5.381 1.235 8.796 1.337 0.552 0.016 1.013-0.418 1.029-0.97s-0.418-1.013-0.97-1.029c-3.286-0.098-6.185-0.564-8.229-1.238-1.028-0.339-1.784-0.712-2.262-1.076-0.494-0.376-0.538-0.616-0.538-0.687v-3.262c0.449 0.262 0.957 0.497 1.504 0.708 1.909 0.734 4.514 1.247 7.426 1.452 0.551 0.039 1.029-0.377 1.067-0.927s-0.377-1.029-0.928-1.067c-2.788-0.196-5.183-0.683-6.849-1.323-0.837-0.322-1.436-0.663-1.808-0.983-0.377-0.324-0.413-0.528-0.413-0.597v-3.277c0.621 0.359 1.36 0.671 2.175 0.939 2.28 0.751 5.381 1.235 8.796 1.337 0.552 0.016 1.013-0.418 1.029-0.97s-0.418-1.013-0.97-1.029c-3.286-0.098-6.185-0.564-8.229-1.238-1.028-0.339-1.784-0.712-2.262-1.076-0.494-0.376-0.538-0.617-0.538-0.687v-3.267zM4 7c0-0.079 0.055-0.345 0.61-0.748 0.533-0.388 1.369-0.779 2.492-1.124 2.233-0.687 5.38-1.127 8.898-1.127s6.665 0.44 8.898 1.127c1.123 0.345 1.959 0.736 2.492 1.124 0.555 0.404 0.61 0.669 0.61 0.748s-0.055 0.345-0.61 0.748c-0.533 0.388-1.369 0.779-2.492 1.124-2.233 0.687-5.38 1.127-8.898 1.127s-6.665-0.44-8.898-1.127c-1.123-0.345-1.959-0.736-2.492-1.124-0.555-0.404-0.61-0.669-0.61-0.748z"></path>
<path d="M23 18c0.552 0 1 0.448 1 1v3.586l1.707 1.707c0.39 0.39 0.39 1.024 0 1.414s-1.024 0.39-1.414 0l-2.293-2.293v-4.414c0-0.552 0.448-1 1-1z"></path>
<path d="M15 23c0-4.418 3.582-8 8-8s8 3.582 8 8c0 4.418-3.582 8-8 8s-8-3.582-8-8zM23 17c-3.314 0-6 2.686-6 6s2.686 6 6 6c3.314 0 6-2.686 6-6s-2.686-6-6-6z"></path>
</svg>
