<!-- Generated by IcoMoon.io -->
<svg version="1.1" xmlns="http://www.w3.org/2000/svg" width="32" height="32" viewBox="0 0 32 32">
<title>delete-circle</title>
<path d="M9.793 9.793c0.39-0.391 1.024-0.391 1.414 0l4.793 4.793 4.793-4.793c0.39-0.391 1.024-0.391 1.414 0s0.39 1.024 0 1.414l-4.793 4.793 4.793 4.793c0.39 0.39 0.39 1.024 0 1.414s-1.024 0.39-1.414 0l-4.793-4.793-4.793 4.793c-0.39 0.39-1.024 0.39-1.414 0s-0.391-1.024 0-1.414l4.793-4.793-4.793-4.793c-0.391-0.39-0.391-1.024 0-1.414z"></path>
<path d="M2 16c0-7.732 6.268-14 14-14s14 6.268 14 14c0 7.732-6.268 14-14 14s-14-6.268-14-14zM16 4c-6.627 0-12 5.373-12 12s5.373 12 12 12c6.627 0 12-5.373 12-12s-5.373-12-12-12z"></path>
</svg>
