<!-- Generated by IcoMoon.io -->
<svg version="1.1" xmlns="http://www.w3.org/2000/svg" width="32" height="32" viewBox="0 0 32 32">
<title>diamond</title>
<path d="M6.591 2.088c0.045-0.020 0.091-0.037 0.138-0.050 0.097-0.027 0.196-0.040 0.293-0.037h17.956c0.096-0.002 0.194 0.010 0.291 0.037 0.050 0.014 0.099 0.032 0.146 0.053 0.199 0.090 0.355 0.24 0.456 0.419 0.008 0.014 0.016 0.029 0.023 0.044l3.99 7.979c0.045 0.086 0.078 0.177 0.096 0.271 0.011 0.054 0.017 0.108 0.019 0.163 0.007 0.216-0.055 0.435-0.191 0.622-0.012 0.017-0.025 0.033-0.038 0.049l-12.987 15.984c-0.186 0.235-0.473 0.38-0.784 0.38s-0.598-0.144-0.785-0.38l-12.986-15.983c-0.013-0.016-0.026-0.032-0.038-0.049-0.142-0.195-0.204-0.427-0.189-0.653 0.002-0.033 0.006-0.067 0.012-0.1 0.018-0.105 0.052-0.208 0.102-0.303l3.998-7.995c0.101-0.193 0.265-0.355 0.477-0.449zM19.088 21.614l7.811-9.614h-4.206l-3.605 9.614zM20.557 12h-9.114l4.557 12.152 4.557-12.152zM9.307 12h-4.206l7.811 9.614-3.605-9.614zM6.869 5.499l-2.251 4.502h3.939l-1.688-4.502zM12 10h8l-4-5.333-4 5.333zM23.443 10h3.939l-2.251-4.502-1.688 4.502zM23.557 4h-5.557l3.705 4.94 1.852-4.94zM14 4h-5.557l1.852 4.94 3.705-4.94z"></path>
</svg>
