<!-- Generated by IcoMoon.io -->
<svg version="1.1" xmlns="http://www.w3.org/2000/svg" width="32" height="32" viewBox="0 0 32 32">
<title>digitalocean</title>
<path d="M16 30.36v-5.67c1.469 0.002 2.916-0.356 4.214-1.042s2.41-1.679 3.236-2.893 1.343-2.612 1.505-4.072c0.162-1.46-0.036-2.937-0.576-4.303-0.431-1.152-1.108-2.195-1.984-3.059s-1.929-1.526-3.086-1.941c-1.36-0.538-2.831-0.736-4.285-0.578s-2.848 0.669-4.060 1.488c-1.212 0.818-2.207 1.92-2.898 3.21s-1.057 2.728-1.066 4.191h-5.67c0.006-2.326 0.563-4.618 1.625-6.687s2.6-3.858 4.488-5.218c1.887-1.36 4.070-2.254 6.369-2.607s4.649-0.157 6.858 0.573c2.174 0.687 4.152 1.887 5.765 3.499s2.816 3.588 3.505 5.761c0.732 2.209 0.93 4.561 0.577 6.861s-1.246 4.485-2.607 6.373c-1.36 1.889-3.149 3.427-5.22 4.491s-4.363 1.62-6.691 1.625zM10.35 24.69h5.65v-5.66h-5.65v5.66zM6 29.040h4.34v-4.35h-4.34v4.35zM2.36 24.69h3.64v-3.63h-3.64v3.63z"></path>
</svg>
