<!-- Generated by IcoMoon.io -->
<svg version="1.1" xmlns="http://www.w3.org/2000/svg" width="32" height="32" viewBox="0 0 32 32">
<title>dog</title>
<path d="M7.863 6.167c-0.276 0.083-0.423 0.192-0.64 0.48-0.504 0.672-1.275 1.014-1.912 1.235-0.333 0.116-0.682 0.215-1.002 0.306l-0.043 0.012c-0.090 0.026-0.179 0.051-0.265 0.075-0.002 0.193 0.010 0.404 0.045 0.607 0.084 0.484 0.242 0.636 0.311 0.67 0.022 0.011 0.104 0.041 0.325 0.049 0.177 0.006 0.363-0.002 0.607-0.013 0.072-0.003 0.149-0.007 0.231-0.010 0.672-0.027 1.601-0.041 2.555 0.368l0.368 0.158 0.158 0.368c0.084 0.196 0.166 0.384 0.245 0.565 0.49 1.125 0.878 2.015 1.080 3.226 0.080 0.478 0.133 1.112 0.183 1.706 0.020 0.242 0.040 0.477 0.061 0.693 0.039 0.398 0.081 0.747 0.134 1.024 0.044 0.231 0.084 0.338 0.095 0.37 0.004 0.012 0.005 0.013 0 0.007 0.060 0.090 0.171 0.224 0.355 0.428 0.060 0.067 0.134 0.147 0.213 0.233 0.127 0.138 0.268 0.292 0.395 0.434 0.422 0.474 0.948 1.111 1.229 1.812 0.217 0.544 0.493 1.396 0.688 2.17 0.098 0.387 0.182 0.779 0.227 1.118 0.022 0.168 0.038 0.347 0.036 0.518-0.002 0.138-0.015 0.408-0.146 0.67-0.121 0.242-0.283 0.467-0.41 0.639-0.050 0.068-0.096 0.128-0.138 0.183-0.081 0.107-0.15 0.198-0.22 0.299-0.069 0.1-0.111 0.171-0.136 0.22 0.040 0.081 0.076 0.113 0.098 0.129 0.033 0.023 0.139 0.083 0.411 0.083 0.398 0 0.915-0.020 1.34-0.082 0.134-0.020 0.243-0.042 0.326-0.063l0.009-0.031c0.043-0.158 0.091-0.351 0.137-0.552 0.041-0.177 0.086-0.385 0.125-0.566l0.027-0.123c-0.158-0.491-0.394-1.266-0.592-2.015-0.119-0.45-0.229-0.91-0.299-1.3-0.035-0.194-0.063-0.39-0.075-0.569-0.009-0.142-0.021-0.411 0.066-0.672 0.159-0.476 0.368-1.816 0.368-3.665h2c0 1.844-0.193 3.386-0.439 4.198l0 0.007c0.005 0.076 0.020 0.192 0.048 0.349 0.056 0.312 0.15 0.712 0.264 1.141 0.226 0.856 0.508 1.757 0.643 2.16l0.092 0.276-0.071 0.282c-0.016 0.063-0.038 0.166-0.067 0.304-0.036 0.166-0.082 0.382-0.141 0.64-0.049 0.213-0.103 0.439-0.158 0.637-0.048 0.173-0.118 0.409-0.209 0.59-0.234 0.469-0.691 0.664-0.907 0.745-0.273 0.102-0.579 0.164-0.857 0.204-0.563 0.083-1.191 0.104-1.631 0.104-0.566 0-1.106-0.126-1.56-0.446-0.459-0.322-0.733-0.771-0.888-1.238-0.144-0.433-0.077-0.836 0.030-1.139 0.104-0.293 0.265-0.55 0.4-0.746 0.095-0.137 0.208-0.287 0.302-0.411 0.036-0.047 0.069-0.091 0.097-0.128 0.068-0.092 0.12-0.165 0.158-0.224-0.003-0.038-0.008-0.086-0.016-0.146-0.031-0.231-0.095-0.541-0.183-0.892-0.177-0.702-0.426-1.469-0.605-1.917-0.139-0.347-0.45-0.757-0.867-1.226-0.124-0.139-0.234-0.259-0.346-0.381-0.081-0.088-0.163-0.177-0.251-0.274-0.183-0.202-0.385-0.434-0.535-0.659-0.226-0.338-0.332-0.776-0.396-1.109-0.071-0.371-0.121-0.795-0.161-1.209-0.027-0.284-0.051-0.56-0.073-0.823-0.046-0.55-0.088-1.045-0.154-1.44-0.159-0.953-0.442-1.605-0.933-2.737l-0.082-0.189c-0.409-0.105-0.843-0.109-1.338-0.089-0.056 0.002-0.115 0.005-0.176 0.008-0.256 0.012-0.548 0.025-0.812 0.015-0.336-0.012-0.751-0.060-1.149-0.259-0.937-0.468-1.268-1.434-1.387-2.117-0.125-0.72-0.076-1.453 0.015-1.907l0.114-0.569 0.551-0.184c0.321-0.107 0.651-0.2 0.953-0.286l0.056-0.016c0.327-0.093 0.621-0.177 0.89-0.27 0.568-0.198 0.844-0.38 0.969-0.546 0.412-0.55 0.893-0.964 1.665-1.196 0.681-0.204 1.549-0.252 2.697-0.252 1.172 0 2.027 0.093 2.649 0.34 0.333 0.132 0.617 0.315 0.847 0.563 0.227 0.244 0.359 0.504 0.447 0.726 0.073 0.183 0.155 0.405 0.246 0.654 0.108 0.294 0.229 0.625 0.368 0.976 0.186 0.307 0.322 0.623 0.401 0.944 0.022 0.048 0.044 0.096 0.067 0.144 0.243 0.514 0.498 0.966 0.754 1.299 0.274 0.357 0.454 0.454 0.51 0.47 0.488 0.139 0.992 0.084 1.97-0.023l0.086-0.009c0.988-0.108 2.249-0.222 3.938 0.003 2.131 0.284 4.114 1.43 5.136 3.219 0.789 1.38 0.773 2.789 0.762 3.758-0.001 0.067-0.001 0.133-0.002 0.196 0.081 0.354 0.216 0.664 0.401 1.013 0.084 0.158 0.172 0.314 0.272 0.488l0.074 0.131c0.127 0.224 0.266 0.473 0.404 0.748 0.099 0.198 0.159 0.306 0.221 0.418 0.048 0.087 0.097 0.176 0.166 0.31 0.128 0.247 0.246 0.515 0.323 0.864 0.142 0.638 0.124 1.468 0.021 2.907-0.106 1.48-0.27 2.461-0.509 3.097-0.121 0.321-0.29 0.639-0.556 0.881-0.299 0.272-0.649 0.384-0.985 0.384h-0.032c-0.485 0-1.316 0-2.039-0.144-0.365-0.073-0.802-0.201-1.17-0.455-0.406-0.281-0.759-0.748-0.759-1.4 0-1.009 0.35-1.691 0.632-2.184l0.007-0.012c0.298-0.522 0.361-0.632 0.361-0.804 0-0.363-0.013-0.594-0.038-0.752-0.018-0.115-0.038-0.16-0.043-0.171-0.008-0.008-0.030-0.027-0.082-0.058-0.105-0.062-0.265-0.135-0.547-0.248-0.643-0.257-1.123-0.588-1.48-0.994-0.354-0.402-0.538-0.822-0.663-1.161-0.050-0.137-0.092-0.253-0.127-0.354-0.157-0.445-0.203-0.574-0.437-0.731-0.032-0.021-0.080-0.052-0.257-0.014-0.213 0.045-0.489 0.166-0.881 0.374-0.094 0.050-0.198 0.107-0.308 0.167-0.295 0.161-0.637 0.348-0.964 0.498-0.464 0.213-1.022 0.416-1.63 0.442l-0.086-1.998c0.23-0.010 0.514-0.093 0.88-0.261 0.261-0.12 0.503-0.252 0.773-0.4 0.125-0.068 0.256-0.14 0.397-0.215 0.401-0.213 0.892-0.456 1.404-0.564 0.548-0.116 1.185-0.091 1.782 0.307 0.842 0.561 1.112 1.391 1.267 1.868 0.023 0.072 0.044 0.136 0.064 0.19 0.087 0.237 0.168 0.394 0.287 0.529 0.116 0.131 0.318 0.298 0.723 0.46 0.518 0.207 1.167 0.467 1.559 1.067 0.378 0.579 0.407 1.303 0.407 2.018 0 0.739-0.349 1.329-0.562 1.69-0.025 0.043-0.049 0.082-0.070 0.119-0.189 0.331-0.326 0.613-0.36 1 0.069 0.026 0.171 0.057 0.313 0.085 0.41 0.082 0.909 0.1 1.359 0.105 0.128-0.361 0.273-1.095 0.374-2.503 0.107-1.494 0.089-2.026 0.021-2.331-0.027-0.123-0.066-0.222-0.148-0.38-0.016-0.032-0.049-0.091-0.090-0.168-0.088-0.161-0.214-0.395-0.309-0.584-0.114-0.227-0.232-0.44-0.355-0.657l-0.067-0.118c-0.101-0.177-0.207-0.364-0.306-0.55-0.25-0.47-0.485-0.995-0.616-1.65l-0.019-0.097v-0.099c0-0.101 0-0.201 0.001-0.299 0.005-1.005 0.009-1.88-0.498-2.766-0.654-1.144-2.023-2.010-3.664-2.229-1.453-0.194-2.528-0.099-3.457 0.003-0.076 0.008-0.152 0.017-0.229 0.026-0.82 0.093-1.712 0.194-2.594-0.058-0.678-0.194-1.187-0.705-1.547-1.176-0.031-0.040-0.062-0.082-0.092-0.123-0.94 0.723-2.322 0.761-3.533 0.155l0.894-1.789c0.727 0.363 1.265 0.188 1.451 0.022 0.082-0.073 0.123-0.157 0.126-0.272 0-0.015-0-0.032-0.002-0.051-0.092-0.208-0.18-0.418-0.263-0.623-0.019-0.027-0.038-0.054-0.059-0.082l0.020-0.015c-0.186-0.463-0.345-0.898-0.468-1.231-0.075-0.205-0.137-0.372-0.181-0.483-0.034-0.084-0.052-0.103-0.054-0.106s-0.007-0.008-0.022-0.018c-0.016-0.011-0.047-0.028-0.1-0.050-0.247-0.098-0.777-0.198-1.91-0.198-1.157 0-1.755 0.057-2.122 0.167zM11.539 24.77c-0-0-0-0.006 0.001-0.016-0 0.011-0.001 0.016-0.001 0.016zM15.993 21.51l0 0.001c0 0.002-0 0.005-0 0.009 0-0.007 0-0.010 0-0.010z"></path>
<path d="M29.397 8.514c0.034 1.607-0.896 3.060-1.733 3.897l-1.414-1.414c0.629-0.629 1.166-1.586 1.148-2.441-0.008-0.394-0.133-0.793-0.465-1.183-0.344-0.404-0.951-0.845-1.993-1.224l0.683-1.88c1.263 0.459 2.201 1.066 2.832 1.807 0.643 0.755 0.924 1.601 0.942 2.437z"></path>
<path d="M8.271 23.979c0-0.378-0.073-0.94-0.249-1.771l1.957-0.415c0.184 0.87 0.292 1.596 0.292 2.186 0 0.578-0.102 1.189-0.508 1.668-0.159 0.188-0.336 0.33-0.447 0.419l-0.034 0.027c-0.108 0.086-0.16 0.128-0.207 0.175-0.039 0.039-0.048 0.057-0.052 0.067s-0.021 0.050-0.022 0.153c0.001 0.005 0.004 0.019 0.013 0.039 0.015 0.032 0.033 0.054 0.049 0.067 0.010 0.008 0.038 0.029 0.113 0.038 0.081 0.010 0.243 0.008 0.509-0.081l0.632 1.897c-0.987 0.329-1.863 0.219-2.503-0.293-0.578-0.462-0.813-1.14-0.813-1.656 0-0.753 0.284-1.268 0.655-1.642 0.135-0.136 0.284-0.254 0.378-0.329l0.034-0.027c0.093-0.075 0.135-0.112 0.159-0.137 0.010-0.026 0.044-0.13 0.044-0.387z"></path>
<path d="M22.106 22.553c-0.209 0.418-0.362 0.617-0.537 0.819-0.043 0.050-0.093 0.105-0.148 0.166-0.184 0.203-0.431 0.477-0.72 0.862-0.669 0.892-0.407 2.015 0.164 2.707 0.619 0.75 1.672 1.164 2.878 0.863l-0.485-1.94c-0.47 0.118-0.731-0.049-0.85-0.195-0.121-0.147-0.102-0.233-0.097-0.249 0.224-0.297 0.386-0.477 0.556-0.666 0.067-0.075 0.136-0.151 0.21-0.236 0.276-0.317 0.526-0.655 0.817-1.237l-1.789-0.895z"></path>
</svg>
