<!-- Generated by IcoMoon.io -->
<svg version="1.1" xmlns="http://www.w3.org/2000/svg" width="32" height="32" viewBox="0 0 32 32">
<title>drive-up</title>
<path d="M16 1l4.707 4.707c0.39 0.391 0.39 1.024 0 1.414s-1.024 0.391-1.414 0l-2.293-2.293v10.586c0 0.552-0.448 1-1 1s-1-0.448-1-1v-10.586l-2.293 2.293c-0.39 0.391-1.024 0.391-1.414 0s-0.39-1.024 0-1.414l4.707-4.707z"></path>
<path d="M6 24.414c0-0.552 0.448-1 1-1h3c0.552 0 1 0.448 1 1s-0.448 1-1 1h-3c-0.552 0-1-0.448-1-1z"></path>
<path d="M14 23.414c-0.552 0-1 0.448-1 1s0.448 1 1 1h1c0.552 0 1-0.448 1-1s-0.448-1-1-1h-1z"></path>
<path d="M2 20.436v4.979c0 2.252 1.748 4 4 4h20c2.252 0 4-1.748 4-4v-4.979c0.002-0.078-0.006-0.156-0.023-0.234s-0.043-0.152-0.077-0.223l-4.191-9.18c-0.648-1.424-1.984-2.385-3.61-2.385h-2.1c-0.552 0-1 0.448-1 1s0.448 1 1 1h2.1c0.773 0 1.437 0.438 1.79 1.214l3.555 7.786h-22.888l3.555-7.786c0.344-0.757 1.097-1.214 1.79-1.214h2.1c0.552 0 1-0.448 1-1s-0.448-1-1-1h-2.1c-1.507 0-2.954 0.944-3.61 2.386l-4.19 9.179c-0.034 0.070-0.060 0.144-0.076 0.222s-0.024 0.157-0.023 0.234zM4 25.414v-4h24v4c0 1.148-0.852 2-2 2h-20c-1.148 0-2-0.852-2-2z"></path>
</svg>
