<!-- Generated by IcoMoon.io -->
<svg version="1.1" xmlns="http://www.w3.org/2000/svg" width="32" height="32" viewBox="0 0 32 32">
<title>drone</title>
<path d="M30.66 16.31h-8.4c-0.143 0.001-0.283-0.046-0.396-0.133s-0.196-0.209-0.233-0.347c-0.302-0.924-0.823-1.761-1.52-2.438s-1.548-1.176-2.48-1.452h-0.050c-0.496-0.152-1.011-0.237-1.53-0.25-1.106 0.001-2.187 0.327-3.11 0.936s-1.646 1.477-2.080 2.494c-0.114 0.356-0.338 0.667-0.64 0.888s-0.666 0.341-1.040 0.342c-0.103 0.010-0.207 0.010-0.31 0-2.25-0.090-4.52 0-6.78 0h-0.76c0.16-1.925 0.72-3.796 1.642-5.494s2.189-3.184 3.718-4.366c5.050-3.89 10.61-4.14 16.31-1.63 4.29 1.92 7.82 7.41 7.69 11.49l-0.030-0.040zM26.78 18.69h-4.45c-0.157-0-0.309 0.055-0.43 0.155s-0.202 0.24-0.23 0.395c-0.367 1.189-1.105 2.229-2.105 2.968s-2.211 1.14-3.455 1.142c-0.755 0.003-1.502-0.143-2.2-0.43-0.829-0.309-1.574-0.806-2.177-1.454s-1.045-1.427-1.293-2.276c-0.1-0.31-0.2-0.44-0.54-0.44h-4.71l-0.35 0.070c-0.028 0.098-0.028 0.202 0 0.3 0.045 0.175 0.105 0.346 0.18 0.51 1.214 2.759 3.17 5.127 5.65 6.84 1.268 0.9 2.738 1.473 4.28 1.666s3.109 0.003 4.559-0.556h-0.070c2.888-1.034 5.306-3.076 6.81-5.75v-0.070c0.579-0.923 0.922-1.974 1-3.060l-0.47-0.010zM12.3 17.69c0.050 0.962 0.467 1.869 1.166 2.533s1.626 1.034 2.589 1.034 1.89-0.37 2.589-1.034c0.699-0.664 1.116-1.57 1.166-2.533-0.050-0.962-0.467-1.869-1.166-2.533s-1.626-1.034-2.589-1.034-1.89 0.37-2.589 1.034c-0.699 0.664-1.116 1.57-1.166 2.533z"></path>
</svg>
