<!-- Generated by IcoMoon.io -->
<svg version="1.1" xmlns="http://www.w3.org/2000/svg" width="32" height="32" viewBox="0 0 32 32">
<title>economy</title>
<path d="M14 2c-2.209 0-4 1.791-4 4s1.791 4 4 4c2.209 0 4-1.791 4-4s-1.791-4-4-4zM12 6c0-1.105 0.895-2 2-2s2 0.895 2 2c0 1.105-0.895 2-2 2s-2-0.895-2-2z"></path>
<path d="M18 11c0-2.209 1.791-4 4-4s4 1.791 4 4c0 2.209-1.791 4-4 4s-4-1.791-4-4zM22 9c-1.105 0-2 0.895-2 2s0.895 2 2 2c1.105 0 2-0.895 2-2s-0.895-2-2-2z"></path>
<path d="M19.882 18.507c0.039-0.005 0.078-0.007 0.118-0.007h6c2.152 0 3.9 1.748 3.9 3.9 0 1.648-1.092 3.118-2.684 3.649l-0.018 0.006-7.999 2.5c-2.13 0.672-4.358 0.553-6.445-0.216l-0.003-0.001-4.931-1.837h-4.82c-0.552 0-1-0.448-1-1v-11c0-0.552 0.448-1 1-1h4.979c0.089-0.002 0.178 0.008 0.266 0.030 0.077 0.019 0.15 0.048 0.219 0.084l3.772 1.886h3.764c1.908 0 3.454 1.254 3.882 3.007zM9 16.118v8.687l4.447 1.657c1.712 0.63 3.483 0.711 5.151 0.184l0.003-0.001 7.99-2.497c0.803-0.271 1.308-0.999 1.308-1.749 0-1.048-0.852-1.9-1.9-1.9h-6c-0.040 0-0.079-0.002-0.118-0.007-0.428 1.753-1.974 3.007-3.882 3.007h-3c-0.552 0-1-0.448-1-1s0.448-1 1-1h3c1.148 0 2-0.852 2-2s-0.852-2-2-2h-4c-0.155 0-0.308-0.036-0.447-0.106l-2.553-1.276zM4 15.5v9h3v-9h-3z"></path>
</svg>
