<!-- Generated by IcoMoon.io -->
<svg version="1.1" xmlns="http://www.w3.org/2000/svg" width="32" height="32" viewBox="0 0 32 32">
<title>edit-square</title>
<path d="M5 6.69c0-1.148 0.852-2 2-2h9c0.552 0 1-0.448 1-1s-0.448-1-1-1h-9c-2.252 0-4 1.748-4 4v18c0 2.252 1.748 4 4 4h18c2.252 0 4-1.748 4-4v-9c0-0.552-0.448-1-1-1s-1 0.448-1 1v9c0 1.148-0.852 2-2 2h-18c-1.148 0-2-0.852-2-2v-18z"></path>
<path d="M26.807 4.083l0.786 0.786c1.633 1.515 1.581 4.061 0.014 5.628l-10.083 10.083-0.231 0.066c-0.012 0.003-0.023 0.007-0.035 0.010l-8.714 2.49 2.489-8.713c0.003-0.012 0.007-0.025 0.011-0.037l0.066-0.23 10.069-10.069c1.515-1.633 4.061-1.581 5.628-0.014zM17 18.276l7.586-7.586-3.586-3.586-7.586 7.586 3.586 3.586zM12.495 16.599l-1.039 3.635 3.635-1.039-2.597-2.596zM22.414 5.69l3.586 3.586 0.193-0.193c0.827-0.827 0.781-2.068 0.031-2.756l-0.016-0.015-0.815-0.815c-0.827-0.827-2.069-0.781-2.756-0.031l-0.015 0.016-0.208 0.208z"></path>
</svg>
