<!-- Generated by IcoMoon.io -->
<svg version="1.1" xmlns="http://www.w3.org/2000/svg" width="32" height="32" viewBox="0 0 32 32">
<title>electric-car</title>
<path d="M6 4c0-0.552 0.448-1 1-1h3c1.905 0 3.45 1.251 3.88 3h4.12c6.652 0 12 5.348 12 12v5c0 1.744-0.596 2.822-1.4 3.425-0.234 0.176-0.469 0.297-0.681 0.381-0.373 1.823-1.986 3.194-3.919 3.194-1.864 0-3.43-1.275-3.874-3h-8.252c-0.444 1.725-2.010 3-3.874 3-1.933 0-3.546-1.371-3.919-3.194-0.213-0.084-0.447-0.206-0.681-0.381-0.804-0.603-1.4-1.681-1.4-3.425 0-1.041 0.499-2.242 1.304-3.399 0.823-1.183 2.034-2.42 3.618-3.542 3.175-2.249 7.878-4.059 14.078-4.059 2.752 0 5 2.248 5 5v2c0 0.552-0.448 1-1 1h-13c-0.552 0-1-0.448-1-1s0.448-1 1-1h7v-1c0-0.552 0.448-1 1-1s1 0.448 1 1v1h3v-1c0-1.648-1.352-3-3-3-5.8 0-10.097 1.69-12.922 3.691-1.416 1.003-2.455 2.079-3.132 3.052-0.695 0.999-0.946 1.798-0.946 2.257 0 0.749 0.143 1.201 0.301 1.475 0.165-0.4 0.393-0.768 0.672-1.090l-0.027-2.642 0.035 2.633c0.733-0.843 1.814-1.376 3.019-1.376 1.864 0 3.43 1.275 3.874 3h8.252c0.444-1.725 2.010-3 3.874-3 1.669 0 3.1 1.023 3.699 2.475 0.157-0.274 0.301-0.727 0.301-1.475v-5c0-5.548-4.452-10-10-10h-4.12c-0.43 1.749-1.975 3-3.88 3h-3c-0.552 0-1-0.448-1-1h-2c-0.552 0-1-0.448-1-1s0.448-1 1-1h2v-2h-2c-0.552 0-1-0.448-1-1s0.448-1 1-1h2zM12 7c0-1.148-0.852-2-2-2h-2v4h2c1.148 0 2-0.852 2-2zM6 26c0 1.105 0.895 2 2 2s2-0.895 2-2c0-1.105-0.895-2-2-2s-2 0.895-2 2zM22 26c0 1.105 0.895 2 2 2s2-0.895 2-2c0-1.105-0.895-2-2-2s-2 0.895-2 2z"></path>
</svg>
