<!-- Generated by IcoMoon.io -->
<svg version="1.1" xmlns="http://www.w3.org/2000/svg" width="32" height="32" viewBox="0 0 32 32">
<title>electric-car-charging</title>
<path d="M21.729 2.363c-0.352 0.426-0.292 1.056 0.134 1.408l1.52 1.256-1.246 1.541-1.5-1.24c-0.426-0.352-1.056-0.292-1.408 0.134s-0.292 1.056 0.134 1.408l1.518 1.254c-0.298 0.424-0.224 1.011 0.181 1.346l2.296 1.897c1.255 1.059 2.953 1.215 4.306 0.501 0.823 1.654 1.335 3.52 1.335 5.432 0 2.369-0.714 4.568-1.916 6.452-0.734-0.887-1.843-1.452-3.084-1.452-1.879 0-3.455 1.295-3.884 3.041-0.414 0.122-0.716 0.506-0.716 0.959s0.302 0.837 0.716 0.959c0.43 1.746 2.006 3.041 3.884 3.041 2.209 0 4-1.791 4-4 0-0.12-0.005-0.238-0.016-0.355 1.85-2.395 3.016-5.368 3.016-8.645 0-2.472-0.72-4.831-1.815-6.841 1.201-1.705 0.895-4.053-0.761-5.34l-2.288-1.89c-0.206-0.17-0.471-0.251-0.737-0.224s-0.51 0.159-0.677 0.366l-0.081 0.1-1.504-1.243c-0.426-0.352-1.056-0.292-1.408 0.134zM23.118 8.575c0.032-0.045 0.060-0.093 0.083-0.141l2.229-2.757c0.050-0.041 0.097-0.088 0.14-0.139 0.030-0.037 0.057-0.075 0.081-0.114l1.511 1.248c0.009 0.007 0.018 0.015 0.027 0.022 0.835 0.642 0.988 1.885 0.246 2.761-0.018 0.021-0.034 0.042-0.050 0.065-0.649 0.909-1.872 1.053-2.74 0.318l-1.528-1.262zM25.992 26.119c0.005 0.059 0.008 0.12 0.008 0.18 0 1.105-0.895 2-2 2s-2-0.895-2-2c0-1.105 0.895-2 2-2 0.886 0 1.638 0.576 1.9 1.375-0.004 0.152 0.027 0.305 0.092 0.445z"></path>
<path d="M20.998 12.3l0.002-0c2.752 0 5 2.248 5 5v2c0 0.552-0.448 1-1 1h-2.2c-0.552 0-1-0.448-1-1s0.448-1 1-1h1.2v-1c0-1.648-1.352-3-3-3-0.814 0-1.441 0.002-2.059 0.090-0.547 0.078-1.053-0.302-1.131-0.848s0.302-1.053 0.849-1.131c0.771-0.11 1.532-0.11 2.305-0.11l0.034 0z"></path>
<path d="M11.874 25.3c-0.444-1.725-2.010-3-3.874-3-1.669 0-3.1 1.023-3.699 2.475-0.157-0.274-0.301-0.727-0.301-1.475 0-0.635 0.482-1.877 1.78-3.318 1.259-1.398 3.185-2.864 5.805-3.959 0.509-0.213 0.75-0.799 0.537-1.308s-0.799-0.75-1.308-0.537c-2.88 1.204-5.054 2.838-6.52 4.466-1.427 1.584-2.295 3.292-2.295 4.657 0 1.744 0.596 2.822 1.4 3.425 0.234 0.176 0.469 0.297 0.681 0.381 0.373 1.823 1.986 3.194 3.919 3.194 1.864 0 3.43-1.275 3.874-3h1.826c0.552 0 1-0.448 1-1s-0.448-1-1-1h-1.826zM6 26.3c0-1.105 0.895-2 2-2s2 0.895 2 2c0 1.105-0.895 2-2 2s-2-0.895-2-2z"></path>
<path d="M16.447 11.406c0.494 0.247 0.694 0.848 0.447 1.342l-3.276 6.553h6.382c0.347 0 0.668 0.18 0.851 0.474s0.199 0.663 0.044 0.973l-4 8c-0.247 0.494-0.848 0.694-1.342 0.447s-0.694-0.848-0.447-1.342l3.276-6.553h-6.382c-0.347 0-0.668-0.179-0.851-0.474s-0.199-0.663-0.044-0.973l4-8c0.247-0.494 0.848-0.694 1.342-0.447z"></path>
</svg>
