<!-- Generated by IcoMoon.io -->
<svg version="1.1" xmlns="http://www.w3.org/2000/svg" width="32" height="32" viewBox="0 0 32 32">
<title>emissions</title>
<path d="M15 8c0-2.752 2.248-5 5-5s5 2.248 5 5c0 2.752-2.248 5-5 5h-17c-0.552 0-1-0.448-1-1s0.448-1 1-1h17c1.648 0 3-1.352 3-3s-1.352-3-3-3c-1.648 0-3 1.352-3 3 0 0.552-0.448 1-1 1s-1-0.448-1-1z"></path>
<path d="M2 17c0-0.552 0.448-1 1-1h21c3.352 0 6 2.648 6 6s-2.648 6-6 6c-3.352 0-6-2.648-6-6 0-0.552 0.448-1 1-1s1 0.448 1 1c0 2.248 1.752 4 4 4s4-1.752 4-4c0-2.248-1.752-4-4-4h-21c-0.552 0-1-0.448-1-1z"></path>
<path d="M3 21c-0.552 0-1 0.448-1 1s0.448 1 1 1h9c1.148 0 2 0.852 2 2s-0.852 2-2 2c-1.148 0-2-0.852-2-2 0-0.552-0.448-1-1-1s-1 0.448-1 1c0 2.252 1.748 4 4 4s4-1.748 4-4c0-2.252-1.748-4-4-4h-9z"></path>
</svg>
