<!-- Generated by IcoMoon.io -->
<svg version="1.1" xmlns="http://www.w3.org/2000/svg" width="32" height="32" viewBox="0 0 32 32">
<title>emission-off</title>
<path d="M2.293 2.293c0.391-0.391 1.024-0.391 1.414 0l23.384 23.384c0.011 0.010 0.021 0.021 0.032 0.032l2.585 2.585c0.39 0.39 0.39 1.024 0 1.414s-1.024 0.39-1.414 0l-2.102-2.102c-0.68 0.266-1.414 0.395-2.191 0.395-3.352 0-6-2.648-6-6 0-0.552 0.448-1 1-1s1 0.448 1 1c0 2.248 1.752 4 4 4 0.192 0 0.377-0.011 0.553-0.032l-7.968-7.968h-13.586c-0.552 0-1-0.448-1-1s0.448-1 1-1h11.586l-3-3h-8.586c-0.552 0-1-0.448-1-1s0.448-1 1-1h6.586l-7.293-7.293c-0.391-0.391-0.391-1.024 0-1.414z"></path>
<path d="M15 8c0-2.752 2.248-5 5-5s5 2.248 5 5c0 2.752-2.248 5-5 5h-3c-0.552 0-1-0.448-1-1s0.448-1 1-1h3c1.648 0 3-1.352 3-3s-1.352-3-3-3c-1.648 0-3 1.352-3 3 0 0.552-0.448 1-1 1s-1-0.448-1-1z"></path>
<path d="M22 16c-0.552 0-1 0.448-1 1s0.448 1 1 1h2c2.248 0 4 1.752 4 4 0 0.498-0.084 0.968-0.229 1.329-0.205 0.513 0.044 1.095 0.557 1.3s1.095-0.044 1.3-0.557c0.256-0.64 0.372-1.37 0.372-2.071 0-3.352-2.648-6-6-6h-2z"></path>
<path d="M3 21c-0.552 0-1 0.448-1 1s0.448 1 1 1h9c1.148 0 2 0.852 2 2s-0.852 2-2 2c-1.148 0-2-0.852-2-2 0-0.552-0.448-1-1-1s-1 0.448-1 1c0 2.252 1.748 4 4 4s4-1.748 4-4c0-2.252-1.748-4-4-4h-9z"></path>
</svg>
