<!-- Generated by IcoMoon.io -->
<svg version="1.1" xmlns="http://www.w3.org/2000/svg" width="32" height="32" viewBox="0 0 32 32">
<title>eu-flag-light</title>
<path d="M15.29 27.3l-1.6 0.23 1.16 1.16-0.28 1.58 1.43-0.78 1.43 0.75-0.28-1.55 1.16-1.13-1.6-0.23-0.71-1.48-0.71 1.45zM9.11 25.69l-1.6 0.24 1.16 1.12-0.28 1.54 1.43-0.75 1.43 0.75-0.25-1.59 1.16-1.12-1.63-0.19-0.71-1.44-0.71 1.44zM21.47 25.69l-1.6 0.24 1.13 1.070-0.28 1.59 1.43-0.75 1.43 0.75-0.28-1.59 1.16-1.12-1.57-0.19-0.71-1.44-0.71 1.44zM4.58 21.12l-1.58 0.23 1.15 1.13-0.27 1.58 1.43-0.75 1.42 0.75-0.27-1.58 1.14-1.13-1.6-0.23-0.7-1.43-0.72 1.43zM25.99 21.12l-1.59 0.23 1.15 1.13-0.27 1.58 1.42-0.75 1.43 0.75-0.27-1.58 1.14-1.13-1.59-0.23-0.71-1.43-0.71 1.43zM2.93 14.94l-1.6 0.23 1.16 1.13-0.28 1.58 1.43-0.75 1.43 0.75-0.28-1.58 1.21-1.13-1.6-0.23-0.71-1.44-0.76 1.44zM27.65 14.94l-1.6 0.23 1.16 1.13-0.28 1.58 1.43-0.75 1.43 0.75-0.28-1.58 1.16-1.13-1.6-0.23-0.71-1.44-0.71 1.44zM4.58 8.76l-1.58 0.23 1.15 1.13-0.28 1.57 1.43-0.75 1.42 0.75-0.27-1.58 1.15-1.12-1.6-0.23-0.7-1.44-0.72 1.44zM26 8.76l-1.6 0.23 1.15 1.13-0.27 1.57 1.42-0.75 1.43 0.75-0.27-1.58 1.14-1.12-1.59-0.23-0.71-1.44-0.7 1.44zM9.11 4.24l-1.6 0.23 1.16 1.12-0.28 1.59 1.43-0.75 1.43 0.75-0.25-1.59 1.16-1.12-1.6-0.23-0.74-1.45-0.71 1.45zM21.47 4.24l-1.6 0.23 1.13 1.12-0.28 1.59 1.43-0.75 1.43 0.75-0.25-1.59 1.16-1.12-1.6-0.23-0.71-1.45-0.71 1.45zM16 1.14l-0.71 1.44-1.6 0.23 1.16 1.13-0.28 1.59 1.43-0.75 1.43 0.75-0.28-1.59 1.16-1.13-1.6-0.23-0.71-1.44z"></path>
</svg>
