<!-- Generated by IcoMoon.io -->
<svg version="1.1" xmlns="http://www.w3.org/2000/svg" width="32" height="32" viewBox="0 0 32 32">
<title>eu-flag-dark</title>
<path d="M20.1 6.13l-1.53 0.22 1.11 1.080-0.26 1.53 1.37-0.72 1.37 0.72-0.26-1.53 1.1-1.080-1.54-0.22-0.68-1.39-0.68 1.39zM10.21 6.13l-1.54 0.22 1.11 1.080-0.26 1.53 1.37-0.72 1.37 0.72-0.26-1.53 1.11-1.080-1.53-0.22-0.69-1.39-0.68 1.39zM15.84 3.42l-0.69 1.39-1.53 0.22 1.11 1.080-0.26 1.52 1.37-0.72 1.37 0.72-0.21-1.52 1.11-1.080-1.53-0.22-0.74-1.39zM23.73 9.75l-1.54 0.23 1.11 1.080-0.3 1.52 1.37-0.72 1.37 0.72-0.26-1.52 1.11-1.080-1.53-0.23-0.69-1.38-0.64 1.38zM25.050 14.69l-1.53 0.23 1.11 1.080-0.26 1.52 1.37-0.72 1.37 0.72-0.26-1.52 1.15-1.070-1.58-0.24-0.68-1.39-0.69 1.39zM23.73 19.69l-1.54 0.22 1.11 1.080-0.3 1.49 1.37-0.72 1.37 0.72-0.26-1.53 1.11-1.080-1.49-0.18-0.69-1.39-0.68 1.39zM20.1 23.27l-1.53 0.23 1.11 1.080-0.26 1.52 1.37-0.72 1.37 0.72-0.26-1.52 1.1-1.080-1.54-0.23-0.68-1.38-0.68 1.38zM15.1 24.6l-1.53 0.22 1.11 1.080-0.26 1.53 1.42-0.74 1.37 0.72-0.21-1.51 1.11-1.080-1.54-0.22-0.68-1.39-0.79 1.39zM10.16 23.27l-1.54 0.23 1.11 1.080-0.26 1.52 1.37-0.72 1.37 0.72-0.21-1.52 1.11-1.080-1.53-0.23-0.69-1.38-0.73 1.38zM6.58 19.69l-1.53 0.22 1.11 1.080-0.26 1.49 1.37-0.72 1.37 0.72-0.26-1.53 1.11-1.080-1.49-0.18-0.68-1.39-0.74 1.39zM5.26 14.69l-1.54 0.23 1.11 1.080-0.26 1.52 1.37-0.72 1.37 0.72-0.26-1.52 1.11-1.080-1.53-0.23-0.69-1.39-0.68 1.39zM7.26 8.36l-0.69 1.38-1.53 0.23 1.11 1.080-0.25 1.53 1.37-0.72 1.37 0.72-0.26-1.52 1.11-1.080-1.49-0.23-0.74-1.39zM2.36 0.69h27.27c0.179-0.001 0.357 0.033 0.523 0.101s0.317 0.168 0.445 0.294c0.127 0.126 0.229 0.277 0.297 0.442s0.105 0.343 0.105 0.523v27.28c0 0.179-0.035 0.357-0.105 0.523s-0.17 0.316-0.297 0.442c-0.127 0.126-0.278 0.226-0.445 0.294s-0.344 0.102-0.523 0.101h-27.27c-0.361 0-0.707-0.143-0.962-0.398s-0.398-0.601-0.398-0.962v-27.28c0-0.361 0.143-0.707 0.398-0.962s0.601-0.398 0.962-0.398z"></path>
</svg>
