<!-- Generated by IcoMoon.io -->
<svg version="1.1" xmlns="http://www.w3.org/2000/svg" width="32" height="32" viewBox="0 0 32 32">
<title>eye</title>
<path d="M12 16c0-2.248 1.752-4 4-4 0.552 0 1-0.448 1-1s-0.448-1-1-1c-3.352 0-6 2.648-6 6s2.648 6 6 6c3.352 0 6-2.648 6-6 0-0.978-0.247-1.816-0.581-2.594-0.218-0.508-0.805-0.743-1.313-0.525s-0.743 0.805-0.525 1.313c0.267 0.622 0.419 1.184 0.419 1.806 0 2.248-1.752 4-4 4s-4-1.752-4-4z"></path>
<path d="M16.003 13.9h-0.003c-1.152 0-2.1 0.948-2.1 2.1s0.948 2.1 2.1 2.1c1.152 0 2.1-0.948 2.1-2.1 0-1.151-0.946-2.098-2.097-2.1z"></path>
<path d="M29.808 15.411l-0.002-0.003-0.005-0.006-0.015-0.021c-0.013-0.018-0.032-0.043-0.056-0.075-0.048-0.064-0.119-0.156-0.21-0.271-0.182-0.23-0.448-0.556-0.79-0.945-0.681-0.777-1.668-1.813-2.89-2.853-2.415-2.053-5.893-4.238-9.84-4.238s-7.425 2.185-9.84 4.238c-1.222 1.039-2.209 2.076-2.89 2.852-0.341 0.389-0.607 0.715-0.79 0.945-0.091 0.115-0.162 0.207-0.21 0.271-0.024 0.032-0.043 0.057-0.056 0.075l-0.015 0.021-0.005 0.006-0.001 0.002c0 0-0.001 0.001 0.808 0.59l-0.809-0.588c-0.255 0.351-0.255 0.826 0 1.177l0.002 0.003 0.005 0.006 0.015 0.021c0.013 0.018 0.032 0.043 0.056 0.075 0.048 0.064 0.119 0.156 0.21 0.271 0.182 0.23 0.449 0.556 0.79 0.945 0.681 0.777 1.668 1.813 2.89 2.852 2.415 2.053 5.894 4.238 9.84 4.238s7.425-2.185 9.84-4.238c1.222-1.039 2.209-2.076 2.89-2.852 0.341-0.389 0.607-0.715 0.79-0.945 0.091-0.115 0.162-0.207 0.21-0.271 0.024-0.032 0.043-0.057 0.056-0.075l0.015-0.021 0.005-0.006 0.002-0.002c0 0 0.001-0.001-0.808-0.59l0.809 0.588c0.255-0.351 0.255-0.826-0-1.177zM4.773 16.591c-0.195-0.223-0.363-0.422-0.502-0.591 0.138-0.169 0.306-0.368 0.502-0.591 0.634-0.723 1.552-1.687 2.682-2.648 2.29-1.947 5.312-3.762 8.545-3.762s6.254 1.815 8.545 3.762c1.13 0.961 2.047 1.924 2.682 2.648 0.195 0.223 0.363 0.422 0.502 0.591-0.139 0.169-0.306 0.368-0.502 0.591-0.634 0.723-1.552 1.687-2.682 2.648-2.291 1.947-5.312 3.762-8.545 3.762s-6.254-1.815-8.545-3.762c-1.13-0.961-2.047-1.924-2.682-2.648zM29 16c0.809-0.588 0.808-0.589 0.808-0.589l-0.808 0.589z"></path>
</svg>
