<!-- Generated by IcoMoon.io -->
<svg version="1.1" xmlns="http://www.w3.org/2000/svg" width="32" height="32" viewBox="0 0 32 32">
<title>files-up</title>
<path d="M23 18.586l3.707 3.707c0.39 0.39 0.39 1.024 0 1.414s-1.024 0.391-1.414 0l-1.293-1.293v3.586c0 0.552-0.448 1-1 1s-1-0.448-1-1v-3.586l-1.293 1.293c-0.39 0.391-1.024 0.391-1.414 0s-0.39-1.024 0-1.414l3.707-3.707z"></path>
<path d="M23 15c-4.418 0-8 3.582-8 8s3.582 8 8 8c4.418 0 8-3.582 8-8s-3.582-8-8-8zM17 23c0-3.314 2.686-6 6-6s6 2.686 6 6c0 3.314-2.686 6-6 6s-6-2.686-6-6z"></path>
<path d="M14 4h7v7h7v4c0 0.552 0.448 1 1 1s1-0.448 1-1v-5.414l-7.586-7.586h-8.414c-1.905 0-3.45 1.251-3.88 3h-4.12c-2.252 0-4 1.748-4 4v17c0 2.252 1.748 4 4 4h9c0.552 0 1-0.448 1-1s-0.448-1-1-1h-9c-1.148 0-2-0.852-2-2v-17c0-1.148 0.852-2 2-2h7v7h7.5c0.086 0 0.17-0.011 0.25-0.031 0.331 0.085 0.698-0.002 0.957-0.261 0.39-0.39 0.39-1.024 0-1.414l-7.293-7.293h-2.167c0.333-0.609 0.975-1 1.752-1zM15 8.414l3.586 3.586h-3.586v-3.586zM23 9v-3.586l3.586 3.586h-3.586z"></path>
</svg>
