<!-- Generated by IcoMoon.io -->
<svg version="1.1" xmlns="http://www.w3.org/2000/svg" width="32" height="32" viewBox="0 0 32 32">
<title>file-diff</title>
<path d="M8.875 4c-1.112 0-1.938 0.852-1.938 2v20c0 1.148 0.826 2 1.938 2h13.563c1.112 0 1.938-0.852 1.938-2v-15h-6.375v-7h-9.125zM25.75 9v0.005l0.563 0.581v16.414c0 2.252-1.693 4-3.875 4h-13.563c-2.182 0-3.875-1.748-3.875-4v-20c0-2.252 1.693-4 3.875-4h10.089l0.969 1h0.005v0.005l5.813 5.995zM23.005 9l-3.067-3.166v3.166h3.067zM12.969 23c-0.535 0-0.969 0.448-0.969 1s0.434 1 0.969 1h5.812c0.535 0 0.969-0.448 0.969-1s-0.434-1-0.969-1h-5.812zM15.969 14c0.535 0 0.969 0.448 0.969 1v2h1.844c0.535 0 0.969 0.448 0.969 1s-0.434 1-0.969 1h-1.844v2c0 0.552-0.434 1-0.969 1s-0.969-0.448-0.969-1v-2h-2.031c-0.535 0-0.969-0.448-0.969-1s0.434-1 0.969-1h2.031v-2c0-0.552 0.434-1 0.969-1z"></path>
</svg>
