<!-- Generated by IcoMoon.io -->
<svg version="1.1" xmlns="http://www.w3.org/2000/svg" width="32" height="32" viewBox="0 0 32 32">
<title>files-add</title>
<path d="M12.248 5h2.167l7.293 7.293c0.39 0.39 0.39 1.024 0 1.414-0.259 0.259-0.626 0.347-0.957 0.261-0.080 0.021-0.164 0.031-0.25 0.031h-7.5v-7h-7c-1.148 0-2 0.852-2 2v17c0 1.148 0.852 2 2 2h9c0.552 0 1 0.448 1 1s-0.448 1-1 1h-9c-2.252 0-4-1.748-4-4v-17c0-2.252 1.748-4 4-4h4.12c0.43-1.749 1.975-3 3.88-3h8.414l7.586 7.586v5.414c0 0.552-0.448 1-1 1s-1-0.448-1-1v-4h-7v-7h-7c-0.777 0-1.419 0.391-1.752 1zM15 12h3.586l-3.586-3.586v3.586zM23 5.414v3.586h3.586l-3.586-3.586z"></path>
<path d="M19 23c0-0.552 0.448-1 1-1h2v-2c0-0.552 0.448-1 1-1s1 0.448 1 1v2h2c0.552 0 1 0.448 1 1s-0.448 1-1 1h-2v2c0 0.552-0.448 1-1 1s-1-0.448-1-1v-2h-2c-0.552 0-1-0.448-1-1z"></path>
<path d="M23 15c-4.418 0-8 3.582-8 8s3.582 8 8 8c4.418 0 8-3.582 8-8s-3.582-8-8-8zM17 23c0-3.314 2.686-6 6-6s6 2.686 6 6c0 3.314-2.686 6-6 6s-6-2.686-6-6z"></path>
</svg>
