<!-- Generated by IcoMoon.io -->
<svg version="1.1" xmlns="http://www.w3.org/2000/svg" width="32" height="32" viewBox="0 0 32 32">
<title>file-code</title>
<path d="M6.938 6c0-1.148 0.826-2 1.938-2h9.125v7h6.375v15c0 1.148-0.826 2-1.938 2h-13.563c-1.112 0-1.938-0.852-1.938-2v-20zM25.75 9.005v-0.005h-0.005l-6.781-7h-10.089c-2.182 0-3.875 1.748-3.875 4v20c0 2.252 1.693 4 3.875 4h13.563c2.182 0 3.875-1.748 3.875-4v-16.414l-0.563-0.581zM19.938 5.834l3.067 3.166h-3.067v-3.166zM13.391 14c-0.24 0-0.484 0.252-0.484 0.5v3c0 0.566-0.195 1.096-0.517 1.521 0.304 0.418 0.486 0.932 0.486 1.479v3c0 0.248 0.244 0.5 0.484 0.5h1.453v2h-1.453c-1.31 0-2.422-1.148-2.422-2.5v-3c0-0.248-0.244-0.5-0.484-0.5h-1.453v-2h1.484c0.24 0 0.484-0.252 0.484-0.5v-3c0-1.352 1.112-2.5 2.422-2.5h1.453v2h-1.453zM17 12h1.453c1.31 0 2.422 1.148 2.422 2.5v3c0 0.248 0.244 0.5 0.484 0.5h1.453v2h-1.453c-0.24 0-0.484 0.252-0.484 0.5v3c0 1.352-1.112 2.5-2.422 2.5h-1.453v-2h1.453c0.24 0 0.484-0.252 0.484-0.5v-3c0-0.557 0.188-1.078 0.501-1.5-0.313-0.422-0.501-0.943-0.501-1.5v-3c0-0.248-0.244-0.5-0.484-0.5h-1.453v-2z"></path>
</svg>
