<!-- Generated by IcoMoon.io -->
<svg version="1.1" xmlns="http://www.w3.org/2000/svg" width="32" height="32" viewBox="0 0 32 32">
<title>file-archive</title>
<path d="M8.875 4c-1.112 0-1.938 0.852-1.938 2v20c0 1.148 0.826 2 1.938 2h13.563c1.112 0 1.938-0.852 1.938-2v-15h-5.469c0 0.552-0.434 1-0.969 1h-0.969c-0.535 0-0.969-0.448-0.969-1s0.434-1 0.969-1h0.969c0.021 0 0.042 0.001 0.063 0.002v-2.004c-0.021 0.001-0.041 0.002-0.063 0.002h-0.969c-0.535 0-0.969-0.448-0.969-1s0.434-1 0.969-1h0.969c0.021 0 0.042 0.001 0.063 0.002v-2.002h-3.063c0.535 0 0.969 0.448 0.969 1s-0.434 1-0.969 1h-0.969c-0.535 0-0.969-0.448-0.969-1s0.434-1 0.969-1h-5.094zM25.75 9v0.005l0.563 0.581v16.414c0 2.252-1.693 4-3.875 4h-13.563c-2.182 0-3.875-1.748-3.875-4v-20c0-2.252 1.693-4 3.875-4h10.089l0.969 1h0.005v0.005l5.813 5.995zM23.005 9l-3.067-3.166v3.166h3.067zM15.875 18c0.717-0.673 0.717-0.673 0.717-0.673l-0.717 0.673zM15.158 17.327l-0.011 0.013-0.027 0.031c-0.023 0.027-0.056 0.065-0.098 0.115-0.084 0.099-0.202 0.24-0.344 0.414-0.282 0.348-0.661 0.833-1.041 1.376-0.378 0.54-0.772 1.157-1.076 1.769-0.289 0.581-0.561 1.283-0.561 1.955 0 2.252 1.693 4 3.875 4s3.875-1.748 3.875-4c0-0.672-0.272-1.373-0.561-1.955-0.304-0.611-0.698-1.229-1.076-1.769-0.381-0.544-0.759-1.028-1.041-1.376-0.142-0.174-0.26-0.316-0.344-0.414-0.042-0.049-0.075-0.088-0.098-0.115l-0.755-0.858-0.717 0.814zM15.875 18c-0.717-0.673-0.717-0.673-0.717-0.673l0.717 0.673zM15.207 20.448c0.23-0.329 0.462-0.637 0.668-0.901 0.206 0.265 0.438 0.572 0.668 0.901 0.349 0.498 0.681 1.024 0.922 1.51 0.256 0.516 0.347 0.864 0.347 1.042 0 1.148-0.826 2-1.938 2s-1.938-0.852-1.938-2c0-0.178 0.091-0.526 0.347-1.042 0.241-0.486 0.574-1.012 0.922-1.51zM13 9c0-0.552 0.434-1 0.969-1h0.969c0.535 0 0.969 0.448 0.969 1s-0.434 1-0.969 1h-0.969c-0.535 0-0.969-0.448-0.969-1zM13 13c0-0.552 0.434-1 0.969-1h0.969c0.535 0 0.969 0.448 0.969 1s-0.434 1-0.969 1h-0.969c-0.535 0-0.969-0.448-0.969-1zM16.969 14c-0.535 0-0.969 0.448-0.969 1s0.434 1 0.969 1h0.969c0.535 0 0.969-0.448 0.969-1s-0.434-1-0.969-1h-0.969z"></path>
</svg>
