<!-- Generated by IcoMoon.io -->
<svg version="1.1" xmlns="http://www.w3.org/2000/svg" width="32" height="32" viewBox="0 0 32 32">
<title>file-text</title>
<path d="M11 14c-0.552 0-1 0.448-1 1s0.448 1 1 1h10c0.552 0 1-0.448 1-1s-0.448-1-1-1h-10z"></path>
<path d="M10 19c0-0.552 0.448-1 1-1h10c0.552 0 1 0.448 1 1s-0.448 1-1 1h-10c-0.552 0-1-0.448-1-1z"></path>
<path d="M10 23c0-0.552 0.448-1 1-1h4c0.552 0 1 0.448 1 1s-0.448 1-1 1h-4c-0.552 0-1-0.448-1-1z"></path>
<path d="M5 6c0-2.252 1.748-4 4-4h10.414l7.586 7.586v16.414c0 2.252-1.748 4-4 4h-14c-2.252 0-4-1.748-4-4v-20zM9 4c-1.148 0-2 0.852-2 2v20c0 1.148 0.852 2 2 2h14c1.148 0 2-0.852 2-2v-15h-7v-7h-9zM20 5.414v3.586h3.586l-3.586-3.586z"></path>
</svg>
