<!-- Generated by IcoMoon.io -->
<svg version="1.1" xmlns="http://www.w3.org/2000/svg" width="32" height="32" viewBox="0 0 32 32">
<title>file-signed</title>
<path d="M10 18c0-0.552 0.448-1 1-1h10c0.552 0 1 0.448 1 1s-0.448 1-1 1h-10c-0.552 0-1-0.448-1-1z"></path>
<path d="M11 13c-0.552 0-1 0.448-1 1s0.448 1 1 1h10c0.552 0 1-0.448 1-1s-0.448-1-1-1h-10z"></path>
<path d="M10 10c0-0.552 0.448-1 1-1h3c0.552 0 1 0.448 1 1s-0.448 1-1 1h-3c-0.552 0-1-0.448-1-1z"></path>
<path d="M16.158 22.244c0.328-0.031 0.474 0.004 0.62 0.090 0.185 0.109 0.285 0.282 0.59 0.835 0.336 0.608 0.69 1.14 1.113 1.446 0.24 0.173 0.561 0.317 0.945 0.299 0.377-0.017 0.666-0.183 0.861-0.339 0.318-0.254 0.579-0.652 0.758-0.925l0.051-0.078c0.21-0.32 0.413-0.628 0.665-0.922 0.359-0.42 0.309-1.051-0.11-1.41s-1.051-0.309-1.41 0.11c-0.336 0.393-0.601 0.796-0.801 1.101l-0.037 0.056-0.054 0.082c-0.068-0.108-0.145-0.237-0.23-0.391-0.020-0.036-0.041-0.075-0.064-0.117-0.216-0.402-0.575-1.067-1.26-1.472-0.638-0.377-1.257-0.412-1.825-0.358-0.427 0.041-0.938 0.12-1.424 0.302-0.455 0.171-1.053 0.498-1.357 0.664l-0.008 0.005c-0.609 0.333-1.071 0.685-1.487 1.014-0.058 0.046-0.114 0.090-0.17 0.135-0.351 0.279-0.668 0.531-1.065 0.787-0.464 0.299-0.598 0.918-0.299 1.382s0.918 0.598 1.382 0.299c0.487-0.314 0.885-0.631 1.234-0.909l0.001-0.001c0.053-0.042 0.105-0.084 0.156-0.124 0.392-0.31 0.749-0.578 1.206-0.828 0.341-0.186 0.811-0.439 1.11-0.552 0.247-0.093 0.559-0.15 0.908-0.183z"></path>
<path d="M9 2c-2.252 0-4 1.748-4 4v20c0 2.252 1.748 4 4 4h14c2.252 0 4-1.748 4-4v-16.414l-7.586-7.586h-10.414zM7 6c0-1.148 0.852-2 2-2h9v7h7v15c0 1.148-0.852 2-2 2h-14c-1.148 0-2-0.852-2-2v-20zM23.586 9h-3.586v-3.586l3.586 3.586z"></path>
</svg>
