<!-- Generated by IcoMoon.io -->
<svg version="1.1" xmlns="http://www.w3.org/2000/svg" width="32" height="32" viewBox="0 0 32 32">
<title>filter</title>
<path d="M3.094 3.576c0.165-0.351 0.518-0.576 0.906-0.576h24c0.388 0 0.741 0.224 0.906 0.576s0.111 0.766-0.137 1.064l-9.768 11.722v12.638c0 0.404-0.244 0.769-0.617 0.924s-0.804 0.069-1.090-0.217l-4-4c-0.188-0.188-0.293-0.442-0.293-0.707v-8.638l-9.768-11.722c-0.248-0.298-0.302-0.713-0.137-1.064zM6.135 5l8.633 10.36c0.15 0.18 0.232 0.406 0.232 0.64v8.586l2 2v-10.586c0-0.234 0.082-0.46 0.232-0.64l8.633-10.36h-19.73z"></path>
</svg>
