<!-- Generated by IcoMoon.io -->
<svg version="1.1" xmlns="http://www.w3.org/2000/svg" width="32" height="32" viewBox="0 0 32 32">
<title>flag</title>
<path d="M27.391 4.958c-0.005 0.004-0.015 0.011-0.030 0.022-0.029 0.021-0.076 0.054-0.14 0.097-0.129 0.085-0.325 0.208-0.581 0.346-0.513 0.277-1.256 0.61-2.163 0.832-1.793 0.439-4.247 0.45-6.926-1.338-3.222-2.15-6.267-2.161-8.499-1.616-1.106 0.27-2.007 0.675-2.634 1.014-0.314 0.17-0.562 0.324-0.736 0.439-0.087 0.057-0.155 0.105-0.203 0.14-0.024 0.017-0.044 0.032-0.058 0.043l-0.018 0.013-0.008 0.006-0.001 0.001c-0.005 0.004-0.001 0.001-0.001 0.001-0.247 0.191-0.393 0.488-0.393 0.802v23.231c0 0.558 0.448 1.010 1 1.010s1-0.452 1-1.010v-6.534c0.102-0.062 0.223-0.132 0.36-0.206 0.513-0.277 1.256-0.61 2.163-0.832 1.793-0.439 4.247-0.45 6.926 1.337 3.222 2.15 6.267 2.162 8.499 1.616 1.106-0.27 2.007-0.675 2.634-1.014 0.314-0.17 0.562-0.324 0.736-0.439 0.087-0.057 0.155-0.105 0.203-0.14 0.011-0.008 0.021-0.015 0.030-0.022 0.011-0.008 0.020-0.015 0.028-0.021l0.018-0.013 0.006-0.005 0.002-0.002 0.001-0.001c0 0 0.001-0.001-0.607-0.803l0.608 0.802c0.247-0.191 0.392-0.488 0.392-0.802v-16.154c0-0.384-0.216-0.735-0.557-0.905-0.34-0.17-0.746-0.13-1.048 0.101l-0.002 0.002-0.002 0.002zM7 20.177v-13.875c0.102-0.062 0.223-0.132 0.36-0.206 0.513-0.277 1.256-0.61 2.163-0.832 1.793-0.438 4.247-0.45 6.926 1.338 3.222 2.15 6.267 2.161 8.499 1.616 0.8-0.196 1.493-0.462 2.052-0.722v13.875c-0.102 0.062-0.223 0.132-0.36 0.206-0.513 0.277-1.256 0.61-2.163 0.832-1.793 0.439-4.247 0.45-6.926-1.338-3.222-2.15-6.267-2.161-8.499-1.616-0.8 0.196-1.493 0.462-2.052 0.722z"></path>
</svg>
