<!-- Generated by IcoMoon.io -->
<svg version="1.1" xmlns="http://www.w3.org/2000/svg" width="32" height="32" viewBox="0 0 32 32">
<title>folder-add</title>
<path d="M7 6h4.586l6 6h7.414c1.648 0 3 1.352 3 3 0 0.552 0.448 1 1 1s1-0.448 1-1v-4c0-2.752-2.248-5-5-5h-10.586l-2-2h-5.414c-2.752 0-5 2.248-5 5v14c0 2.752 2.248 5 5 5h7c0.552 0 1-0.448 1-1s-0.448-1-1-1h-7c-1.648 0-3-1.352-3-3v-14c0-1.648 1.352-3 3-3zM18.414 10l-2-2h8.586c1.648 0 3 1.352 3 3v0.005c-0.837-0.631-1.876-1.005-3-1.005h-6.586z"></path>
<path d="M19 23c0-0.552 0.448-1 1-1h2v-2c0-0.552 0.448-1 1-1s1 0.448 1 1v2h2c0.552 0 1 0.448 1 1s-0.448 1-1 1h-2v2c0 0.552-0.448 1-1 1s-1-0.448-1-1v-2h-2c-0.552 0-1-0.448-1-1z"></path>
<path d="M23 15c-4.418 0-8 3.582-8 8s3.582 8 8 8c4.418 0 8-3.582 8-8s-3.582-8-8-8zM17 23c0-3.314 2.686-6 6-6s6 2.686 6 6c0 3.314-2.686 6-6 6s-6-2.686-6-6z"></path>
</svg>
