<!-- Generated by IcoMoon.io -->
<svg version="1.1" xmlns="http://www.w3.org/2000/svg" width="32" height="32" viewBox="0 0 32 32">
<title>frontapp</title>
<path d="M1.44 11.63c0.36-2.903 1.603-5.626 3.56-7.8 0.116-0.154 0.268-0.278 0.442-0.361s0.365-0.124 0.558-0.119c1.82 0 3.65 0.090 5.47 0 0.226-0.016 0.454-0.016 0.68 0 1.252 0.009 2.454 0.487 3.37 1.34 0.109 0.108 0.256 0.169 0.41 0.17 0.153-0.003 0.299-0.064 0.41-0.17 0.4-0.31 0.83-0.58 1.22-0.89 0.336-0.239 0.738-0.368 1.15-0.37h7.29c0.184-0 0.365 0.042 0.53 0.123s0.308 0.2 0.42 0.347c2.379 2.627 3.695 6.046 3.69 9.59 0 0.45 0 0.88-0.060 1.31v-0.11c-0.317 3.515-1.889 6.797-4.43 9.246s-5.879 3.9-9.403 4.087c-3.524 0.187-6.997-0.902-9.783-3.068s-4.697-5.264-5.385-8.725v-0.090c-0.173-0.913-0.26-1.841-0.26-2.77-0-0.615 0.040-1.23 0.12-1.84v0.1zM25.37 4.69c-0.1-0.049-0.215-0.061-0.323-0.033s-0.203 0.093-0.267 0.183c-2.667 1.92-5.333 3.853-8 5.8-0.7 0.5-0.79 0.5-1.48 0l-7.96-5.74c-0.17-0.14-0.34-0.38-0.7-0.21 0.58 0.58 1.12 1.11 1.7 1.67s0.54 0.55 0.060 1.18c-1.363 1.671-2.105 3.763-2.1 5.92-0.001 0.611 0.059 1.221 0.18 1.82v-0.060c0.351 1.929 1.28 3.706 2.663 5.096s3.156 2.327 5.084 2.686 3.919 0.126 5.711-0.671c1.792-0.797 3.299-2.119 4.323-3.791 1.016-1.692 1.486-3.656 1.344-5.625s-0.887-3.846-2.134-5.375c-0.35-0.43-0.32-0.71 0.070-1 0.62-0.57 1.19-1.17 1.79-1.76l0.040-0.090z"></path>
</svg>
