<!-- Generated by IcoMoon.io -->
<svg version="1.1" xmlns="http://www.w3.org/2000/svg" width="32" height="32" viewBox="0 0 32 32">
<title>gear</title>
<path d="M15 2h2v1.031c1.339 0.084 2.657 0.337 3.908 0.753 1.56 0.519 2.99 1.283 4.204 2.256s2.191 2.142 2.864 3.445c0.673 1.304 1.025 2.713 1.025 4.144v1.669l-1.476-0.789c-0.006-0.003-0.018-0.009-0.033-0.017-0.032-0.016-0.081-0.040-0.146-0.070-0.13-0.060-0.319-0.141-0.546-0.222-0.468-0.167-1.038-0.312-1.568-0.312-0.45 0-0.969 0.19-1.432 0.437-0.22 0.118-0.404 0.236-0.532 0.324-0.064 0.044-0.112 0.079-0.143 0.102l-0.018 0.014-0.014 0.011-0.564 0.453-0.61-0.391c-0.010-0.006-0.029-0.018-0.057-0.033-0.055-0.031-0.144-0.080-0.267-0.14-0.245-0.121-0.622-0.289-1.125-0.459-0.826-0.279-1.992-0.565-3.468-0.657v9.45h5.069l0.143-2h-3.212c-0.552 0-1-0.448-1-1s0.448-1 1-1h3.355l0.148-2.071c0.039-0.551 0.518-0.966 1.069-0.926s0.966 0.518 0.926 1.069l-0.484 6.771 1.915 4.787c0.205 0.513-0.044 1.095-0.557 1.3s-1.095-0.044-1.3-0.557l-1.748-4.371h-5.323v4c0 0.552-0.448 1-1 1s-1-0.448-1-1v-4h-1.882l-2.224 4.447c-0.247 0.494-0.848 0.694-1.342 0.447s-0.694-0.848-0.447-1.342l2.5-5c0.169-0.339 0.516-0.553 0.894-0.553h2.5v-9.45c-1.476 0.093-2.642 0.378-3.468 0.657-0.503 0.17-0.88 0.338-1.125 0.459-0.122 0.060-0.211 0.109-0.267 0.14-0.027 0.016-0.046 0.027-0.057 0.033l-0.61 0.391-0.564-0.453c-0.006-0.005-0.017-0.013-0.032-0.025-0.031-0.023-0.079-0.059-0.143-0.102-0.128-0.088-0.312-0.206-0.532-0.324-0.463-0.248-0.982-0.437-1.432-0.437-0.53 0-1.1 0.146-1.568 0.312-0.227 0.081-0.416 0.162-0.546 0.222-0.065 0.030-0.114 0.054-0.146 0.070-0.016 0.008-0.027 0.014-0.033 0.017l-1.476 0.789v-1.669c0-1.431 0.352-2.839 1.025-4.144 0.673-1.303 1.65-2.471 2.864-3.445s2.643-1.738 4.204-2.256c1.25-0.416 2.569-0.668 3.908-0.753v-1.031zM12.499 5.451c-0.262 0.069-0.521 0.146-0.776 0.231-1.352 0.449-2.568 1.104-3.583 1.918s-1.805 1.769-2.339 2.803c-0.287 0.556-0.497 1.13-0.631 1.713 0.474-0.127 1.027-0.228 1.598-0.228 0.91 0 1.754 0.347 2.329 0.649 0.349-2.627 1.608-5.169 3.401-7.087zM11.176 12.219c1.172-0.367 2.796-0.701 4.824-0.701s3.652 0.334 4.824 0.701c-0.566-2.902-2.442-5.637-4.824-7.074-2.382 1.436-4.258 4.172-4.824 7.074zM25.231 11.889c0.57 0 1.123 0.1 1.598 0.228-0.133-0.583-0.344-1.157-0.631-1.713-0.534-1.034-1.324-1.989-2.339-2.803s-2.231-1.469-3.583-1.918c-0.255-0.085-0.514-0.162-0.776-0.231 1.793 1.918 3.052 4.461 3.401 7.087 0.575-0.302 1.419-0.649 2.329-0.649z"></path>
</svg>
