<!-- Generated by IcoMoon.io -->
<svg version="1.1" xmlns="http://www.w3.org/2000/svg" width="32" height="32" viewBox="0 0 32 32">
<title>genders</title>
<path d="M9 3c-2.209 0-4 1.791-4 4s1.791 4 4 4c2.209 0 4-1.791 4-4s-1.791-4-4-4zM7 7c0-1.105 0.895-2 2-2s2 0.895 2 2c0 1.105-0.895 2-2 2s-2-0.895-2-2z"></path>
<path d="M7 12c-2.252 0-4 1.748-4 4v5c0 0.552 0.448 1 1 1h2v7c0 0.552 0.448 1 1 1h4c0.552 0 1-0.448 1-1v-7h2c0.552 0 1-0.448 1-1v-5c0-2.252-1.748-4-4-4h-4zM5 16c0-1.148 0.852-2 2-2h4c1.148 0 2 0.852 2 2v4h-2c-0.552 0-1 0.448-1 1v7h-2v-7c0-0.552-0.448-1-1-1h-2v-4z"></path>
<path d="M19.14 14.718c1.096-3.919 6.543-3.791 7.715-0.014l3.1 10c0.094 0.303 0.038 0.634-0.15 0.889s-0.487 0.407-0.805 0.407h-3v3c0 0.552-0.448 1-1 1h-4c-0.552 0-1-0.448-1-1v-3h-3c-0.318 0-0.616-0.151-0.805-0.407s-0.244-0.586-0.15-0.889l3.096-9.986zM24.945 15.296c-0.626-2.018-3.366-1.895-3.881-0.030-0.003 0.010-0.006 0.020-0.009 0.030l-2.698 8.704h2.643c0.552 0 1 0.448 1 1v3h2v-3c0-0.552 0.448-1 1-1h2.643l-2.698-8.704z"></path>
<path d="M23 3c-2.252 0-4 1.748-4 4v3c0 0.552 0.448 1 1 1h6c0.552 0 1-0.448 1-1v-3c0-2.252-1.748-4-4-4zM21 7c0-1.148 0.852-2 2-2s2 0.852 2 2v2h-4v-2z"></path>
</svg>
