<!-- Generated by IcoMoon.io -->
<svg version="1.1" xmlns="http://www.w3.org/2000/svg" width="32" height="32" viewBox="0 0 32 32">
<title>git-tree</title>
<path d="M12 10c0-2.209 1.791-4 4-4s4 1.791 4 4c0 1.864-1.275 3.43-3 3.874v4.252c1.406 0.362 2.512 1.468 2.874 2.874h2.252c0.444-1.725 2.010-3 3.874-3 2.209 0 4 1.791 4 4s-1.791 4-4 4c-1.864 0-3.43-1.275-3.874-3h-2.252c-0.444 1.725-2.010 3-3.874 3s-3.43-1.275-3.874-3h-2.252c-0.444 1.725-2.010 3-3.874 3-2.209 0-4-1.791-4-4s1.791-4 4-4c1.864 0 3.43 1.275 3.874 3h2.252c0.362-1.406 1.468-2.512 2.874-2.874v-4.252c-1.725-0.444-3-2.010-3-3.874zM16 8c-1.105 0-2 0.895-2 2s0.895 2 2 2c1.105 0 2-0.895 2-2s-0.895-2-2-2zM16 20c-1.105 0-2 0.895-2 2s0.895 2 2 2c1.105 0 2-0.895 2-2s-0.895-2-2-2zM4 22c0 1.105 0.895 2 2 2s2-0.895 2-2c0-1.105-0.895-2-2-2s-2 0.895-2 2zM26 20c-1.105 0-2 0.895-2 2s0.895 2 2 2c1.105 0 2-0.895 2-2s-0.895-2-2-2z"></path>
</svg>
