<!-- Generated by IcoMoon.io -->
<svg version="1.1" xmlns="http://www.w3.org/2000/svg" width="32" height="32" viewBox="0 0 32 32">
<title>git-branch</title>
<path d="M6 7c1.864 0 3.43 1.275 3.874 3h12.252c0.444-1.725 2.010-3 3.874-3 2.209 0 4 1.791 4 4s-1.791 4-4 4c-1.864 0-3.43-1.275-3.874-3h-12.252c-0.156 0.605-0.45 1.155-0.846 1.614l4.579 4.579c1.113 1.113 2.758 1.807 4.393 1.807h4.126c0.444-1.725 2.010-3 3.874-3 2.209 0 4 1.791 4 4s-1.791 4-4 4c-1.864 0-3.43-1.275-3.874-3h-4.126c-2.165 0-4.32-0.905-5.807-2.393l-4.841-4.841c-0.422 0.152-0.877 0.234-1.352 0.234-2.209 0-4-1.791-4-4s1.791-4 4-4zM4 11c0 1.105 0.895 2 2 2s2-0.895 2-2c0-1.105-0.895-2-2-2s-2 0.895-2 2zM26 9c-1.105 0-2 0.895-2 2s0.895 2 2 2c1.105 0 2-0.895 2-2s-0.895-2-2-2zM26 19c-1.105 0-2 0.895-2 2s0.895 2 2 2c1.105 0 2-0.895 2-2s-0.895-2-2-2z"></path>
</svg>
