<!-- Generated by IcoMoon.io -->
<svg version="1.1" xmlns="http://www.w3.org/2000/svg" width="32" height="32" viewBox="0 0 32 32">
<title>git-merged-alt</title>
<path d="M2 9c0-2.209 1.791-4 4-4 1.864 0 3.43 1.275 3.874 3h3.126c2.252 0 4 1.748 4 4v1c0 1.148 0.852 2 2 2h3.126c0.444-1.725 2.010-3 3.874-3 2.209 0 4 1.791 4 4s-1.791 4-4 4c-1.864 0-3.43-1.275-3.874-3h-3.126c-1.148 0-2 0.852-2 2v1c0 2.252-1.748 4-4 4h-3.126c-0.444 1.725-2.010 3-3.874 3-2.209 0-4-1.791-4-4s1.791-4 4-4c1.864 0 3.43 1.275 3.874 3h3.126c1.148 0 2-0.852 2-2v-1c0-1.21 0.504-2.274 1.32-3-0.816-0.726-1.32-1.79-1.32-3v-1c0-1.148-0.852-2-2-2h-3.126c-0.444 1.725-2.010 3-3.874 3-2.209 0-4-1.791-4-4zM6 7c-1.105 0-2 0.895-2 2s0.895 2 2 2c1.105 0 2-0.895 2-2s-0.895-2-2-2zM6 21c-1.105 0-2 0.895-2 2s0.895 2 2 2c1.105 0 2-0.895 2-2s-0.895-2-2-2zM24 16c0 1.105 0.895 2 2 2s2-0.895 2-2c0-1.105-0.895-2-2-2s-2 0.895-2 2z"></path>
</svg>
