<!-- Generated by IcoMoon.io -->
<svg version="1.1" xmlns="http://www.w3.org/2000/svg" width="32" height="32" viewBox="0 0 32 32">
<title>git-merge</title>
<path d="M9.874 10h12.252c0.444-1.725 2.010-3 3.874-3 2.209 0 4 1.791 4 4s-1.791 4-4 4c-1.864 0-3.43-1.275-3.874-3h-12.252c-0.444 1.725-2.010 3-3.874 3-2.209 0-4-1.791-4-4s1.791-4 4-4c1.864 0 3.43 1.275 3.874 3zM4 11c0 1.105 0.895 2 2 2s2-0.895 2-2c0-1.105-0.895-2-2-2s-2 0.895-2 2zM24 11c0 1.105 0.895 2 2 2s2-0.895 2-2c0-1.105-0.895-2-2-2s-2 0.895-2 2z"></path>
<path d="M6 17c-2.209 0-4 1.791-4 4s1.791 4 4 4c1.864 0 3.43-1.275 3.874-3h4.126c2.165 0 4.32-0.905 5.807-2.393l1.193-1.193v1.586c0 0.552 0.448 1 1 1s1-0.448 1-1v-5h-5c-0.552 0-1 0.448-1 1s0.448 1 1 1h1.586l-1.193 1.193c-1.113 1.113-2.758 1.807-4.393 1.807h-4.126c-0.444-1.725-2.010-3-3.874-3zM4 21c0-1.105 0.895-2 2-2s2 0.895 2 2c0 1.105-0.895 2-2 2s-2-0.895-2-2z"></path>
</svg>
