<!-- Generated by IcoMoon.io -->
<svg version="1.1" xmlns="http://www.w3.org/2000/svg" width="32" height="32" viewBox="0 0 32 32">
<title>github</title>
<path d="M16 1.020c2.011-0.012 4.003 0.393 5.85 1.19 1.784 0.761 3.411 1.846 4.8 3.2 1.374 1.358 2.474 2.967 3.24 4.74 0.791 1.829 1.206 3.798 1.22 5.79-0.009 1.614-0.272 3.217-0.78 4.75-0.484 1.472-1.196 2.859-2.11 4.11-0.911 1.242-1.995 2.346-3.22 3.28-1.248 0.94-2.644 1.666-4.13 2.15-0.138 0.036-0.283 0.039-0.422 0.008s-0.269-0.096-0.378-0.188c-0.142-0.137-0.228-0.323-0.24-0.52v-4.19c0.016-0.587-0.082-1.171-0.29-1.72-0.161-0.381-0.403-0.723-0.71-1 1.656-0.194 3.246-0.761 4.65-1.66 1.44-0.91 2.16-2.83 2.16-5.74 0.007-0.773-0.136-1.541-0.42-2.26-0.264-0.655-0.647-1.255-1.13-1.77 0.050-0.2 0.14-0.66 0.26-1.37 0.098-0.887-0.055-1.785-0.44-2.59-1.498 0.13-2.933 0.666-4.15 1.55-0.608-0.153-1.226-0.263-1.85-0.33-0.634-0.078-1.271-0.121-1.91-0.13-0.667 0-1.307 0.030-1.92 0.090-0.626 0.059-1.246 0.176-1.85 0.35-1.24-0.897-2.704-1.433-4.23-1.55-0.385 0.806-0.551 1.699-0.48 2.59 0.042 0.467 0.143 0.928 0.3 1.37-0.51 0.521-0.914 1.135-1.19 1.81-0.279 0.707-0.418 1.46-0.41 2.22 0 2.91 0.73 4.84 2.17 5.79 1.406 0.952 3.029 1.537 4.72 1.7-0.218 0.238-0.409 0.5-0.57 0.78-0.197 0.379-0.316 0.794-0.35 1.22-0.645 0.217-1.319 0.335-2 0.35-0.893 0.060-1.683-0.49-2.37-1.65-0.267-0.403-0.611-0.748-1.013-1.016s-0.853-0.453-1.327-0.544c-0.74 0.15-0.76 0.46-0.070 0.93 0.763 0.559 1.344 1.332 1.67 2.22 0.519 0.832 1.292 1.476 2.205 1.836s1.917 0.418 2.865 0.164v2.59c-0.014 0.203-0.099 0.394-0.24 0.54-0.106 0.097-0.235 0.166-0.375 0.201s-0.286 0.035-0.425-0.001c-1.456-0.518-2.828-1.25-4.070-2.17-1.247-0.909-2.347-2.005-3.26-3.25-0.9-1.253-1.605-2.636-2.090-4.1-0.508-1.529-0.765-3.129-0.76-4.74-0.010-2.011 0.395-4.003 1.19-5.85 1.53-3.602 4.398-6.47 8-8 1.857-0.796 3.86-1.198 5.88-1.18z"></path>
</svg>
