<!-- Generated by IcoMoon.io -->
<svg version="1.1" xmlns="http://www.w3.org/2000/svg" width="32" height="32" viewBox="0 0 32 32">
<title>gitium</title>
<path d="M8.6 13.46c-0.195-0.010-0.384-0.077-0.541-0.192s-0.278-0.275-0.346-0.458c-0.068-0.183-0.081-0.383-0.037-0.573s0.143-0.364 0.285-0.499 0.32-0.225 0.512-0.26c0.193-0.035 0.391-0.012 0.571 0.065s0.333 0.205 0.441 0.368 0.165 0.354 0.166 0.55c0 0.136-0.027 0.27-0.081 0.395s-0.132 0.237-0.23 0.331c-0.098 0.094-0.214 0.166-0.342 0.213s-0.263 0.068-0.398 0.061zM23.27 21.84c0.208 0 0.411 0.062 0.583 0.177s0.307 0.279 0.387 0.471c0.079 0.192 0.1 0.403 0.060 0.607s-0.14 0.391-0.287 0.538c-0.147 0.147-0.334 0.247-0.538 0.287s-0.415 0.020-0.607-0.060c-0.192-0.079-0.356-0.214-0.471-0.387s-0.177-0.376-0.177-0.583c-0.007-0.14 0.015-0.279 0.065-0.41s0.127-0.249 0.226-0.348c0.099-0.099 0.218-0.176 0.348-0.226s0.27-0.073 0.41-0.065zM8.6 23.94c-0.208 0-0.411-0.062-0.583-0.177s-0.307-0.279-0.387-0.471c-0.079-0.192-0.1-0.403-0.060-0.607s0.141-0.391 0.287-0.538c0.147-0.147 0.334-0.247 0.538-0.287s0.415-0.020 0.607 0.060c0.192 0.079 0.356 0.214 0.471 0.387s0.177 0.376 0.177 0.583c0.007 0.14-0.015 0.279-0.065 0.41s-0.127 0.249-0.226 0.348c-0.099 0.099-0.218 0.176-0.348 0.226s-0.27 0.073-0.41 0.065zM8.6 19.75c-0.577 0.005-1.141 0.168-1.632 0.472s-0.888 0.736-1.15 1.25c-0.261 0.514-0.377 1.090-0.333 1.665s0.244 1.127 0.58 1.596 0.794 0.837 1.324 1.063c0.53 0.227 1.113 0.303 1.684 0.221s1.108-0.319 1.554-0.685c0.445-0.366 0.782-0.848 0.972-1.393h8.7c0.241 0.695 0.719 1.284 1.349 1.664s1.374 0.527 2.102 0.416c0.728-0.111 1.393-0.474 1.882-1.025s0.768-1.255 0.791-1.991-0.213-1.456-0.666-2.037c-0.453-0.58-1.095-0.983-1.814-1.14s-1.471-0.055-2.124 0.285c-0.653 0.34-1.166 0.898-1.45 1.577-0.7-0.36-1-1.33-1.53-3.15-0.343-1.688-1.042-3.283-2.050-4.68-0.646-0.753-1.444-1.359-2.343-1.78s-1.876-0.646-2.867-0.66c-0.248-0.701-0.735-1.291-1.376-1.667s-1.394-0.513-2.127-0.388c-0.732 0.126-1.397 0.506-1.876 1.074s-0.742 1.287-0.742 2.030 0.263 1.462 0.742 2.030c0.479 0.568 1.143 0.949 1.876 1.074s1.486-0.012 2.127-0.388c0.641-0.376 1.128-0.966 1.376-1.667 3.83 0.32 4.53 2.88 5.27 5.57 0.234 0.956 0.569 1.885 1 2.77h-6.29c-0.212-0.616-0.612-1.151-1.142-1.529s-1.166-0.581-1.818-0.581zM27.52 1.020h-25.14c-0.277 0-0.543 0.11-0.739 0.306s-0.306 0.462-0.306 0.739c0 0.277 0.11 0.543 0.306 0.739s0.462 0.306 0.739 0.306h25.14c0.14-0.007 0.279 0.015 0.41 0.065s0.249 0.127 0.348 0.226c0.099 0.099 0.176 0.218 0.226 0.348s0.073 0.27 0.065 0.41v23c0.007 0.14-0.015 0.279-0.065 0.41s-0.127 0.249-0.226 0.348c-0.099 0.099-0.218 0.176-0.348 0.226s-0.27 0.073-0.41 0.065h-23c-0.14 0.007-0.279-0.015-0.41-0.065s-0.249-0.127-0.348-0.226c-0.099-0.099-0.176-0.218-0.226-0.348s-0.072-0.27-0.065-0.41v-18.8c-0-0.136 0.027-0.27 0.081-0.395s0.132-0.237 0.23-0.331c0.098-0.094 0.214-0.166 0.342-0.213s0.263-0.068 0.398-0.061h9.38c0.278 0 0.546-0.111 0.742-0.308s0.307-0.464 0.307-0.742c0-0.278-0.111-0.546-0.307-0.742s-0.464-0.308-0.742-0.308h-9.42c-0.827-0-1.621 0.325-2.21 0.905s-0.927 1.368-0.94 2.195v18.85c0 0.835 0.332 1.637 0.923 2.227s1.392 0.923 2.227 0.923h23c0.835 0 1.637-0.332 2.227-0.923s0.923-1.392 0.923-2.227v-23c0-0.835-0.332-1.637-0.923-2.227s-1.392-0.923-2.227-0.923l0.040-0.040z"></path>
</svg>
