<!-- Generated by IcoMoon.io -->
<svg version="1.1" xmlns="http://www.w3.org/2000/svg" width="32" height="32" viewBox="0 0 32 32">
<title>gitolite</title>
<path d="M11.37 12.78c-0.091-0.48-0.299-0.93-0.604-1.312s-0.698-0.683-1.146-0.878c-0.546-0.251-1.139-0.384-1.74-0.39h-0.090c-0.576-0.005-1.145 0.121-1.665 0.369s-0.976 0.611-1.335 1.061c-0.781 1.094-1.201 2.405-1.2 3.75 0 0.18 0 0.35 0 0.52-0.011 0.183-0.011 0.367 0 0.55-0 1.284 0.465 2.524 1.31 3.49 0.79 0.756 1.847 1.169 2.94 1.15h0.16c0.914 0.001 1.796-0.334 2.48-0.94 0.703-0.645 1.159-1.515 1.29-2.46h-3.56v-2.57h6.36v8.27h-2.12l-0.32-1.93c-0.454 0.602-0.992 1.134-1.6 1.58-0.883 0.525-1.892 0.801-2.92 0.8h-0.4c-0.9-0.002-1.79-0.194-2.611-0.565s-1.553-0.911-2.15-1.585c-1.332-1.488-2.069-3.413-2.070-5.41 0-0.16 0-0.31 0-0.45 0-0.12 0-0.26 0-0.4-0-2.062 0.725-4.059 2.050-5.64 0.649-0.713 1.439-1.282 2.321-1.672s1.835-0.59 2.799-0.588h0.57c1.598-0.001 3.147 0.554 4.38 1.57 1.122 0.927 1.839 2.254 2 3.7l-3.13-0.020zM24 7.54h3.66v6h3.94v3.56h-3.92v6h-3.68v-6h-3.93v-3.53h3.93v-6.030zM16 23.16v-15.62h3.4v15.62h-3.4z"></path>
</svg>
