<!-- Generated by IcoMoon.io -->
<svg version="1.1" xmlns="http://www.w3.org/2000/svg" width="32" height="32" viewBox="0 0 32 32">
<title>give-euro</title>
<path d="M14.223 5.303c1.685-1.765 4.338-1.715 6.070 0.017 0.39 0.391 1.024 0.391 1.414 0s0.39-1.024 0-1.414c-2.468-2.469-6.416-2.618-8.931 0.017-0.594 0.622-1.045 1.333-1.354 2.090h-0.023c-0.552 0-1 0.448-1 1 0 0.393 0.226 0.733 0.556 0.896-0.035 0.367-0.040 0.737-0.015 1.104h-0.941c-0.552 0-1 0.448-1 1s0.448 1 1 1h1.399c0.311 0.77 0.775 1.488 1.394 2.107 2.49 2.491 6.424 2.491 8.914 0 0.39-0.39 0.39-1.024 0-1.414s-1.024-0.391-1.414 0c-1.709 1.709-4.376 1.709-6.086 0-0.214-0.214-0.401-0.446-0.562-0.693h2.155c0.552 0 1-0.448 1-1s-0.448-1-1-1h-2.852c-0.033-0.331-0.031-0.667 0.007-1h4.245c0.552 0 1-0.448 1-1s-0.448-1-1-1h-3.534c0.16-0.25 0.346-0.487 0.558-0.71z"></path>
<path d="M9.946 4.48c0.294 0.467 0.154 1.085-0.313 1.379-2.486 1.566-4.339 4.060-5.172 6.933-0.154 0.53-0.709 0.835-1.239 0.681s-0.836-0.709-0.682-1.239c0.966-3.328 3.114-6.233 6.028-8.067 0.467-0.294 1.085-0.154 1.379 0.313z"></path>
<path d="M24.625 5.032c-0.431-0.345-1.061-0.275-1.406 0.156s-0.275 1.061 0.156 1.406c2.785 2.228 4.625 5.65 4.625 9.419 0 0.622-0.090 1.36-0.19 2.059-0.078 0.547 0.302 1.053 0.849 1.131s1.053-0.302 1.131-0.849c0.1-0.701 0.21-1.564 0.21-2.341 0-4.431-2.16-8.409-5.375-10.981z"></path>
<path d="M20 19.513c-0.040 0-0.079 0.002-0.118 0.007-0.428-1.753-1.974-3.007-3.882-3.007h-3.764l-3.772-1.886c-0.069-0.036-0.142-0.065-0.219-0.084-0.088-0.022-0.178-0.032-0.266-0.030h-4.979c-0.552 0-1 0.448-1 1v11c0 0.552 0.448 1 1 1h4.82l4.935 1.838c2.087 0.769 4.315 0.888 6.445 0.216l0.002-0 8.015-2.505c1.592-0.531 2.684-2.001 2.684-3.649 0-2.152-1.748-3.9-3.9-3.9h-6zM9 25.818v-8.687l2.553 1.276c0.139 0.069 0.292 0.105 0.447 0.105h4c1.148 0 2 0.852 2 2s-0.852 2-2 2h-3c-0.552 0-1 0.448-1 1s0.448 1 1 1h3c1.908 0 3.454-1.254 3.882-3.007 0.039 0.005 0.078 0.007 0.118 0.007h6c1.048 0 1.9 0.852 1.9 1.9 0 0.75-0.505 1.477-1.308 1.749l-7.993 2.498c-1.669 0.527-3.44 0.446-5.152-0.184l-0.002-0.001-4.446-1.656zM4 25.513v-9h3v9h-3z"></path>
</svg>
