<!-- Generated by IcoMoon.io -->
<svg version="1.1" xmlns="http://www.w3.org/2000/svg" width="32" height="32" viewBox="0 0 32 32">
<title>glasses</title>
<path d="M10.1 6h2.9c0.552 0 1 0.448 1 1s-0.448 1-1 1h-2.9c-0.888 0-1.607 0.545-1.86 1.242l-1.937 5.002c0.538-0.159 1.108-0.243 1.698-0.243 2.251 0 4.213 1.24 5.239 3.074 0.711-0.67 1.678-1.074 2.761-1.074s2.049 0.404 2.761 1.074c1.026-1.834 2.988-3.074 5.239-3.074 0.59 0 1.159 0.085 1.698 0.243l-1.937-5.002c-0.253-0.696-0.972-1.242-1.86-1.242h-2.9c-0.552 0-1-0.448-1-1s0.448-1 1-1h2.9c1.708 0 3.186 1.050 3.736 2.548l2.927 7.556c0.891 1.042 1.431 2.393 1.437 3.87 0 0.017 0 0.034 0 0.051-0.013 3.302-2.695 5.975-6 5.975-3.314 0-6-2.686-6-6 0-1.148-0.852-2-2-2s-2 0.852-2 2c0 3.314-2.686 6-6 6-3.305 0-5.987-2.673-6-5.975-0-0.017-0-0.034 0-0.050 0.006-1.477 0.546-2.828 1.437-3.87l2.927-7.556c0.55-1.498 2.028-2.548 3.736-2.548zM4.004 20.177c0.093 2.127 1.846 3.823 3.996 3.823 2.209 0 4-1.791 4-4s-1.791-4-4-4c-1.107 0-2.11 0.45-2.834 1.177l-1.162 3zM27.996 20.177l-1.162-3c-0.724-0.727-1.727-1.177-2.834-1.177-2.209 0-4 1.791-4 4s1.791 4 4 4c2.15 0 3.904-1.696 3.996-3.823z"></path>
</svg>
