<!-- Generated by IcoMoon.io -->
<svg version="1.1" xmlns="http://www.w3.org/2000/svg" width="32" height="32" viewBox="0 0 32 32">
<title>globe-alt</title>
<path d="M24.907 2.293c-0.39-0.391-1.024-0.391-1.414 0s-0.39 1.024 0 1.414c4.71 4.709 4.71 12.276 0 16.986-2.3 2.3-5.281 3.477-8.278 3.53-0.069-0.015-0.141-0.023-0.214-0.023s-0.145 0.008-0.214 0.023c-2.997-0.054-5.979-1.23-8.278-3.53-0.391-0.39-1.024-0.39-1.414 0s-0.391 1.024 0 1.414c2.49 2.49 5.666 3.85 8.907 4.082v2.011h-4c-0.552 0-1 0.448-1 1s0.448 1 1 1h10c0.552 0 1-0.448 1-1s-0.448-1-1-1h-4v-2.011c3.241-0.232 6.418-1.593 8.907-4.082 5.491-5.491 5.491-14.324 0-19.814z"></path>
<path d="M15 2.2c-5.523 0-10 4.477-10 10s4.477 10 10 10c5.523 0 10-4.477 10-10s-4.477-10-10-10zM7 12.2c0-4.418 3.582-8 8-8s8 3.582 8 8c0 4.418-3.582 8-8 8s-8-3.582-8-8z"></path>
</svg>
