<!-- Generated by IcoMoon.io -->
<svg version="1.1" xmlns="http://www.w3.org/2000/svg" width="32" height="32" viewBox="0 0 32 32">
<title>google-cloud-platform</title>
<path d="M27.27 12.29c-0.602-2.206-1.832-4.19-3.54-5.71-1.154-1.025-2.499-1.813-3.958-2.317s-3.003-0.717-4.544-0.624-3.049 0.489-4.436 1.165c-1.388 0.676-2.629 1.62-3.651 2.776-1.201 1.382-2.070 3.020-2.54 4.79-1.088 0.764-1.981 1.773-2.606 2.946s-0.966 2.477-0.994 3.805c-0.028 1.329 0.257 2.646 0.832 3.844s1.424 2.245 2.479 3.054c1.469 1.119 3.263 1.727 5.11 1.73h13c1.822 0.029 3.604-0.532 5.081-1.599s2.57-2.582 3.115-4.321c0.545-1.738 0.514-3.607-0.089-5.326s-1.745-3.198-3.257-4.215zM22.46 22.53h-13c-0.459-0.001-0.912-0.1-1.33-0.29-0.76-0.373-1.345-1.026-1.631-1.823s-0.252-1.673 0.096-2.445c0.348-0.771 0.983-1.377 1.769-1.689s1.664-0.306 2.446 0.017c0.721 0.331 1.3 0.909 1.63 1.63l3.78-3.78c-1.249-1.628-3.047-2.748-5.060-3.15 1.116-1.233 2.659-1.994 4.316-2.13s3.303 0.365 4.604 1.4c0.763 0.623 1.375 1.411 1.789 2.305s0.619 1.87 0.601 2.855v0.65c0.865 0 1.694 0.343 2.305 0.955s0.955 1.441 0.955 2.305c-0.005 0.424-0.094 0.843-0.261 1.233s-0.41 0.743-0.713 1.039c-0.304 0.296-0.663 0.53-1.056 0.687s-0.815 0.236-1.239 0.23z"></path>
</svg>
