<!-- Generated by IcoMoon.io -->
<svg version="1.1" xmlns="http://www.w3.org/2000/svg" width="32" height="32" viewBox="0 0 32 32">
<title>google-plus</title>
<path d="M31 16.91h-3.17v3.2h-2.47v-3.14h-3.13v-2.5h3v-3.13h2.5v3.070h3.17l0.1 2.5zM11 13.83h9.35c0.080 0.329 0.137 0.663 0.17 1 0.037 0.359 0.053 0.719 0.050 1.080 0.016 1.338-0.218 2.668-0.69 3.92-0.431 1.145-1.091 2.189-1.94 3.070-0.847 0.871-1.87 1.553-3 2-1.249 0.518-2.588 0.786-3.94 0.79-1.334 0.009-2.655-0.261-3.88-0.79-1.203-0.5-2.297-1.23-3.22-2.15-0.927-0.926-1.661-2.027-2.159-3.239s-0.75-2.511-0.742-3.821c-0.009-1.963 0.563-3.884 1.646-5.522s2.625-2.917 4.434-3.678c1.747-0.753 3.677-0.977 5.55-0.645s3.608 1.207 4.99 2.515l-2.79 2.75c-0.509-0.491-1.111-0.875-1.77-1.13-0.668-0.266-1.381-0.402-2.1-0.4-0.802-0.007-1.596 0.147-2.337 0.452s-1.413 0.756-1.977 1.326c-0.564 0.57-1.008 1.246-1.306 1.99s-0.444 1.54-0.429 2.342c-0.012 0.795 0.139 1.584 0.444 2.318s0.756 1.399 1.326 1.952c0.562 0.57 1.236 1.018 1.98 1.316s1.54 0.439 2.34 0.414c1.312 0.057 2.604-0.338 3.66-1.12 0.908-0.714 1.518-1.741 1.71-2.88h-5.37v-3.86z"></path>
</svg>
