<!-- Generated by IcoMoon.io -->
<svg version="1.1" xmlns="http://www.w3.org/2000/svg" width="32" height="32" viewBox="0 0 32 32">
<title>green</title>
<path d="M16 7.5c0-3.052 2.448-5.5 5.5-5.5h5.5v5.5c0 3.052-2.448 5.5-5.5 5.5-1.147 0-2.209-0.346-3.087-0.939-0.906 1.139-1.413 2.558-1.413 4.039v0.52c1.433 0.353 2.532 1.453 2.882 2.887 0.039-0.005 0.078-0.007 0.118-0.007h6c2.152 0 3.9 1.748 3.9 3.9 0 1.648-1.092 3.118-2.684 3.649l-8.017 2.505c-2.13 0.672-4.358 0.553-6.445-0.216l-4.935-1.838h-5.82v-13h5.979c0.015-0 0.029-0 0.044 0h0.977v0.382l3.236 1.618h2.644c-0.088-0.879-0.468-1.674-1.087-2.293l-0.908-0.908c-0.695 0.443-1.515 0.701-2.385 0.701-2.452 0-4.5-2.048-4.5-4.5v-4.5h4.5c2.452 0 4.5 2.048 4.5 4.5 0 0.87-0.258 1.69-0.701 2.385l0.908 0.908c0.114 0.114 0.222 0.231 0.325 0.352 0.337-0.905 0.827-1.749 1.451-2.495-0.62-0.891-0.983-1.976-0.983-3.15zM21.5 4c-1.948 0-3.5 1.552-3.5 3.5 0 0.606 0.151 1.174 0.416 1.669l2.876-2.876c0.39-0.391 1.024-0.391 1.414 0s0.39 1.024 0 1.414l-2.876 2.876c0.495 0.266 1.063 0.416 1.669 0.416 1.948 0 3.5-1.552 3.5-3.5v-3.5h-3.5zM12.821 10.407c0.115-0.283 0.179-0.589 0.179-0.907 0-1.348-1.152-2.5-2.5-2.5h-2.5v2.5c0 1.348 1.152 2.5 2.5 2.5 0.317 0 0.624-0.064 0.907-0.179l-2.114-2.114c-0.391-0.391-0.391-1.024 0-1.414s1.024-0.391 1.414 0l2.114 2.114zM9 17.118v8.687l4.447 1.657c1.712 0.63 3.483 0.711 5.151 0.184l0.003-0.001 7.99-2.497c0.803-0.271 1.308-0.999 1.308-1.749 0-1.048-0.852-1.9-1.9-1.9h-6c-0.040 0-0.079-0.002-0.118-0.007-0.428 1.753-1.974 3.007-3.882 3.007h-3c-0.552 0-1-0.448-1-1s0.448-1 1-1h3c1.148 0 2-0.852 2-2s-0.852-2-2-2h-4.236l-2.764-1.382zM4 25.5h3v-9h-3v9z"></path>
</svg>
