<!-- Generated by IcoMoon.io -->
<svg version="1.1" xmlns="http://www.w3.org/2000/svg" width="32" height="32" viewBox="0 0 32 32">
<title>gunicorn</title>
<path d="M14.21 18.21v0.25c0.003 0.341 0.064 0.679 0.18 1l1.12 3.55c0.070 0.21 0.12 0.43 0.17 0.65 0.006 0.033 0.006 0.067 0 0.1 0.005 0.037 0.005 0.073 0 0.11-0.17 0.49-0.32 1-0.51 1.48s-0.3 0.62-0.76 0.55h-0.69c-0.23 0-0.27-0.16-0.2-0.37s0.21-0.7 0.3-1.1v-0.080c0.042-0.167 0.062-0.338 0.060-0.51-0.003-0.538-0.186-1.059-0.52-1.48-0.431-0.514-0.77-1.1-1-1.73-0.173-0.482-0.294-0.982-0.36-1.49-0.060-0.48-0.38-0.59-0.77-0.44-0.685 0.273-1.353 0.587-2 0.94l0.090-0.050c-0.277 0.189-0.483 0.464-0.586 0.782s-0.098 0.663 0.016 0.977c0.066 0.245 0.164 0.48 0.29 0.7 0.103 0.134 0.228 0.249 0.37 0.34l0.62 0.52c0.006 0.037 0.006 0.074 0 0.11 0.005 0.037 0.005 0.073 0 0.11-0.138 0.456-0.414 0.858-0.79 1.15-0.053 0.011-0.107 0.011-0.16 0-0.056 0.010-0.114 0.010-0.17 0-0.292-0.186-0.569-0.393-0.83-0.62-0.26-0.23-0.49-0.48-0.74-0.71-0.273-0.265-0.44-0.621-0.47-1-0.064-0.417-0.088-0.839-0.070-1.26-0.004-0.416 0.033-0.831 0.11-1.24 0.2-0.673 0.576-1.281 1.090-1.76 0.46-0.47 0.95-0.89 1.42-1.34 0.23-0.21 0.45-0.4 0.67-0.62 0.051-0.055 0.083-0.125 0.090-0.2v-2.21c-0.033-0.513-0.093-1.024-0.18-1.53v0.080c-0.038-0.206-0.119-0.402-0.238-0.574s-0.273-0.318-0.452-0.426c-0.073-0.068-0.17-0.103-0.27-0.1-0.079-0.001-0.156 0.020-0.223 0.061s-0.122 0.099-0.157 0.169c-0.17 0.27-0.28 0.56-0.44 0.85-0.089 0.21-0.193 0.414-0.31 0.61-0.081 0.103-0.184 0.188-0.302 0.246s-0.247 0.091-0.378 0.094c-0.082-0.024-0.16-0.061-0.23-0.11-0.18-0.054-0.341-0.158-0.465-0.299s-0.205-0.315-0.235-0.501c0-0.67-0.070-1.32-0.090-2 0.003-0.401 0.027-0.801 0.070-1.2v0.060c0 0 0-0.060 0-0.1-0.001-0.119-0.035-0.236-0.099-0.336s-0.154-0.182-0.261-0.234c-0.68-0.39-1.37-0.77-2.070-1.14-0.42-0.25-0.85-0.44-1.25-0.68-0.443-0.242-0.867-0.516-1.27-0.82 0.43 0.12 0.77 0.24 1.11 0.37h-0.070c1.24 0.52 2.53 0.9 3.81 1.32 0.42 0.13 0.47 0 0.49-0.38s0-0.75 0-1.13h0.070c0.769 0.323 1.596 0.486 2.43 0.48h0.28c0.761 0.079 1.515 0.205 2.26 0.38h-0.13c0.534 0.176 0.993 0.529 1.3 1 0.34 0.46 0.65 0.93 0.95 1.4s0.59 1 0.91 1.5c0.21 0.368 0.515 0.675 0.882 0.887s0.784 0.324 1.208 0.323c0.175 0 0.35-0.020 0.52-0.060 1.18-0.16 2.34-0.4 3.52-0.58 0.466-0.078 0.938-0.118 1.41-0.12 0.493 0.002 0.985 0.046 1.47 0.13h-0.050c0.472 0.11 0.924 0.292 1.34 0.54 0.828 0.447 1.583 1.017 2.24 1.69 0.365 0.433 0.681 0.906 0.94 1.41 0.226 0.392 0.423 0.8 0.59 1.22v0.070c0.41 1 0.78 2.070 1.17 3.17l0.47 1.14c0.27 0.61 0.27 0.66-0.38 0.64-0.232-0.003-0.462-0.026-0.69-0.070-0.295-0.081-0.567-0.229-0.796-0.432s-0.408-0.455-0.524-0.738c-0.29-0.67-0.49-1.37-0.77-2.080-0.2-0.47-0.45-0.93-0.69-1.38-0.054-0.061-0.129-0.101-0.21-0.11-0.050 0.043-0.088 0.098-0.11 0.16-0.11 0.35-0.21 0.71-0.3 1-0.016 0.109-0.016 0.221 0 0.33-0 0.249 0.065 0.494 0.19 0.71 0.26 0.49 0.52 1 0.79 1.46 0.489 0.898 0.827 1.872 1 2.88v0.12c0.075 0.466 0.111 0.938 0.11 1.41 0.012 0.488-0.012 0.976-0.070 1.46v-0.050c0 0.050-0.090 0.13-0.14 0.13h-1c-0.25 0-0.35-0.14-0.36-0.46 0.010-0.574-0.010-1.148-0.060-1.72 0.005-0.033 0.005-0.067 0-0.1 0-0.287-0.057-0.572-0.168-0.836s-0.276-0.504-0.482-0.704c-0.194-0.183-0.377-0.377-0.55-0.58l-1.39-1.71c-0.18-0.23-0.37-0.45-0.57-0.68s-0.28-0.14-0.33 0.080c-0.070 0.39-0.12 0.81-0.16 1.21-0.026 0.243-0.026 0.487 0 0.73 0.005 0.245-0.081 0.484-0.24 0.67-0.498 0.658-0.84 1.421-1 2.23-0.1 0.43-0.18 0.85-0.25 1.27s-0.11 0.42-0.43 0.46c-0.386 0.020-0.774 0.020-1.16 0-0.17 0-0.17-0.12-0.16-0.24 0.060-0.51 0.11-1 0.17-1.54 0.258-1.23 0.392-2.483 0.4-3.74-0.038-0.434-0.105-0.865-0.2-1.29-0.060-0.44-0.17-0.39-0.52-0.4h-3.4c-0.508 0.014-1.016-0.013-1.52-0.080h-0.27z"></path>
</svg>
