<!-- Generated by IcoMoon.io -->
<svg version="1.1" xmlns="http://www.w3.org/2000/svg" width="32" height="32" viewBox="0 0 32 32">
<title>headphones</title>
<path d="M16 7.69c-4.948 0-9 4.052-9 9v1h-1c-1.148 0-2 0.852-2 2v2c0 1.148 0.852 2 2 2h1v-3c0-0.552 0.448-1 1-1s1 0.448 1 1v5h-3c-2.252 0-4-1.748-4-4v-2c0-1.918 1.268-3.471 3.036-3.889 0.456-5.64 5.211-10.111 10.964-10.111s10.508 4.471 10.964 10.111c1.768 0.418 3.036 1.97 3.036 3.889v2c0 2.252-1.748 4-4 4h-3v-5c0-0.552 0.448-1 1-1s1 0.448 1 1v3h1c1.148 0 2-0.852 2-2v-2c0-1.148-0.852-2-2-2h-1v-1c0-4.948-4.052-9-9-9z"></path>
</svg>
