<!-- Generated by IcoMoon.io -->
<svg version="1.1" xmlns="http://www.w3.org/2000/svg" width="32" height="32" viewBox="0 0 32 32">
<title>helm</title>
<path d="M22.46 23.37c0.612 0.349 1.139 0.831 1.54 1.41 0.85 1.14 1.18 2.34 0.72 2.68s-1.52-0.31-2.37-1.45c-0.448-0.553-0.76-1.204-0.91-1.9-1.426 0.95-3.072 1.519-4.78 1.65 0.27 0.632 0.403 1.313 0.39 2 0 1.42-0.47 2.58-1 2.58s-1-1.16-1-2.58c-0.018-0.686 0.112-1.368 0.38-2-1.734-0.078-3.418-0.601-4.89-1.52-0.169 0.638-0.469 1.234-0.88 1.75-0.85 1.14-1.91 1.79-2.37 1.45s-0.13-1.54 0.72-2.68c0.377-0.532 0.856-0.985 1.41-1.33-0.733-0.582-1.379-1.266-1.92-2.030l1.15-0.71c0.81 1.168 1.891 2.122 3.15 2.78s2.659 1.003 4.080 1.003 2.821-0.344 4.080-1.003c1.259-0.659 2.34-1.613 3.15-2.78l1.14 0.78c-0.515 0.706-1.116 1.344-1.79 1.9zM9.26 7.85c-0.491-0.338-0.918-0.762-1.26-1.25-0.85-1.14-1.18-2.34-0.72-2.68s1.52 0.31 2.37 1.45c0.378 0.476 0.662 1.019 0.84 1.6 1.436-0.905 3.076-1.435 4.77-1.54-0.217-0.585-0.322-1.206-0.31-1.83 0-1.42 0.47-2.58 1-2.58s1 1.16 1 2.58c0.013 0.627-0.092 1.252-0.31 1.84 1.736 0.131 3.41 0.706 4.86 1.67 0.176-0.632 0.475-1.223 0.88-1.74 0.85-1.14 1.91-1.79 2.37-1.45s0.13 1.54-0.72 2.68c-0.384 0.54-0.874 0.995-1.44 1.34 0.787 0.714 1.462 1.543 2 2.46l-1.16 0.75c-0.755-1.293-1.828-2.372-3.116-3.135s-2.75-1.184-4.247-1.224-2.979 0.303-4.307 0.995c-1.328 0.693-2.456 1.713-3.28 2.964l-1.14-0.78c0.541-0.791 1.187-1.504 1.92-2.12zM27.49 11.98h2.32v7.49h-1.55v-5.31l-1.83 5.31h-1.29l-1.84-5.25v5.25h-1.56v-7.49h2.31l1.76 5.15 1.68-5.15zM17.58 11.98v6.11h3.65v1.38h-5.3v-7.49h1.65zM15.16 11.98v1.39h-4v1.6h3.63v1.28h-3.59v1.84h4v1.38h-5.65v-7.49h5.61zM6.88 11.98h1.64v7.49h-1.64v-3.23h-3v3.23h-1.69v-7.49h1.65v2.88h3l0.040-2.88z"></path>
</svg>
