<!-- Generated by IcoMoon.io -->
<svg version="1.1" xmlns="http://www.w3.org/2000/svg" width="32" height="32" viewBox="0 0 32 32">
<title>help-alt</title>
<path d="M16 2c-7.732 0-14 6.268-14 14s6.268 14 14 14c7.732 0 14-6.268 14-14s-6.268-14-14-14zM8.251 6.837c2.091-1.77 4.795-2.837 7.749-2.837s5.658 1.067 7.749 2.837l-2.843 2.843c-1.355-1.053-3.057-1.68-4.906-1.68s-3.551 0.627-4.906 1.68l-2.843-2.843zM22.32 11.094l2.843-2.843c1.77 2.091 2.837 4.795 2.837 7.749s-1.067 5.658-2.837 7.749l-2.843-2.843c1.053-1.355 1.68-3.057 1.68-4.906s-0.627-3.551-1.68-4.906zM6.837 8.251l2.843 2.843c-1.053 1.355-1.68 3.057-1.68 4.906s0.627 3.551 1.68 4.906l-2.843 2.843c-1.77-2.091-2.837-4.795-2.837-7.749s1.067-5.658 2.837-7.749zM16 28c-2.954 0-5.658-1.067-7.749-2.837l2.843-2.843c1.355 1.053 3.057 1.68 4.906 1.68s3.551-0.627 4.906-1.68l2.843 2.843c-2.091 1.77-4.795 2.837-7.749 2.837zM10 16c0-3.314 2.686-6 6-6s6 2.686 6 6c0 3.314-2.686 6-6 6s-6-2.686-6-6z"></path>
</svg>
