<!-- Generated by IcoMoon.io -->
<svg version="1.1" xmlns="http://www.w3.org/2000/svg" width="32" height="32" viewBox="0 0 32 32">
<title>help</title>
<path d="M16 24.5c0.828 0 1.5-0.672 1.5-1.5s-0.672-1.5-1.5-1.5c-0.828 0-1.5 0.672-1.5 1.5s0.672 1.5 1.5 1.5z"></path>
<path d="M13 12c0-1.648 1.352-3 3-3s3 1.352 3 3c0 1.021-0.65 1.736-1.707 2.793l-0.087 0.087c-0.936 0.934-2.206 2.201-2.206 4.12 0 0.552 0.448 1 1 1s1-0.448 1-1c0-1.021 0.65-1.736 1.707-2.793l0.087-0.087c0.936-0.934 2.206-2.201 2.206-4.12 0-2.752-2.248-5-5-5s-5 2.248-5 5c0 0.552 0.448 1 1 1s1-0.448 1-1z"></path>
<path d="M2 16c0-7.732 6.268-14 14-14s14 6.268 14 14c0 7.732-6.268 14-14 14s-14-6.268-14-14zM16 4c-6.627 0-12 5.373-12 12s5.373 12 12 12c6.627 0 12-5.373 12-12s-5.373-12-12-12z"></path>
</svg>
