<!-- Generated by IcoMoon.io -->
<svg version="1.1" xmlns="http://www.w3.org/2000/svg" width="32" height="32" viewBox="0 0 32 32">
<title>hetzner</title>
<path d="M29.12 2.26h-3.070c-0.409 0.003-0.801 0.167-1.090 0.458s-0.45 0.683-0.45 1.092v8.81h-17v-8.84c0-0.403-0.158-0.79-0.44-1.078s-0.666-0.454-1.070-0.462h-3.12c-0.409 0-0.802 0.162-1.093 0.45s-0.455 0.68-0.458 1.090v23.82c0.003 0.409 0.167 0.801 0.458 1.090s0.683 0.451 1.093 0.451h3.12c0.408 0 0.8-0.162 1.089-0.451s0.451-0.68 0.451-1.089v-8.91h17v8.94c0 0.408 0.162 0.8 0.451 1.089s0.68 0.451 1.089 0.451h3.070c0.41-0.003 0.803-0.167 1.093-0.457s0.454-0.683 0.457-1.093v-23.81c-0.003-0.41-0.167-0.803-0.457-1.093s-0.683-0.454-1.093-0.457z"></path>
</svg>
