<!-- Generated by IcoMoon.io -->
<svg version="1.1" xmlns="http://www.w3.org/2000/svg" width="32" height="32" viewBox="0 0 32 32">
<title>history-forward</title>
<path d="M21.293 5.293c0.39-0.391 1.024-0.391 1.414 0l5.707 5.707-5.707 5.707c-0.39 0.39-1.024 0.39-1.414 0s-0.39-1.024 0-1.414l3.293-3.293h-9.586c-0.552 0-1-0.448-1-1s0.448-1 1-1h9.586l-3.293-3.293c-0.39-0.391-0.39-1.024 0-1.414z"></path>
<path d="M10.829 22h2.341c0.412-1.165 1.523-2 2.829-2s2.418 0.835 2.829 2h2.341c0.412-1.165 1.523-2 2.829-2s2.418 0.835 2.829 2h2.171c0.552 0 1 0.448 1 1s-0.448 1-1 1h-2.171c-0.412 1.165-1.523 2-2.829 2s-2.418-0.835-2.829-2h-2.341c-0.412 1.165-1.523 2-2.829 2s-2.418-0.835-2.829-2h-2.341c-0.412 1.165-1.523 2-2.829 2s-2.417-0.835-2.829-2h-2.171c-0.552 0-1-0.448-1-1s0.448-1 1-1h2.171c0.412-1.165 1.523-2 2.829-2s2.418 0.835 2.829 2zM8 22c-0.552 0-1 0.448-1 1s0.448 1 1 1c0.552 0 1-0.448 1-1s-0.448-1-1-1zM25 23c0-0.552-0.448-1-1-1s-1 0.448-1 1c0 0.552 0.448 1 1 1s1-0.448 1-1zM16 22c-0.552 0-1 0.448-1 1s0.448 1 1 1c0.552 0 1-0.448 1-1s-0.448-1-1-1z"></path>
<path d="M8 11c0-0.552 0.448-1 1-1h2c0.552 0 1 0.448 1 1s-0.448 1-1 1h-2c-0.552 0-1-0.448-1-1z"></path>
<path d="M4 10c-0.552 0-1 0.448-1 1s0.448 1 1 1h1c0.552 0 1-0.448 1-1s-0.448-1-1-1h-1z"></path>
</svg>
