<!-- Generated by IcoMoon.io -->
<svg version="1.1" xmlns="http://www.w3.org/2000/svg" width="32" height="32" viewBox="0 0 32 32">
<title>hourglass-alt</title>
<path d="M5 2h22c0.552 0 1 0.448 1 1s-0.448 1-1 1h-2v4c0 2.395-1.22 4.152-2.86 5.518-1.133 0.944-2.519 1.746-3.929 2.482 1.41 0.736 2.796 1.537 3.929 2.482 1.64 1.366 2.86 3.123 2.86 5.518v4h2c0.552 0 1 0.448 1 1s-0.448 1-1 1h-22c-0.552 0-1-0.448-1-1s0.448-1 1-1h2v-4c0-2.395 1.22-4.152 2.86-5.518 1.133-0.944 2.519-1.746 3.929-2.482-1.41-0.736-2.796-1.537-3.929-2.482-1.64-1.367-2.86-3.123-2.86-5.518v-4h-2c-0.552 0-1-0.448-1-1s0.448-1 1-1zM23 4h-14v4c0 1.605 0.78 2.848 2.14 3.982 1.29 1.075 3.003 1.968 4.86 2.9 1.857-0.932 3.57-1.825 4.86-2.9 1.36-1.133 2.14-2.377 2.14-3.982v-4zM16 17.118c-1.857 0.932-3.57 1.825-4.86 2.9-1.36 1.134-2.14 2.377-2.14 3.982v4h14v-4c0-1.605-0.78-2.848-2.14-3.982-1.29-1.075-3.003-1.968-4.86-2.9z"></path>
</svg>
