<!-- Generated by IcoMoon.io -->
<svg version="1.1" xmlns="http://www.w3.org/2000/svg" width="32" height="32" viewBox="0 0 32 32">
<title>human</title>
<path d="M11 7c0-2.761 2.239-5 5-5s5 2.239 5 5c0 2.761-2.239 5-5 5s-5-2.239-5-5zM16 4c-1.657 0-3 1.343-3 3s1.343 3 3 3c1.657 0 3-1.343 3-3s-1.343-3-3-3z"></path>
<path d="M3.225 11.026c-0.538-0.124-1.075 0.211-1.199 0.749s0.211 1.075 0.75 1.199l12.225 2.821v2.879l-7.809 10.737c-0.325 0.447-0.226 1.072 0.221 1.397s1.072 0.226 1.397-0.221l7.191-9.888 7.191 9.888c0.325 0.447 0.95 0.545 1.397 0.221s0.545-0.95 0.221-1.397l-7.809-10.737v-2.879l12.225-2.821c0.538-0.124 0.874-0.661 0.75-1.199s-0.661-0.874-1.199-0.749l-12.775 2.948-12.775-2.948z"></path>
</svg>
