<!-- Generated by IcoMoon.io -->
<svg version="1.1" xmlns="http://www.w3.org/2000/svg" width="32" height="32" viewBox="0 0 32 32">
<title>image-mapping</title>
<path d="M10.76 24.070c0.007-0.136-0.014-0.271-0.061-0.398s-0.12-0.243-0.213-0.342c-0.094-0.098-0.206-0.176-0.331-0.23s-0.259-0.081-0.395-0.081h-1c-0.278 0-0.546 0.111-0.742 0.308s-0.308 0.464-0.308 0.742c0 0.279 0.111 0.546 0.308 0.742s0.464 0.308 0.742 0.308h1c0.136 0 0.27-0.027 0.395-0.081s0.237-0.131 0.331-0.23c0.094-0.098 0.166-0.215 0.213-0.342s0.068-0.263 0.061-0.398zM10.76 19.88c0.007-0.136-0.014-0.271-0.061-0.398s-0.12-0.243-0.213-0.342c-0.094-0.098-0.206-0.176-0.331-0.23s-0.259-0.081-0.395-0.081h-1c-0.278 0-0.546 0.111-0.742 0.308s-0.308 0.464-0.308 0.742c0 0.279 0.111 0.546 0.308 0.742s0.464 0.308 0.742 0.308h1c0.136 0 0.27-0.027 0.395-0.081s0.237-0.131 0.331-0.23c0.094-0.098 0.166-0.215 0.213-0.342s0.068-0.263 0.061-0.398zM10.76 15.69c0.007-0.136-0.014-0.271-0.061-0.398s-0.12-0.243-0.213-0.342c-0.094-0.098-0.206-0.176-0.331-0.23s-0.259-0.081-0.395-0.081h-1c-0.278 0-0.546 0.111-0.742 0.307s-0.308 0.464-0.308 0.742c0 0.278 0.111 0.545 0.308 0.743s0.464 0.308 0.742 0.308h1c0.136 0 0.27-0.027 0.395-0.081s0.237-0.131 0.331-0.23c0.094-0.098 0.166-0.215 0.213-0.342s0.068-0.263 0.061-0.398zM9.76 12.55h-1c-0.278 0-0.546-0.111-0.742-0.307s-0.308-0.464-0.308-0.742 0.111-0.546 0.308-0.742c0.197-0.197 0.464-0.307 0.742-0.307h1c0.278 0 0.546 0.111 0.742 0.307s0.307 0.464 0.307 0.742c0 0.278-0.111 0.546-0.307 0.742s-0.464 0.307-0.742 0.307zM20.19 24.070c0.007-0.14-0.015-0.279-0.065-0.41s-0.127-0.249-0.226-0.348c-0.099-0.099-0.218-0.176-0.348-0.226s-0.27-0.073-0.41-0.065h-6.28c-0.278 0-0.546 0.111-0.742 0.308s-0.307 0.464-0.307 0.742 0.111 0.546 0.307 0.742c0.197 0.197 0.464 0.308 0.742 0.308h6.28c0.14 0.007 0.279-0.015 0.41-0.065s0.249-0.127 0.348-0.226c0.099-0.099 0.176-0.218 0.226-0.348s0.073-0.27 0.065-0.41zM24.38 11.5c0.007-0.14-0.015-0.28-0.065-0.41s-0.127-0.249-0.226-0.348c-0.099-0.099-0.218-0.176-0.348-0.226s-0.27-0.072-0.41-0.065h-10.47c-0.278 0-0.546 0.111-0.742 0.307s-0.307 0.464-0.307 0.742 0.111 0.546 0.307 0.742c0.197 0.197 0.464 0.307 0.742 0.307h10.47c0.14 0.007 0.279-0.015 0.41-0.065s0.249-0.127 0.348-0.226c0.099-0.099 0.176-0.218 0.226-0.348s0.073-0.27 0.065-0.41zM22.29 15.69c0-0.136-0.027-0.27-0.081-0.395s-0.131-0.237-0.23-0.331c-0.098-0.094-0.215-0.166-0.342-0.213s-0.263-0.068-0.398-0.061h-8.38c-0.278 0-0.546 0.111-0.742 0.307s-0.307 0.464-0.307 0.742 0.111 0.545 0.307 0.743c0.197 0.197 0.464 0.308 0.742 0.308h8.38c0.144 0.008 0.289-0.015 0.423-0.069s0.256-0.135 0.355-0.239c0.1-0.105 0.176-0.23 0.223-0.366s0.064-0.282 0.049-0.426zM24.38 19.88c0.007-0.14-0.015-0.279-0.065-0.41s-0.127-0.249-0.226-0.348c-0.099-0.099-0.218-0.176-0.348-0.226s-0.27-0.073-0.41-0.065h-10.47c-0.278 0-0.546 0.111-0.742 0.308s-0.307 0.464-0.307 0.742 0.111 0.546 0.307 0.742c0.197 0.197 0.464 0.308 0.742 0.308h10.47c0.14 0.007 0.279-0.015 0.41-0.065s0.249-0.127 0.348-0.226c0.099-0.099 0.176-0.218 0.226-0.348s0.073-0.27 0.065-0.41zM30.67 4.17v23c0 0.835-0.332 1.637-0.923 2.227s-1.392 0.923-2.227 0.923h-23c-0.835 0-1.637-0.332-2.227-0.923s-0.923-1.392-0.923-2.227v-18.81c-0-0.829 0.326-1.624 0.908-2.213s1.373-0.926 2.202-0.937h9.42c0.278 0 0.546 0.111 0.742 0.308s0.307 0.464 0.307 0.742c0 0.278-0.111 0.546-0.307 0.742s-0.464 0.308-0.742 0.308h-9.42c-0.135-0.007-0.271 0.014-0.398 0.061s-0.243 0.12-0.342 0.213c-0.098 0.094-0.176 0.206-0.23 0.331s-0.081 0.259-0.081 0.395v18.9c-0.007 0.14 0.015 0.279 0.065 0.41s0.127 0.249 0.226 0.348 0.218 0.176 0.348 0.226c0.131 0.050 0.27 0.073 0.41 0.065h23c0.14 0.007 0.279-0.015 0.41-0.065s0.249-0.127 0.348-0.226c0.099-0.099 0.176-0.218 0.226-0.348s0.073-0.27 0.065-0.41v-23c0.007-0.14-0.015-0.28-0.065-0.41s-0.127-0.249-0.226-0.348c-0.099-0.099-0.218-0.176-0.348-0.226s-0.27-0.072-0.41-0.065h-25.1c-0.278 0-0.546-0.111-0.742-0.308s-0.308-0.464-0.308-0.742c0-0.278 0.111-0.546 0.308-0.742s0.464-0.308 0.742-0.308h25.14c0.835 0 1.637 0.332 2.227 0.923s0.923 1.392 0.923 2.227v-0.040z"></path>
</svg>
