<!-- Generated by IcoMoon.io -->
<svg version="1.1" xmlns="http://www.w3.org/2000/svg" width="32" height="32" viewBox="0 0 32 32">
<title>import</title>
<path d="M4 6c0-1.148 0.852-2 2-2h11c1.148 0 2 0.852 2 2v5c0 0.552 0.448 1 1 1s1-0.448 1-1v-5c0-2.252-1.748-4-4-4h-11c-2.252 0-4 1.748-4 4v20c0 2.252 1.748 4 4 4h11c2.252 0 4-1.748 4-4v-5c0-0.552-0.448-1-1-1s-1 0.448-1 1v5c0 1.148-0.852 2-2 2h-11c-1.148 0-2-0.852-2-2v-20z"></path>
<path d="M14.707 11.707c0.39-0.39 0.39-1.024 0-1.414s-1.024-0.391-1.414 0l-5.707 5.707 5.707 5.707c0.39 0.39 1.024 0.39 1.414 0s0.39-1.024 0-1.414l-3.293-3.293h12.586c0.552 0 1-0.448 1-1s-0.448-1-1-1h-12.586l3.293-3.293z"></path>
<path d="M22 2c-0.552 0-1 0.448-1 1s0.448 1 1 1h1c0.552 0 1-0.448 1-1s-0.448-1-1-1h-1z"></path>
<path d="M26 2c-0.552 0-1 0.448-1 1s0.448 1 1 1c1.148 0 2 0.852 2 2 0 0.552 0.448 1 1 1s1-0.448 1-1c0-2.252-1.748-4-4-4z"></path>
<path d="M30 9c0-0.552-0.448-1-1-1s-1 0.448-1 1v1c0 0.552 0.448 1 1 1s1-0.448 1-1v-1z"></path>
<path d="M30 13c0-0.552-0.448-1-1-1s-1 0.448-1 1v1c0 0.552 0.448 1 1 1s1-0.448 1-1v-1z"></path>
<path d="M30 18c0-0.552-0.448-1-1-1s-1 0.448-1 1v1c0 0.552 0.448 1 1 1s1-0.448 1-1v-1z"></path>
<path d="M30 22c0-0.552-0.448-1-1-1s-1 0.448-1 1v1c0 0.552 0.448 1 1 1s1-0.448 1-1v-1z"></path>
<path d="M30 26c0-0.552-0.448-1-1-1s-1 0.448-1 1c0 1.148-0.852 2-2 2-0.552 0-1 0.448-1 1s0.448 1 1 1c2.252 0 4-1.748 4-4z"></path>
<path d="M22 28c-0.552 0-1 0.448-1 1s0.448 1 1 1h1c0.552 0 1-0.448 1-1s-0.448-1-1-1h-1z"></path>
</svg>
