<!-- Generated by IcoMoon.io -->
<svg version="1.1" xmlns="http://www.w3.org/2000/svg" width="32" height="32" viewBox="0 0 32 32">
<title>inbox-full</title>
<path d="M6 2c-0.552 0-1 0.448-1 1v8.6l-2.914 6.995c-0.030 0.067-0.052 0.137-0.067 0.21s-0.021 0.145-0.019 0.217v6.978c0 2.252 1.748 4 4 4h20c2.252 0 4-1.748 4-4v-6.977c0.002-0.073-0.005-0.146-0.019-0.219s-0.037-0.143-0.066-0.209l-2.915-6.995v-1.6c0-0.265-0.105-0.52-0.293-0.707l-7-7c-0.188-0.188-0.442-0.293-0.707-0.293h-13zM25 11.778c-0 0.015-0 0.030 0 0.045v6.177h-3c-0.334 0-0.647 0.167-0.832 0.445l-1.703 2.555h-6.93l-1.703-2.555c-0.185-0.278-0.498-0.445-0.832-0.445h-3v-6.177c0-0.015 0-0.030 0-0.046v-7.778h11v7h7v0.778zM23.586 9h-3.586v-3.586l3.586 3.586zM5 16.8v1.2h-0.5l0.5-1.2zM27 18v-1.2l0.5 1.2h-0.5zM4 20h5.465l1.703 2.555c0.185 0.278 0.498 0.445 0.832 0.445h8c0.334 0 0.647-0.167 0.832-0.445l1.703-2.555h5.465v6c0 1.148-0.852 2-2 2h-20c-1.148 0-2-0.852-2-2v-6z"></path>
</svg>
