<!-- Generated by IcoMoon.io -->
<svg version="1.1" xmlns="http://www.w3.org/2000/svg" width="32" height="32" viewBox="0 0 32 32">
<title>inbox</title>
<path d="M2.019 16.807c-0.014 0.072-0.020 0.144-0.019 0.215v6.978c0 2.252 1.748 4 4 4h20c2.252 0 4-1.748 4-4v-6.977c0.002-0.073-0.005-0.146-0.019-0.22-0.014-0.071-0.036-0.139-0.064-0.204l-4.191-10.179c-0.005-0.011-0.009-0.022-0.014-0.033-0.664-1.46-2.122-2.386-3.71-2.386h-12c-1.589 0-3.047 0.926-3.71 2.386-0.005 0.011-0.010 0.022-0.014 0.033l-4.191 10.179c-0.029 0.066-0.051 0.136-0.065 0.209zM4.493 16l3.624-8.801c0.339-0.732 1.077-1.199 1.883-1.199h12c0.806 0 1.543 0.467 1.883 1.199l3.624 8.801h-5.507c-0.334 0-0.647 0.167-0.832 0.445l-1.703 2.555h-6.93l-1.703-2.555c-0.185-0.278-0.498-0.445-0.832-0.445h-5.507zM4 24v-6h5.465l1.703 2.555c0.185 0.278 0.498 0.445 0.832 0.445h8c0.334 0 0.647-0.167 0.832-0.445l1.703-2.555h5.465v6c0 1.148-0.852 2-2 2h-20c-1.148 0-2-0.852-2-2z"></path>
</svg>
