<!-- Generated by IcoMoon.io -->
<svg version="1.1" xmlns="http://www.w3.org/2000/svg" width="32" height="32" viewBox="0 0 32 32">
<title>industrial</title>
<path d="M10 22.5c0 0.829-0.672 1.5-1.5 1.5s-1.5-0.671-1.5-1.5c0-0.828 0.672-1.5 1.5-1.5s1.5 0.672 1.5 1.5z"></path>
<path d="M15 22.5c0 0.829-0.672 1.5-1.5 1.5s-1.5-0.671-1.5-1.5c0-0.828 0.672-1.5 1.5-1.5s1.5 0.672 1.5 1.5z"></path>
<path d="M18.5 24c0.828 0 1.5-0.671 1.5-1.5s-0.672-1.5-1.5-1.5-1.5 0.672-1.5 1.5c0 0.829 0.672 1.5 1.5 1.5z"></path>
<path d="M25 22.5c0 0.829-0.672 1.5-1.5 1.5s-1.5-0.671-1.5-1.5c0-0.828 0.672-1.5 1.5-1.5s1.5 0.672 1.5 1.5z"></path>
<path d="M30 3v8.98c0 0.013 0 0.025 0 0.038v12.982c0 2.252-1.748 4-4 4h-20c-2.252 0-4-1.748-4-4v-8.618l10-5v4.079l9-4v3.839l7-3.889v-8.412c0-0.552 0.448-1 1-1s1 0.448 1 1zM28 13.7l-9 5v-4.161l-9 4v-3.921l-6 3v7.382c0 1.148 0.852 2 2 2h20c1.148 0 2-0.852 2-2v-11.3z"></path>
</svg>
