<!-- Generated by IcoMoon.io -->
<svg version="1.1" xmlns="http://www.w3.org/2000/svg" width="32" height="32" viewBox="0 0 32 32">
<title>instagram</title>
<path d="M27.77 7.59c0.007 0.098-0.006 0.197-0.040 0.289s-0.087 0.177-0.157 0.247c-0.069 0.070-0.152 0.125-0.244 0.16s-0.19 0.050-0.289 0.044h-2.94c-0.099 0.007-0.199-0.007-0.292-0.041s-0.178-0.089-0.248-0.159c-0.070-0.070-0.125-0.155-0.159-0.248s-0.049-0.193-0.041-0.292v-2.9c-0.006-0.099 0.009-0.197 0.044-0.29s0.089-0.176 0.159-0.246 0.154-0.124 0.246-0.159c0.092-0.035 0.191-0.050 0.29-0.044h2.9c0.098-0.004 0.196 0.012 0.287 0.048s0.174 0.090 0.243 0.16c0.069 0.070 0.122 0.153 0.157 0.245s0.049 0.19 0.044 0.287l0.040 2.9zM5 27.46c-0.105 0.013-0.211 0.002-0.31-0.032s-0.19-0.090-0.265-0.164c-0.075-0.074-0.132-0.164-0.168-0.263s-0.048-0.205-0.037-0.31v-12.47h3.090c-0.116 0.481-0.163 0.976-0.14 1.47 0 2.342 0.93 4.588 2.586 6.244s3.902 2.586 6.244 2.586 4.588-0.93 6.244-2.586c1.656-1.656 2.586-3.902 2.586-6.244 0.025-0.495-0.026-0.99-0.15-1.47h3.090v12.47c0.006 0.097-0.009 0.195-0.044 0.286s-0.088 0.174-0.157 0.243c-0.069 0.069-0.152 0.122-0.243 0.157s-0.189 0.050-0.286 0.044l-22.040 0.040zM16 9.8c1.165 0 2.304 0.345 3.272 0.993s1.724 1.567 2.169 2.643c0.446 1.076 0.562 2.261 0.335 3.403s-0.788 2.192-1.612 3.016c-0.824 0.824-1.873 1.385-3.016 1.612s-2.327 0.111-3.403-0.335-1.996-1.201-2.643-2.169c-0.647-0.969-0.993-2.107-0.993-3.272 0.005-1.56 0.627-3.056 1.731-4.159s2.598-1.726 4.159-1.731zM27.52 1.020h-23c-0.417-0.005-0.831 0.072-1.218 0.228s-0.739 0.387-1.036 0.68c-0.297 0.293-0.532 0.642-0.693 1.027s-0.244 0.798-0.244 1.215v23c0 0.835 0.332 1.637 0.923 2.227s1.392 0.923 2.227 0.923h23c0.835 0 1.637-0.332 2.227-0.923s0.923-1.392 0.923-2.227v-23c0-0.829-0.326-1.624-0.908-2.213s-1.373-0.926-2.202-0.937z"></path>
</svg>
