<!-- Generated by IcoMoon.io -->
<svg version="1.1" xmlns="http://www.w3.org/2000/svg" width="32" height="32" viewBox="0 0 32 32">
<title>ios</title>
<path d="M2.215 22.775h1.7v-9.765h-1.7c0 0 0 0.329 0 0.986s0 1.471 0 2.441c0 0.97 0 1.941 0 2.911s0 1.784 0 2.441c0 0.657 0 0.986 0 0.986zM3.065 11.272c0.3 0 0.55-0.1 0.752-0.3 0.208-0.2 0.313-0.441 0.313-0.723 0-0.288-0.104-0.529-0.313-0.723-0.202-0.2-0.453-0.3-0.752-0.3-0.293 0-0.544 0.1-0.752 0.3-0.208 0.194-0.313 0.435-0.313 0.723 0 0.282 0.104 0.523 0.313 0.723s0.459 0.3 0.752 0.3z"></path>
<path d="M12.614 9c-1.999 0-3.582 0.629-4.748 1.887s-1.749 2.964-1.749 5.117c0 2.147 0.583 3.85 1.749 5.108s2.748 1.887 4.748 1.887c1.999 0 3.582-0.629 4.748-1.887s1.749-2.961 1.749-5.108c0-2.153-0.583-3.859-1.749-5.117s-2.748-1.887-4.748-1.887zM12.614 10.559c1.439 0 2.579 0.491 3.419 1.474 0.847 0.976 1.27 2.3 1.27 3.972 0 1.665-0.423 2.989-1.27 3.972-0.84 0.977-1.98 1.465-3.419 1.465s-2.582-0.488-3.429-1.465c-0.84-0.983-1.26-2.307-1.26-3.972 0-1.671 0.42-2.995 1.26-3.972 0.847-0.983 1.99-1.474 3.429-1.474z"></path>
<path d="M19.498 19.141c0.085 1.171 0.602 2.107 1.553 2.808 0.957 0.701 2.205 1.052 3.742 1.052 1.576 0 2.836-0.366 3.781-1.099 0.951-0.732 1.426-1.725 1.426-2.977 0-0.958-0.316-1.731-0.948-2.319s-1.684-1.036-3.155-1.343l-1.563-0.329c-0.964-0.2-1.651-0.485-2.061-0.854s-0.615-0.82-0.615-1.352c0-0.689 0.3-1.227 0.899-1.615 0.599-0.394 1.338-0.592 2.218-0.592 0.918 0 1.664 0.213 2.237 0.639s0.899 1.011 0.977 1.756h1.759c-0.039-1.152-0.518-2.091-1.436-2.817-0.918-0.732-2.081-1.099-3.488-1.099-1.459 0-2.654 0.354-3.585 1.061-0.925 0.707-1.387 1.621-1.387 2.742 0 0.964 0.319 1.756 0.957 2.376 0.645 0.62 1.674 1.077 3.087 1.371l1.563 0.329c0.977 0.207 1.677 0.501 2.101 0.883 0.423 0.375 0.635 0.848 0.635 1.418 0 0.663-0.313 1.214-0.938 1.653-0.619 0.432-1.407 0.648-2.364 0.648-1.009 0-1.843-0.207-2.501-0.62-0.651-0.419-1.029-0.992-1.133-1.718 0 0-0.088 0-0.264 0s-0.381 0-0.616 0c-0.235 0-0.44 0-0.616 0s-0.264 0-0.264 0z"></path>
</svg>
