<!-- Generated by IcoMoon.io -->
<svg version="1.1" xmlns="http://www.w3.org/2000/svg" width="32" height="32" viewBox="0 0 32 32">
<title>issue-ok</title>
<path d="M4 16c0-6.648 5.352-12 12-12s12 5.352 12 12c0 0.552 0.448 1 1 1s1-0.448 1-1c0-7.752-6.248-14-14-14s-14 6.248-14 14c0 7.752 6.248 14 14 14 0.552 0 1-0.448 1-1s-0.448-1-1-1c-6.648 0-12-5.352-12-12z"></path>
<path d="M17.5 23c0 0.828-0.672 1.5-1.5 1.5s-1.5-0.672-1.5-1.5c0-0.828 0.672-1.5 1.5-1.5s1.5 0.672 1.5 1.5z"></path>
<path d="M16 7c0.552 0 1 0.448 1 1v10c0 0.552-0.448 1-1 1s-1-0.448-1-1v-10c0-0.552 0.448-1 1-1z"></path>
<path d="M29.707 22.707c0.39-0.39 0.39-1.024 0-1.414s-1.024-0.39-1.414 0l-5.293 5.293-2.293-2.293c-0.39-0.39-1.024-0.39-1.414 0s-0.39 1.024 0 1.414l3.707 3.707 6.707-6.707z"></path>
</svg>
