<!-- Generated by IcoMoon.io -->
<svg version="1.1" xmlns="http://www.w3.org/2000/svg" width="32" height="32" viewBox="0 0 32 32">
<title>javascript</title>
<path d="M23.8 28.090h-0.33c-0.959 0-1.9-0.26-2.723-0.753s-1.496-1.201-1.947-2.047l2.2-1.36c0.247 0.498 0.627 0.919 1.098 1.213s1.016 0.453 1.572 0.456c1.15 0 1.87-0.57 1.87-1.35s-0.74-1.29-2-1.84l-0.68-0.3c-2-0.83-3.24-1.86-3.24-4.13-0.001-0.482 0.092-0.959 0.276-1.405s0.453-0.851 0.792-1.193c0.34-0.342 0.744-0.613 1.189-0.799s0.922-0.282 1.404-0.283h0.72c0.744 0 1.475 0.204 2.111 0.59s1.155 0.939 1.499 1.6l-2.2 1.41c-0.135-0.357-0.376-0.665-0.69-0.881s-0.688-0.331-1.070-0.329h-0.11c-0.324 0-0.634 0.129-0.863 0.357s-0.357 0.539-0.357 0.863c0 0.83 0.51 1.16 1.69 1.68l0.68 0.29c2.33 1 3.67 2 3.67 4.33s-2 3.84-4.56 3.84v0.040zM17.31 23.93c0 0.13 0 0.27 0 0.42 0.001 0.492-0.094 0.98-0.282 1.436s-0.462 0.87-0.81 1.219c-0.347 0.349-0.76 0.627-1.214 0.816s-0.942 0.288-1.434 0.289h-0.57c-0.82 0.001-1.623-0.235-2.313-0.678s-1.237-1.076-1.577-1.822l2.24-1.36c0.43 0.77 0.82 1.42 1.76 1.42s1.48-0.35 1.48-1.73v-9.45h2.75l-0.030 9.44zM26.31 1.020h-20.64c-0.571 0.001-1.137 0.115-1.664 0.335s-1.006 0.541-1.409 0.946c-0.403 0.405-0.722 0.885-0.94 1.413s-0.329 1.094-0.327 1.665v20.62c-0.001 0.571 0.11 1.137 0.327 1.666s0.537 1.009 0.94 1.413c0.403 0.405 0.882 0.726 1.409 0.946s1.093 0.334 1.664 0.335h20.66c0.571-0.001 1.137-0.115 1.664-0.335s1.006-0.541 1.409-0.946c0.403-0.405 0.722-0.885 0.94-1.413s0.329-1.094 0.327-1.666v-20.62c0.001-0.571-0.11-1.137-0.327-1.665s-0.537-1.009-0.94-1.413c-0.403-0.405-0.882-0.726-1.409-0.946s-1.093-0.334-1.664-0.335h-0.020z"></path>
</svg>
