<!-- Generated by IcoMoon.io -->
<svg version="1.1" xmlns="http://www.w3.org/2000/svg" width="32" height="32" viewBox="0 0 32 32">
<title>key-alt</title>
<path d="M10 18c-2.209 0-4 1.791-4 4s1.791 4 4 4c2.209 0 4-1.791 4-4s-1.791-4-4-4zM8 22c0-1.105 0.895-2 2-2s2 0.895 2 2c0 1.105-0.895 2-2 2s-2-0.895-2-2z"></path>
<path d="M30 2h-7.414l-8.265 8.265c-0.769-0.2-1.566-0.265-2.321-0.265-5.552 0-10 4.448-10 10s4.448 10 10 10c5.552 0 10-4.448 10-10 0-0.706-0.074-1.373-0.2-2h1.2v-4h4v-4h3v-8zM21 12v4h-1.887l0.439 1.316c0.271 0.814 0.449 1.707 0.449 2.684 0 4.448-3.552 8-8 8s-8-3.552-8-8c0-4.448 3.552-8 8-8 0.836 0 1.604 0.094 2.249 0.336l0.603 0.226 8.562-8.562h4.586v4h-3v4h-4z"></path>
</svg>
