<!-- Generated by IcoMoon.io -->
<svg version="1.1" xmlns="http://www.w3.org/2000/svg" width="32" height="32" viewBox="0 0 32 32">
<title>key</title>
<path d="M10.5 23c0 0.828-0.672 1.5-1.5 1.5s-1.5-0.672-1.5-1.5c0-0.828 0.672-1.5 1.5-1.5s1.5 0.672 1.5 1.5z"></path>
<path d="M29 3h-4.414l-9.775 9.775c-1.181-0.544-2.439-0.775-3.811-0.775-4.952 0-9 4.048-9 9s4.048 9 9 9c4.952 0 9-4.048 9-9 0-1.11-0.225-2.129-0.539-3.047l1.953-1.954h1.586v-2h2v-2h2v-2h0.414l1.586-1.586v-5.414zM27 7.586l-0.414 0.414h-1.586v2h-2v2h-2v2h-0.414l-3.459 3.459 0.245 0.612c0.371 0.927 0.628 1.897 0.628 2.929 0 3.848-3.152 7-7 7s-7-3.152-7-7c0-3.848 3.152-7 7-7 1.357 0 2.476 0.269 3.496 0.864l0.666 0.388 10.252-10.252h1.586v2.586z"></path>
</svg>
