<!-- Generated by IcoMoon.io -->
<svg version="1.1" xmlns="http://www.w3.org/2000/svg" width="32" height="32" viewBox="0 0 32 32">
<title>keyboard</title>
<path d="M12 22c-0.552 0-1 0.448-1 1s0.448 1 1 1h7c0.552 0 1-0.448 1-1s-0.448-1-1-1h-7z"></path>
<path d="M6 23c0-0.552 0.448-1 1-1h1c0.552 0 1 0.448 1 1s-0.448 1-1 1h-1c-0.552 0-1-0.448-1-1z"></path>
<path d="M7 14c-0.552 0-1 0.448-1 1s0.448 1 1 1h1c0.552 0 1-0.448 1-1s-0.448-1-1-1h-1z"></path>
<path d="M11 15c0-0.552 0.448-1 1-1h1c0.552 0 1 0.448 1 1s-0.448 1-1 1h-1c-0.552 0-1-0.448-1-1z"></path>
<path d="M14 18c-0.552 0-1 0.448-1 1s0.448 1 1 1h1c0.552 0 1-0.448 1-1s-0.448-1-1-1h-1z"></path>
<path d="M18 19c0-0.552 0.448-1 1-1h1c0.552 0 1 0.448 1 1s-0.448 1-1 1h-1c-0.552 0-1-0.448-1-1z"></path>
<path d="M24 18c-0.552 0-1 0.448-1 1s0.448 1 1 1h1c0.552 0 1-0.448 1-1s-0.448-1-1-1h-1z"></path>
<path d="M16 15c0-0.552 0.448-1 1-1h1c0.552 0 1 0.448 1 1s-0.448 1-1 1h-1c-0.552 0-1-0.448-1-1z"></path>
<path d="M22 14c-0.552 0-1 0.448-1 1s0.448 1 1 1h3c0.552 0 1-0.448 1-1s-0.448-1-1-1h-3z"></path>
<path d="M6 19c0-0.552 0.448-1 1-1h3c0.552 0 1 0.448 1 1s-0.448 1-1 1h-3c-0.552 0-1-0.448-1-1z"></path>
<path d="M23 22c-0.552 0-1 0.448-1 1s0.448 1 1 1h2c0.552 0 1-0.448 1-1s-0.448-1-1-1h-2z"></path>
<path d="M19 6h1c0.552 0 1-0.448 1-1s-0.448-1-1-1h-1c-2.252 0-4 1.748-4 4v2h-9c-2.252 0-4 1.748-4 4v10c0 2.252 1.748 4 4 4h20c2.252 0 4-1.748 4-4v-10c0-2.252-1.748-4-4-4h-9v-2c0-1.148 0.852-2 2-2zM6 12h20c1.148 0 2 0.852 2 2v10c0 1.148-0.852 2-2 2h-20c-1.148 0-2-0.852-2-2v-10c0-1.148 0.852-2 2-2z"></path>
</svg>
