<!-- Generated by IcoMoon.io -->
<svg version="1.1" xmlns="http://www.w3.org/2000/svg" width="32" height="32" viewBox="0 0 32 32">
<title>large-van</title>
<path d="M21 10c0-0.552-0.448-1-1-1s-1 0.448-1 1v6h5c0.552 0 1-0.448 1-1s-0.448-1-1-1h-3v-4z"></path>
<path d="M15.874 23c-0.444 1.725-2.010 3-3.874 3-1.195 0-2.267-0.524-3-1.354-0.733 0.83-1.805 1.354-3 1.354-1.864 0-3.43-1.275-3.874-3h-1.126v-13c0-2.209 1.791-4 4-4h16.259c1.436 0 2.761 0.769 3.473 2.015l2.947 5.157 0.586 0.195c1.633 0.544 2.735 2.073 2.735 3.795v1.838c0 2.209-1.791 4-4 4h-0.126c-0.444 1.725-2.010 3-3.874 3s-3.43-1.275-3.874-3h-3.252zM5 8c-1.105 0-2 0.895-2 2v9.354c0.733-0.83 1.805-1.354 3-1.354s2.267 0.524 3 1.354c0.733-0.83 1.805-1.354 3-1.354 1.864 0 3.43 1.275 3.874 3h3.252c0.444-1.725 2.010-3 3.874-3s3.43 1.275 3.874 3h0.126c1.105 0 2-0.895 2-2v-1.838c0-0.861-0.551-1.625-1.367-1.897l-1.311-0.437-3.326-5.82c-0.356-0.623-1.019-1.008-1.736-1.008h-16.259zM10 22c0 1.105 0.895 2 2 2s2-0.895 2-2c0-1.105-0.895-2-2-2s-2 0.895-2 2zM8 22c0-1.105-0.895-2-2-2s-2 0.895-2 2c0 1.105 0.895 2 2 2s2-0.895 2-2zM23 20c-1.105 0-2 0.895-2 2s0.895 2 2 2c1.105 0 2-0.895 2-2s-0.895-2-2-2z"></path>
</svg>
