<!-- Generated by IcoMoon.io -->
<svg version="1.1" xmlns="http://www.w3.org/2000/svg" width="32" height="32" viewBox="0 0 32 32">
<title>launch</title>
<path d="M28.31 3.28c0.93-0.28 0.93-0.28 0.93-0.279l-0.152-0.539-0.525-0.147c0 0 0.001 0-0.252 0.965zM19.155 22.642c0.303 1.043 0.299 2.154 0.186 3.12-0.145 1.241-0.485 2.372-0.748 3.076l-0.535 1.436-16.058-16.576 1.391-0.552c0.756-0.3 1.88-0.511 3.033-0.589 1.010-0.069 2.122-0.041 3.119 0.154 0.087-0.155 0.176-0.312 0.267-0.469 1.723-2.977 4.29-6.523 7.512-8.159 3.098-1.573 5.879-2.024 7.899-2.077 1.009-0.027 1.827 0.046 2.401 0.128 0.287 0.041 0.514 0.084 0.672 0.118 0.079 0.017 0.142 0.032 0.187 0.043 0.022 0.006 0.041 0.010 0.054 0.014l0.017 0.005 0.009 0.003-0.252 0.965 0.93-0.279 0 0.001 0.001 0.002 0.002 0.006 0.005 0.018c0.004 0.014 0.009 0.033 0.015 0.056 0.012 0.047 0.027 0.112 0.045 0.194 0.036 0.165 0.081 0.399 0.125 0.697 0.087 0.595 0.168 1.442 0.148 2.486-0.039 2.091-0.478 4.968-2.055 8.171-1.633 3.316-5.060 5.962-7.934 7.742-0.147 0.091-0.293 0.18-0.438 0.267zM17.397 23.641c-0.601 0.323-1.149 0.599-1.617 0.825-0.147 0.071-0.287 0.137-0.418 0.199l1.871 1.931c0.076-0.34 0.141-0.702 0.184-1.073 0.078-0.666 0.080-1.31-0.020-1.882zM13.894 23.148c0.263-0.116 0.627-0.282 1.065-0.494 0.951-0.46 2.25-1.135 3.637-1.994 2.818-1.745 5.833-4.149 7.203-6.933 1.426-2.897 1.811-5.47 1.845-7.304 0.017-0.918-0.054-1.652-0.127-2.148-0.007-0.049-0.015-0.096-0.022-0.141-0.043-0.007-0.089-0.014-0.136-0.020-0.483-0.069-1.196-0.133-2.088-0.11-1.783 0.047-4.282 0.446-7.093 1.873-2.687 1.364-5.012 4.467-6.704 7.391-0.832 1.438-1.486 2.787-1.931 3.777-0.207 0.459-0.368 0.84-0.481 1.115l4.832 4.988zM7.591 16.642c0.060-0.137 0.125-0.284 0.195-0.439 0.212-0.471 0.469-1.020 0.769-1.621-0.631-0.069-1.324-0.075-2.002-0.029-0.313 0.021-0.614 0.053-0.895 0.092l1.934 1.996zM25.401 8.28c0 0.828-0.651 1.5-1.453 1.5s-1.453-0.672-1.453-1.5c0-0.828 0.651-1.5 1.453-1.5s1.453 0.672 1.453 1.5zM6.491 21.429l1.974 2.038c0.042 0.031 0.083 0.067 0.121 0.106s0.072 0.081 0.103 0.125l1.956 2.019-4.275 1.471c-0.065 0.031-0.133 0.054-0.203 0.070l-1.754 0.603 2.077-6.432z"></path>
</svg>
