<!-- Generated by IcoMoon.io -->
<svg version="1.1" xmlns="http://www.w3.org/2000/svg" width="32" height="32" viewBox="0 0 32 32">
<title>leaseweb</title>
<path d="M15.61 10.32l-12.86 2.89c-0.174 0.036-0.353 0.033-0.526-0.010s-0.332-0.124-0.469-0.237c-0.136-0.113-0.246-0.256-0.319-0.418s-0.11-0.337-0.106-0.515v-0.41c0.001-0.224 0.063-0.444 0.182-0.635s0.287-0.345 0.488-0.445l12.85-6.48c0.181-0.088 0.382-0.128 0.583-0.115s0.395 0.077 0.564 0.186c0.169 0.11 0.307 0.261 0.4 0.439s0.139 0.378 0.133 0.579v4c0.003 0.271-0.087 0.534-0.255 0.747s-0.402 0.362-0.665 0.423zM16.53 17.76v-4.14c0.003-0.17-0.031-0.338-0.099-0.493s-0.168-0.295-0.294-0.408c-0.126-0.114-0.275-0.199-0.436-0.251s-0.332-0.068-0.501-0.048l-12.86 1.85c-0.282 0.050-0.537 0.197-0.72 0.417s-0.282 0.497-0.28 0.783v0.55c-0.004 0.287 0.095 0.565 0.278 0.785s0.44 0.367 0.722 0.415l12.86 1.73c0.168 0.023 0.339 0.010 0.502-0.040s0.312-0.134 0.439-0.247c0.127-0.113 0.227-0.253 0.294-0.409s0.1-0.325 0.095-0.494zM16.53 22.23c0.004-0.274-0.086-0.54-0.255-0.755s-0.408-0.365-0.675-0.425l-12.86-2.78c-0.173-0.032-0.351-0.026-0.521 0.018s-0.328 0.126-0.463 0.239c-0.135 0.113-0.243 0.254-0.317 0.414s-0.111 0.334-0.11 0.509v0.43c-0.001 0.225 0.062 0.445 0.18 0.636s0.288 0.345 0.49 0.444l12.85 6.36c0.181 0.085 0.382 0.122 0.581 0.108s0.393-0.078 0.561-0.187c0.168-0.109 0.306-0.259 0.4-0.436s0.142-0.375 0.138-0.575v-4zM19.12 10.23l10.2 1.55c0.169 0.025 0.342 0.012 0.506-0.037s0.316-0.133 0.444-0.246c0.128-0.113 0.231-0.253 0.3-0.41s0.103-0.327 0.1-0.498v-2.14c0.002-0.25-0.074-0.494-0.218-0.698s-0.347-0.359-0.582-0.442l-10.2-3.56c-0.18-0.059-0.371-0.075-0.558-0.045s-0.364 0.105-0.516 0.217c-0.152 0.113-0.275 0.26-0.358 0.431s-0.124 0.358-0.119 0.547v4.18c-0.002 0.285 0.098 0.561 0.281 0.779s0.438 0.364 0.719 0.411v-0.040zM29.61 17.97c0.293-0.035 0.564-0.176 0.759-0.397s0.303-0.507 0.301-0.803v-2.080c0-0.293-0.106-0.577-0.299-0.797s-0.46-0.364-0.751-0.403l-10.2-1.11c-0.166-0.014-0.333 0.007-0.49 0.061s-0.302 0.14-0.424 0.253c-0.122 0.113-0.22 0.25-0.286 0.402s-0.101 0.317-0.1 0.483v4.24c-0.002 0.166 0.031 0.33 0.096 0.483s0.162 0.29 0.283 0.403 0.265 0.199 0.422 0.253c0.157 0.054 0.323 0.075 0.488 0.061l10.2-1.050zM29.86 24.14c0.237-0.081 0.443-0.235 0.588-0.44s0.223-0.449 0.222-0.7v-2.15c-0.002-0.167-0.038-0.331-0.108-0.483s-0.171-0.287-0.296-0.396c-0.126-0.11-0.273-0.191-0.433-0.24s-0.328-0.063-0.493-0.041l-10.21 1.42c-0.281 0.047-0.535 0.193-0.719 0.411s-0.283 0.494-0.281 0.779v4.18c-0.004 0.188 0.037 0.374 0.119 0.543s0.204 0.316 0.355 0.428 0.326 0.187 0.512 0.218c0.186 0.031 0.376 0.017 0.555-0.040l10.19-3.49z"></path>
</svg>
