<!-- Generated by IcoMoon.io -->
<svg version="1.1" xmlns="http://www.w3.org/2000/svg" width="32" height="32" viewBox="0 0 32 32">
<title>leaves</title>
<path d="M14 10c0-4.452 3.548-8 8-8h8v8c0 4.452-3.548 8-8 8-1.589 0-3.063-0.452-4.302-1.236-0.456 1.074-0.698 2.234-0.698 3.436v9.8c0 0.552-0.448 1-1 1s-1-0.448-1-1v-3.8c0-1.153-0.407-2.193-1.207-2.993l-2.303-2.303c-0.979 0.692-2.18 1.096-3.49 1.096-3.352 0-6-2.648-6-6v-6h6c3.352 0 6 2.648 6 6 0 1.309-0.404 2.511-1.096 3.49l2.096 2.096v-1.386c0-1.689 0.39-3.303 1.107-4.764-1.311-1.422-2.107-3.328-2.107-5.437zM22 4c-3.348 0-6 2.652-6 6 0 1.377 0.448 2.635 1.209 3.641 0.329-0.438 0.691-0.855 1.084-1.248l3-3c0.39-0.391 1.024-0.391 1.414 0s0.39 1.024 0 1.414l-3 3c-0.379 0.379-0.722 0.784-1.027 1.21 0.947 0.623 2.086 0.983 3.32 0.983 3.348 0 6-2.652 6-6v-6h-6zM11.458 18.044c0.346-0.594 0.542-1.291 0.542-2.044 0-2.248-1.752-4-4-4h-4v4c0 2.248 1.752 4 4 4 0.752 0 1.449-0.196 2.044-0.542l-2.751-2.751c-0.391-0.39-0.391-1.024 0-1.414s1.024-0.39 1.414 0l2.751 2.751z"></path>
</svg>
