<!-- Generated by IcoMoon.io -->
<svg version="1.1" xmlns="http://www.w3.org/2000/svg" width="32" height="32" viewBox="0 0 32 32">
<title>lightbulb</title>
<path d="M16 2c-5.552 0-10 4.448-10 10 0 3.668 1.978 6.939 5 8.696v4.304c0 2.752 2.248 5 5 5s5-2.248 5-5v-4.304c3.022-1.757 5-5.028 5-8.696 0-5.552-4.448-10-10-10zM8 12c0-4.448 3.552-8 8-8s8 3.552 8 8c0 3.113-1.779 5.871-4.447 7.206l-0.553 0.276v2.518h-6v-2.518l-0.553-0.276c-2.668-1.334-4.447-4.092-4.447-7.206zM13 24h6v1c0 1.648-1.352 3-3 3s-3-1.352-3-3v-1z"></path>
</svg>
