<!-- Generated by IcoMoon.io -->
<svg version="1.1" xmlns="http://www.w3.org/2000/svg" width="32" height="32" viewBox="0 0 32 32">
<title>lighthouse</title>
<path d="M27.268 3.504c0.274 0.48 0.107 1.090-0.372 1.364l-3.5 2c-0.48 0.274-1.090 0.107-1.364-0.372s-0.107-1.090 0.372-1.364l3.5-2c0.48-0.274 1.090-0.107 1.364 0.372z"></path>
<path d="M6.096 3.132c-0.479-0.274-1.090-0.107-1.364 0.372s-0.107 1.090 0.372 1.364l3.5 2c0.479 0.274 1.090 0.107 1.364-0.372s0.107-1.090-0.372-1.364l-3.5-2z"></path>
<path d="M21 7.382v6.552l0.405 3.041c0.043 0.091 0.072 0.189 0.086 0.294 0.014 0.104 0.011 0.206-0.006 0.303l0.471 3.535c0.017 0.056 0.029 0.115 0.037 0.175 0.006 0.050 0.008 0.099 0.006 0.148l0.876 6.569h1.125c0.552 0 1 0.448 1 1s-0.448 1-1 1h-1.98c-0.014 0-0.029 0-0.043 0h-11.954c-0.014 0-0.029 0-0.043 0h-1.98c-0.552 0-1-0.448-1-1s0.448-1 1-1h1.124l0.694-5.207c-0.005-0.025-0.009-0.050-0.012-0.076-0.024-0.2 0.014-0.393 0.097-0.56l1.096-8.223v-6.552l5-2.5 5 2.5zM19.861 20.527l-0.267-1.999-7.319 0.965-0.261 1.957 7.846-0.923zM11.743 23.496l-0.601 4.504h9.716l-0.732-5.49-8.383 0.986zM19.125 15h-6.249l-0.325 2.44 6.78-0.894-0.206-1.546zM13 13h6v-4.382l-3-1.5-3 1.5v4.382z"></path>
<path d="M23 10c0-0.552 0.448-1 1-1h4c0.552 0 1 0.448 1 1s-0.448 1-1 1h-4c-0.552 0-1-0.448-1-1z"></path>
<path d="M4 9c-0.552 0-1 0.448-1 1s0.448 1 1 1h4c0.552 0 1-0.448 1-1s-0.448-1-1-1h-4z"></path>
<path d="M22.032 13.504c0.274-0.479 0.885-0.646 1.364-0.372l3.5 2c0.48 0.274 0.646 0.885 0.372 1.364s-0.885 0.646-1.364 0.372l-3.5-2c-0.48-0.274-0.646-0.885-0.372-1.364z"></path>
<path d="M9.596 14.868c0.48-0.274 0.646-0.885 0.372-1.364s-0.885-0.646-1.364-0.372l-3.5 2c-0.48 0.274-0.646 0.885-0.372 1.364s0.885 0.646 1.364 0.372l3.5-2z"></path>
</svg>
