<!-- Generated by IcoMoon.io -->
<svg version="1.1" xmlns="http://www.w3.org/2000/svg" width="32" height="32" viewBox="0 0 32 32">
<title>lightbulb-on</title>
<path d="M17 3c0-0.552-0.448-1-1-1s-1 0.448-1 1v3c0 0.552 0.448 1 1 1s1-0.448 1-1v-3z"></path>
<path d="M8 16c0 2.962 1.574 5.546 4 6.912v3.088c0 2.252 1.748 4 4 4s4-1.748 4-4v-3.088c2.425-1.366 4-3.95 4-6.912 0-4.452-3.548-8-8-8s-8 3.548-8 8zM18 21.658v1.342h-4v-1.342l-0.583-0.267c-2.047-0.938-3.417-2.984-3.417-5.391 0-3.348 2.652-6 6-6s6 2.652 6 6c0 2.407-1.37 4.453-3.417 5.391l-0.583 0.267zM18 26c0 1.148-0.852 2-2 2s-2-0.852-2-2v-1h4v1z"></path>
<path d="M26 15c-0.552 0-1 0.448-1 1s0.448 1 1 1h3c0.552 0 1-0.448 1-1s-0.448-1-1-1h-3z"></path>
<path d="M2 16c0-0.552 0.448-1 1-1h3c0.552 0 1 0.448 1 1s-0.448 1-1 1h-3c-0.552 0-1-0.448-1-1z"></path>
<path d="M22.393 22.393c0.39-0.39 1.024-0.39 1.414 0l2.1 2.1c0.39 0.39 0.39 1.024 0 1.414s-1.024 0.39-1.414 0l-2.1-2.1c-0.39-0.39-0.39-1.024 0-1.414z"></path>
<path d="M7.507 6.093c-0.391-0.391-1.024-0.391-1.414 0s-0.391 1.024 0 1.414l2.1 2.1c0.391 0.391 1.024 0.391 1.414 0s0.391-1.024 0-1.414l-2.1-2.1z"></path>
<path d="M9.607 22.393c0.391 0.39 0.391 1.024 0 1.414l-2.1 2.1c-0.391 0.39-1.024 0.39-1.414 0s-0.391-1.024 0-1.414l2.1-2.1c0.391-0.39 1.024-0.39 1.414 0z"></path>
<path d="M25.907 7.507c0.39-0.391 0.39-1.024 0-1.414s-1.024-0.391-1.414 0l-2.1 2.1c-0.39 0.391-0.39 1.024 0 1.414s1.024 0.391 1.414 0l2.1-2.1z"></path>
</svg>
