<!-- Generated by IcoMoon.io -->
<svg version="1.1" xmlns="http://www.w3.org/2000/svg" width="32" height="32" viewBox="0 0 32 32">
<title>link-alt</title>
<path d="M25.2 6.44c-2.022-1.93-5.194-1.906-7.093-0.008l-2.131 2.13c-0.75 0.687-0.796 1.928 0.031 2.756 0.39 0.39 0.39 1.024 0 1.414s-1.024 0.39-1.414 0c-1.567-1.567-1.619-4.114 0.014-5.628l2.086-2.086c2.699-2.699 7.121-2.677 9.899-0.015l0.008 0.007 0.008 0.008c2.699 2.699 2.677 7.121 0.015 9.899l-0.007 0.008-2.107 2.108c-1.573 1.573-4.131 1.619-5.644-0.031-0.373-0.407-0.346-1.040 0.061-1.413s1.040-0.346 1.413 0.062c0.687 0.75 1.928 0.796 2.756-0.031l2.092-2.092c1.928-2.019 1.907-5.186 0.015-7.086z"></path>
<path d="M11.663 15.401c-0.687-0.75-1.928-0.796-2.756 0.031l-2.092 2.092c-1.928 2.019-1.907 5.186-0.015 7.086 2.022 1.93 5.194 1.907 7.093 0.008l2.131-2.13c0.75-0.687 0.796-1.928-0.031-2.756-0.39-0.391-0.39-1.024 0-1.414s1.024-0.391 1.414 0c1.567 1.567 1.619 4.114-0.014 5.628l-2.086 2.086c-2.699 2.699-7.121 2.677-9.899 0.015l-0.008-0.007-0.008-0.008c-2.699-2.699-2.677-7.121-0.015-9.899l0.007-0.008 2.108-2.107c1.573-1.573 4.131-1.619 5.644 0.031 0.373 0.407 0.346 1.040-0.062 1.413s-1.040 0.346-1.413-0.061z"></path>
<path d="M20.707 12.232c0.39-0.39 0.39-1.024 0-1.414s-1.024-0.39-1.414 0l-8 8c-0.39 0.39-0.39 1.024 0 1.414s1.024 0.39 1.414 0l8-8z"></path>
</svg>
