<!-- Generated by IcoMoon.io -->
<svg version="1.1" xmlns="http://www.w3.org/2000/svg" width="32" height="32" viewBox="0 0 32 32">
<title>logout</title>
<path d="M6 4c-1.148 0-2 0.852-2 2v20c0 1.148 0.852 2 2 2h20c1.148 0 2-0.852 2-2v-4c0-0.552 0.448-1 1-1s1 0.448 1 1v4c0 2.252-1.748 4-4 4h-20c-2.252 0-4-1.748-4-4v-20c0-2.252 1.748-4 4-4h20c2.252 0 4 1.748 4 4v4c0 0.552-0.448 1-1 1s-1-0.448-1-1v-4c0-1.148-0.852-2-2-2h-20z"></path>
<path d="M19.293 8.293c0.39-0.391 1.024-0.391 1.414 0l7.707 7.707-7.707 7.707c-0.39 0.39-1.024 0.39-1.414 0s-0.39-1.024 0-1.414l5.293-5.293h-11.586c-0.552 0-1-0.448-1-1s0.448-1 1-1h11.586l-5.293-5.293c-0.39-0.391-0.39-1.024 0-1.414z"></path>
</svg>
