<!-- Generated by IcoMoon.io -->
<svg version="1.1" xmlns="http://www.w3.org/2000/svg" width="32" height="32" viewBox="0 0 32 32">
<title>loop</title>
<path d="M2 15.5c0-3.528 2.824-6.5 6.4-6.5 1.786 0 3.335 0.72 4.507 1.893 0.39 0.39 0.39 1.024 0 1.414s-1.024 0.39-1.414 0c-0.828-0.828-1.879-1.307-3.093-1.307-2.424 0-4.4 2.028-4.4 4.5s1.976 4.5 4.4 4.5c1.211 0 2.26-0.477 3.086-1.3l7.507-7.807c1.172-1.172 2.721-1.893 4.507-1.893 3.576 0 6.4 2.972 6.4 6.5 0 3.503-2.7 6.5-6.3 6.5-1.786 0-3.335-0.721-4.507-1.893-0.39-0.39-0.39-1.024 0-1.414s1.024-0.39 1.414 0c0.828 0.828 1.879 1.307 3.093 1.307 2.4 0 4.3-2.003 4.3-4.5 0-2.472-1.976-4.5-4.4-4.5-1.211 0-2.26 0.477-3.086 1.3l-7.507 7.807c-1.172 1.172-2.721 1.893-4.507 1.893-3.576 0-6.4-2.972-6.4-6.5z"></path>
</svg>
