<!-- Generated by IcoMoon.io -->
<svg version="1.1" xmlns="http://www.w3.org/2000/svg" width="32" height="32" viewBox="0 0 32 32">
<title>mail-read-alt</title>
<path d="M23.653 7.137h3.347v1.8l2.449 1.306c0.053 0.027 0.104 0.058 0.151 0.093 0.098 0.073 0.18 0.162 0.243 0.261 0.107 0.166 0.162 0.362 0.158 0.56v1.959c0 0.013 0 0.026 0 0.040v11.981c0 2.252-1.748 4-4 4h-20c-2.252 0-4-1.748-4-4v-11.981c-0-0.013-0-0.027 0-0.040v-1.958c-0.001-0.043 0.001-0.087 0.006-0.13 0.017-0.157 0.070-0.302 0.151-0.429 0.064-0.1 0.146-0.19 0.244-0.263 0.047-0.035 0.097-0.066 0.15-0.093l2.449-1.306v-1.8h3.347l7.653-4.137 7.653 4.137zM23.378 9.137h-14.757c-0.014 0-0.028 0-0.042 0h-1.58v0.379c0 0.013 0 0.026 0 0.040v4.584l9 4.86 9-4.86v-4.584c-0-0.013-0-0.027 0-0.040v-0.379h-1.58c-0.014 0-0.028 0-0.042 0zM19.447 7.137l-3.447-1.863-3.447 1.863h6.894zM5 11.204l-1 0.533v0.8l1 0.533v-1.867zM5.511 15.609l-1.511-0.806v10.333c0 1.148 0.852 2 2 2h20c1.148 0 2-0.852 2-2v-10.333l-1.51 0.806c-0.012 0.006-0.023 0.013-0.035 0.019l-10.455 5.646-10.455-5.646c-0.012-0.006-0.023-0.012-0.034-0.018zM27 13.070l1-0.533v-0.8l-1-0.533v1.867z"></path>
</svg>
