<!-- Generated by IcoMoon.io -->
<svg version="1.1" xmlns="http://www.w3.org/2000/svg" width="32" height="32" viewBox="0 0 32 32">
<title>mail-send</title>
<path d="M9.12 11c0.43-1.749 1.975-3 3.88-3h13c2.244 0 3.988 1.736 4 3.977 0 0.014 0 0.028 0 0.042v7.982c0 2.252-1.748 4-4 4h-13c-1.905 0-3.45-1.251-3.88-3h-2.12c-0.552 0-1-0.448-1-1s0.448-1 1-1h2v-2h-4c-0.552 0-1-0.448-1-1s0.448-1 1-1h4v-2h-6c-0.552 0-1-0.448-1-1s0.448-1 1-1h6.12zM11.070 11.446l8.43 4.614 8.43-4.614c-0.226-0.857-0.976-1.446-1.93-1.446h-13c-0.954 0-1.703 0.588-1.93 1.446zM11 20c0 1.148 0.852 2 2 2h13c1.148 0 2-0.852 2-2v-6.313l-8.5 4.653-8.5-4.653v6.313z"></path>
</svg>
