<!-- Generated by IcoMoon.io -->
<svg version="1.1" xmlns="http://www.w3.org/2000/svg" width="32" height="32" viewBox="0 0 32 32">
<title>mailgun</title>
<path d="M1.4 14.43c0.13-0.67 0.25-1.34 0.41-2 0.781-3.5 2.826-6.59 5.743-8.676s6.501-3.024 10.066-2.633c3.565 0.391 6.86 2.084 9.256 4.753s3.721 6.129 3.725 9.715c0 0.28 0 0.55 0 0.82-0.023 1.159-0.355 2.291-0.96 3.28-0.474 0.762-1.183 1.349-2.020 1.672s-1.757 0.364-2.62 0.118c-0.649-0.277-1.263-0.629-1.83-1.050l-0.35 0.45c-1.201 1.59-2.916 2.715-4.853 3.184s-3.976 0.254-5.772-0.61c-1.796-0.864-3.238-2.322-4.080-4.128s-1.034-3.848-0.543-5.779 1.637-3.633 3.24-4.816c1.604-1.183 3.567-1.774 5.558-1.674s3.884 0.887 5.361 2.225c1.477 1.338 2.444 3.146 2.739 5.117 0 0.32 0 0.69 0 1.060s0 0.75 0 1.12c0 0 0 0.070 0 0.11-0.001 0.339 0.12 0.666 0.341 0.923s0.527 0.425 0.862 0.475c0.335 0.050 0.677-0.023 0.962-0.204s0.497-0.459 0.595-0.784c0.178-0.651 0.266-1.325 0.26-2-0-0.857-0.142-1.709-0.42-2.52v0.060c-0.564-2.066-1.691-3.935-3.255-5.398s-3.504-2.463-5.603-2.888c-2.099-0.425-4.275-0.258-6.285 0.481s-3.775 2.023-5.098 3.707c-1.323 1.684-2.152 3.703-2.395 5.831s0.11 4.282 1.020 6.221c0.91 1.939 2.34 3.587 4.132 4.761s3.874 1.826 6.015 1.885h0.43c2.967 0.045 5.831-1.083 7.97-3.14 0.19-0.17 0.36-0.34 0.58-0.55l2.29 1.92c-0.16 0.18-0.3 0.36-0.45 0.51-4.28 4.060-9.25 5.38-14.9 3.57s-8.89-5.81-9.92-11.59c-0.050-0.32-0.11-0.62-0.17-0.92l-0.030-2.61zM16 21.31c1.103 0.004 2.182-0.319 3.101-0.928s1.638-1.477 2.064-2.494c0.427-1.017 0.542-2.137 0.332-3.22s-0.736-2.079-1.511-2.863c-0.776-0.784-1.766-1.321-2.846-1.542s-2.202-0.118-3.223 0.298c-1.021 0.416-1.897 1.125-2.516 2.037s-0.953 1.989-0.961 3.091c-0.012 0.736 0.123 1.468 0.398 2.151s0.682 1.305 1.2 1.828c0.518 0.523 1.135 0.938 1.816 1.22s1.41 0.425 2.146 0.421zM18.52 15.76c-0.002-0.496-0.151-0.979-0.427-1.391s-0.669-0.731-1.127-0.92c-0.458-0.189-0.962-0.238-1.448-0.14s-0.932 0.336-1.283 0.686c-0.351 0.35-0.589 0.797-0.687 1.283s-0.048 0.99 0.14 1.448c0.189 0.458 0.509 0.85 0.92 1.127s0.895 0.425 1.391 0.427c0.658 0 1.289-0.261 1.754-0.726s0.726-1.096 0.726-1.754l0.040-0.040z"></path>
</svg>
