<!-- Generated by IcoMoon.io -->
<svg version="1.1" xmlns="http://www.w3.org/2000/svg" width="32" height="32" viewBox="0 0 32 32">
<title>mail</title>
<path d="M2 10.979c-0 0.013-0 0.027 0 0.040v11.981c0 2.252 1.748 4 4 4h20c2.252 0 4-1.748 4-4v-11.982c0-0.013 0-0.026 0-0.039v-1.98c0-2.252-1.748-4-4-4h-20c-2.252 0-4 1.748-4 4v1.979zM4 9c0-1.148 0.852-2 2-2h20c1.148 0 2 0.852 2 2v1.403l-12 6.461-12-6.462v-1.403zM28 12.674v10.326c0 1.148-0.852 2-2 2h-20c-1.148 0-2-0.852-2-2v-10.326l12 6.461 12-6.462z"></path>
</svg>
