<!-- Generated by IcoMoon.io -->
<svg version="1.1" xmlns="http://www.w3.org/2000/svg" width="32" height="32" viewBox="0 0 32 32">
<title>map</title>
<path d="M19.649 28.936l-7.668-2.876-8.664 2.888c-0.305 0.102-0.64 0.050-0.901-0.137s-0.415-0.49-0.415-0.811v-21c0-0.43 0.275-0.813 0.684-0.949l8.995-2.998c0.104-0.035 0.212-0.053 0.322-0.053 0.097 0 0.195 0.014 0.29 0.043 0.022 0.007 0.044 0.014 0.065 0.022l7.664 2.874 8.664-2.888c0.305-0.102 0.64-0.050 0.901 0.137s0.415 0.49 0.415 0.811v21c0 0.43-0.275 0.813-0.684 0.949l-8.995 2.998zM13 5.443v18.864l6 2.25v-18.864l-6-2.25zM21 7.721v18.892l7-2.333v-18.892l-7 2.333zM11 24.279v-18.892l-7 2.333v18.892l7-2.333z"></path>
<path d="M20.321 28.947v0z"></path>
<path d="M19.649 28.936c0.212 0.079 0.448 0.086 0.667 0.012l-0.667-0.012z"></path>
</svg>
