<!-- Generated by IcoMoon.io -->
<svg version="1.1" xmlns="http://www.w3.org/2000/svg" width="32" height="32" viewBox="0 0 32 32">
<title>markup</title>
<path d="M21.923 4.385c0.212-0.51-0.029-1.095-0.538-1.308s-1.095 0.029-1.308 0.538l-10 24c-0.212 0.51 0.029 1.095 0.538 1.308s1.095-0.029 1.308-0.538l10-24z"></path>
<path d="M8.64 9.232c0.424 0.354 0.482 0.984 0.128 1.408l-4.466 5.36 4.466 5.36c0.354 0.424 0.296 1.055-0.128 1.408s-1.055 0.296-1.408-0.128l-5-6c-0.309-0.371-0.309-0.91 0-1.28l5-6c0.354-0.424 0.984-0.482 1.408-0.128z"></path>
<path d="M23.36 9.232c0.424-0.354 1.055-0.296 1.408 0.128l5 6c0.309 0.371 0.309 0.909 0 1.28l-5 6c-0.354 0.424-0.984 0.482-1.408 0.128s-0.482-0.984-0.128-1.408l4.466-5.36-4.466-5.36c-0.354-0.424-0.296-1.055 0.128-1.408z"></path>
</svg>
