<!-- Generated by IcoMoon.io -->
<svg version="1.1" xmlns="http://www.w3.org/2000/svg" width="32" height="32" viewBox="0 0 32 32">
<title>memory-card</title>
<path d="M9 6v5.586l-4 4v10.414c0 2.252 1.748 4 4 4h14c2.252 0 4-1.748 4-4v-20c0-2.252-1.748-4-4-4h-10c-2.252 0-4 1.748-4 4zM21 4v3c0 0.552 0.448 1 1 1s1-0.448 1-1v-3c1.148 0 2 0.852 2 2v20c0 1.148-0.852 2-2 2v-8h-14v8c-1.148 0-2-0.852-2-2v-9.586l4-4v-6.414c0-1.148 0.852-2 2-2v3c0 0.552 0.448 1 1 1s1-0.448 1-1v-3h2v3c0 0.552 0.448 1 1 1s1-0.448 1-1v-3h2zM21 28h-10v-6h10v6z"></path>
</svg>
