<!-- Generated by IcoMoon.io -->
<svg version="1.1" xmlns="http://www.w3.org/2000/svg" width="32" height="32" viewBox="0 0 32 32">
<title>memory</title>
<path d="M8 9c-0.527 0-1.044 0.18-1.432 0.568s-0.568 0.905-0.568 1.432v3c0 0.527 0.18 1.044 0.568 1.432s0.905 0.568 1.432 0.568h1c0.527 0 1.044-0.18 1.432-0.568s0.568-0.905 0.568-1.432v-3c0-0.527-0.18-1.044-0.568-1.432s-0.905-0.568-1.432-0.568h-1zM8 14v-3h1v3h-1z"></path>
<path d="M13.568 9.568c0.388-0.388 0.905-0.568 1.432-0.568h2c0.527 0 1.044 0.18 1.432 0.568s0.568 0.905 0.568 1.432v3c0 0.527-0.18 1.044-0.568 1.432s-0.905 0.568-1.432 0.568h-2c-0.527 0-1.044-0.18-1.432-0.568s-0.568-0.905-0.568-1.432v-3c0-0.527 0.18-1.044 0.568-1.432zM15 11v3h2v-3h-2z"></path>
<path d="M23 9c-0.527 0-1.044 0.18-1.432 0.568s-0.568 0.905-0.568 1.432v3c0 0.527 0.18 1.044 0.568 1.432s0.905 0.568 1.432 0.568h1c0.527 0 1.044-0.18 1.432-0.568s0.568-0.905 0.568-1.432v-3c0-0.527-0.18-1.044-0.568-1.432s-0.905-0.568-1.432-0.568h-1zM23 14v-3h1v3h-1z"></path>
<path d="M2 9c0-2.252 1.748-4 4-4h20c2.252 0 4 1.748 4 4v10h-1c-0.548 0-1 0.452-1 1s0.452 1 1 1h1v6h-28v-6h1c0.548 0 1-0.452 1-1s-0.452-1-1-1h-1v-10zM26 24v1h2v-2.172c-1.163-0.413-2-1.526-2-2.828s0.837-2.415 2-2.828v-8.172c0-1.148-0.852-2-2-2h-20c-1.148 0-2 0.852-2 2v8.172c1.163 0.413 2 1.526 2 2.828s-0.837 2.415-2 2.828v2.172h2v-1c0-0.552 0.448-1 1-1s1 0.448 1 1v1h2v-1c0-0.552 0.448-1 1-1s1 0.448 1 1v1h2v-1c0-0.552 0.448-1 1-1s1 0.448 1 1v1h4v-1c0-0.552 0.448-1 1-1s1 0.448 1 1v1h2v-1c0-0.552 0.448-1 1-1s1 0.448 1 1z"></path>
</svg>
