<!-- Generated by IcoMoon.io -->
<svg version="1.1" xmlns="http://www.w3.org/2000/svg" width="32" height="32" viewBox="0 0 32 32">
<title>mesh</title>
<path d="M18.931 7.172l-1.383 3.029c-0.494-0.132-1.013-0.202-1.548-0.202-1.174 0-2.269 0.337-3.193 0.919l-2.191-2.449c0.245-0.435 0.384-0.936 0.384-1.471 0-1.657-1.343-3-3-3s-3 1.343-3 3c0 1.657 1.343 3 3 3 0.392 0 0.767-0.075 1.11-0.212l2.204 2.464c-0.823 1.027-1.315 2.33-1.315 3.748 0 1.050 0.27 2.038 0.744 2.896l-2.379 1.878c-0.663-0.487-1.481-0.774-2.366-0.774-2.209 0-4 1.791-4 4s1.791 4 4 4c2.209 0 4-1.791 4-4 0-0.599-0.132-1.167-0.368-1.678l2.356-1.86c1.063 0.956 2.469 1.538 4.011 1.538 1.296 0 2.496-0.411 3.477-1.109l3.077 3.077c-0.352 0.596-0.554 1.29-0.554 2.032 0 2.209 1.791 4 4 4s4-1.791 4-4c0-2.209-1.791-4-4-4-0.742 0-1.436 0.202-2.032 0.554l-3.077-3.077c0.698-0.981 1.109-2.181 1.109-3.476 0-0.535-0.070-1.054-0.201-1.548l3.029-1.383c0.546 0.573 1.318 0.931 2.172 0.931 1.657 0 3-1.343 3-3s-1.343-3-3-3-3 1.343-3 3c0 0.082 0.003 0.164 0.010 0.244l-3.043 1.389c-0.427-0.629-0.971-1.173-1.6-1.6l1.389-3.043c0.081 0.006 0.162 0.010 0.244 0.010 1.657 0 3-1.343 3-3s-1.343-3-3-3c-1.657 0-3 1.343-3 3 0 0.855 0.357 1.626 0.931 2.172zM20 5c0-0.552 0.448-1 1-1s1 0.448 1 1c0 0.552-0.448 1-1 1-0.083 0-0.164-0.010-0.241-0.029-0.045-0.030-0.093-0.057-0.144-0.080-0.057-0.026-0.115-0.046-0.174-0.061-0.266-0.18-0.441-0.484-0.441-0.829zM26.171 11.559c-0.015-0.059-0.035-0.117-0.061-0.174-0.023-0.051-0.050-0.099-0.081-0.144-0.019-0.077-0.029-0.158-0.029-0.241 0-0.552 0.448-1 1-1s1 0.448 1 1c0 0.552-0.448 1-1 1-0.345 0-0.65-0.175-0.829-0.441zM16 20c-1.207 0-2.289-0.535-3.023-1.38-0.026-0.048-0.057-0.095-0.092-0.139-0.037-0.047-0.077-0.089-0.12-0.128-0.481-0.66-0.765-1.474-0.765-2.353 0-1.094 0.439-2.085 1.15-2.807 0.077-0.039 0.15-0.088 0.217-0.148s0.123-0.126 0.17-0.197c0.679-0.532 1.534-0.848 2.463-0.848 2.209 0 4 1.791 4 4 0 1.003-0.369 1.92-0.979 2.622-0.082 0.045-0.159 0.102-0.228 0.171s-0.126 0.146-0.171 0.228c-0.702 0.61-1.619 0.979-2.622 0.979zM7.515 22.72c0.036 0.046 0.076 0.088 0.119 0.126 0.231 0.326 0.366 0.724 0.366 1.154 0 1.105-0.895 2-2 2s-2-0.895-2-2c0-1.105 0.895-2 2-2 0.567 0 1.078 0.236 1.442 0.614 0.022 0.036 0.046 0.072 0.073 0.105zM24.451 24.735c0.055-0.037 0.108-0.079 0.156-0.128s0.091-0.101 0.128-0.156c0.345-0.282 0.785-0.451 1.265-0.451 1.105 0 2 0.895 2 2s-0.895 2-2 2c-1.105 0-2-0.895-2-2 0-0.48 0.169-0.921 0.451-1.265zM8.633 7.755c-0.027 0.024-0.053 0.050-0.076 0.076-0.159 0.107-0.351 0.169-0.557 0.169-0.552 0-1-0.448-1-1s0.448-1 1-1c0.552 0 1 0.448 1 1 0 0.257-0.097 0.492-0.257 0.669-0.038 0.026-0.075 0.054-0.11 0.085z"></path>
</svg>
