<!-- Generated by IcoMoon.io -->
<svg version="1.1" xmlns="http://www.w3.org/2000/svg" width="32" height="32" viewBox="0 0 32 32">
<title>mesh-globe</title>
<path d="M26.388 25.426c-0.042 0.040-0.087 0.076-0.136 0.108-2.556 2.747-6.203 4.466-10.252 4.466-3.502 0-6.704-1.286-9.159-3.411-0.153-0.079-0.282-0.196-0.375-0.337-2.748-2.556-4.466-6.204-4.466-10.252 0-3.695 1.431-7.055 3.77-9.557 0.064-0.096 0.145-0.18 0.239-0.25 2.54-2.588 6.078-4.193 9.991-4.193 3.695 0 7.055 1.431 9.558 3.77 0.096 0.064 0.18 0.145 0.249 0.238 2.588 2.54 4.194 6.079 4.194 9.992 0 0.319-0.011 0.636-0.032 0.949 0.034 0.132 0.042 0.272 0.018 0.415-0.015 0.091-0.042 0.177-0.079 0.257-0.331 2.865-1.526 5.466-3.318 7.537-0.052 0.101-0.12 0.191-0.201 0.267zM9.722 5.771c-0.733 0.451-1.414 0.978-2.031 1.571 0.537 2.46 1.499 4.753 2.806 6.801 0.13-0.028 0.265-0.043 0.403-0.043 0.027 0 0.055 0.001 0.082 0.002 1.512-1.949 3.332-3.647 5.39-5.023-1.97-1.476-4.215-2.608-6.65-3.307zM12.362 4.561c1.831 0.726 3.541 1.683 5.097 2.833 0.081-0.040 0.164-0.074 0.251-0.102 0.165-0.121 0.369-0.193 0.59-0.193 0.381 0 0.735 0.111 1.032 0.303 1.105-0.521 2.259-0.958 3.454-1.301-1.93-1.326-4.267-2.102-6.786-2.102-1.268 0-2.49 0.197-3.638 0.561zM20.082 9.663c1.56 1.572 2.891 3.37 3.943 5.341 0.633 0.041 1.179 0.389 1.493 0.897 0.807 0.008 1.652 0.058 2.482 0.151l0-0.052c0-3.225-1.272-6.153-3.342-8.309-1.564 0.341-3.060 0.855-4.469 1.519-0.017 0.158-0.054 0.31-0.107 0.453zM25.389 18.083c0.448 1.253 0.79 2.556 1.017 3.898 0.69-1.197 1.179-2.525 1.421-3.936-0.769-0.088-1.557-0.136-2.31-0.144-0.039 0.063-0.082 0.124-0.128 0.182zM23.544 18.867c-0.491-0.092-0.915-0.373-1.193-0.764-2.068 0.288-4.033 0.874-5.855 1.718-0.009 0.142-0.033 0.28-0.072 0.412 2.413 1.634 5.186 2.779 8.178 3.299-0.178-1.617-0.537-3.18-1.058-4.665zM22.224 16.102c0.020-0.037 0.040-0.073 0.062-0.108-0.988-1.862-2.248-3.556-3.729-5.027-0.082 0.022-0.168 0.034-0.257 0.034-0.319 0-0.618-0.078-0.882-0.215-1.818 1.225-3.43 2.727-4.78 4.445 0.104 0.235 0.162 0.496 0.162 0.77 0 0.32-0.078 0.621-0.217 0.885 0.355 0.395 0.726 0.777 1.11 1.144 0.269-0.146 0.579-0.229 0.908-0.229 0.348 0 0.673 0.093 0.953 0.255 2.070-0.972 4.311-1.64 6.671-1.953zM14.6 21.6c-0.32 0-0.622-0.078-0.886-0.217-1.789 1.195-3.384 2.663-4.732 4.353 1.973 1.425 4.397 2.265 7.018 2.265 2.843 0 5.454-0.988 7.51-2.64-3.174-0.659-6.105-1.965-8.65-3.777-0.085 0.012-0.172 0.017-0.261 0.017zM12.585 19.732c-0.615-0.569-1.198-1.17-1.748-1.802-0.86 1.534-1.534 3.188-1.991 4.932 1.131-1.173 2.384-2.223 3.738-3.13zM9 16c0-0.144 0.016-0.285 0.046-0.42-1.285-1.933-2.286-4.074-2.945-6.366-1.326 1.93-2.102 4.267-2.102 6.786 0 2.843 0.988 5.454 2.64 7.51 0.497-2.394 1.363-4.651 2.536-6.707-0.113-0.244-0.176-0.515-0.176-0.803z"></path>
</svg>
