<!-- Generated by IcoMoon.io -->
<svg version="1.1" xmlns="http://www.w3.org/2000/svg" width="32" height="32" viewBox="0 0 32 32">
<title>mobile-theme</title>
<path d="M19.060 19.87h5.32c0.14 0.007 0.279-0.015 0.41-0.065s0.249-0.127 0.348-0.226c0.099-0.099 0.176-0.218 0.226-0.348s0.073-0.27 0.065-0.41v-8.38c0.007-0.14-0.015-0.28-0.065-0.41s-0.127-0.249-0.226-0.348c-0.099-0.099-0.218-0.176-0.348-0.226s-0.27-0.072-0.41-0.065h-5.32c-0.279 0-0.546 0.111-0.742 0.308s-0.308 0.464-0.308 0.742 0.111 0.546 0.308 0.742c0.197 0.197 0.464 0.308 0.742 0.308h4.27v6.28h-4.27c-0.279 0-0.546 0.111-0.742 0.308s-0.308 0.464-0.308 0.742 0.111 0.546 0.308 0.742c0.197 0.197 0.464 0.308 0.742 0.308zM15 24.060h-6.34v-12.57h6.34v12.57zM16 9.39h-8.38c-0.136-0-0.27 0.027-0.395 0.081s-0.237 0.132-0.331 0.23c-0.094 0.098-0.166 0.214-0.213 0.342s-0.068 0.263-0.061 0.398v14.67c0 0.265 0.105 0.52 0.293 0.707s0.442 0.293 0.707 0.293h8.38c0.135 0.007 0.271-0.014 0.398-0.061s0.243-0.12 0.342-0.213c0.098-0.094 0.176-0.206 0.23-0.331s0.081-0.259 0.081-0.395v-14.67c0.007-0.14-0.015-0.28-0.065-0.41s-0.127-0.249-0.226-0.348c-0.099-0.099-0.218-0.176-0.348-0.226s-0.27-0.072-0.41-0.065zM30.66 4.15v23.050c0.001 0.413-0.079 0.822-0.236 1.203s-0.389 0.728-0.68 1.020c-0.292 0.292-0.639 0.523-1.020 0.68s-0.791 0.238-1.203 0.236h-23c-0.833 0-1.631-0.331-2.22-0.92s-0.92-1.387-0.92-2.22v-18.85c-0-0.825 0.323-1.617 0.901-2.206s1.364-0.928 2.189-0.944h9.43c0.278 0 0.546 0.111 0.742 0.308s0.307 0.464 0.307 0.742c0 0.278-0.111 0.546-0.307 0.742s-0.464 0.308-0.742 0.308h-9.43c-0.265 0-0.52 0.105-0.707 0.293s-0.293 0.442-0.293 0.707v18.9c0 0.265 0.105 0.52 0.293 0.707s0.442 0.293 0.707 0.293h23.050c0.136 0.007 0.271-0.014 0.398-0.061s0.243-0.12 0.342-0.213c0.098-0.094 0.176-0.206 0.23-0.331s0.081-0.259 0.081-0.395v-23c0-0.136-0.027-0.27-0.081-0.395s-0.131-0.237-0.23-0.331c-0.098-0.094-0.215-0.166-0.342-0.213s-0.263-0.068-0.398-0.061h-25.14c-0.278 0-0.546-0.111-0.742-0.308s-0.308-0.464-0.308-0.742c0-0.278 0.111-0.546 0.308-0.742s0.464-0.308 0.742-0.308h25.14c0.413 0 0.822 0.082 1.204 0.24s0.728 0.391 1.020 0.683 0.523 0.64 0.68 1.022c0.157 0.382 0.237 0.792 0.236 1.205v-0.1z"></path>
</svg>
