<!-- Generated by IcoMoon.io -->
<svg version="1.1" xmlns="http://www.w3.org/2000/svg" width="32" height="32" viewBox="0 0 32 32">
<title>moon</title>
<path d="M15.085 2.381c0.245 0.31 0.284 0.735 0.1 1.085-0.928 1.763-1.485 3.804-1.485 6.034 0 7.148 5.852 13 13 13 0.526 0 0.798-0.005 1.058-0.070 0.413-0.103 0.847 0.067 1.080 0.423s0.214 0.822-0.047 1.159c-2.577 3.329-6.562 5.488-11.091 5.488-7.752 0-14-6.248-14-14 0-6.458 4.411-11.957 10.353-13.469 0.383-0.097 0.787 0.040 1.032 0.35zM12.48 4.715c-3.989 1.891-6.78 6.029-6.78 10.785 0 6.648 5.352 12 12 12 3.053 0 5.822-1.145 7.946-3.037-7.765-0.545-13.946-7.065-13.946-14.963 0-1.698 0.281-3.304 0.78-4.785z"></path>
</svg>
