<!-- Generated by IcoMoon.io -->
<svg version="1.1" xmlns="http://www.w3.org/2000/svg" width="32" height="32" viewBox="0 0 32 32">
<title>moped</title>
<path d="M18 7c-0.552 0-1 0.448-1 1s0.448 1 1 1h2.219l1.622 6.489c-1.391 0.667-2.426 1.958-2.741 3.511h-3.482l-2.618-5.236v-0.764c0-2.209-1.791-4-4-4h-2c-2.209 0-4 1.791-4 4v2h5c-2.761 0-5 2.239-5 5s2.239 5 5 5c2.419 0 4.437-1.718 4.9-4h6.2c0.463 2.282 2.481 4 4.9 4 2.761 0 5-2.239 5-5s-2.239-5-5-5c-0.073 0-0.146 0.002-0.218 0.005l-2.001-8.005h-3.781zM22.344 17.498l0.686 2.744c0.134 0.536 0.677 0.862 1.213 0.728s0.862-0.677 0.728-1.213l-0.686-2.744c1.524 0.143 2.716 1.426 2.716 2.987 0 1.657-1.343 3-3 3s-3-1.343-3-3c0-1.045 0.534-1.965 1.344-2.502zM10.829 19h-2.829c-0.552 0-1 0.448-1 1s0.448 1 1 1h2.829c-0.412 1.165-1.523 2-2.829 2-1.657 0-3-1.343-3-3s1.343-3 3-3c1.306 0 2.418 0.835 2.829 2zM12.9 19c-0.463-2.282-2.481-4-4.9-4h3.382l2 4h-0.482zM9 11c1.105 0 2 0.895 2 2h-6c0-1.105 0.895-2 2-2h2z"></path>
</svg>
