<!-- Generated by IcoMoon.io -->
<svg version="1.1" xmlns="http://www.w3.org/2000/svg" width="32" height="32" viewBox="0 0 32 32">
<title>music</title>
<path d="M30 8.339c0-0.015 0-0.030 0-0.045v-6.294l-20 5.556v5.737c-0 0.015-0 0.030 0 0.045v7.978c-0.836-0.628-1.874-1-3-1-2.761 0-5 2.239-5 5s2.239 5 5 5c2.761 0 5-2.239 5-5v-11.24l16-4.444v6.684c-0.836-0.628-1.874-1-3-1-2.761 0-5 2.239-5 5s2.239 5 5 5 5-2.239 5-5v-11.977zM28 7.556l-16 4.444v-2.924l16-4.444v2.924zM22 20.316c0-1.657 1.343-3 3-3s3 1.343 3 3c0 1.657-1.343 3-3 3s-3-1.343-3-3zM4 25.316c0-1.657 1.343-3 3-3s3 1.343 3 3c0 1.657-1.343 3-3 3s-3-1.343-3-3z"></path>
</svg>
