<!-- Generated by IcoMoon.io -->
<svg version="1.1" xmlns="http://www.w3.org/2000/svg" width="32" height="32" viewBox="0 0 32 32">
<title>mysql-operator</title>
<path d="M11.67 25.58c-1.892-0.111-3.768-0.412-5.6-0.9-1.69-0.49-2.070-0.99-2.17-0.99v-3.68c0.18 0.090 0.38 0.17 0.59 0.25 1.71 0.598 3.486 0.984 5.29 1.15h0.12c0.265 0.015 0.525-0.077 0.723-0.254s0.317-0.426 0.332-0.691-0.077-0.525-0.254-0.723c-0.177-0.198-0.426-0.317-0.691-0.332-1.51-0.145-3.002-0.447-4.45-0.9-0.616-0.121-1.189-0.404-1.66-0.82v-3.68c0.389 0.182 0.79 0.339 1.2 0.47 2.143 0.622 4.351 0.991 6.58 1.1h0.070c0.265 0.008 0.523-0.090 0.716-0.272s0.306-0.433 0.314-0.698c0.008-0.265-0.090-0.523-0.272-0.716s-0.433-0.306-0.698-0.314c-1.922-0.103-3.828-0.401-5.69-0.89-1.73-0.49-2.12-1-2.22-1v-3.68c0.729 0.332 1.49 0.59 2.27 0.77 2.864 0.645 5.794 0.95 8.73 0.91 2.932 0.040 5.859-0.265 8.72-0.91 0.783-0.182 1.547-0.44 2.28-0.77v3.46c0 0.265 0.105 0.52 0.293 0.707s0.442 0.293 0.707 0.293 0.52-0.105 0.707-0.293c0.188-0.188 0.293-0.442 0.293-0.707v-5.78c-0.040-0.431-0.195-0.844-0.448-1.196s-0.596-0.629-0.992-0.804c-0.893-0.483-1.849-0.839-2.84-1.060-2.86-0.655-5.787-0.97-8.72-0.94-2.936-0.040-5.866 0.265-8.73 0.91-0.992 0.232-1.947 0.599-2.84 1.090-0.395 0.175-0.736 0.453-0.988 0.805s-0.404 0.764-0.442 1.195v18c0 1.16 1.060 2.090 3.16 2.77 2.105 0.627 4.277 0.999 6.47 1.11h0.070c0.265 0.009 0.523-0.087 0.717-0.268s0.308-0.432 0.318-0.697-0.087-0.523-0.268-0.717c-0.181-0.194-0.432-0.308-0.697-0.318v0.010zM7.12 4.43c2.56-0.521 5.168-0.769 7.78-0.74 2.609-0.029 5.213 0.22 7.77 0.74 2.3 0.51 3 1.070 3.18 1.26-0.18 0.19-0.88 0.75-3.18 1.26-2.557 0.52-5.161 0.768-7.77 0.74-2.612 0.029-5.22-0.219-7.78-0.74-2.3-0.51-3-1.070-3.18-1.26 0.19-0.19 0.88-0.75 3.18-1.26z"></path>
<path d="M30.080 22.76l-1.63-7.070c-0.033-0.147-0.099-0.284-0.192-0.402s-0.212-0.213-0.348-0.278l-6.58-3.22c-0.136-0.066-0.284-0.1-0.435-0.1s-0.299 0.034-0.435 0.1l-6.58 3.17c-0.135 0.066-0.254 0.161-0.348 0.278s-0.159 0.255-0.192 0.402l-1.62 7.12c-0.033 0.145-0.033 0.296-0 0.442s0.098 0.282 0.19 0.398l4.55 5.71c0.094 0.119 0.214 0.215 0.351 0.281s0.287 0.1 0.439 0.099h7.3c0.15-0.001 0.298-0.035 0.433-0.101s0.254-0.161 0.347-0.279l4.55-5.71c0.094-0.116 0.161-0.252 0.195-0.397s0.036-0.297 0.005-0.443zM24.080 27.69h-6.35l-4-5 1.41-6.18 5.72-2.75 5.71 2.75 1.43 6.18-3.92 5z"></path>
<path d="M25.61 21.090l-1.27-0.27c-0.032-0.343-0.112-0.68-0.24-1l1-0.84c0.191-0.172 0.308-0.41 0.328-0.666s-0.059-0.51-0.221-0.709c-0.162-0.199-0.394-0.328-0.649-0.361s-0.512 0.034-0.719 0.185l-1 0.84c-0.289-0.195-0.606-0.347-0.94-0.45v-1.39c0-0.265-0.105-0.52-0.293-0.707s-0.442-0.293-0.707-0.293-0.52 0.105-0.707 0.293c-0.188 0.188-0.293 0.442-0.293 0.707v1.35c-0.335 0.101-0.652 0.253-0.94 0.45l-1-0.84c-0.102-0.083-0.22-0.145-0.346-0.183s-0.259-0.049-0.39-0.036-0.258 0.054-0.374 0.117c-0.116 0.063-0.218 0.149-0.3 0.251-0.165 0.206-0.241 0.469-0.213 0.731s0.159 0.503 0.363 0.669l1 0.84c-0.131 0.32-0.215 0.656-0.25 1l-1.27 0.27c-0.265 0.029-0.508 0.163-0.675 0.371s-0.244 0.474-0.215 0.739c0.029 0.265 0.162 0.508 0.371 0.675s0.474 0.244 0.739 0.215h0.21l1.27-0.28c0.175 0.319 0.401 0.606 0.67 0.85l-0.55 1.14c-0.058 0.118-0.092 0.247-0.1 0.378s0.009 0.263 0.052 0.387c0.043 0.125 0.11 0.239 0.197 0.338s0.193 0.179 0.311 0.237c0.134 0.065 0.281 0.099 0.43 0.1 0.187 0 0.371-0.052 0.53-0.151s0.287-0.241 0.37-0.409l0.56-1.14c0.182 0.032 0.366 0.049 0.55 0.050 0.184-0.002 0.368-0.018 0.55-0.050l0.55 1.19c0.082 0.168 0.211 0.31 0.37 0.409s0.343 0.151 0.53 0.151c0.152 0.001 0.303-0.034 0.44-0.1 0.118-0.058 0.224-0.138 0.311-0.237s0.154-0.213 0.197-0.338c0.043-0.125 0.061-0.256 0.052-0.387s-0.042-0.26-0.1-0.378l-0.56-1.14c0.272-0.244 0.502-0.531 0.68-0.85l1.26 0.28h0.22c0.265 0.028 0.531-0.051 0.738-0.219s0.339-0.411 0.367-0.676-0.051-0.531-0.219-0.738c-0.168-0.207-0.411-0.339-0.676-0.367v-0.010zM19.44 21.090c0-0.289 0.086-0.571 0.246-0.811s0.388-0.427 0.655-0.538 0.56-0.14 0.843-0.083c0.283 0.056 0.543 0.195 0.748 0.399s0.343 0.464 0.399 0.748c0.056 0.283 0.027 0.577-0.083 0.843s-0.298 0.495-0.538 0.655c-0.24 0.16-0.522 0.246-0.811 0.246-0.387 0-0.759-0.154-1.032-0.428s-0.428-0.645-0.428-1.032z"></path>
</svg>
