<!-- Generated by IcoMoon.io -->
<svg version="1.1" xmlns="http://www.w3.org/2000/svg" width="32" height="32" viewBox="0 0 32 32">
<title>newspaper</title>
<path d="M6 6h13v9h-13v-9zM8 8v5h9v-5h-9z"></path>
<path d="M7 17c-0.552 0-1 0.448-1 1s0.448 1 1 1h11c0.552 0 1-0.448 1-1s-0.448-1-1-1h-11z"></path>
<path d="M6 22c0-0.552 0.448-1 1-1h4c0.552 0 1 0.448 1 1s-0.448 1-1 1h-4c-0.552 0-1-0.448-1-1z"></path>
<path d="M7 24c-0.552 0-1 0.448-1 1s0.448 1 1 1h4c0.552 0 1-0.448 1-1s-0.448-1-1-1h-4z"></path>
<path d="M13 22c0-0.552 0.448-1 1-1h4c0.552 0 1 0.448 1 1s-0.448 1-1 1h-4c-0.552 0-1-0.448-1-1z"></path>
<path d="M14 24c-0.552 0-1 0.448-1 1s0.448 1 1 1h4c0.552 0 1-0.448 1-1s-0.448-1-1-1h-4z"></path>
<path d="M23 2v8h7v16c0 2.252-1.748 4-4 4h-20c-2.252 0-4-1.748-4-4v-24h21zM21 4h-17v22c0 1.148 0.852 2 2 2h15.515c-0.329-0.584-0.515-1.265-0.515-2v-22zM25 28h1c1.148 0 2-0.852 2-2v-14h-5v14c0 1.148 0.852 2 2 2z"></path>
</svg>
