<!-- Generated by IcoMoon.io -->
<svg version="1.1" xmlns="http://www.w3.org/2000/svg" width="32" height="32" viewBox="0 0 32 32">
<title>nginx-ingress</title>
<path d="M28.81 8.79c0.001-0.141-0.038-0.28-0.112-0.401s-0.181-0.217-0.308-0.279l-11.94-6.95c-0.132-0.093-0.289-0.141-0.45-0.14-0.158-0.001-0.312 0.048-0.44 0.14-3.973 2.3-7.943 4.593-11.91 6.88-0.138 0.058-0.255 0.155-0.337 0.28s-0.125 0.271-0.123 0.42v6.95c0 2.307 0 4.613 0 6.92v0.080c-0.001 0.141 0.038 0.28 0.112 0.401s0.181 0.217 0.308 0.279l11.89 6.83c0.149 0.105 0.328 0.161 0.51 0.16 0.185-0.001 0.366-0.057 0.52-0.16l11.85-6.87c0.126-0.061 0.233-0.156 0.307-0.274s0.113-0.256 0.113-0.396v-13.87h0.010zM15.81 19.52c0.005 0.030 0.005 0.060 0 0.090 0 0.331-0.132 0.649-0.366 0.884s-0.552 0.366-0.884 0.366h-0.18c-0.301 0.005-0.6-0.058-0.874-0.184s-0.515-0.313-0.706-0.546l-5-6c-0.067-0.067-0.128-0.141-0.18-0.22v5.78c0 0.316-0.125 0.618-0.349 0.841s-0.526 0.349-0.841 0.349c-0.26-0.002-0.512-0.088-0.719-0.245s-0.358-0.376-0.431-0.625c-0.041-0.136-0.061-0.278-0.060-0.42v-7.9c0.003-0.348 0.143-0.681 0.39-0.927s0.582-0.383 0.93-0.383h0.2c0.299 0.025 0.59 0.111 0.854 0.252s0.498 0.334 0.686 0.568l5 6 0.19 0.22v-5.79c-0.001-0.156 0.028-0.31 0.087-0.455s0.145-0.276 0.255-0.386c0.11-0.111 0.24-0.198 0.384-0.258s0.298-0.091 0.454-0.091c0.154 0.003 0.307 0.033 0.45 0.090 0.206 0.076 0.385 0.211 0.513 0.39s0.2 0.391 0.207 0.61c0.005 0.050 0.005 0.1 0 0.15 0.006 0.050 0.006 0.1 0 0.15v6c-0.020 0.55-0.050 1.12-0.020 1.69h0.010zM26.81 15.69c0 0.131-0.026 0.261-0.076 0.383s-0.124 0.232-0.217 0.324-0.203 0.166-0.324 0.217c-0.121 0.050-0.251 0.076-0.383 0.076h-3v3c0 0.265-0.105 0.52-0.293 0.707s-0.442 0.293-0.707 0.293c-0.265 0-0.52-0.105-0.707-0.293s-0.293-0.442-0.293-0.707v-3h-3c-0.265 0-0.52-0.105-0.707-0.293s-0.293-0.442-0.293-0.707 0.105-0.52 0.293-0.707c0.188-0.188 0.442-0.293 0.707-0.293h3v-3c0-0.265 0.105-0.52 0.293-0.707s0.442-0.293 0.707-0.293 0.52 0.105 0.707 0.293c0.188 0.188 0.293 0.442 0.293 0.707v3h3c0.265 0 0.52 0.105 0.707 0.293s0.293 0.442 0.293 0.707z"></path>
</svg>
