<!-- Generated by IcoMoon.io -->
<svg version="1.1" xmlns="http://www.w3.org/2000/svg" width="32" height="32" viewBox="0 0 32 32">
<title>ok-circle</title>
<path d="M22.707 12.707c0.39-0.39 0.39-1.024 0-1.414s-1.024-0.39-1.414 0l-8.293 8.293-3.293-3.293c-0.391-0.39-1.024-0.39-1.414 0s-0.391 1.024 0 1.414l4.707 4.707 9.707-9.707z"></path>
<path d="M16 2c-7.732 0-14 6.268-14 14s6.268 14 14 14c7.732 0 14-6.268 14-14s-6.268-14-14-14zM4 16c0-6.627 5.373-12 12-12s12 5.373 12 12c0 6.627-5.373 12-12 12s-12-5.373-12-12z"></path>
</svg>
