<!-- Generated by IcoMoon.io -->
<svg version="1.1" xmlns="http://www.w3.org/2000/svg" width="32" height="32" viewBox="0 0 32 32">
<title>ok-square</title>
<path d="M24.71 11.704c0.389-0.392 0.386-1.026-0.006-1.414s-1.026-0.386-1.414 0.006l-10.186 10.28-4.39-4.476c-0.387-0.394-1.020-0.4-1.414-0.014s-0.4 1.020-0.014 1.414l5.81 5.924 11.614-11.72z"></path>
<path d="M6 2c-2.252 0-4 1.748-4 4v20c0 2.252 1.748 4 4 4h20c2.252 0 4-1.748 4-4v-20c0-2.252-1.748-4-4-4h-20zM4 6c0-1.148 0.852-2 2-2h20c1.148 0 2 0.852 2 2v20c0 1.148-0.852 2-2 2h-20c-1.148 0-2-0.852-2-2v-20z"></path>
</svg>
