<!-- Generated by IcoMoon.io -->
<svg version="1.1" xmlns="http://www.w3.org/2000/svg" width="32" height="32" viewBox="0 0 32 32">
<title>paint-roller</title>
<path d="M26 6c0-2.252-1.748-4-4-4h-16c-2.252 0-4 1.748-4 4v2c0 2.252 1.748 4 4 4h16c2.252 0 4-1.748 4-4h1c0.548 0 1 0.452 1 1v5c0 0.548-0.452 1-1 1h-10c-2.252 0-4 1.748-4 4v10c0 0.552 0.448 1 1 1s1-0.448 1-1v-10c0-1.148 0.852-2 2-2h10c1.652 0 3-1.348 3-3v-5c0-1.652-1.348-3-3-3h-1zM4 6c0-1.148 0.852-2 2-2h16c1.148 0 2 0.852 2 2v2c0 1.148-0.852 2-2 2h-16c-1.148 0-2-0.852-2-2v-2z"></path>
</svg>
