<!-- Generated by IcoMoon.io -->
<svg version="1.1" xmlns="http://www.w3.org/2000/svg" width="32" height="32" viewBox="0 0 32 32">
<title>palette</title>
<path d="M8.996 20.996c0-2.209 1.791-4 4-4s4 1.791 4 4c0 2.209-1.791 4-4 4s-4-1.791-4-4zM12.996 18.996c-1.105 0-2 0.895-2 2s0.895 2 2 2c1.105 0 2-0.895 2-2s-0.895-2-2-2z"></path>
<path d="M17.496 7.996c0 0.828-0.672 1.5-1.5 1.5s-1.5-0.672-1.5-1.5c0-0.828 0.672-1.5 1.5-1.5s1.5 0.672 1.5 1.5z"></path>
<path d="M9.996 12.496c0.828 0 1.5-0.672 1.5-1.5s-0.672-1.5-1.5-1.5c-0.828 0-1.5 0.672-1.5 1.5s0.672 1.5 1.5 1.5z"></path>
<path d="M23.496 10.996c0 0.828-0.672 1.5-1.5 1.5s-1.5-0.672-1.5-1.5c0-0.828 0.672-1.5 1.5-1.5s1.5 0.672 1.5 1.5z"></path>
<path d="M17.606 2.102c6.25 0.65 11.41 5.696 12.179 11.944 0.215 1.2 0.212 2.287 0.106 3.349l-0.002 0.016-0.002 0.016c-0.262 1.966-1.959 3.568-3.991 3.568h-2.9c-1.148 0-2 0.852-2 2v3c0 2.152-1.623 3.732-3.568 3.991l-0.016 0.002-0.016 0.002c-1.055 0.105-2.099 0.010-3.117-0.083l-0.196-0.018-0.023-0.003c-6.262-0.864-11.203-6.032-11.956-12.271l-0-0.002c-1.076-9.040 6.464-16.583 15.504-15.512zM4.088 17.377c0.646 5.353 4.894 9.78 10.221 10.525l0.078 0.007c1.073 0.098 1.938 0.176 2.791 0.093 1.047-0.147 1.817-0.964 1.817-2.007v-3c0-2.252 1.748-4 4-4h2.9c0.963 0 1.862-0.79 2.007-1.817 0.091-0.923 0.088-1.822-0.091-2.804l-0.005-0.029-0.004-0.030c-0.644-5.335-5.073-9.673-10.41-10.225l-0.008-0.001-0.008-0.001c-7.757-0.923-14.212 5.531-13.289 13.288z"></path>
</svg>
