<!-- Generated by IcoMoon.io -->
<svg version="1.1" xmlns="http://www.w3.org/2000/svg" width="32" height="32" viewBox="0 0 32 32">
<title>parcel</title>
<path d="M16.009 2l5.642 1.967c0.33-0.050 0.659 0.069 0.881 0.307l4.681 1.632c0.417 0.13 0.796 0.317 1.132 0.551 0.396 0.018 0.76 0.272 0.899 0.669 0.032 0.092 0.050 0.185 0.055 0.277 0.45 0.64 0.701 1.416 0.701 2.253v13c0 1.661-1.205 3.223-2.784 3.749l-0.003 0.001-10.884 3.595c-0.011 0.004-0.021 0.007-0.032 0.010l-0.302 0.1-0.301-0.102c-0.011-0.003-0.021-0.007-0.032-0.011l-10.871-3.69c-1.706-0.531-2.791-2.012-2.791-3.751v-13c0-0.855 0.26-1.637 0.718-2.288 0.009-0.048 0.022-0.095 0.038-0.142 0.112-0.32 0.369-0.547 0.672-0.632 0.379-0.32 0.821-0.582 1.313-0.771l0.022-0.009 11.245-3.714zM17 27.673l9.585-3.166c0.821-0.274 1.415-1.113 1.415-1.851v-13c0-0.347-0.084-0.671-0.242-0.951l-10.758 3.761v15.207zM15 12.466l-4.7-1.643v4.233c0 0.552-0.448 1-1 1s-1-0.448-1-1v-4.933l-4.104-1.435c-0.129 0.268-0.196 0.562-0.196 0.867v13c0 0.856 0.509 1.572 1.394 1.844l9.606 3.26v-15.195zM15.991 4.112l-9.681 3.197 2.906 1.016 9.385-3.303-2.61-0.91zM21.628 6.077l-9.389 3.305 3.761 1.315 9.426-3.295-3.799-1.324z"></path>
</svg>
