<!-- Generated by IcoMoon.io -->
<svg version="1.1" xmlns="http://www.w3.org/2000/svg" width="32" height="32" viewBox="0 0 32 32">
<title>parcel-down</title>
<path d="M16 13.056c0.552 0 1 0.448 1 1v5.586l2.293-2.293c0.39-0.39 1.024-0.39 1.414 0s0.39 1.024 0 1.414l-4.707 4.707-4.707-4.707c-0.39-0.39-0.39-1.024 0-1.414s1.024-0.39 1.414 0l2.293 2.293v-5.586c0-0.552 0.448-1 1-1z"></path>
<path d="M27.213 5.906c0.417 0.13 0.796 0.317 1.132 0.551 0.395 0.018 0.759 0.271 0.898 0.668 0.032 0.092 0.050 0.186 0.055 0.278 0.45 0.64 0.701 1.416 0.701 2.253v13c0 1.661-1.205 3.223-2.784 3.749l-10.884 3.595c-0.012 0.004-0.024 0.008-0.037 0.012l-0.3 0.099-0.299-0.102c-0.012-0.004-0.024-0.008-0.037-0.012l-10.869-3.689c-1.706-0.531-2.791-2.012-2.791-3.751v-13c0-0.855 0.26-1.637 0.718-2.288 0.009-0.048 0.022-0.096 0.039-0.144 0.112-0.319 0.369-0.546 0.672-0.631 0.379-0.32 0.821-0.582 1.313-0.771l11.268-3.723 5.642 1.967c0.33-0.050 0.659 0.069 0.881 0.307l4.681 1.632zM17 27.673l9.585-3.166c0.821-0.274 1.415-1.113 1.415-1.851v-13c0-0.346-0.083-0.67-0.241-0.95l-8.528 2.994c-0.521 0.183-1.092-0.091-1.275-0.612s0.091-1.092 0.612-1.275l6.863-2.409-3.804-1.326-9.406 3.311 1.21 0.425c0.521 0.183 0.795 0.754 0.612 1.275s-0.754 0.795-1.275 0.612l-2.469-0.867v2.223c0 0.552-0.448 1-1 1s-1-0.448-1-1v-2.925l-4.105-1.441c-0.129 0.268-0.195 0.561-0.195 0.866v13c0 0.856 0.509 1.572 1.394 1.844l0.014 0.004 9.592 3.256v-1.605c0-0.552 0.448-1 1-1s1 0.448 1 1v1.617zM15.991 4.112l-9.686 3.199 2.9 1.018 9.396-3.307-2.61-0.91z"></path>
</svg>
