<!-- Generated by IcoMoon.io -->
<svg version="1.1" xmlns="http://www.w3.org/2000/svg" width="32" height="32" viewBox="0 0 32 32">
<title>parking</title>
<path d="M16 7h-6v17c0 0.552 0.448 1 1 1s1-0.448 1-1v-5h4c3.352 0 6-2.648 6-6s-2.648-6-6-6zM16 17h-4v-8h4c2.248 0 4 1.752 4 4s-1.752 4-4 4z"></path>
<path d="M7 3c-2.252 0-4 1.748-4 4v18c0 2.252 1.748 4 4 4h18c2.252 0 4-1.748 4-4v-18c0-2.252-1.748-4-4-4h-18zM5 7c0-1.148 0.852-2 2-2h18c1.148 0 2 0.852 2 2v18c0 1.148-0.852 2-2 2h-18c-1.148 0-2-0.852-2-2v-18z"></path>
</svg>
