<!-- Generated by IcoMoon.io -->
<svg version="1.1" xmlns="http://www.w3.org/2000/svg" width="32" height="32" viewBox="0 0 32 32">
<title>parking-off</title>
<path d="M3.707 2.293l14.684 14.684c0.011 0.011 0.022 0.022 0.033 0.033l11.283 11.283c0.39 0.39 0.39 1.024 0 1.414s-1.024 0.39-1.414 0l-1.256-1.256c-0.624 0.377-1.349 0.549-2.037 0.549h-18c-2.252 0-4-1.748-4-4v-18c0-0.688 0.172-1.413 0.549-2.037l-1.256-1.256c-0.391-0.391-0.391-1.024 0-1.414s1.024-0.391 1.414 0zM10 11.414l-4.936-4.936c-0.041 0.162-0.064 0.338-0.064 0.522v18c0 1.148 0.852 2 2 2h18c0.184 0 0.36-0.023 0.522-0.064l-8.102-8.102c-0.462 0.113-0.948 0.165-1.421 0.165h-4v5c0 0.552-0.448 1-1 1s-1-0.448-1-1v-12.586zM12 13.414v3.586h3.586l-3.586-3.586z"></path>
<path d="M9 3c-0.552 0-1 0.448-1 1s0.448 1 1 1h16c1.148 0 2 0.852 2 2v16c0 0.552 0.448 1 1 1s1-0.448 1-1v-16c0-2.252-1.748-4-4-4h-16z"></path>
<path d="M12 8c0-0.552 0.448-1 1-1h3c3.352 0 6 2.648 6 6 0 1.053-0.236 2.028-0.732 2.896-0.274 0.48-0.885 0.646-1.364 0.372s-0.646-0.885-0.372-1.364c0.304-0.532 0.468-1.157 0.468-1.904 0-2.248-1.752-4-4-4h-3c-0.552 0-1-0.448-1-1z"></path>
</svg>
