<!-- Generated by IcoMoon.io -->
<svg version="1.1" xmlns="http://www.w3.org/2000/svg" width="32" height="32" viewBox="0 0 32 32">
<title>patch-double</title>
<path d="M14.707 11.707c0.39-0.39 0.39-1.024 0-1.414s-1.024-0.391-1.414 0l-3 3c-0.391 0.39-0.391 1.024 0 1.414s1.024 0.39 1.414 0l3-3z"></path>
<path d="M16 15c-0.552 0-1-0.448-1-1s0.448-1 1-1c0.552 0 1 0.448 1 1s-0.448 1-1 1z"></path>
<path d="M18 17c0.552 0 1-0.448 1-1s-0.448-1-1-1c-0.552 0-1 0.448-1 1s0.448 1 1 1z"></path>
<path d="M15 18c0 0.552 0.448 1 1 1s1-0.448 1-1c0-0.552-0.448-1-1-1s-1 0.448-1 1z"></path>
<path d="M14 17c0.552 0 1-0.448 1-1s-0.448-1-1-1c-0.552 0-1 0.448-1 1s0.448 1 1 1z"></path>
<path d="M21.707 18.707l-3 3c-0.39 0.39-1.024 0.39-1.414 0s-0.39-1.024 0-1.414l3-3c0.39-0.39 1.024-0.39 1.414 0s0.39 1.024 0 1.414z"></path>
<path d="M16 7.586l-3.245-3.245c-1.087-1.41-2.856-2.341-4.755-2.341-3.352 0-6 2.648-6 6 0 1.899 0.931 3.668 2.341 4.755l3.245 3.245-3.245 3.245c-1.41 1.087-2.341 2.856-2.341 4.755 0 3.352 2.648 6 6 6 1.899 0 3.668-0.931 4.755-2.341l3.245-3.245 3.245 3.245c1.087 1.41 2.856 2.341 4.755 2.341 3.352 0 6-2.648 6-6 0-1.899-0.931-3.668-2.341-4.755l-3.245-3.245 3.245-3.245c1.41-1.087 2.341-2.856 2.341-4.755 0-3.352-2.648-6-6-6-1.899 0-3.668 0.931-4.755 2.341l-3.245 3.245zM20.8 5.6c0.718-0.957 1.925-1.6 3.2-1.6 2.248 0 4 1.752 4 4 0 1.275-0.643 2.482-1.6 3.2-0.038 0.028-0.074 0.059-0.107 0.093l-3.293 3.293-5.586-5.586 3.293-3.293c0.034-0.033 0.064-0.069 0.093-0.107zM5.707 11.293c-0.033-0.034-0.069-0.065-0.107-0.093-0.957-0.718-1.6-1.925-1.6-3.2 0-2.248 1.752-4 4-4 1.275 0 2.482 0.643 3.2 1.6 0.028 0.038 0.059 0.074 0.093 0.107l15 15c0.034 0.034 0.069 0.064 0.107 0.093 0.957 0.718 1.6 1.925 1.6 3.2 0 2.248-1.752 4-4 4-1.274 0-2.482-0.643-3.2-1.6-0.028-0.038-0.059-0.074-0.093-0.107l-15-15zM9 17.414l5.586 5.586-3.293 3.293c-0.034 0.034-0.065 0.069-0.093 0.107-0.718 0.957-1.925 1.6-3.2 1.6-2.248 0-4-1.752-4-4 0-1.274 0.643-2.482 1.6-3.2 0.038-0.028 0.074-0.059 0.107-0.093l3.293-3.293z"></path>
</svg>
