<!-- Generated by IcoMoon.io -->
<svg version="1.1" xmlns="http://www.w3.org/2000/svg" width="32" height="32" viewBox="0 0 32 32">
<title>pay-phone-small</title>
<path d="M16.1 13c-0.548 0-1 0.452-1 1s0.452 1 1 1c1.652 0 3 1.348 3 3 0 1.302-0.837 2.415-2 2.828v0.172c0 0.552-0.448 1-1 1s-1-0.448-1-1h-1c-0.552 0-1-0.448-1-1s0.448-1 1-1h2c0.548 0 1-0.452 1-1s-0.452-1-1-1c-1.652 0-3-1.348-3-3 0-1.302 0.837-2.415 2-2.828v-0.172c0-0.552 0.448-1 1-1s1 0.448 1 1h1c0.552 0 1 0.448 1 1s-0.448 1-1 1h-2z"></path>
<path d="M20 5h-8c-0.527 0-1.044 0.18-1.432 0.568s-0.568 0.905-0.568 1.432v17c0 0.527 0.18 1.044 0.568 1.432s0.905 0.568 1.432 0.568h8c0.527 0 1.044-0.18 1.432-0.568s0.568-0.905 0.568-1.432v-17c0-0.527-0.18-1.044-0.568-1.432s-0.905-0.568-1.432-0.568zM12 24v-17h1.1c0 0.552 0.448 1 1 1h4c0.552 0 1-0.448 1-1h0.9v17h-8z"></path>
<path d="M8.447 11.206c0.494 0.247 0.694 0.848 0.447 1.342-0.528 1.055-0.794 2.201-0.794 3.453s0.267 2.398 0.794 3.453c0.247 0.494 0.047 1.095-0.447 1.342s-1.095 0.047-1.342-0.447c-0.672-1.345-1.006-2.799-1.006-4.347s0.333-3.002 1.006-4.347c0.247-0.494 0.848-0.694 1.342-0.447z"></path>
<path d="M25.094 11.653c-0.247-0.494-0.848-0.694-1.342-0.447s-0.694 0.848-0.447 1.342c0.527 1.055 0.794 2.201 0.794 3.453s-0.267 2.398-0.794 3.453c-0.247 0.494-0.047 1.095 0.447 1.342s1.095 0.047 1.342-0.447c0.672-1.345 1.006-2.799 1.006-4.347s-0.333-3.002-1.006-4.347z"></path>
<path d="M24.379 5.908c0.383-0.398 1.015-0.411 1.414-0.029 2.69 2.583 4.308 6.141 4.308 10.121 0 3.888-1.622 7.329-4.078 9.892-0.382 0.399-1.015 0.412-1.414 0.030s-0.412-1.015-0.030-1.414c2.144-2.237 3.522-5.197 3.522-8.508 0-3.419-1.383-6.461-3.692-8.679-0.398-0.382-0.411-1.016-0.029-1.414z"></path>
<path d="M7.622 7.492c0.382-0.399 0.369-1.032-0.030-1.414s-1.032-0.369-1.414 0.030c-2.456 2.563-4.078 6.003-4.078 9.892 0 3.981 1.617 7.539 4.307 10.121 0.398 0.383 1.031 0.37 1.414-0.029s0.37-1.032-0.029-1.414c-2.31-2.217-3.693-5.259-3.693-8.679 0-3.312 1.378-6.271 3.522-8.508z"></path>
</svg>
