<!-- Generated by IcoMoon.io -->
<svg version="1.1" xmlns="http://www.w3.org/2000/svg" width="32" height="32" viewBox="0 0 32 32">
<title>paypal</title>
<path d="M26.21 14.24c-0.246 1.898-1.235 3.621-2.75 4.79-1.525 0.971-3.314 1.443-5.12 1.35h-0.69c-0.512 0-1.007 0.183-1.397 0.514s-0.65 0.791-0.733 1.296v0.29l-0.86 5.47v0.22h-4.1l1.44-10.22c0.007-0.045 0.030-0.086 0.065-0.115s0.079-0.045 0.125-0.045h2.58c2.541 0.101 5.049-0.598 7.17-2 1.883-1.393 3.217-3.404 3.77-5.68 0.359 0.619 0.588 1.304 0.674 2.014s0.027 1.43-0.174 2.116zM27.13 8.47c-0.441-0.49-0.965-0.896-1.55-1.2l-0.38-0.2c0.062-0.707-0.022-1.419-0.247-2.092s-0.587-1.292-1.063-1.818c-1.31-1.5-3.67-2.14-6.7-2.14h-8.79c-0.301-0.001-0.592 0.107-0.82 0.304s-0.377 0.469-0.42 0.766l-3.66 23.2c-0.017 0.107-0.011 0.217 0.018 0.322s0.081 0.202 0.151 0.284c0.070 0.083 0.158 0.149 0.256 0.195s0.206 0.069 0.315 0.069h4.36l-0.35 2.21c-0.039 0.246-0.024 0.498 0.043 0.738s0.186 0.463 0.347 0.652c0.161 0.19 0.362 0.343 0.588 0.448s0.472 0.16 0.721 0.162h4.57c0.511 0 1.005-0.181 1.394-0.51s0.651-0.787 0.736-1.29v-0.22l0.87-5.49 0.050-0.29h0.69c2.247 0.098 4.467-0.511 6.35-1.74 0.987-0.731 1.821-1.649 2.452-2.703s1.049-2.222 1.228-3.437c0.51-2.68 0.13-4.76-1.16-6.22z"></path>
</svg>
