<!-- Generated by IcoMoon.io -->
<svg version="1.1" xmlns="http://www.w3.org/2000/svg" width="32" height="32" viewBox="0 0 32 32">
<title>percona</title>
<path d="M21 15.69c0 0.989-0.293 1.956-0.843 2.778s-1.33 1.463-2.244 1.842c-0.914 0.378-1.919 0.477-2.889 0.285s-1.861-0.669-2.56-1.368c-0.699-0.699-1.175-1.59-1.368-2.56s-0.094-1.975 0.284-2.889c0.378-0.914 1.019-1.694 1.842-2.244s1.789-0.843 2.778-0.843c1.326 0 2.598 0.527 3.535 1.464s1.465 2.209 1.465 3.535zM16 1.020c3.891 0 7.622 1.546 10.373 4.297s4.297 6.483 4.297 10.373-1.546 7.622-4.297 10.373c-2.751 2.751-6.483 4.297-10.373 4.297-1.706 0.003-3.399-0.299-5-0.89v-7c1.542 1.13 3.419 1.707 5.33 1.637s3.741-0.782 5.196-2.022 2.449-2.934 2.822-4.809c0.372-1.875 0.101-3.82-0.77-5.522s-2.29-3.059-4.029-3.854-3.694-0.979-5.551-0.524c-1.857 0.455-3.505 1.524-4.679 3.032s-1.804 3.369-1.789 5.281v12c-2.552-1.795-4.466-4.356-5.463-7.313s-1.025-6.154-0.081-9.128c0.944-2.974 2.812-5.569 5.332-7.408s5.561-2.828 8.681-2.821z"></path>
</svg>
