<!-- Generated by IcoMoon.io -->
<svg version="1.1" xmlns="http://www.w3.org/2000/svg" width="32" height="32" viewBox="0 0 32 32">
<title>phone-mobile</title>
<path d="M21 2c2.252 0 4 1.748 4 4v20c0 2.252-1.748 4-4 4h-10c-2.252 0-4-1.748-4-4v-20c0-2.252 1.748-4 4-4h10zM11 4c-1.148 0-2 0.852-2 2v20c0 1.148 0.852 2 2 2h10c1.148 0 2-0.852 2-2v-20c0-1.148-0.852-2-2-2h-1c0 0.527-0.18 1.044-0.568 1.432s-0.905 0.568-1.432 0.568h-4c-0.527 0-1.044-0.18-1.432-0.568s-0.568-0.905-0.568-1.432h-1z"></path>
</svg>
