<!-- Generated by IcoMoon.io -->
<svg version="1.1" xmlns="http://www.w3.org/2000/svg" width="32" height="32" viewBox="0 0 32 32">
<title>phone</title>
<path d="M5.7 4c-0.533 0-0.94 0.19-1.232 0.54l-0.029 0.035-0.032 0.032c-0.239 0.239-0.385 0.61-0.315 1.169l0.002 0.012 0.001 0.012c0.384 3.836 1.728 7.585 3.845 10.856l0.001 0.001c1.929 2.991 4.428 5.58 7.49 7.494l0.007 0.004 0.007 0.004c3.257 2.107 6.986 3.449 10.803 3.839 0.544-0.009 1.015-0.176 1.246-0.407 0.32-0.32 0.507-0.769 0.507-1.193v-3.9c0-0.951-0.582-1.593-1.352-1.712-1.354-0.208-2.604-0.52-3.848-0.934-0.712-0.209-1.402-0.037-1.793 0.353l-2.236 2.236-0.661-0.372c-3.363-1.892-6.19-4.723-8.176-8.173l-0.382-0.664 2.217-2.217c0.504-0.588 0.626-1.19 0.404-1.747l-0.011-0.027-0.009-0.028c-0.416-1.25-0.73-2.505-0.94-3.864-0.122-0.792-0.784-1.352-1.612-1.352h-3.9zM2.961 3.226c0.706-0.827 1.687-1.226 2.739-1.226h3.9c1.773 0 3.31 1.24 3.588 3.048 0.189 1.231 0.473 2.369 0.852 3.51 0.556 1.426 0.085 2.803-0.788 3.8l-0.022 0.025-1.171 1.171c1.646 2.631 3.835 4.82 6.381 6.39l1.152-1.152c1.007-1.007 2.511-1.236 3.794-0.851l0.015 0.004 0.014 0.005c1.15 0.384 2.296 0.669 3.536 0.86 1.83 0.282 3.048 1.839 3.048 3.688v3.9c0 0.976-0.413 1.927-1.093 2.607-0.763 0.763-1.871 0.993-2.707 0.993h-0.050l-0.050-0.005c-4.162-0.416-8.21-1.871-11.737-4.151-3.335-2.086-6.034-4.894-8.103-8.101-2.281-3.525-3.736-7.572-4.154-11.732-0.125-1.022 0.122-2.031 0.854-2.785z"></path>
</svg>
