<!-- Generated by IcoMoon.io -->
<svg version="1.1" xmlns="http://www.w3.org/2000/svg" width="32" height="32" viewBox="0 0 32 32">
<title>phone-pay-alt</title>
<path d="M9.2 14c0-1.148 0.852-2 2-2h3c0.552 0 1-0.448 1-1s-0.448-1-1-1h-2v-1c0-0.552-0.448-1-1-1s-1 0.448-1 1v1.12c-1.749 0.43-3 1.975-3 3.88 0 2.252 1.748 4 4 4 1.148 0 2 0.852 2 2s-0.852 2-2 2h-3c-0.552 0-1 0.448-1 1s0.448 1 1 1h2v1c0 0.552 0.448 1 1 1s1-0.448 1-1v-1.12c1.749-0.43 3-1.975 3-3.88 0-2.252-1.748-4-4-4-1.148 0-2-0.852-2-2z"></path>
<path d="M16.1 2c2.252 0 4 1.748 4 4v20c0 2.274-1.869 4-4 4h-10c-2.252 0-4-1.748-4-4v-20c0-2.252 1.748-4 4-4h10zM6.1 4c-1.148 0-2 0.852-2 2v20c0 1.148 0.852 2 2 2h10c1.070 0 2-0.874 2-2v-20c0-1.148-0.852-2-2-2h-1c0 1.216-1.014 2-2 2h-4c-0.527 0-1.044-0.18-1.432-0.568s-0.568-0.905-0.568-1.432h-1z"></path>
<path d="M26.479 5.166c-0.405-0.375-1.038-0.351-1.413 0.054s-0.351 1.038 0.054 1.413c2.49 2.306 3.979 5.637 3.979 9.366 0 3.621-1.485 6.871-3.807 9.193-0.39 0.391-0.39 1.024 0 1.414s1.024 0.39 1.414 0c2.678-2.678 4.393-6.428 4.393-10.607 0-4.271-1.711-8.139-4.621-10.834z"></path>
<path d="M22.157 7.931c0.369-0.41 1.002-0.444 1.412-0.074 2.215 1.994 3.531 4.866 3.531 8.143 0 3.187-1.322 6.045-3.511 8.125-0.401 0.38-1.033 0.364-1.414-0.036s-0.364-1.033 0.036-1.414c1.811-1.72 2.889-4.062 2.889-6.675 0-2.723-1.084-5.051-2.869-6.657-0.41-0.369-0.444-1.002-0.074-1.412z"></path>
</svg>
