<!-- Generated by IcoMoon.io -->
<svg version="1.1" xmlns="http://www.w3.org/2000/svg" width="32" height="32" viewBox="0 0 32 32">
<title>ping-download</title>
<path d="M27.52 1.020h-25.14c-0.277 0-0.543 0.11-0.739 0.306s-0.306 0.462-0.306 0.739c0 0.277 0.11 0.543 0.306 0.739s0.462 0.306 0.739 0.306h25.14c0.14-0.007 0.279 0.015 0.41 0.065s0.249 0.127 0.348 0.226 0.176 0.218 0.226 0.348c0.050 0.131 0.073 0.27 0.065 0.41v23c0.007 0.14-0.015 0.279-0.065 0.41s-0.127 0.249-0.226 0.348-0.218 0.176-0.348 0.226c-0.131 0.050-0.27 0.073-0.41 0.065h-23c-0.14 0.007-0.28-0.015-0.41-0.065s-0.249-0.127-0.348-0.226c-0.099-0.099-0.176-0.218-0.226-0.348s-0.072-0.27-0.065-0.41v-13c-0.007-0.14 0.015-0.28 0.065-0.41s0.127-0.249 0.226-0.348c0.099-0.099 0.218-0.176 0.348-0.226s0.27-0.072 0.41-0.065h11.19l-5.33 5.33c-0.101 0.099-0.179 0.218-0.23 0.35-0.056 0.128-0.086 0.265-0.086 0.405s0.029 0.277 0.086 0.405c0.049 0.133 0.128 0.252 0.23 0.35l5.33 5.33c0.199 0.2 0.469 0.313 0.751 0.314s0.553-0.11 0.753-0.309c0.2-0.199 0.313-0.469 0.314-0.752s-0.11-0.553-0.309-0.753l-3.51-3.52h10.8c0.265-0.026 0.51-0.149 0.689-0.346s0.278-0.453 0.278-0.719-0.099-0.522-0.278-0.719c-0.179-0.197-0.424-0.32-0.689-0.346h-10.84l5.33-5.26c0.097-0.102 0.175-0.221 0.23-0.35 0.056-0.128 0.086-0.265 0.086-0.405s-0.029-0.277-0.086-0.405c-0.055-0.13-0.133-0.248-0.23-0.35l-5.33-5.33c-0.098-0.101-0.215-0.182-0.345-0.237s-0.269-0.083-0.41-0.083-0.28 0.028-0.41 0.083c-0.13 0.055-0.247 0.136-0.345 0.237-0.1 0.098-0.179 0.214-0.233 0.343s-0.082 0.267-0.082 0.407c0 0.14 0.028 0.278 0.082 0.407s0.133 0.245 0.233 0.343l3.51 3.52h-11.19c-0.834 0-1.633 0.331-2.224 0.919s-0.923 1.387-0.926 2.221v13c0 0.835 0.332 1.637 0.923 2.227s1.392 0.923 2.227 0.923h23c0.835 0 1.637-0.332 2.227-0.923s0.923-1.392 0.923-2.227v-23c0-0.835-0.332-1.637-0.923-2.227s-1.392-0.923-2.227-0.923z"></path>
</svg>
