<!-- Generated by IcoMoon.io -->
<svg version="1.1" xmlns="http://www.w3.org/2000/svg" width="32" height="32" viewBox="0 0 32 32">
<title>plane</title>
<path d="M23.36 3.204c1.369-1.506 3.828-1.653 5.347-0.134s1.372 3.978-0.134 5.347l-0.001 0.001-4.862 4.403 3.263 13.725c0.080 0.338-0.020 0.693-0.266 0.938l-2 2c-0.217 0.217-0.521 0.322-0.825 0.286s-0.575-0.21-0.735-0.472l-6.272-10.272-6.874 6.195v3.555c0 0.404-0.244 0.769-0.617 0.924s-0.804 0.069-1.090-0.217l-6-6c-0.286-0.286-0.372-0.716-0.217-1.090s0.519-0.617 0.924-0.617h3.555l6.195-6.874-10.272-6.272c-0.262-0.16-0.436-0.431-0.472-0.735s0.069-0.609 0.286-0.825l2-2c0.245-0.245 0.601-0.346 0.938-0.266l13.725 3.263 4.404-4.863zM24.841 4.549c-0 0-0 0-0.001 0.001l-4.799 5.299c-0.245 0.27-0.618 0.386-0.973 0.302l-13.757-3.271-0.707 0.707 10.216 6.238c0.254 0.155 0.426 0.415 0.469 0.709s-0.048 0.592-0.247 0.813l-7.3 8.1c-0.19 0.21-0.46 0.331-0.743 0.331h-1.586l2.586 2.586v-1.586c0-0.283 0.12-0.553 0.331-0.743l8.1-7.3c0.221-0.199 0.519-0.29 0.814-0.247s0.554 0.215 0.709 0.468l6.238 10.216 0.707-0.707-3.271-13.757c-0.084-0.355 0.031-0.728 0.302-0.973l5.299-4.799c0-0 0-0 0.001-0.001 0.693-0.631 0.745-1.772 0.065-2.452s-1.822-0.628-2.452 0.065z"></path>
</svg>
