<!-- Generated by IcoMoon.io -->
<svg version="1.1" xmlns="http://www.w3.org/2000/svg" width="32" height="32" viewBox="0 0 32 32">
<title>plugin-tag</title>
<path d="M22.11 12.69c-0.006-0.228-0.080-0.449-0.211-0.634s-0.316-0.328-0.529-0.409c-0.213-0.081-0.445-0.097-0.667-0.046s-0.424 0.167-0.58 0.333c-0.156 0.166-0.259 0.374-0.297 0.599s-0.007 0.456 0.087 0.663c0.094 0.208 0.247 0.383 0.441 0.503s0.418 0.18 0.646 0.172c0.303-0.011 0.59-0.14 0.798-0.361s0.32-0.515 0.312-0.819zM9.4 18.69l8-8c0.146-0.146 0.343-0.229 0.55-0.23h4.6c0.207 0 0.405 0.082 0.552 0.228s0.229 0.345 0.229 0.552v4.6c0.001 0.102-0.019 0.204-0.059 0.298s-0.098 0.18-0.171 0.252l-8 8c-0.149 0.144-0.348 0.224-0.555 0.224s-0.406-0.080-0.555-0.224l-4.59-4.6c-0.073-0.072-0.132-0.157-0.171-0.252s-0.060-0.196-0.059-0.299c0.002-0.206 0.084-0.404 0.23-0.55zM7.070 19.24c0.002 0.373 0.079 0.742 0.225 1.085s0.358 0.654 0.625 0.915l4.59 4.6c0.541 0.537 1.273 0.838 2.035 0.838s1.494-0.301 2.035-0.838l8-8c0.533-0.53 0.835-1.249 0.84-2v-4.6c-0.003-0.762-0.307-1.492-0.847-2.030s-1.271-0.84-2.033-0.84h-4.54c-0.75 0.010-1.468 0.311-2 0.84l-8 8c-0.535 0.529-0.841 1.247-0.85 2l-0.080 0.030zM27.52 1.020h-25.14c-0.278 0-0.546 0.111-0.742 0.308s-0.308 0.464-0.308 0.742c0 0.278 0.111 0.546 0.308 0.742s0.464 0.308 0.742 0.308h25.14c0.14-0.007 0.279 0.015 0.41 0.065s0.249 0.127 0.348 0.226c0.099 0.099 0.176 0.218 0.226 0.348s0.073 0.27 0.065 0.41v23c0.007 0.14-0.015 0.279-0.065 0.41s-0.127 0.249-0.226 0.348c-0.099 0.099-0.218 0.176-0.348 0.226s-0.27 0.073-0.41 0.065h-23c-0.14 0.007-0.28-0.015-0.41-0.065s-0.249-0.127-0.348-0.226c-0.099-0.099-0.176-0.218-0.226-0.348s-0.072-0.27-0.065-0.41v-18.81c-0-0.136 0.027-0.27 0.081-0.395s0.131-0.237 0.23-0.331c0.098-0.094 0.214-0.166 0.342-0.213s0.263-0.068 0.398-0.061h9.38c0.278 0 0.546-0.111 0.742-0.308s0.307-0.464 0.307-0.742-0.111-0.546-0.307-0.742c-0.197-0.197-0.464-0.308-0.742-0.308h-9.42c-0.827-0-1.621 0.325-2.21 0.905s-0.927 1.368-0.94 2.195v18.85c0 0.835 0.332 1.637 0.923 2.227s1.392 0.923 2.227 0.923h23c0.835 0 1.637-0.332 2.227-0.923s0.923-1.392 0.923-2.227v-23c0.005-0.414-0.071-0.824-0.224-1.209s-0.381-0.734-0.67-1.031c-0.289-0.296-0.633-0.533-1.013-0.696s-0.789-0.25-1.202-0.255z"></path>
</svg>
