<!-- Generated by IcoMoon.io -->
<svg version="1.1" xmlns="http://www.w3.org/2000/svg" width="32" height="32" viewBox="0 0 32 32">
<title>plug</title>
<path d="M12 10c-2.252 0-4 1.748-4 4v11c0 1.148-0.852 2-2 2s-2-0.852-2-2v-6c0-0.552-0.448-1-1-1s-1 0.448-1 1v6c0 2.252 1.748 4 4 4s4-1.748 4-4v-11c0-1.148 0.852-2 2-2v3c0 2.252 1.748 4 4 4h8c0.552 0 1-0.448 1-1v-3h4c0.552 0 1-0.448 1-1s-0.448-1-1-1h-4v-4h4c0.552 0 1-0.448 1-1s-0.448-1-1-1h-4v-3c0-0.552-0.448-1-1-1h-8c-2.252 0-4 1.748-4 4v3zM14 7c0-1.148 0.852-2 2-2h7v12h-7c-1.148 0-2-0.852-2-2v-8z"></path>
</svg>
