<!-- Generated by IcoMoon.io -->
<svg version="1.1" xmlns="http://www.w3.org/2000/svg" width="32" height="32" viewBox="0 0 32 32">
<title>present</title>
<path d="M16 3.010c0.726-0.816 1.79-1.32 3-1.32 2.252 0 4 1.748 4 4 0 0.735-0.186 1.416-0.515 2h3.515c2.252 0 4 1.748 4 4v4c0 0.527-0.18 1.044-0.568 1.432s-0.905 0.568-1.432 0.568v8c0 2.252-1.748 4-4 4h-16c-2.252 0-4-1.748-4-4v-8c-0.527 0-1.044-0.18-1.432-0.568s-0.568-0.905-0.568-1.432v-4c0-2.252 1.748-4 4-4h3.515c-0.329-0.584-0.515-1.265-0.515-2 0-2.252 1.748-4 4-4 1.21 0 2.274 0.504 3 1.32zM13 3.69c-1.148 0-2 0.852-2 2s0.852 2 2 2h2v-2c0-1.148-0.852-2-2-2zM17 5.69v2h2c1.148 0 2-0.852 2-2s-0.852-2-2-2c-1.148 0-2 0.852-2 2zM17 9.69v6h11v-4c0-1.148-0.852-2-2-2h-9zM24 27.69c1.148 0 2-0.852 2-2v-8h-9v10h7zM15 27.69v-10h-9v8c0 1.148 0.852 2 2 2h7zM15 15.69v-6h-9c-1.148 0-2 0.852-2 2v4h11z"></path>
</svg>
