<!-- Generated by IcoMoon.io -->
<svg version="1.1" xmlns="http://www.w3.org/2000/svg" width="32" height="32" viewBox="0 0 32 32">
<title>printer</title>
<path d="M20.8 13.59c-0.552 0-1 0.448-1 1s0.448 1 1 1h3.2c0.552 0 1-0.448 1-1s-0.448-1-1-1h-3.2z"></path>
<path d="M25 2.69v7h1c2.252 0 4 1.748 4 4v8c0 2.252-1.748 4-4 4h-1v3h-18v-3h-1c-2.252 0-4-1.748-4-4v-8c0-2.252 1.748-4 4-4h1v-7h18zM23 9.69v-5h-14v5h14zM6 23.69h1v-6h18v6h1c1.148 0 2-0.852 2-2v-8c0-1.148-0.852-2-2-2h-20c-1.148 0-2 0.852-2 2v8c0 1.148 0.852 2 2 2zM23 19.69h-14v7h14v-7z"></path>
</svg>
