<!-- Generated by IcoMoon.io -->
<svg version="1.1" xmlns="http://www.w3.org/2000/svg" width="32" height="32" viewBox="0 0 32 32">
<title>process-between</title>
<path d="M15 2c-1.652 0-3 1.348-3 3v2c0 1.652 1.348 3 3 3h2c1.652 0 3-1.348 3-3v-2c0-1.652-1.348-3-3-3h-2zM14 5c0-0.548 0.452-1 1-1h2c0.548 0 1 0.452 1 1v2c0 0.548-0.452 1-1 1h-2c-0.548 0-1-0.452-1-1v-2z"></path>
<path d="M5.293 2.293c0.391-0.391 1.024-0.391 1.414 0l3.707 3.707-3.707 3.707c-0.391 0.39-1.024 0.39-1.414 0s-0.391-1.024 0-1.414l1.293-1.293h-0.586c-1.148 0-2 0.852-2 2v15c0 1.148 0.852 2 2 2h3c0.552 0 1 0.448 1 1s-0.448 1-1 1h-3c-2.252 0-4-1.748-4-4v-15c0-2.252 1.748-4 4-4h0.586l-1.293-1.293c-0.391-0.391-0.391-1.024 0-1.414z"></path>
<path d="M26.707 13.707l-1.293 1.293h0.586c1.148 0 2-0.852 2-2v-4c0-1.148-0.852-2-2-2h-3c-0.552 0-1-0.448-1-1s0.448-1 1-1h3c2.252 0 4 1.748 4 4v4c0 2.252-1.748 4-4 4h-0.586l1.293 1.293c0.39 0.39 0.39 1.024 0 1.414s-1.024 0.39-1.414 0l-3.707-3.707 3.707-3.707c0.39-0.39 1.024-0.39 1.414 0s0.39 1.024 0 1.414z"></path>
<path d="M12 15c0-1.652 1.348-3 3-3h2c1.652 0 3 1.348 3 3v2c0 1.652-1.348 3-3 3h-2c-1.652 0-3-1.348-3-3v-2zM15 14c-0.548 0-1 0.452-1 1v2c0 0.548 0.452 1 1 1h2c0.548 0 1-0.452 1-1v-2c0-0.548-0.452-1-1-1h-2z"></path>
<path d="M15 22c-1.652 0-3 1.348-3 3v2c0 1.652 1.348 3 3 3h2c1.652 0 3-1.348 3-3v-2c0-1.652-1.348-3-3-3h-2zM14 25c0-0.548 0.452-1 1-1h2c0.548 0 1 0.452 1 1v2c0 0.548-0.452 1-1 1h-2c-0.548 0-1-0.452-1-1v-2z"></path>
</svg>
