<!-- Generated by IcoMoon.io -->
<svg version="1.1" xmlns="http://www.w3.org/2000/svg" width="32" height="32" viewBox="0 0 32 32">
<title>projector</title>
<path d="M7 16c-0.552 0-1 0.448-1 1s0.448 1 1 1h3c0.552 0 1-0.448 1-1s-0.448-1-1-1h-3z"></path>
<path d="M21 6c3.009 0 5.501 2.215 5.934 5.104 1.784 0.407 3.066 1.966 3.066 3.896v4c0 2.252-1.748 4-4 4v2c0 0.552-0.448 1-1 1s-1-0.448-1-1v-2h-16v2c0 0.552-0.448 1-1 1s-1-0.448-1-1v-2c-2.252 0-4-1.748-4-4v-4c0-2.252 1.748-4 4-4h9.083c0.476-2.838 2.944-5 5.917-5zM21 8c-2.209 0-4 1.791-4 4s1.791 4 4 4 4-1.791 4-4c0-2.209-1.791-4-4-4zM26 21c1.148 0 2-0.852 2-2v-4c0-0.826-0.442-1.5-1.118-1.812-0.551 2.745-2.976 4.812-5.882 4.812-2.973 0-5.441-2.162-5.917-5h-9.083c-1.148 0-2 0.852-2 2v4c0 1.148 0.852 2 2 2h20z"></path>
</svg>
