<!-- Generated by IcoMoon.io -->
<svg version="1.1" xmlns="http://www.w3.org/2000/svg" width="32" height="32" viewBox="0 0 32 32">
<title>pulse</title>
<path d="M18.97 3.757c-0.113-0.452-0.524-0.766-0.99-0.757s-0.864 0.339-0.959 0.796l-4.11 19.726-3.941-15.765c-0.111-0.445-0.511-0.757-0.97-0.757s-0.859 0.312-0.97 0.757l-1.811 7.243h-2.219c-0.552 0-1 0.448-1 1s0.448 1 1 1h3c0.459 0 0.859-0.312 0.97-0.758l1.030-4.119 4.030 16.119c0.113 0.452 0.524 0.767 0.99 0.757s0.864-0.339 0.959-0.796l4.11-19.726 1.941 7.765c0.111 0.445 0.511 0.758 0.97 0.758h3c0.552 0 1-0.448 1-1s-0.448-1-1-1h-2.219l-2.811-11.243z"></path>
<path d="M27 15c-0.552 0-1 0.448-1 1s0.448 1 1 1h2c0.552 0 1-0.448 1-1s-0.448-1-1-1h-2z"></path>
</svg>
