<!-- Generated by IcoMoon.io -->
<svg version="1.1" xmlns="http://www.w3.org/2000/svg" width="32" height="32" viewBox="0 0 32 32">
<title>pyolite</title>
<path d="M15.55 12.57h0.92c0.289 0 0.566-0.115 0.771-0.319s0.319-0.482 0.319-0.771v-3.86c-0.032-0.393-0.21-0.761-0.5-1.028s-0.67-0.416-1.065-0.416-0.775 0.149-1.065 0.416c-0.29 0.268-0.469 0.635-0.5 1.028v3.85c0 0.144 0.028 0.287 0.084 0.419s0.137 0.254 0.239 0.355c0.102 0.101 0.224 0.181 0.357 0.236s0.276 0.081 0.42 0.080l0.020 0.010zM16.47 18.82h-0.92c-0.144 0-0.287 0.029-0.419 0.084s-0.254 0.137-0.355 0.239c-0.101 0.102-0.181 0.224-0.236 0.357s-0.081 0.276-0.080 0.42v3.83c0.031 0.393 0.21 0.761 0.5 1.028s0.67 0.416 1.065 0.416 0.775-0.149 1.065-0.416c0.29-0.268 0.468-0.635 0.5-1.028v-3.83c0-0.292-0.116-0.572-0.322-0.778s-0.486-0.322-0.778-0.322h-0.020zM24.080 14.13h-16.14c-0.393 0.031-0.761 0.21-1.028 0.5s-0.416 0.67-0.416 1.065c0 0.395 0.149 0.775 0.416 1.065s0.635 0.468 1.028 0.5h16.14c0.393-0.032 0.761-0.21 1.028-0.5s0.416-0.67 0.416-1.065-0.149-0.775-0.416-1.065c-0.268-0.29-0.635-0.469-1.028-0.5zM25.86 23.13c-0.233 0-0.457-0.093-0.622-0.258s-0.258-0.389-0.258-0.622 0.093-0.457 0.258-0.622c0.165-0.165 0.389-0.258 0.622-0.258 1.2 0 1.75-0.61 2.46-2.73 0.319-1.002 0.481-2.048 0.48-3.1-0.002-1.076-0.171-2.146-0.5-3.17v0.070c-0.58-2.36-1.56-2.68-2.44-2.68h-4.66c-0.123 0.013-0.247 0-0.364-0.038s-0.226-0.1-0.317-0.183c-0.092-0.083-0.165-0.183-0.215-0.296s-0.076-0.235-0.076-0.358 0.026-0.246 0.076-0.358c0.050-0.113 0.124-0.214 0.215-0.296s0.2-0.145 0.317-0.183c0.117-0.038 0.242-0.051 0.364-0.038h4.66c2.090 0 3.48 1.35 4.14 4 0.74 2.363 0.74 4.896 0 7.26v-0.080c-0.65 1.97-1.55 3.98-4.14 3.98v-0.040zM16 30.36c-1.224-0.011-2.44-0.199-3.61-0.56h0.090c-2.48-0.7-3.91-2.23-3.91-4.11-0.013-0.123-0-0.247 0.038-0.364s0.1-0.226 0.183-0.317c0.083-0.092 0.183-0.165 0.296-0.215s0.235-0.076 0.358-0.076 0.246 0.026 0.358 0.076c0.113 0.050 0.214 0.124 0.296 0.215s0.145 0.2 0.183 0.317 0.051 0.242 0.038 0.364c0 1.5 1.67 2.19 2.66 2.51 0.971 0.304 1.982 0.459 3 0.46 1.055 0.001 2.104-0.161 3.11-0.48h-0.070c1.78-0.52 2.66-1.36 2.66-2.51v-4.7c0.023-0.216 0.125-0.416 0.287-0.561s0.371-0.225 0.588-0.225 0.427 0.080 0.588 0.225c0.162 0.145 0.264 0.345 0.287 0.561v4.72c0 2-1.39 3.46-3.91 4.18-1.151 0.351-2.347 0.533-3.55 0.54l0.030-0.050zM9.44 11.16c-0.115 0-0.229-0.023-0.335-0.067s-0.203-0.109-0.283-0.191c-0.081-0.082-0.145-0.179-0.188-0.286s-0.065-0.221-0.063-0.336v-4.69c0-2.19 0.67-3.7 4-4.29 1.079-0.19 2.174-0.284 3.27-0.28h0.27c1.157-0.002 2.311 0.098 3.45 0.3h-0.12c1.065 0.126 2.050 0.625 2.783 1.409s1.163 1.801 1.217 2.871c-0.023 0.216-0.125 0.416-0.287 0.561s-0.371 0.225-0.588 0.225c-0.217 0-0.427-0.080-0.588-0.225s-0.264-0.345-0.287-0.561c-0.058-0.658-0.345-1.274-0.811-1.742s-1.081-0.757-1.739-0.818c-1.021-0.173-2.055-0.26-3.090-0.26h-0.25c-1.006 0.002-2.009 0.089-3 0.26h0.1c-2.45 0.44-2.57 1.17-2.57 2.56v4.69c0 0.228-0.088 0.448-0.247 0.612s-0.375 0.26-0.603 0.268l-0.040-0.010zM10.78 23.16h-4.46c-2.19 0-3.73-1.46-4.37-4-0.328-1.155-0.493-2.35-0.49-3.55 0.010-1.236 0.191-2.464 0.54-3.65v0.1c0.231-1.131 0.846-2.147 1.741-2.876s2.015-1.126 3.169-1.124h0.080c0.216 0.023 0.416 0.125 0.561 0.287s0.225 0.371 0.225 0.588c0 0.217-0.080 0.427-0.225 0.588s-0.345 0.264-0.561 0.287h-0.11c-0.761-0-1.498 0.264-2.085 0.747s-0.989 1.156-1.135 1.903c-0.287 1.022-0.432 2.079-0.43 3.14 0.001 1.092 0.152 2.179 0.45 3.23v-0.090c0.4 1.76 1.32 2.65 2.62 2.65h4.46c0.216 0.023 0.416 0.125 0.561 0.287s0.225 0.371 0.225 0.588-0.080 0.427-0.225 0.588c-0.145 0.162-0.345 0.264-0.561 0.287l0.020 0.020z"></path>
</svg>
