<!-- Generated by IcoMoon.io -->
<svg version="1.1" xmlns="http://www.w3.org/2000/svg" width="32" height="32" viewBox="0 0 32 32">
<title>python</title>
<path d="M30 12.050c0.718 2.316 0.718 4.794 0 7.11-0.74 2.13-1.49 3.53-3.53 3.53h-10.47v0.89h7v2.67c0 2-1.73 3-3.5 3.55-2.279 0.714-4.721 0.714-7 0-1.87-0.52-3.5-1.64-3.5-3.53v-6.67c0.005-0.931 0.374-1.824 1.028-2.487s1.541-1.045 2.472-1.063h7c1.162-0.031 2.267-0.51 3.084-1.338s1.281-1.939 1.296-3.102v-3.11h2.62c2.010 0 2.97 1.53 3.5 3.55zM12 5.84c-0.266 0.004-0.528-0.072-0.751-0.217s-0.398-0.354-0.502-0.599c-0.104-0.245-0.133-0.516-0.083-0.777s0.177-0.502 0.365-0.691c0.188-0.189 0.427-0.318 0.688-0.37s0.532-0.025 0.778 0.077c0.246 0.102 0.456 0.276 0.603 0.498s0.224 0.483 0.222 0.749c0 0.351-0.139 0.688-0.386 0.937s-0.583 0.39-0.934 0.393zM12.44 15.17h7c0.469 0.004 0.933-0.085 1.367-0.263s0.828-0.44 1.159-0.771c0.331-0.331 0.593-0.725 0.771-1.159s0.267-0.899 0.263-1.367v-6.66c-0.059-0.923-0.443-1.794-1.084-2.461s-1.497-1.084-2.416-1.179c-1.203-0.195-2.421-0.292-3.64-0.29-1.123 0.004-2.243 0.101-3.35 0.29-2.99 0.52-3.51 1.62-3.51 3.64v2.66h7v0.89h-9.64c-1.028-0.014-2.028 0.334-2.825 0.983s-1.341 1.558-1.535 2.567c-0.655 2.325-0.655 4.785 0 7.11 0.48 2.080 1.67 3.53 3.7 3.53h2.41v-3.2c0.026-1.148 0.495-2.242 1.31-3.051s1.912-1.271 3.060-1.289l-0.040 0.020z"></path>
</svg>
