<!-- Generated by IcoMoon.io -->
<svg version="1.1" xmlns="http://www.w3.org/2000/svg" width="32" height="32" viewBox="0 0 32 32">
<title>read</title>
<path d="M22.704 9.98c0.392 0.389 0.395 1.022 0.006 1.414l-11.614 11.721-5.81-5.924c-0.387-0.394-0.381-1.027 0.014-1.414s1.027-0.381 1.414 0.014l4.39 4.476 10.186-10.279c0.389-0.392 1.022-0.395 1.414-0.006z"></path>
<path d="M27.704 9.98c0.392 0.389 0.395 1.022 0.006 1.414l-11.715 11.823-0.995-1.327c-0.331-0.442-0.242-1.069 0.2-1.4 0.252-0.189 0.565-0.241 0.848-0.169l10.241-10.335c0.389-0.392 1.022-0.395 1.414-0.006z"></path>
<path d="M11.707 15.783c-0.39-0.39-1.024-0.39-1.414 0s-0.391 1.024 0 1.414l0.5 0.5c0.39 0.39 1.024 0.39 1.414 0s0.39-1.024 0-1.414l-0.5-0.5z"></path>
</svg>
