<!-- Generated by IcoMoon.io -->
<svg version="1.1" xmlns="http://www.w3.org/2000/svg" width="32" height="32" viewBox="0 0 32 32">
<title>repo-add</title>
<path d="M26 2h-17c-2.252 0-4 1.748-4 4v20c0 2.252 1.748 4 4 4h6c0.552 0 1-0.448 1-1s-0.448-1-1-1h-6c-1.148 0-2-0.852-2-2s0.852-2 2-2h4c0.552 0 1-0.448 1-1s-0.448-1-1-1h-1v-18h13v9.5c0 0.552 0.448 1 1 1s1-0.448 1-1v-10.5c0-0.552-0.448-1-1-1zM9 4h1v18h-1c-0.735 0-1.416 0.186-2 0.515v-16.515c0-1.148 0.852-2 2-2z"></path>
<path d="M23 19c0.552 0 1 0.448 1 1v2h2c0.552 0 1 0.448 1 1s-0.448 1-1 1h-2v2c0 0.552-0.448 1-1 1s-1-0.448-1-1v-2h-2c-0.552 0-1-0.448-1-1s0.448-1 1-1h2v-2c0-0.552 0.448-1 1-1z"></path>
<path d="M23 15c-4.418 0-8 3.582-8 8s3.582 8 8 8c4.418 0 8-3.582 8-8s-3.582-8-8-8zM17 23c0-3.314 2.686-6 6-6s6 2.686 6 6c0 3.314-2.686 6-6 6s-6-2.686-6-6z"></path>
</svg>
