<!-- Generated by IcoMoon.io -->
<svg version="1.1" xmlns="http://www.w3.org/2000/svg" width="32" height="32" viewBox="0 0 32 32">
<title>role-admin</title>
<path d="M22 26c-0.552 0-1 0.448-1 1s0.448 1 1 1h2c0.552 0 1-0.448 1-1s-0.448-1-1-1h-2z"></path>
<path d="M13.084 1.551l-0.046 0.015-0.105 0.047c-0.857 0.381-1.872 0.831-2.684 1.528-0.716 0.613-1.414 1.295-1.9 2.133-0.475 0.723-0.749 1.503-0.749 2.326v4.7c0 0.467 0.075 0.952 0.15 1.44 0.021 0.134 0.041 0.268 0.060 0.401 0.113 0.793 0.339 1.578 0.671 2.352l0.009 0.020c0.295 0.688 0.614 1.432 1.042 2.182l0.017 0.030 0.019 0.029c0.413 0.62 0.933 1.255 1.566 1.806l-1.362 0.639c-0.136 0.004-0.273 0.035-0.403 0.098-0.126 0.060-0.233 0.143-0.319 0.241l-5.905 2.77-0.826 0.459c-0.239 0.072-0.481 0.178-0.692 0.325-0.202 0.141-0.627 0.502-0.627 1.107v0.8c0 2.152 1.848 4 4 4h22c2.252 0 4-1.748 4-4v-0.8c0-0.568-0.387-0.927-0.517-1.040-0.176-0.154-0.37-0.27-0.515-0.343l-0.913-0.507-6.093-2.858c-0.055-0.049-0.116-0.092-0.184-0.129-0.105-0.057-0.215-0.093-0.327-0.111l-1.385-0.65c0.597-0.509 1.15-1.075 1.601-1.865l0.029-0.051c0.37-0.647 0.808-1.413 1.046-2.209 0.167-0.402 0.276-0.791 0.364-1.143 0.035-0.141 0.066-0.269 0.095-0.39 0.052-0.218 0.099-0.415 0.159-0.628l0.019-0.066 0.010-0.068c0.015-0.105 0.031-0.212 0.047-0.319 0.080-0.546 0.163-1.11 0.163-1.522v-4.7c0-0.823-0.274-1.603-0.749-2.326-0.486-0.839-1.185-1.52-1.9-2.133-0.817-0.7-1.73-1.148-2.645-1.555l-0.058-0.026-0.061-0.018c-1.032-0.31-2.042-0.542-3.087-0.542s-2.058 0.232-3.016 0.551zM20.064 22.3l0.739 0.347c-1.137 1.409-2.892 2.353-4.803 2.353-1.931 0-3.663-0.888-4.727-2.295l0.874-0.411c1.196-0.598 1.492-2.273 0.387-3.168-0.499-0.417-0.928-0.926-1.283-1.453-0.359-0.633-0.634-1.272-0.932-1.968-0.268-0.626-0.442-1.241-0.529-1.848-0.029-0.201-0.055-0.375-0.079-0.53-0.068-0.444-0.111-0.728-0.111-1.029v-4.7c0-0.366 0.119-0.776 0.432-1.245l0.019-0.029 0.017-0.030c0.313-0.548 0.807-1.058 1.483-1.637 0.559-0.48 1.301-0.821 2.21-1.226 0.825-0.272 1.598-0.434 2.339-0.434 0.739 0 1.512 0.161 2.452 0.44 0.857 0.383 1.527 0.731 2.097 1.22 0.676 0.579 1.17 1.089 1.483 1.637l0.017 0.030 0.019 0.029c0.313 0.469 0.432 0.88 0.432 1.245v4.7c0 0.252-0.055 0.626-0.134 1.175-0.015 0.1-0.030 0.206-0.046 0.318-0.065 0.235-0.124 0.482-0.177 0.706l-0 0.001c-0.026 0.11-0.051 0.214-0.075 0.308-0.083 0.331-0.168 0.621-0.287 0.899l-0.025 0.058-0.017 0.061c-0.16 0.561-0.492 1.152-0.907 1.879-0.316 0.552-0.714 0.962-1.266 1.423-1.105 0.895-0.809 2.57 0.387 3.168l0.011 0.006zM4.056 26.091l5.377-2.523c1.422 2.119 3.876 3.432 6.567 3.432 2.738 0 5.184-1.429 6.653-3.485l5.491 2.576 0.856 0.475v0.434c0 1.148-0.852 2-2 2h-22c-1.048 0-2-0.952-2-2v-0.344l0.070-0.018 0.985-0.547z"></path>
</svg>
