<!-- Generated by IcoMoon.io -->
<svg version="1.1" xmlns="http://www.w3.org/2000/svg" width="32" height="32" viewBox="0 0 32 32">
<title>role-user</title>
<path d="M16.1 1c1.045 0 2.055 0.232 3.087 0.542l0.061 0.018 0.058 0.026c0.915 0.407 1.828 0.855 2.645 1.555 0.716 0.613 1.414 1.295 1.9 2.133 0.475 0.723 0.749 1.503 0.749 2.326v4.7c0 0.412-0.083 0.977-0.164 1.523-0.016 0.107-0.032 0.214-0.047 0.319l-0.010 0.068-0.019 0.066c-0.061 0.213-0.108 0.41-0.159 0.628-0.029 0.121-0.059 0.249-0.095 0.39-0.088 0.352-0.197 0.742-0.364 1.143-0.238 0.796-0.677 1.562-1.046 2.209l-0.029 0.051c-0.451 0.79-1.005 1.356-1.601 1.865l1.385 0.65c0.111 0.017 0.222 0.054 0.327 0.111 0.067 0.037 0.129 0.080 0.184 0.129l6.093 2.858 0.913 0.507c0.145 0.074 0.338 0.189 0.515 0.343 0.13 0.113 0.517 0.472 0.517 1.040v0.8c0 2.252-1.748 4-4 4h-22c-2.152 0-4-1.848-4-4v-0.8c0-0.605 0.425-0.965 0.627-1.107 0.21-0.147 0.452-0.253 0.691-0.325l0.826-0.459 5.905-2.77c0.086-0.098 0.194-0.181 0.319-0.241 0.13-0.062 0.267-0.094 0.403-0.098l1.362-0.639c-0.633-0.551-1.153-1.186-1.566-1.806l-0.019-0.029-0.017-0.030c-0.428-0.75-0.747-1.494-1.042-2.182l-0.009-0.020c-0.332-0.774-0.557-1.559-0.671-2.352-0.019-0.134-0.040-0.268-0.060-0.401-0.075-0.488-0.15-0.973-0.15-1.44v-4.7c0-0.823 0.274-1.603 0.749-2.326 0.486-0.839 1.185-1.52 1.9-2.133 0.812-0.696 1.826-1.147 2.684-1.528l0.105-0.047 0.046-0.015c0.958-0.319 1.971-0.551 3.016-0.551zM20.803 22.647l-0.75-0.352c-1.196-0.598-1.492-2.273-0.387-3.168 0.552-0.46 0.95-0.87 1.266-1.423 0.415-0.726 0.746-1.317 0.907-1.879l0.017-0.061 0.025-0.058c0.119-0.278 0.204-0.568 0.287-0.899 0.023-0.094 0.048-0.198 0.075-0.308 0.053-0.224 0.113-0.472 0.178-0.706 0.016-0.112 0.032-0.218 0.046-0.318 0.080-0.548 0.134-0.923 0.134-1.175v-4.7c0-0.366-0.119-0.776-0.432-1.245l-0.019-0.029-0.017-0.030c-0.313-0.548-0.807-1.058-1.483-1.637-0.57-0.489-1.24-0.836-2.097-1.22-0.94-0.279-1.713-0.44-2.452-0.44-0.741 0-1.514 0.162-2.339 0.434-0.91 0.405-1.651 0.746-2.21 1.226-0.676 0.579-1.17 1.089-1.483 1.637l-0.017 0.030-0.019 0.029c-0.313 0.469-0.432 0.88-0.432 1.245v4.7c0 0.301 0.043 0.585 0.111 1.028 0.024 0.155 0.050 0.329 0.079 0.53 0.087 0.607 0.261 1.222 0.529 1.848 0.298 0.696 0.573 1.335 0.932 1.968 0.354 0.527 0.784 1.036 1.283 1.453 1.105 0.895 0.809 2.57-0.387 3.168l-0.011 0.006-0.863 0.405c1.064 1.407 2.796 2.295 4.727 2.295 1.91 0 3.666-0.944 4.803-2.353zM9.433 23.568l-5.377 2.523-0.985 0.547-0.070 0.018v0.344c0 1.048 0.952 2 2 2h22c1.148 0 2-0.852 2-2v-0.434l-0.856-0.475-5.491-2.576c-1.47 2.056-3.915 3.485-6.653 3.485-2.692 0-5.146-1.313-6.567-3.432z"></path>
</svg>
