<!-- Generated by IcoMoon.io -->
<svg version="1.1" xmlns="http://www.w3.org/2000/svg" width="32" height="32" viewBox="0 0 32 32">
<title>role-super-admin</title>
<path d="M13.084 1.551l-0.046 0.015-0.105 0.047c-0.857 0.381-1.872 0.831-2.684 1.528-0.716 0.613-1.414 1.295-1.9 2.133-0.475 0.723-0.749 1.503-0.749 2.326v4.7c0 0.467 0.075 0.952 0.15 1.44 0.021 0.134 0.041 0.268 0.060 0.401 0.113 0.793 0.339 1.578 0.671 2.352l0.009 0.020c0.295 0.688 0.614 1.432 1.042 2.182l0.017 0.030 0.019 0.029c0.392 0.588 0.88 1.189 1.468 1.72-0.098 0.067-0.185 0.152-0.256 0.253l-2.507 1.176c-0.306-0.022-0.619 0.096-0.834 0.348-0.019 0.022-0.037 0.045-0.054 0.069l-4.242 1.99-0.826 0.459c-0.239 0.072-0.481 0.178-0.692 0.325-0.202 0.141-0.627 0.502-0.627 1.107v0.8c0 2.152 1.848 4 4 4h22c2.252 0 4-1.748 4-4v-0.8c0-0.568-0.387-0.927-0.517-1.040-0.176-0.154-0.37-0.27-0.515-0.343l-0.913-0.507-4.585-2.151c-0.151-0.137-0.336-0.22-0.528-0.248l-2.679-1.257c-0.043-0.051-0.091-0.097-0.143-0.138 0.576-0.497 1.11-1.053 1.548-1.819l0.029-0.051c0.37-0.647 0.808-1.413 1.046-2.209 0.167-0.402 0.276-0.791 0.364-1.143 0.035-0.141 0.066-0.269 0.095-0.39 0.052-0.218 0.099-0.415 0.159-0.628l0.019-0.066 0.010-0.068c0.015-0.105 0.031-0.212 0.047-0.319 0.080-0.546 0.163-1.11 0.163-1.522v-4.7c0-0.823-0.274-1.603-0.749-2.326-0.486-0.839-1.185-1.52-1.9-2.133-0.817-0.7-1.73-1.148-2.645-1.555l-0.058-0.026-0.061-0.018c-1.032-0.31-2.042-0.542-3.087-0.542s-2.058 0.232-3.016 0.551zM20 29v-1.539l3.923-3.351 4.221 1.98 0.856 0.475v0.434c0 1.148-0.852 2-2 2h-7zM18 27.334v1.666h-4v-1.666l2-2.667 2 2.667zM12 29h-7c-1.048 0-2-0.952-2-2v-0.344l0.070-0.018 0.985-0.547 4.092-1.92 3.852 3.29v1.539zM21.935 23.178l-2.774 2.37-1.562-2.083 2.741-1.036 1.595 0.748zM14.408 23.457l-1.568 2.091-2.704-2.309 1.674-0.785 2.598 1.004zM19.666 19.127c-0.546 0.442-0.75 1.075-0.672 1.674l-2.99 1.129-2.804-1.084c0.094-0.612-0.106-1.266-0.666-1.719-0.499-0.417-0.928-0.926-1.283-1.453-0.359-0.633-0.634-1.272-0.932-1.968-0.268-0.626-0.442-1.241-0.529-1.848-0.029-0.201-0.055-0.375-0.079-0.53-0.068-0.444-0.111-0.728-0.111-1.029v-4.7c0-0.366 0.119-0.776 0.432-1.245l0.019-0.029 0.017-0.030c0.313-0.548 0.807-1.058 1.483-1.637 0.559-0.48 1.301-0.821 2.21-1.226 0.825-0.272 1.598-0.434 2.339-0.434 0.739 0 1.512 0.161 2.452 0.44 0.857 0.383 1.527 0.731 2.097 1.22 0.676 0.579 1.17 1.089 1.483 1.637l0.017 0.030 0.019 0.029c0.313 0.469 0.432 0.88 0.432 1.245v4.7c0 0.252-0.055 0.626-0.134 1.175-0.015 0.1-0.030 0.206-0.046 0.318-0.065 0.235-0.124 0.482-0.177 0.705l-0 0.001-0 0.002c-0.026 0.109-0.051 0.213-0.074 0.307-0.083 0.331-0.168 0.621-0.287 0.899l-0.025 0.058-0.017 0.061c-0.16 0.561-0.492 1.152-0.907 1.879-0.316 0.552-0.714 0.962-1.266 1.423z"></path>
</svg>
