<!-- Generated by IcoMoon.io -->
<svg version="1.1" xmlns="http://www.w3.org/2000/svg" width="32" height="32" viewBox="0 0 32 32">
<title>room</title>
<path d="M20 2c-0.552 0-1 0.448-1 1s0.448 1 1 1h6c1.148 0 2 0.852 2 2v0.008l0.084 5.038c-4.526 0.462-8.084 4.31-8.084 8.954v1h8v5c0 1.148-0.852 2-2 2h-20c-1.148 0-2-0.852-2-2v-5c0-0.552-0.448-1-1-1s-1 0.448-1 1v5c0 2.252 1.748 4 4 4h20c2.252 0 4-1.748 4-4v-6c0-0.552-0.448-1-1-1h-6.928c0.489-3.379 3.42-6 6.928-6 0.017 0 0.033-0 0.050-0.001 0.022 0.001 0.044 0.001 0.067 0.001 0.552-0.009 0.992-0.464 0.983-1.017l-0.1-5.992c-0.005-2.248-1.751-3.991-4-3.991h-6z"></path>
<path d="M6 2c-2.252 0-4 1.748-4 4v6c0 0.552 0.448 1 1 1s1-0.448 1-1v-6c0-1.148 0.852-2 2-2h6c0.552 0 1-0.448 1-1s-0.448-1-1-1h-6z"></path>
</svg>
