<!-- Generated by IcoMoon.io -->
<svg version="1.1" xmlns="http://www.w3.org/2000/svg" width="32" height="32" viewBox="0 0 32 32">
<title>routing-away</title>
<path d="M19.707 9.293l-2.99-2.99c-0.007-0.007-0.014-0.014-0.021-0.021l-0.697-0.697-0.697 0.697c-0.007 0.007-0.014 0.014-0.021 0.021l-2.99 2.99c-0.39 0.391-0.39 1.024 0 1.414s1.024 0.39 1.414 0l1.293-1.293v3.586c0 0.552 0.448 1 1 1s1-0.448 1-1v-3.586l1.293 1.293c0.39 0.39 1.024 0.39 1.414 0s0.39-1.024 0-1.414z"></path>
<path d="M17 19v3.586l1.293-1.293c0.39-0.39 1.024-0.39 1.414 0s0.39 1.024 0 1.414l-3.707 3.707-3.707-3.707c-0.39-0.39-0.39-1.024 0-1.414s1.024-0.39 1.414 0l1.293 1.293v-3.586c0-0.552 0.448-1 1-1s1 0.448 1 1z"></path>
<path d="M22.707 12.293c-0.39-0.39-1.024-0.39-1.414 0s-0.39 1.024 0 1.414l1.293 1.293h-3.586c-0.552 0-1 0.448-1 1s0.448 1 1 1h3.586l-1.293 1.293c-0.39 0.39-0.39 1.024 0 1.414s1.024 0.39 1.414 0l3.707-3.707-3.707-3.707z"></path>
<path d="M10.707 12.293c0.39 0.39 0.39 1.024 0 1.414l-1.293 1.293h3.586c0.552 0 1 0.448 1 1s-0.448 1-1 1h-3.586l1.293 1.293c0.39 0.39 0.39 1.024 0 1.414s-1.024 0.39-1.414 0l-3.707-3.707 3.707-3.707c0.391-0.39 1.024-0.39 1.414 0z"></path>
<path d="M2 16c0-7.732 6.268-14 14-14s14 6.268 14 14c0 7.732-6.268 14-14 14s-14-6.268-14-14zM16 4c-6.627 0-12 5.373-12 12s5.373 12 12 12c6.627 0 12-5.373 12-12s-5.373-12-12-12z"></path>
</svg>
