<!-- Generated by IcoMoon.io -->
<svg version="1.1" xmlns="http://www.w3.org/2000/svg" width="32" height="32" viewBox="0 0 32 32">
<title>router</title>
<path d="M7 24c-0.552 0-1 0.448-1 1s0.448 1 1 1h3c0.552 0 1-0.448 1-1s-0.448-1-1-1h-3z"></path>
<path d="M19 25c0-0.552 0.448-1 1-1h1c0.552 0 1 0.448 1 1s-0.448 1-1 1h-1c-0.552 0-1-0.448-1-1z"></path>
<path d="M16 24c-0.552 0-1 0.448-1 1s0.448 1 1 1h1c0.552 0 1-0.448 1-1s-0.448-1-1-1h-1z"></path>
<path d="M23 25c0-0.552 0.448-1 1-1h1c0.552 0 1 0.448 1 1s-0.448 1-1 1h-1c-0.552 0-1-0.448-1-1z"></path>
<path d="M12 3v6h10c1.625 0 2.96 0.959 3.608 2.381l4.289 9.176c0.035 0.071 0.062 0.147 0.079 0.226s0.025 0.159 0.024 0.238v4.979c0 2.252-1.748 4-4 4h-20c-2.252 0-4-1.748-4-4v-4.979c-0.002-0.078 0.006-0.156 0.023-0.234s0.043-0.152 0.076-0.222l4.19-9.179c0.656-1.442 2.103-2.386 3.61-2.386h0.1v-6c0-0.552 0.448-1 1-1s1 0.448 1 1zM9.9 11c-0.692 0-1.445 0.457-1.79 1.214l-3.555 7.786h22.873l-3.639-7.786c-0.352-0.775-1.016-1.214-1.79-1.214h-12.1zM4 22v4c0 1.148 0.852 2 2 2h20c1.148 0 2-0.852 2-2v-4h-24z"></path>
</svg>
