<!-- Generated by IcoMoon.io -->
<svg version="1.1" xmlns="http://www.w3.org/2000/svg" width="32" height="32" viewBox="0 0 32 32">
<title>ruler</title>
<path d="M23.699 3c-0.266 0-0.52 0.106-0.708 0.295l-2.564 2.577c-0.128 0.052-0.248 0.131-0.35 0.237-0.092 0.096-0.16 0.206-0.207 0.322l-2.22 2.232c-0.123 0.046-0.239 0.117-0.34 0.214-0.114 0.109-0.197 0.239-0.248 0.378l-2.375 2.387c-0.069 0.041-0.134 0.092-0.193 0.151-0.061 0.061-0.112 0.127-0.154 0.197l-2.42 2.433c-0.081 0.044-0.157 0.101-0.226 0.17-0.070 0.070-0.127 0.148-0.172 0.23l-2.307 2.318c-0.161 0.048-0.313 0.137-0.437 0.268-0.114 0.12-0.193 0.261-0.237 0.41l-2.106 2.117c-0.157 0.043-0.306 0.125-0.431 0.247-0.134 0.13-0.223 0.288-0.268 0.456l-2.443 2.456c-0.389 0.391-0.388 1.023 0.002 1.412l3.486 3.486c1.515 1.633 4.061 1.581 5.628 0.014l15.5-15.5c1.59-1.591 1.59-4.124 0-5.714l-3.5-3.5c-0.188-0.188-0.443-0.293-0.708-0.293zM20.877 8.256l1.433 1.368c0.399 0.381 1.032 0.367 1.414-0.033s0.367-1.033-0.033-1.414l-1.403-1.339 1.414-1.421 2.791 2.791c0.809 0.809 0.809 2.076 0 2.886l-15.5 15.5c-0.827 0.827-2.068 0.781-2.756 0.031-0.010-0.011-0.020-0.021-0.030-0.031l-2.795-2.795 1.371-1.378 2.7 2.777c0.385 0.396 1.018 0.405 1.414 0.020s0.405-1.018 0.020-1.414l-2.723-2.8 1.412-1.419 1.404 1.34c0.399 0.381 1.033 0.367 1.414-0.033s0.367-1.032-0.033-1.414l-1.374-1.311 1.414-1.421 1.363 1.363c0.39 0.39 1.024 0.39 1.414 0s0.39-1.024 0-1.414l-1.366-1.366 1.382-1.389 2.77 2.77c0.39 0.39 1.024 0.39 1.414 0s0.39-1.024 0-1.414l-2.773-2.773 1.414-1.421 1.329 1.392c0.381 0.399 1.014 0.414 1.414 0.033s0.414-1.014 0.033-1.414l-1.364-1.429 1.418-1.425z"></path>
</svg>
