<!-- Generated by IcoMoon.io -->
<svg version="1.1" xmlns="http://www.w3.org/2000/svg" width="32" height="32" viewBox="0 0 32 32">
<title>safe-simple</title>
<path d="M16.11 13h6.89c1.652 0 3 1.348 3 3s-1.348 3-3 3h-6.889c-0.981 1.505-2.68 2.5-4.611 2.5-3.038 0-5.5-2.462-5.5-5.5s2.462-5.5 5.5-5.5c1.931 0 3.629 0.995 4.611 2.5zM11.5 12.5c-1.933 0-3.5 1.567-3.5 3.5s1.567 3.5 3.5 3.5c1.295 0 2.426-0.703 3.031-1.749 0.036-0.14 0.101-0.267 0.189-0.377 0.18-0.422 0.28-0.886 0.28-1.374s-0.1-0.952-0.28-1.374c-0.088-0.109-0.153-0.237-0.189-0.377-0.605-1.046-1.736-1.749-3.031-1.749zM16.909 15c0.060 0.324 0.091 0.659 0.091 1s-0.031 0.676-0.091 1h6.091c0.548 0 1-0.452 1-1s-0.452-1-1-1h-6.091z"></path>
<path d="M2 6c0-2.252 1.748-4 4-4h20c2.252 0 4 1.748 4 4v20c0 2.252-1.748 4-4 4h-20c-2.252 0-4-1.748-4-4v-20zM6 4c-1.148 0-2 0.852-2 2v20c0 1.148 0.852 2 2 2h20c1.148 0 2-0.852 2-2v-20c0-1.148-0.852-2-2-2h-20z"></path>
</svg>
