<!-- Generated by IcoMoon.io -->
<svg version="1.1" xmlns="http://www.w3.org/2000/svg" width="32" height="32" viewBox="0 0 32 32">
<title>safe-alt</title>
<path d="M13.974 16h3.126c0.552 0 1-0.448 1-1s-0.448-1-1-1h-3.126c-0.444-1.725-2.010-3-3.874-3-2.209 0-4 1.791-4 4s1.791 4 4 4c1.864 0 3.43-1.275 3.874-3zM8.1 15c0-1.105 0.895-2 2-2s1.999 0.895 2 1.998v0.002c0 1.105-0.895 2-2 2s-2-0.895-2-2z"></path>
<path d="M9.1 28h14v1c0 0.552 0.448 1 1 1s1-0.448 1-1v-1h0.9c2.252 0 4-1.748 4-4v-18c0-2.252-1.748-4-4-4h-20c-2.252 0-4 1.748-4 4v18c0 2.252 1.748 4 4 4h1.1v1c0 0.552 0.448 1 1 1s1-0.448 1-1v-1zM4 6c0-1.148 0.852-2 2-2h15.1v4h-1c-0.552 0-1 0.448-1 1s0.448 1 1 1h1v10h-1c-0.552 0-1 0.448-1 1s0.448 1 1 1h1v4h-15.1c-1.148 0-2-0.852-2-2v-18zM26 26h-2.9v-4h1c0.552 0 1-0.448 1-1s-0.448-1-1-1h-1v-10h1c0.552 0 1-0.448 1-1s-0.448-1-1-1h-1v-4h2.9c1.148 0 2 0.852 2 2v18c0 1.148-0.852 2-2 2z"></path>
</svg>
