<!-- Generated by IcoMoon.io -->
<svg version="1.1" xmlns="http://www.w3.org/2000/svg" width="32" height="32" viewBox="0 0 32 32">
<title>section-alt</title>
<path d="M15 5c-1.648 0-3 1.352-3 3s1.352 3 3 3h5c2.752 0 5 2.248 5 5 0 2.435-1.76 4.476-4.072 4.913 0.671 0.851 1.072 1.924 1.072 3.087 0 2.752-2.248 5-5 5h-5c-2.752 0-5-2.248-5-5 0-0.552 0.448-1 1-1s1 0.448 1 1c0 1.648 1.352 3 3 3h5c1.648 0 3-1.352 3-3s-1.352-3-3-3h-5c-2.752 0-5-2.248-5-5 0-2.435 1.76-4.476 4.072-4.913-0.671-0.851-1.072-1.924-1.072-3.087 0-2.752 2.248-5 5-5h5c2.752 0 5 2.248 5 5 0 0.552-0.448 1-1 1s-1-0.448-1-1c0-1.648-1.352-3-3-3h-5zM20 19c1.648 0 3-1.352 3-3s-1.352-3-3-3h-8c-1.648 0-3 1.352-3 3s1.352 3 3 3h8z"></path>
</svg>
