<!-- Generated by IcoMoon.io -->
<svg version="1.1" xmlns="http://www.w3.org/2000/svg" width="32" height="32" viewBox="0 0 32 32">
<title>section</title>
<path d="M11 7v1c0 1.648 1.352 3 3 3h4c2.752 0 5 2.248 5 5 0 1.632-0.79 3.086-2.007 4 1.217 0.914 2.007 2.368 2.007 4v1c0 2.752-2.248 5-5 5h-4c-2.752 0-5-2.248-5-5 0-0.552 0.448-1 1-1s1 0.448 1 1c0 1.648 1.352 3 3 3h4c1.648 0 3-1.352 3-3v-1c0-1.648-1.352-3-3-3h-4c-2.752 0-5-2.248-5-5 0-1.632 0.79-3.086 2.007-4-1.217-0.914-2.007-2.368-2.007-4v-1c0-2.752 2.248-5 5-5h4c2.752 0 5 2.248 5 5 0 0.552-0.448 1-1 1s-1-0.448-1-1c0-1.648-1.352-3-3-3h-4c-1.648 0-3 1.352-3 3zM18 19c1.648 0 3-1.352 3-3s-1.352-3-3-3h-4c-1.648 0-3 1.352-3 3s1.352 3 3 3h4z"></path>
</svg>
