<!-- Generated by IcoMoon.io -->
<svg version="1.1" xmlns="http://www.w3.org/2000/svg" width="32" height="32" viewBox="0 0 32 32">
<title>semaphore</title>
<path d="M16 6c-1.657 0-3 1.343-3 3s1.343 3 3 3 3-1.343 3-3c0-1.657-1.343-3-3-3zM15 9c0-0.552 0.448-1 1-1s1 0.448 1 1c0 0.552-0.448 1-1 1s-1-0.448-1-1z"></path>
<path d="M13 16c0-1.657 1.343-3 3-3s3 1.343 3 3c0 1.657-1.343 3-3 3s-3-1.343-3-3zM16 15c-0.552 0-1 0.448-1 1s0.448 1 1 1c0.552 0 1-0.448 1-1s-0.448-1-1-1z"></path>
<path d="M16 20c-1.657 0-3 1.343-3 3s1.343 3 3 3c1.657 0 3-1.343 3-3s-1.343-3-3-3zM15 23c0-0.552 0.448-1 1-1s1 0.448 1 1c0 0.552-0.448 1-1 1s-1-0.448-1-1z"></path>
<path d="M9 20h-4v2c0 2.252 1.748 4 4 4 0 2.252 1.748 4 4 4h6c2.252 0 4-1.748 4-4 2.252 0 4-1.748 4-4v-2h-4v-1c2.252 0 4-1.748 4-4v-2h-4v-1c2.252 0 4-1.748 4-4v-2h-4c0-2.252-1.748-4-4-4h-6c-2.252 0-4 1.748-4 4h-4v2c0 2.252 1.748 4 4 4v1h-4v2c0 2.252 1.748 4 4 4v1zM11 6c0-1.148 0.852-2 2-2h6c1.148 0 2 0.852 2 2v20c0 1.148-0.852 2-2 2h-6c-1.148 0-2-0.852-2-2v-20zM9 24c-1.148 0-2-0.852-2-2h2v2zM9 15v2c-1.148 0-2-0.852-2-2h2zM9 10c-1.148 0-2-0.852-2-2h2v2zM25 22c0 1.148-0.852 2-2 2v-2h2zM23 15h2c0 1.148-0.852 2-2 2v-2zM25 8c0 1.148-0.852 2-2 2v-2h2z"></path>
</svg>
