<!-- Generated by IcoMoon.io -->
<svg version="1.1" xmlns="http://www.w3.org/2000/svg" width="32" height="32" viewBox="0 0 32 32">
<title>server-link</title>
<path d="M6 8c0-0.552 0.448-1 1-1h6c0.552 0 1 0.448 1 1s-0.448 1-1 1h-6c-0.552 0-1-0.448-1-1z"></path>
<path d="M16 8c0-0.552 0.448-1 1-1h1c0.552 0 1 0.448 1 1s-0.448 1-1 1h-1c-0.552 0-1-0.448-1-1z"></path>
<path d="M7 15c-0.552 0-1 0.448-1 1s0.448 1 1 1h6c0.552 0 1-0.448 1-1s-0.448-1-1-1h-6z"></path>
<path d="M17 15c-0.552 0-1 0.448-1 1s0.448 1 1 1h1c0.552 0 1-0.448 1-1s-0.448-1-1-1h-1z"></path>
<path d="M2 7c0-2.252 1.748-4 4-4h20c2.252 0 4 1.748 4 4v10c0 2.252-1.748 4-4 4h-9v3.268c0.304 0.176 0.557 0.429 0.732 0.732h11.268c0.552 0 1 0.448 1 1s-0.448 1-1 1h-11.268c-0.346 0.598-0.992 1-1.732 1s-1.387-0.402-1.732-1h-11.268c-0.552 0-1-0.448-1-1s0.448-1 1-1h11.268c0.176-0.304 0.429-0.557 0.732-0.732v-3.268h-9c-2.252 0-4-1.748-4-4v-10zM6 5c-1.148 0-2 0.852-2 2v4h24v-4c0-1.148-0.852-2-2-2h-20zM26 19c1.148 0 2-0.852 2-2v-4h-24v4c0 1.148 0.852 2 2 2h20z"></path>
</svg>
