<!-- Generated by IcoMoon.io -->
<svg version="1.1" xmlns="http://www.w3.org/2000/svg" width="32" height="32" viewBox="0 0 32 32">
<title>settings-pending</title>
<path d="M16.037 2h-0.096c-0.598-0-1.059-0-1.39 0.029-0.325 0.028-0.791 0.098-1.158 0.464-0.189 0.189-0.297 0.438-0.339 0.537l-0.001 0.001c-0.064 0.148-0.126 0.321-0.184 0.495-0.117 0.351-0.238 0.776-0.347 1.176-0.109 0.403-0.207 0.794-0.279 1.084l-0.872 0.388c-0.25-0.15-0.581-0.346-0.925-0.542-0.355-0.203-0.737-0.414-1.061-0.576-0.161-0.080-0.323-0.157-0.47-0.215-0.073-0.029-0.156-0.059-0.241-0.084-0.070-0.020-0.21-0.056-0.374-0.056-0.285 0-0.518 0.102-0.66 0.177-0.155 0.082-0.305 0.188-0.447 0.3-0.281 0.222-0.633 0.549-1.079 0.995-0.452 0.403-0.788 0.735-1.019 1.013-0.117 0.141-0.228 0.291-0.313 0.449-0.079 0.147-0.181 0.38-0.181 0.666 0 0.165 0.036 0.304 0.056 0.374 0.024 0.085 0.055 0.168 0.084 0.241 0.059 0.146 0.135 0.309 0.215 0.47 0.162 0.325 0.373 0.706 0.576 1.061 0.197 0.344 0.392 0.675 0.542 0.925l-0.388 0.872c-0.29 0.071-0.682 0.17-1.084 0.279-0.4 0.108-0.825 0.23-1.176 0.347-0.174 0.058-0.346 0.12-0.495 0.184l-0.001 0.001c-0.099 0.043-0.348 0.15-0.537 0.339l-0.115 0.115-0.073 0.145c-0.157 0.313-0.18 0.664-0.192 0.941-0.013 0.309-0.013 0.752-0.013 1.372v0.093c-0 0.598-0 1.059 0.029 1.39 0.028 0.325 0.098 0.791 0.464 1.158 0.189 0.189 0.438 0.297 0.537 0.339l0.001 0.001c0.148 0.064 0.321 0.126 0.495 0.184 0.351 0.117 0.776 0.238 1.176 0.346 0.403 0.109 0.794 0.207 1.084 0.279l0.388 0.872c-0.15 0.25-0.346 0.581-0.542 0.925-0.203 0.355-0.414 0.737-0.576 1.061-0.080 0.161-0.157 0.323-0.215 0.47-0.029 0.073-0.059 0.155-0.084 0.241-0.020 0.070-0.056 0.21-0.056 0.374 0 0.285 0.102 0.517 0.177 0.66 0.082 0.155 0.188 0.305 0.3 0.447 0.225 0.285 0.559 0.644 1.015 1.1s0.815 0.79 1.1 1.015c0.142 0.112 0.292 0.219 0.447 0.3 0.143 0.075 0.375 0.177 0.66 0.177 0.165 0 0.304-0.036 0.374-0.056 0.085-0.024 0.168-0.055 0.241-0.084 0.146-0.058 0.309-0.135 0.47-0.215 0.325-0.162 0.706-0.373 1.061-0.576 0.344-0.197 0.675-0.392 0.925-0.542l1.323 0.588c0.505 0.224 1.096-0.003 1.32-0.508s-0.003-1.096-0.508-1.32l-2.281-1.014-0.557 0.342c-0.070 0.043-0.172 0.104-0.295 0.178-0.246 0.148-0.577 0.344-0.919 0.539-0.344 0.197-0.688 0.386-0.964 0.524-0.040 0.020-0.077 0.038-0.111 0.054-0.19-0.156-0.467-0.412-0.872-0.817s-0.661-0.683-0.817-0.872c0.016-0.034 0.035-0.071 0.054-0.111 0.138-0.275 0.327-0.619 0.524-0.964 0.195-0.342 0.391-0.673 0.539-0.919 0.074-0.123 0.135-0.224 0.178-0.294l0.049-0.081 0.017-0.027 0.276-0.449-1.216-2.736-0.609-0.142c-0.081-0.019-0.197-0.047-0.337-0.082-0.282-0.069-0.658-0.164-1.042-0.268-0.387-0.104-0.769-0.214-1.065-0.313-0.053-0.017-0.101-0.034-0.144-0.049-0.014-0.236-0.015-0.593-0.015-1.185 0-0.581 0-0.958 0.008-1.217l0.051-0.017c0.296-0.099 0.677-0.208 1.065-0.313 0.384-0.104 0.761-0.199 1.042-0.268 0.141-0.034 0.257-0.063 0.337-0.082l0.125-0.030 0.484-0.113 1.216-2.736-0.293-0.476-0.049-0.081c-0.043-0.070-0.104-0.172-0.178-0.295-0.148-0.246-0.344-0.577-0.539-0.919-0.197-0.344-0.386-0.688-0.524-0.964-0.018-0.035-0.034-0.069-0.049-0.1 0.15-0.168 0.392-0.408 0.769-0.743l0.022-0.020 0.021-0.021c0.405-0.405 0.683-0.661 0.872-0.817 0.034 0.016 0.071 0.035 0.111 0.054 0.275 0.138 0.619 0.327 0.964 0.524 0.342 0.195 0.673 0.391 0.919 0.539 0.123 0.074 0.224 0.135 0.295 0.178l0.081 0.049 0.476 0.293 2.736-1.216 0.113-0.485 0.007-0.031 0.022-0.093c0.019-0.081 0.047-0.197 0.082-0.337 0.069-0.282 0.164-0.658 0.268-1.042 0.104-0.387 0.214-0.769 0.313-1.065 0.018-0.053 0.034-0.101 0.050-0.144 0.236-0.014 0.593-0.015 1.185-0.015 0.515 0 0.869 0 1.116 0.005l0.018 0.053c0.099 0.296 0.209 0.677 0.313 1.065 0.104 0.384 0.199 0.761 0.268 1.042 0.035 0.141 0.063 0.257 0.082 0.337l0.022 0.093 0.007 0.031 0.113 0.484 2.736 1.216 0.557-0.342c0.070-0.043 0.172-0.104 0.294-0.178 0.246-0.148 0.577-0.344 0.919-0.539 0.345-0.197 0.688-0.386 0.964-0.524 0.040-0.020 0.077-0.038 0.111-0.054 0.19 0.156 0.467 0.412 0.872 0.817s0.662 0.683 0.817 0.872c-0.016 0.034-0.035 0.071-0.054 0.111-0.138 0.275-0.327 0.619-0.524 0.964-0.195 0.342-0.392 0.673-0.539 0.919-0.074 0.123-0.135 0.224-0.178 0.295l-0.062 0.102-0.28 0.455 1.014 2.281c0.224 0.505 0.815 0.732 1.32 0.508s0.732-0.815 0.508-1.32l-0.588-1.323c0.15-0.25 0.346-0.581 0.542-0.925 0.203-0.355 0.414-0.737 0.576-1.061 0.081-0.161 0.157-0.323 0.215-0.47 0.029-0.073 0.059-0.156 0.084-0.241 0.020-0.070 0.056-0.21 0.056-0.374 0-0.285-0.102-0.518-0.177-0.66-0.082-0.155-0.188-0.305-0.3-0.447-0.225-0.285-0.559-0.644-1.015-1.1s-0.815-0.79-1.1-1.015c-0.142-0.112-0.292-0.219-0.447-0.3-0.143-0.075-0.375-0.177-0.66-0.177-0.165 0-0.304 0.036-0.374 0.056-0.085 0.024-0.168 0.055-0.241 0.084-0.146 0.059-0.309 0.135-0.47 0.215-0.325 0.162-0.706 0.373-1.061 0.576-0.344 0.197-0.675 0.392-0.925 0.542l-0.872-0.388c-0.071-0.29-0.17-0.682-0.279-1.084-0.108-0.4-0.23-0.825-0.346-1.176-0.058-0.174-0.12-0.346-0.184-0.495l-0.001-0.001c-0.043-0.099-0.15-0.348-0.339-0.537-0.245-0.245-0.54-0.309-0.656-0.332-0.147-0.029-0.307-0.040-0.456-0.047-0.298-0.014-0.741-0.014-1.358-0.014zM3.765 17.083c0 0 0.005 0.002 0.012 0.006-0.008-0.004-0.012-0.006-0.012-0.006zM3.665 14.917c-0 0 0.003-0.002 0.012-0.006-0.007 0.004-0.012 0.006-0.012 0.006zM14.917 3.765c0 0-0.002 0.005-0.006 0.012 0.004-0.008 0.006-0.012 0.006-0.012zM16.983 3.665c0-0 0.002 0.003 0.006 0.012-0.004-0.007-0.006-0.012-0.006-0.012z"></path>
<path d="M12 16c0-2.248 1.752-4 4-4 1.425 0 2.724 0.797 3.459 1.941 0.299 0.464 0.917 0.599 1.382 0.3s0.599-0.917 0.3-1.382c-1.065-1.656-2.967-2.859-5.141-2.859-3.352 0-6 2.648-6 6 0 2.175 1.203 4.076 2.859 5.141 0.465 0.299 1.083 0.164 1.382-0.3s0.164-1.083-0.3-1.382c-1.144-0.735-1.941-2.033-1.941-3.459z"></path>
<path d="M24 23c0 0.552-0.448 1-1 1s-1-0.448-1-1c0-0.552 0.448-1 1-1s1 0.448 1 1z"></path>
<path d="M20 24c0.552 0 1-0.448 1-1s-0.448-1-1-1c-0.552 0-1 0.448-1 1s0.448 1 1 1z"></path>
<path d="M27 23c0 0.552-0.448 1-1 1s-1-0.448-1-1c0-0.552 0.448-1 1-1s1 0.448 1 1z"></path>
<path d="M15 23c0-4.418 3.582-8 8-8s8 3.582 8 8c0 4.418-3.582 8-8 8s-8-3.582-8-8zM23 17c-3.314 0-6 2.686-6 6s2.686 6 6 6c3.314 0 6-2.686 6-6s-2.686-6-6-6z"></path>
</svg>
