<!-- Generated by IcoMoon.io -->
<svg version="1.1" xmlns="http://www.w3.org/2000/svg" width="32" height="32" viewBox="0 0 32 32">
<title>share</title>
<path d="M18 8c0-3.314 2.686-6 6-6s6 2.686 6 6c0 3.314-2.686 6-6 6-2.002 0-3.775-0.981-4.865-2.488l-5.385 2.769c0.162 0.544 0.25 1.121 0.25 1.718s-0.087 1.174-0.25 1.719l5.385 2.769c1.090-1.507 2.863-2.488 4.865-2.488 3.314 0 6 2.686 6 6s-2.686 6-6 6c-3.314 0-6-2.686-6-6 0-0.597 0.087-1.174 0.25-1.718l-5.385-2.769c-1.090 1.507-2.863 2.488-4.865 2.488-3.314 0-6-2.686-6-6s2.686-6 6-6c2.002 0 3.775 0.981 4.865 2.488l5.385-2.769c-0.163-0.544-0.25-1.121-0.25-1.719zM24 4c-2.209 0-4 1.791-4 4s1.791 4 4 4 4-1.791 4-4c0-2.209-1.791-4-4-4zM24 20c-2.209 0-4 1.791-4 4s1.791 4 4 4c2.209 0 4-1.791 4-4s-1.791-4-4-4zM4 16c0 2.209 1.791 4 4 4s4-1.791 4-4-1.791-4-4-4c-2.209 0-4 1.791-4 4z"></path>
</svg>
