<!-- Generated by IcoMoon.io -->
<svg version="1.1" xmlns="http://www.w3.org/2000/svg" width="32" height="32" viewBox="0 0 32 32">
<title>slack</title>
<path d="M7.3 19.69c0 0.623-0.185 1.232-0.531 1.75s-0.838 0.922-1.414 1.16-1.209 0.301-1.82 0.179c-0.611-0.122-1.172-0.422-1.613-0.862s-0.741-1.002-0.862-1.613c-0.122-0.611-0.059-1.244 0.179-1.82s0.642-1.068 1.16-1.414 1.127-0.531 1.75-0.531h3.15v3.15z"></path>
<path d="M8.89 19.69c0-0.414 0.081-0.823 0.24-1.205s0.39-0.73 0.683-1.022 0.64-0.524 1.022-0.683c0.382-0.158 0.792-0.24 1.206-0.24s0.823 0.081 1.206 0.24c0.382 0.158 0.729 0.39 1.022 0.683s0.524 0.64 0.683 1.022c0.158 0.382 0.24 0.792 0.24 1.205v7.89c0 0.414-0.082 0.823-0.24 1.206s-0.39 0.729-0.683 1.022-0.64 0.524-1.022 0.683c-0.382 0.158-0.792 0.24-1.206 0.24s-0.823-0.081-1.206-0.24c-0.382-0.158-0.729-0.39-1.022-0.683s-0.525-0.64-0.683-1.022c-0.158-0.382-0.24-0.792-0.24-1.206v-7.89z"></path>
<path d="M12 6.99c-0.623 0-1.232-0.185-1.75-0.531s-0.922-0.838-1.16-1.414-0.301-1.209-0.179-1.82c0.122-0.611 0.422-1.172 0.862-1.613s1.002-0.741 1.613-0.862c0.611-0.122 1.244-0.059 1.82 0.179s1.067 0.642 1.414 1.16c0.346 0.518 0.531 1.127 0.531 1.75v3.15h-3.15z"></path>
<path d="M12 8.58c0.414 0 0.823 0.081 1.206 0.24s0.729 0.39 1.022 0.683 0.524 0.64 0.683 1.022c0.158 0.382 0.24 0.792 0.24 1.205s-0.082 0.823-0.24 1.206c-0.158 0.382-0.39 0.729-0.683 1.022s-0.64 0.524-1.022 0.683c-0.382 0.158-0.792 0.24-1.206 0.24h-7.85c-0.414 0-0.823-0.082-1.205-0.24s-0.729-0.39-1.022-0.683c-0.292-0.293-0.525-0.64-0.683-1.022s-0.24-0.792-0.24-1.206c0-0.414 0.081-0.823 0.24-1.205s0.39-0.729 0.683-1.022 0.64-0.525 1.022-0.683c0.382-0.158 0.792-0.24 1.205-0.24h7.85z"></path>
<path d="M24.7 11.69c0-0.623 0.185-1.232 0.531-1.75s0.838-0.922 1.414-1.16c0.576-0.238 1.209-0.301 1.82-0.179s1.172 0.422 1.613 0.862c0.441 0.441 0.741 1.002 0.862 1.613s0.059 1.244-0.179 1.82-0.642 1.067-1.16 1.414c-0.518 0.346-1.127 0.531-1.75 0.531h-3.15v-3.15z"></path>
<path d="M23.11 11.69c0 0.835-0.332 1.637-0.923 2.227s-1.392 0.923-2.227 0.923-1.637-0.332-2.227-0.923c-0.591-0.591-0.923-1.392-0.923-2.227v-7.85c0-0.414 0.081-0.823 0.24-1.205s0.39-0.729 0.683-1.022c0.293-0.292 0.64-0.525 1.022-0.683s0.792-0.24 1.206-0.24 0.823 0.081 1.206 0.24c0.382 0.158 0.729 0.39 1.022 0.683s0.524 0.64 0.683 1.022c0.158 0.382 0.24 0.792 0.24 1.205v7.85z"></path>
<path d="M20 24.39c0.623 0 1.232 0.185 1.75 0.531s0.922 0.838 1.16 1.414c0.238 0.576 0.301 1.209 0.179 1.82s-0.422 1.172-0.862 1.613-1.002 0.741-1.613 0.862c-0.611 0.122-1.244 0.059-1.82-0.179s-1.068-0.642-1.414-1.16c-0.346-0.518-0.531-1.127-0.531-1.75v-3.15h3.15z"></path>
<path d="M20 22.8c-0.835 0-1.637-0.332-2.227-0.923s-0.923-1.392-0.923-2.227 0.332-1.637 0.923-2.227c0.591-0.591 1.392-0.923 2.227-0.923h7.89c0.835 0 1.637 0.332 2.227 0.923s0.923 1.392 0.923 2.227-0.332 1.637-0.923 2.227c-0.591 0.591-1.392 0.923-2.227 0.923h-7.89z"></path>
</svg>
