<!-- Generated by IcoMoon.io -->
<svg version="1.1" xmlns="http://www.w3.org/2000/svg" width="32" height="32" viewBox="0 0 32 32">
<title>sort-desc-vertical</title>
<path d="M5 5c-0.552 0-1 0.448-1 1s0.448 1 1 1h21c0.552 0 1-0.448 1-1s-0.448-1-1-1h-21z"></path>
<path d="M4 11c0-0.552 0.448-1 1-1h16c0.552 0 1 0.448 1 1s-0.448 1-1 1h-16c-0.552 0-1-0.448-1-1z"></path>
<path d="M5 15c-0.552 0-1 0.448-1 1s0.448 1 1 1h11c0.552 0 1-0.448 1-1s-0.448-1-1-1h-11z"></path>
<path d="M4 21c0-0.552 0.448-1 1-1h6c0.552 0 1 0.448 1 1s-0.448 1-1 1h-6c-0.552 0-1-0.448-1-1z"></path>
<path d="M4 26c0-0.552 0.448-1 1-1h1c0.552 0 1 0.448 1 1s-0.448 1-1 1h-1c-0.552 0-1-0.448-1-1z"></path>
<path d="M21 24.586l-3.293-3.293c-0.39-0.39-1.024-0.39-1.414 0s-0.39 1.024 0 1.414l5.707 5.707 5.707-5.707c0.39-0.39 0.39-1.024 0-1.414s-1.024-0.39-1.414 0l-3.293 3.293v-7.586c0-0.552-0.448-1-1-1s-1 0.448-1 1v7.586z"></path>
</svg>
