<!-- Generated by IcoMoon.io -->
<svg version="1.1" xmlns="http://www.w3.org/2000/svg" width="32" height="32" viewBox="0 0 32 32">
<title>sort-asc-vertical-alt</title>
<path d="M22.712 4.712l4.995 4.995c0.39 0.39 0.39 1.024 0 1.414s-1.024 0.39-1.414 0l-3.293-3.293v18.586c0 0.552-0.448 1-1 1s-1-0.448-1-1v-18.586l-3.293 3.293c-0.39 0.39-1.024 0.39-1.414 0s-0.39-1.024 0-1.414l4.995-4.995c0.003-0.003 0.006-0.006 0.009-0.009l0.703-0.703 0.703 0.703c0.003 0.003 0.006 0.006 0.009 0.009z"></path>
<path d="M5 4.414c-0.552 0-1 0.448-1 1s0.448 1 1 1h6c0.552 0 1-0.448 1-1s-0.448-1-1-1h-6z"></path>
<path d="M4 10.414c0-0.552 0.448-1 1-1h6c0.552 0 1 0.448 1 1s-0.448 1-1 1h-6c-0.552 0-1-0.448-1-1z"></path>
<path d="M5 14.414c-0.552 0-1 0.448-1 1s0.448 1 1 1h6c0.552 0 1-0.448 1-1s-0.448-1-1-1h-6z"></path>
<path d="M4 20.414c0-0.552 0.448-1 1-1h6c0.552 0 1 0.448 1 1s-0.448 1-1 1h-6c-0.552 0-1-0.448-1-1z"></path>
<path d="M4 25.414c0-0.552 0.448-1 1-1h6c0.552 0 1 0.448 1 1s-0.448 1-1 1h-6c-0.552 0-1-0.448-1-1z"></path>
</svg>
