<!-- Generated by IcoMoon.io -->
<svg version="1.1" xmlns="http://www.w3.org/2000/svg" width="32" height="32" viewBox="0 0 32 32">
<title>speaker</title>
<path d="M16 7c-1.657 0-3 1.343-3 3s1.343 3 3 3 3-1.343 3-3c0-1.657-1.343-3-3-3zM15 10c0-0.552 0.448-1 1-1s1 0.448 1 1c0 0.552-0.448 1-1 1s-1-0.448-1-1z"></path>
<path d="M17 20c0 0.552-0.448 1-1 1s-1-0.448-1-1c0-0.552 0.448-1 1-1s1 0.448 1 1z"></path>
<path d="M16 15c-2.761 0-5 2.239-5 5s2.239 5 5 5c2.761 0 5-2.239 5-5s-2.239-5-5-5zM13 20c0-1.657 1.343-3 3-3s3 1.343 3 3c0 1.657-1.343 3-3 3s-3-1.343-3-3z"></path>
<path d="M7 6c0-2.252 1.748-4 4-4h10c2.252 0 4 1.748 4 4v20c0 2.252-1.748 4-4 4h-10c-2.252 0-4-1.748-4-4v-20zM11 4c-1.148 0-2 0.852-2 2v20c0 1.148 0.852 2 2 2h10c1.148 0 2-0.852 2-2v-20c0-1.148-0.852-2-2-2h-10z"></path>
</svg>
