<!-- Generated by IcoMoon.io -->
<svg version="1.1" xmlns="http://www.w3.org/2000/svg" width="32" height="32" viewBox="0 0 32 32">
<title>ssd</title>
<path d="M11 7c0 0.552-0.448 1-1 1s-1-0.448-1-1c0-0.552 0.448-1 1-1s1 0.448 1 1z"></path>
<path d="M23 7c0 0.552-0.448 1-1 1s-1-0.448-1-1c0-0.552 0.448-1 1-1s1 0.448 1 1z"></path>
<path d="M10 25c0.552 0 1-0.448 1-1s-0.448-1-1-1c-0.552 0-1 0.448-1 1s0.448 1 1 1z"></path>
<path d="M23 24c0 0.552-0.448 1-1 1s-1-0.448-1-1c0-0.552 0.448-1 1-1s1 0.448 1 1z"></path>
<path d="M5 6c0-2.252 1.748-4 4-4h14c2.252 0 4 1.748 4 4v20c0 2.252-1.748 4-4 4h-2c-0.552 0-1-0.448-1-1v-1h-2v1c0 0.552-0.448 1-1 1s-1-0.448-1-1v-1h-3.9v1c0 0.552-0.448 1-1 1h-2.1c-2.252 0-4-1.748-4-4v-20zM21 26c0.552 0 1 0.448 1 1v1h1c1.148 0 2-0.852 2-2v-20c0-1.148-0.852-2-2-2h-14c-1.148 0-2 0.852-2 2v20c0 1.148 0.852 2 2 2h1.1v-1c0-0.552 0.448-1 1-1h9.9z"></path>
</svg>
