<!-- Generated by IcoMoon.io -->
<svg version="1.1" xmlns="http://www.w3.org/2000/svg" width="32" height="32" viewBox="0 0 32 32">
<title>stack1</title>
<path d="M29.985 10.158l-13.985-8.158-13.985 8.158 13.985 8.158 13.985-8.158zM16 16l-10.015-5.842 10.015-5.842 10.015 5.842-10.015 5.842z"></path>
<path d="M4.504 13.294c-0.477-0.278-1.089-0.117-1.368 0.36s-0.117 1.089 0.36 1.368l12.504 7.294 12.504-7.294c0.477-0.278 0.638-0.891 0.36-1.368s-0.891-0.638-1.368-0.36l-11.496 6.706-11.496-6.706z"></path>
<path d="M3.136 17.654c0.278-0.477 0.891-0.638 1.368-0.36l11.496 6.706 11.496-6.706c0.477-0.278 1.089-0.117 1.368 0.36s0.117 1.089-0.36 1.368l-12.504 7.294-12.504-7.294c-0.477-0.278-0.638-0.891-0.36-1.368z"></path>
<path d="M4.504 21.294c-0.477-0.278-1.089-0.117-1.368 0.36s-0.117 1.089 0.36 1.368l12.504 7.294 12.504-7.294c0.477-0.278 0.638-0.891 0.36-1.368s-0.891-0.638-1.368-0.36l-11.496 6.706-11.496-6.706z"></path>
</svg>
