<!-- Generated by IcoMoon.io -->
<svg version="1.1" xmlns="http://www.w3.org/2000/svg" width="32" height="32" viewBox="0 0 32 32">
<title>stack-ok</title>
<path d="M29.978 9.154l-13.978-8.154-13.984 8.157 12.779 7.464c0.477 0.279 1.089 0.118 1.368-0.359s0.118-1.089-0.359-1.368l-9.821-5.736 10.016-5.843 10.021 5.846-3.628 2.134c-0.476 0.28-0.635 0.893-0.355 1.369s0.893 0.635 1.369 0.355l6.571-3.866z"></path>
<path d="M4.504 12.294c-0.477-0.278-1.089-0.117-1.368 0.36s-0.117 1.089 0.36 1.368l9.6 5.6c0.477 0.278 1.089 0.117 1.368-0.36s0.117-1.089-0.36-1.368l-9.6-5.6z"></path>
<path d="M3.138 16.65c0.28-0.476 0.893-0.634 1.369-0.354l9 5.3c0.476 0.28 0.634 0.893 0.354 1.369s-0.893 0.634-1.369 0.354l-9-5.3c-0.476-0.28-0.635-0.893-0.354-1.369z"></path>
<path d="M4.5 20.292c-0.478-0.276-1.090-0.112-1.366 0.366s-0.112 1.090 0.366 1.366l10.4 6c0.478 0.276 1.090 0.112 1.366-0.366s0.112-1.090-0.367-1.366l-10.4-6z"></path>
<path d="M26.707 20.865c0.39-0.39 0.39-1.024 0-1.414s-1.024-0.39-1.414 0l-3.293 3.293-1.293-1.293c-0.39-0.39-1.024-0.39-1.414 0s-0.39 1.024 0 1.414l2.707 2.707 4.707-4.707z"></path>
<path d="M15 22.158c0-4.418 3.582-8 8-8s8 3.582 8 8c0 4.418-3.582 8-8 8s-8-3.582-8-8zM23 16.158c-3.314 0-6 2.686-6 6s2.686 6 6 6c3.314 0 6-2.686 6-6s-2.686-6-6-6z"></path>
</svg>
