<!-- Generated by IcoMoon.io -->
<svg version="1.1" xmlns="http://www.w3.org/2000/svg" width="32" height="32" viewBox="0 0 32 32">
<title>stack-up</title>
<path d="M16 1l13.978 8.154-6.571 3.865c-0.476 0.28-1.089 0.121-1.369-0.355s-0.121-1.089 0.355-1.369l3.629-2.135-10.022-5.846-10.016 5.843 9.821 5.736c0.477 0.278 0.638 0.891 0.359 1.368s-0.891 0.638-1.368 0.359l-12.779-7.464 13.984-8.157z"></path>
<path d="M3.136 12.654c0.278-0.477 0.891-0.638 1.368-0.36l9.6 5.6c0.477 0.278 0.638 0.891 0.36 1.368s-0.891 0.638-1.368 0.36l-9.6-5.6c-0.477-0.278-0.638-0.891-0.36-1.368z"></path>
<path d="M4.507 16.296c-0.476-0.28-1.089-0.122-1.369 0.354s-0.122 1.089 0.354 1.369l9 5.3c0.476 0.28 1.089 0.122 1.369-0.354s0.122-1.089-0.354-1.369l-9-5.3z"></path>
<path d="M3.134 20.658c0.276-0.478 0.888-0.642 1.366-0.366l10.4 6c0.478 0.276 0.643 0.887 0.367 1.366s-0.887 0.642-1.366 0.366l-10.4-6c-0.478-0.276-0.642-0.888-0.366-1.366z"></path>
<path d="M23 17.744l3.707 3.707c0.39 0.39 0.39 1.024 0 1.414s-1.024 0.39-1.414 0l-1.293-1.293v3.586c0 0.552-0.448 1-1 1s-1-0.448-1-1v-3.586l-1.293 1.293c-0.39 0.39-1.024 0.39-1.414 0s-0.39-1.024 0-1.414l3.707-3.707z"></path>
<path d="M23 14.158c-4.418 0-8 3.582-8 8s3.582 8 8 8c4.418 0 8-3.582 8-8s-3.582-8-8-8zM17 22.158c0-3.314 2.686-6 6-6s6 2.686 6 6c0 3.314-2.686 6-6 6s-6-2.686-6-6z"></path>
</svg>
