<!-- Generated by IcoMoon.io -->
<svg version="1.1" xmlns="http://www.w3.org/2000/svg" width="32" height="32" viewBox="0 0 32 32">
<title>status-pending</title>
<path d="M17.208 4.248c0.662 0.667 0.658 1.745-0.010 2.407l-0.317 0.315c4.652 0.44 8.31 4.331 8.31 9.090 0 5.056-4.128 9.131-9.191 9.131s-9.191-4.075-9.191-9.131c0-0.94 0.762-1.702 1.702-1.702s1.702 0.762 1.702 1.702c0 3.15 2.578 5.727 5.787 5.727s5.787-2.577 5.787-5.727c0-2.812-2.054-5.166-4.777-5.64l0.188 0.187c0.667 0.662 0.672 1.74 0.010 2.407s-1.74 0.672-2.407 0.010l-3.21-3.184c-0.322-0.32-0.503-0.755-0.503-1.208s0.181-0.889 0.503-1.208l3.21-3.184c0.667-0.662 1.745-0.658 2.407 0.010z"></path>
</svg>
