<!-- Generated by IcoMoon.io -->
<svg version="1.1" xmlns="http://www.w3.org/2000/svg" width="32" height="32" viewBox="0 0 32 32">
<title>status-error</title>
<path d="M22.499 11.738c0.654-0.675 0.637-1.753-0.038-2.407s-1.753-0.637-2.407 0.038l-4.092 4.224-4.224-4.092c-0.675-0.654-1.753-0.637-2.407 0.038s-0.637 1.753 0.038 2.407l4.224 4.092-4.092 4.224c-0.654 0.675-0.637 1.753 0.038 2.407s1.753 0.637 2.407-0.038l4.092-4.224 4.224 4.092c0.675 0.654 1.753 0.637 2.407-0.038s0.637-1.753-0.038-2.407l-4.224-4.092 4.092-4.224z"></path>
</svg>
