<!-- Generated by IcoMoon.io -->
<svg version="1.1" xmlns="http://www.w3.org/2000/svg" width="32" height="32" viewBox="0 0 32 32">
<title>suitcase</title>
<path d="M11.101 8c0.466-2.277 2.489-4 4.899-4s4.433 1.723 4.899 4h5.101c2.252 0 4 1.748 4 4v2.977c0 0.015 0 0.031 0 0.046v8.977c0 2.252-1.748 4-4 4h-20c-2.252 0-4-1.748-4-4v-8.977c-0-0.016-0-0.031 0-0.047v-2.976c0-2.252 1.748-4 4-4h5.101zM13.173 8h5.654c-0.415-1.161-1.529-2-2.827-2s-2.412 0.839-2.827 2zM28 12c0-1.148-0.852-2-2-2h-20c-1.148 0-2 0.852-2 2v2.313l11 4.231v-1.544c0-0.552 0.448-1 1-1s1 0.448 1 1v1.544l11-4.231v-2.313zM15 20.687l-11-4.231v7.544c0 1.148 0.852 2 2 2h20c1.148 0 2-0.852 2-2v-7.544l-11 4.231v1.313c0 0.552-0.448 1-1 1s-1-0.448-1-1v-1.313z"></path>
</svg>
