<!-- Generated by IcoMoon.io -->
<svg version="1.1" xmlns="http://www.w3.org/2000/svg" width="32" height="32" viewBox="0 0 32 32">
<title>target</title>
<path d="M16 12c-2.209 0-4 1.791-4 4s1.791 4 4 4c2.209 0 4-1.791 4-4s-1.791-4-4-4zM14 16c0-1.105 0.895-2 2-2s2 0.895 2 2c0 1.105-0.895 2-2 2s-2-0.895-2-2z"></path>
<path d="M17 3v3.049c4.724 0.469 8.482 4.226 8.951 8.951h3.049c0.552 0 1 0.448 1 1s-0.448 1-1 1h-3.049c-0.469 4.724-4.226 8.482-8.951 8.951v3.049c0 0.552-0.448 1-1 1s-1-0.448-1-1v-3.049c-4.724-0.469-8.482-4.226-8.951-8.951h-3.049c-0.552 0-1-0.448-1-1s0.448-1 1-1h3.049c0.469-4.724 4.226-8.482 8.951-8.951v-3.049c0-0.552 0.448-1 1-1s1 0.448 1 1zM16 8c-4.418 0-8 3.582-8 8s3.582 8 8 8c4.418 0 8-3.582 8-8s-3.582-8-8-8z"></path>
</svg>
