<!-- Generated by IcoMoon.io -->
<svg version="1.1" xmlns="http://www.w3.org/2000/svg" width="32" height="32" viewBox="0 0 32 32">
<title>temperature-low</title>
<path d="M16 17c0.552 0 1 0.448 1 1v3.268c0.598 0.346 1 0.992 1 1.732 0 1.105-0.895 2-2 2s-2-0.895-2-2c0-0.74 0.402-1.387 1-1.732v-3.268c0-0.552 0.448-1 1-1z"></path>
<path d="M16 2c-2.752 0-5 2.248-5 5v11.079c-1.209 1.256-2 2.986-2 4.921 0 3.852 3.148 7 7 7s7-3.148 7-7c0-1.935-0.791-3.665-2-4.921v-11.079c0-2.752-2.248-5-5-5zM13 7c0-1.648 1.352-3 3-3s3 1.352 3 3v11.94l0.324 0.297c1.011 0.927 1.676 2.266 1.676 3.763 0 2.748-2.252 5-5 5s-5-2.252-5-5c0-1.497 0.665-2.836 1.676-3.763l0.324-0.297v-11.94z"></path>
</svg>
