<!-- Generated by IcoMoon.io -->
<svg version="1.1" xmlns="http://www.w3.org/2000/svg" width="32" height="32" viewBox="0 0 32 32">
<title>thumb-down</title>
<path d="M5 4h18.5c1.877 0 3.338 1.224 3.856 2.906l0.006 0.018 2.406 9.021c0.661 2.512-1.189 5.054-3.867 5.054h-6.1v3.5c0 1.952-1.548 3.5-3.5 3.5-1.245 0-2.522-0.687-3.104-1.971l-4.014-8.029h-4.182c-1.652 0-3-1.348-3-3v-8c0-1.652 1.348-3 3-3zM10.8 6v10.764l4.214 8.43c0.223 0.501 0.739 0.806 1.286 0.806 0.848 0 1.5-0.652 1.5-1.5v-5.5h8.1c1.321 0 2.271-1.257 1.933-2.544l-0-0.001-2.394-8.977c-0.286-0.908-1.021-1.477-1.939-1.477h-12.7zM4 7v8c0 0.548 0.452 1 1 1h3.8v-10h-3.8c-0.548 0-1 0.452-1 1z"></path>
</svg>
