<!-- Generated by IcoMoon.io -->
<svg version="1.1" xmlns="http://www.w3.org/2000/svg" width="32" height="32" viewBox="0 0 32 32">
<title>tir-alt</title>
<path d="M22 11c0.552 0 1 0.448 1 1v3h3c0.552 0 1 0.448 1 1s-0.448 1-1 1h-5v-5c0-0.552 0.448-1 1-1z"></path>
<path d="M2 5c-0.552 0-1 0.448-1 1s0.448 1 1 1h9c1.105 0 2 0.895 2 2v10.535c-0.588-0.34-1.271-0.535-2-0.535-1.195 0-2.267 0.524-3 1.354-0.733-0.83-1.805-1.354-3-1.354-2.209 0-4 1.791-4 4s1.791 4 4 4c1.195 0 2.267-0.524 3-1.354 0.733 0.83 1.805 1.354 3 1.354 1.864 0 3.43-1.275 3.874-3h4.252c0.444 1.725 2.010 3 3.874 3 1.9 0 3.491-1.325 3.899-3.101 1.776-0.408 3.101-1.998 3.101-3.899v-6.757c0-1.061-0.421-2.078-1.172-2.828l-1.243-1.243c-0.75-0.75-1.768-1.172-2.828-1.172h-3.757c-2.209 0-4 1.791-4 4v10h-2v-13c0-2.209-1.791-4-4-4h-9zM13 23c0 1.105-0.895 2-2 2s-2-0.895-2-2c0-1.105 0.895-2 2-2s2 0.895 2 2zM19 12c0-1.105 0.895-2 2-2h3.757c0.53 0 1.039 0.211 1.414 0.586l1.243 1.243c0.375 0.375 0.586 0.884 0.586 1.414v6.757c0 0.811-0.483 1.509-1.176 1.823-0.503-1.635-2.024-2.823-3.824-2.823-1.864 0-3.43 1.275-3.874 3h-0.126v-10zM3 23c0-1.105 0.895-2 2-2s2 0.895 2 2c0 1.105-0.895 2-2 2s-2-0.895-2-2zM23 21c1.105 0 2 0.895 2 2s-0.895 2-2 2c-1.105 0-2-0.895-2-2s0.895-2 2-2z"></path>
</svg>
