<!-- Generated by IcoMoon.io -->
<svg version="1.1" xmlns="http://www.w3.org/2000/svg" width="32" height="32" viewBox="0 0 32 32">
<title>tooth</title>
<path d="M21.406 2.201c-1.954-0.411-3.815-0.162-5.406 0.488-1.591-0.649-3.452-0.899-5.406-0.488l-0.008 0.002c-3.588 0.785-6.405 3.698-6.973 7.315-0.554 3.23 0.561 6.149 2.676 8.166-0 0 0.001 0.003 0.005 0.009 0.018 0.034 0.091 0.165 0.182 0.486 0.106 0.372 0.201 0.862 0.3 1.461 0.058 0.351 0.117 0.738 0.179 1.148 0.143 0.941 0.304 2.003 0.516 3.021 0.306 1.465 0.747 3.003 1.495 4.193 0.772 1.229 1.94 2.177 3.634 2.177 0.613 0 1.169-0.167 1.633-0.519 0.451-0.343 0.74-0.806 0.931-1.276 0.367-0.902 0.461-2.061 0.51-3.134 0.016-0.342 0.027-0.681 0.038-1.015 0.026-0.785 0.052-1.548 0.132-2.289 0.039-0.359 0.089-0.689 0.152-0.991 0.067 0.315 0.119 0.66 0.159 1.033 0.080 0.744 0.106 1.505 0.132 2.286 0.011 0.334 0.023 0.672 0.038 1.014 0.049 1.067 0.143 2.218 0.512 3.114 0.192 0.468 0.483 0.926 0.934 1.266 0.463 0.348 1.018 0.512 1.628 0.512 1.695 0 2.862-0.949 3.634-2.177 0.748-1.191 1.189-2.729 1.495-4.193 0.212-1.018 0.374-2.080 0.516-3.021 0.062-0.41 0.121-0.797 0.179-1.148 0.099-0.598 0.195-1.089 0.3-1.461 0.091-0.321 0.163-0.452 0.182-0.486 0.006-0.010 0.006-0.011 0.001-0.006 1.993-1.993 3.24-4.906 2.68-8.169-0.568-3.616-3.385-6.53-6.973-7.315l-0.008-0.002zM5.588 9.834c0.434-2.779 2.615-5.061 5.422-5.677 1.669-0.35 3.247-0.088 4.567 0.528 0.003 0.001 0.006 0.003 0.010 0.004 2.458 1.145 4.113 3.598 4.113 6.389 0 0.552 0.448 1 1 1s1-0.448 1-1c0-2.8-1.291-5.321-3.336-6.99 0.83-0.132 1.715-0.124 2.626 0.068 2.807 0.616 4.988 2.898 5.422 5.677l0.003 0.016c0.437 2.533-0.516 4.817-2.122 6.423-0.372 0.372-0.567 0.919-0.692 1.36-0.138 0.486-0.248 1.070-0.35 1.681-0.066 0.402-0.13 0.818-0.194 1.245-0.139 0.916-0.285 1.879-0.486 2.842-0.294 1.41-0.678 2.66-1.23 3.538-0.528 0.84-1.135 1.241-1.941 1.241-0.24 0-0.357-0.058-0.427-0.111-0.081-0.061-0.185-0.181-0.286-0.428-0.219-0.532-0.313-1.35-0.363-2.445-0.013-0.287-0.023-0.592-0.034-0.908-0.027-0.811-0.057-1.692-0.146-2.514-0.123-1.145-0.374-2.361-1.004-3.337-0.038-0.060-0.083-0.115-0.133-0.165-0.271-0.271-0.645-0.443-1.045-0.443-0.391 0-0.858 0.179-1.12 0.633-0.62 0.951-0.866 2.146-0.987 3.269-0.089 0.819-0.118 1.703-0.146 2.517-0.011 0.316-0.021 0.622-0.034 0.91-0.051 1.101-0.145 1.931-0.365 2.472-0.103 0.252-0.208 0.375-0.29 0.438-0.069 0.053-0.185 0.111-0.422 0.111-0.805 0-1.413-0.401-1.941-1.241-0.552-0.878-0.936-2.128-1.23-3.538-0.201-0.964-0.347-1.926-0.486-2.842-0.065-0.427-0.128-0.843-0.194-1.245-0.101-0.611-0.211-1.194-0.35-1.681-0.125-0.441-0.32-0.988-0.692-1.36-0.006-0.006-0.013-0.013-0.019-0.019-1.668-1.581-2.543-3.848-2.102-6.404l0.003-0.016z"></path>
</svg>
