<!-- Generated by IcoMoon.io -->
<svg version="1.1" xmlns="http://www.w3.org/2000/svg" width="32" height="32" viewBox="0 0 32 32">
<title>toplytics</title>
<path d="M23.68 18.28v5.090h-2v-5.090h2zM21.68 16.28c-0.53 0-1.039 0.211-1.414 0.586s-0.586 0.884-0.586 1.414v5.070c0 0.53 0.211 1.039 0.586 1.414s0.884 0.586 1.414 0.586h2c0.53 0 1.039-0.211 1.414-0.586s0.586-0.884 0.586-1.414v-5.060c0-0.53-0.211-1.039-0.586-1.414s-0.884-0.586-1.414-0.586l-2-0.010zM16.6 11.2v12.2h-2v-12.23l2 0.030zM14.6 9.2c-0.53 0-1.039 0.211-1.414 0.586s-0.586 0.884-0.586 1.414v12.16c0 0.53 0.211 1.039 0.586 1.414s0.884 0.586 1.414 0.586h2c0.53 0 1.039-0.211 1.414-0.586s0.586-0.884 0.586-1.414v-12.18c0-0.53-0.211-1.039-0.586-1.414s-0.884-0.586-1.414-0.586l-2 0.020zM9.47 15.25v8.12h-2v-8.12h2zM7.47 13.25c-0.53 0-1.039 0.211-1.414 0.586s-0.586 0.884-0.586 1.414v8.1c0 0.53 0.211 1.039 0.586 1.414s0.884 0.586 1.414 0.586h2c0.53 0 1.039-0.211 1.414-0.586s0.586-0.884 0.586-1.414v-8.1c0-0.53-0.211-1.039-0.586-1.414s-0.884-0.586-1.414-0.586h-2zM27.52 1.020h-25.14c-0.277 0-0.543 0.11-0.739 0.306s-0.306 0.462-0.306 0.739c0 0.277 0.11 0.543 0.306 0.739s0.462 0.306 0.739 0.306h25.14c0.14-0.007 0.279 0.015 0.41 0.065s0.249 0.127 0.348 0.226c0.099 0.099 0.176 0.218 0.226 0.348s0.073 0.27 0.065 0.41v23c0.007 0.14-0.015 0.279-0.065 0.41s-0.127 0.249-0.226 0.348c-0.099 0.099-0.218 0.176-0.348 0.226s-0.27 0.073-0.41 0.065h-23c-0.14 0.007-0.28-0.015-0.41-0.065s-0.249-0.127-0.348-0.226c-0.099-0.099-0.176-0.218-0.226-0.348s-0.072-0.27-0.065-0.41v-18.8c-0-0.136 0.027-0.27 0.081-0.395s0.131-0.237 0.23-0.331c0.098-0.094 0.214-0.166 0.342-0.213s0.263-0.068 0.398-0.061h9.38c0.278 0 0.546-0.111 0.742-0.308s0.307-0.464 0.307-0.742-0.111-0.546-0.307-0.742c-0.197-0.197-0.464-0.308-0.742-0.308h-9.42c-0.827-0-1.621 0.325-2.21 0.905s-0.927 1.368-0.94 2.195v18.85c0 0.835 0.332 1.637 0.923 2.227s1.392 0.923 2.227 0.923h23c0.835 0 1.637-0.332 2.227-0.923s0.923-1.392 0.923-2.227v-23c0-0.835-0.332-1.637-0.923-2.227s-1.392-0.923-2.227-0.923l0.040-0.040z"></path>
</svg>
