<!-- Generated by IcoMoon.io -->
<svg version="1.1" xmlns="http://www.w3.org/2000/svg" width="32" height="32" viewBox="0 0 32 32">
<title>tor</title>
<path d="M21.26 1.69c-1.937 1.284-3.536 3.016-4.66 5.050l0.75-3c-1.094 1.86-1.817 3.915-2.13 6.050l-1.49-1-0.27 0.21c1.34 2.42 0.64 3.7 0 4.16-1.51 0.917-2.945 1.954-4.29 3.1-0.844 0.785-1.49 1.759-1.884 2.842s-0.527 2.244-0.386 3.388c0.139 1.534 0.733 2.991 1.706 4.184s2.28 2.070 3.754 2.516c1.266 0.384 2.588 0.553 3.91 0.5 2.192 0.071 4.343-0.614 6.090-1.94 0.862-0.719 1.556-1.618 2.035-2.634s0.729-2.123 0.735-3.246c0.010-1.129-0.219-2.247-0.673-3.282s-1.12-1.961-1.957-2.719c-0.971-0.82-2.031-1.528-3.16-2.11-0.52-0.29-2.12-1.53-1.58-3.31l-1.15-0.16c1.751-2.714 3.863-5.177 6.28-7.32-2.050 0.623-3.843 1.893-5.11 3.62 0.949-1.773 2.118-3.42 3.48-4.9zM14 9.47l1.17 0.48 0.51 0.22v11.42c-0.21 0.555-0.553 1.050-1 1.44-0.534 0.804-0.775 1.769-0.68 2.73 0.031 0.408 0.133 0.807 0.3 1.18 0.132 0.399 0.31 0.782 0.53 1.14 0.223 0.338 0.53 0.614 0.89 0.8-0.81-0.132-1.579-0.447-2.25-0.92-1.175-1.008-1.951-2.401-2.19-3.93-0.11-1.13 1-2.81 2.42-3.66 0.515-0.294 0.949-0.71 1.263-1.213s0.499-1.075 0.537-1.667c-0.105 0.571-0.332 1.113-0.665 1.59s-0.764 0.875-1.265 1.17c-0.768 0.329-1.421 0.878-1.879 1.577s-0.698 1.518-0.691 2.353c0.016 0.83 0.238 1.643 0.646 2.366s0.991 1.332 1.694 1.774c0.535 0.348 1.113 0.624 1.72 0.82-2.26-0.53-2.48-0.77-3.13-1.54 0 0-0.17-0.15-0.17-0.19-1.026-1.158-1.793-2.522-2.25-4-0.171-0.516-0.208-1.066-0.11-1.6 0.69-2.44 2.18-3.39 3.67-4.4l1.070-0.75c0.83-0.64 1-2.36 1.22-3.31-0.35 1.18-0.7 2.63-1.34 3.1-0.354 0.255-0.722 0.492-1.1 0.71-1.55 1-3.080 2-3.79 4.57-0.119 0.579-0.081 1.18 0.11 1.74 0.461 1.551 1.253 2.984 2.32 4.2 0.052 0.052 0.098 0.109 0.14 0.17 0.418 0.442 0.931 0.784 1.5 1-0.516-0.14-1.018-0.328-1.5-0.56-1.116-0.543-2.078-1.358-2.798-2.37s-1.174-2.188-1.322-3.42c-0.23-4.2 1.8-5.42 3.67-7 1.050-0.8 2.5-1.24 3.35-2.8 0.207-0.593 0.227-1.235 0.060-1.84-0.184-0.476-0.405-0.938-0.66-1.38zM15.76 10.21l0.57 0.25v0.5c-0.101 0.775-0.057 1.561 0.13 2.32 0.23 0.89 1.39 2.17 1.86 3.64 0.79 3.077 0.79 6.303 0 9.38-0.176 0.582-0.472 1.12-0.87 1.58 0.159-0.285 0.286-0.587 0.38-0.9 0.702-1.917 0.915-3.98 0.62-6-0.094-0.687-0.275-1.359-0.54-2-0.58-1.39-1.41-2.71-1.51-3-0.293-1.178-0.454-2.386-0.48-3.6-0.016 1.301 0.118 2.6 0.4 3.87 0.080 0.27 0.84 1.45 1.38 2.88 0.248 0.703 0.422 1.431 0.52 2.17 0.144 1.698-0.018 3.409-0.48 5.050-0.198 0.918-0.648 1.763-1.3 2.44 0.476-0.524 0.819-1.155 1-1.84 0.29-1.106 0.431-2.246 0.42-3.39-0.089-0.912-0.315-1.805-0.67-2.65-0.227-0.523-0.495-1.028-0.8-1.51-0.233-0.701-0.365-1.432-0.39-2.17-0.070 0.798-0.006 1.603 0.19 2.38 0.16 0.46 0.72 1.080 0.89 1.68 0.244 0.721 0.395 1.471 0.45 2.23 0.004 1.008-0.096 2.013-0.3 3-0.068 0.471-0.23 0.923-0.475 1.33s-0.57 0.761-0.955 1.040c0.36-0.371 0.61-0.835 0.72-1.34 0.1-0.54 0.13-1.080 0.19-1.72 0.054-0.669 0.011-1.343-0.13-2-0.2-0.93-0.55-1.88-0.7-2.54 0 0.72 0.31 1.65 0.44 2.6 0.057 0.666 0.057 1.335 0 2-0.039 0.905-0.239 1.795-0.59 2.63v-18.31h0.030zM15.71 21.69v6.86c-0.216-0.128-0.398-0.306-0.53-0.52-0.24-0.344-0.435-0.717-0.58-1.11-0.155-0.346-0.269-0.708-0.34-1.080-0.127-0.915 0.107-1.843 0.65-2.59 0.395-0.443 0.671-0.98 0.8-1.56z"></path>
</svg>
