<!-- Generated by IcoMoon.io -->
<svg version="1.1" xmlns="http://www.w3.org/2000/svg" width="32" height="32" viewBox="0 0 32 32">
<title>touch</title>
<path d="M15.119 6.908c1.201-0.554 2.457-0.908 3.881-0.908 4.948 0 9 4.052 9 9s-4.052 9-9 9c-0.525 0-1.020-0.004-1.404-0.081-0.541-0.108-1.068 0.243-1.177 0.785s0.243 1.068 0.785 1.177c0.598 0.12 1.281 0.119 1.755 0.119h0.041c6.052 0 11-4.948 11-11s-4.948-11-11-11c-1.776 0-3.32 0.446-4.719 1.092-0.502 0.231-0.72 0.826-0.489 1.327s0.826 0.72 1.327 0.489z"></path>
<path d="M6.316 6.632l-4.316 8.118v12.249h8.7c1.837 0 3.464-1.194 3.874-3.075l1.21-4.925h3.216c2.252 0 4-1.748 4-4s-1.748-4-4-4h-7v-3c0-3.168-4.208-4.167-5.684-1.368zM14.978 17h-2.978c-0.552 0-1 0.448-1 1s0.448 1 1 1h1.725l-1.099 4.476-0.003 0.015c-0.195 0.91-0.964 1.509-1.922 1.509h-6.7v-9.751l4.085-7.684c0.525-0.998 1.915-0.597 1.915 0.434v5h9c1.148 0 2 0.852 2 2s-0.852 2-2 2h-3.979c-0.014-0-0.029-0-0.043 0z"></path>
<path d="M19 9c-1.279 0-2.474 0.427-3.412 1.109-0.447 0.325-1.072 0.226-1.397-0.221s-0.226-1.072 0.22-1.397c1.262-0.918 2.867-1.491 4.588-1.491 4.452 0 8 3.548 8 8s-3.548 8-8 8h-0.038c-0.28 0-0.722 0.001-1.179-0.151-0.524-0.175-0.807-0.741-0.633-1.265s0.741-0.807 1.265-0.633c0.122 0.041 0.261 0.049 0.584 0.049 3.348 0 6-2.652 6-6s-2.652-6-6-6z"></path>
</svg>
