<!-- Generated by IcoMoon.io -->
<svg version="1.1" xmlns="http://www.w3.org/2000/svg" width="32" height="32" viewBox="0 0 32 32">
<title>trailer</title>
<path d="M5.126 24c0.444 1.725 2.010 3 3.874 3s3.43-1.275 3.874-3h10.126v2c0 0.552 0.448 1 1 1s1-0.448 1-1v-2h4c0.552 0 1-0.448 1-1s-0.448-1-1-1h-7v-13c0-2.209-1.791-4-4-4h-12c-2.209 0-4 1.791-4 4v15h3.126zM4 9c0-1.105 0.895-2 2-2h12c1.105 0 2 0.895 2 2v13h-7.126c-0.444-1.725-2.010-3-3.874-3s-3.43 1.275-3.874 3h-1.126v-13zM11 23c0 1.105-0.895 2-2 2s-2-0.895-2-2c0-1.105 0.895-2 2-2s2 0.895 2 2z"></path>
</svg>
