<!-- Generated by IcoMoon.io -->
<svg version="1.1" xmlns="http://www.w3.org/2000/svg" width="32" height="32" viewBox="0 0 32 32">
<title>tshirt</title>
<path d="M7.807 3h5.193v1c0 1.648 1.352 3 3 3s3-1.352 3-3v-1h5.193l5.807 2.323v7.677h-4.7v12c0 2.252-1.748 4-4 4h-10.7c-2.252 0-4-1.748-4-4v-12h-4.6v-7.677l5.807-2.323zM8.193 5l-4.193 1.677v4.323h4.6v14c0 1.148 0.852 2 2 2h10.7c1.148 0 2-0.852 2-2v-14h4.7v-4.323l-4.193-1.677h-2.908c-0.466 2.277-2.489 4-4.899 4s-4.433-1.723-4.899-4h-2.908z"></path>
</svg>
