<!-- Generated by IcoMoon.io -->
<svg version="1.1" xmlns="http://www.w3.org/2000/svg" width="32" height="32" viewBox="0 0 32 32">
<title>utf</title>
<path d="M27.52 1.020h-25.14c-0.277 0-0.543 0.11-0.739 0.306s-0.306 0.462-0.306 0.739c0 0.277 0.11 0.543 0.306 0.739s0.462 0.306 0.739 0.306h25.14c0.14-0.007 0.279 0.015 0.41 0.065s0.249 0.127 0.348 0.226c0.099 0.099 0.176 0.218 0.226 0.348s0.073 0.27 0.065 0.41v23c0.007 0.14-0.015 0.279-0.065 0.41s-0.127 0.249-0.226 0.348c-0.099 0.099-0.218 0.176-0.348 0.226s-0.27 0.073-0.41 0.065h-23c-0.136 0-0.27-0.027-0.395-0.081s-0.237-0.131-0.331-0.23c-0.094-0.098-0.166-0.214-0.213-0.342s-0.068-0.262-0.061-0.398v-18.8c0-0.265 0.105-0.52 0.293-0.707s0.442-0.293 0.707-0.293h9.38c0.278 0 0.546-0.111 0.742-0.308s0.307-0.464 0.307-0.742c0-0.278-0.111-0.546-0.307-0.742s-0.464-0.308-0.742-0.308h-9.43c-0.825 0.003-1.616 0.329-2.203 0.908s-0.923 1.367-0.937 2.192v18.85c0 0.834 0.331 1.633 0.919 2.224s1.387 0.924 2.221 0.926h23.050c0.413 0 0.822-0.082 1.204-0.24s0.728-0.391 1.020-0.683c0.292-0.293 0.523-0.64 0.68-1.022s0.237-0.791 0.236-1.205v-23c0.001-0.413-0.079-0.823-0.236-1.205s-0.388-0.729-0.68-1.022-0.638-0.525-1.020-0.683c-0.382-0.158-0.791-0.24-1.204-0.24v-0.040zM12.85 24.020c-0.278-0.001-0.544-0.113-0.74-0.31l-4.19-4.14c-0.196-0.196-0.307-0.462-0.307-0.74s0.11-0.544 0.307-0.74c0.196-0.196 0.462-0.306 0.74-0.306s0.544 0.11 0.74 0.306l3.45 3.45 9.74-9.73c0.196-0.196 0.462-0.306 0.74-0.306s0.544 0.11 0.74 0.306c0.196 0.196 0.306 0.462 0.306 0.74s-0.11 0.544-0.306 0.74l-10.48 10.47c-0.095 0.1-0.21 0.179-0.338 0.233s-0.264 0.080-0.402 0.078v-0.050z"></path>
</svg>
