<!-- Generated by IcoMoon.io -->
<svg version="1.1" xmlns="http://www.w3.org/2000/svg" width="32" height="32" viewBox="0 0 32 32">
<title>vector</title>
<path d="M12.377 12.698c0.639 1.36 2.021 2.302 3.623 2.302 1.599 0 2.979-0.939 3.619-2.295 2.076 0.919 3.761 2.563 4.682 4.672-1.36 0.639-2.302 2.021-2.302 3.623 0 2.209 1.791 4 4 4s4-1.791 4-4c0-2.104-1.624-3.828-3.686-3.988-0.797-2.061-2.174-3.78-3.909-5.012h4.477c0.275 0.307 0.674 0.5 1.118 0.5 0.828 0 1.5-0.672 1.5-1.5s-0.672-1.5-1.5-1.5c-0.444 0-0.843 0.193-1.118 0.5h-7.008c-0.444-1.725-2.010-3-3.874-3s-3.43 1.275-3.874 3h-7.008c-0.275-0.307-0.674-0.5-1.118-0.5-0.828 0-1.5 0.672-1.5 1.5s0.672 1.5 1.5 1.5c0.444 0 0.843-0.193 1.118-0.5h4.463c-1.752 1.256-3.097 3.002-3.889 5.012-2.065 0.157-3.692 1.883-3.692 3.988 0 2.209 1.791 4 4 4s4-1.791 4-4c0-1.599-0.939-2.979-2.295-3.619 0.919-2.076 2.563-3.761 4.672-4.682zM14 11c0-1.105 0.895-2 2-2s2 0.895 2 2c0 1.105-0.895 2-2 2s-2-0.895-2-2zM6 19c1.105 0 2 0.895 2 2s-0.895 2-2 2c-1.105 0-2-0.895-2-2s0.895-2 2-2zM24 21c0-1.105 0.895-2 2-2s2 0.895 2 2c0 1.105-0.895 2-2 2s-2-0.895-2-2z"></path>
</svg>
