<!-- Generated by IcoMoon.io -->
<svg version="1.1" xmlns="http://www.w3.org/2000/svg" width="32" height="32" viewBox="0 0 32 32">
<title>vehicle</title>
<path d="M12 16c-0.552 0-1 0.448-1 1v3c0 0.552 0.448 1 1 1h8c0.552 0 1-0.448 1-1v-3c0-0.552-0.448-1-1-1h-8zM19 19h-6v-1h6v1z"></path>
<path d="M24.5 20c0.828 0 1.5-0.672 1.5-1.5s-0.672-1.5-1.5-1.5c-0.828 0-1.5 0.672-1.5 1.5s0.672 1.5 1.5 1.5z"></path>
<path d="M9 18.5c0 0.828-0.672 1.5-1.5 1.5s-1.5-0.672-1.5-1.5c0-0.828 0.672-1.5 1.5-1.5s1.5 0.672 1.5 1.5z"></path>
<path d="M10.5 2c-1.871 0-3.586 1.331-3.981 3.304l-0.005 0.025-0.982 6.696c-2.022 0.223-3.532 1.881-3.532 3.974v5c0 1.905 1.251 3.45 3 3.88v3.12c0 0.527 0.18 1.044 0.568 1.432s0.905 0.568 1.432 0.568h3c0.527 0 1.044-0.18 1.432-0.568s0.568-0.905 0.568-1.432v-3h8v3c0 0.527 0.18 1.044 0.568 1.432s0.905 0.568 1.432 0.568h3c0.527 0 1.044-0.18 1.432-0.568s0.568-0.905 0.568-1.432v-3.12c1.749-0.43 3-1.975 3-3.88v-5c0-2.098-1.516-3.758-3.543-3.976l-1.067-6.67c-0.278-2.031-2.036-3.354-3.889-3.354h-11zM7.264 14l1.221-8.327c0.214-1.014 1.092-1.673 2.015-1.673h11c0.943 0 1.781 0.671 1.909 1.632l0.002 0.013 1.337 8.355h1.253c1.148 0 2 0.852 2 2v5c0 1.148-0.852 2-2 2h-1v5h-3v-5h-12v5h-3v-5h-1c-1.148 0-2-0.852-2-2v-5c0-1.148 0.852-2 2-2h1.264z"></path>
</svg>
