<!-- Generated by IcoMoon.io -->
<svg version="1.1" xmlns="http://www.w3.org/2000/svg" width="32" height="32" viewBox="0 0 32 32">
<title>view-list</title>
<path d="M4 2c-0.527 0-1.044 0.18-1.432 0.568s-0.568 0.905-0.568 1.432v9c0 0.527 0.18 1.044 0.568 1.432s0.905 0.568 1.432 0.568h9c0.527 0 1.044-0.18 1.432-0.568s0.568-0.905 0.568-1.432v-9c0-0.527-0.18-1.044-0.568-1.432s-0.905-0.568-1.432-0.568h-9zM4 13v-9h9v9h-9z"></path>
<path d="M18 5c-0.552 0-1 0.448-1 1s0.448 1 1 1h10c0.552 0 1-0.448 1-1s-0.448-1-1-1h-10z"></path>
<path d="M17 11c0-0.552 0.448-1 1-1h6c0.552 0 1 0.448 1 1s-0.448 1-1 1h-6c-0.552 0-1-0.448-1-1z"></path>
<path d="M4 17c-0.527 0-1.044 0.18-1.432 0.568s-0.568 0.905-0.568 1.432v9c0 0.527 0.18 1.044 0.568 1.432s0.905 0.568 1.432 0.568h9c0.527 0 1.044-0.18 1.432-0.568s0.568-0.905 0.568-1.432v-9c0-0.527-0.18-1.044-0.568-1.432s-0.905-0.568-1.432-0.568h-9zM4 28v-9h9v9h-9z"></path>
<path d="M17 21c0-0.552 0.448-1 1-1h10c0.552 0 1 0.448 1 1s-0.448 1-1 1h-10c-0.552 0-1-0.448-1-1z"></path>
<path d="M18 25c-0.552 0-1 0.448-1 1s0.448 1 1 1h6c0.552 0 1-0.448 1-1s-0.448-1-1-1h-6z"></path>
</svg>
