<!-- Generated by IcoMoon.io -->
<svg version="1.1" xmlns="http://www.w3.org/2000/svg" width="32" height="32" viewBox="0 0 32 32">
<title>view-cards</title>
<path d="M4 4c-0.527 0-1.044 0.18-1.432 0.568s-0.568 0.905-0.568 1.432v20c0 0.527 0.18 1.044 0.568 1.432s0.905 0.568 1.432 0.568h9c0.527 0 1.044-0.18 1.432-0.568s0.568-0.905 0.568-1.432v-20c0-0.527-0.18-1.044-0.568-1.432s-0.905-0.568-1.432-0.568h-9zM4 26v-20h9v20h-9z"></path>
<path d="M19 4c-0.527 0-1.044 0.18-1.432 0.568s-0.568 0.905-0.568 1.432v20c0 0.527 0.18 1.044 0.568 1.432s0.905 0.568 1.432 0.568h9c0.527 0 1.044-0.18 1.432-0.568s0.568-0.905 0.568-1.432v-20c0-0.527-0.18-1.044-0.568-1.432s-0.905-0.568-1.432-0.568h-9zM19 26v-20h9v20h-9z"></path>
</svg>
