<!-- Generated by IcoMoon.io -->
<svg version="1.1" xmlns="http://www.w3.org/2000/svg" width="32" height="32" viewBox="0 0 32 32">
<title>view-single</title>
<path d="M4.568 4.568c0.388-0.388 0.905-0.568 1.432-0.568h20c0.527 0 1.044 0.18 1.432 0.568s0.568 0.905 0.568 1.432v9c0 0.527-0.18 1.044-0.568 1.432s-0.905 0.568-1.432 0.568h-20c-0.527 0-1.044-0.18-1.432-0.568s-0.568-0.905-0.568-1.432v-9c0-0.527 0.18-1.044 0.568-1.432zM6 6v9h20v-9h-20z"></path>
<path d="M5 21c0-0.552 0.448-1 1-1h19c0.552 0 1 0.448 1 1s-0.448 1-1 1h-19c-0.552 0-1-0.448-1-1z"></path>
<path d="M6 25c-0.552 0-1 0.448-1 1s0.448 1 1 1h15c0.552 0 1-0.448 1-1s-0.448-1-1-1h-15z"></path>
</svg>
