<!-- Generated by IcoMoon.io -->
<svg version="1.1" xmlns="http://www.w3.org/2000/svg" width="32" height="32" viewBox="0 0 32 32">
<title>view-stack</title>
<path d="M6 2c-0.527 0-1.044 0.18-1.432 0.568s-0.568 0.905-0.568 1.432v9c0 0.527 0.18 1.044 0.568 1.432s0.905 0.568 1.432 0.568h20c0.527 0 1.044-0.18 1.432-0.568s0.568-0.905 0.568-1.432v-9c0-0.527-0.18-1.044-0.568-1.432s-0.905-0.568-1.432-0.568h-20zM6 13v-9h20v9h-20z"></path>
<path d="M6 17c-0.527 0-1.044 0.18-1.432 0.568s-0.568 0.905-0.568 1.432v9c0 0.527 0.18 1.044 0.568 1.432s0.905 0.568 1.432 0.568h20c0.527 0 1.044-0.18 1.432-0.568s0.568-0.905 0.568-1.432v-9c0-0.527-0.18-1.044-0.568-1.432s-0.905-0.568-1.432-0.568h-20zM6 28v-9h20v9h-20z"></path>
</svg>
