<!-- Generated by IcoMoon.io -->
<svg version="1.1" xmlns="http://www.w3.org/2000/svg" width="32" height="32" viewBox="0 0 32 32">
<title>volume-low</title>
<path d="M18 29.407v-26.407l-9.376 8.204h-2.624c-2.252 0-4 1.748-4 4v2c0 2.252 1.748 4 4 4h2.624l9.376 8.204zM9.376 13.204l6.624-5.796v17.592l-6.624-5.796h-3.376c-1.148 0-2-0.852-2-2v-2c0-1.148 0.852-2 2-2h3.376z"></path>
<path d="M21.707 9.297c-0.39-0.391-1.024-0.391-1.414 0s-0.39 1.024 0 1.414c3.004 3.004 3.018 7.978-0.010 11.096-0.385 0.396-0.376 1.029 0.020 1.414s1.029 0.376 1.414-0.020c3.771-3.882 3.786-10.108-0.010-13.904z"></path>
</svg>
