<!-- Generated by IcoMoon.io -->
<svg version="1.1" xmlns="http://www.w3.org/2000/svg" width="32" height="32" viewBox="0 0 32 32">
<title>warm-food</title>
<path d="M11.714 4.7c0.383-0.391 0.381-1.019-0.007-1.407-0.39-0.391-1.024-0.391-1.414 0-0.529 0.529-0.618 1.179-0.57 1.704 0.042 0.462 0.199 0.933 0.313 1.274l0.015 0.045c0.135 0.405 0.215 0.663 0.234 0.868 0.006 0.064 0.003 0.1 0 0.116-0.383 0.391-0.381 1.019 0.007 1.407 0.39 0.391 1.024 0.391 1.414 0 0.529-0.529 0.618-1.179 0.57-1.704-0.042-0.462-0.199-0.933-0.313-1.274l-0.015-0.045c-0.135-0.405-0.215-0.663-0.234-0.868-0.006-0.064-0.003-0.1-0-0.116z"></path>
<path d="M12 14.683c-3.764 1.331-6.666 4.483-7.624 8.382-1.354 0.289-2.376 1.496-2.376 2.934 0 1.652 1.348 3 3 3h22c1.652 0 3-1.348 3-3 0-1.438-1.021-2.646-2.376-2.934-0.959-3.899-3.861-7.052-7.624-8.382v-0.683c0-1.652-1.348-3-3-3h-2c-1.652 0-3 1.348-3 3v0.683zM6.468 23c1.246-4.039 5.046-7 9.532-7s8.286 2.961 9.532 7h-19.064zM5.183 25c0.012 0 0.024 0 0.037 0h21.561c0.012 0 0.024 0 0.037 0h0.183c0.548 0 1 0.452 1 1s-0.452 1-1 1h-22c-0.548 0-1-0.452-1-1s0.452-1 1-1h0.183zM14 14.166v-0.166c0-0.548 0.452-1 1-1h2c0.548 0 1 0.452 1 1v0.166c-0.651-0.109-1.319-0.166-2-0.166s-1.349 0.057-2 0.166z"></path>
<path d="M16.707 3.293c0.388 0.388 0.39 1.016 0.007 1.407-0.002 0.016-0.005 0.052 0 0.116 0.019 0.205 0.099 0.463 0.234 0.868l0.015 0.045c0.114 0.342 0.271 0.813 0.314 1.274 0.048 0.525-0.041 1.175-0.57 1.704-0.39 0.391-1.024 0.391-1.414 0-0.388-0.388-0.39-1.016-0.007-1.407 0.002-0.016 0.005-0.052-0-0.116-0.019-0.205-0.099-0.463-0.234-0.868l-0.015-0.045c-0.114-0.342-0.271-0.813-0.313-1.274-0.048-0.525 0.041-1.175 0.57-1.704 0.39-0.391 1.024-0.391 1.414 0z"></path>
<path d="M21.714 4.7c0.383-0.391 0.381-1.019-0.007-1.407-0.39-0.391-1.024-0.391-1.414 0-0.529 0.529-0.618 1.179-0.57 1.704 0.042 0.462 0.199 0.933 0.313 1.274l0.015 0.045c0.135 0.405 0.215 0.663 0.234 0.868 0.006 0.064 0.003 0.1 0 0.116-0.383 0.391-0.381 1.019 0.007 1.407 0.39 0.391 1.024 0.391 1.414 0 0.529-0.529 0.618-1.179 0.57-1.704-0.042-0.462-0.199-0.933-0.314-1.274l-0.015-0.045c-0.135-0.405-0.215-0.663-0.234-0.868-0.006-0.064-0.003-0.1-0-0.116z"></path>
</svg>
