<!-- Generated by IcoMoon.io -->
<svg version="1.1" xmlns="http://www.w3.org/2000/svg" width="32" height="32" viewBox="0 0 32 32">
<title>warning</title>
<path d="M16 23.5c0.828 0 1.5-0.672 1.5-1.5s-0.672-1.5-1.5-1.5c-0.828 0-1.5 0.672-1.5 1.5s0.672 1.5 1.5 1.5z"></path>
<path d="M17 9c0-0.552-0.448-1-1-1s-1 0.448-1 1v8c0 0.552 0.448 1 1 1s1-0.448 1-1v-8z"></path>
<path d="M19.571 5.009c-1.5-2.711-5.46-2.639-7.029-0.023l-10.004 17.206c-1.613 2.699 0.426 6.008 3.461 6.008h20c3.034 0 5.074-3.307 3.462-6.006l-9.891-17.185zM14.261 6.009c0.831-1.376 2.86-1.306 3.563-0.027l0.005 0.008 9.914 17.224c0.78 1.3-0.18 2.985-1.742 2.985h-20c-1.563 0-2.522-1.686-1.742-2.986l10.003-17.205z"></path>
</svg>
