<!-- Generated by IcoMoon.io -->
<svg version="1.1" xmlns="http://www.w3.org/2000/svg" width="32" height="32" viewBox="0 0 32 32">
<title>watch</title>
<path d="M17 10c0-0.552-0.448-1-1-1s-1 0.448-1 1v6.5l4.4 3.3c0.442 0.331 1.069 0.242 1.4-0.2s0.242-1.069-0.2-1.4l-3.6-2.7v-5.5z"></path>
<path d="M29 16c0-1.652-1.348-3-3-3v-4c0-2.252-1.748-4-4-4h-0.12c-0.43-1.749-1.975-3-3.88-3h-4c-1.905 0-3.45 1.251-3.88 3h-0.12c-2.252 0-4 1.748-4 4v14c0 2.252 1.748 4 4 4h0.12c0.43 1.749 1.975 3 3.88 3h4c1.905 0 3.45-1.251 3.88-3h0.12c2.252 0 4-1.748 4-4v-4c1.652 0 3-1.348 3-3zM10 7h12c1.148 0 2 0.852 2 2v14c0 1.148-0.852 2-2 2h-12c-1.148 0-2-0.852-2-2v-14c0-1.148 0.852-2 2-2zM27 16c0 0.548-0.452 1-1 1v-2c0.548 0 1 0.452 1 1zM19.753 27c-0.333 0.609-0.975 1-1.753 1h-4c-0.777 0-1.419-0.391-1.752-1h7.505zM14 4h4c0.777 0 1.419 0.391 1.753 1h-7.505c0.333-0.609 0.975-1 1.752-1z"></path>
</svg>
