<!-- Generated by IcoMoon.io -->
<svg version="1.1" xmlns="http://www.w3.org/2000/svg" width="32" height="32" viewBox="0 0 32 32">
<title>way</title>
<path d="M6.67 11.637l0.003-0.003 0.034-0.041c0.023-0.028 0.056-0.069 0.097-0.12 0.083-0.103 0.2-0.252 0.341-0.434 0.28-0.364 0.656-0.869 1.034-1.429 0.375-0.556 0.765-1.186 1.065-1.796 0.283-0.575 0.556-1.269 0.556-1.913 0-2.152-1.748-3.9-3.9-3.9s-3.9 1.748-3.9 3.9c0 0.644 0.273 1.338 0.556 1.913 0.3 0.61 0.69 1.24 1.065 1.796 0.378 0.56 0.753 1.065 1.034 1.429 0.141 0.182 0.258 0.331 0.341 0.434 0.042 0.052 0.074 0.092 0.097 0.12l0.034 0.041 0.003 0.004c0.19 0.229 0.472 0.362 0.77 0.362s0.58-0.133 0.77-0.363zM4 5.9c0-1.048 0.852-1.9 1.9-1.9s1.9 0.852 1.9 1.9c0 0.156-0.090 0.5-0.351 1.031-0.244 0.496-0.579 1.041-0.928 1.56-0.213 0.316-0.427 0.615-0.621 0.877-0.194-0.263-0.408-0.562-0.621-0.877-0.35-0.519-0.685-1.064-0.928-1.56-0.261-0.531-0.351-0.874-0.351-1.031z"></path>
<path d="M13 5c-0.552 0-1 0.448-1 1s0.448 1 1 1h6c2.248 0 4 1.752 4 4s-1.752 4-4 4h-7c-3.352 0-6 2.648-6 6s2.648 6 6 6h7c0.552 0 1-0.448 1-1s-0.448-1-1-1h-7c-2.248 0-4-1.752-4-4s1.752-4 4-4h7c3.352 0 6-2.648 6-6s-2.648-6-6-6h-6z"></path>
<path d="M27.414 26l2.293 2.293c0.39 0.39 0.39 1.024 0 1.414s-1.024 0.39-1.414 0l-2.293-2.293-2.293 2.293c-0.39 0.39-1.024 0.39-1.414 0s-0.39-1.024 0-1.414l2.293-2.293-2.293-2.293c-0.39-0.39-0.39-1.024 0-1.414s1.024-0.39 1.414 0l2.293 2.293 2.293-2.293c0.39-0.39 1.024-0.39 1.414 0s0.39 1.024 0 1.414l-2.293 2.293z"></path>
</svg>
