<!-- Generated by IcoMoon.io -->
<svg version="1.1" xmlns="http://www.w3.org/2000/svg" width="32" height="32" viewBox="0 0 32 32">
<title>wrench</title>
<path d="M13.993 5.493c1.991-1.991 5.124-1.991 7.114 0l0.707 0.707-3.070 3.070 1.047 3.139 3.139 1.046 3.070-3.070 0.707 0.707c1.991 1.99 1.991 5.124 0 7.114l-1.4 1.4c-2.149 2.149-5.383 2.366-7.751 0.651l-7.134 7.134c-1.51 1.627-4.045 1.582-5.613 0.029-1.634-1.514-1.583-4.062-0.015-5.629l7.149-7.149c-1.715-2.368-1.498-5.602 0.651-7.751l1.4-1.4zM18.872 6.313c-1.131-0.564-2.505-0.366-3.465 0.594l-1.4 1.4c-1.61 1.609-1.61 4.076 0 5.686l0.707 0.707-8.507 8.507c-0.827 0.827-0.781 2.069-0.031 2.756l0.016 0.015 0.015 0.015c0.827 0.827 2.068 0.781 2.756 0.031l0.015-0.016 8.522-8.523 0.707 0.707c1.61 1.61 4.076 1.61 5.686 0l1.4-1.4c0.96-0.96 1.158-2.335 0.594-3.465l-2.417 2.417-5.261-1.754-1.753-5.261 2.417-2.417z"></path>
</svg>
