<!-- Generated by IcoMoon.io -->
<svg version="1.1" xmlns="http://www.w3.org/2000/svg" width="32" height="32" viewBox="0 0 32 32">
<title>youtube</title>
<path d="M30.364 9.293c-0.342-1.288-1.369-2.315-2.658-2.658-2.331-0.636-11.707-0.636-11.707-0.636s-9.391 0.016-11.723 0.652c-1.288 0.342-2.315 1.37-2.658 2.658-0.62 2.332-0.62 7.207-0.62 7.207s0 4.875 0.636 7.223c0.342 1.288 1.37 2.315 2.658 2.658 2.332 0.636 11.707 0.636 11.707 0.636s9.375 0 11.706-0.636c1.288-0.342 2.315-1.369 2.658-2.658 0.636-2.331 0.636-7.223 0.636-7.223s0-4.875-0.636-7.223zM13 21.016v-9l7.794 4.5-7.793 4.5z"></path>
</svg>
