<!-- Generated by IcoMoon.io -->
<svg version="1.1" xmlns="http://www.w3.org/2000/svg" width="32" height="32" viewBox="0 0 32 32">
<title>zthree</title>
<path d="M28.33 6.69l-10.67-5.36c-0.516-0.256-1.084-0.39-1.66-0.39s-1.144 0.133-1.66 0.39l-5.23 2.61c-0.177 0.089-0.325 0.226-0.429 0.394s-0.159 0.363-0.159 0.561c0 0.198 0.055 0.392 0.159 0.561s0.252 0.305 0.429 0.394l12.74 6.37v4.14c0.026 0.265 0.149 0.51 0.346 0.689s0.453 0.278 0.719 0.278 0.522-0.099 0.719-0.278c0.197-0.179 0.32-0.424 0.346-0.689v-4.8c0.008-0.206-0.043-0.41-0.148-0.587s-0.258-0.321-0.442-0.413l-11.39-5.67 3.32-1.65c0.22-0.111 0.463-0.168 0.71-0.168s0.49 0.058 0.71 0.168l10.64 5.33c0.268 0.13 0.494 0.333 0.651 0.587s0.24 0.545 0.239 0.843v11.38c0 0.298-0.083 0.59-0.24 0.843s-0.383 0.456-0.65 0.587l-10.31 5.15v-12.94c0.008-0.206-0.043-0.41-0.148-0.587s-0.258-0.321-0.442-0.413l-13.34-6.63c-0.166-0.081-0.35-0.118-0.535-0.107s-0.363 0.070-0.518 0.171c-0.155 0.101-0.281 0.24-0.367 0.404s-0.127 0.348-0.12 0.532v13c0.005 0.687 0.201 1.358 0.564 1.941s0.881 1.053 1.496 1.359l10.66 5.33c0.523 0.257 1.098 0.39 1.68 0.39 0.576 0.001 1.145-0.133 1.66-0.39l10.67-5.33c0.623-0.307 1.148-0.783 1.514-1.373s0.559-1.272 0.556-1.966v-11.35c-0.002-0.69-0.197-1.365-0.563-1.95s-0.888-1.056-1.507-1.36zM14.93 27.97l-10.32-5.16c-0.266-0.137-0.49-0.345-0.645-0.601s-0.237-0.55-0.235-0.849v-11.29l11.2 5.62v12.28z"></path>
</svg>
