<?xml version="1.0" encoding="utf-8"?>
<!-- Generated by IcoMoon.io -->
<!DOCTYPE svg PUBLIC "-//W3C//DTD SVG 1.1//EN" "http://www.w3.org/Graphics/SVG/1.1/DTD/svg11.dtd">
<svg version="1.1" xmlns="http://www.w3.org/2000/svg" xmlns:xlink="http://www.w3.org/1999/xlink" width="32" height="32" viewBox="0 0 32 32">
<path d="M23.114 28.321c1.222-0.705 1.812-2.285 1.812-4.373 0-0.909-0.113-1.916-0.333-2.988 3.423-1.137 5.635-2.936 5.635-4.961s-2.211-3.824-5.635-4.961c0.221-1.072 0.333-2.078 0.333-2.988-0-2.088-0.591-3.668-1.812-4.373-1.754-1.013-4.418 0.003-7.114 2.399-2.696-2.396-5.36-3.412-7.114-2.399-1.222 0.705-1.812 2.285-1.812 4.373 0 0.909 0.113 1.916 0.333 2.988-3.423 1.137-5.635 2.936-5.635 4.961s2.211 3.824 5.635 4.961c-0.221 1.072-0.333 2.078-0.333 2.988 0 2.087 0.591 3.668 1.812 4.373 1.754 1.013 4.418-0.003 7.114-2.399 2.696 2.396 5.36 3.412 7.114 2.399zM23.125 23.949c0 1.432-0.341 2.484-0.912 2.813-0.737 0.425-2.278-0.084-3.927-1.299-0.294-0.216-0.588-0.451-0.881-0.703-0.060-0.051-0.064-0.142-0.010-0.2 0.686-0.73 1.363-1.543 2.019-2.428 0.046-0.062 0.115-0.102 0.191-0.11 1.094-0.125 2.136-0.305 3.111-0.534 0.077-0.018 0.153 0.031 0.168 0.109 0.158 0.837 0.242 1.628 0.242 2.351zM12.169 18.212c-0.377-0.652-0.725-1.312-1.044-1.972-0.073-0.151-0.073-0.328 0-0.479 0.319-0.66 0.667-1.32 1.044-1.972 0.378-0.655 0.774-1.287 1.184-1.892 0.095-0.139 0.248-0.228 0.416-0.24 0.729-0.053 1.474-0.080 2.231-0.080s1.502 0.027 2.231 0.080c0.168 0.012 0.321 0.101 0.416 0.24 0.41 0.605 0.806 1.237 1.184 1.892 0.377 0.652 0.725 1.312 1.044 1.972 0.073 0.151 0.073 0.328 0 0.479-0.319 0.66-0.667 1.32-1.044 1.972-0.378 0.655-0.774 1.287-1.184 1.892-0.095 0.139-0.248 0.228-0.416 0.24-0.729 0.053-1.474 0.080-2.231 0.080s-1.502-0.027-2.231-0.080c-0.168-0.012-0.321-0.101-0.416-0.24-0.41-0.605-0.806-1.237-1.184-1.892zM11.010 20.007c-0.466-0.082-0.919-0.175-1.36-0.279-0.039-0.009-0.062-0.049-0.051-0.088 0.13-0.433 0.276-0.873 0.438-1.317 0.020-0.056 0.098-0.062 0.126-0.009 0.144 0.266 0.292 0.532 0.446 0.799 0.155 0.268 0.312 0.531 0.471 0.791 0.031 0.051-0.012 0.115-0.071 0.104zM9.999 13.571c-0.147-0.409-0.28-0.813-0.4-1.212-0.011-0.038 0.012-0.078 0.051-0.088 0.44-0.105 0.894-0.198 1.36-0.279 0.059-0.010 0.102 0.054 0.071 0.104-0.16 0.259-0.317 0.523-0.471 0.791-0.135 0.233-0.265 0.466-0.392 0.699-0.050 0.091-0.183 0.081-0.218-0.016zM15.024 9.675c0.305-0.364 0.613-0.711 0.925-1.041 0.027-0.029 0.074-0.029 0.101 0 0.312 0.33 0.62 0.677 0.925 1.041 0.038 0.046 0.005 0.115-0.055 0.114-0.304-0.009-0.611-0.013-0.921-0.013s-0.616 0.004-0.921 0.013c-0.060 0.002-0.093-0.068-0.055-0.114zM20.99 11.993c0.466 0.082 0.919 0.175 1.36 0.279 0.039 0.009 0.062 0.049 0.051 0.088-0.13 0.433-0.276 0.873-0.438 1.317-0.020 0.056-0.098 0.062-0.126 0.009-0.144-0.266-0.292-0.533-0.446-0.799-0.155-0.268-0.312-0.531-0.471-0.791-0.031-0.051 0.012-0.115 0.071-0.104zM21.962 18.323c0.162 0.445 0.308 0.884 0.438 1.317 0.012 0.038-0.012 0.078-0.051 0.088-0.44 0.105-0.894 0.198-1.359 0.279-0.059 0.010-0.102-0.054-0.071-0.105 0.16-0.259 0.317-0.523 0.471-0.791 0.154-0.266 0.302-0.532 0.446-0.799 0.028-0.052 0.105-0.047 0.126 0.009zM16.975 22.325c-0.305 0.364-0.613 0.711-0.925 1.041-0.027 0.029-0.074 0.029-0.101 0-0.312-0.33-0.62-0.677-0.925-1.041-0.038-0.046-0.005-0.115 0.055-0.114 0.304 0.009 0.611 0.013 0.921 0.013s0.616-0.004 0.921-0.013c0.060-0.002 0.093 0.068 0.055 0.114zM25.339 13.248c1.876 0.821 3.088 1.901 3.088 2.752s-1.212 1.931-3.088 2.752c-0.334 0.146-0.685 0.284-1.049 0.412-0.074 0.026-0.155-0.015-0.178-0.091-0.289-0.959-0.654-1.952-1.093-2.962-0.031-0.070-0.031-0.151 0-0.221 0.439-1.010 0.804-2.003 1.093-2.962 0.023-0.075 0.104-0.117 0.178-0.091 0.364 0.128 0.715 0.265 1.049 0.412zM22.213 5.238c0.571 0.33 0.912 1.381 0.912 2.813v0c0 0.723-0.083 1.514-0.242 2.351-0.015 0.077-0.091 0.127-0.168 0.109-0.975-0.229-2.017-0.409-3.111-0.534-0.076-0.009-0.146-0.049-0.191-0.11-0.655-0.885-1.333-1.698-2.019-2.428-0.054-0.058-0.049-0.148 0.010-0.2 0.293-0.251 0.587-0.486 0.881-0.703 1.649-1.214 3.19-1.724 3.927-1.299zM8.875 8.051c0-1.432 0.341-2.484 0.912-2.813 0.737-0.425 2.278 0.084 3.927 1.299 0.294 0.216 0.588 0.451 0.881 0.703 0.060 0.051 0.065 0.142 0.010 0.2-0.686 0.73-1.363 1.543-2.019 2.428-0.046 0.062-0.115 0.102-0.191 0.11-1.094 0.125-2.136 0.305-3.111 0.534-0.077 0.018-0.153-0.031-0.168-0.109-0.159-0.837-0.242-1.628-0.242-2.351zM6.661 18.752c-1.876-0.821-3.088-1.901-3.088-2.752s1.212-1.931 3.088-2.752c0.376-0.165 0.772-0.318 1.186-0.459 0.306 1.036 0.701 2.114 1.183 3.211-0.482 1.097-0.877 2.175-1.183 3.211-0.414-0.142-0.81-0.295-1.186-0.459zM9.787 26.762c-0.571-0.33-0.912-1.381-0.912-2.813 0-0.723 0.083-1.514 0.242-2.351 0.015-0.077 0.091-0.127 0.168-0.109 0.975 0.229 2.017 0.409 3.111 0.534 0.076 0.009 0.146 0.049 0.191 0.11 0.655 0.885 1.333 1.698 2.019 2.428 0.054 0.058 0.049 0.148-0.010 0.2-0.293 0.251-0.587 0.486-0.881 0.703-1.649 1.214-3.19 1.724-3.927 1.299z"></path>
<path d="M16 18.668c-1.473 0-2.668-1.194-2.668-2.668s1.194-2.668 2.668-2.668c1.473 0 2.668 1.194 2.668 2.668s-1.194 2.668-2.668 2.668z"></path>
</svg>
