<?xml version="1.0" encoding="utf-8"?>
<!-- Generated by IcoMoon.io -->
<!DOCTYPE svg PUBLIC "-//W3C//DTD SVG 1.1//EN" "http://www.w3.org/Graphics/SVG/1.1/DTD/svg11.dtd">
<svg version="1.1" xmlns="http://www.w3.org/2000/svg" xmlns:xlink="http://www.w3.org/1999/xlink" width="32" height="32" viewBox="0 0 32 32">
<path fill="#000" d="M29.673 13.332h-0.67c-0.306 0-0.554-0.248-0.554-0.554v-0.313c0-0.995-0.806-1.801-1.801-1.801h-23.075c-0.995 0-1.801 0.806-1.801 1.801v7.069c0 0.995 0.806 1.801 1.801 1.801h23.075c0.995 0 1.801-0.806 1.801-1.801v-0.313c0-0.306 0.248-0.554 0.554-0.554h0.67c0.306 0 0.554-0.248 0.554-0.554v-4.227c0-0.306-0.248-0.554-0.554-0.554zM26.094 19.534h-21.967c-0.306 0-0.554-0.248-0.554-0.554v-5.961c0-0.306 0.248-0.554 0.554-0.554h21.967c0.306 0 0.554 0.248 0.554 0.554v5.961c0 0.306-0.248 0.554-0.554 0.554z"></path>
</svg>
