<?xml version="1.0" encoding="utf-8"?>
<!-- Generated by IcoMoon.io -->
<!DOCTYPE svg PUBLIC "-//W3C//DTD SVG 1.1//EN" "http://www.w3.org/Graphics/SVG/1.1/DTD/svg11.dtd">
<svg version="1.1" xmlns="http://www.w3.org/2000/svg" xmlns:xlink="http://www.w3.org/1999/xlink" width="32" height="32" viewBox="0 0 32 32">
<path d="M17.26 15.997l8.142-8.142c0.35-0.35 0.35-0.918-0-1.269s-0.919-0.351-1.269-0l-8.142 8.142-8.142-8.142c-0.35-0.35-0.918-0.35-1.269 0s-0.351 0.918-0 1.269l8.142 8.142-8.142 8.142c-0.35 0.35-0.35 0.918 0 1.269s0.918 0.351 1.269 0l8.142-8.142 8.142 8.142c0.35 0.35 0.918 0.35 1.269-0s0.351-0.919 0-1.269l-8.142-8.142z"></path>
</svg>
