<?xml version="1.0" encoding="utf-8"?>
<!-- Generated by IcoMoon.io -->
<!DOCTYPE svg PUBLIC "-//W3C//DTD SVG 1.1//EN" "http://www.w3.org/Graphics/SVG/1.1/DTD/svg11.dtd">
<svg version="1.1" xmlns="http://www.w3.org/2000/svg" xmlns:xlink="http://www.w3.org/1999/xlink" width="32" height="32" viewBox="0 0 32 32">
<path fill="#000" d="M21.335 15.1h-10.671c-0.497 0-0.9 0.403-0.9 0.9s0.403 0.9 0.9 0.9h10.671c0.497 0 0.9-0.403 0.9-0.9s-0.403-0.9-0.9-0.9z"></path>
<path fill="#000" d="M17.801 11.531c0 0.995-0.806 1.801-1.801 1.801s-1.801-0.806-1.801-1.801c0-0.995 0.806-1.801 1.801-1.801s1.801 0.806 1.801 1.801z"></path>
<path fill="#000" d="M17.801 20.424c0 0.995-0.806 1.801-1.801 1.801s-1.801-0.806-1.801-1.801c0-0.995 0.806-1.801 1.801-1.801s1.801 0.806 1.801 1.801z"></path>
</svg>
