<?xml version="1.0" encoding="utf-8"?>
<!-- Generated by IcoMoon.io -->
<!DOCTYPE svg PUBLIC "-//W3C//DTD SVG 1.1//EN" "http://www.w3.org/Graphics/SVG/1.1/DTD/svg11.dtd">
<svg version="1.1" xmlns="http://www.w3.org/2000/svg" xmlns:xlink="http://www.w3.org/1999/xlink" width="32" height="32" viewBox="0 0 32 32">
<path fill="#000" d="M8.886 16c0 1.964-1.592 3.557-3.557 3.557s-3.557-1.592-3.557-3.557c0-1.964 1.592-3.557 3.557-3.557s3.557 1.592 3.557 3.557z"></path>
<path fill="#000" d="M19.557 16c0 1.964-1.592 3.557-3.557 3.557s-3.557-1.592-3.557-3.557c0-1.964 1.592-3.557 3.557-3.557s3.557 1.592 3.557 3.557z"></path>
<path fill="#000" d="M30.227 16c0 1.964-1.592 3.557-3.557 3.557s-3.557-1.592-3.557-3.557c0-1.964 1.592-3.557 3.557-3.557s3.557 1.592 3.557 3.557z"></path>
</svg>
