<?xml version="1.0" encoding="utf-8"?>
<!-- Generated by IcoMoon.io -->
<!DOCTYPE svg PUBLIC "-//W3C//DTD SVG 1.1//EN" "http://www.w3.org/Graphics/SVG/1.1/DTD/svg11.dtd">
<svg version="1.1" xmlns="http://www.w3.org/2000/svg" xmlns:xlink="http://www.w3.org/1999/xlink" width="32" height="32" viewBox="0 0 32 32">
<path d="M16.036 6.413l-1.023 0.737 0.385-1.2-1.017-0.745 1.261-0.005 0.394-1.197 0.394 1.197 1.261 0.005-1.017 0.745 0.385 1.2-1.023-0.737zM21.229 7.805l-1.023 0.737 0.385-1.2-1.017-0.745 1.261-0.005 0.394-1.197 0.394 1.197 1.261 0.005-1.017 0.745 0.385 1.2-1.023-0.737zM25.056 11.633l-1.023 0.737 0.385-1.2-1.017-0.745 1.261-0.005 0.394-1.197 0.394 1.197 1.261 0.005-1.017 0.745 0.385 1.2-1.023-0.737zM26.448 16.852l-1.023 0.737 0.385-1.2-1.017-0.745 1.261-0.005 0.394-1.197 0.394 1.197 1.261 0.005-1.017 0.745 0.385 1.2-1.023-0.737zM25.056 22.072l-1.023 0.737 0.385-1.2-1.017-0.745 1.261-0.005 0.394-1.197 0.394 1.197 1.261 0.005-1.017 0.745 0.385 1.2-1.023-0.737zM21.229 25.899l-1.023 0.737 0.385-1.2-1.017-0.745 1.261-0.005 0.394-1.197 0.394 1.197 1.261 0.005-1.017 0.745 0.385 1.2-1.023-0.737zM16.009 27.291l-1.023 0.737 0.385-1.2-1.017-0.745 1.261-0.005 0.394-1.197 0.394 1.197 1.261 0.005-1.017 0.745 0.385 1.2-1.023-0.737zM10.79 25.899l-1.023 0.737 0.385-1.2-1.017-0.745 1.261-0.005 0.394-1.197 0.394 1.197 1.261 0.005-1.017 0.745 0.385 1.2-1.023-0.737zM7.020 22.072l-1.023 0.737 0.385-1.2-1.017-0.745 1.261-0.005 0.394-1.197 0.394 1.197 1.261 0.005-1.017 0.745 0.385 1.2-1.023-0.737zM5.57 16.852l-1.023 0.737 0.385-1.2-1.017-0.745 1.261-0.005 0.394-1.197 0.394 1.197 1.261 0.005-1.017 0.745 0.385 1.2-1.023-0.737zM7.020 11.633l-1.023 0.737 0.385-1.2-1.017-0.745 1.261-0.005 0.394-1.197 0.394 1.197 1.261 0.005-1.017 0.745 0.385 1.2-1.023-0.737zM10.79 7.805l-1.023 0.737 0.385-1.2-1.017-0.745 1.261-0.005 0.394-1.197 0.394 1.197 1.261 0.005-1.017 0.745 0.385 1.2-1.023-0.737z"></path>
</svg>
