<?xml version="1.0" encoding="utf-8"?>
<!-- Generated by IcoMoon.io -->
<!DOCTYPE svg PUBLIC "-//W3C//DTD SVG 1.1//EN" "http://www.w3.org/Graphics/SVG/1.1/DTD/svg11.dtd">
<svg version="1.1" xmlns="http://www.w3.org/2000/svg" xmlns:xlink="http://www.w3.org/1999/xlink" width="32" height="32" viewBox="0 0 32 32">
<path d="M12.645 30.199h-7.801c-1.68 0-3.043-1.362-3.043-3.043v-22.313c0-1.68 1.362-3.043 3.043-3.043h22.313c1.68 0 3.043 1.362 3.043 3.043v22.313c0 1.68-1.362 3.043-3.043 3.043h-7.011v-5.913c0-1.094-0.448-1.948-1.344-2.563 2.198-0.198 3.805-0.755 4.821-1.672s1.524-2.37 1.524-4.36c0-1.542-0.474-2.839-1.422-3.891 0.188-0.563 0.281-1.104 0.281-1.625 0-0.771-0.177-1.479-0.531-2.125-0.698 0-1.323 0.115-1.875 0.344s-1.229 0.625-2.031 1.188c-0.969-0.219-1.969-0.328-3-0.328-1.177 0-2.276 0.12-3.297 0.359-0.781-0.573-1.456-0.977-2.024-1.211s-1.211-0.352-1.93-0.352c-0.344 0.656-0.516 1.365-0.516 2.125 0 0.542 0.089 1.089 0.266 1.641-0.948 1.021-1.422 2.313-1.422 3.875 0 1.99 0.505 3.438 1.516 4.344s2.63 1.464 4.86 1.672c-0.594 0.396-1.005 0.974-1.234 1.734-0.51 0.177-1.042 0.266-1.594 0.266-0.417 0-0.776-0.094-1.078-0.281-0.094-0.052-0.18-0.107-0.258-0.164s-0.159-0.128-0.242-0.211c-0.083-0.083-0.151-0.148-0.203-0.195s-0.12-0.128-0.203-0.242c-0.083-0.115-0.138-0.188-0.164-0.219s-0.089-0.115-0.188-0.25c-0.099-0.135-0.154-0.208-0.164-0.219-0.49-0.646-1.073-0.969-1.75-0.969-0.365 0-0.547 0.078-0.547 0.234 0 0.063 0.089 0.167 0.266 0.313 0.333 0.292 0.51 0.448 0.531 0.469 0.25 0.198 0.391 0.323 0.422 0.375 0.302 0.375 0.531 0.787 0.688 1.234 0.583 1.302 1.583 1.953 3 1.953 0.229 0 0.677-0.052 1.344-0.156v4.819z"></path>
</svg>
