<!-- Generated by IcoMoon.io -->
<svg version="1.1" xmlns="http://www.w3.org/2000/svg" width="32" height="32" viewBox="0 0 32 32">
<title>google-hair</title>
<path d="M27.156 1.801h-22.313c-1.68 0-3.043 1.362-3.043 3.043v22.313c0 1.68 1.362 3.043 3.043 3.043h22.313c1.68 0 3.043-1.362 3.043-3.043v-22.313c0-1.681-1.362-3.043-3.043-3.043zM29.807 27.157c0 1.462-1.189 2.651-2.651 2.651h-22.313c-1.462 0-2.651-1.189-2.651-2.651v-22.313c0-1.462 1.189-2.651 2.651-2.651h22.313c1.462 0 2.651 1.189 2.651 2.651v22.313z"></path>
<path d="M23.31 12.876h-1.474v2.063h-2.122v1.474h2.122v2.122h1.474v-2.122h2.063v-1.474h-2.063z"></path>
<path d="M12.581 14.821v2.358l3.221-0.003-0.062 0.175c-0.467 1.313-1.182 2.187-3.159 2.187-1.95 0-3.478-1.554-3.478-3.537s1.528-3.537 3.478-3.537c1.108 0 1.766 0.417 2.311 0.869h0c0.166-0.166 0.272-0.284 0.389-0.416 0.226-0.254 0.483-0.542 1.306-1.32-1.098-0.999-2.521-1.55-4.006-1.55-3.283 0-5.954 2.671-5.954 5.954s2.671 5.954 5.954 5.954c1.846 0 3.301-0.596 4.323-1.77 1.362-1.566 1.614-3.797 1.395-5.363h-5.718z"></path>
</svg>
