<?xml version="1.0" encoding="utf-8"?>
<!-- Generated by IcoMoon.io -->
<!DOCTYPE svg PUBLIC "-//W3C//DTD SVG 1.1//EN" "http://www.w3.org/Graphics/SVG/1.1/DTD/svg11.dtd">
<svg version="1.1" xmlns="http://www.w3.org/2000/svg" xmlns:xlink="http://www.w3.org/1999/xlink" width="32" height="32" viewBox="0 0 32 32">
<path fill="#000" d="M11.109 24.903c-1.722 0-3.123-1.401-3.123-3.123v-11.56c0-1.722 1.401-3.124 3.123-3.124s3.123 1.401 3.123 3.124v11.56c0 1.722-1.401 3.123-3.123 3.123zM11.109 8.897c-0.729 0-1.323 0.593-1.323 1.323v11.56c0 0.729 0.593 1.323 1.323 1.323s1.323-0.593 1.323-1.323v-11.56c0-0.729-0.593-1.323-1.323-1.323z"></path>
<path fill="#000" d="M20.891 24.903c-1.722 0-3.124-1.401-3.124-3.123v-11.56c0-1.722 1.401-3.124 3.124-3.124s3.123 1.401 3.123 3.124v11.56c0 1.722-1.401 3.123-3.123 3.123zM20.891 8.897c-0.729 0-1.323 0.593-1.323 1.323v11.56c0 0.729 0.593 1.323 1.323 1.323s1.323-0.593 1.323-1.323v-11.56c0-0.729-0.593-1.323-1.323-1.323z"></path>
</svg>
