<!-- Generated by IcoMoon.io -->
<svg version="1.1" xmlns="http://www.w3.org/2000/svg" width="32" height="32" viewBox="0 0 32 32">
<title>twitter-hair</title>
<path d="M23.93 15.522c-0.402-0.042-0.73-0.116-0.983-0.222 0.508-0.042 0.93-0.169 1.269-0.381s0.571-0.465 0.698-0.761c-0.169 0.106-0.486 0.196-0.952 0.27s-0.856 0.058-1.174-0.048c0-0.063-0.011-0.132-0.032-0.206s-0.042-0.143-0.063-0.206c-0.233-0.867-0.714-1.602-1.443-2.205s-1.517-0.862-2.363-0.777c0.063-0.042 0.132-0.074 0.206-0.095s0.143-0.042 0.206-0.063c0.106-0.042 0.338-0.111 0.698-0.206s0.497-0.238 0.412-0.428c-0.063-0.169-0.338-0.164-0.825 0.016s-0.793 0.291-0.92 0.333c0.169-0.063 0.365-0.153 0.587-0.27s0.344-0.27 0.365-0.46c-0.254 0.021-0.502 0.090-0.745 0.206s-0.46 0.27-0.65 0.46c0.063-0.085 0.122-0.174 0.174-0.27s0.079-0.185 0.079-0.27c-0.677 0.423-1.232 1.036-1.665 1.84s-0.819 1.639-1.158 2.506c-0.254-0.254-0.492-0.476-0.714-0.666s-0.428-0.338-0.619-0.444c-0.571-0.296-1.221-0.608-1.951-0.936s-1.623-0.693-2.68-1.094c-0.042 0.359 0.053 0.751 0.286 1.174s0.645 0.793 1.237 1.11c-0.127-0.021-0.296-0.016-0.508 0.016s-0.402 0.069-0.571 0.111c0.063 0.402 0.243 0.761 0.539 1.078s0.782 0.55 1.459 0.698c-0.317 0.021-0.566 0.069-0.745 0.143s-0.344 0.196-0.492 0.365c0.148 0.275 0.402 0.539 0.761 0.793s0.846 0.349 1.459 0.285c-0.698 0.296-0.92 0.645-0.666 1.047s0.666 0.56 1.237 0.476c-0.973 0.994-2.115 1.48-3.426 1.459s-2.4-0.444-3.267-1.269c1.142 1.544 2.538 2.569 4.187 3.077s3.278 0.613 4.885 0.317c1.607-0.296 3.050-0.946 4.33-1.951s2.099-2.257 2.458-3.759c0.55 0.021 0.994-0.053 1.332-0.222s0.613-0.359 0.825-0.571c-0.317 0.042-0.677 0.042-1.079 0z"></path>
<path d="M27.157 1.801h-22.313c-1.681 0-3.043 1.362-3.043 3.043v22.313c0 1.68 1.362 3.043 3.043 3.043h22.313c1.68 0 3.043-1.362 3.043-3.043v-22.313c0-1.68-1.362-3.043-3.043-3.043zM29.808 27.157c0 1.462-1.189 2.651-2.651 2.651h-22.313c-1.462 0-2.651-1.189-2.651-2.651v-22.313c0-1.462 1.189-2.651 2.651-2.651h22.313c1.462 0 2.651 1.189 2.651 2.651v22.313z"></path>
</svg>
